<svg xmlns="http://www.w3.org/2000/svg" xmlns:xlink="http://www.w3.org/1999/xlink" viewBox="0 0 466.42 126.21"><defs><style>.cls-1,.cls-11,.cls-12,.cls-5{fill:none;}.cls-2{fill:#ffdaa4;}.cls-3{fill:#754d25;}.cls-4{fill:#fff;}.cls-5{stroke:#f15b27;stroke-width:2.4px;stroke-dasharray:6;opacity:0.5;}.cls-12,.cls-5{stroke-linecap:round;}.cls-11,.cls-5{stroke-miterlimit:10;}.cls-6{fill:#fbc5bc;}.cls-7{fill:#f8a89d;}.cls-8{clip-path:url(#clip-path);}.cls-9{fill:#c35263;}.cls-10{fill:#f8aeaf;}.cls-11,.cls-12{stroke:#f3828f;stroke-width:0.89px;}.cls-12{stroke-linejoin:round;}.cls-13{fill:#f49925;}</style><clipPath id="clip-path"><path class="cls-1" d="M34.41,43.65a9.39,9.39,0,0,1-5.68,0,7.88,7.88,0,0,0-2.48-.4,8.66,8.66,0,0,0-5.73,2.39c-3.44,3-3.81,6.87-4.09,10-.23,2.43-.09,4.54-1.78,6l0,0H48.51l0,0c-1.7-1.51-1.55-3.62-1.78-6-.29-3.1-.65-7-4.1-10a8.65,8.65,0,0,0-5.73-2.39,7.76,7.76,0,0,0-2.47.4"/></clipPath></defs><g id="Layer_2" data-name="Layer 2"><g id="Layer_1-2" data-name="Layer 1"><path class="cls-2" d="M442.31,18.65C415.07,4.85,327.33,0,257.79,0h-.21C188,0,100.3,4.85,73.06,18.65s-24,44.57-24,44.57-3.28,33.31,24,44.34c27.08,11,113.42,18.54,183.87,18.65h1.51c70.45-.11,156.79-7.69,183.87-18.65,27.27-11,24-44.34,24-44.34S469.58,32.46,442.31,18.65Z"/><path class="cls-3" d="M102.21,32.91V25a1,1,0,0,1,.31-.8,1.13,1.13,0,0,1,1.49,0,1.05,1.05,0,0,1,.31.81v7.95a1.05,1.05,0,0,1-.31.81,1.06,1.06,0,0,1-1.8-.8Z"/><path class="cls-3" d="M105.87,32.88V27.49a1.07,1.07,0,0,1,.29-.79.92.92,0,0,1,.72-.31,1,1,0,0,1,.63.19.87.87,0,0,1,.29.55,1.92,1.92,0,0,1,.76-.62,3,3,0,0,1,1.19-.21,2.8,2.8,0,0,1,2,.72,2.56,2.56,0,0,1,.78,2v3.86a1.18,1.18,0,0,1-.27.82,1,1,0,0,1-1.45,0,1.08,1.08,0,0,1-.29-.8V29.37a1.3,1.3,0,0,0-.39-1,1.32,1.32,0,0,0-.93-.34,1.17,1.17,0,0,0-1,.4,1.48,1.48,0,0,0-.34,1v3.5a1.18,1.18,0,0,1-.27.82,1,1,0,0,1-1.45,0,1.08,1.08,0,0,1-.29-.8Z"/><path class="cls-3" d="M119.79,27.58s0,.09,0,.13,0,.09,0,.13a1.37,1.37,0,0,1-.26.49.62.62,0,0,1-.49.23l-.16,0-.17,0-.2-.06-.21-.08-.4-.13a1.63,1.63,0,0,0-.45-.07,1.44,1.44,0,0,0-1.28.64,2.62,2.62,0,0,0-.42,1.42v.11a2.47,2.47,0,0,0,.48,1.33,1.44,1.44,0,0,0,1.22.59l.26,0a1.31,1.31,0,0,0,.28-.09l.16,0,.15-.06.39-.14a.67.67,0,0,1,.26-.07.82.82,0,0,1,.61.26.85.85,0,0,1,.26.62.92.92,0,0,1-.44.79,3.27,3.27,0,0,1-.95.43,3.35,3.35,0,0,1-.6.12c-.19,0-.35,0-.48,0a3.33,3.33,0,0,1-2.62-1.15,4.2,4.2,0,0,1,0-5.44,3.25,3.25,0,0,1,2.6-1.18l.48,0c.17,0,.36.06.54.1a3.26,3.26,0,0,1,1,.39.84.84,0,0,1,.45.76Z"/><path class="cls-3" d="M120.81,32.88v-5.5a.87.87,0,0,1,.3-.71,1.14,1.14,0,0,1,.66-.28h.07a1.32,1.32,0,0,1,.7.17.72.72,0,0,1,.28.67l0,0a2.21,2.21,0,0,1,.61-.61,1.47,1.47,0,0,1,.8-.21,1,1,0,0,1,1,1.08A.64.64,0,0,1,125,28a1.9,1.9,0,0,1-.51.27l-.24.09-.25.11s0,0,0,0h0a5.4,5.4,0,0,0-.81.48,1,1,0,0,0-.37.86v3.08a1.13,1.13,0,0,1-.28.82.94.94,0,0,1-.72.3,1,1,0,0,1-.73-.3,1.12,1.12,0,0,1-.28-.8Z"/><path class="cls-3" d="M127.47,30.87a1.49,1.49,0,0,0,.66,1.11,2.21,2.21,0,0,0,1.25.36,2.09,2.09,0,0,0,.72-.13,5.67,5.67,0,0,0,.61-.28l.51-.28a1,1,0,0,1,.44-.13.78.78,0,0,1,.57.28.84.84,0,0,1,.25.59c0,.38-.27.72-.82,1a4.9,4.9,0,0,1-1.82.61l-.33,0-.32,0a3.59,3.59,0,0,1-2.73-1.1,3.85,3.85,0,0,1-1-2.77,4.1,4.1,0,0,1,1-2.72,3.47,3.47,0,0,1,5-.26,4.19,4.19,0,0,1,1.2,2.05c0,.11,0,.23,0,.34s0,.23,0,.34a.94.94,0,0,1-.21.67.87.87,0,0,1-.67.23Zm3.16-1.35a1.86,1.86,0,0,0-.49-1.08,1.61,1.61,0,0,0-2.21,0,1.81,1.81,0,0,0-.5,1.08Z"/><path class="cls-3" d="M140.6,27.69v5.22a2.09,2.09,0,0,1,0,.24,1.43,1.43,0,0,1-.23.59,1.1,1.1,0,0,1-1.37,0,1.57,1.57,0,0,1-.32-.62,2.72,2.72,0,0,1-.87.7,2.38,2.38,0,0,1-1.05.23A3.06,3.06,0,0,1,134.38,33a4.05,4.05,0,0,1-1-2.78,4.16,4.16,0,0,1,1-2.8,3,3,0,0,1,2.36-1.12,2.6,2.6,0,0,1,1.07.23,2,2,0,0,1,.85.71.94.94,0,0,1,.32-.61,1,1,0,0,1,.65-.24.83.83,0,0,1,.72.27,1.42,1.42,0,0,1,.23.6,1.85,1.85,0,0,1,0,.23v.2Zm-5.16,2.52v.13a.71.71,0,0,0,0,.14,2.47,2.47,0,0,0,.44,1.21,1.29,1.29,0,0,0,1.14.56,1.23,1.23,0,0,0,1.11-.56,2.46,2.46,0,0,0,.43-1.21.78.78,0,0,0,0-.14v-.12s0-.09,0-.14,0-.11,0-.17a2.5,2.5,0,0,0-.44-1.2,1.4,1.4,0,0,0-2.22,0,2.53,2.53,0,0,0-.46,1.2,1,1,0,0,1,0,.17v.14Z"/><path class="cls-3" d="M147.17,27.76a1,1,0,0,1-.23.64.77.77,0,0,1-.6.27,1,1,0,0,1-.35-.09l-.45-.21-.28-.11a1.36,1.36,0,0,0-.28-.11l-.22,0-.22,0a1,1,0,0,0-.48.13.47.47,0,0,0-.21.43.42.42,0,0,0,.22.36,2.65,2.65,0,0,0,.56.3l.47.17a5.32,5.32,0,0,1,.5.21,4.59,4.59,0,0,1,1.2.73,1.62,1.62,0,0,1,.55,1.32,2.1,2.1,0,0,1-.78,1.68,3.11,3.11,0,0,1-2.09.68l-.44,0-.46-.08a4.27,4.27,0,0,1-1.32-.54,1.08,1.08,0,0,1-.59-.89.52.52,0,0,1,0-.17.48.48,0,0,1,.07-.18,1.2,1.2,0,0,1,.3-.38.71.71,0,0,1,.47-.17,1.25,1.25,0,0,1,.45.08,1.93,1.93,0,0,1,.38.19l.08,0,.07,0a3.71,3.71,0,0,0,.49.24,1.71,1.71,0,0,0,.62.11,1,1,0,0,0,.63-.15.55.55,0,0,0,.17-.43.4.4,0,0,0-.22-.35,2.78,2.78,0,0,0-.55-.29l-.47-.18-.51-.2a4.85,4.85,0,0,1-1.21-.74,1.65,1.65,0,0,1-.54-1.33,2.09,2.09,0,0,1,.77-1.7,2.9,2.9,0,0,1,2-.65,2.68,2.68,0,0,1,.4,0,3.64,3.64,0,0,1,.44.07,3.33,3.33,0,0,1,1.15.47,1,1,0,0,1,.53.89Z"/><path class="cls-3" d="M149.39,23.36a1.19,1.19,0,0,1,.8.35,1.05,1.05,0,0,1,.34.77,1.14,1.14,0,0,1-.33.82,1.08,1.08,0,0,1-1.6,0,1.14,1.14,0,0,1-.34-.81,1.09,1.09,0,0,1,.34-.77,1.12,1.12,0,0,1,.79-.33Zm-1,9.52V27.49a1.11,1.11,0,0,1,.28-.79,1,1,0,0,1,.72-.31.92.92,0,0,1,.73.31,1.13,1.13,0,0,1,.28.81v5.37a1.13,1.13,0,0,1-.28.82.94.94,0,0,1-.73.3,1,1,0,0,1-.72-.3,1.12,1.12,0,0,1-.28-.8Z"/><path class="cls-3" d="M151.87,32.88V27.49a1.11,1.11,0,0,1,.29-.79.92.92,0,0,1,.72-.31,1,1,0,0,1,.63.19.83.83,0,0,1,.29.55,1.88,1.88,0,0,1,.77-.62,2.87,2.87,0,0,1,1.18-.21,2.8,2.8,0,0,1,2,.72,2.53,2.53,0,0,1,.79,2v3.86a1.13,1.13,0,0,1-.28.82,1,1,0,0,1-1.45,0,1.12,1.12,0,0,1-.29-.8V29.37a1.33,1.33,0,0,0-.38-1,1.35,1.35,0,0,0-.93-.34,1.19,1.19,0,0,0-1,.4,1.47,1.47,0,0,0-.33,1v3.5a1.18,1.18,0,0,1-.28.82,1,1,0,0,1-1.45,0,1.12,1.12,0,0,1-.29-.8Z"/><path class="cls-3" d="M166.89,27.49v5.84a3.37,3.37,0,0,1-1.07,2.73A4.19,4.19,0,0,1,163,37a6,6,0,0,1-.63,0,5.15,5.15,0,0,1-.82-.16,4.64,4.64,0,0,1-1.19-.48.94.94,0,0,1-.54-.82.49.49,0,0,1,0-.12l0-.12a1.11,1.11,0,0,1,.28-.41.8.8,0,0,1,.42-.23h.07a1.56,1.56,0,0,1,.5.09l.56.23.67.21a3.22,3.22,0,0,0,.79.1,1.82,1.82,0,0,0,1.23-.42,1.45,1.45,0,0,0,.48-1.17v-.49h0a2,2,0,0,1-.82.72,2.81,2.81,0,0,1-1.21.24,2.6,2.6,0,0,1-2.34-1.18,4.83,4.83,0,0,1-.77-2.68,4.43,4.43,0,0,1,.9-2.73A2.86,2.86,0,0,1,163,26.3h.2l.21,0a3,3,0,0,1,.82.3,1.7,1.7,0,0,1,.62.6,1.2,1.2,0,0,1,.34-.63,1,1,0,0,1,.67-.21.91.91,0,0,1,.72.31,1.13,1.13,0,0,1,.28.81Zm-2,2.76a.76.76,0,0,0,0-.15c0-.06,0-.12,0-.17a2.54,2.54,0,0,0-.44-1.21,1.29,1.29,0,0,0-1.12-.56,1.24,1.24,0,0,0-1.07.53,2.37,2.37,0,0,0-.47,1.15,1.1,1.1,0,0,0,0,.18,1,1,0,0,0,0,.17,2.66,2.66,0,0,0,.39,1.44,1.28,1.28,0,0,0,1.18.62,1.32,1.32,0,0,0,1.17-.59,2.66,2.66,0,0,0,.41-1.31v-.1Z"/><path class="cls-3" d="M168.36,32.88V24.26a1.14,1.14,0,0,1,.29-.8,1,1,0,0,1,1.45,0,1.16,1.16,0,0,1,.28.81v8.61a1.13,1.13,0,0,1-.28.82,1,1,0,0,1-1.45,0,1.12,1.12,0,0,1-.29-.8Z"/><path class="cls-3" d="M171.35,27.76a1.14,1.14,0,0,1-.07-.22,2.46,2.46,0,0,1,0-.28.73.73,0,0,1,.22-.54,1.14,1.14,0,0,1,.5-.31l.11,0h.11a1,1,0,0,1,.62.19,1.09,1.09,0,0,1,.39.52l1.38,3.78,1.49-3.79a1,1,0,0,1,.38-.51,1,1,0,0,1,.63-.19h.11l.11,0a1.14,1.14,0,0,1,.5.31.74.74,0,0,1,.23.54,2.46,2.46,0,0,1,0,.28,1.13,1.13,0,0,1-.08.24l-3.37,8.39a1.8,1.8,0,0,1-.36.56.8.8,0,0,1-.6.24,1.06,1.06,0,0,1-.78-.27.83.83,0,0,1-.27-.6s0-.06,0-.1a.28.28,0,0,0,0-.09.73.73,0,0,1,0-.2l.06-.19.88-2.19Z"/><path class="cls-3" d="M183,31.14V27.49a1.11,1.11,0,0,1,.28-.79,1,1,0,0,1,1.45,0,1.13,1.13,0,0,1,.28.81V31.1a1.19,1.19,0,0,0,.4,1,1.37,1.37,0,0,0,1.81,0,1.19,1.19,0,0,0,.4-1V27.5a1.12,1.12,0,0,1,.28-.8,1,1,0,0,1,1.45,0,1.13,1.13,0,0,1,.28.81v3.63a2.77,2.77,0,0,1-.86,2.15,4.17,4.17,0,0,1-4.91,0,2.72,2.72,0,0,1-.86-2.13Z"/><path class="cls-3" d="M191.17,27.49a1.07,1.07,0,0,1,.29-.79.92.92,0,0,1,.72-.31,1,1,0,0,1,.66.21,1.21,1.21,0,0,1,.35.63,1.69,1.69,0,0,1,.75-.67,2.85,2.85,0,0,1,1-.26h.14a2.7,2.7,0,0,1,2.38,1.19,4.9,4.9,0,0,1,.87,2.61v.2a4.27,4.27,0,0,1-.89,2.61A2.91,2.91,0,0,1,195,34.09l-.25,0-.26,0a3.55,3.55,0,0,1-.7-.22,2.63,2.63,0,0,1-.63-.41v2.45a1.17,1.17,0,0,1-.28.81,1,1,0,0,1-1.45,0,1.09,1.09,0,0,1-.29-.81Zm2,2.65v.18a1,1,0,0,1,0,.17,2.66,2.66,0,0,0,.45,1.21,1.39,1.39,0,0,0,2.19,0,2.51,2.51,0,0,0,.47-1.16c0-.05,0-.11,0-.17s0-.12,0-.18,0-.11,0-.17,0-.12,0-.18a2.5,2.5,0,0,0-.47-1.17,1.25,1.25,0,0,0-1.07-.54,1.3,1.3,0,0,0-1.17.6,2.44,2.44,0,0,0-.41,1.31v.08Z"/><path class="cls-3" d="M201,33l-1.71-4.84a2.73,2.73,0,0,1-.13-.41,1.55,1.55,0,0,1-.07-.35.28.28,0,0,1,0-.09V27.2a.69.69,0,0,1,.29-.57,1.08,1.08,0,0,1,.72-.24.9.9,0,0,1,.61.21,1.09,1.09,0,0,1,.34.59L202.2,31h0l1.18-3.77a1.38,1.38,0,0,1,.35-.63.92.92,0,0,1,.67-.23,1,1,0,0,1,.68.23,1.49,1.49,0,0,1,.34.65L206.63,31h0l1.17-3.85a1,1,0,0,1,.33-.57.93.93,0,0,1,.62-.21,1,1,0,0,1,.73.26,1,1,0,0,1,.28.72,1,1,0,0,1-.07.34l-.13.42L207.86,33a2.08,2.08,0,0,1-.44.74,1.07,1.07,0,0,1-.78.28,1.08,1.08,0,0,1-.74-.24,1.46,1.46,0,0,1-.42-.68l-1-3.26h0l-1,3.25a1.68,1.68,0,0,1-.42.69,1.12,1.12,0,0,1-.74.24,1.05,1.05,0,0,1-.78-.28A2,2,0,0,1,201,33Z"/><path class="cls-3" d="M217.69,27.69v5.22a2.32,2.32,0,0,1,0,.24,1.3,1.3,0,0,1-.23.59.86.86,0,0,1-.72.26.83.83,0,0,1-.64-.22,1.58,1.58,0,0,1-.33-.62,2.8,2.8,0,0,1-.86.7,2.45,2.45,0,0,1-1,.23A3.06,3.06,0,0,1,211.46,33a4.05,4.05,0,0,1-1-2.78,4.12,4.12,0,0,1,1-2.8,3,3,0,0,1,2.36-1.12,2.64,2.64,0,0,1,1.07.23,2,2,0,0,1,.84.71.91.91,0,0,1,.33-.61.94.94,0,0,1,.64-.24.83.83,0,0,1,.72.27,1.3,1.3,0,0,1,.23.6,2,2,0,0,1,0,.23v.2Zm-5.17,2.52v.13a.71.71,0,0,0,0,.14,2.58,2.58,0,0,0,.44,1.21,1.29,1.29,0,0,0,1.15.56,1.23,1.23,0,0,0,1.1-.56,2.58,2.58,0,0,0,.44-1.21.71.71,0,0,0,0-.14v-.12a.71.71,0,0,0,0-.14v-.17a2.62,2.62,0,0,0-.45-1.2,1.26,1.26,0,0,0-1.09-.55,1.31,1.31,0,0,0-1.13.55,2.53,2.53,0,0,0-.46,1.2v.17a.71.71,0,0,0,0,.14Z"/><path class="cls-3" d="M219.16,32.88v-5.5a.87.87,0,0,1,.3-.71,1.14,1.14,0,0,1,.66-.28h.07a1.26,1.26,0,0,1,.69.17.71.71,0,0,1,.29.67l0,0a2.21,2.21,0,0,1,.61-.61,1.47,1.47,0,0,1,.8-.21,1,1,0,0,1,1,1.08.61.61,0,0,1-.21.51,1.7,1.7,0,0,1-.5.27l-.24.09-.25.11s0,0,0,0h0a5.4,5.4,0,0,0-.81.48,1,1,0,0,0-.37.86v3.08a1.13,1.13,0,0,1-.28.82,1,1,0,0,1-1.45,0,1.12,1.12,0,0,1-.28-.8Z"/><path class="cls-3" d="M231.08,24.26v8.62a1.13,1.13,0,0,1-.28.82.94.94,0,0,1-.72.3,1,1,0,0,1-.67-.21,1.18,1.18,0,0,1-.34-.61,1.67,1.67,0,0,1-.62.59,3.48,3.48,0,0,1-.82.29l-.21,0h-.2a2.88,2.88,0,0,1-2.42-1.18,4.17,4.17,0,0,1-.9-2.6v-.2a4.9,4.9,0,0,1,.87-2.61,2.69,2.69,0,0,1,2.38-1.18,3.27,3.27,0,0,1,1,.17,2.6,2.6,0,0,1,.89.53V24.26a1.13,1.13,0,0,1,.28-.8,1,1,0,0,1,.73-.31.94.94,0,0,1,.72.31,1.16,1.16,0,0,1,.28.81Zm-2,5.88v-.07a2.54,2.54,0,0,0-.42-1.31,1.27,1.27,0,0,0-1.16-.6,1.26,1.26,0,0,0-1.08.54,2.49,2.49,0,0,0-.46,1.17l0,.18v.35l0,.17a2.49,2.49,0,0,0,.46,1.16,1.4,1.4,0,0,0,2.2,0,2.54,2.54,0,0,0,.44-1.21c0-.06,0-.11,0-.17s0-.11,0-.17Z"/><path class="cls-3" d="M109.65,42.49v5.22a2.32,2.32,0,0,1,0,.24,1.3,1.3,0,0,1-.23.59.86.86,0,0,1-.72.26.83.83,0,0,1-.64-.22,1.58,1.58,0,0,1-.33-.62,2.8,2.8,0,0,1-.86.7,2.46,2.46,0,0,1-1.06.23,3.06,3.06,0,0,1-2.37-1.09,4.05,4.05,0,0,1-1-2.78,4.12,4.12,0,0,1,1-2.8,3,3,0,0,1,2.35-1.12,2.65,2.65,0,0,1,1.08.23,2,2,0,0,1,.84.71.91.91,0,0,1,.33-.61.94.94,0,0,1,.64-.24.83.83,0,0,1,.72.27,1.3,1.3,0,0,1,.23.6,2,2,0,0,1,0,.23v.2ZM104.48,45v.13a.57.57,0,0,0,0,.13,2.58,2.58,0,0,0,.44,1.22,1.29,1.29,0,0,0,1.15.56,1.23,1.23,0,0,0,1.1-.56,2.58,2.58,0,0,0,.44-1.22.57.57,0,0,0,0-.13V45a.71.71,0,0,0,0-.14v-.17a2.62,2.62,0,0,0-.45-1.2,1.26,1.26,0,0,0-1.09-.55,1.31,1.31,0,0,0-1.13.55,2.53,2.53,0,0,0-.46,1.2v.17a.71.71,0,0,0,0,.14Z"/><path class="cls-3" d="M111.14,47.68V42.29a1.11,1.11,0,0,1,.29-.79.92.92,0,0,1,.72-.31,1,1,0,0,1,.63.19.88.88,0,0,1,.3.55,1.85,1.85,0,0,1,.76-.62,3.19,3.19,0,0,1,3.16.51,2.56,2.56,0,0,1,.78,2v3.86a1.13,1.13,0,0,1-.28.82,1,1,0,0,1-1.45,0,1.12,1.12,0,0,1-.29-.8V44.17a1.33,1.33,0,0,0-.38-1,1.35,1.35,0,0,0-.93-.34,1.16,1.16,0,0,0-1,.4,1.43,1.43,0,0,0-.34,1v3.5a1.13,1.13,0,0,1-.28.82,1,1,0,0,1-1.45,0,1.13,1.13,0,0,1-.29-.81Z"/><path class="cls-3" d="M126.17,39.06v8.62a1.14,1.14,0,0,1-.29.82.92.92,0,0,1-.72.3,1,1,0,0,1-.67-.21,1.18,1.18,0,0,1-.34-.61,1.67,1.67,0,0,1-.62.59,3.33,3.33,0,0,1-.82.29l-.21,0h-.2a2.9,2.9,0,0,1-2.42-1.18,4.17,4.17,0,0,1-.9-2.6v-.2a4.9,4.9,0,0,1,.87-2.61,2.7,2.7,0,0,1,2.38-1.18,3.22,3.22,0,0,1,1,.17,2.6,2.6,0,0,1,.89.53V39.06a1.1,1.1,0,0,1,.29-.8,1,1,0,0,1,.72-.31.93.93,0,0,1,.72.31,1.16,1.16,0,0,1,.29.81Zm-2,5.88v-.07a2.63,2.63,0,0,0-.41-1.31,1.3,1.3,0,0,0-1.17-.6,1.23,1.23,0,0,0-1.07.54,2.4,2.4,0,0,0-.47,1.17,1.1,1.1,0,0,0,0,.18,1,1,0,0,0,0,.17,1.09,1.09,0,0,0,0,.18.88.88,0,0,0,0,.17,2.4,2.4,0,0,0,.47,1.16,1.24,1.24,0,0,0,1.07.52,1.28,1.28,0,0,0,1.12-.55,2.54,2.54,0,0,0,.44-1.21c0-.06,0-.11,0-.17a.91.91,0,0,0,0-.17Z"/><path class="cls-3" d="M138.65,39.06v8.62a1.13,1.13,0,0,1-.28.82.94.94,0,0,1-.73.3,1,1,0,0,1-.66-.21,1.18,1.18,0,0,1-.34-.61,1.67,1.67,0,0,1-.62.59,3.41,3.41,0,0,1-.83.29l-.2,0h-.2a2.88,2.88,0,0,1-2.42-1.18,4.17,4.17,0,0,1-.9-2.6v-.2a4.9,4.9,0,0,1,.87-2.61,2.69,2.69,0,0,1,2.38-1.18,3.27,3.27,0,0,1,1,.17,2.6,2.6,0,0,1,.89.53V39.06a1.13,1.13,0,0,1,.28-.8,1,1,0,0,1,.72-.31,1,1,0,0,1,.73.31,1.16,1.16,0,0,1,.28.81Zm-2,5.88v-.07a2.54,2.54,0,0,0-.42-1.31,1.28,1.28,0,0,0-1.17-.6,1.25,1.25,0,0,0-1.07.54,2.61,2.61,0,0,0-.47,1.17c0,.06,0,.12,0,.18v.35c0,.06,0,.12,0,.17a2.62,2.62,0,0,0,.47,1.16,1.39,1.39,0,0,0,2.19,0,2.45,2.45,0,0,0,.45-1.21c0-.06,0-.11,0-.17s0-.11,0-.17Z"/><path class="cls-3" d="M143.47,41.1a3.3,3.3,0,0,1,2.6,1.2,4.1,4.1,0,0,1,1,2.72,4,4,0,0,1-1,2.72,3.56,3.56,0,0,1-5.24,0,4,4,0,0,1-1-2.72,4.09,4.09,0,0,1,1-2.72,3.27,3.27,0,0,1,2.61-1.18Zm-1.13,2.41a2.42,2.42,0,0,0-.45,1.2c0,.06,0,.11,0,.17s0,.1,0,.14v.12a.59.59,0,0,0,0,.13,2.38,2.38,0,0,0,.44,1.22,1.26,1.26,0,0,0,1.14.56,1.29,1.29,0,0,0,1.14-.56,2.47,2.47,0,0,0,.44-1.22.62.62,0,0,0,0-.13v-.27a.86.86,0,0,1,0-.16,2.62,2.62,0,0,0-.45-1.21,1.3,1.3,0,0,0-1.13-.55A1.34,1.34,0,0,0,142.34,43.51Z"/><path class="cls-3" d="M149.73,47.78,148,42.94a3.15,3.15,0,0,1-.13-.41,1.55,1.55,0,0,1-.07-.35.28.28,0,0,1,0-.09V42a.69.69,0,0,1,.29-.57,1.08,1.08,0,0,1,.72-.24.92.92,0,0,1,.61.21,1.1,1.1,0,0,1,.34.58l1.16,3.84h0l1.17-3.77a1.59,1.59,0,0,1,.35-.63,1,1,0,0,1,.68-.23,1,1,0,0,1,.68.23,1.6,1.6,0,0,1,.34.65l1.17,3.75h0L156.54,42a1.11,1.11,0,0,1,.34-.57.93.93,0,0,1,.62-.21,1,1,0,0,1,.72.26.91.91,0,0,1,.28.72,1,1,0,0,1-.06.34l-.13.42-1.72,4.85a2.08,2.08,0,0,1-.44.74,1.07,1.07,0,0,1-.78.28,1.08,1.08,0,0,1-.74-.24,1.46,1.46,0,0,1-.42-.68l-1-3.26h0l-1,3.24a1.66,1.66,0,0,1-.42.7,1.13,1.13,0,0,1-.75.24,1,1,0,0,1-.77-.28,2,2,0,0,1-.44-.73Z"/><path class="cls-3" d="M159.53,47.68V42.29a1.11,1.11,0,0,1,.28-.79,1.05,1.05,0,0,1,1.35-.12.88.88,0,0,1,.3.55,1.85,1.85,0,0,1,.76-.62,2.9,2.9,0,0,1,1.18-.21,2.81,2.81,0,0,1,2,.72,2.56,2.56,0,0,1,.78,2v3.86a1.13,1.13,0,0,1-.28.82.94.94,0,0,1-.73.3,1,1,0,0,1-.72-.3,1.12,1.12,0,0,1-.28-.8V44.17a1.3,1.3,0,0,0-.39-1,1.35,1.35,0,0,0-.93-.34,1.16,1.16,0,0,0-1,.4,1.43,1.43,0,0,0-.34,1v3.5a1.13,1.13,0,0,1-.28.82.94.94,0,0,1-.73.3,1,1,0,0,1-.72-.3,1.13,1.13,0,0,1-.28-.81Z"/><path class="cls-3" d="M169.1,47.78l-1.71-4.84c0-.15-.1-.29-.13-.41a2.33,2.33,0,0,1-.06-.35.29.29,0,0,1,0-.09V42a.72.72,0,0,1,.29-.57,1.08,1.08,0,0,1,.72-.24.93.93,0,0,1,.62.21,1,1,0,0,1,.33.58l1.17,3.84h0l1.18-3.77a1.38,1.38,0,0,1,.35-.63,1.11,1.11,0,0,1,1.35,0,1.39,1.39,0,0,1,.34.65l1.18,3.75h0L175.92,42a1.11,1.11,0,0,1,.34-.57.9.9,0,0,1,.61-.21,1,1,0,0,1,.73.26.91.91,0,0,1,.28.72,1,1,0,0,1-.06.34c0,.12-.09.26-.14.42L176,47.78a2,2,0,0,1-.44.74,1,1,0,0,1-.77.28,1.13,1.13,0,0,1-.75-.24,1.64,1.64,0,0,1-.42-.68l-1-3.26h0l-1,3.24a1.48,1.48,0,0,1-.42.7,1.08,1.08,0,0,1-.74.24,1.05,1.05,0,0,1-.78-.28,2.13,2.13,0,0,1-.44-.73Z"/><path class="cls-3" d="M185.79,42.49v5.22a2.09,2.09,0,0,1,0,.24,1.43,1.43,0,0,1-.23.59,1.1,1.1,0,0,1-1.37,0,1.45,1.45,0,0,1-.32-.62,2.72,2.72,0,0,1-.87.7,2.45,2.45,0,0,1-1.05.23,3.06,3.06,0,0,1-2.37-1.09,4.05,4.05,0,0,1-1-2.78,4.11,4.11,0,0,1,1-2.8,3,3,0,0,1,2.36-1.12,2.64,2.64,0,0,1,1.07.23,2.07,2.07,0,0,1,.85.71.9.9,0,0,1,.32-.61,1,1,0,0,1,.65-.24.83.83,0,0,1,.72.27,1.42,1.42,0,0,1,.23.6,1.85,1.85,0,0,1,0,.23v.2ZM180.63,45v.13a.57.57,0,0,0,0,.13,2.47,2.47,0,0,0,.44,1.22,1.29,1.29,0,0,0,1.14.56,1.23,1.23,0,0,0,1.11-.56,2.56,2.56,0,0,0,.43-1.22.57.57,0,0,0,0-.13v-.26a1,1,0,0,1,0-.17,2.62,2.62,0,0,0-.45-1.2,1.25,1.25,0,0,0-1.09-.55,1.32,1.32,0,0,0-1.13.55,2.62,2.62,0,0,0-.45,1.2,1,1,0,0,1,0,.17V45Z"/><path class="cls-3" d="M187.26,47.68v-5.5a.87.87,0,0,1,.3-.71,1.14,1.14,0,0,1,.67-.28h.07a1.26,1.26,0,0,1,.69.17.73.73,0,0,1,.29.67l0,0a2.21,2.21,0,0,1,.61-.61,1.48,1.48,0,0,1,.81-.21,1,1,0,0,1,.67.26,1,1,0,0,1,.31.82.61.61,0,0,1-.21.51,1.76,1.76,0,0,1-.51.27l-.23.09-.26.11h0a4.84,4.84,0,0,0-.8.48,1,1,0,0,0-.37.86v3.08a1.18,1.18,0,0,1-.28.82,1,1,0,0,1-1.45,0,1.13,1.13,0,0,1-.29-.81Z"/><path class="cls-3" d="M199.19,39.06v8.62a1.18,1.18,0,0,1-.28.82,1,1,0,0,1-.73.3,1,1,0,0,1-.66-.21,1.19,1.19,0,0,1-.35-.61,1.65,1.65,0,0,1-.61.59,3.56,3.56,0,0,1-.83.29l-.2,0h-.21a2.91,2.91,0,0,1-2.42-1.18,4.22,4.22,0,0,1-.89-2.6v-.2a4.74,4.74,0,0,1,.87-2.61,2.68,2.68,0,0,1,2.37-1.18,3.22,3.22,0,0,1,1,.17,2.51,2.51,0,0,1,.89.53V39.06a1.14,1.14,0,0,1,.29-.8,1,1,0,0,1,1.45,0,1.21,1.21,0,0,1,.28.81Zm-2,5.88v-.07a2.53,2.53,0,0,0-.41-1.31,1.3,1.3,0,0,0-1.17-.6,1.24,1.24,0,0,0-1.07.54,2.5,2.5,0,0,0-.47,1.17,1.1,1.1,0,0,0,0,.18c0,.06,0,.12,0,.17s0,.12,0,.18a.88.88,0,0,0,0,.17,2.51,2.51,0,0,0,.47,1.16,1.25,1.25,0,0,0,1.07.52,1.27,1.27,0,0,0,1.12-.55,2.66,2.66,0,0,0,.45-1.21,1,1,0,0,1,0-.17V45Z"/><path class="cls-3" d="M102.76,62.48V57.1a1.12,1.12,0,0,1,.28-.8,1.07,1.07,0,0,1,1.36-.12.92.92,0,0,1,.29.56,2.42,2.42,0,0,1,.84-.62,2.55,2.55,0,0,1,1-.22,2.56,2.56,0,0,1,2.08,1,3.68,3.68,0,0,1,.6-.51,3.2,3.2,0,0,1,.69-.35l.43-.12a3,3,0,0,1,.41,0,2.8,2.8,0,0,1,2,.7,2.59,2.59,0,0,1,.77,2v3.86a1.18,1.18,0,0,1-.28.82,1,1,0,0,1-1.45,0,1.12,1.12,0,0,1-.29-.8V59a1.52,1.52,0,0,0-.31-1,1.07,1.07,0,0,0-.86-.38,1.09,1.09,0,0,0-.88.38,1.53,1.53,0,0,0-.31,1v3.5a1.18,1.18,0,0,1-.28.82,1,1,0,0,1-1.45,0,1.12,1.12,0,0,1-.29-.8V59a1.53,1.53,0,0,0-.32-1,1.21,1.21,0,0,0-1.76,0,1.65,1.65,0,0,0-.29,1v3.5a1.13,1.13,0,0,1-.28.82.94.94,0,0,1-.72.3,1,1,0,0,1-.73-.3,1.13,1.13,0,0,1-.28-.81Z"/><path class="cls-3" d="M118.35,55.9A3.3,3.3,0,0,1,121,57.1a4.09,4.09,0,0,1,1,2.72,4,4,0,0,1-1,2.72,3.55,3.55,0,0,1-5.23,0,4,4,0,0,1-1-2.72,4.1,4.1,0,0,1,1-2.72,3.25,3.25,0,0,1,2.6-1.18Zm-1.12,2.41a2.53,2.53,0,0,0-.46,1.21.92.92,0,0,1,0,.16v.26a.57.57,0,0,0,0,.13,2.58,2.58,0,0,0,.44,1.22,1.29,1.29,0,0,0,1.14.56,1.26,1.26,0,0,0,1.14-.56,2.49,2.49,0,0,0,.45-1.22s0-.09,0-.13v-.12a.76.76,0,0,0,0-.15v-.16a2.53,2.53,0,0,0-.46-1.21,1.28,1.28,0,0,0-1.13-.55A1.32,1.32,0,0,0,117.23,58.31Z"/><path class="cls-3" d="M124.74,62.76l-2-5.22a1.86,1.86,0,0,1-.09-.24.78.78,0,0,1,0-.22V57a.89.89,0,0,1,.32-.74,1.16,1.16,0,0,1,.72-.24.8.8,0,0,1,.53.16,1.44,1.44,0,0,1,.3.37l0,.09a.36.36,0,0,1,0,.09l1.29,4h0l1.29-4,0-.08,0-.09a1.25,1.25,0,0,1,.3-.37A.78.78,0,0,1,128,56a1.16,1.16,0,0,1,.72.24.87.87,0,0,1,.33.74v.11c0,.08,0,.15,0,.22s0,.15-.09.26l-2,5.2a1.58,1.58,0,0,1-.36.63,1,1,0,0,1-.73.21,1,1,0,0,1-.73-.21,1.81,1.81,0,0,1-.36-.62Z"/><path class="cls-3" d="M131.61,60.47a1.56,1.56,0,0,0,.66,1.11,2.2,2.2,0,0,0,1.24.36,1.9,1.9,0,0,0,.73-.13,4.17,4.17,0,0,0,.6-.28l.52-.28a1,1,0,0,1,.44-.13.78.78,0,0,1,.57.28.84.84,0,0,1,.25.59c0,.38-.27.72-.82,1a5.1,5.1,0,0,1-1.82.62l-.33,0-.32,0a3.59,3.59,0,0,1-2.73-1.1,3.85,3.85,0,0,1-1-2.77,4.1,4.1,0,0,1,1-2.72,3.26,3.26,0,0,1,2.61-1.18,3.21,3.21,0,0,1,2.35.93,4.12,4.12,0,0,1,1.2,2c0,.11,0,.23.05.34s0,.23,0,.34a.94.94,0,0,1-.21.67.87.87,0,0,1-.67.23Zm3.16-1.35a1.86,1.86,0,0,0-.49-1.08,1.61,1.61,0,0,0-2.21,0,1.81,1.81,0,0,0-.5,1.08Z"/><path class="cls-3" d="M137.85,62.48V57.1a1.12,1.12,0,0,1,.29-.8.92.92,0,0,1,.72-.31,1,1,0,0,1,.63.19.88.88,0,0,1,.3.56,2.42,2.42,0,0,1,.84-.62,2.5,2.5,0,0,1,1-.22,2.63,2.63,0,0,1,1.16.26,2.6,2.6,0,0,1,.93.76,3.68,3.68,0,0,1,.6-.51,2.8,2.8,0,0,1,.69-.35l.43-.12a3,3,0,0,1,.41,0,2.81,2.81,0,0,1,2,.7,2.59,2.59,0,0,1,.76,2v3.86a1.13,1.13,0,0,1-.28.82.94.94,0,0,1-.72.3,1,1,0,0,1-.72-.3,1.08,1.08,0,0,1-.29-.8V59a1.53,1.53,0,0,0-.32-1,1.06,1.06,0,0,0-.86-.38,1.08,1.08,0,0,0-.87.38,1.54,1.54,0,0,0-.32,1v3.5a1.13,1.13,0,0,1-.28.82.94.94,0,0,1-.73.3,1,1,0,0,1-.72-.3,1.12,1.12,0,0,1-.28-.8V59a1.53,1.53,0,0,0-.32-1,1.07,1.07,0,0,0-.86-.38,1.06,1.06,0,0,0-.9.38,1.65,1.65,0,0,0-.29,1v3.5a1.13,1.13,0,0,1-.28.82,1,1,0,0,1-1.45,0,1.13,1.13,0,0,1-.29-.81Z"/><path class="cls-3" d="M151.76,60.47a1.51,1.51,0,0,0,.65,1.11,2.23,2.23,0,0,0,1.25.36,1.88,1.88,0,0,0,.72-.13,4.9,4.9,0,0,0,.61-.28l.52-.28a1,1,0,0,1,.43-.13.79.79,0,0,1,.58.28.89.89,0,0,1,.25.59c0,.38-.28.72-.83,1a5,5,0,0,1-1.82.62l-.33,0-.31,0a3.62,3.62,0,0,1-2.74-1.1,3.89,3.89,0,0,1-1-2.77,4,4,0,0,1,1-2.72,3.46,3.46,0,0,1,5-.25,4.12,4.12,0,0,1,1.2,2c0,.11,0,.23,0,.34s0,.23,0,.34a.94.94,0,0,1-.21.67.9.9,0,0,1-.68.23Zm3.16-1.35a1.87,1.87,0,0,0-.5-1.08,1.41,1.41,0,0,0-1.11-.44,1.45,1.45,0,0,0-1.1.44,1.87,1.87,0,0,0-.5,1.08Z"/><path class="cls-3" d="M158,62.48V57.1a1.12,1.12,0,0,1,.29-.8A.92.92,0,0,1,159,56a1,1,0,0,1,.63.19.87.87,0,0,1,.29.55,1.88,1.88,0,0,1,.77-.62,2.87,2.87,0,0,1,1.18-.21,2.8,2.8,0,0,1,2,.72,2.55,2.55,0,0,1,.79,2v3.86a1.18,1.18,0,0,1-.28.82,1,1,0,0,1-1.45,0,1.12,1.12,0,0,1-.29-.8V59a1.33,1.33,0,0,0-.38-1,1.36,1.36,0,0,0-.94-.34,1.17,1.17,0,0,0-1,.4,1.47,1.47,0,0,0-.33,1v3.5a1.18,1.18,0,0,1-.28.82,1,1,0,0,1-1.45,0,1.13,1.13,0,0,1-.29-.81Z"/><path class="cls-3" d="M166.62,62.48V57.83h-.44a.8.8,0,0,1-.64-.22,1,1,0,0,1,0-1.27.84.84,0,0,1,.63-.26h.44v-1.2a1.12,1.12,0,0,1,.29-.8,1,1,0,0,1,1.45,0,1.13,1.13,0,0,1,.28.81v1.19h.57a1.27,1.27,0,0,1,.68.21.93.93,0,0,1,0,1.35,1.12,1.12,0,0,1-.68.2h-.57v4.65a1.13,1.13,0,0,1-.28.82,1,1,0,0,1-1.45,0,1.12,1.12,0,0,1-.29-.8Z"/><path class="cls-3" d="M178.05,55.9a3.3,3.3,0,0,1,2.6,1.2,4.1,4.1,0,0,1,1,2.72,4,4,0,0,1-1,2.72,3.56,3.56,0,0,1-5.24,0,4,4,0,0,1-1-2.72,4.09,4.09,0,0,1,1-2.72,3.27,3.27,0,0,1,2.61-1.18Zm-1.13,2.41a2.42,2.42,0,0,0-.45,1.21s0,.1,0,.16a.71.71,0,0,0,0,.14v.12a.59.59,0,0,0,0,.13,2.38,2.38,0,0,0,.44,1.22,1.26,1.26,0,0,0,1.14.56,1.29,1.29,0,0,0,1.14-.56,2.47,2.47,0,0,0,.44-1.22.62.62,0,0,0,0-.13v-.27a.86.86,0,0,1,0-.16,2.53,2.53,0,0,0-.46-1.21,1.27,1.27,0,0,0-1.12-.55A1.34,1.34,0,0,0,176.92,58.31Z"/><path class="cls-3" d="M183.33,62.48V57.83h-.45a.81.81,0,0,1-.64-.22A.9.9,0,0,1,182,57a.85.85,0,0,1,.87-.89h.45V55a2.26,2.26,0,0,1,.59-1.69,2.08,2.08,0,0,1,1.52-.59,2.54,2.54,0,0,1,1,.19.72.72,0,0,1,.43.72.94.94,0,0,1-.2.65.86.86,0,0,1-.63.21,1.18,1.18,0,0,0-.46.09c-.14.06-.21.28-.21.65v.81H186a1.38,1.38,0,0,1,.74.21A.77.77,0,0,1,187,57a.76.76,0,0,1-.28.67,1.22,1.22,0,0,1-.74.2h-.63v4.65a1.13,1.13,0,0,1-.28.82,1,1,0,0,1-1.45,0,1.12,1.12,0,0,1-.28-.8Z"/><path class="cls-3" d="M192,62.48V57.83h-.45a.78.78,0,0,1-.63-.22.95.95,0,0,1,0-1.27.82.82,0,0,1,.62-.26H192v-1.2a1.12,1.12,0,0,1,.29-.8,1,1,0,0,1,1.45,0,1.17,1.17,0,0,1,.28.81v1.19h.57a1.27,1.27,0,0,1,.68.21.93.93,0,0,1,0,1.35,1.12,1.12,0,0,1-.68.2H194v4.65a1.18,1.18,0,0,1-.28.82,1,1,0,0,1-1.45,0,1.12,1.12,0,0,1-.29-.8Z"/><path class="cls-3" d="M196,62.48V53.86a1.14,1.14,0,0,1,.29-.8,1,1,0,0,1,1.45,0,1.16,1.16,0,0,1,.28.81V56.6h0a1.79,1.79,0,0,1,.55-.42,2.75,2.75,0,0,1,.69-.21l.3,0h.29a2.82,2.82,0,0,1,2,.71,2.58,2.58,0,0,1,.78,2v3.85a1.13,1.13,0,0,1-.28.82,1,1,0,0,1-1.45,0,1.12,1.12,0,0,1-.29-.8V59a1.29,1.29,0,0,0-.38-1,1.35,1.35,0,0,0-.93-.34,1.16,1.16,0,0,0-.95.4,1.43,1.43,0,0,0-.34,1v3.5a1.13,1.13,0,0,1-.28.82,1,1,0,0,1-1.45,0,1.12,1.12,0,0,1-.29-.8Z"/><path class="cls-3" d="M205.71,60.47a1.56,1.56,0,0,0,.66,1.11,2.21,2.21,0,0,0,1.25.36,1.88,1.88,0,0,0,.72-.13,4.9,4.9,0,0,0,.61-.28l.51-.28a1,1,0,0,1,.44-.13.78.78,0,0,1,.57.28.84.84,0,0,1,.25.59c0,.38-.27.72-.82,1a5.1,5.1,0,0,1-1.82.62l-.33,0-.32,0a3.6,3.6,0,0,1-2.73-1.1,3.85,3.85,0,0,1-1-2.77,4.1,4.1,0,0,1,1-2.72,3.47,3.47,0,0,1,5-.25,4.1,4.1,0,0,1,1.19,2c0,.11,0,.23.05.34a2,2,0,0,1,0,.34.94.94,0,0,1-.21.67.87.87,0,0,1-.67.23Zm3.17-1.35a1.87,1.87,0,0,0-.5-1.08,1.61,1.61,0,0,0-2.21,0,1.81,1.81,0,0,0-.5,1.08Z"/><path class="cls-3" d="M102.13,77.28V68.66a1.14,1.14,0,0,1,.29-.8,1,1,0,0,1,1.45,0,1.21,1.21,0,0,1,.28.81v8.61a1.18,1.18,0,0,1-.28.82,1,1,0,0,1-1.45,0,1.12,1.12,0,0,1-.29-.8Z"/><path class="cls-3" d="M108.93,70.7a3.3,3.3,0,0,1,2.61,1.2,4.1,4.1,0,0,1,1,2.72,4,4,0,0,1-1,2.72,3.55,3.55,0,0,1-5.23,0,4,4,0,0,1-1-2.72,4.1,4.1,0,0,1,1-2.72,3.25,3.25,0,0,1,2.6-1.18Zm-1.12,2.41a2.53,2.53,0,0,0-.46,1.21v.16a.71.71,0,0,0,0,.14v.12a.57.57,0,0,0,0,.13,2.58,2.58,0,0,0,.44,1.22,1.45,1.45,0,0,0,2.29,0,2.58,2.58,0,0,0,.44-1.22.66.66,0,0,0,0-.14v-.11a.76.76,0,0,0,0-.15v-.16a2.53,2.53,0,0,0-.46-1.21,1.28,1.28,0,0,0-1.13-.55A1.32,1.32,0,0,0,107.81,73.11Z"/><path class="cls-3" d="M115.19,77.38l-1.7-4.84a3.34,3.34,0,0,1-.14-.41,2.14,2.14,0,0,1-.06-.35.28.28,0,0,1,0-.09V71.6a.74.74,0,0,1,.28-.58,1.13,1.13,0,0,1,.72-.23.93.93,0,0,1,.62.21,1.1,1.1,0,0,1,.34.58l1.16,3.84h0l1.18-3.77A1.48,1.48,0,0,1,118,71a1.11,1.11,0,0,1,1.35,0,1.39,1.39,0,0,1,.34.65l1.18,3.75h0L122,71.57a1.11,1.11,0,0,1,.34-.57.9.9,0,0,1,.61-.21,1,1,0,0,1,.73.26.91.91,0,0,1,.28.72,1,1,0,0,1-.06.34c0,.12-.09.26-.13.42l-1.73,4.85a1.83,1.83,0,0,1-.44.73,1,1,0,0,1-.78.29,1.12,1.12,0,0,1-.74-.24,1.64,1.64,0,0,1-.42-.68l-1-3.26h0l-1,3.24a1.48,1.48,0,0,1-.42.7,1.08,1.08,0,0,1-.74.24,1,1,0,0,1-.78-.29,2,2,0,0,1-.44-.72Z"/><path class="cls-3" d="M126.62,75.27a1.51,1.51,0,0,0,.65,1.11,2.23,2.23,0,0,0,1.25.36,2.09,2.09,0,0,0,.72-.13,4.9,4.9,0,0,0,.61-.28l.52-.28a1,1,0,0,1,.43-.13.79.79,0,0,1,.58.28.89.89,0,0,1,.25.59c0,.38-.28.72-.83,1a4.84,4.84,0,0,1-1.82.61l-.33,0-.31,0a3.62,3.62,0,0,1-2.74-1.1,3.9,3.9,0,0,1-1-2.77,4,4,0,0,1,1-2.72,3.46,3.46,0,0,1,5-.25,4.08,4.08,0,0,1,1.2,2c0,.11,0,.23.05.34s0,.23,0,.34a.94.94,0,0,1-.21.67.89.89,0,0,1-.67.23Zm3.16-1.35a1.87,1.87,0,0,0-.5-1.08,1.41,1.41,0,0,0-1.11-.44,1.45,1.45,0,0,0-1.1.44,1.87,1.87,0,0,0-.5,1.08Z"/><path class="cls-3" d="M132.83,77.28v-5.5a.87.87,0,0,1,.3-.71,1.17,1.17,0,0,1,.67-.28h.07a1.36,1.36,0,0,1,.69.17.73.73,0,0,1,.29.67l0,0a2.08,2.08,0,0,1,.61-.61,1.44,1.44,0,0,1,.8-.21,1,1,0,0,1,.67.26,1,1,0,0,1,.31.82.61.61,0,0,1-.21.51,1.83,1.83,0,0,1-.5.27l-.24.09-.25.11s0,0,0,0h0a5.84,5.84,0,0,0-.8.48,1,1,0,0,0-.37.85v3.09a1.13,1.13,0,0,1-.28.82,1,1,0,0,1-1.45,0,1.13,1.13,0,0,1-.29-.81Z"/><path class="cls-3" d="M143,67.76a1.19,1.19,0,0,1,.79.35,1,1,0,0,1,.34.77,1.14,1.14,0,0,1-.33.82,1.1,1.1,0,0,1-1.6,0,1.1,1.1,0,0,1-.34-.81,1,1,0,0,1,.34-.77,1.13,1.13,0,0,1,.8-.33Zm-1,4.13a1.15,1.15,0,0,1,.28-.8,1,1,0,0,1,.73-.3.94.94,0,0,1,.72.3,1.17,1.17,0,0,1,.28.82v8.33a1.16,1.16,0,0,1-.28.81.94.94,0,0,1-.72.31,1,1,0,0,1-.73-.31,1.16,1.16,0,0,1-.28-.81Z"/><path class="cls-3" d="M152.32,72.09v5.22a2.09,2.09,0,0,1,0,.24,1.43,1.43,0,0,1-.23.59.87.87,0,0,1-.73.26.83.83,0,0,1-.64-.22,1.45,1.45,0,0,1-.32-.62,2.72,2.72,0,0,1-.87.7,2.45,2.45,0,0,1-1.05.23,3.06,3.06,0,0,1-2.37-1.09,4,4,0,0,1-1-2.78,4.11,4.11,0,0,1,1-2.8,3,3,0,0,1,2.36-1.12,2.64,2.64,0,0,1,1.07.23,2.07,2.07,0,0,1,.85.71.9.9,0,0,1,.32-.61,1,1,0,0,1,.64-.24.84.84,0,0,1,.73.27,1.42,1.42,0,0,1,.23.6,1.93,1.93,0,0,1,0,.24v.19Zm-5.17,2.52v.13a.59.59,0,0,0,0,.13,2.47,2.47,0,0,0,.44,1.22,1.29,1.29,0,0,0,1.14.56,1.25,1.25,0,0,0,1.11-.56,2.56,2.56,0,0,0,.43-1.22.57.57,0,0,0,0-.13v-.26a.92.92,0,0,1,0-.16,2.62,2.62,0,0,0-.45-1.21,1.24,1.24,0,0,0-1.09-.54,1.3,1.3,0,0,0-1.13.54,2.51,2.51,0,0,0-.45,1.21.92.92,0,0,1,0,.16s0,.1,0,.14Z"/><path class="cls-3" d="M155.26,77.38l-1.71-4.84c-.05-.15-.1-.29-.13-.41a2.14,2.14,0,0,1-.06-.35.29.29,0,0,1,0-.09V71.6a.75.75,0,0,1,.29-.58,1.13,1.13,0,0,1,.72-.23A1,1,0,0,1,155,71a1.08,1.08,0,0,1,.33.58l1.16,3.84h0l1.18-3.77A1.38,1.38,0,0,1,158,71a1.11,1.11,0,0,1,1.35,0,1.49,1.49,0,0,1,.34.65l1.18,3.75h0l1.16-3.85a1.09,1.09,0,0,1,.33-.57,1,1,0,0,1,.62-.21,1,1,0,0,1,.73.26,1,1,0,0,1,.28.72.83.83,0,0,1-.07.34l-.13.42-1.72,4.85a1.83,1.83,0,0,1-.44.73,1,1,0,0,1-.78.29,1.1,1.1,0,0,1-.74-.24,1.46,1.46,0,0,1-.42-.68l-1-3.26h0l-1,3.24a1.48,1.48,0,0,1-.42.7,1.1,1.1,0,0,1-.74.24,1,1,0,0,1-.78-.29,1.86,1.86,0,0,1-.44-.72Z"/><path class="cls-3" d="M167.67,67.75a2,2,0,0,1,1.5.61,2.07,2.07,0,0,1,.55,1.42,2.72,2.72,0,0,1-.1.67,5.69,5.69,0,0,1-.27.71,8.85,8.85,0,0,1-.47.84c-.18.27-.37.53-.55.77l-.36.41q-.16.18-.33.33l-.11.1-.15.09-.13,0H167l-.1,0a1,1,0,0,1-.26-.21.55.55,0,0,1-.12-.3h0a.17.17,0,0,1,0-.07.14.14,0,0,1,0-.06l.06-.1a1,1,0,0,0,.08-.11l.24-.28.27-.29a0,0,0,0,1,0,0l0,0,.31-.36a3.3,3.3,0,0,0,.27-.33l0,0a.68.68,0,0,1-.2.07l-.22,0h-.09a1.55,1.55,0,0,1-1.22-.56,1.84,1.84,0,0,1-.49-1.27,2,2,0,0,1,.57-1.41,1.92,1.92,0,0,1,1.48-.61Zm.56,2.63a.88.88,0,0,0,.21-.6.91.91,0,0,0-.2-.6.73.73,0,0,0-.57-.25.7.7,0,0,0-.56.24.88.88,0,0,0-.22.61,1,1,0,0,0,.2.58.68.68,0,0,0,.58.26A.65.65,0,0,0,168.23,70.38Z"/><path class="cls-3" d="M171.84,73.25l-.69,1.22a.3.3,0,0,1-.11.14.42.42,0,0,1-.14.09l-.11,0h-.1a.53.53,0,0,1-.39-.16.55.55,0,0,1-.16-.38.45.45,0,0,1,0-.16l.06-.16.68-1.23a.45.45,0,0,1,.11-.13l.14-.08.12,0h.1a.53.53,0,0,1,.39.16.49.49,0,0,1,.18.38.4.4,0,0,1,0,.15l-.06.14v0a0,0,0,0,0,0,0Z"/><path class="cls-3" d="M173.85,73.07V69h-.48a.47.47,0,0,1-.42-.16.63.63,0,0,1-.14-.37h0A.58.58,0,0,1,173,68a.5.5,0,0,1,.41-.18h1.15a.52.52,0,0,1,.41.17.64.64,0,0,1,.14.41v4.64a.63.63,0,0,1-.17.47.65.65,0,0,1-.88,0,.62.62,0,0,1-.17-.46Z"/><path class="cls-3" d="M177.07,73.07V69h-.48a.48.48,0,0,1-.42-.16.7.7,0,0,1-.14-.37h0a.58.58,0,0,1,.15-.39.51.51,0,0,1,.41-.18h1.16a.5.5,0,0,1,.4.17.59.59,0,0,1,.14.41v4.64a.59.59,0,0,1-.17.47.62.62,0,0,1-.44.17.6.6,0,0,1-.43-.17.59.59,0,0,1-.18-.46Z"/><path class="cls-3" d="M257.78,32.86V25a.94.94,0,0,1,.31-.76,1.19,1.19,0,0,1,.79-.28h2.69a2.82,2.82,0,0,1,1.87.69,2.25,2.25,0,0,1,.77,1.79,2.11,2.11,0,0,1-1.31,2.06h0a2.53,2.53,0,0,1,1.52.81A2.28,2.28,0,0,1,265,30.9a2.8,2.8,0,0,1-.9,2.25,3.48,3.48,0,0,1-2.35.77H258.9a1.17,1.17,0,0,1-.8-.28,1,1,0,0,1-.32-.77Zm2.1-5H261a1,1,0,0,0,1.14-1.09.86.86,0,0,0-.34-.74,1.3,1.3,0,0,0-.8-.26h-1.09Zm0,4.17h1.65a1.37,1.37,0,0,0,1-.3,1.16,1.16,0,0,0,.37-.91,1,1,0,0,0-.37-.8,1.7,1.7,0,0,0-1.12-.31h-1.48Z"/><path class="cls-3" d="M273,27.69v5.22a2.32,2.32,0,0,1,0,.24,1.2,1.2,0,0,1-.23.59,1.09,1.09,0,0,1-1.36,0,1.58,1.58,0,0,1-.33-.62,2.8,2.8,0,0,1-.86.7,2.45,2.45,0,0,1-1.05.23A3.06,3.06,0,0,1,266.77,33a4.05,4.05,0,0,1-1-2.78,4.12,4.12,0,0,1,1-2.8,3,3,0,0,1,2.36-1.12,2.64,2.64,0,0,1,1.07.23,2,2,0,0,1,.84.71.91.91,0,0,1,.33-.61.94.94,0,0,1,.64-.24.81.81,0,0,1,.72.27,1.2,1.2,0,0,1,.23.6,2,2,0,0,1,0,.23v.2Zm-5.17,2.52v.13s0,.09,0,.14a2.49,2.49,0,0,0,.45,1.21,1.26,1.26,0,0,0,1.14.56,1.23,1.23,0,0,0,1.1-.56,2.47,2.47,0,0,0,.44-1.21.71.71,0,0,0,0-.14v-.12a.71.71,0,0,0,0-.14v-.17a2.62,2.62,0,0,0-.45-1.2,1.26,1.26,0,0,0-1.09-.55,1.31,1.31,0,0,0-1.13.55,2.53,2.53,0,0,0-.46,1.2v.17a.71.71,0,0,0,0,.14Z"/><path class="cls-3" d="M274.5,32.88V24.26a1.13,1.13,0,0,1,.28-.8,1,1,0,0,1,1.45,0,1.16,1.16,0,0,1,.28.81V27a3.08,3.08,0,0,1,.9-.51,3.26,3.26,0,0,1,1-.17,2.7,2.7,0,0,1,2.38,1.18,4.9,4.9,0,0,1,.87,2.61v.2a4.17,4.17,0,0,1-.9,2.6,2.9,2.9,0,0,1-2.42,1.18h-.2l-.21,0a3.33,3.33,0,0,1-.82-.29,1.67,1.67,0,0,1-.62-.59,1.18,1.18,0,0,1-.34.61,1,1,0,0,1-.67.21,1,1,0,0,1-.72-.3,1.12,1.12,0,0,1-.28-.8Zm2-2.74a1,1,0,0,0,0,.18v.17A2.66,2.66,0,0,0,277,31.7a1.27,1.27,0,0,0,1.12.55,1.24,1.24,0,0,0,1.07-.52,2.4,2.4,0,0,0,.47-1.16.88.88,0,0,0,0-.17,1.09,1.09,0,0,0,0-.18,1,1,0,0,0,0-.17,1.1,1.1,0,0,0,0-.18,2.4,2.4,0,0,0-.47-1.17,1.23,1.23,0,0,0-1.07-.54,1.3,1.3,0,0,0-1.17.6,2.63,2.63,0,0,0-.41,1.31v.08Z"/><path class="cls-3" d="M282.38,27.76a1.14,1.14,0,0,1-.07-.22,2.46,2.46,0,0,1,0-.28.77.77,0,0,1,.22-.54,1.14,1.14,0,0,1,.5-.31l.11,0h.11a1,1,0,0,1,.62.19,1,1,0,0,1,.39.52l1.39,3.78,1.48-3.79a1,1,0,0,1,.38-.51,1,1,0,0,1,.63-.19h.11l.11,0a1.14,1.14,0,0,1,.5.31.74.74,0,0,1,.23.54,2.46,2.46,0,0,1,0,.28,1.13,1.13,0,0,1-.08.24l-3.37,8.39a1.8,1.8,0,0,1-.36.56.78.78,0,0,1-.6.24,1.06,1.06,0,0,1-.78-.27.83.83,0,0,1-.27-.6s0-.06,0-.1a.28.28,0,0,0,0-.09.73.73,0,0,1,.05-.2l.06-.19.88-2.19Z"/><path class="cls-3" d="M301,27.69v5.22a2.09,2.09,0,0,1,0,.24,1.43,1.43,0,0,1-.23.59,1.1,1.1,0,0,1-1.37,0,1.57,1.57,0,0,1-.32-.62,2.72,2.72,0,0,1-.87.7,2.38,2.38,0,0,1-1,.23A3.06,3.06,0,0,1,294.73,33a4.05,4.05,0,0,1-1-2.78,4.12,4.12,0,0,1,1-2.8,3,3,0,0,1,2.35-1.12,2.69,2.69,0,0,1,1.08.23,2,2,0,0,1,.84.71.94.94,0,0,1,.32-.61,1,1,0,0,1,.65-.24.83.83,0,0,1,.72.27,1.42,1.42,0,0,1,.23.6,1.85,1.85,0,0,1,0,.23v.2Zm-5.16,2.52v.13a.71.71,0,0,0,0,.14,2.58,2.58,0,0,0,.44,1.21,1.29,1.29,0,0,0,1.14.56,1.23,1.23,0,0,0,1.11-.56,2.46,2.46,0,0,0,.43-1.21.78.78,0,0,0,0-.14v-.12a.71.71,0,0,0,0-.14c0-.06,0-.11,0-.17a2.5,2.5,0,0,0-.44-1.2,1.4,1.4,0,0,0-2.22,0,2.53,2.53,0,0,0-.46,1.2v.17a.71.71,0,0,0,0,.14Z"/><path class="cls-3" d="M308.23,27.58v.13s0,.09,0,.13a1.37,1.37,0,0,1-.26.49.62.62,0,0,1-.49.23l-.16,0-.17,0-.21-.06-.2-.08-.4-.13a1.63,1.63,0,0,0-.45-.07,1.44,1.44,0,0,0-1.28.64,2.54,2.54,0,0,0-.42,1.42v.11a2.47,2.47,0,0,0,.48,1.33,1.44,1.44,0,0,0,1.22.59l.26,0a1.31,1.31,0,0,0,.28-.09l.16,0,.15-.06.39-.14a.67.67,0,0,1,.26-.07.83.83,0,0,1,.61.26.84.84,0,0,1,.25.62.91.91,0,0,1-.43.79,3.27,3.27,0,0,1-.95.43,3.54,3.54,0,0,1-.6.12c-.19,0-.35,0-.48,0a3.32,3.32,0,0,1-2.62-1.15,4.2,4.2,0,0,1,0-5.44,3.25,3.25,0,0,1,2.6-1.18l.48,0c.17,0,.36.06.54.1a3.26,3.26,0,0,1,1,.39.85.85,0,0,1,.44.76Z"/><path class="cls-3" d="M316.17,27.49v8.36a1.13,1.13,0,0,1-.28.81.92.92,0,0,1-.73.31.94.94,0,0,1-.72-.31,1.13,1.13,0,0,1-.28-.81V33.39a2.94,2.94,0,0,1-.64.42,3.68,3.68,0,0,1-.69.22l-.27,0-.25,0a2.88,2.88,0,0,1-2.42-1.18,4.22,4.22,0,0,1-.9-2.61v-.2a4.9,4.9,0,0,1,.87-2.61,2.7,2.7,0,0,1,2.38-1.19h.14a2.85,2.85,0,0,1,1,.26,1.78,1.78,0,0,1,.76.67,1.2,1.2,0,0,1,.34-.63,1,1,0,0,1,.66-.21.92.92,0,0,1,.73.31,1.13,1.13,0,0,1,.28.81Zm-2,2.65v-.07a2.54,2.54,0,0,0-.42-1.31,1.28,1.28,0,0,0-1.17-.6,1.25,1.25,0,0,0-1.07.54,2.61,2.61,0,0,0-.47,1.17c0,.06,0,.12,0,.18v.35c0,.06,0,.12,0,.17a2.62,2.62,0,0,0,.47,1.16,1.39,1.39,0,0,0,2.19,0,2.45,2.45,0,0,0,.45-1.21,1,1,0,0,1,0-.17c0-.05,0-.11,0-.17Z"/><path class="cls-3" d="M317.67,31.14V27.49a1.11,1.11,0,0,1,.29-.79,1,1,0,0,1,1.45,0,1.17,1.17,0,0,1,.28.81V31.1a1.22,1.22,0,0,0,.39,1,1.36,1.36,0,0,0,.91.34,1.33,1.33,0,0,0,.9-.34,1.16,1.16,0,0,0,.4-1V27.5a1.12,1.12,0,0,1,.29-.8,1,1,0,0,1,1.45,0,1.17,1.17,0,0,1,.28.81v3.63a2.77,2.77,0,0,1-.86,2.15,4.18,4.18,0,0,1-4.92,0,2.76,2.76,0,0,1-.86-2.13Z"/><path class="cls-3" d="M326.78,23.36a1.19,1.19,0,0,1,.8.35,1.05,1.05,0,0,1,.34.77,1.14,1.14,0,0,1-.33.82,1.08,1.08,0,0,1-1.6,0,1.1,1.1,0,0,1-.34-.81,1,1,0,0,1,.34-.77,1.12,1.12,0,0,1,.79-.33Zm-1,9.52V27.49a1.11,1.11,0,0,1,.28-.79.94.94,0,0,1,.72-.31.92.92,0,0,1,.73.31,1.13,1.13,0,0,1,.28.81v5.37a1.13,1.13,0,0,1-.28.82.94.94,0,0,1-.73.3,1,1,0,0,1-.72-.3,1.12,1.12,0,0,1-.28-.8Z"/><path class="cls-3" d="M329.23,32.88v-5.5a.85.85,0,0,1,.31-.71,1.14,1.14,0,0,1,.66-.28h.07a1.26,1.26,0,0,1,.69.17.73.73,0,0,1,.29.67l0,0a2.08,2.08,0,0,1,.61-.61,1.44,1.44,0,0,1,.8-.21,1,1,0,0,1,.67.26,1,1,0,0,1,.31.82.61.61,0,0,1-.21.51,1.83,1.83,0,0,1-.5.27l-.24.09-.25.11s0,0,0,0h0a5.4,5.4,0,0,0-.81.48,1,1,0,0,0-.37.86v3.08a1.13,1.13,0,0,1-.28.82,1,1,0,0,1-1.45,0,1.12,1.12,0,0,1-.29-.8Z"/><path class="cls-3" d="M335.25,23.36a1.15,1.15,0,0,1,.79.35,1,1,0,0,1,.35.77,1.14,1.14,0,0,1-.33.82,1.08,1.08,0,0,1-1.6,0,1.1,1.1,0,0,1-.34-.81,1,1,0,0,1,.34-.77,1.12,1.12,0,0,1,.79-.33Zm-1,9.52V27.49a1.11,1.11,0,0,1,.28-.79,1,1,0,0,1,1.45,0,1.13,1.13,0,0,1,.28.81v5.37a1.13,1.13,0,0,1-.28.82,1,1,0,0,1-1.45,0,1.12,1.12,0,0,1-.28-.8Z"/><path class="cls-3" d="M337.73,32.88V27.49a1.11,1.11,0,0,1,.29-.79.92.92,0,0,1,.72-.31,1,1,0,0,1,.63.19.83.83,0,0,1,.29.55,1.88,1.88,0,0,1,.77-.62,2.87,2.87,0,0,1,1.18-.21,2.8,2.8,0,0,1,2,.72,2.53,2.53,0,0,1,.79,2v3.86a1.18,1.18,0,0,1-.28.82,1,1,0,0,1-1.45,0,1.12,1.12,0,0,1-.29-.8V29.37a1.33,1.33,0,0,0-.38-1A1.35,1.35,0,0,0,341,28a1.19,1.19,0,0,0-1,.4,1.47,1.47,0,0,0-.33,1v3.5a1.18,1.18,0,0,1-.28.82,1,1,0,0,1-1.45,0,1.12,1.12,0,0,1-.29-.8Z"/><path class="cls-3" d="M352.75,27.49v5.84a3.4,3.4,0,0,1-1.07,2.73,4.19,4.19,0,0,1-2.8.91,6,6,0,0,1-.63,0,4.94,4.94,0,0,1-.82-.16,4.5,4.5,0,0,1-1.19-.48.94.94,0,0,1-.54-.82.49.49,0,0,1,0-.12l0-.12a1,1,0,0,1,.28-.41.8.8,0,0,1,.42-.23h.07a1.56,1.56,0,0,1,.5.09l.56.23.67.21a3.22,3.22,0,0,0,.79.1,1.79,1.79,0,0,0,1.22-.42,1.42,1.42,0,0,0,.49-1.17v-.49h0a2,2,0,0,1-.82.72,2.81,2.81,0,0,1-1.21.24,2.62,2.62,0,0,1-2.35-1.18,4.9,4.9,0,0,1-.76-2.68,4.43,4.43,0,0,1,.9-2.73,2.85,2.85,0,0,1,2.42-1.2h.2l.2,0a3.06,3.06,0,0,1,.83.3,1.7,1.7,0,0,1,.62.6,1.2,1.2,0,0,1,.34-.63,1,1,0,0,1,.67-.21.91.91,0,0,1,.72.31,1.13,1.13,0,0,1,.28.81Zm-2,2.76c0-.05,0-.1,0-.15s0-.12,0-.17a2.54,2.54,0,0,0-.44-1.21,1.38,1.38,0,0,0-2.2,0,2.46,2.46,0,0,0-.46,1.15l0,.18v.17a2.66,2.66,0,0,0,.39,1.44,1.43,1.43,0,0,0,2.34,0,2.57,2.57,0,0,0,.42-1.31v-.1Z"/><path class="cls-3" d="M358.84,32.88V28.23h-.44a.79.79,0,0,1-.64-.22,1,1,0,0,1,0-1.27.84.84,0,0,1,.63-.26h.44v-1.2a1.12,1.12,0,0,1,.29-.8,1,1,0,0,1,1.45,0,1.13,1.13,0,0,1,.28.81v1.19h.57a1.27,1.27,0,0,1,.68.21.93.93,0,0,1,0,1.35,1.12,1.12,0,0,1-.68.2h-.57v4.65a1.13,1.13,0,0,1-.28.82,1,1,0,0,1-1.45,0,1.12,1.12,0,0,1-.29-.8Z"/><path class="cls-3" d="M362.85,32.88V24.26a1.13,1.13,0,0,1,.28-.8,1,1,0,0,1,.73-.31.94.94,0,0,1,.72.31,1.16,1.16,0,0,1,.28.81V27h0a1.79,1.79,0,0,1,.55-.42,2.71,2.71,0,0,1,.7-.21l.3,0h.29a2.84,2.84,0,0,1,2,.71,2.58,2.58,0,0,1,.78,2v3.85a1.13,1.13,0,0,1-.28.82.94.94,0,0,1-.72.3,1,1,0,0,1-.73-.3,1.12,1.12,0,0,1-.28-.8V29.37a1.3,1.3,0,0,0-.39-1,1.32,1.32,0,0,0-.93-.34,1.16,1.16,0,0,0-.95.4,1.48,1.48,0,0,0-.34,1v3.5a1.13,1.13,0,0,1-.28.82.94.94,0,0,1-.72.3,1,1,0,0,1-.73-.3,1.12,1.12,0,0,1-.28-.8Z"/><path class="cls-3" d="M372.61,30.87a1.51,1.51,0,0,0,.65,1.11,2.23,2.23,0,0,0,1.25.36,2.09,2.09,0,0,0,.72-.13,4.9,4.9,0,0,0,.61-.28l.52-.28a1,1,0,0,1,.43-.13.79.79,0,0,1,.58.28.89.89,0,0,1,.25.59c0,.38-.28.72-.83,1A4.9,4.9,0,0,1,375,34l-.33,0-.31,0a3.62,3.62,0,0,1-2.74-1.1,3.84,3.84,0,0,1-1-2.77,4,4,0,0,1,1-2.72,3.47,3.47,0,0,1,5-.26,4.09,4.09,0,0,1,1.19,2.05c0,.11,0,.23.05.34a2,2,0,0,1,0,.34,1,1,0,0,1-.21.67.9.9,0,0,1-.68.23Zm3.16-1.35a1.87,1.87,0,0,0-.5-1.08,1.41,1.41,0,0,0-1.11-.44,1.47,1.47,0,0,0-1.1.44,1.87,1.87,0,0,0-.5,1.08Z"/><path class="cls-3" d="M258.78,49.68V45h-.45a.78.78,0,0,1-.63-.22,1,1,0,0,1,0-1.27.84.84,0,0,1,.62-.26h.45v-1a2.26,2.26,0,0,1,.6-1.69A2.08,2.08,0,0,1,260.9,40a2.49,2.49,0,0,1,1,.19.72.72,0,0,1,.44.72.89.89,0,0,1-.21.65.82.82,0,0,1-.62.21,1.14,1.14,0,0,0-.46.09c-.14.06-.21.28-.21.65v.81h.63a1.34,1.34,0,0,1,.73.21.75.75,0,0,1,.29.68.74.74,0,0,1-.29.67,1.19,1.19,0,0,1-.73.2h-.63v4.65a1.13,1.13,0,0,1-.28.82,1,1,0,0,1-1.45,0,1.12,1.12,0,0,1-.29-.8Z"/><path class="cls-3" d="M262.82,47.94V44.29a1.11,1.11,0,0,1,.28-.79,1,1,0,0,1,1.45,0,1.13,1.13,0,0,1,.28.81V47.9a1.19,1.19,0,0,0,.4,1,1.37,1.37,0,0,0,1.81,0,1.19,1.19,0,0,0,.4-1V44.3a1.12,1.12,0,0,1,.28-.8,1,1,0,0,1,1.45,0,1.13,1.13,0,0,1,.28.81v3.63a2.77,2.77,0,0,1-.86,2.15,4.17,4.17,0,0,1-4.91,0,2.72,2.72,0,0,1-.86-2.13Z"/><path class="cls-3" d="M271,49.68V44.29a1.07,1.07,0,0,1,.29-.79.92.92,0,0,1,.72-.31,1,1,0,0,1,.63.19.87.87,0,0,1,.29.55,1.92,1.92,0,0,1,.76-.62,3,3,0,0,1,1.19-.21,2.8,2.8,0,0,1,2,.72,2.56,2.56,0,0,1,.78,2v3.86a1.18,1.18,0,0,1-.27.82,1,1,0,0,1-1.45,0,1.12,1.12,0,0,1-.29-.8V46.17a1.3,1.3,0,0,0-.39-1,1.32,1.32,0,0,0-.93-.34,1.17,1.17,0,0,0-.95.4,1.48,1.48,0,0,0-.34,1v3.5a1.18,1.18,0,0,1-.27.82,1,1,0,0,1-1.45,0,1.09,1.09,0,0,1-.29-.81Z"/><path class="cls-3" d="M284.87,44.38s0,.09,0,.13,0,.09,0,.13a1.37,1.37,0,0,1-.26.49.62.62,0,0,1-.48.23l-.17,0-.17,0-.2-.06-.21-.08L283,45a1.63,1.63,0,0,0-.45-.07,1.43,1.43,0,0,0-1.27.64,2.54,2.54,0,0,0-.42,1.42v.11a2.38,2.38,0,0,0,.47,1.33,1.44,1.44,0,0,0,1.22.59l.27,0a1.09,1.09,0,0,0,.28-.08l.15,0,.15-.06.39-.14a.72.72,0,0,1,.26-.07.82.82,0,0,1,.61.26.85.85,0,0,1,.26.62.92.92,0,0,1-.44.79,3.15,3.15,0,0,1-.95.43,3.35,3.35,0,0,1-.6.12c-.19,0-.35,0-.48,0a3.33,3.33,0,0,1-2.62-1.15,4,4,0,0,1-1-2.72,4.1,4.1,0,0,1,1-2.72,3.25,3.25,0,0,1,2.6-1.18l.48,0c.17,0,.36.06.54.1a3.26,3.26,0,0,1,1,.39.84.84,0,0,1,.45.76Z"/><path class="cls-3" d="M286.41,49.68V45H286a.8.8,0,0,1-.64-.22.9.9,0,0,1-.23-.64.85.85,0,0,1,.87-.89h.45v-1.2a1.12,1.12,0,0,1,.28-.8,1,1,0,0,1,1.45,0,1.13,1.13,0,0,1,.28.81v1.19H289a1.24,1.24,0,0,1,.67.21.75.75,0,0,1,.29.68.74.74,0,0,1-.29.67,1.09,1.09,0,0,1-.67.2h-.58v4.65a1.13,1.13,0,0,1-.28.82,1,1,0,0,1-1.45,0,1.12,1.12,0,0,1-.28-.8Z"/><path class="cls-3" d="M291.39,40.16a1.17,1.17,0,0,1,.79.35,1,1,0,0,1,.34.77,1.14,1.14,0,0,1-.33.82,1,1,0,0,1-.8.34,1.05,1.05,0,0,1-.79-.35,1.1,1.1,0,0,1-.34-.81,1,1,0,0,1,.34-.77,1.11,1.11,0,0,1,.79-.33Zm-1,9.52V44.29a1.11,1.11,0,0,1,.29-.79,1,1,0,0,1,1.45,0,1.17,1.17,0,0,1,.28.81v5.37a1.18,1.18,0,0,1-.28.82,1,1,0,0,1-1.45,0,1.13,1.13,0,0,1-.29-.81Z"/><path class="cls-3" d="M297.19,43.1a3.3,3.3,0,0,1,2.6,1.2,4.1,4.1,0,0,1,1,2.72,4,4,0,0,1-1,2.72,3.55,3.55,0,0,1-5.23,0,4,4,0,0,1-1-2.72,4.1,4.1,0,0,1,1-2.72,3.26,3.26,0,0,1,2.61-1.18Zm-1.13,2.41a2.53,2.53,0,0,0-.46,1.2v.17a.71.71,0,0,0,0,.14v.12a.57.57,0,0,0,0,.13,2.58,2.58,0,0,0,.44,1.22,1.45,1.45,0,0,0,2.29,0,2.58,2.58,0,0,0,.44-1.22.62.62,0,0,0,0-.13V47a.76.76,0,0,0,0-.15v-.16a2.53,2.53,0,0,0-.46-1.21,1.27,1.27,0,0,0-1.12-.55A1.34,1.34,0,0,0,296.06,45.51Z"/><path class="cls-3" d="M302,49.68V44.29a1.11,1.11,0,0,1,.29-.79.92.92,0,0,1,.72-.31,1,1,0,0,1,.63.19.83.83,0,0,1,.29.55,1.88,1.88,0,0,1,.77-.62,2.87,2.87,0,0,1,1.18-.21,2.8,2.8,0,0,1,2,.72,2.53,2.53,0,0,1,.79,2v3.86a1.18,1.18,0,0,1-.28.82,1,1,0,0,1-1.45,0,1.12,1.12,0,0,1-.29-.8V46.17a1.33,1.33,0,0,0-.38-1,1.35,1.35,0,0,0-.93-.34,1.18,1.18,0,0,0-1,.4,1.47,1.47,0,0,0-.33,1v3.5a1.18,1.18,0,0,1-.28.82,1,1,0,0,1-1.45,0,1.13,1.13,0,0,1-.29-.81Z"/><path class="cls-3" d="M317.56,43.1a3.3,3.3,0,0,1,2.6,1.2,4.1,4.1,0,0,1,1,2.72,4,4,0,0,1-1,2.72,3.55,3.55,0,0,1-5.23,0,4,4,0,0,1-1-2.72,4.1,4.1,0,0,1,1-2.72,3.26,3.26,0,0,1,2.61-1.18Zm-1.13,2.41a2.53,2.53,0,0,0-.46,1.2v.17a.71.71,0,0,0,0,.14v.12a.57.57,0,0,0,0,.13,2.49,2.49,0,0,0,.45,1.22,1.26,1.26,0,0,0,1.14.56,1.29,1.29,0,0,0,1.14-.56,2.58,2.58,0,0,0,.44-1.22.62.62,0,0,0,0-.13V47a.76.76,0,0,0,0-.15v-.16a2.53,2.53,0,0,0-.46-1.21,1.27,1.27,0,0,0-1.12-.55A1.34,1.34,0,0,0,316.43,45.51Z"/><path class="cls-3" d="M322.83,49.68V45h-.44a.8.8,0,0,1-.64-.22,1,1,0,0,1,0-1.27.84.84,0,0,1,.63-.26h.44v-1a2.26,2.26,0,0,1,.6-1.69A2.08,2.08,0,0,1,325,40a2.45,2.45,0,0,1,1,.19.72.72,0,0,1,.44.72.94.94,0,0,1-.2.65.86.86,0,0,1-.63.21,1.14,1.14,0,0,0-.46.09c-.14.06-.21.28-.21.65v.81h.63a1.34,1.34,0,0,1,.73.21.75.75,0,0,1,.29.68.74.74,0,0,1-.29.67,1.19,1.19,0,0,1-.73.2h-.63v4.65a1.13,1.13,0,0,1-.28.82,1,1,0,0,1-1.45,0,1.12,1.12,0,0,1-.29-.8Z"/><path class="cls-3" d="M331,49.68V44.29a1.11,1.11,0,0,1,.28-.79,1.07,1.07,0,0,1,1.36-.12.92.92,0,0,1,.29.56,2.42,2.42,0,0,1,.84-.62,2.55,2.55,0,0,1,1-.22,2.56,2.56,0,0,1,2.08,1,3.68,3.68,0,0,1,.6-.51,3.2,3.2,0,0,1,.69-.35l.43-.12a3,3,0,0,1,.41,0,2.8,2.8,0,0,1,2,.7,2.59,2.59,0,0,1,.77,2v3.86a1.18,1.18,0,0,1-.28.82,1,1,0,0,1-1.45,0,1.12,1.12,0,0,1-.29-.8V46.17a1.52,1.52,0,0,0-.31-1,1.07,1.07,0,0,0-.86-.38,1.09,1.09,0,0,0-.88.38,1.53,1.53,0,0,0-.31,1v3.5a1.18,1.18,0,0,1-.28.82,1,1,0,0,1-1.45,0,1.12,1.12,0,0,1-.29-.8V46.17a1.52,1.52,0,0,0-.31-1,1.08,1.08,0,0,0-.87-.38,1.06,1.06,0,0,0-.9.38,1.65,1.65,0,0,0-.29,1v3.5a1.13,1.13,0,0,1-.28.82.94.94,0,0,1-.72.3,1,1,0,0,1-.73-.3,1.13,1.13,0,0,1-.28-.81Z"/><path class="cls-3" d="M350.13,44.49v5.22a2.09,2.09,0,0,1,0,.24,1.43,1.43,0,0,1-.23.59,1.1,1.1,0,0,1-1.37,0,1.57,1.57,0,0,1-.32-.62,2.72,2.72,0,0,1-.87.7,2.38,2.38,0,0,1-1.05.23,3.06,3.06,0,0,1-2.37-1.09A4.05,4.05,0,0,1,343,47a4.16,4.16,0,0,1,1-2.8,3,3,0,0,1,2.36-1.12,2.6,2.6,0,0,1,1.07.23,2,2,0,0,1,.85.71.94.94,0,0,1,.32-.61,1,1,0,0,1,.65-.24.83.83,0,0,1,.72.27,1.42,1.42,0,0,1,.23.6,1.85,1.85,0,0,1,0,.23v.2ZM345,47v.13a.57.57,0,0,0,0,.13,2.58,2.58,0,0,0,.44,1.22,1.29,1.29,0,0,0,1.14.56,1.23,1.23,0,0,0,1.11-.56,2.46,2.46,0,0,0,.43-1.22.59.59,0,0,0,0-.13V47a.71.71,0,0,0,0-.14c0-.06,0-.11,0-.17a2.5,2.5,0,0,0-.44-1.2,1.4,1.4,0,0,0-2.22,0,2.53,2.53,0,0,0-.46,1.2,1,1,0,0,1,0,.17V47Z"/><path class="cls-3" d="M356.7,44.56a1,1,0,0,1-.23.64.76.76,0,0,1-.6.27,1,1,0,0,1-.35-.09l-.44-.21-.28-.11a2,2,0,0,0-.28-.11l-.23-.05-.22,0a1,1,0,0,0-.48.13.47.47,0,0,0-.21.43.44.44,0,0,0,.23.36,2.23,2.23,0,0,0,.56.3l.46.17a5.32,5.32,0,0,1,.5.21,4.82,4.82,0,0,1,1.21.73,1.65,1.65,0,0,1,.54,1.32,2.1,2.1,0,0,1-.78,1.68,3.09,3.09,0,0,1-2.09.68l-.44,0a3.26,3.26,0,0,1-.45-.09,4,4,0,0,1-1.33-.53,1.08,1.08,0,0,1-.59-.89,1.11,1.11,0,0,1,0-.17.37.37,0,0,1,.08-.18,1,1,0,0,1,.29-.38.72.72,0,0,1,.48-.17,1.23,1.23,0,0,1,.44.08,1.93,1.93,0,0,1,.38.19l.08,0a.2.2,0,0,0,.08,0,2.79,2.79,0,0,0,.49.24,1.62,1.62,0,0,0,.61.11,1,1,0,0,0,.63-.15.55.55,0,0,0,.17-.43.4.4,0,0,0-.22-.35,2.78,2.78,0,0,0-.55-.29l-.47-.18-.51-.2a4.62,4.62,0,0,1-1.2-.74,1.63,1.63,0,0,1-.55-1.33,2.12,2.12,0,0,1,.77-1.7,3.4,3.4,0,0,1,2.37-.63,3.49,3.49,0,0,1,.43.07,3.33,3.33,0,0,1,1.15.47,1,1,0,0,1,.53.89Z"/><path class="cls-3" d="M358,49.68V41.06a1.13,1.13,0,0,1,.28-.8,1,1,0,0,1,1.45,0,1.16,1.16,0,0,1,.28.81V43.8h0a1.65,1.65,0,0,1,.55-.42,2.71,2.71,0,0,1,.7-.21l.3,0h.28a2.86,2.86,0,0,1,2,.71,2.58,2.58,0,0,1,.78,2v3.85a1.13,1.13,0,0,1-.28.82,1,1,0,0,1-1.45,0,1.12,1.12,0,0,1-.28-.8V46.17a1.3,1.3,0,0,0-.39-1,1.35,1.35,0,0,0-.93-.34,1.16,1.16,0,0,0-.95.4,1.43,1.43,0,0,0-.34,1v3.5a1.13,1.13,0,0,1-.28.82,1,1,0,0,1-1.45,0,1.12,1.12,0,0,1-.28-.8Z"/><path class="cls-3" d="M367.06,40.16a1.17,1.17,0,0,1,.79.35,1,1,0,0,1,.34.77,1.17,1.17,0,0,1-.32.82,1.07,1.07,0,0,1-.81.34,1.05,1.05,0,0,1-.79-.35,1.1,1.1,0,0,1-.34-.81,1,1,0,0,1,.34-.77,1.11,1.11,0,0,1,.79-.33Zm-1,9.52V44.29a1.11,1.11,0,0,1,.29-.79,1,1,0,0,1,1.45,0,1.17,1.17,0,0,1,.28.81v5.37a1.18,1.18,0,0,1-.28.82,1,1,0,0,1-1.45,0,1.13,1.13,0,0,1-.29-.81Z"/><path class="cls-3" d="M369.54,49.68V44.29a1.11,1.11,0,0,1,.28-.79,1.05,1.05,0,0,1,1.35-.12.88.88,0,0,1,.3.55,1.92,1.92,0,0,1,.76-.62,2.92,2.92,0,0,1,1.19-.21,2.8,2.8,0,0,1,2,.72,2.56,2.56,0,0,1,.78,2v3.86a1.13,1.13,0,0,1-.28.82.94.94,0,0,1-.72.3,1,1,0,0,1-.73-.3,1.12,1.12,0,0,1-.28-.8V46.17a1.3,1.3,0,0,0-.39-1,1.34,1.34,0,0,0-.93-.34,1.16,1.16,0,0,0-.95.4,1.48,1.48,0,0,0-.34,1v3.5a1.13,1.13,0,0,1-.28.82.94.94,0,0,1-.73.3,1,1,0,0,1-.72-.3,1.13,1.13,0,0,1-.28-.81Z"/><path class="cls-3" d="M384.56,44.29v5.84a3.38,3.38,0,0,1-1.08,2.73,4.17,4.17,0,0,1-2.8.91,6,6,0,0,1-.63-.05,5,5,0,0,1-.81-.16,4.56,4.56,0,0,1-1.2-.48.94.94,0,0,1-.54-.82.5.5,0,0,1,0-.12l0-.12a1,1,0,0,1,.28-.41.74.74,0,0,1,.42-.23h.07a1.5,1.5,0,0,1,.49.09l.57.23.66.21a3.3,3.3,0,0,0,.8.1,1.79,1.79,0,0,0,1.22-.42,1.45,1.45,0,0,0,.48-1.17v-.49h0a2,2,0,0,1-.82.72,2.84,2.84,0,0,1-1.21.24,2.62,2.62,0,0,1-2.35-1.18,4.82,4.82,0,0,1-.76-2.68,4.49,4.49,0,0,1,.89-2.73,2.88,2.88,0,0,1,2.43-1.2h.2l.2,0a3.06,3.06,0,0,1,.83.3,1.6,1.6,0,0,1,.61.6,1.21,1.21,0,0,1,.35-.63,1,1,0,0,1,.66-.21.93.93,0,0,1,.73.31,1.13,1.13,0,0,1,.28.81Zm-2,2.76V46.9a1,1,0,0,1,0-.17,2.66,2.66,0,0,0-.45-1.21,1.37,1.37,0,0,0-2.19,0,2.47,2.47,0,0,0-.47,1.15c0,.06,0,.12,0,.18s0,.12,0,.17a2.58,2.58,0,0,0,.4,1.44,1.28,1.28,0,0,0,1.17.62,1.32,1.32,0,0,0,1.17-.59,2.56,2.56,0,0,0,.41-1.31v-.1Z"/><path class="cls-3" d="M390.62,49.68V45h-.45a.78.78,0,0,1-.63-.22.95.95,0,0,1,0-1.27.82.82,0,0,1,.62-.26h.45v-1a2.26,2.26,0,0,1,.6-1.69,2.07,2.07,0,0,1,1.52-.59,2.49,2.49,0,0,1,1,.19.72.72,0,0,1,.43.72.89.89,0,0,1-.2.65.82.82,0,0,1-.62.21,1.14,1.14,0,0,0-.46.09c-.14.06-.21.28-.21.65v.81h.63a1.34,1.34,0,0,1,.73.21.93.93,0,0,1,0,1.35,1.19,1.19,0,0,1-.73.2h-.63v4.65a1.18,1.18,0,0,1-.28.82,1,1,0,0,1-1.45,0,1.12,1.12,0,0,1-.29-.8Z"/><path class="cls-3" d="M398,43.1a3.32,3.32,0,0,1,2.61,1.2,4.09,4.09,0,0,1,1,2.72,4,4,0,0,1-1,2.72,3.56,3.56,0,0,1-5.24,0,4,4,0,0,1-1-2.72,4.1,4.1,0,0,1,1-2.72,3.25,3.25,0,0,1,2.6-1.18Zm-1.13,2.41a2.62,2.62,0,0,0-.45,1.2,1,1,0,0,1,0,.17v.26a.57.57,0,0,0,0,.13,2.47,2.47,0,0,0,.44,1.22,1.29,1.29,0,0,0,1.14.56,1.26,1.26,0,0,0,1.14-.56,2.38,2.38,0,0,0,.44-1.22.69.69,0,0,0,0-.13V47c0-.05,0-.1,0-.15s0-.11,0-.16a2.51,2.51,0,0,0-.45-1.21A1.28,1.28,0,0,0,398,45,1.35,1.35,0,0,0,396.84,45.51Z"/><path class="cls-3" d="M406.1,43.1a3.3,3.3,0,0,1,2.61,1.2,4.1,4.1,0,0,1,1,2.72,4,4,0,0,1-1,2.72,3.55,3.55,0,0,1-5.23,0,4,4,0,0,1-1-2.72,4.1,4.1,0,0,1,1-2.72,3.25,3.25,0,0,1,2.6-1.18ZM405,45.51a2.53,2.53,0,0,0-.46,1.2v.17a.71.71,0,0,0,0,.14v.12a.57.57,0,0,0,0,.13,2.58,2.58,0,0,0,.44,1.22,1.45,1.45,0,0,0,2.29,0,2.58,2.58,0,0,0,.44-1.22.62.62,0,0,0,0-.13V47a.76.76,0,0,0,0-.15v-.16a2.53,2.53,0,0,0-.46-1.21A1.28,1.28,0,0,0,406.1,45,1.32,1.32,0,0,0,405,45.51Z"/><path class="cls-3" d="M417.81,41.06v8.62a1.13,1.13,0,0,1-.28.82,1,1,0,0,1-.73.3,1,1,0,0,1-.66-.21,1.19,1.19,0,0,1-.35-.61,1.65,1.65,0,0,1-.61.59,3.41,3.41,0,0,1-.83.29l-.2,0H414a2.91,2.91,0,0,1-2.43-1.18,4.22,4.22,0,0,1-.89-2.6v-.2a4.82,4.82,0,0,1,.87-2.61,2.69,2.69,0,0,1,2.38-1.18,3.21,3.21,0,0,1,1,.17,2.51,2.51,0,0,1,.89.53V41.06a1.14,1.14,0,0,1,.29-.8,1,1,0,0,1,1.45,0,1.16,1.16,0,0,1,.28.81Zm-2,5.88v-.07a2.53,2.53,0,0,0-.41-1.31,1.3,1.3,0,0,0-1.17-.6,1.24,1.24,0,0,0-1.07.54,2.5,2.5,0,0,0-.47,1.17c0,.06,0,.12,0,.18s0,.12,0,.17,0,.12,0,.18,0,.12,0,.17a2.51,2.51,0,0,0,.47,1.16,1.39,1.39,0,0,0,2.19,0,2.66,2.66,0,0,0,.45-1.21,1,1,0,0,1,0-.17V47Z"/><path class="cls-3" d="M421.08,40.15a1.91,1.91,0,0,1,1.49.61,2,2,0,0,1,.56,1.42,2.34,2.34,0,0,1-.11.67,5.59,5.59,0,0,1-.26.71,9,9,0,0,1-.48.84c-.18.27-.36.53-.54.77l-.36.41-.33.33a.63.63,0,0,1-.12.1l-.14.09-.13,0h-.21l-.1,0a1,1,0,0,1-.26-.21.48.48,0,0,1-.12-.3h0V45.5l0-.06a.33.33,0,0,1,.06-.1l.08-.11.23-.28.27-.29,0,0s0,0,0,0l.32-.36a3.08,3.08,0,0,0,.26-.33v0a.7.7,0,0,1-.2.08l-.23,0h-.09a1.57,1.57,0,0,1-1.22-.56,1.88,1.88,0,0,1-.48-1.27,2,2,0,0,1,.57-1.41,1.92,1.92,0,0,1,1.48-.61Zm.56,2.63a.88.88,0,0,0,.21-.6,1,1,0,0,0-.2-.6.73.73,0,0,0-.57-.25.72.72,0,0,0-.57.24.92.92,0,0,0-.21.61,1,1,0,0,0,.2.58.68.68,0,0,0,.58.26A.65.65,0,0,0,421.64,42.78Z"/><path class="cls-3" d="M425.25,45.65l-.69,1.22a.38.38,0,0,1-.11.14.55.55,0,0,1-.14.09l-.12,0h-.09a.53.53,0,0,1-.39-.16.49.49,0,0,1-.16-.38.45.45,0,0,1,0-.16l.06-.16.68-1.23a.25.25,0,0,1,.11-.12.42.42,0,0,1,.14-.09l.12-.05h.1a.57.57,0,0,1,.39.16.52.52,0,0,1,.17.38.4.4,0,0,1,0,.15l-.06.14v0Z"/><path class="cls-3" d="M427.25,45.47v-4.1h-.48a.45.45,0,0,1-.41-.16.57.57,0,0,1-.14-.37h0a.64.64,0,0,1,.14-.39.51.51,0,0,1,.41-.18h1.16a.52.52,0,0,1,.41.17.64.64,0,0,1,.14.41v4.64a.6.6,0,0,1-.61.64.62.62,0,0,1-.44-.17.59.59,0,0,1-.18-.46Z"/><path class="cls-3" d="M430.48,45.47v-4.1H430a.48.48,0,0,1-.42-.16.63.63,0,0,1-.14-.37h0a.6.6,0,0,1,.15-.39.5.5,0,0,1,.41-.18h1.16a.51.51,0,0,1,.4.17.64.64,0,0,1,.14.41v4.64a.63.63,0,0,1-.17.47.65.65,0,0,1-.88,0,.62.62,0,0,1-.17-.46Z"/><path class="cls-3" d="M257.78,78.89V71a1.06,1.06,0,0,1,.29-.77,1,1,0,0,1,.8-.31h2.48a3.7,3.7,0,0,1,2.56.94,3.1,3.1,0,0,1,1,2.42,3,3,0,0,1-1,2.42,3.62,3.62,0,0,1-2.47.9h-1.55V78.9a1,1,0,0,1-.3.8,1.14,1.14,0,0,1-1.5,0,1,1,0,0,1-.3-.8Zm2.1-4.14h1.43a1.3,1.3,0,0,0,1.05-.42,1.48,1.48,0,0,0,.39-1,1.51,1.51,0,0,0-.39-1.06,1.37,1.37,0,0,0-1.05-.43h-1.43Z"/><path class="cls-3" d="M265.86,77.12V73.47a1.11,1.11,0,0,1,.28-.79,1,1,0,0,1,.73-.31.91.91,0,0,1,.72.31,1.13,1.13,0,0,1,.28.81v3.59a1.22,1.22,0,0,0,.4,1,1.37,1.37,0,0,0,1.81,0,1.19,1.19,0,0,0,.4-1V73.48a1.12,1.12,0,0,1,.28-.8,1,1,0,0,1,.73-.31.91.91,0,0,1,.72.31,1.13,1.13,0,0,1,.28.81v3.63a2.74,2.74,0,0,1-.86,2.15,4.17,4.17,0,0,1-4.91,0,2.72,2.72,0,0,1-.86-2.13Z"/><path class="cls-3" d="M279.06,73.74a1,1,0,0,1-.23.64.76.76,0,0,1-.6.27,1,1,0,0,1-.35-.09l-.44-.21a1.39,1.39,0,0,1-.28-.12l-.28-.1-.23,0-.22,0a1,1,0,0,0-.48.13.47.47,0,0,0-.21.43A.45.45,0,0,0,276,75a2.51,2.51,0,0,0,.57.3l.46.17a5.32,5.32,0,0,1,.5.21,4.82,4.82,0,0,1,1.21.73,1.63,1.63,0,0,1,.54,1.32,2.1,2.1,0,0,1-.78,1.68,3.11,3.11,0,0,1-2.09.68l-.44,0a3.26,3.26,0,0,1-.45-.09,4,4,0,0,1-1.33-.53,1.08,1.08,0,0,1-.59-.89.52.52,0,0,1,0-.17.37.37,0,0,1,.08-.18,1,1,0,0,1,.29-.38.71.71,0,0,1,.47-.17,1.25,1.25,0,0,1,.45.08,1.93,1.93,0,0,1,.38.19l.08,0,.08,0a2.79,2.79,0,0,0,.49.24,1.62,1.62,0,0,0,.61.11,1,1,0,0,0,.63-.15.55.55,0,0,0,.17-.43.4.4,0,0,0-.22-.35,2.78,2.78,0,0,0-.55-.29l-.47-.18-.51-.2a4.62,4.62,0,0,1-1.2-.74,1.63,1.63,0,0,1-.55-1.33,2.12,2.12,0,0,1,.77-1.7,3.4,3.4,0,0,1,2.37-.63,3.83,3.83,0,0,1,.43.07,3.33,3.33,0,0,1,1.15.47,1,1,0,0,1,.53.89Z"/><path class="cls-3" d="M280.31,78.86V70.24a1.13,1.13,0,0,1,.28-.8,1,1,0,0,1,1.45,0,1.16,1.16,0,0,1,.28.81V73h0a1.65,1.65,0,0,1,.55-.42,2.75,2.75,0,0,1,.69-.21l.31,0h.28a2.82,2.82,0,0,1,2,.71,2.58,2.58,0,0,1,.78,2v3.85a1.13,1.13,0,0,1-.28.82,1,1,0,0,1-1.45,0,1.12,1.12,0,0,1-.29-.8V75.35a1.29,1.29,0,0,0-.38-1,1.35,1.35,0,0,0-.93-.34,1.16,1.16,0,0,0-.95.4,1.43,1.43,0,0,0-.34,1v3.5a1.13,1.13,0,0,1-.28.82,1,1,0,0,1-1.45,0,1.12,1.12,0,0,1-.28-.8Z"/><path class="cls-3" d="M289.42,69.34a1.17,1.17,0,0,1,.79.35,1,1,0,0,1,.34.77,1.14,1.14,0,0,1-.33.82,1.09,1.09,0,0,1-1.59,0,1.1,1.1,0,0,1-.34-.81,1,1,0,0,1,.34-.77,1.11,1.11,0,0,1,.79-.33Zm-1,9.52V73.47a1.11,1.11,0,0,1,.29-.79,1,1,0,0,1,1.45,0,1.17,1.17,0,0,1,.28.81v5.37a1.18,1.18,0,0,1-.28.82,1,1,0,0,1-1.45,0,1.13,1.13,0,0,1-.29-.81Z"/><path class="cls-3" d="M291.9,78.86V73.47a1.11,1.11,0,0,1,.28-.79,1.07,1.07,0,0,1,1.36-.12.92.92,0,0,1,.29.55,1.92,1.92,0,0,1,.76-.62,2.92,2.92,0,0,1,1.19-.21,2.8,2.8,0,0,1,2,.72,2.56,2.56,0,0,1,.78,2v3.86a1.13,1.13,0,0,1-.28.82.94.94,0,0,1-.72.3,1,1,0,0,1-.73-.3,1.12,1.12,0,0,1-.28-.8V75.35a1.3,1.3,0,0,0-.39-1,1.32,1.32,0,0,0-.93-.34,1.16,1.16,0,0,0-.95.4,1.48,1.48,0,0,0-.34,1v3.5a1.13,1.13,0,0,1-.28.82.94.94,0,0,1-.72.3,1,1,0,0,1-.73-.3,1.13,1.13,0,0,1-.28-.81Z"/><path class="cls-3" d="M306.92,73.47v5.84A3.38,3.38,0,0,1,305.84,82,4.17,4.17,0,0,1,303,83a6,6,0,0,1-.63,0,5,5,0,0,1-.81-.16,4.56,4.56,0,0,1-1.2-.48.94.94,0,0,1-.54-.82.5.5,0,0,1,0-.12l0-.12a1,1,0,0,1,.27-.41.81.81,0,0,1,.42-.23h.07a1.51,1.51,0,0,1,.5.09l.57.23.66.21a3.28,3.28,0,0,0,.79.1,1.8,1.8,0,0,0,1.23-.42,1.45,1.45,0,0,0,.48-1.17v-.49h0a2,2,0,0,1-.82.72,2.89,2.89,0,0,1-1.22.24,2.61,2.61,0,0,1-2.34-1.18,4.82,4.82,0,0,1-.76-2.68,4.49,4.49,0,0,1,.89-2.73,2.87,2.87,0,0,1,2.42-1.2h.21l.2,0a3.06,3.06,0,0,1,.83.3,1.6,1.6,0,0,1,.61.6,1.21,1.21,0,0,1,.35-.63,1,1,0,0,1,.66-.21.93.93,0,0,1,.73.31,1.13,1.13,0,0,1,.28.81Zm-2,2.76v-.15a1,1,0,0,1,0-.17,2.66,2.66,0,0,0-.45-1.21,1.37,1.37,0,0,0-2.19,0,2.47,2.47,0,0,0-.47,1.15,1.1,1.1,0,0,0,0,.18,1,1,0,0,0,0,.17,2.66,2.66,0,0,0,.39,1.44,1.44,1.44,0,0,0,2.35,0,2.56,2.56,0,0,0,.41-1.31v-.09Z"/><path class="cls-3" d="M313,78.86V74.21h-.45a.81.81,0,0,1-.64-.22.9.9,0,0,1-.23-.64.87.87,0,0,1,.87-.89H313v-1.2a1.08,1.08,0,0,1,.29-.8.92.92,0,0,1,.72-.31.9.9,0,0,1,.72.31,1.13,1.13,0,0,1,.28.81v1.19h.58a1.27,1.27,0,0,1,.68.21.77.77,0,0,1,.28.68.76.76,0,0,1-.28.67,1.12,1.12,0,0,1-.68.2H315v4.65a1.13,1.13,0,0,1-.28.82.92.92,0,0,1-.72.3,1,1,0,0,1-.72-.3,1.08,1.08,0,0,1-.29-.8Z"/><path class="cls-3" d="M317,78.86V70.24a1.14,1.14,0,0,1,.29-.8,1,1,0,0,1,1.45,0,1.21,1.21,0,0,1,.28.81V73h0a1.65,1.65,0,0,1,.55-.42,2.75,2.75,0,0,1,.69-.21l.3,0h.29a2.79,2.79,0,0,1,2,.71,2.55,2.55,0,0,1,.79,2v3.85a1.18,1.18,0,0,1-.28.82,1,1,0,0,1-1.45,0,1.12,1.12,0,0,1-.29-.8V75.35a1.33,1.33,0,0,0-.38-1,1.35,1.35,0,0,0-.93-.34,1.19,1.19,0,0,0-1,.4,1.47,1.47,0,0,0-.33,1v3.5a1.18,1.18,0,0,1-.28.82,1,1,0,0,1-1.45,0,1.12,1.12,0,0,1-.29-.8Z"/><path class="cls-3" d="M326.77,76.85a1.49,1.49,0,0,0,.66,1.11,2.2,2.2,0,0,0,1.24.36,2.11,2.11,0,0,0,.73-.13,4.75,4.75,0,0,0,.6-.28l.52-.28a1,1,0,0,1,.44-.13.78.78,0,0,1,.57.28.84.84,0,0,1,.25.59c0,.38-.27.72-.82,1a4.9,4.9,0,0,1-1.82.61l-.33,0-.32,0a3.59,3.59,0,0,1-2.73-1.1,3.87,3.87,0,0,1-1.05-2.77,4.1,4.1,0,0,1,1-2.72,3.47,3.47,0,0,1,5-.26,4.15,4.15,0,0,1,1.2,2c0,.11,0,.22.05.34s0,.23,0,.34a.94.94,0,0,1-.21.67.87.87,0,0,1-.67.23Zm3.16-1.35a1.86,1.86,0,0,0-.49-1.08,1.45,1.45,0,0,0-1.12-.44,1.43,1.43,0,0,0-1.09.44,1.81,1.81,0,0,0-.5,1.08Z"/><path class="cls-3" d="M337.61,78.86V74.21h-.45a.8.8,0,0,1-.64-.22.9.9,0,0,1-.23-.64.87.87,0,0,1,.87-.89h.45v-1.2a1.12,1.12,0,0,1,.28-.8.94.94,0,0,1,.72-.31.92.92,0,0,1,.73.31,1.13,1.13,0,0,1,.28.81v1.19h.58a1.3,1.3,0,0,1,.68.21.77.77,0,0,1,.28.68.76.76,0,0,1-.28.67,1.14,1.14,0,0,1-.68.2h-.58v4.65a1.13,1.13,0,0,1-.28.82.94.94,0,0,1-.73.3,1,1,0,0,1-.72-.3,1.12,1.12,0,0,1-.28-.8Z"/><path class="cls-3" d="M344.93,72.28a3.3,3.3,0,0,1,2.6,1.2,4.1,4.1,0,0,1,1,2.72,4,4,0,0,1-1,2.72,3.56,3.56,0,0,1-5.24,0,4,4,0,0,1-1-2.72,4.09,4.09,0,0,1,1-2.72,3.27,3.27,0,0,1,2.61-1.18Zm-1.13,2.41a2.42,2.42,0,0,0-.45,1.2c0,.06,0,.11,0,.17a.71.71,0,0,0,0,.14v.12a.59.59,0,0,0,0,.13,2.38,2.38,0,0,0,.44,1.22,1.26,1.26,0,0,0,1.14.56,1.29,1.29,0,0,0,1.14-.56,2.47,2.47,0,0,0,.44-1.22.62.62,0,0,0,0-.13v-.27a.86.86,0,0,1,0-.16,2.53,2.53,0,0,0-.46-1.21,1.27,1.27,0,0,0-1.12-.55A1.34,1.34,0,0,0,343.8,74.69Z"/><path class="cls-3" d="M349.74,78.86V73.47a1.11,1.11,0,0,1,.29-.79.92.92,0,0,1,.72-.31,1,1,0,0,1,.63.19.88.88,0,0,1,.3.55,1.85,1.85,0,0,1,.76-.62,2.9,2.9,0,0,1,1.18-.21,2.82,2.82,0,0,1,2,.72,2.56,2.56,0,0,1,.78,2v3.86a1.13,1.13,0,0,1-.28.82,1,1,0,0,1-1.45,0,1.12,1.12,0,0,1-.29-.8V75.35a1.29,1.29,0,0,0-.38-1,1.35,1.35,0,0,0-.93-.34,1.16,1.16,0,0,0-.95.4,1.43,1.43,0,0,0-.34,1v3.5a1.13,1.13,0,0,1-.28.82,1,1,0,0,1-1.45,0,1.13,1.13,0,0,1-.29-.81Z"/><path class="cls-3" d="M364.77,73.47v5.84A3.38,3.38,0,0,1,363.69,82a4.17,4.17,0,0,1-2.8.91,6,6,0,0,1-.63,0,5,5,0,0,1-.81-.16,4.56,4.56,0,0,1-1.2-.48.94.94,0,0,1-.54-.82.49.49,0,0,1,0-.12l0-.12a1.11,1.11,0,0,1,.28-.41.74.74,0,0,1,.42-.23h.07a1.51,1.51,0,0,1,.5.09l.57.23.66.21a3.22,3.22,0,0,0,.79.1,1.82,1.82,0,0,0,1.23-.42,1.45,1.45,0,0,0,.48-1.17v-.49h0a1.91,1.91,0,0,1-.82.72,2.81,2.81,0,0,1-1.21.24,2.61,2.61,0,0,1-2.34-1.18,4.83,4.83,0,0,1-.77-2.68,4.43,4.43,0,0,1,.9-2.73,2.86,2.86,0,0,1,2.42-1.2h.2l.21,0a3,3,0,0,1,.82.3,1.62,1.62,0,0,1,.62.6,1.2,1.2,0,0,1,.34-.63,1,1,0,0,1,.67-.21.93.93,0,0,1,.73.31,1.17,1.17,0,0,1,.28.81Zm-2,2.76a.76.76,0,0,0,0-.15v-.17a2.66,2.66,0,0,0-.45-1.21,1.27,1.27,0,0,0-1.12-.56,1.24,1.24,0,0,0-1.07.53,2.37,2.37,0,0,0-.47,1.15,1.1,1.1,0,0,0,0,.18,1,1,0,0,0,0,.17,2.66,2.66,0,0,0,.39,1.44,1.44,1.44,0,0,0,2.35,0,2.66,2.66,0,0,0,.41-1.31v-.09Z"/><path class="cls-3" d="M366.26,77.12V73.47a1.11,1.11,0,0,1,.29-.79,1,1,0,0,1,1.45,0,1.13,1.13,0,0,1,.28.81v3.59a1.19,1.19,0,0,0,.4,1,1.37,1.37,0,0,0,1.81,0,1.19,1.19,0,0,0,.39-1V73.48a1.12,1.12,0,0,1,.29-.8,1,1,0,0,1,1.45,0,1.13,1.13,0,0,1,.28.81v3.63a2.77,2.77,0,0,1-.86,2.15,4.17,4.17,0,0,1-4.91,0,2.73,2.73,0,0,1-.87-2.13Z"/><path class="cls-3" d="M376,76.85a1.56,1.56,0,0,0,.66,1.11,2.21,2.21,0,0,0,1.25.36,2.09,2.09,0,0,0,.72-.13,4.9,4.9,0,0,0,.61-.28l.51-.28a1,1,0,0,1,.44-.13.78.78,0,0,1,.57.28.84.84,0,0,1,.25.59c0,.38-.27.72-.82,1a4.9,4.9,0,0,1-1.82.61l-.33,0-.32,0A3.6,3.6,0,0,1,375,79,3.87,3.87,0,0,1,374,76.2a4.1,4.1,0,0,1,1-2.72,3.48,3.48,0,0,1,5-.26,4.13,4.13,0,0,1,1.19,2c0,.11,0,.22.05.34a2,2,0,0,1,0,.34.94.94,0,0,1-.21.67.87.87,0,0,1-.67.23Zm3.17-1.35a1.94,1.94,0,0,0-.5-1.08,1.61,1.61,0,0,0-2.21,0,1.81,1.81,0,0,0-.5,1.08Z"/><path class="cls-3" d="M258.32,95.66V90.27a1.11,1.11,0,0,1,.29-.79.92.92,0,0,1,.72-.31,1,1,0,0,1,.63.19.83.83,0,0,1,.29.56,2.62,2.62,0,0,1,.84-.62,2.43,2.43,0,0,1,1-.22,2.63,2.63,0,0,1,1.16.26,2.57,2.57,0,0,1,.92.76,3.37,3.37,0,0,1,.61-.51,2.93,2.93,0,0,1,.68-.35l.44-.12a2.94,2.94,0,0,1,2.4.66,2.57,2.57,0,0,1,.76,2v3.86a1.13,1.13,0,0,1-.28.82,1,1,0,0,1-1.45,0,1.12,1.12,0,0,1-.29-.8V92.15a1.52,1.52,0,0,0-.31-1,1,1,0,0,0-.86-.38,1.07,1.07,0,0,0-.88.38,1.53,1.53,0,0,0-.31,1v3.5a1.13,1.13,0,0,1-.28.82,1,1,0,0,1-1.45,0,1.12,1.12,0,0,1-.29-.8V92.15a1.52,1.52,0,0,0-.31-1,1,1,0,0,0-.86-.38,1.07,1.07,0,0,0-.91.38,1.64,1.64,0,0,0-.28,1v3.5a1.18,1.18,0,0,1-.28.82,1,1,0,0,1-1.45,0,1.13,1.13,0,0,1-.29-.81Z"/><path class="cls-3" d="M273.92,89.08a3.3,3.3,0,0,1,2.6,1.2,4.1,4.1,0,0,1,1,2.72,4,4,0,0,1-1,2.72,3.56,3.56,0,0,1-5.24,0,4,4,0,0,1-1-2.72,4.1,4.1,0,0,1,1-2.72,3.27,3.27,0,0,1,2.61-1.18Zm-1.13,2.41a2.53,2.53,0,0,0-.46,1.2v.17a.71.71,0,0,0,0,.14v.12s0,.09,0,.13a2.49,2.49,0,0,0,.45,1.22,1.26,1.26,0,0,0,1.14.56,1.29,1.29,0,0,0,1.14-.56,2.58,2.58,0,0,0,.44-1.22.66.66,0,0,0,0-.14v-.26a.86.86,0,0,1,0-.16,2.53,2.53,0,0,0-.46-1.21,1.27,1.27,0,0,0-1.12-.55A1.34,1.34,0,0,0,272.79,91.49Z"/><path class="cls-3" d="M278.71,95.66v-5.5a.83.83,0,0,1,.3-.71,1.14,1.14,0,0,1,.66-.28h.07a1.26,1.26,0,0,1,.69.17.71.71,0,0,1,.29.67l0,0a2.21,2.21,0,0,1,.61-.61,1.47,1.47,0,0,1,.8-.21,1,1,0,0,1,.67.26,1,1,0,0,1,.31.82.61.61,0,0,1-.21.51,1.7,1.7,0,0,1-.5.27l-.24.09-.25.11h0a5.4,5.4,0,0,0-.81.48,1,1,0,0,0-.37.85v3.09a1.13,1.13,0,0,1-.28.82,1,1,0,0,1-1.45,0,1.13,1.13,0,0,1-.28-.81Z"/><path class="cls-3" d="M285.37,93.65a1.49,1.49,0,0,0,.66,1.11,2.2,2.2,0,0,0,1.24.36A2.09,2.09,0,0,0,288,95a4.31,4.31,0,0,0,.61-.28l.52-.28a1,1,0,0,1,.43-.13.79.79,0,0,1,.58.28.84.84,0,0,1,.25.59c0,.38-.27.72-.83,1a4.85,4.85,0,0,1-1.81.61l-.33,0-.32,0a3.62,3.62,0,0,1-2.74-1.1,3.9,3.9,0,0,1-1-2.77,4.1,4.1,0,0,1,1-2.72,3.47,3.47,0,0,1,5-.26,4.15,4.15,0,0,1,1.2,2c0,.11,0,.22,0,.34s0,.23,0,.34a.94.94,0,0,1-.21.67.87.87,0,0,1-.67.23Zm3.16-1.35a1.86,1.86,0,0,0-.49-1.08,1.45,1.45,0,0,0-1.12-.44,1.46,1.46,0,0,0-1.1.44,1.8,1.8,0,0,0-.49,1.08Z"/><path class="cls-3" d="M302.6,90.47v5.22a2.09,2.09,0,0,1,0,.24,1.43,1.43,0,0,1-.23.59,1.1,1.1,0,0,1-1.37,0,1.57,1.57,0,0,1-.32-.62,2.72,2.72,0,0,1-.87.7,2.38,2.38,0,0,1-1.05.23,3.06,3.06,0,0,1-2.37-1.09,4.06,4.06,0,0,1-1-2.79,4.16,4.16,0,0,1,1-2.79,3,3,0,0,1,2.36-1.12,2.6,2.6,0,0,1,1.07.23,2,2,0,0,1,.85.71.94.94,0,0,1,.32-.61,1,1,0,0,1,.65-.24.83.83,0,0,1,.72.27,1.42,1.42,0,0,1,.23.6,1.85,1.85,0,0,1,0,.23v.21ZM297.44,93v.13a.57.57,0,0,0,0,.13,2.47,2.47,0,0,0,.44,1.22A1.29,1.29,0,0,0,299,95a1.23,1.23,0,0,0,1.11-.56,2.46,2.46,0,0,0,.43-1.22.59.59,0,0,0,0-.13V93s0-.09,0-.14,0-.11,0-.17a2.5,2.5,0,0,0-.44-1.2,1.4,1.4,0,0,0-2.22,0,2.53,2.53,0,0,0-.46,1.2,1,1,0,0,1,0,.17V93Z"/><path class="cls-3" d="M304.07,95.66v-5.5a.86.86,0,0,1,.3-.71,1.17,1.17,0,0,1,.67-.28h.07a1.26,1.26,0,0,1,.69.17.73.73,0,0,1,.29.67l0,0a2.08,2.08,0,0,1,.61-.61,1.42,1.42,0,0,1,.8-.21,1,1,0,0,1,.67.26,1,1,0,0,1,.31.82.61.61,0,0,1-.21.51,1.83,1.83,0,0,1-.5.27l-.24.09-.25.11h-.05a5.84,5.84,0,0,0-.8.48,1,1,0,0,0-.37.85v3.09a1.13,1.13,0,0,1-.28.82,1,1,0,0,1-1.45,0,1.13,1.13,0,0,1-.29-.81Z"/><path class="cls-3" d="M312.43,89.08a3.3,3.3,0,0,1,2.6,1.2,4.2,4.2,0,0,1,0,5.44,3.56,3.56,0,0,1-5.24,0,4.2,4.2,0,0,1,0-5.44,3.25,3.25,0,0,1,2.6-1.18Zm-1.13,2.41a2.52,2.52,0,0,0-.45,1.2,1,1,0,0,1,0,.17s0,.1,0,.14v.12a.59.59,0,0,0,0,.13,2.47,2.47,0,0,0,.44,1.22,1.44,1.44,0,0,0,2.28,0,2.47,2.47,0,0,0,.44-1.22.68.68,0,0,0,0-.14V93s0-.09,0-.14a.86.86,0,0,1,0-.16,2.51,2.51,0,0,0-.45-1.21,1.3,1.3,0,0,0-1.13-.55A1.35,1.35,0,0,0,311.3,91.49Z"/><path class="cls-3" d="M317.25,93.92V90.27a1.11,1.11,0,0,1,.28-.79,1,1,0,0,1,1.45,0,1.13,1.13,0,0,1,.28.81v3.59a1.22,1.22,0,0,0,.4,1,1.37,1.37,0,0,0,1.81,0,1.19,1.19,0,0,0,.4-1V90.27a1.11,1.11,0,0,1,.28-.79.93.93,0,0,1,.73-.31.91.91,0,0,1,.72.31,1.13,1.13,0,0,1,.28.81v3.63a2.74,2.74,0,0,1-.86,2.15,4.17,4.17,0,0,1-4.91,0,2.72,2.72,0,0,1-.86-2.13Z"/><path class="cls-3" d="M325.38,95.66V90.27a1.11,1.11,0,0,1,.29-.79.92.92,0,0,1,.72-.31,1,1,0,0,1,.63.19.83.83,0,0,1,.29.55,1.88,1.88,0,0,1,.77-.62,2.87,2.87,0,0,1,1.18-.21,2.8,2.8,0,0,1,2,.72,2.53,2.53,0,0,1,.79,2v3.86a1.18,1.18,0,0,1-.28.82,1,1,0,0,1-1.45,0,1.12,1.12,0,0,1-.29-.8V92.15a1.33,1.33,0,0,0-.38-1,1.36,1.36,0,0,0-.94-.34,1.17,1.17,0,0,0-.95.4,1.47,1.47,0,0,0-.33,1v3.5a1.18,1.18,0,0,1-.28.82,1,1,0,0,1-1.45,0,1.13,1.13,0,0,1-.29-.81Z"/><path class="cls-3" d="M340.4,87v8.62a1.13,1.13,0,0,1-.28.82.94.94,0,0,1-.72.3,1,1,0,0,1-.67-.21,1.18,1.18,0,0,1-.34-.61,1.57,1.57,0,0,1-.62.58,3.11,3.11,0,0,1-.82.3l-.21,0h-.2a2.88,2.88,0,0,1-2.42-1.18,4.17,4.17,0,0,1-.9-2.6v-.2a4.9,4.9,0,0,1,.87-2.61,2.69,2.69,0,0,1,2.38-1.18,3,3,0,0,1,1,.17,2.6,2.6,0,0,1,.89.53V87a1.13,1.13,0,0,1,.28-.8,1,1,0,0,1,.73-.31.91.91,0,0,1,.72.31,1.16,1.16,0,0,1,.28.81Zm-2,5.88v-.07a2.54,2.54,0,0,0-.42-1.31,1.28,1.28,0,0,0-1.17-.6,1.25,1.25,0,0,0-1.07.54,2.49,2.49,0,0,0-.46,1.17l0,.18v.35l0,.17a2.49,2.49,0,0,0,.46,1.16,1.39,1.39,0,0,0,2.19,0,2.45,2.45,0,0,0,.45-1.21c0-.06,0-.11,0-.17s0-.11,0-.17Z"/><path class="cls-3" d="M346.49,95.66V91H346a.78.78,0,0,1-.63-.22,1,1,0,0,1,0-1.27.82.82,0,0,1,.62-.26h.45v-1.2a1.12,1.12,0,0,1,.29-.8,1,1,0,0,1,1.45,0,1.13,1.13,0,0,1,.28.81v1.19h.57a1.27,1.27,0,0,1,.68.21.93.93,0,0,1,0,1.35,1.12,1.12,0,0,1-.68.2h-.57v4.65a1.13,1.13,0,0,1-.28.82,1,1,0,0,1-1.45,0,1.12,1.12,0,0,1-.29-.8Z"/><path class="cls-3" d="M350.5,95.66V87a1.13,1.13,0,0,1,.28-.8.94.94,0,0,1,.72-.31.92.92,0,0,1,.73.31,1.16,1.16,0,0,1,.28.81v2.73h0a1.65,1.65,0,0,1,.55-.42,2.71,2.71,0,0,1,.7-.21l.3,0h.29a2.79,2.79,0,0,1,2,.71,2.58,2.58,0,0,1,.78,2v3.85a1.13,1.13,0,0,1-.28.82.94.94,0,0,1-.72.3,1,1,0,0,1-.73-.3,1.12,1.12,0,0,1-.28-.8V92.15a1.3,1.3,0,0,0-.39-1,1.34,1.34,0,0,0-.93-.34,1.16,1.16,0,0,0-.95.4,1.48,1.48,0,0,0-.34,1v3.5a1.13,1.13,0,0,1-.28.82.94.94,0,0,1-.73.3,1,1,0,0,1-.72-.3,1.12,1.12,0,0,1-.28-.8Z"/><path class="cls-3" d="M360.26,93.65a1.51,1.51,0,0,0,.65,1.11,2.23,2.23,0,0,0,1.25.36,2.09,2.09,0,0,0,.72-.13,4.9,4.9,0,0,0,.61-.28l.52-.28a1,1,0,0,1,.43-.13.79.79,0,0,1,.58.28.89.89,0,0,1,.25.59c0,.38-.28.72-.83,1a4.9,4.9,0,0,1-1.82.61l-.33,0-.31,0a3.62,3.62,0,0,1-2.74-1.1,3.86,3.86,0,0,1-1-2.77,4,4,0,0,1,1-2.72,3.47,3.47,0,0,1,5-.26,4.15,4.15,0,0,1,1.2,2c0,.11,0,.22.05.34s0,.23,0,.34a.94.94,0,0,1-.21.67.9.9,0,0,1-.68.23Zm3.16-1.35a1.87,1.87,0,0,0-.5-1.08,1.41,1.41,0,0,0-1.11-.44,1.45,1.45,0,0,0-1.1.44,1.87,1.87,0,0,0-.5,1.08Z"/><path class="cls-3" d="M258.32,112.46v-5.39a1.16,1.16,0,0,1,.29-.8,1,1,0,0,1,.72-.3,1,1,0,0,1,.63.19.83.83,0,0,1,.29.56,2.62,2.62,0,0,1,.84-.62,2.43,2.43,0,0,1,1-.22,2.63,2.63,0,0,1,1.16.26,2.57,2.57,0,0,1,.92.76,3.37,3.37,0,0,1,.61-.51,2.93,2.93,0,0,1,.68-.35l.44-.12a2.94,2.94,0,0,1,2.4.66,2.59,2.59,0,0,1,.76,2v3.86a1.13,1.13,0,0,1-.28.82,1,1,0,0,1-1.45,0,1.12,1.12,0,0,1-.29-.8V109a1.52,1.52,0,0,0-.31-1,1,1,0,0,0-.86-.38,1.07,1.07,0,0,0-.88.38,1.53,1.53,0,0,0-.31,1v3.5a1.13,1.13,0,0,1-.28.82,1,1,0,0,1-1.45,0,1.12,1.12,0,0,1-.29-.8V109a1.52,1.52,0,0,0-.31-1,1,1,0,0,0-.86-.38,1.07,1.07,0,0,0-.91.38,1.64,1.64,0,0,0-.28,1v3.5a1.18,1.18,0,0,1-.28.82,1,1,0,0,1-1.45,0,1.13,1.13,0,0,1-.29-.81Z"/><path class="cls-3" d="M273.92,105.88a3.3,3.3,0,0,1,2.6,1.2,4.1,4.1,0,0,1,1,2.72,4,4,0,0,1-1,2.72,3.56,3.56,0,0,1-5.24,0,4,4,0,0,1-1-2.72,4.1,4.1,0,0,1,1-2.72,3.27,3.27,0,0,1,2.61-1.18Zm-1.13,2.41a2.53,2.53,0,0,0-.46,1.2v.17a.71.71,0,0,0,0,.14v.12s0,.09,0,.13a2.49,2.49,0,0,0,.45,1.22,1.26,1.26,0,0,0,1.14.56,1.29,1.29,0,0,0,1.14-.56,2.58,2.58,0,0,0,.44-1.22.66.66,0,0,0,0-.14v-.26a.86.86,0,0,1,0-.16,2.53,2.53,0,0,0-.46-1.21,1.27,1.27,0,0,0-1.12-.55A1.34,1.34,0,0,0,272.79,108.29Z"/><path class="cls-3" d="M278.73,110.72v-3.65a1.16,1.16,0,0,1,.29-.8,1,1,0,0,1,1.45,0,1.17,1.17,0,0,1,.28.82v3.59a1.19,1.19,0,0,0,.4,1,1.36,1.36,0,0,0,1.8,0,1.17,1.17,0,0,0,.4-1v-3.62a1.16,1.16,0,0,1,.29-.8,1,1,0,0,1,1.45,0,1.17,1.17,0,0,1,.28.82v3.63a2.77,2.77,0,0,1-.86,2.15,4.18,4.18,0,0,1-4.92,0,2.76,2.76,0,0,1-.86-2.14Z"/><path class="cls-3" d="M287.36,112.46v-4.65h-.45a.81.81,0,0,1-.64-.22A.9.9,0,0,1,286,107a.87.87,0,0,1,.87-.89h.45v-1.2a1.12,1.12,0,0,1,.28-.8,1,1,0,0,1,.73-.31.91.91,0,0,1,.72.31,1.13,1.13,0,0,1,.28.81v1.19H290a1.3,1.3,0,0,1,.68.21,1,1,0,0,1,0,1.35,1.14,1.14,0,0,1-.68.2h-.58v4.65a1.13,1.13,0,0,1-.28.82.94.94,0,0,1-.72.3,1,1,0,0,1-.73-.3,1.12,1.12,0,0,1-.28-.8Z"/><path class="cls-3" d="M291.36,112.46v-8.62a1.14,1.14,0,0,1,.29-.8,1,1,0,0,1,1.45,0,1.21,1.21,0,0,1,.28.81v2.73h0a1.55,1.55,0,0,1,.55-.42,2.75,2.75,0,0,1,.69-.21l.3,0h.29a2.79,2.79,0,0,1,2,.71,2.55,2.55,0,0,1,.79,2v3.85a1.18,1.18,0,0,1-.28.82,1,1,0,0,1-1.45,0,1.12,1.12,0,0,1-.29-.8V109a1.33,1.33,0,0,0-.38-1,1.35,1.35,0,0,0-.93-.34,1.18,1.18,0,0,0-1,.4,1.47,1.47,0,0,0-.33,1v3.5a1.18,1.18,0,0,1-.28.82,1,1,0,0,1-1.45,0,1.12,1.12,0,0,1-.29-.8Z"/><path class="cls-3" d="M304.09,112.46v-4.65h-.45a.81.81,0,0,1-.64-.22.9.9,0,0,1-.23-.64.87.87,0,0,1,.87-.89h.45v-1.2a1.08,1.08,0,0,1,.29-.8.92.92,0,0,1,.72-.31.91.91,0,0,1,.72.31,1.13,1.13,0,0,1,.28.81v1.19h.58a1.27,1.27,0,0,1,.68.21,1,1,0,0,1,0,1.35,1.12,1.12,0,0,1-.68.2h-.58v4.65a1.13,1.13,0,0,1-.28.82.94.94,0,0,1-.72.3,1,1,0,0,1-.72-.3,1.08,1.08,0,0,1-.29-.8Z"/><path class="cls-3" d="M311.41,105.88a3.3,3.3,0,0,1,2.6,1.2,4.2,4.2,0,0,1,0,5.44,3.56,3.56,0,0,1-5.24,0,4.2,4.2,0,0,1,0-5.44,3.25,3.25,0,0,1,2.6-1.18Zm-1.13,2.41a2.52,2.52,0,0,0-.45,1.2,1,1,0,0,1,0,.17s0,.1,0,.14v.12a.59.59,0,0,0,0,.13,2.38,2.38,0,0,0,.44,1.22,1.44,1.44,0,0,0,2.28,0,2.47,2.47,0,0,0,.44-1.22.66.66,0,0,0,0-.14v-.26a.86.86,0,0,1,0-.16,2.62,2.62,0,0,0-.45-1.21,1.3,1.3,0,0,0-1.13-.55A1.34,1.34,0,0,0,310.28,108.29Z"/><path class="cls-3" d="M320.33,112.46v-5.39a1.15,1.15,0,0,1,.28-.8,1,1,0,0,1,.73-.3,1,1,0,0,1,.63.19.92.92,0,0,1,.29.56,2.48,2.48,0,0,1,1.88-.84,2.56,2.56,0,0,1,2.08,1,3.68,3.68,0,0,1,.6-.51,3.2,3.2,0,0,1,.69-.35l.43-.12a3,3,0,0,1,.41,0,2.8,2.8,0,0,1,2,.7,2.59,2.59,0,0,1,.77,2v3.86a1.18,1.18,0,0,1-.28.82,1,1,0,0,1-1.45,0,1.12,1.12,0,0,1-.29-.8V109a1.52,1.52,0,0,0-.31-1,1,1,0,0,0-.86-.38,1.06,1.06,0,0,0-.88.38,1.53,1.53,0,0,0-.31,1v3.5a1.18,1.18,0,0,1-.28.82,1,1,0,0,1-1.45,0,1.12,1.12,0,0,1-.29-.8V109a1.53,1.53,0,0,0-.32-1,1.21,1.21,0,0,0-1.76,0,1.65,1.65,0,0,0-.29,1v3.5a1.13,1.13,0,0,1-.28.82.94.94,0,0,1-.72.3,1,1,0,0,1-.73-.3,1.13,1.13,0,0,1-.28-.81Z"/><path class="cls-3" d="M335.92,105.88a3.3,3.3,0,0,1,2.61,1.2,4.1,4.1,0,0,1,1,2.72,4,4,0,0,1-1,2.72,3.55,3.55,0,0,1-5.23,0,4,4,0,0,1-1-2.72,4.1,4.1,0,0,1,1-2.72,3.25,3.25,0,0,1,2.6-1.18Zm-1.12,2.41a2.53,2.53,0,0,0-.46,1.2,1,1,0,0,1,0,.17v.26a.57.57,0,0,0,0,.13,2.58,2.58,0,0,0,.44,1.22,1.29,1.29,0,0,0,1.14.56,1.26,1.26,0,0,0,1.14-.56,2.49,2.49,0,0,0,.45-1.22s0-.09,0-.14v-.11a.76.76,0,0,0,0-.15v-.16a2.53,2.53,0,0,0-.46-1.21,1.28,1.28,0,0,0-1.13-.55A1.32,1.32,0,0,0,334.8,108.29Z"/><path class="cls-3" d="M342.31,112.74l-2-5.22a1.86,1.86,0,0,1-.09-.24.78.78,0,0,1,0-.22V107a.88.88,0,0,1,.31-.74,1.16,1.16,0,0,1,.72-.24.78.78,0,0,1,.53.16,1.44,1.44,0,0,1,.3.37l0,.09a.36.36,0,0,1,0,.09l1.29,4h0l1.29-4,0-.08,0-.09a1.25,1.25,0,0,1,.3-.37.78.78,0,0,1,.53-.16,1.21,1.21,0,0,1,.73.24.89.89,0,0,1,.32.74v.11c0,.08,0,.15,0,.22s-.05.15-.09.26l-2,5.2a1.47,1.47,0,0,1-.36.62,1.32,1.32,0,0,1-1.46,0,1.67,1.67,0,0,1-.36-.61Z"/><path class="cls-3" d="M349.18,110.45a1.56,1.56,0,0,0,.66,1.11,2.2,2.2,0,0,0,1.24.36,2.11,2.11,0,0,0,.73-.13,4.9,4.9,0,0,0,.61-.28l.51-.28a1,1,0,0,1,.44-.13.75.75,0,0,1,.57.28.84.84,0,0,1,.25.59c0,.38-.27.72-.82,1a4.9,4.9,0,0,1-1.82.61l-.33,0-.32,0a3.59,3.59,0,0,1-2.73-1.1,3.87,3.87,0,0,1-1.05-2.77,4.1,4.1,0,0,1,1-2.72,3.47,3.47,0,0,1,5-.26,4.15,4.15,0,0,1,1.2,2.05c0,.11,0,.23,0,.34s0,.23,0,.34a.94.94,0,0,1-.21.67.87.87,0,0,1-.67.23Zm3.17-1.35a1.94,1.94,0,0,0-.5-1.08,1.61,1.61,0,0,0-2.21,0,1.81,1.81,0,0,0-.5,1.08Z"/><path class="cls-3" d="M360,112.46v-4.65h-.45a.81.81,0,0,1-.64-.22.9.9,0,0,1-.23-.64.87.87,0,0,1,.87-.89H360v-1a2.3,2.3,0,0,1,.59-1.69,2.1,2.1,0,0,1,1.52-.59,2.5,2.5,0,0,1,1,.19.72.72,0,0,1,.43.72.89.89,0,0,1-.2.65.82.82,0,0,1-.62.21,1.23,1.23,0,0,0-.47.09c-.13.06-.21.27-.21.65v.81h.63a1.38,1.38,0,0,1,.74.21.93.93,0,0,1,0,1.35,1.22,1.22,0,0,1-.74.2H362v4.65a1.18,1.18,0,0,1-.27.82,1,1,0,0,1-1.45,0,1.08,1.08,0,0,1-.29-.8Z"/><path class="cls-3" d="M367.34,105.88a3.3,3.3,0,0,1,2.6,1.2,4.2,4.2,0,0,1,0,5.44,3.56,3.56,0,0,1-5.24,0,4.2,4.2,0,0,1,0-5.44,3.25,3.25,0,0,1,2.6-1.18Zm-1.13,2.41a2.52,2.52,0,0,0-.45,1.2c0,.06,0,.11,0,.17s0,.1,0,.14v.12a.59.59,0,0,0,0,.13,2.38,2.38,0,0,0,.44,1.22,1.44,1.44,0,0,0,2.28,0,2.47,2.47,0,0,0,.44-1.22.68.68,0,0,0,0-.14v-.11s0-.1,0-.15a.86.86,0,0,1,0-.16,2.62,2.62,0,0,0-.45-1.21,1.3,1.3,0,0,0-1.13-.55A1.34,1.34,0,0,0,366.21,108.29Z"/><path class="cls-3" d="M375.47,105.88a3.3,3.3,0,0,1,2.61,1.2,4.09,4.09,0,0,1,1,2.72,4,4,0,0,1-1,2.72,3.55,3.55,0,0,1-5.23,0,4,4,0,0,1-1-2.72,4.1,4.1,0,0,1,1-2.72,3.25,3.25,0,0,1,2.6-1.18Zm-1.12,2.41a2.53,2.53,0,0,0-.46,1.2,1,1,0,0,1,0,.17v.26a.57.57,0,0,0,0,.13,2.58,2.58,0,0,0,.44,1.22,1.29,1.29,0,0,0,1.14.56,1.26,1.26,0,0,0,1.14-.56,2.38,2.38,0,0,0,.44-1.22.68.68,0,0,0,0-.14v-.11a.76.76,0,0,0,0-.15c0-.05,0-.11,0-.16a2.42,2.42,0,0,0-.45-1.21,1.28,1.28,0,0,0-1.13-.55A1.32,1.32,0,0,0,374.35,108.29Z"/><path class="cls-3" d="M387.18,103.84v8.62a1.18,1.18,0,0,1-.28.82,1,1,0,0,1-.73.3,1,1,0,0,1-.67-.21,1.25,1.25,0,0,1-.34-.61,1.51,1.51,0,0,1-.62.58,3,3,0,0,1-.82.3l-.2,0h-.21a2.91,2.91,0,0,1-2.42-1.18,4.16,4.16,0,0,1-.89-2.6v-.2a4.81,4.81,0,0,1,.86-2.61,2.7,2.7,0,0,1,2.38-1.18,3,3,0,0,1,1,.17,2.6,2.6,0,0,1,.89.53v-2.76a1.14,1.14,0,0,1,.29-.8,1,1,0,0,1,1.45,0,1.21,1.21,0,0,1,.28.81Zm-2,5.88v-.07a2.63,2.63,0,0,0-.41-1.31,1.3,1.3,0,0,0-1.17-.6,1.23,1.23,0,0,0-1.07.54,2.4,2.4,0,0,0-.47,1.17,1.1,1.1,0,0,0,0,.18,1,1,0,0,0,0,.17,1.09,1.09,0,0,0,0,.18.88.88,0,0,0,0,.17,2.4,2.4,0,0,0,.47,1.16,1.24,1.24,0,0,0,1.07.52,1.27,1.27,0,0,0,1.12-.55,2.66,2.66,0,0,0,.45-1.21v-.17a1,1,0,0,0,0-.17Z"/><path class="cls-3" d="M390.44,102.93a1.94,1.94,0,0,1,1.5.61,2,2,0,0,1,.55,1.42,2.32,2.32,0,0,1-.1.67c-.07.23-.16.47-.26.71a9,9,0,0,1-.48.84c-.18.27-.36.53-.54.77l-.36.41-.33.33-.12.1-.14.09-.13.05h-.21l-.1,0a1,1,0,0,1-.26-.21.56.56,0,0,1-.13-.3h0s0,0,0-.07l0-.06a.21.21,0,0,1,.06-.1l.08-.11.23-.28.27-.29s0,0,0,0l0,0,.32-.36c.1-.12.19-.23.26-.33v0a.68.68,0,0,1-.2.07l-.23,0h-.09a1.57,1.57,0,0,1-1.22-.56,1.88,1.88,0,0,1-.48-1.27,2,2,0,0,1,.57-1.41,1.91,1.91,0,0,1,1.47-.61Zm.57,2.63a.88.88,0,0,0,.21-.6,1,1,0,0,0-.2-.6.7.7,0,0,0-.58-.25.71.71,0,0,0-.56.24.92.92,0,0,0-.21.61.94.94,0,0,0,.19.58.71.71,0,0,0,.58.26A.66.66,0,0,0,391,105.56Z"/><path class="cls-3" d="M394.61,108.43l-.68,1.22a.38.38,0,0,1-.11.14l-.14.09-.12,0h-.1a.52.52,0,0,1-.38-.16.51.51,0,0,1-.16-.38.45.45,0,0,1,0-.16.76.76,0,0,1,.06-.16l.67-1.23a.69.69,0,0,1,.11-.13l.15-.08.12,0h.1a.56.56,0,0,1,.39.16.52.52,0,0,1,.17.38.4.4,0,0,1,0,.15l-.06.14v0s0,0,0,0Z"/><path class="cls-3" d="M396.62,108.25v-4.1h-.48a.48.48,0,0,1-.42-.16.62.62,0,0,1-.13-.37h0a.57.57,0,0,1,.14-.39.51.51,0,0,1,.41-.18h1.16a.54.54,0,0,1,.4.18.59.59,0,0,1,.15.41v4.64a.6.6,0,0,1-.18.47.62.62,0,0,1-.44.17.61.61,0,0,1-.43-.17.59.59,0,0,1-.18-.46Z"/><path class="cls-3" d="M399.85,108.25v-4.1h-.49A.46.46,0,0,1,399,104a.57.57,0,0,1-.14-.37h0a.58.58,0,0,1,.15-.39.48.48,0,0,1,.4-.18h1.16a.56.56,0,0,1,.41.18.64.64,0,0,1,.14.41v4.64a.6.6,0,0,1-.61.64.62.62,0,0,1-.44-.17.58.58,0,0,1-.17-.46Z"/><circle class="cls-4" cx="39.97" cy="63.92" r="38.77"/><circle class="cls-5" cx="39.97" cy="63.92" r="38.77"/><path class="cls-6" d="M49.51,61.68A2.85,2.85,0,0,0,48.76,60h0l0-.06h0c-.94-1-.74-2.73-.91-4.95-.28-3.49-.67-8.28-4.41-12.12-4.08-4.18-8.11-3.49-10.15-2.71a4.61,4.61,0,0,1-3.35,0,8.86,8.86,0,0,0-3.14-.59,9.64,9.64,0,0,0-7,3.3C16,46.74,15.59,51.53,15.31,55c-.18,2.22,0,4-.91,4.95h0l0,.06h0a2.86,2.86,0,0,0-.76,1.64Z"/><path class="cls-6" d="M49.51,61.68a2.71,2.71,0,0,1-.75,1.59h0l0,0h0c-.94,1-.74,2.67-.91,4.83C47.5,71.58,45,82.33,31.56,82.33s-16-10.75-16.25-14.16c-.18-2.16,0-3.87-.91-4.83h0l0,0h0a2.73,2.73,0,0,1-.76-1.59Z"/><path class="cls-7" d="M48.51,61.68l0,0c-1.69-1.51-1.55-3.62-1.78-6-.29-3.1-.65-7-4.1-10a8.65,8.65,0,0,0-5.73-2.39,7.76,7.76,0,0,0-2.47.4,9.39,9.39,0,0,1-5.68,0,7.88,7.88,0,0,0-2.48-.4,8.66,8.66,0,0,0-5.73,2.39c-3.44,3-3.8,6.87-4.09,10-.23,2.43-.09,4.54-1.78,6l0,0Z"/><path class="cls-7" d="M48.51,61.68l0,0c-1.69,1.47-1.55,3.53-1.78,5.9-.29,3-1.79,11.23-15.14,11.23S16.72,70.62,16.43,67.6c-.23-2.37-.09-4.43-1.78-5.9l0,0Z"/><g class="cls-8"><path class="cls-4" d="M31.5,42.44v2.14a1.62,1.62,0,0,1-.69,1.31,1.83,1.83,0,0,1-1.14.32l-1.49-.07A2.12,2.12,0,0,1,27,45.72a1.84,1.84,0,0,1-.74-1.54,2.93,2.93,0,0,1,1.32-2.52c1.72-1,3.59-1.41,3.89.78"/><path class="cls-4" d="M31.63,42.44v2.14a1.6,1.6,0,0,0,.7,1.31,1.78,1.78,0,0,0,1.13.32L35,46.14a2.18,2.18,0,0,0,1.16-.42,1.84,1.84,0,0,0,.74-1.54,3,3,0,0,0-1.32-2.52c-1.73-1-3.6-1.41-3.9.78"/></g><path class="cls-9" d="M41.86,68.57c2,0,3.33-5.62,2.65-7.45-1.48-4-4.14-9.84-7.14-9.75-4.59.14-4.32,5.52-4.32,5.52s.42,2.73-1.64,2.73H31.2c-2.06,0-1.63-2.73-1.63-2.73s.26-5.38-4.33-5.52c-3-.09-5.66,5.72-7.14,9.75-.68,1.83.7,7.45,2.65,7.45Z"/><path class="cls-10" d="M31.16,61.71c-3-3.42-7.9-.91-10.37.72a3.35,3.35,0,0,0-1.48,2.92c.18,3.81,1.17,12.66,6.45,16.85A8,8,0,0,0,30.66,84a8.14,8.14,0,0,0,5-1.58C41,78.54,42.43,70,42.81,66.08a3.61,3.61,0,0,0-1.49-3.3C38.88,61,34.23,58.5,31.16,61.71"/><path class="cls-11" d="M31.16,61.71c-3-3.42-7.9-.91-10.37.72a3.35,3.35,0,0,0-1.48,2.92c.18,3.81,1.17,12.66,6.45,16.85A8,8,0,0,0,30.66,84a8.14,8.14,0,0,0,5-1.58C41,78.54,42.43,70,42.81,66.08a3.61,3.61,0,0,0-1.49-3.3C38.88,61,34.23,58.5,31.16,61.71Z"/><line class="cls-12" x1="31.16" y1="61.71" x2="31.16" y2="75.47"/><path class="cls-13" d="M65.07,76.69H63.41c4.78-4.3-6.53-8.6,0-12.89h0c5.47-3.62-1.67-7.23-1.24-10.85h2.95c1,0,1.62-.88,1.11-1.57L59.35,42a1.74,1.74,0,0,0-2.64,0l-6.83,9.37C49.37,52.07,50,53,51,53h1.33c-.43,3.61,6.71,7.23,1.26,10.84h0c-6.5,4.3,4.83,8.6,0,12.9H51c-1,0-1.62.88-1.11,1.57l6.83,9.37a1.74,1.74,0,0,0,2.64,0l6.83-9.37c.51-.69-.11-1.57-1.11-1.57"/></g></g></svg>