<svg xmlns="http://www.w3.org/2000/svg" xmlns:xlink="http://www.w3.org/1999/xlink" viewBox="0 0 238.47 109.57"><defs><style>.cls-1,.cls-10,.cls-11,.cls-6{fill:none;}.cls-2{fill:#f1f1ad;}.cls-3{fill:#754d24;}.cls-4{fill:#fff;}.cls-5{opacity:0.5;}.cls-6{stroke:#3bb44a;stroke-width:2.4px;stroke-dasharray:6.09 6.09;}.cls-10,.cls-11,.cls-6{stroke-linecap:round;}.cls-11,.cls-6{stroke-miterlimit:10;}.cls-7{clip-path:url(#clip-path);}.cls-8{fill:#fac5bb;}.cls-9{fill:#f39725;}.cls-10{stroke:#f07d26;stroke-linejoin:round;}.cls-10,.cls-11{stroke-width:0.87px;}.cls-11{stroke:#f7a79c;}</style><clipPath id="clip-path" transform="translate(0)"><path class="cls-1" d="M8.43,52.69A31.54,31.54,0,1,0,40,21.15,31.54,31.54,0,0,0,8.43,52.69"/></clipPath></defs><title>Asset 1</title><g id="Layer_2" data-name="Layer 2"><g id="Layer_1-2" data-name="Layer 1"><path class="cls-2" d="M227.69,16.19C215.51,4.21,176.28,0,145.19,0h-.09C114,0,74.77,4.21,62.59,16.19S51.86,54.88,51.86,54.88,50.4,83.8,62.59,93.38s50.71,16.09,82.21,16.19h.67c31.5-.09,70.11-6.67,82.21-16.19s10.73-38.49,10.73-38.49S239.88,28.18,227.69,16.19Z" transform="translate(0)"/><path class="cls-3" d="M96.26,36.44v-7.7a1.36,1.36,0,0,1,.27-.86,1,1,0,0,1,.83-.34h3.47a.94.94,0,0,1,.75.32,1,1,0,0,1,.25.67v0a1,1,0,0,1-.27.64.92.92,0,0,1-.73.29H98.36v2h2.3a1,1,0,0,1,.77.32,1,1,0,0,1,.25.66v0a1,1,0,0,1-.27.64,1,1,0,0,1-.75.29h-2.3v2.11h2.59a1,1,0,0,1,.75.31,1,1,0,0,1,.25.66v0a1,1,0,0,1-.27.63.93.93,0,0,1-.73.28H97.34a1.1,1.1,0,0,1-.77-.28,1,1,0,0,1-.31-.76Z" transform="translate(0)"/><path class="cls-3" d="M102.74,35.91l2-2.33-1.71-1.92a1,1,0,0,1-.17-.24,1,1,0,0,1-.11-.28l0-.11a.6.6,0,0,1,0-.09.9.9,0,0,1,.32-.69,1.05,1.05,0,0,1,.71-.29.83.83,0,0,1,.41.1,1.12,1.12,0,0,1,.33.29L106,32.1l1.41-1.76a1.19,1.19,0,0,1,.33-.28.83.83,0,0,1,.41-.1,1.05,1.05,0,0,1,.71.29.9.9,0,0,1,.32.69.77.77,0,0,1,0,.09,1,1,0,0,1,0,.11,1,1,0,0,1-.1.28,1.45,1.45,0,0,1-.18.25l-1.71,1.91,2,2.33.13.21a1.31,1.31,0,0,1,.1.24l0,.13a.69.69,0,0,1,0,.13.93.93,0,0,1-.27.7,1,1,0,0,1-.72.27,1,1,0,0,1-.48-.1,1.17,1.17,0,0,1-.31-.27l0,0,0,0L106,35.08l-1.67,2,0,0,0,0a1.2,1.2,0,0,1-.31.27,1,1,0,0,1-.48.1,1,1,0,0,1-.71-.27.92.92,0,0,1-.28-.7.62.62,0,0,1,0-.13l0-.13a1.38,1.38,0,0,1,.11-.24,1.3,1.3,0,0,1,.13-.2Z" transform="translate(0)"/><path class="cls-3" d="M110.88,36.46V31.81h-.45a.81.81,0,0,1-.64-.22.89.89,0,0,1-.23-.64.86.86,0,0,1,.25-.63.83.83,0,0,1,.62-.25h.45v-1.2a1.13,1.13,0,0,1,.29-.8,1,1,0,0,1,1.45,0,1.16,1.16,0,0,1,.28.81V30h.57a1.27,1.27,0,0,1,.68.21.94.94,0,0,1,0,1.35,1.16,1.16,0,0,1-.68.2h-.57v4.65a1.16,1.16,0,0,1-.28.82,1,1,0,0,1-1.45,0,1.12,1.12,0,0,1-.29-.8Z" transform="translate(0)"/><path class="cls-3" d="M116.5,34.44a1.52,1.52,0,0,0,.66,1.11,2.23,2.23,0,0,0,1.25.36,2,2,0,0,0,.72-.13,5,5,0,0,0,.61-.28l.52-.28a.94.94,0,0,1,.43-.13.76.76,0,0,1,.57.27.86.86,0,0,1,.25.6q0,.56-.83,1a5,5,0,0,1-1.82.62l-.33,0h-.32a3.6,3.6,0,0,1-2.74-1.1,3.86,3.86,0,0,1-1-2.76,4.08,4.08,0,0,1,1-2.72,3.46,3.46,0,0,1,5-.25,4.13,4.13,0,0,1,1.2,2c0,.11,0,.23,0,.34a2.93,2.93,0,0,1,0,.34.94.94,0,0,1-.21.67.88.88,0,0,1-.67.22Zm3.16-1.34a1.9,1.9,0,0,0-.5-1.09A1.6,1.6,0,0,0,117,32a1.8,1.8,0,0,0-.5,1.08Z" transform="translate(0)"/><path class="cls-3" d="M122.75,36.45V31.07a1.12,1.12,0,0,1,.29-.8.94.94,0,0,1,.72-.31,1,1,0,0,1,.63.2.86.86,0,0,1,.29.55,1.86,1.86,0,0,1,.76-.62,2.89,2.89,0,0,1,1.18-.21,2.82,2.82,0,0,1,2,.72,2.58,2.58,0,0,1,.78,2v3.86a1.16,1.16,0,0,1-.28.82,1,1,0,0,1-1.45,0,1.12,1.12,0,0,1-.29-.8V32.94a1.31,1.31,0,0,0-.38-1,1.35,1.35,0,0,0-.93-.34,1.17,1.17,0,0,0-1,.4,1.48,1.48,0,0,0-.34,1v3.5a1.16,1.16,0,0,1-.28.82,1,1,0,0,1-1.45,0,1.12,1.12,0,0,1-.29-.81Z" transform="translate(0)"/><path class="cls-3" d="M137.77,27.83v8.62a1.16,1.16,0,0,1-.28.82,1,1,0,0,1-.73.3,1,1,0,0,1-.66-.22,1.17,1.17,0,0,1-.34-.61,1.56,1.56,0,0,1-.62.59,3,3,0,0,1-.83.29l-.2,0h-.2a2.89,2.89,0,0,1-2.42-1.18,4.2,4.2,0,0,1-.9-2.6v-.2a4.86,4.86,0,0,1,.87-2.61,2.7,2.7,0,0,1,2.38-1.18,3.09,3.09,0,0,1,1,.17,2.65,2.65,0,0,1,.89.53V27.83A1.12,1.12,0,0,1,136,27a1,1,0,0,1,1.45,0,1.16,1.16,0,0,1,.28.81Zm-2,5.88v-.07a2.55,2.55,0,0,0-.41-1.31,1.3,1.3,0,0,0-1.17-.59,1.25,1.25,0,0,0-1.07.53,2.53,2.53,0,0,0-.47,1.18,1.61,1.61,0,0,0,0,.17c0,.06,0,.12,0,.18s0,.11,0,.17a1.61,1.61,0,0,0,0,.17,2.48,2.48,0,0,0,.47,1.16,1.25,1.25,0,0,0,1.07.52,1.27,1.27,0,0,0,1.12-.55,2.6,2.6,0,0,0,.45-1.21c0-.06,0-.11,0-.17s0-.11,0-.17Z" transform="translate(0)"/><path class="cls-3" d="M140.89,34.44a1.52,1.52,0,0,0,.66,1.11,2.23,2.23,0,0,0,1.25.36,2,2,0,0,0,.72-.13,5,5,0,0,0,.61-.28l.52-.28a.94.94,0,0,1,.43-.13.76.76,0,0,1,.57.27.86.86,0,0,1,.25.6q0,.56-.83,1a5,5,0,0,1-1.82.62l-.33,0h-.32a3.6,3.6,0,0,1-2.74-1.1,3.86,3.86,0,0,1-1-2.76,4.08,4.08,0,0,1,1-2.72,3.46,3.46,0,0,1,5-.25,4.13,4.13,0,0,1,1.2,2c0,.11,0,.23,0,.34a2.92,2.92,0,0,1,0,.34.94.94,0,0,1-.21.67.88.88,0,0,1-.67.22Zm3.16-1.34a1.9,1.9,0,0,0-.5-1.09,1.6,1.6,0,0,0-2.21,0,1.8,1.8,0,0,0-.5,1.08Z" transform="translate(0)"/><path class="cls-3" d="M154,27.83v8.62a1.16,1.16,0,0,1-.28.82,1,1,0,0,1-.73.3,1,1,0,0,1-.66-.22,1.16,1.16,0,0,1-.34-.61,1.57,1.57,0,0,1-.62.59,3,3,0,0,1-.83.29l-.2,0h-.2a2.88,2.88,0,0,1-2.42-1.18,4.2,4.2,0,0,1-.9-2.6v-.2a4.87,4.87,0,0,1,.87-2.61,2.7,2.7,0,0,1,2.38-1.18,3.08,3.08,0,0,1,1,.17,2.64,2.64,0,0,1,.89.53V27.83a1.12,1.12,0,0,1,.29-.8,1,1,0,0,1,1.45,0,1.16,1.16,0,0,1,.28.81Zm-2,5.88v-.07a2.56,2.56,0,0,0-.41-1.31,1.3,1.3,0,0,0-1.17-.59,1.25,1.25,0,0,0-1.07.53,2.53,2.53,0,0,0-.47,1.18c0,.06,0,.11,0,.17s0,.12,0,.18,0,.11,0,.17,0,.12,0,.17a2.48,2.48,0,0,0,.47,1.16,1.25,1.25,0,0,0,1.07.52,1.27,1.27,0,0,0,1.12-.55,2.6,2.6,0,0,0,.45-1.21c0-.06,0-.11,0-.17s0-.11,0-.17Z" transform="translate(0)"/><path class="cls-3" d="M159.59,36.45V31a.88.88,0,0,1,.3-.71,1.15,1.15,0,0,1,.66-.28h.07a1.3,1.3,0,0,1,.69.18.71.71,0,0,1,.29.67h0a2.17,2.17,0,0,1,.61-.62,1.46,1.46,0,0,1,.8-.21,1,1,0,0,1,.67.27A1,1,0,0,1,164,31a.61.61,0,0,1-.21.51,2,2,0,0,1-.5.27l-.24.09-.25.11h0a5.49,5.49,0,0,0-.8.48,1,1,0,0,0-.37.86v3.09a1.16,1.16,0,0,1-.28.82,1,1,0,0,1-1.45,0,1.12,1.12,0,0,1-.29-.81Z" transform="translate(0)"/><path class="cls-3" d="M166.26,34.44a1.52,1.52,0,0,0,.66,1.11,2.23,2.23,0,0,0,1.25.36,2,2,0,0,0,.72-.13,4.94,4.94,0,0,0,.61-.28l.52-.28a.94.94,0,0,1,.43-.13.76.76,0,0,1,.57.27.86.86,0,0,1,.25.6q0,.56-.83,1a5,5,0,0,1-1.82.62l-.33,0H168a3.6,3.6,0,0,1-2.74-1.1,3.86,3.86,0,0,1-1-2.76,4.08,4.08,0,0,1,1-2.72,3.46,3.46,0,0,1,5-.25,4.13,4.13,0,0,1,1.2,2c0,.11,0,.23,0,.34a2.74,2.74,0,0,1,0,.34,1,1,0,0,1-.21.67.88.88,0,0,1-.67.22Zm3.16-1.34a1.91,1.91,0,0,0-.5-1.09,1.6,1.6,0,0,0-2.21,0,1.8,1.8,0,0,0-.5,1.08Z" transform="translate(0)"/><path class="cls-3" d="M179.39,31.27v5.22a2.29,2.29,0,0,1,0,.24,1.29,1.29,0,0,1-.23.59.83.83,0,0,1-.72.27.84.84,0,0,1-.64-.22,1.47,1.47,0,0,1-.32-.62,2.69,2.69,0,0,1-.87.69,2.38,2.38,0,0,1-1,.23,3,3,0,0,1-2.37-1.09,4.05,4.05,0,0,1-1-2.78,4.11,4.11,0,0,1,1-2.79,3,3,0,0,1,2.36-1.12,2.61,2.61,0,0,1,1.07.23,2,2,0,0,1,.85.71.92.92,0,0,1,.32-.61,1,1,0,0,1,.64-.24.82.82,0,0,1,.72.27,1.34,1.34,0,0,1,.23.6,2.29,2.29,0,0,1,0,.24v.21Zm-5.17,2.52v.13a.66.66,0,0,0,0,.13,2.49,2.49,0,0,0,.44,1.22,1.3,1.3,0,0,0,1.14.56,1.25,1.25,0,0,0,1.11-.56,2.54,2.54,0,0,0,.43-1.22.74.74,0,0,0,0-.13V33.8s0-.1,0-.15,0-.11,0-.16a2.56,2.56,0,0,0-.45-1.2,1.25,1.25,0,0,0-1.09-.55,1.29,1.29,0,0,0-1.13.55,2.51,2.51,0,0,0-.46,1.2c0,.06,0,.11,0,.16s0,.1,0,.15Z" transform="translate(0)"/><path class="cls-3" d="M186.67,31.15s0,.09,0,.13,0,.09,0,.13a1.25,1.25,0,0,1-.26.49.6.6,0,0,1-.48.22h-.17l-.17,0-.2-.06-.2-.08-.41-.13a1.56,1.56,0,0,0-.45-.06,1.42,1.42,0,0,0-1.27.64,2.53,2.53,0,0,0-.42,1.42v.11a2.44,2.44,0,0,0,.48,1.32,1.42,1.42,0,0,0,1.22.59l.27,0,.28-.08.15,0,.15-.06.38-.15a.87.87,0,0,1,.26-.06.83.83,0,0,1,.62.26.86.86,0,0,1,.25.62.9.9,0,0,1-.43.78,3.15,3.15,0,0,1-1,.43,4.28,4.28,0,0,1-.6.12l-.48,0a3.29,3.29,0,0,1-2.62-1.15,4,4,0,0,1-1-2.72,4.08,4.08,0,0,1,1-2.72,3.26,3.26,0,0,1,2.6-1.18l.48,0a4.06,4.06,0,0,1,.55.1,3.08,3.08,0,0,1,1,.38.85.85,0,0,1,.45.76Z" transform="translate(0)"/><path class="cls-3" d="M187.72,36.46V27.83A1.12,1.12,0,0,1,188,27a1,1,0,0,1,1.45,0,1.16,1.16,0,0,1,.28.81v2.73h0a1.61,1.61,0,0,1,.55-.42,2.53,2.53,0,0,1,.69-.21l.3,0h.29a2.82,2.82,0,0,1,2,.71,2.57,2.57,0,0,1,.78,2v3.85a1.16,1.16,0,0,1-.28.82,1,1,0,0,1-1.45,0,1.12,1.12,0,0,1-.29-.8V32.94a1.31,1.31,0,0,0-.38-1,1.35,1.35,0,0,0-.93-.34,1.18,1.18,0,0,0-1,.4,1.48,1.48,0,0,0-.34,1v3.5a1.16,1.16,0,0,1-.28.82,1,1,0,0,1-1.45,0,1.12,1.12,0,0,1-.29-.8Z" transform="translate(0)"/><path class="cls-3" d="M103.09,48.07v5.22a2.3,2.3,0,0,1,0,.24,1.29,1.29,0,0,1-.23.59.83.83,0,0,1-.72.27.84.84,0,0,1-.64-.22,1.47,1.47,0,0,1-.32-.62,2.69,2.69,0,0,1-.87.69,2.38,2.38,0,0,1-1,.23,3,3,0,0,1-2.37-1.09,4.05,4.05,0,0,1-1-2.78,4.11,4.11,0,0,1,1-2.79,3,3,0,0,1,2.36-1.12,2.61,2.61,0,0,1,1.07.23,2,2,0,0,1,.85.71.92.92,0,0,1,.32-.61,1,1,0,0,1,.64-.24.82.82,0,0,1,.72.27,1.34,1.34,0,0,1,.23.6,2.29,2.29,0,0,1,0,.24v.21Zm-5.17,2.52v.13a.66.66,0,0,0,0,.13,2.48,2.48,0,0,0,.44,1.22,1.3,1.3,0,0,0,1.14.56,1.25,1.25,0,0,0,1.11-.56,2.54,2.54,0,0,0,.43-1.22.73.73,0,0,0,0-.13V50.6s0-.1,0-.15,0-.11,0-.16a2.56,2.56,0,0,0-.45-1.2,1.25,1.25,0,0,0-1.09-.55,1.29,1.29,0,0,0-1.13.55,2.51,2.51,0,0,0-.45,1.2c0,.06,0,.11,0,.16s0,.1,0,.15Z" transform="translate(0)"/><path class="cls-3" d="M104.59,53.25V47.87a1.12,1.12,0,0,1,.29-.8.94.94,0,0,1,.72-.31,1,1,0,0,1,.63.2.85.85,0,0,1,.29.55,1.86,1.86,0,0,1,.76-.62,2.89,2.89,0,0,1,1.18-.21,2.82,2.82,0,0,1,2,.72,2.57,2.57,0,0,1,.78,2v3.86a1.16,1.16,0,0,1-.28.82,1,1,0,0,1-1.45,0,1.12,1.12,0,0,1-.29-.8V49.74a1.31,1.31,0,0,0-.38-1,1.35,1.35,0,0,0-.93-.34,1.18,1.18,0,0,0-1,.4,1.48,1.48,0,0,0-.34,1v3.5a1.16,1.16,0,0,1-.28.82,1,1,0,0,1-1.45,0,1.12,1.12,0,0,1-.29-.81Z" transform="translate(0)"/><path class="cls-3" d="M119.61,44.63v8.62a1.16,1.16,0,0,1-.28.82,1,1,0,0,1-.73.3,1,1,0,0,1-.66-.22,1.16,1.16,0,0,1-.34-.61,1.57,1.57,0,0,1-.62.59,3,3,0,0,1-.83.29l-.2,0h-.2a2.88,2.88,0,0,1-2.42-1.18,4.2,4.2,0,0,1-.9-2.6v-.2a4.87,4.87,0,0,1,.87-2.61,2.7,2.7,0,0,1,2.38-1.18,3.09,3.09,0,0,1,1,.17,2.64,2.64,0,0,1,.89.53V44.63a1.12,1.12,0,0,1,.29-.8,1,1,0,0,1,1.45,0,1.16,1.16,0,0,1,.28.81Zm-2,5.88v-.07a2.56,2.56,0,0,0-.41-1.31,1.3,1.3,0,0,0-1.17-.59,1.25,1.25,0,0,0-1.07.53,2.53,2.53,0,0,0-.47,1.18c0,.06,0,.11,0,.17s0,.12,0,.18,0,.11,0,.17,0,.12,0,.17a2.48,2.48,0,0,0,.47,1.16,1.25,1.25,0,0,0,1.07.52,1.27,1.27,0,0,0,1.12-.55,2.6,2.6,0,0,0,.45-1.21c0-.06,0-.11,0-.17s0-.11,0-.17Z" transform="translate(0)"/><path class="cls-3" d="M132.1,47.87V53.7A3.37,3.37,0,0,1,131,56.44a4.19,4.19,0,0,1-2.8.91,5.22,5.22,0,0,1-.63,0,5.89,5.89,0,0,1-.81-.16,4.6,4.6,0,0,1-1.2-.48.93.93,0,0,1-.54-.82.59.59,0,0,1,0-.12l0-.12a1.12,1.12,0,0,1,.28-.41.82.82,0,0,1,.42-.23h.07a1.4,1.4,0,0,1,.5.1l.57.22.67.21a3,3,0,0,0,.79.1,1.82,1.82,0,0,0,1.22-.41,1.45,1.45,0,0,0,.48-1.17v-.49h0a1.93,1.93,0,0,1-.82.71,2.86,2.86,0,0,1-1.21.24,2.6,2.6,0,0,1-2.35-1.18,4.82,4.82,0,0,1-.76-2.68,4.44,4.44,0,0,1,.9-2.73,2.87,2.87,0,0,1,2.42-1.2h.2l.2,0a2.79,2.79,0,0,1,.83.3,1.61,1.61,0,0,1,.62.6,1.17,1.17,0,0,1,.34-.62,1,1,0,0,1,.66-.22.94.94,0,0,1,.73.31,1.16,1.16,0,0,1,.28.81Zm-2,2.76s0-.1,0-.15,0-.11,0-.17a2.61,2.61,0,0,0-.45-1.21,1.27,1.27,0,0,0-1.12-.55,1.25,1.25,0,0,0-1.07.53,2.47,2.47,0,0,0-.47,1.15,1.68,1.68,0,0,0,0,.18c0,.06,0,.12,0,.17a2.63,2.63,0,0,0,.39,1.43,1.43,1.43,0,0,0,2.34,0,2.55,2.55,0,0,0,.41-1.31v-.08Z" transform="translate(0)"/><path class="cls-3" d="M133.57,53.25v-5.5a.88.88,0,0,1,.3-.71,1.15,1.15,0,0,1,.67-.28h.07a1.3,1.3,0,0,1,.69.18.71.71,0,0,1,.29.67h0a2.17,2.17,0,0,1,.61-.62,1.46,1.46,0,0,1,.8-.21,1,1,0,0,1,.67.27,1,1,0,0,1,.31.81.61.61,0,0,1-.21.51,2,2,0,0,1-.5.27l-.24.09-.25.11h0a5.47,5.47,0,0,0-.8.48,1,1,0,0,0-.37.86v3.09a1.16,1.16,0,0,1-.28.82,1,1,0,0,1-1.45,0,1.12,1.12,0,0,1-.29-.81Z" transform="translate(0)"/><path class="cls-3" d="M145.5,48.07v5.22a2.29,2.29,0,0,1,0,.24,1.29,1.29,0,0,1-.23.59.83.83,0,0,1-.72.27.84.84,0,0,1-.64-.22,1.47,1.47,0,0,1-.32-.62,2.69,2.69,0,0,1-.87.69,2.38,2.38,0,0,1-1,.23,3,3,0,0,1-2.37-1.09,4.05,4.05,0,0,1-1-2.78,4.11,4.11,0,0,1,1-2.79,3,3,0,0,1,2.36-1.12,2.61,2.61,0,0,1,1.07.23,2,2,0,0,1,.85.71.92.92,0,0,1,.32-.61,1,1,0,0,1,.64-.24.82.82,0,0,1,.72.27,1.34,1.34,0,0,1,.23.6,2.29,2.29,0,0,1,0,.24v.21Zm-5.17,2.52v.13a.66.66,0,0,0,0,.13,2.48,2.48,0,0,0,.44,1.22,1.3,1.3,0,0,0,1.14.56,1.25,1.25,0,0,0,1.11-.56,2.54,2.54,0,0,0,.43-1.22.73.73,0,0,0,0-.13V50.6s0-.1,0-.15,0-.11,0-.16a2.56,2.56,0,0,0-.45-1.2,1.25,1.25,0,0,0-1.09-.55,1.29,1.29,0,0,0-1.13.55,2.51,2.51,0,0,0-.46,1.2c0,.06,0,.11,0,.16s0,.1,0,.15Z" transform="translate(0)"/><path class="cls-3" d="M152.06,48.13a1,1,0,0,1-.23.64.75.75,0,0,1-.59.27.93.93,0,0,1-.35-.09l-.45-.2-.28-.12-.28-.1-.22,0-.22,0a.88.88,0,0,0-.48.13.47.47,0,0,0-.21.43.44.44,0,0,0,.22.36,3,3,0,0,0,.56.29l.47.18.5.2a4.87,4.87,0,0,1,1.2.74,1.62,1.62,0,0,1,.55,1.32,2.12,2.12,0,0,1-.78,1.68,3.09,3.09,0,0,1-2.09.67l-.44,0-.46-.08a4,4,0,0,1-1.32-.53,1.07,1.07,0,0,1-.59-.9.85.85,0,0,1,0-.17.52.52,0,0,1,.08-.18,1.13,1.13,0,0,1,.29-.38.7.7,0,0,1,.48-.17,1.21,1.21,0,0,1,.45.08,2.36,2.36,0,0,1,.38.19l.08,0,.08,0a3,3,0,0,0,.49.25,1.68,1.68,0,0,0,.62.1,1,1,0,0,0,.63-.15.54.54,0,0,0,.17-.43.42.42,0,0,0-.22-.36,3.18,3.18,0,0,0-.55-.29l-.47-.18-.51-.2a4.66,4.66,0,0,1-1.2-.74,1.64,1.64,0,0,1-.55-1.33,2.12,2.12,0,0,1,.77-1.7,2.93,2.93,0,0,1,2-.65l.41,0a3.18,3.18,0,0,1,.43.08,3.26,3.26,0,0,1,1.16.47,1,1,0,0,1,.53.89Z" transform="translate(0)"/><path class="cls-3" d="M153.31,47.87a1.12,1.12,0,0,1,.29-.8.94.94,0,0,1,.72-.31A1,1,0,0,1,155,47a1.17,1.17,0,0,1,.34.62,1.72,1.72,0,0,1,.76-.67,2.72,2.72,0,0,1,1-.26h.14a2.7,2.7,0,0,1,2.38,1.19,4.88,4.88,0,0,1,.87,2.62v.2a4.21,4.21,0,0,1-.9,2.61,2.88,2.88,0,0,1-2.42,1.18h-.25l-.27,0a3.26,3.26,0,0,1-.69-.22,2.63,2.63,0,0,1-.64-.41v2.45A1.16,1.16,0,0,1,155,57a1,1,0,0,1-1.45,0,1.14,1.14,0,0,1-.29-.81Zm2,2.64c0,.07,0,.13,0,.18s0,.11,0,.17a2.6,2.6,0,0,0,.45,1.21,1.38,1.38,0,0,0,2.19,0,2.5,2.5,0,0,0,.47-1.16c0-.06,0-.11,0-.17s0-.12,0-.17,0-.11,0-.18,0-.12,0-.17a2.55,2.55,0,0,0-.47-1.18,1.25,1.25,0,0,0-1.07-.53,1.3,1.3,0,0,0-1.17.59,2.55,2.55,0,0,0-.41,1.31v.08Z" transform="translate(0)"/><path class="cls-3" d="M166.54,53.35l-1.71-4.84c-.06-.15-.1-.29-.13-.41a2,2,0,0,1-.06-.35.3.3,0,0,1,0-.09v-.09a.72.72,0,0,1,.29-.58,1.09,1.09,0,0,1,.72-.24.91.91,0,0,1,.62.22,1.05,1.05,0,0,1,.34.58l1.16,3.84h0l1.18-3.77a1.43,1.43,0,0,1,.35-.63,1.08,1.08,0,0,1,1.35,0,1.48,1.48,0,0,1,.34.64l1.18,3.75h0l1.16-3.85a1,1,0,0,1,.34-.57.91.91,0,0,1,.62-.22A1,1,0,0,1,175,47a.94.94,0,0,1,.28.72,1,1,0,0,1-.06.34c0,.12-.09.25-.13.41l-1.72,4.85a1.9,1.9,0,0,1-.44.74,1,1,0,0,1-.78.29,1.09,1.09,0,0,1-.74-.25,1.47,1.47,0,0,1-.42-.68l-1-3.26h0l-1,3.25a1.47,1.47,0,0,1-.42.69,1.09,1.09,0,0,1-.74.25,1,1,0,0,1-.78-.29,1.9,1.9,0,0,1-.44-.72Z" transform="translate(0)"/><path class="cls-3" d="M177,43.74a1.17,1.17,0,0,1,.79.34,1,1,0,0,1,.34.78,1.14,1.14,0,0,1-.33.82,1.09,1.09,0,0,1-1.6,0,1.12,1.12,0,0,1-.34-.81,1.05,1.05,0,0,1,.34-.77,1.1,1.1,0,0,1,.79-.34Zm-1,9.52V47.87a1.12,1.12,0,0,1,.29-.8,1,1,0,0,1,1.45,0,1.16,1.16,0,0,1,.28.81v5.37a1.16,1.16,0,0,1-.28.82,1,1,0,0,1-1.45,0,1.12,1.12,0,0,1-.29-.81Z" transform="translate(0)"/><path class="cls-3" d="M179.59,53.26V48.61h-.45a.8.8,0,0,1-.64-.22.88.88,0,0,1-.23-.64.87.87,0,0,1,.25-.63.83.83,0,0,1,.62-.25h.45v-1.2a1.13,1.13,0,0,1,.29-.8,1,1,0,0,1,1.45,0,1.16,1.16,0,0,1,.28.81v1.19h.57a1.27,1.27,0,0,1,.68.21.94.94,0,0,1,0,1.35,1.16,1.16,0,0,1-.68.2h-.57v4.65a1.15,1.15,0,0,1-.28.82,1,1,0,0,1-1.45,0,1.12,1.12,0,0,1-.29-.8Z" transform="translate(0)"/><path class="cls-3" d="M183.24,53.26V44.63a1.12,1.12,0,0,1,.29-.8,1,1,0,0,1,1.45,0,1.16,1.16,0,0,1,.28.81v2.73h0a1.59,1.59,0,0,1,.55-.42,2.53,2.53,0,0,1,.69-.21l.3,0h.29a2.82,2.82,0,0,1,2,.71,2.57,2.57,0,0,1,.78,2v3.85a1.16,1.16,0,0,1-.28.82,1,1,0,0,1-1.45,0,1.12,1.12,0,0,1-.29-.8V49.74a1.31,1.31,0,0,0-.38-1,1.35,1.35,0,0,0-.93-.34,1.17,1.17,0,0,0-1,.4,1.48,1.48,0,0,0-.34,1v3.5a1.16,1.16,0,0,1-.28.82,1,1,0,0,1-1.45,0,1.12,1.12,0,0,1-.29-.8Z" transform="translate(0)"/><path class="cls-3" d="M194.34,46.68a3.31,3.31,0,0,1,2.6,1.2,4.08,4.08,0,0,1,1,2.72,4,4,0,0,1-1,2.72,3.56,3.56,0,0,1-5.24,0,4,4,0,0,1-1-2.72,4.08,4.08,0,0,1,1-2.72,3.26,3.26,0,0,1,2.6-1.18Zm-1.13,2.41a2.51,2.51,0,0,0-.45,1.2c0,.06,0,.11,0,.16s0,.1,0,.15v.12a.66.66,0,0,0,0,.13,2.49,2.49,0,0,0,.44,1.22,1.44,1.44,0,0,0,2.28,0,2.51,2.51,0,0,0,.44-1.22.72.72,0,0,0,0-.13v-.12s0-.1,0-.15,0-.1,0-.16a2.54,2.54,0,0,0-.46-1.21,1.29,1.29,0,0,0-1.13-.55A1.32,1.32,0,0,0,193.22,49.08Z" transform="translate(0)"/><path class="cls-3" d="M198.81,51.52V47.87a1.12,1.12,0,0,1,.29-.8,1,1,0,0,1,1.45,0,1.16,1.16,0,0,1,.28.81v3.59a1.22,1.22,0,0,0,.4,1,1.38,1.38,0,0,0,1.81,0,1.2,1.2,0,0,0,.4-1V47.87a1.13,1.13,0,0,1,.29-.8,1,1,0,0,1,1.45,0,1.16,1.16,0,0,1,.28.81v3.63a2.78,2.78,0,0,1-.86,2.15,4.21,4.21,0,0,1-4.91,0,2.76,2.76,0,0,1-.86-2.14Z" transform="translate(0)"/><path class="cls-3" d="M207.08,53.26V48.61h-.45a.81.81,0,0,1-.64-.22.89.89,0,0,1-.23-.64.87.87,0,0,1,.25-.63.83.83,0,0,1,.62-.25h.45v-1.2a1.13,1.13,0,0,1,.29-.8,1,1,0,0,1,1.45,0,1.16,1.16,0,0,1,.28.81v1.19h.57a1.27,1.27,0,0,1,.68.21.94.94,0,0,1,0,1.35,1.16,1.16,0,0,1-.68.2h-.57v4.65a1.16,1.16,0,0,1-.28.82,1,1,0,0,1-1.45,0,1.12,1.12,0,0,1-.29-.8Z" transform="translate(0)"/><path class="cls-3" d="M101.27,64.93a1,1,0,0,1-.23.64.74.74,0,0,1-.59.27.93.93,0,0,1-.35-.09l-.45-.2-.28-.12-.28-.11-.22,0-.22,0a.87.87,0,0,0-.48.13.47.47,0,0,0-.21.43.44.44,0,0,0,.22.36,3.12,3.12,0,0,0,.56.29l.47.17.5.2a4.81,4.81,0,0,1,1.2.74,1.62,1.62,0,0,1,.55,1.32,2.12,2.12,0,0,1-.78,1.68,3.1,3.1,0,0,1-2.09.67l-.44,0-.46-.08a4,4,0,0,1-1.32-.53,1.07,1.07,0,0,1-.59-.9.84.84,0,0,1,0-.17.53.53,0,0,1,.08-.18,1.13,1.13,0,0,1,.29-.38.71.71,0,0,1,.48-.17,1.23,1.23,0,0,1,.45.08,2.36,2.36,0,0,1,.38.19l.08,0,.08,0a2.9,2.9,0,0,0,.49.25,1.66,1.66,0,0,0,.62.11,1,1,0,0,0,.63-.15.54.54,0,0,0,.17-.43.43.43,0,0,0-.22-.36,3.12,3.12,0,0,0-.55-.29l-.47-.18-.51-.2a4.68,4.68,0,0,1-1.2-.74A1.65,1.65,0,0,1,96,65.84a2.12,2.12,0,0,1,.77-1.7,2.93,2.93,0,0,1,2-.65l.41,0a3,3,0,0,1,.43.08,3.26,3.26,0,0,1,1.16.47,1,1,0,0,1,.53.89Z" transform="translate(0)"/><path class="cls-3" d="M102.17,68.32V64.67a1.13,1.13,0,0,1,.29-.8,1,1,0,0,1,1.45,0,1.17,1.17,0,0,1,.28.81v3.59a1.21,1.21,0,0,0,.4,1,1.38,1.38,0,0,0,1.81,0,1.19,1.19,0,0,0,.4-1V64.67a1.13,1.13,0,0,1,.29-.8,1,1,0,0,1,1.45,0,1.16,1.16,0,0,1,.28.81v3.63a2.78,2.78,0,0,1-.86,2.15,4.2,4.2,0,0,1-4.91,0,2.76,2.76,0,0,1-.86-2.14Z" transform="translate(0)"/><path class="cls-3" d="M110,64.67a1.13,1.13,0,0,1,.29-.8.94.94,0,0,1,.72-.31,1,1,0,0,1,.67.22,1.17,1.17,0,0,1,.34.62,1.73,1.73,0,0,1,.76-.67,2.7,2.7,0,0,1,1-.26h.14a2.7,2.7,0,0,1,2.38,1.19,4.87,4.87,0,0,1,.87,2.62v.2a4.21,4.21,0,0,1-.9,2.61,2.89,2.89,0,0,1-2.42,1.18h-.25l-.27,0a3.19,3.19,0,0,1-.69-.22,2.62,2.62,0,0,1-.64-.41V73a1.16,1.16,0,0,1-.28.81,1,1,0,0,1-1.45,0A1.15,1.15,0,0,1,110,73Zm2,2.64c0,.07,0,.13,0,.18s0,.11,0,.17a2.59,2.59,0,0,0,.45,1.21,1.27,1.27,0,0,0,1.12.55,1.25,1.25,0,0,0,1.07-.53,2.47,2.47,0,0,0,.47-1.16c0-.06,0-.11,0-.17s0-.12,0-.17,0-.11,0-.17,0-.12,0-.17a2.54,2.54,0,0,0-.47-1.18,1.25,1.25,0,0,0-1.07-.53,1.3,1.3,0,0,0-1.17.59,2.55,2.55,0,0,0-.41,1.31v.08Z" transform="translate(0)"/><path class="cls-3" d="M118,64.67a1.13,1.13,0,0,1,.29-.8.94.94,0,0,1,.72-.31,1,1,0,0,1,.67.22,1.18,1.18,0,0,1,.34.62,1.72,1.72,0,0,1,.76-.67,2.7,2.7,0,0,1,1-.26h.14a2.7,2.7,0,0,1,2.38,1.19,4.88,4.88,0,0,1,.87,2.62v.2a4.21,4.21,0,0,1-.9,2.61,2.88,2.88,0,0,1-2.42,1.18h-.25l-.27,0a3.2,3.2,0,0,1-.69-.22,2.63,2.63,0,0,1-.64-.41V73a1.16,1.16,0,0,1-.28.81,1,1,0,0,1-1.45,0A1.15,1.15,0,0,1,118,73Zm2,2.64c0,.07,0,.13,0,.18s0,.11,0,.17a2.6,2.6,0,0,0,.45,1.21,1.27,1.27,0,0,0,1.12.55,1.25,1.25,0,0,0,1.07-.53,2.49,2.49,0,0,0,.47-1.16c0-.06,0-.11,0-.17s0-.12,0-.17,0-.11,0-.17,0-.12,0-.17a2.56,2.56,0,0,0-.47-1.18,1.25,1.25,0,0,0-1.07-.53,1.3,1.3,0,0,0-1.17.59,2.55,2.55,0,0,0-.41,1.31v.08Z" transform="translate(0)"/><path class="cls-3" d="M129.34,63.48a3.3,3.3,0,0,1,2.6,1.2,4.08,4.08,0,0,1,1,2.72,4,4,0,0,1-1,2.72,3.56,3.56,0,0,1-5.24,0,4,4,0,0,1-1-2.72,4.08,4.08,0,0,1,1-2.72,3.26,3.26,0,0,1,2.6-1.18Zm-1.13,2.41a2.52,2.52,0,0,0-.46,1.2c0,.06,0,.11,0,.16s0,.1,0,.15v.12a.72.72,0,0,0,0,.13,2.49,2.49,0,0,0,.44,1.22,1.44,1.44,0,0,0,2.28,0,2.51,2.51,0,0,0,.44-1.22.66.66,0,0,0,0-.13v-.12s0-.1,0-.15,0-.11,0-.16a2.54,2.54,0,0,0-.46-1.21,1.29,1.29,0,0,0-1.13-.55A1.33,1.33,0,0,0,128.21,65.89Z" transform="translate(0)"/><path class="cls-3" d="M133.78,70.06v-5.5a.88.88,0,0,1,.3-.72,1.15,1.15,0,0,1,.67-.28h.07a1.31,1.31,0,0,1,.69.17.72.72,0,0,1,.29.67h0a2.18,2.18,0,0,1,.61-.62,1.47,1.47,0,0,1,.8-.21,1,1,0,0,1,.67.27,1,1,0,0,1,.31.81.61.61,0,0,1-.21.51,2,2,0,0,1-.5.27l-.24.09-.25.1h0a5.38,5.38,0,0,0-.8.48,1,1,0,0,0-.37.86v3.09a1.16,1.16,0,0,1-.28.82,1,1,0,0,1-1.45,0,1.12,1.12,0,0,1-.29-.81Z" transform="translate(0)"/><path class="cls-3" d="M139,70.06V65.41h-.45a.8.8,0,0,1-.64-.22.88.88,0,0,1-.23-.64.87.87,0,0,1,.25-.63.83.83,0,0,1,.62-.25H139v-1.2a1.12,1.12,0,0,1,.29-.8,1,1,0,0,1,1.45,0,1.15,1.15,0,0,1,.28.81v1.19h.57a1.27,1.27,0,0,1,.68.21.94.94,0,0,1,0,1.35,1.15,1.15,0,0,1-.68.2H141v4.65a1.15,1.15,0,0,1-.28.82,1,1,0,0,1-1.45,0,1.12,1.12,0,0,1-.29-.81Z" transform="translate(0)"/><path class="cls-3" d="M143.79,66a1.7,1.7,0,0,1-.59-1.33,1.47,1.47,0,0,1,.25-.85,1.73,1.73,0,0,1,.63-.56,1.68,1.68,0,0,1-.45-.5,1.3,1.3,0,0,1-.17-.67A1.4,1.4,0,0,1,144,61a1.9,1.9,0,0,1,1.24-.42,1.94,1.94,0,0,1,1.24.42A1.39,1.39,0,0,1,147,62.1a1.44,1.44,0,0,1-.16.66,1.27,1.27,0,0,1-.46.51,1.53,1.53,0,0,1,.64.57,1.56,1.56,0,0,1,.23.84,1.68,1.68,0,0,1-.6,1.35,2.13,2.13,0,0,1-1.42.5A2.08,2.08,0,0,1,143.79,66Zm.88-2a.88.88,0,0,0-.2.58.94.94,0,0,0,.18.56.64.64,0,0,0,.56.25.65.65,0,0,0,.55-.25.91.91,0,0,0,.2-.57.85.85,0,0,0-.2-.6.7.7,0,0,0-.54-.22A.69.69,0,0,0,144.67,64Zm.11-2.23a.66.66,0,0,0-.15.44.65.65,0,0,0,.15.45.55.55,0,0,0,.43.17.57.57,0,0,0,.44-.17.64.64,0,0,0,.16-.45.66.66,0,0,0-.16-.45.55.55,0,0,0-.44-.18A.56.56,0,0,0,144.78,61.79Z" transform="translate(0)"/><path class="cls-3" d="M149.19,66l-.69,1.22a.44.44,0,0,1-.11.14l-.14.09-.11,0H148a.53.53,0,0,1-.38-.16.51.51,0,0,1-.16-.38.48.48,0,0,1,0-.16l.06-.16.68-1.22a.41.41,0,0,1,.11-.13l.14-.09.12,0h.1a.56.56,0,0,1,.39.16.5.5,0,0,1,.17.38.39.39,0,0,1,0,.15l-.06.14v0Z" transform="translate(0)"/><path class="cls-3" d="M151,65.84v-4.1h-.48a.47.47,0,0,1-.42-.16.63.63,0,0,1-.14-.37h0a.59.59,0,0,1,.15-.39.5.5,0,0,1,.41-.18h1.16a.53.53,0,0,1,.4.18.61.61,0,0,1,.14.41v4.64a.63.63,0,0,1-1,.47.6.6,0,0,1-.18-.47Z" transform="translate(0)"/><path class="cls-3" d="M156.45,65.35a.83.83,0,0,1,.45.13.55.55,0,0,1,0,.82.68.68,0,0,1-.41.13h-2.73a.78.78,0,0,1-.45-.13.46.46,0,0,1-.18-.4.44.44,0,0,1,0-.2l.09-.16,0,0,0,0,.32-.37.33-.36,0,0,0,0,.69-.8q.34-.4.65-.85a2.15,2.15,0,0,0,.2-.35,1,1,0,0,0,.09-.41.64.64,0,0,0-.17-.44.54.54,0,0,0-.42-.19.53.53,0,0,0-.49.21,1.75,1.75,0,0,0-.21.45v0a.08.08,0,0,0,0,0,2,2,0,0,1-.18.42.4.4,0,0,1-.38.18.55.55,0,0,1-.45-.18.62.62,0,0,1-.15-.42,1.72,1.72,0,0,1,.58-1.31,1.91,1.91,0,0,1,1.34-.54,1.89,1.89,0,0,1,1.28.46,1.56,1.56,0,0,1,.53,1.24,2.08,2.08,0,0,1-.37,1.16,10.59,10.59,0,0,1-.83,1.09l-.4.46-.36.42Z" transform="translate(0)"/><circle class="cls-4" cx="39.97" cy="52.69" r="38.77"/><g class="cls-5"><circle class="cls-6" cx="39.97" cy="52.69" r="38.77"/></g><g class="cls-7"><path class="cls-8" d="M73.77,41.55s-4.92,2.05-8.6.86C60.45,40.88,54.38,39.1,49.3,39c-6-2.11-14.31-1.85-16-1.77a3.49,3.49,0,0,0-2.9-1.42,11.65,11.65,0,0,0-5,.86c-3.74,1.45-6.09,4.1-5.35,6a2.15,2.15,0,0,0,.17.34.44.44,0,0,0,0,.28l.22.44c-.21.29-3,4.12-3.46,6.76s-.35,4.71,2,6.35c1.22.85,2.73,1.81,3.85,2.52a3.13,3.13,0,0,0-.21,3.13,4.58,4.58,0,0,0,2.73,1.84,3.79,3.79,0,0,0,2.78,2.82c.22.07.44.13.66.19a7.62,7.62,0,0,0,2.8,2.46,3.87,3.87,0,0,0,1.85,2.09l2,4.27h0c.45,1.11,1.85,1.7,3.67,1.7A12.23,12.23,0,0,0,43.53,77a11.65,11.65,0,0,0,4.25-2.72c1.08-1.16,1.47-2.33,1.1-3.31l0,0-.07-.15A26.32,26.32,0,0,0,52,71a21.61,21.61,0,0,0,6-.8l1.88-.55c3.12-.9,5-1.44,6.16-2.6,1.72,1.46,5.28,2.11,5.44,2.14Z" transform="translate(0)"/><path class="cls-9" d="M27.61,56.62l-1-2.47L25.4,52.65,20.3,42.24l.38-1.76S23.51,38,23.64,38s3.59-1.57,3.59-1.57l4.52-.16,1.47,1.38,5.35,11.15,2.34,4.77s-3.3,2.31-3.49,2.37-2.31,1-2.31,1l-4-.32Z" transform="translate(0)"/><polygon class="cls-9" points="35.17 64.95 45.87 65.95 47.22 68.73 48.34 70.95 48.47 72.58 46.39 74.98 42.67 76.84 39.5 77.39 36.49 76.91 34.44 73.22 34.02 71.43 35.72 72.19 37.38 71.65 37.06 69.63 35.52 68.83 35.68 67.55 34.88 66.24 34.91 65.08 35.17 64.95"/><line class="cls-10" x1="33.88" y1="71.52" x2="35.93" y2="75.94"/><ellipse class="cls-10" cx="26.78" cy="40.04" rx="6.73" ry="3.25" transform="translate(-12.66 12.38) rotate(-21.18)"/><path class="cls-11" d="M73.77,41.88S68.92,44,65,42.76s-10.48-3.3-15.81-3.4C42.72,37,33.05,37.6,33.05,37.6" transform="translate(0)"/><path class="cls-11" d="M20.89,43.92s-2.91,4-3.4,6.6-.39,4.37,1.84,5.92,5.43,3.49,5.43,3.49,1.36-1.46.68-2.43a8.08,8.08,0,0,0-2.28-1.84" transform="translate(0)"/><path class="cls-11" d="M24.77,59.93s2.52,0,2.91-1.55-.58-5.14-5.24-7.76" transform="translate(0)"/><line class="cls-11" x1="37" y1="45.77" x2="36.92" y2="41.47"/><path class="cls-11" d="M34.89,65s.73,1.82-2.11,2.11S26.23,66.8,25.86,64" transform="translate(0)"/><path class="cls-11" d="M29.14,66.87s2,3.2,4.58,2.77,2.18-2.4,1.24-3.28" transform="translate(0)"/><path class="cls-11" d="M32.12,69.63s.65,2.26,4,2.47L37.36,72s.58-2.77-1.75-3" transform="translate(0)"/><path class="cls-11" d="M48.2,70.21a24.16,24.16,0,0,0,9.68-.51c4.66-1.38,6.84-1.82,8.15-3.35,1.46,1.6,5.53,2.33,5.53,2.33" transform="translate(0)"/><path class="cls-11" d="M27.39,64.18a3.57,3.57,0,0,0-.58-4.29" transform="translate(0)"/><line class="cls-10" x1="33.02" y1="37.52" x2="40.59" y2="53.33"/><path class="cls-10" d="M45.95,65.85l2.53,5.23c.65,1.67-1.63,4.12-5.1,5.46s-6.8,1.07-7.45-.6" transform="translate(0)"/><path class="cls-11" d="M23.46,59.3S22.3,61,23.1,62.21s2.33,1.82,4.29,2,17.54,1.6,17.54,1.6S52,67,57.59,65.41s7.57-2,10.62-4.51" transform="translate(0)"/><path class="cls-11" d="M27.9,56.83a25.92,25.92,0,0,1,7.35.07c2.69-1.53,5.89-2.69,6.69-5.09a7.3,7.3,0,0,0-.07-4.58" transform="translate(0)"/><line class="cls-10" x1="20.7" y1="43.05" x2="24.98" y2="51.53"/></g></g></g></svg>