<svg xmlns="http://www.w3.org/2000/svg" xmlns:xlink="http://www.w3.org/1999/xlink" viewBox="0 0 505.59 158.09"><defs><style>.cls-1{fill:#e59a36;}.cls-2,.cls-4{fill:#d8e3d6;}.cls-2{fill-rule:evenodd;}.cls-3{fill:#9e9f90;}.cls-5{fill:#f8cdb2;}.cls-6{fill:#fff;}.cls-7{fill:#7bc8be;}.cls-8{fill:#28a1c9;}.cls-9{fill:#fbc4b4;}.cls-10{fill:#f9b2a6;}.cls-11{clip-path:url(#clip-path);}.cls-12{fill:#c28530;}.cls-13{fill:#dd8760;}.cls-14{fill:#8e6327;}</style><clipPath id="clip-path" transform="translate(0 1.84)"><path class="cls-1" d="M439.29,0s4,18.26-13.75,34.68S397,46.87,393.23,36.39c-2.59-7.14,2.87-18.58,13.88-21.34C421.61,11.4,435.49,5.35,439.29,0Z"/></clipPath></defs><g id="Layer_2" data-name="Layer 2"><g id="Layer_1-2" data-name="Layer 1"><path class="cls-2" d="M328.79,103.16l4.75.07h3.78l17.56.14,31.22.14,3.16-.07,6.42-.31,6-.56c5.24-.82,10.33-1.49,14.32-3.35a13.11,13.11,0,0,0,4-2.37c3.17-3.35,3.2-9.72,4.27-14.89.55-2.64.43-5.52.95-8.26a13.85,13.85,0,0,0,0-4.36c-.3-1.62,0-3.25-.29-4.74l-.33-3a34.2,34.2,0,0,0-1.85-7c-1.14-2.5-2.44-3.52-4.19-5.37a21.37,21.37,0,0,0-10.24-6.21C402.47,41.52,393.89,42,386.26,42l-7.61,0-8.51-.1L353,41.72l-12.22.11-5.74.09c-10.29-.05-21,0-31.21,0l-21.68,0-24.25-.1L209,41.72l-34.8.11-17.46.1-28.47.28-10.08.1-27.65.56-16.75.42c-14.55.74-29.09,1-41.83,2.13-6.89.61-15.18,1.22-18.63,2.86C5.69,51.91,4.55,57,1.64,62.09l-1,4.28C.39,67.82.2,69.26,0,70.7v2.86c.31,2.08.63,4.16.94,6.24q.87,2.39,1.76,4.78l3.51,5c2.38,3.23,2.65,6.61,9.26,8.54l5.39,1.12A121.61,121.61,0,0,0,32.92,101c10.47,1,22.57.93,34.45,1.5l16.87.31,17.46.14,51.91.28h10.78l50,.14,88.93.14,9-.07,16.42-.28" transform="translate(0 1.84)"/><path class="cls-3" d="M31.88,82.19V58.41a3.1,3.1,0,0,1,.9-2.39,3.14,3.14,0,0,1,5.37,2.43V82.19a3.21,3.21,0,0,1-5.37,2.42,3.08,3.08,0,0,1-.9-2.38Z" transform="translate(0 1.84)"/><path class="cls-3" d="M41.75,82.1V66a3.36,3.36,0,0,1,.85-2.39,2.83,2.83,0,0,1,2.16-.92,2.87,2.87,0,0,1,1.88.58,2.57,2.57,0,0,1,.88,1.63,5.62,5.62,0,0,1,2.27-1.84,8.88,8.88,0,0,1,3.54-.62,8.41,8.41,0,0,1,5.89,2.13,7.71,7.71,0,0,1,2.34,6V82.1a3.45,3.45,0,0,1-.83,2.45,3.05,3.05,0,0,1-4.33,0,3.34,3.34,0,0,1-.86-2.4V71.61a3.89,3.89,0,0,0-1.15-3.07,4,4,0,0,0-2.78-1,3.5,3.5,0,0,0-2.84,1.19,4.39,4.39,0,0,0-1,2.94V82.11a3.43,3.43,0,0,1-.84,2.44,3.05,3.05,0,0,1-4.33,0,3.35,3.35,0,0,1-.85-2.41Z" transform="translate(0 1.84)"/><path class="cls-3" d="M85.56,56.35V82.11a3.47,3.47,0,0,1-.83,2.44,3.2,3.2,0,0,1-4.16.25,3.46,3.46,0,0,1-1-1.82,4.59,4.59,0,0,1-1.84,1.76,8.72,8.72,0,0,1-2.46.88,6,6,0,0,1-.61.06c-.21,0-.41,0-.61,0a8.62,8.62,0,0,1-7.23-3.51,12.54,12.54,0,0,1-2.67-7.78v-.58A14.51,14.51,0,0,1,66.71,66a8.06,8.06,0,0,1,7.1-3.53,9.18,9.18,0,0,1,3.08.52,7.82,7.82,0,0,1,2.65,1.57V56.35A3.36,3.36,0,0,1,80.4,54a3,3,0,0,1,4.33,0,3.48,3.48,0,0,1,.83,2.42Zm-6,17.56V73.7a7.64,7.64,0,0,0-1.23-3.91A3.88,3.88,0,0,0,74.82,68a3.73,3.73,0,0,0-3.2,1.59,7.57,7.57,0,0,0-1.4,3.51,4.35,4.35,0,0,0-.06.52,4.7,4.7,0,0,0,0,.52,4.88,4.88,0,0,0,0,.53,4.35,4.35,0,0,0,.06.52,7.44,7.44,0,0,0,1.4,3.45,4.12,4.12,0,0,0,6.54-.09A7.68,7.68,0,0,0,79.5,75c0-.17,0-.34,0-.5s0-.34,0-.51Z" transform="translate(0 1.84)"/><path class="cls-3" d="M93.84,76.09a4.52,4.52,0,0,0,2,3.32,6.62,6.62,0,0,0,3.72,1.07,6,6,0,0,0,2.15-.38,14.54,14.54,0,0,0,1.82-.84l1.55-.83a2.8,2.8,0,0,1,1.29-.38,2.29,2.29,0,0,1,1.72.82,2.56,2.56,0,0,1,.75,1.77c0,1.12-.82,2.15-2.47,3.1a14.93,14.93,0,0,1-5.43,1.84l-1,.08c-.32,0-.63,0-.94,0a10.74,10.74,0,0,1-8.17-3.28,11.51,11.51,0,0,1-3.12-8.26,12.22,12.22,0,0,1,3-8.13,9.77,9.77,0,0,1,7.78-3.53,9.66,9.66,0,0,1,7,2.77,12.31,12.31,0,0,1,3.57,6.11c.06.33.1.67.15,1a9,9,0,0,1,.06,1,2.81,2.81,0,0,1-.63,2,2.65,2.65,0,0,1-2,.67Zm9.45-4a5.72,5.72,0,0,0-1.48-3.24,4.81,4.81,0,0,0-6.61,0,5.4,5.4,0,0,0-1.49,3.23Z" transform="translate(0 1.84)"/><path class="cls-3" d="M111.44,66a3.37,3.37,0,0,1,.86-2.39,2.83,2.83,0,0,1,2.15-.92,2.86,2.86,0,0,1,2,.65,3.43,3.43,0,0,1,1,1.86,5.11,5.11,0,0,1,2.26-2,8,8,0,0,1,3-.77h.42A8.08,8.08,0,0,1,130.3,66a14.6,14.6,0,0,1,2.59,7.81v.58a12.52,12.52,0,0,1-2.68,7.79A8.59,8.59,0,0,1,123,85.7a6.28,6.28,0,0,1-.75,0l-.8-.12a10.1,10.1,0,0,1-2.06-.67,7.74,7.74,0,0,1-1.91-1.22V91a3.53,3.53,0,0,1-.83,2.43,3,3,0,0,1-4.33,0,3.45,3.45,0,0,1-.86-2.43Zm6,7.89c0,.2,0,.38,0,.55a4.1,4.1,0,0,1,0,.5,7.78,7.78,0,0,0,1.34,3.61,4.13,4.13,0,0,0,6.55.09,7.55,7.55,0,0,0,1.4-3.45l.06-.52c0-.19,0-.36,0-.53s0-.34,0-.52l-.06-.52a7.68,7.68,0,0,0-1.4-3.51,3.74,3.74,0,0,0-3.2-1.59,3.87,3.87,0,0,0-3.49,1.77,7.65,7.65,0,0,0-1.24,3.91v.21Z" transform="translate(0 1.84)"/><path class="cls-3" d="M140.29,76.09a4.54,4.54,0,0,0,2,3.32A6.68,6.68,0,0,0,146,80.48a6,6,0,0,0,2.15-.38,14.54,14.54,0,0,0,1.82-.84l1.54-.83a2.87,2.87,0,0,1,1.3-.38,2.25,2.25,0,0,1,1.71.82,2.53,2.53,0,0,1,.76,1.77c0,1.12-.83,2.15-2.47,3.1a14.93,14.93,0,0,1-5.43,1.84l-1,.08c-.32,0-.63,0-.94,0a10.73,10.73,0,0,1-8.17-3.28,11.51,11.51,0,0,1-3.12-8.26,12.22,12.22,0,0,1,3-8.13A10.35,10.35,0,0,1,152,65.27a12.31,12.31,0,0,1,3.57,6.11c.06.33.1.67.15,1a9,9,0,0,1,.06,1,2.81,2.81,0,0,1-.63,2,2.67,2.67,0,0,1-2,.67Zm9.45-4a5.67,5.67,0,0,0-1.49-3.24,4.8,4.8,0,0,0-6.6,0,5.4,5.4,0,0,0-1.49,3.23Z" transform="translate(0 1.84)"/><path class="cls-3" d="M157.89,82.1V66a3.37,3.37,0,0,1,.86-2.39,3.13,3.13,0,0,1,4-.34,2.53,2.53,0,0,1,.88,1.63,5.65,5.65,0,0,1,2.28-1.84,8.79,8.79,0,0,1,3.53-.62,8.44,8.44,0,0,1,5.9,2.13,7.71,7.71,0,0,1,2.34,6V82.1a3.45,3.45,0,0,1-.84,2.45,2.83,2.83,0,0,1-2.17.9,2.87,2.87,0,0,1-2.16-.9,3.34,3.34,0,0,1-.85-2.4V71.61a3.92,3.92,0,0,0-1.15-3.07,4.06,4.06,0,0,0-2.78-1,3.5,3.5,0,0,0-2.85,1.19,4.44,4.44,0,0,0-1,2.94V82.11a3.43,3.43,0,0,1-.84,2.44,2.81,2.81,0,0,1-2.17.9,2.85,2.85,0,0,1-2.15-.9,3.35,3.35,0,0,1-.86-2.41Z" transform="translate(0 1.84)"/><path class="cls-3" d="M201.71,56.35V82.11a3.43,3.43,0,0,1-.84,2.44,2.83,2.83,0,0,1-2.17.9,2.86,2.86,0,0,1-2-.65,3.39,3.39,0,0,1-1-1.82,4.65,4.65,0,0,1-1.84,1.76,8.78,8.78,0,0,1-2.47.88,6,6,0,0,1-.61.06c-.21,0-.41,0-.6,0a8.64,8.64,0,0,1-7.24-3.51,12.54,12.54,0,0,1-2.67-7.78v-.58a14.51,14.51,0,0,1,2.59-7.8A8.09,8.09,0,0,1,190,62.5,9.13,9.13,0,0,1,193,63a7.87,7.87,0,0,1,2.66,1.57V56.35a3.35,3.35,0,0,1,.85-2.38,3,3,0,0,1,4.33,0,3.44,3.44,0,0,1,.84,2.42Zm-6,17.56V73.7a7.65,7.65,0,0,0-1.24-3.91A3.87,3.87,0,0,0,191,68a3.74,3.74,0,0,0-3.2,1.59,7.68,7.68,0,0,0-1.4,3.51,4.35,4.35,0,0,0-.06.52c0,.18,0,.36,0,.52s0,.34,0,.53a4.35,4.35,0,0,0,.06.52,7.55,7.55,0,0,0,1.4,3.45,4.13,4.13,0,0,0,6.55-.09A7.77,7.77,0,0,0,195.64,75c0-.17,0-.34,0-.5a4.36,4.36,0,0,0,0-.51Z" transform="translate(0 1.84)"/><path class="cls-3" d="M210,76.09a4.55,4.55,0,0,0,2,3.32,6.67,6.67,0,0,0,3.72,1.07,6,6,0,0,0,2.15-.38,13.91,13.91,0,0,0,1.82-.84l1.55-.83a2.8,2.8,0,0,1,1.3-.38,2.25,2.25,0,0,1,1.71.82,2.56,2.56,0,0,1,.75,1.77c0,1.12-.82,2.15-2.46,3.1a15,15,0,0,1-5.44,1.84l-1,.08c-.32,0-.64,0-.94,0A10.75,10.75,0,0,1,207,82.42a11.55,11.55,0,0,1-3.11-8.26,12.17,12.17,0,0,1,3-8.13,9.76,9.76,0,0,1,7.77-3.53,9.64,9.64,0,0,1,7,2.77,12.31,12.31,0,0,1,3.57,6.11q.09.5.15,1a9,9,0,0,1,.06,1,2.85,2.85,0,0,1-.62,2,2.67,2.67,0,0,1-2,.67Zm9.45-4A5.66,5.66,0,0,0,218,68.83a4.32,4.32,0,0,0-3.33-1.31,4.37,4.37,0,0,0-3.28,1.32,5.39,5.39,0,0,0-1.48,3.23Z" transform="translate(0 1.84)"/><path class="cls-3" d="M227.59,82.1V66a3.36,3.36,0,0,1,.85-2.39,2.83,2.83,0,0,1,2.16-.92,2.87,2.87,0,0,1,1.88.58,2.62,2.62,0,0,1,.88,1.63,5.62,5.62,0,0,1,2.27-1.84,8.84,8.84,0,0,1,3.54-.62,8.43,8.43,0,0,1,5.89,2.13,7.71,7.71,0,0,1,2.34,6V82.1a3.49,3.49,0,0,1-.83,2.45,3.05,3.05,0,0,1-4.33,0,3.34,3.34,0,0,1-.86-2.4V71.61a3.89,3.89,0,0,0-1.15-3.07,4,4,0,0,0-2.78-1,3.5,3.5,0,0,0-2.84,1.19,4.39,4.39,0,0,0-1,2.94V82.11a3.43,3.43,0,0,1-.84,2.44,3.05,3.05,0,0,1-4.33,0,3.35,3.35,0,0,1-.85-2.41Z" transform="translate(0 1.84)"/><path class="cls-3" d="M252.29,82.11V68.23H251a2.46,2.46,0,0,1-1.91-.67,2.67,2.67,0,0,1-.69-1.93,2.59,2.59,0,0,1,.74-1.88A2.46,2.46,0,0,1,251,63l1.33,0v-3.6a3.36,3.36,0,0,1,.86-2.38,3,3,0,0,1,4.33,0,3.44,3.44,0,0,1,.84,2.42V63H260a3.77,3.77,0,0,1,2,.62,2.28,2.28,0,0,1,.85,2,2.31,2.31,0,0,1-.85,2,3.45,3.45,0,0,1-2,.6h-1.71V82.11a3.43,3.43,0,0,1-.84,2.44,3.05,3.05,0,0,1-4.33,0,3.34,3.34,0,0,1-.86-2.4Z" transform="translate(0 1.84)"/><path class="cls-3" d="M289.54,66.8a2.87,2.87,0,0,1-.68,1.91,2.24,2.24,0,0,1-1.78.81,2.79,2.79,0,0,1-1.05-.27c-.41-.18-.86-.38-1.33-.61l-.84-.35A5.7,5.7,0,0,0,283,68c-.22-.06-.44-.11-.67-.15a3.68,3.68,0,0,0-.66-.06,2.67,2.67,0,0,0-1.43.39,1.42,1.42,0,0,0-.62,1.28,1.31,1.31,0,0,0,.67,1.09,8.87,8.87,0,0,0,1.67.87l1.4.53c.49.18,1,.38,1.48.6a14.43,14.43,0,0,1,3.6,2.2,4.86,4.86,0,0,1,1.63,4,6.34,6.34,0,0,1-2.34,5,9.29,9.29,0,0,1-6.23,2,12.28,12.28,0,0,1-1.32-.08,12.51,12.51,0,0,1-1.36-.25,12,12,0,0,1-3.95-1.59,3.22,3.22,0,0,1-1.78-2.68,2.7,2.7,0,0,1,.07-.5,1.42,1.42,0,0,1,.23-.54,3.21,3.21,0,0,1,.87-1.13,2.1,2.1,0,0,1,1.43-.5,3.47,3.47,0,0,1,1.33.23,7,7,0,0,1,1.13.56.82.82,0,0,1,.23.11l.23.1a9.15,9.15,0,0,0,1.47.73,5,5,0,0,0,1.84.32,3,3,0,0,0,1.88-.44,1.63,1.63,0,0,0,.5-1.28,1.26,1.26,0,0,0-.65-1.06,8.93,8.93,0,0,0-1.65-.86l-1.4-.54-1.53-.59a14,14,0,0,1-3.59-2.22,4.9,4.9,0,0,1-1.63-4,6.32,6.32,0,0,1,2.3-5.08A8.77,8.77,0,0,1,282,62.5c.39,0,.79,0,1.21.06a9.13,9.13,0,0,1,1.3.23,9.84,9.84,0,0,1,3.45,1.4,3.08,3.08,0,0,1,1.56,2.66Z" transform="translate(0 1.84)"/><path class="cls-3" d="M295.15,53.68a3.45,3.45,0,0,1,2.36,1,3.13,3.13,0,0,1,1,2.32,3.4,3.4,0,0,1-1,2.45,3.2,3.2,0,0,1-2.4,1,3.25,3.25,0,0,1-2.37-1,3.38,3.38,0,0,1-1-2.43,3.15,3.15,0,0,1,1-2.3,3.29,3.29,0,0,1,2.37-1Zm-3,28.42V66a3.36,3.36,0,0,1,.85-2.39,2.85,2.85,0,0,1,2.16-.92,2.81,2.81,0,0,1,2.17.92,3.45,3.45,0,0,1,.84,2.43v16a3.45,3.45,0,0,1-.84,2.45,2.83,2.83,0,0,1-2.17.9,2.87,2.87,0,0,1-2.16-.9,3.35,3.35,0,0,1-.85-2.41Z" transform="translate(0 1.84)"/><path class="cls-3" d="M303,82.11V68.23h-1.34a2.44,2.44,0,0,1-1.9-.67,2.67,2.67,0,0,1-.7-1.93,2.59,2.59,0,0,1,.74-1.88,2.46,2.46,0,0,1,1.86-.75L303,63v-3.6a3.35,3.35,0,0,1,.85-2.38,3,3,0,0,1,4.33,0A3.44,3.44,0,0,1,309,59.4V63h1.71a3.77,3.77,0,0,1,2,.62,2.28,2.28,0,0,1,.85,2,2.31,2.31,0,0,1-.85,2,3.45,3.45,0,0,1-2,.6H309V82.11a3.43,3.43,0,0,1-.84,2.44,3.05,3.05,0,0,1-4.33,0,3.34,3.34,0,0,1-.85-2.4Z" transform="translate(0 1.84)"/><path class="cls-3" d="M315.34,82.11V68.23H314a2.44,2.44,0,0,1-1.9-.67,2.67,2.67,0,0,1-.69-1.93,2.62,2.62,0,0,1,.73-1.88A2.49,2.49,0,0,1,314,63l1.34,0v-3.6A3.36,3.36,0,0,1,316.2,57a2.83,2.83,0,0,1,2.15-.92,2.8,2.8,0,0,1,2.17.92,3.44,3.44,0,0,1,.84,2.42V63h1.71a3.75,3.75,0,0,1,2,.62,2.29,2.29,0,0,1,.86,2,2.32,2.32,0,0,1-.86,2,3.43,3.43,0,0,1-2,.6h-1.71V82.11a3.43,3.43,0,0,1-.84,2.44,2.81,2.81,0,0,1-2.17.9,2.85,2.85,0,0,1-2.15-.9,3.34,3.34,0,0,1-.86-2.4Z" transform="translate(0 1.84)"/><path class="cls-3" d="M331.1,76.09a4.52,4.52,0,0,0,2,3.32,6.62,6.62,0,0,0,3.72,1.07,6,6,0,0,0,2.15-.38,13.91,13.91,0,0,0,1.82-.84l1.55-.83a2.8,2.8,0,0,1,1.29-.38,2.27,2.27,0,0,1,1.72.82,2.56,2.56,0,0,1,.75,1.77c0,1.12-.82,2.15-2.47,3.1a14.87,14.87,0,0,1-5.43,1.84l-1,.08c-.33,0-.64,0-.95,0a10.74,10.74,0,0,1-8.17-3.28A11.51,11.51,0,0,1,325,74.16,12.17,12.17,0,0,1,328,66a9.75,9.75,0,0,1,7.77-3.53,9.64,9.64,0,0,1,7.05,2.77,12.31,12.31,0,0,1,3.57,6.11q.09.5.15,1a9,9,0,0,1,.06,1,2.81,2.81,0,0,1-.63,2,2.63,2.63,0,0,1-2,.67Zm9.45-4a5.72,5.72,0,0,0-1.48-3.24,4.81,4.81,0,0,0-6.61,0A5.39,5.39,0,0,0,331,72.07Z" transform="translate(0 1.84)"/><path class="cls-3" d="M348.62,82.1V65.68a2.65,2.65,0,0,1,.9-2.14,3.41,3.41,0,0,1,2-.83h.21a3.88,3.88,0,0,1,2.07.52,2.15,2.15,0,0,1,.86,2l.08,0a6.78,6.78,0,0,1,1.82-1.84,4.47,4.47,0,0,1,2.41-.62,3,3,0,0,1,2,.79,3,3,0,0,1,.92,2.43,1.82,1.82,0,0,1-.62,1.53,5.84,5.84,0,0,1-1.51.82l-.71.27-.75.31a.09.09,0,0,0-.07,0,.08.08,0,0,1-.06,0,16.67,16.67,0,0,0-2.4,1.42,2.93,2.93,0,0,0-1.11,2.56V82.1a3.45,3.45,0,0,1-.84,2.45,2.81,2.81,0,0,1-2.17.9,2.85,2.85,0,0,1-2.15-.9,3.35,3.35,0,0,1-.86-2.41Z" transform="translate(0 1.84)"/><circle class="cls-4" cx="429.29" cy="77.62" r="54.8"/><path class="cls-5" d="M463.58,145.4a17.85,17.85,0,0,0,14.32-5.51,12,12,0,0,0,2.07,5.58s-2.07,3.57.82,5.88,17.49.86,19,0c0,0,2.11.77,3.05-.07,1.17-1.06,1.22-2.16-.3-3.26a2.45,2.45,0,0,0,2.68-1.31c.69-1.69-1.72-2.27-1.72-2.27a1.85,1.85,0,0,0,2.08-2.07c0-2.08-2.29-2-2.29-2s3.58-1.63,1.78-3.71-4.28.66-4.28.66-1.45-.69-3.95.42c0,0,1-10.76-3.46-14.62s-15.12-4.83-25.22.39S456.47,146.29,463.58,145.4Z" transform="translate(0 1.84)"/><path class="cls-5" d="M466.16,99.88s9.68-4.84,13-9.93a37.62,37.62,0,0,0,4.59-11.22s5.09-.12,6.88-7c0,0,2.29,1.53,4.07,0s.39-5.1-1.27-5.35c0,0,1-4.27-3.44-3.79,0,0,1.15-3.37-2.93-2.91,0,0,2-6.43-1.15-6.94s-3.62,4.7-5.06,7.39-5.38,5.53-4.49,12.58c0,0-4.46,6.79-6.5,8.06s-13.78,5.74-13.78,5.74Z" transform="translate(0 1.84)"/><path class="cls-6" d="M469.37,124.65s.92,13.48-7.51,20.37-21.16-4.29-26.2-12.71S469.37,124.65,469.37,124.65Z" transform="translate(0 1.84)"/><path class="cls-7" d="M435.66,90.67s-12.84,2.43-17,17.14c0,0,8.39,3.43,10.61,10.27a21.71,21.71,0,0,1-.51,13.52,48,48,0,0,0,24.13,2.23c13.52-2.23,19.16-7.71,19.16-7.71s-1.19-14.54-7.53-23.1l4.8-2.91S467.48,90,456.19,84.2A29.53,29.53,0,0,1,435.66,90.67Z" transform="translate(0 1.84)"/><path class="cls-8" d="M419.23,107.7a3.91,3.91,0,0,1,1.71-.83c.33-.08.66-.15,1-.2a3,3,0,0,1,.85,0,.29.29,0,1,0,0-.57,15.49,15.49,0,0,0-2,.34,4.3,4.3,0,0,0-1.86,1,.23.23,0,0,0,.33.33Z" transform="translate(0 1.84)"/><path class="cls-9" d="M435.66,92.61s3.23,6.94,11,6.06,5.68-10.19,5.68-10.19Z" transform="translate(0 1.84)"/><path class="cls-5" d="M429.68,126.2s-14.1,6.69-13.53,15.23,13,14.67,23.21,14.81,16.09-2,16.09-2,4,1.21,6.44.92,5.81-1.78,6.23-5.48-2.13-4.27-2.85-5.27S463,140,461.57,140c0,0,.14-3.56-2.7-3.7s-3.85,3-3.42,4.92l-19.79-1.51Z" transform="translate(0 1.84)"/><path class="cls-5" d="M434.51,112.08,433,117.81s4.86,2.37,7.6,13.33a73,73,0,0,0,4.78,5.79c1.3,1.16,5.33,2.12,5.12,3.82S445.4,142,445.4,142s1.62,7.95-.5,8.27-2.47-4.84-2.47-4.84-.18,5.9-2.2,5.9-1.68-6-1.68-6-1.22,5.19-2.67,4.82c-2.36-.59-1.11-6.11-1.11-6.11s-3,5.13-4.4,4c-2-1.59,1.91-7.1,1.91-7.1s-1.49-2.2-1-6.51c0,0-8.38-7-10-14.07S422,106,422,106A18.13,18.13,0,0,1,434.51,112.08Z" transform="translate(0 1.84)"/><path class="cls-10" d="M450.54,140.67a.08.08,0,0,0-.1.06h0a1.29,1.29,0,0,1-.95.73,7.79,7.79,0,0,1-1.31.23c-.9.09-1.82.12-2.76.23h0a.12.12,0,0,0-.1.12q.24,1.82.36,3.63a11.8,11.8,0,0,1-.2,3.53,1.51,1.51,0,0,1-.35.64.71.71,0,0,1-.57.12,1.79,1.79,0,0,1-1-1.08,13.82,13.82,0,0,1-1-3.44h0a.09.09,0,0,0-.06-.07.08.08,0,0,0-.08.07h0a23.38,23.38,0,0,1-.57,3.26,7.39,7.39,0,0,1-.54,1.52c-.23.46-.59.87-1,.87s-.75-.4-.95-.87a6.63,6.63,0,0,1-.41-1.56,24.09,24.09,0,0,1-.29-3.3h0s0,0,0-.05a0,0,0,0,0-.06,0h0c-.35,1-.7,2-1.14,2.89a6.15,6.15,0,0,1-.75,1.28,1.15,1.15,0,0,1-.48.38.45.45,0,0,1-.23,0l-.29-.12a1.85,1.85,0,0,1-.73-1.12,6.62,6.62,0,0,1-.23-1.49,18.89,18.89,0,0,1,.16-3.09h0s0-.05,0-.06a.06.06,0,0,0-.08,0,24.31,24.31,0,0,1-2.16,2.78,4.93,4.93,0,0,1-1.3,1.06c-.5.29-.88,0-1.09-.5a5,5,0,0,1,.55-3.25,24.21,24.21,0,0,1,1.65-3.1h0a.11.11,0,0,0,0-.11v0a8.47,8.47,0,0,1-.76-3.14,13.94,13.94,0,0,1,.23-3.23h0a.5.5,0,0,0-.19-.45c-1.09-.9-2.16-1.9-3.17-2.92a40.37,40.37,0,0,1-2.88-3.24,21,21,0,0,1-4.07-7.55h0a.18.18,0,0,0-.22-.13.17.17,0,0,0-.13.21,21.65,21.65,0,0,0,3.86,7.9,41.69,41.69,0,0,0,2.81,3.41c.94,1,1.91,2,2.95,2.94a15,15,0,0,0,.18,3.15,9,9,0,0,0,1.16,3.13,18.34,18.34,0,0,0-1.81,3,9.66,9.66,0,0,0-.62,1.71,3.35,3.35,0,0,0,0,1.88,1.07,1.07,0,0,0,.25.44,1,1,0,0,0,.41.35.91.91,0,0,0,.56.1,2,2,0,0,0,.49-.15,5.14,5.14,0,0,0,1.4-1.21,17.38,17.38,0,0,0,1.78-2.66,11.15,11.15,0,0,0-.4,2.76,5.2,5.2,0,0,0,.17,1.61,2.33,2.33,0,0,0,.93,1.45c.13.07.28.13.42.19a1,1,0,0,0,.54,0,1.66,1.66,0,0,0,.73-.57,6,6,0,0,0,.78-1.44,15.16,15.16,0,0,0,.66-2.37,14.89,14.89,0,0,0,0,2.67,6.19,6.19,0,0,0,.38,1.68,2.43,2.43,0,0,0,.48.79c.08.13.27.2.4.3a1.51,1.51,0,0,0,.52.11,1.82,1.82,0,0,0,1.43-1.16,7,7,0,0,0,.53-1.64,15,15,0,0,0,.23-1.77,8.72,8.72,0,0,0,.52,2.1,2.39,2.39,0,0,0,1.43,1.46,2.32,2.32,0,0,0,.59,0,1.22,1.22,0,0,0,.55-.29,2,2,0,0,0,.53-.94,10.38,10.38,0,0,0,.1-3.76,25.5,25.5,0,0,0-.63-3.47,7.65,7.65,0,0,0,2.7.13,4.77,4.77,0,0,0,1.41-.38,1.38,1.38,0,0,0,1-1.14A.1.1,0,0,0,450.54,140.67Z" transform="translate(0 1.84)"/><path class="cls-5" d="M462.19,47.77c2.72,2.46,6.95,4.87,8.39,13.07s-5.48,27.94-28,32.93-38-5.28-47.42-21.85-3.53-41.3,18.16-51.27c17.28-7.95,31.43-3.1,39,7.48C458.26,36.44,459.24,45.11,462.19,47.77Z" transform="translate(0 1.84)"/><path class="cls-5" d="M411.43,87.64c2.86-4.09-4.58-19.19-14.9-19.5s-8.95,11.1-3.54,16.72S407.39,93.43,411.43,87.64Z" transform="translate(0 1.84)"/><path class="cls-1" d="M439.29,0s4,18.26-13.75,34.68S397,46.87,393.23,36.39c-2.59-7.14,2.87-18.58,13.88-21.34C421.61,11.4,435.49,5.35,439.29,0Z" transform="translate(0 1.84)"/><g class="cls-11"><path class="cls-12" d="M426.16,26.45a39.73,39.73,0,0,1-13.5,9.91.5.5,0,0,1-.67-.26.51.51,0,0,1,.26-.67C433,26.35,438.74.16,438.79-.11a.51.51,0,0,1,.61-.39.51.51,0,0,1,.39.61C439.75.31,436.49,15.06,426.16,26.45Z" transform="translate(0 1.84)"/><path class="cls-12" d="M433.17,8.64c-14.7,16.2-31.56,19.7-31.75,19.74a.51.51,0,0,1-.2-1c.23,0,23-4.78,38.48-29a.51.51,0,0,1,.71-.15.51.51,0,0,1,.15.7A73,73,0,0,1,433.17,8.64Z" transform="translate(0 1.84)"/></g><path class="cls-13" d="M438.91,58.84a4.17,4.17,0,0,1,4.56,1.84,3.38,3.38,0,0,1-.73,4.19c-.34.3-.84.51-.86,1s.61.78,1.09.63a3.64,3.64,0,0,0,1.89-2,4.66,4.66,0,0,0-.67-4.89,4.81,4.81,0,0,0-5.44-1.42.29.29,0,0,0,.16.56Z" transform="translate(0 1.84)"/><path class="cls-13" d="M450.39,69.75c-.42,2.3-2.45,3.48-4.42,4.35a17.72,17.72,0,0,1-3.41,1.13c-.69.15-1.13.15-1.82.28a14.1,14.1,0,0,1-1.69.26,7.51,7.51,0,0,1-1.83-.11c-.6-.11-1.28-.62-1.88-.28a.51.51,0,0,0-.24.42c.07.73.77.93,1.36,1.16a14.89,14.89,0,0,0,1.86.59,14.73,14.73,0,0,0,2.09.36,8.15,8.15,0,0,0,2.31-.15,10.84,10.84,0,0,0,7.07-4.18,6.66,6.66,0,0,0,1.33-3.74.37.37,0,0,0-.73-.09Z" transform="translate(0 1.84)"/><path class="cls-14" d="M426,63c.29-.29-.1-1.66-1-1.22.15-.35-.67-1.35-1.6-.56a2.85,2.85,0,0,0-1.68.19c-1.65.78-2.21,3.09-1.24,5.16s3.1,3.13,4.76,2.35,2.21-3.09,1.24-5.16A4.42,4.42,0,0,0,426,63Z" transform="translate(0 1.84)"/><path class="cls-14" d="M454.49,50.47c.28-.29-.11-1.66-1-1.22a.92.92,0,0,0-1.61-.56,2.81,2.81,0,0,0-1.67.19c-1.66.78-2.21,3.09-1.24,5.16s3.1,3.13,4.76,2.35,2.21-3.09,1.24-5.16A6.28,6.28,0,0,0,454.49,50.47Z" transform="translate(0 1.84)"/></g></g></svg>