<svg xmlns="http://www.w3.org/2000/svg" viewBox="0 0 133.82 154.46"><defs><style>.cls-1{isolation:isolate;}.cls-2{fill:#f8cdb2;}.cls-3{fill:#f7c4a4;}.cls-4{fill:#a9dde1;}.cls-5{fill:#cfedfc;}.cls-6{fill:#c16768;opacity:0.93;}.cls-6,.cls-8{mix-blend-mode:multiply;}.cls-7{fill:#f16161;opacity:0.21;}.cls-9{fill:#f5a1c0;}.cls-10{fill:#421a1a;}.cls-11{opacity:0.32;}.cls-12{fill:#e59a36;fill-rule:evenodd;}</style></defs><g class="cls-1"><g id="Layer_2" data-name="Layer 2"><g id="Layer_1-2" data-name="Layer 1"><path class="cls-2" d="M119.1,49.25c-12.4,9.56-26.32,20-41.53,16.27a11.55,11.55,0,0,1-5-2.1c-2.38-2.07-2.61-5.93-1.07-8.68,3.38-6,10.14-4.92,16-5.12a39.91,39.91,0,0,0,7.65-.74c6.76-1.52,12.56-6.41,19.47-7a4.44,4.44,0,0,1,.44-3.22c1-1.75,3.22-2.82,3.61-4.81.14-.72,0-1.47.21-2.17s.86-1.38,1.56-1.17a1.33,1.33,0,0,1,.67.57,4.09,4.09,0,0,1,0,3.58,8,8,0,0,0-.85,3.58c1.77-1.83,3.73-3.51,5.57-5.26a5.92,5.92,0,0,1,1.62-1.21,1.24,1.24,0,0,1,1.77,1.67,6.52,6.52,0,0,1-1.59,2.18A36.79,36.79,0,0,0,124,39.39l6-3a3.79,3.79,0,0,1,1.74-.53A1.31,1.31,0,0,1,133,37c-2,2.24-4.78,3.61-7.47,4.92a72.56,72.56,0,0,0,6.77-3.4,1.26,1.26,0,0,1,1-.28.81.81,0,0,1,.47.77,1.71,1.71,0,0,1-.31.89c-1.42,2.26-4.57,3.17-6.72,4.56a9,9,0,0,0,4.52-.51c.56-.22,1.24-.48,1.72-.12,1.47,1.1-.69,2.59-1.61,2.89a9,9,0,0,1-4.14.21,2.77,2.77,0,0,0-1.28,0,3.17,3.17,0,0,0-1.12.95A5.49,5.49,0,0,1,119.1,49.25Z"/><path class="cls-2" d="M14.72,56.42C27.12,66,41,76.4,56.25,72.69a11.52,11.52,0,0,0,5-2.09c2.38-2.08,2.6-5.93,1.06-8.68-3.37-6-10.14-4.92-16-5.12a41.75,41.75,0,0,1-7.65-.74c-6.75-1.53-12.56-6.42-19.46-7a4.47,4.47,0,0,0-.44-3.21c-1-1.75-3.23-2.82-3.62-4.82-.14-.71,0-1.46-.2-2.17S14,37.48,13.33,37.7a1.35,1.35,0,0,0-.68.57,4.09,4.09,0,0,0,0,3.58,8,8,0,0,1,.84,3.58c-1.76-1.83-3.72-3.51-5.57-5.27A6,6,0,0,0,6.32,39a1.46,1.46,0,0,0-1.61.15,1.5,1.5,0,0,0-.16,1.52,6.7,6.7,0,0,0,1.59,2.19,36.68,36.68,0,0,1,3.73,3.75l-6-2.94a3.8,3.8,0,0,0-1.75-.53,1.31,1.31,0,0,0-1.31,1c2,2.23,4.78,3.6,7.48,4.92a75.28,75.28,0,0,1-6.78-3.4,1.25,1.25,0,0,0-1-.29.82.82,0,0,0-.47.77A1.71,1.71,0,0,0,.31,47C1.73,49.29,4.88,50.2,7,51.59a9,9,0,0,1-4.53-.51C2,50.87,1.27,50.6.79,51c-1.47,1.1.69,2.58,1.61,2.89a9.2,9.2,0,0,0,4.14.2,2.77,2.77,0,0,1,1.28,0,3.11,3.11,0,0,1,1.12,1A5.51,5.51,0,0,0,14.72,56.42Z"/><path class="cls-2" d="M89.27,71.82a57.2,57.2,0,0,0,2.3,12.52c4.13,9.63,1.05,22-7.43,27.76a23.08,23.08,0,0,1-7.9,3.22c-7.86,1.83-16.57,1.16-23.21-3.64s-10.46-14.34-7.5-22.25c1.64-4.4,5-7.78,7.38-11.8S51.83,67,52,62.45c.06-2.25-.06-8.87,3.21-9.14a37.3,37.3,0,0,1,6.53,1.11c4.42,1.66,9.21.54,13.45-1.18,1.89-.77,3.74-2.46,5.72-1.44a7.67,7.67,0,0,1,3.44,4.08c.91,2.38,6.66-.49,6.47,2.06C90.64,59.55,89.69,64.1,89.27,71.82Z"/><path class="cls-2" d="M72.06,140.31c1.33-.42,1.73-1.83,2.19-3a10.18,10.18,0,0,1,2.81-3.88c1.06-.92,2.35-1.7,3-2.88.72-1.37.37-3,0-4.42-.66-2.8-1.22-5.7-.61-8.53A8.92,8.92,0,0,1,85.21,111c2.68-.87,4.86-.42,6.47,1.59,3.47,4.36,2.72,10.36.6,15.42a21.49,21.49,0,0,1-4.36,6.45c-.89.93-1.86,1.81-2.83,2.68-.68.62-2.46,1.51-2,2.51a2.24,2.24,0,0,0,1.25.9c2.92,1.13,6.17,1,9.24,1.64a3.59,3.59,0,0,1,1.42.54,1.17,1.17,0,0,1,.51,1.22,1,1,0,0,1-1.22.59.78.78,0,0,1,.62,1.23,1.38,1.38,0,0,1-1.69.2.61.61,0,0,1,.13,1,1.44,1.44,0,0,1-1.25.29,3.92,3.92,0,0,1-1.2-.53.85.85,0,0,1,.34,1.35,1.91,1.91,0,0,1-1.66.5,5.28,5.28,0,0,1-1.69-.62c1.6.8.21,1.9-.94,2.16A6.84,6.84,0,0,1,82.05,149C80,147.75,68.58,143.93,72.06,140.31Z"/><path class="cls-3" d="M72.17,140.31c1.32-.42,1.73-1.83,2.19-3a10.18,10.18,0,0,1,2.81-3.88c1-.92,2.35-1.7,3-2.88.73-1.37.38-3,0-4.42-.65-2.8-1.22-5.7-.6-8.53.66-3.06,2.53-4.79,5-6.34.62-.4.67-.63,1.42-.33,2.43,1,3.88,4.81,4.44,7.24a16.67,16.67,0,0,1-1.64,11.47,17.41,17.41,0,0,1-5.15,5.79c-2.07,1.54-3.94,3.32-6.46,4.1a10.41,10.41,0,0,1,3.57,1.54c2,1.45,2.33,4.79,4.37,6a7.14,7.14,0,0,0,1.82.57,1.83,1.83,0,0,1,1.38,1.25c.51,2.63-5.33.53-6.12.06C80.11,147.75,68.69,143.93,72.17,140.31Z"/><path class="cls-4" d="M67.28,91.41A26.29,26.29,0,0,1,51.6,83.63C49,81.05,48,81.7,45.73,84.73a17.32,17.32,0,0,0-3,7.38c-1.32,8.06.4,15.44,5.88,21.19a31.71,31.71,0,0,0,19.26,9.9c12.39,1.31,29.26-7.7,29.66-21.43a10.89,10.89,0,0,0-2.37-7.48,3.75,3.75,0,0,1-1-1.55,3.49,3.49,0,0,1,.1-1.32,11.83,11.83,0,0,0-1.85-8.71c-.62-.9-1.59-1.79-2.65-1.56s-1.59,1.64-2,2.73C84.92,90.49,73.47,92.09,67.28,91.41Z"/><path class="cls-5" d="M67.5,91.41A25.2,25.2,0,0,1,57.41,88c-2.25-1.33-5.78-5.79-8.74-4.78A4.63,4.63,0,0,0,46.2,85.6a7.8,7.8,0,0,0,0,7.1c-3.91,1.94-.78,9.91.45,12.59a25.32,25.32,0,0,0,31.94,13.29,13.32,13.32,0,0,0,8.48-8,25.58,25.58,0,0,0,2-12.93c-.34-3.32-.25-8.15-3.79-9.8-3-1.38-4.84,1.56-7.43,2.4A25,25,0,0,1,67.5,91.41Z"/><path class="cls-2" d="M40.17,136.49c.22-2-.12-5.24.32-6.38a13.38,13.38,0,0,1,6-6.86,5.17,5.17,0,0,0,1.53-1,3.63,3.63,0,0,0,.68-1.72c.87-4.31.76-10.15,3.66-13.9a7.22,7.22,0,0,1,6.58-2.9c4.59.82,6.23,6,6.37,9.56a12.57,12.57,0,0,1-.27,3.4c-.68,3-2.71,7.94-5.23,10.08a55.22,55.22,0,0,1-6.21,4,25.51,25.51,0,0,0-7.75,7.73,10.9,10.9,0,0,0,5.32,9.1,11.93,11.93,0,0,1,2.07,1.4,1.94,1.94,0,1,1-2.63,2.8c-.16-.19-.32-.44-.59-.44s-.5.36-.46.64.21.52.24.8c.09.74-.9,1.35-1.71,1.23a2.51,2.51,0,0,1-1.76-1.4c-.56-.06-.58.74-.8,1.22a1.57,1.57,0,0,1-2,.47,3.51,3.51,0,0,1-1.35-1.6A1.63,1.63,0,0,1,40.4,154a1.36,1.36,0,0,1-1.19-1.69,1.91,1.91,0,0,1-2.39.66c-1.61-.88.51-3.73.49-5.17,0-2.42-.9-4.53-.48-7a2.76,2.76,0,0,1,1.5-2.32,10.94,10.94,0,0,0,1.19-.34C39.89,138,40.08,137.32,40.17,136.49Z"/><path class="cls-3" d="M40.28,136.51c.22-2-.11-5.24.32-6.38a13.38,13.38,0,0,1,6-6.86,5.17,5.17,0,0,0,1.53-1,3.63,3.63,0,0,0,.68-1.72c.87-4.31.76-10.15,3.66-13.9,2.48-3.22,8.24-4.74,9.55.46.6,2.4-.36,4.73-.7,7.08-.81,5.59-3.23,11.06-7.43,14.63-2.63,2.24-5.59,4.12-7.74,6.87a8.79,8.79,0,0,0-1.63,3.1c-.85,3.29,1.39,7.42,4.3,8.79.77.36,1.59.53,2.37.83A3.5,3.5,0,0,1,53.14,150c.83,1.72-1.16,3.36-2.41,1.82-.16-.19-.31-.44-.59-.44s-.5.36-.46.64.21.52.24.8c.09.74-.9,1.35-1.71,1.23a2.47,2.47,0,0,1-1.75-1.4c-.57-.06-.59.74-.81,1.22a1.57,1.57,0,0,1-2,.47,3.51,3.51,0,0,1-1.35-1.6A1.63,1.63,0,0,1,40.51,154a1.35,1.35,0,0,1-1.18-1.69,1.92,1.92,0,0,1-2.4.66c-1.61-.88.51-3.73.49-5.17,0-2.42-.9-4.53-.48-7a2.79,2.79,0,0,1,1.5-2.33,9.06,9.06,0,0,0,1.19-.33C40,138,40.19,137.34,40.28,136.51Z"/><path class="cls-2" d="M98.27,43.51v0c-3.69,6.84-11.78,10.88-19.19,12.13-6.79,1.15-13.71,1.15-20.53,2-7.3.95-15.54-1-20.71-6.51A18.9,18.9,0,0,1,33,41.35c-2.28,1.54-5.69,0-7.15-2a7.45,7.45,0,0,1-.19-8.11,5.14,5.14,0,0,1,2.1-2,3,3,0,0,1,2.82.06c.27.16.61.38.85.18A.67.67,0,0,0,31.6,29,26.76,26.76,0,0,1,44.3,6.18C53.56.24,64.14.38,74.65.9c8.43.42,19.49,7.89,20.83,16.71A3.09,3.09,0,0,1,96.81,15a2.94,2.94,0,0,1,2.9,0,4.48,4.48,0,0,1,1.88,2.31,6.12,6.12,0,0,1-1,6,3.29,3.29,0,0,1-2.47,1.35A14.28,14.28,0,0,1,100,29.19,19.84,19.84,0,0,1,98.27,43.51Z"/><path class="cls-6" d="M77.59,41.18a3.53,3.53,0,0,1,.58.51c2.16,2.3.17,5.8-2.51,6.54a5.79,5.79,0,0,1-5.61-1.75,3.81,3.81,0,0,1-.86-1.39,3.54,3.54,0,0,1,.93-3.35A5.93,5.93,0,0,1,77.59,41.18Z"/><path class="cls-7" d="M77.13,44.11A1.84,1.84,0,0,1,78,46.17a2.64,2.64,0,0,1-1,1.28,5,5,0,0,1-4.27.75,5.15,5.15,0,0,1-3.26-2.86,2.1,2.1,0,0,1-.21-1.15c.27-1.53,2.5-1.67,3.7-1.57s1.76,1.15,2.65,1.28a7.12,7.12,0,0,0,.8,0A1.51,1.51,0,0,1,77.13,44.11Z"/><g class="cls-8"><path class="cls-9" d="M69.13,35.12C68,34.59,68,32.86,68.85,32c1.61-1.71,4.59-2.31,6.35-.46.77.84,1,2.51-.1,3.12a1.91,1.91,0,0,0-.67-2.36c-1.7-1.29-6.71,0-5.3,2.8Z"/></g><path class="cls-10" d="M56.74,30.64a2.43,2.43,0,1,1-1.83-2.9A2.42,2.42,0,0,1,56.74,30.64Z"/><path class="cls-10" d="M86.67,25.09a2.43,2.43,0,1,1-1.83-2.9A2.44,2.44,0,0,1,86.67,25.09Z"/><g class="cls-11"><path class="cls-10" d="M49.06,24.12c-1.25-3.26,3.8-5.52,5.39-2.41a4.14,4.14,0,0,0-5.39,2.41Z"/></g><g class="cls-11"><path class="cls-10" d="M81.55,18.38c.24-4,6.56-2.32,5.51,1.26a4,4,0,0,0-2.53-2.12,2.77,2.77,0,0,0-3,.86Z"/></g><path class="cls-12" d="M59,0a15.08,15.08,0,0,1,10.58,3.7c4.54,4.21-1.64,6.66,5.9,10.91,0,0-3.74,2-10.12-3.82,0,0,2.29,6.31,6.83,8.12,0,0-5.39,2.05-14.07-5.44a6.8,6.8,0,0,0,3.55,5.45s-9.06.5-11.9-6.6S50.26,2.3,53,1.73A55.22,55.22,0,0,0,59,0Z"/></g></g></g></svg>