<svg xmlns="http://www.w3.org/2000/svg" viewBox="0 0 108.15 84.44"><defs><style>.cls-1{isolation:isolate;}.cls-2{fill:#f8cdb2;}.cls-3{fill:#f7c4a4;}.cls-4{fill:#a9dde1;}.cls-5{fill:#cfedfc;}.cls-6{fill:#c16768;opacity:0.93;}.cls-6,.cls-8{mix-blend-mode:multiply;}.cls-7{fill:#f16161;opacity:0.21;}.cls-9{fill:#f5a1c0;}.cls-10{fill:#421a1a;}.cls-11{opacity:0.32;}.cls-12{fill:#fcb116;}.cls-13{fill:#cd9111;}.cls-14{fill:#e59a36;fill-rule:evenodd;}</style></defs><g class="cls-1"><g id="Layer_2" data-name="Layer 2"><g id="Layer_1-2" data-name="Layer 1"><path class="cls-2" d="M89.59,80.76a.39.39,0,0,1-.19.21A.62.62,0,0,1,89,81a5.64,5.64,0,0,1-2-1.15,36.08,36.08,0,0,0-3.69-1.93,20.14,20.14,0,0,1,3.07,2,3,3,0,0,1,1,1.24.73.73,0,0,1,0,.66.7.7,0,0,1-.65.28,1.58,1.58,0,0,1-.68-.26c-1-.6-1.74-1.58-2.84-2-.54-.19-2-.38-2.21-1a2.18,2.18,0,0,0,1.18,1.17.85.85,0,0,1,.49.31.51.51,0,0,1-.24.66c-1,.51-2.4-.28-3-1s-1-1.34-1.88-1.62c-2.46-.74-4.38-2.81-2.79-5.09.14-.2.31-.4.44-.62a4.12,4.12,0,0,0,.45-1.43c.5-2.69,1-5.36,1.24-8.08a27.92,27.92,0,0,1,1.68-8,31.46,31.46,0,0,0,1.66-7.49,13.53,13.53,0,0,0-.52-7.43,1.16,1.16,0,0,1-.12-.55c0-.33.36-.54.65-.69,1.31-.72,3.39-1.75,4.94-1.63.74,0,.89.89,1.13,1.58a12.31,12.31,0,0,1,.55,2.46c.4,3.32-.42,6.67-1.4,9.82a6.15,6.15,0,0,0-.37,1.84,9.48,9.48,0,0,0,.33,1.89c.54,2.72-.4,5.45-1.33,8.05l-2,5.64a21.56,21.56,0,0,0-1.1,3c-.29,1.51,1.33,1.85,2.43,2.21,2.18.72,5,1.62,6.7,3.28a1,1,0,0,1,.24.36.32.32,0,0,1-.13.38c-.36.19-1.3-.62-1.58-.78-.65-.38-1.35-.64-2-1a19.23,19.23,0,0,1,3.22,2,1.52,1.52,0,0,1,.51.56.53.53,0,0,1-.16.69c-.6.35-1.9-1.05-2.37-1.33a29.38,29.38,0,0,0-3.38-1.77,17.63,17.63,0,0,1,3.86,2.27c.64.49,1.37.91,1.37,1.83A.92.92,0,0,1,89.59,80.76Z"/><path class="cls-3" d="M87.21,81.41c.14.52-.31.83-1.22.31s-1.65-1.51-2.72-1.9c-.54-.2-2-.39-2.21-1A2.18,2.18,0,0,0,82.24,80a.85.85,0,0,1,.49.31.5.5,0,0,1-.24.66c-1,.51-2.39-.28-3-1s-.94-1.34-1.87-1.62c-2.47-.74-4.38-2.81-2.8-5.08.14-.21.31-.41.44-.63a4.14,4.14,0,0,0,.45-1.42c.5-2.7,1-5.37,1.25-8.09a27.64,27.64,0,0,1,1.67-8c1.49-3.47,1.55-7.3,2.06-11A20.39,20.39,0,0,1,82,38.71c.61-1.4,2-1.41,2.91-.08a5.22,5.22,0,0,1,.67,2.71A25.33,25.33,0,0,1,84,51.42a6.25,6.25,0,0,0-.49,1.63,6.68,6.68,0,0,0,.07,1.48A29.28,29.28,0,0,1,82,65.62c-.53,1.86-1.13,3.71-1.66,5.58-.35,1.24-1.39,3.57-.44,4.73a7.58,7.58,0,0,0,1.48,1.16,19.87,19.87,0,0,0,2.39,1.65,24.68,24.68,0,0,1,2.75,1.82A1.64,1.64,0,0,1,87.21,81.41Z"/><path class="cls-2" d="M56.64,67.2q-.81,2.67-1.77,5.27a8.3,8.3,0,0,1-2.37,3.87,6.11,6.11,0,0,1-4.66.94,19.76,19.76,0,0,1-4.77-1.57,64.06,64.06,0,0,1-7.22-4.17A8.5,8.5,0,0,0,32.78,70a6.71,6.71,0,0,0-3.49.39,10.9,10.9,0,0,0-1.24.6c-1.42.74-2.35,2-3.95,2.46s-3.56.41-5,1.38c-.18.12-.38.31-.32.53s.31.27.47.42a.7.7,0,0,1,0,.92,1.32,1.32,0,0,1-.93.38,2,2,0,0,1-2.16-1.83,6.89,6.89,0,0,1,.1-.76c.05-.61-.13-1.22-.06-1.82a2.19,2.19,0,0,1,1.16-1.62c.68-.37,1.44-.14,2.12-.53,1.26-.71,2.22-3.64,2.94-4.9,1.09-1.93,2.16-4.11,4.58-4.6,2-.41,3.18,1.49,5,2.08s3.58-.26,5.4-.44a10.5,10.5,0,0,1,8,3,15.18,15.18,0,0,1-.89-5.39,7.8,7.8,0,0,1,1.93-4.82,7.18,7.18,0,0,1,10.4.15,7.51,7.51,0,0,1,1.63,4.71C58.48,62.89,57.33,64.88,56.64,67.2Z"/><path class="cls-3" d="M53.74,67.45a15.45,15.45,0,0,1-.36,3,7.86,7.86,0,0,1-1.79,3.78,6.68,6.68,0,0,1-6.67,1.46,12,12,0,0,1-4.86-3.06A30.45,30.45,0,0,0,34.87,69c-1.29-.81-2.85-2.17-4.39-2.27a8.23,8.23,0,0,0-4.81,1.19c-2.35,1.44-4,3.49-6.67,4.39a1.77,1.77,0,0,0-1.28,1.08c-.07.28,0,.58-.09.87-.05.14-.13.28-.18.42A1.34,1.34,0,0,0,19,76.5H19c.07,0,0,.13,0,.18a1,1,0,0,1-.79.39,2.47,2.47,0,0,1-.89-.17,2,2,0,0,1-1.22-1.28,6.2,6.2,0,0,1,.12-1.42c0-.35-.09-.7-.1-1A2.32,2.32,0,0,1,17.62,71c.56-.21,1.17-.19,1.74-.38s.84-.76,1.09-1.3a40.05,40.05,0,0,1,2.46-4.62,10,10,0,0,1,2-2.54,4,4,0,0,1,3-1c1.7.21,2.95,1.77,4.61,2.18,1.33.34,2.41-.22,3.68-.45a8.74,8.74,0,0,1,3.09.2,14,14,0,0,1,6,2.73c-.68-2.53-1.41-5.5-.16-8a8.07,8.07,0,0,1,1.12-1.6,8.83,8.83,0,0,1,2.09-1.91c3.47-2.1,6.83.94,6,4.57-.23,1-.93,1.74-1.1,2.72a8.66,8.66,0,0,0,.24,2.91A16.47,16.47,0,0,1,53.74,67.45Z"/><path class="cls-2" d="M75.57,36.23l.6.13a7.73,7.73,0,0,1,4,1.79c3.23,3.38,2.67,9.86.42,13.54-1.14,1.87-2.61,3.43-3.34,5.52a14.88,14.88,0,0,1-3.21,4.89C68.71,68,60,70.83,52.31,68.09c-4-1.41-8.37-2.49-11.1-6a10.9,10.9,0,0,1-1.6-10.29,11.21,11.21,0,0,1,5.66-6.07,6.63,6.63,0,0,1,4-.73c1.52.35,2.39,1.1,4.11.74,3.37-.69,5.72-3.76,7.22-6.86a7.41,7.41,0,0,1,1.68-2.62,5.59,5.59,0,0,1,2.92-1.08C68.66,34.77,72.15,35.46,75.57,36.23Z"/><path class="cls-4" d="M52.6,43.73c.6.29,1,.93.73,1.5a2.06,2.06,0,0,1-.9.71,9.15,9.15,0,0,0-4.34,7.63,17.47,17.47,0,0,0,2.33,8.76,22.09,22.09,0,0,0,2.17,3.46c.66.83,1.74,2.3,2.83,2.46a22.5,22.5,0,0,0,9.13-.53.82.82,0,0,1,.67,0c.29.19.24.63.09.94a4.39,4.39,0,0,1-2.15,2,7.57,7.57,0,0,1-2.68.72,21.16,21.16,0,0,0-2.52.13c-1.28.25-1.55,1.17-2.46,1.88a11.71,11.71,0,0,1-3.29,1.8,15.83,15.83,0,0,1-7.51.69A20,20,0,0,1,37,73.12c-2-1.21-4.28-2.29-6-3.86a17.07,17.07,0,0,1-5.14-8.81A16.31,16.31,0,0,1,31.7,44.31a15.19,15.19,0,0,1,11.24-2.82c2.13.31,4.7,3,6.62,2.64A10.18,10.18,0,0,1,52,43.57,1.58,1.58,0,0,1,52.6,43.73Z"/><path class="cls-5" d="M33.32,43.3a6.63,6.63,0,0,1,3.88-1,.91.91,0,0,1,.46.13c.41.31.09.95-.24,1.35C33.93,48,31.76,53.58,32.72,59a7.81,7.81,0,0,0,2.43,4.73,7.89,7.89,0,0,1,0-3.95c.06-.21.18-.47.41-.46s.26.17.33.31c1.77,3,3.39,6.28,6.28,8.43,2.65,2,5,4,8.58,3.42a53.1,53.1,0,0,1-3.22-5C44.83,61.63,42.86,56.06,44,50.71a7.23,7.23,0,0,1,1.58-3.38A.79.79,0,0,1,46.2,47c.49,0,.52.75.4,1.23a22.11,22.11,0,0,0,3.82,18.41c2,2.59,3.74,3,6.83,2.93a3.49,3.49,0,0,1,2.69.92,5.14,5.14,0,0,0-2.48.84,22.58,22.58,0,0,0-2.23,1.92c-3.62,3-8.79,2.41-13.1,1.64-5.55-1-11.27-4.29-14.18-9.34a16.28,16.28,0,0,1,1.86-19.24A15.24,15.24,0,0,1,33.32,43.3Z"/><path class="cls-2" d="M95,32.16c-2.14,4-6.84,6.32-11.1,7.22-5.72,1.2-11.73.81-17.53,1.32C59.55,41.3,51.47,39,48.75,32c-.3-.77-1.29-4.38-.34-5a4.31,4.31,0,0,1-3.14.83c-2.83-.65-4.61-3.17-3.52-6.05a3.89,3.89,0,0,1,2.49-2.4,3,3,0,0,1,3.2,1C46.69,14,52.78,7,57.91,4,64,.39,71.8-.18,78.61,1.46S93.56,8.29,95,15.74c.41-1.46,2.47-1.52,3.5-.74a4.22,4.22,0,0,1,1.45,3.21A4.31,4.31,0,0,1,98.38,22a1.68,1.68,0,0,1-1.75.22c.23.13,0,1.6,0,1.84,0,.81,0,1.62-.11,2.42a15.6,15.6,0,0,1-1,4.78A9,9,0,0,1,95,32.16Z"/><path class="cls-6" d="M81.31,27.74a1.87,1.87,0,0,1,.43,1.37c-.13,1.88-2.39,3.4-4.15,3.47A5,5,0,0,1,73.71,30c-1.23-2.52,2.47-1.86,3.73-2a11.15,11.15,0,0,0,1.76-.54,2.22,2.22,0,0,1,1.79.06A1.18,1.18,0,0,1,81.31,27.74Z"/><path class="cls-7" d="M79.51,30.4a1.27,1.27,0,0,1,.4.4c.74,1.25-1.5,1.75-2.32,1.78-1.28.05-5.61-2.93-3.45-3.9a2.65,2.65,0,0,1,.92-.19,4.85,4.85,0,0,1,1.86.2,2.56,2.56,0,0,1,1.44,1.14.89.89,0,0,0,.16.22.72.72,0,0,0,.35.11A1.77,1.77,0,0,1,79.51,30.4Z"/><g class="cls-8"><path class="cls-9" d="M74.36,24.39a1.39,1.39,0,0,1,.08-2.07c1.16-1,3.24-1.26,4.18.19a1.43,1.43,0,0,1-.45,2c.64-1.18-.45-2.17-1.61-2.05s-2.58.5-2.2,1.9Z"/></g><path class="cls-10" d="M66.05,23.27a1.71,1.71,0,1,1-1.19-2.1A1.71,1.71,0,0,1,66.05,23.27Z"/><path class="cls-10" d="M87.75,19.18a1.71,1.71,0,1,1-1.2-2.1A1.71,1.71,0,0,1,87.75,19.18Z"/><g class="cls-11"><path class="cls-10" d="M60.72,16.74c-.72-1.91,2.42-4.09,3.75-2.33a4.28,4.28,0,0,0-3.75,2.33Z"/></g><g class="cls-11"><path class="cls-10" d="M82.36,11c.76-2.15,4.37-1.68,4.4.66a3.7,3.7,0,0,0-4.4-.66Z"/></g><path class="cls-3" d="M59.37,74.52a4.34,4.34,0,0,0,.2-2.63c-.27-1.61-.55-3.22-.82-4.83-.52-3.07-1.64-6.55-1.64-9.66-.36-2.13-.72-4.26-.93-6.41-.24-2.46-.16-4.85-.2-7.3a7.52,7.52,0,0,1,1.65-5.48,4.9,4.9,0,0,1,4.56-1.7,5.22,5.22,0,0,1,3.35,2.87,12.18,12.18,0,0,1,1,4.43A36.63,36.63,0,0,1,66,53.39a8.28,8.28,0,0,0-.22,1.85,8.56,8.56,0,0,0,.26,1.5c1.13,5.16.22,10.53-.65,15.74a3.62,3.62,0,0,0-.06,1.35c.41,1.81,3.35,2.22,4.66,3.08a2.41,2.41,0,0,0,1.57.5c.4,0,.86-.24,1.15,0a.64.64,0,0,1,.08.71,1.24,1.24,0,0,1-.55.51,2.37,2.37,0,0,1-1.33.25c.73.63,2.63,1.59,2.56,2.76,0,.42-.61.43-1,.26-2.08-1-3.61-2.74-5.66-3.74a6.64,6.64,0,0,1,1.57,1.47A20.75,20.75,0,0,0,70,81c.46.38,1.22.84,1.23,1.52a.57.57,0,0,1-.53.53,1.35,1.35,0,0,1-.78-.19A15.47,15.47,0,0,1,67,80.93c-.84-.7-1.52-1.59-2.43-2.21A14.43,14.43,0,0,1,66.3,80.6c.68.69,1.44,1.31,2.12,2a.65.65,0,0,1,.21.33c.13,1.08-1.93,0-2.19-.16a8.75,8.75,0,0,1-3.07-3.48,10.85,10.85,0,0,0,.92,1.95c.22.41.78.87.86,1.31a.73.73,0,0,1-.77.76,1.57,1.57,0,0,1-1-.58,7.63,7.63,0,0,1-1.56-2.46,1.5,1.5,0,0,0-.34-.56,1.67,1.67,0,0,0-.54-.25,3,3,0,0,1-2-3.64C59.1,75.28,59.25,74.88,59.37,74.52Z"/><path class="cls-3" d="M59.37,74.52a4.34,4.34,0,0,0,.2-2.63c-.27-1.61-.55-3.22-.82-4.83-.52-3.07-1.64-6.55-1.64-9.66-.36-2.13-.72-4.26-.93-6.41-.24-2.46-.16-4.85-.2-7.3a7.52,7.52,0,0,1,1.65-5.48,4.67,4.67,0,0,1,1-.87,7.89,7.89,0,0,0-.71,4.85c.43,4.49,1.94,8.85,2,13.35a27.77,27.77,0,0,0,.44,5.69c.4,1.92.87,3.83,1.18,5.77A17.26,17.26,0,0,1,61,75.86a2.33,2.33,0,0,0-.2,1.93c.35.64,1.26.76,1.72,1.33a4,4,0,0,1,.5,1.72,3.68,3.68,0,0,0,1.85,2.45,2,2,0,0,1-1.53-.56,7.63,7.63,0,0,1-1.56-2.46,1.5,1.5,0,0,0-.34-.56,1.67,1.67,0,0,0-.54-.25,3,3,0,0,1-2-3.64C59.1,75.28,59.25,74.88,59.37,74.52Z"/><path class="cls-2" d="M41.67,69.16q-.8,2.66-1.76,5.27a8.4,8.4,0,0,1-2.37,3.87,6.15,6.15,0,0,1-4.66.94,20.43,20.43,0,0,1-4.78-1.57,68.12,68.12,0,0,1-7.21-4.17A8.42,8.42,0,0,0,17.82,72a6.6,6.6,0,0,0-3.49.38c-.43.17-.84.39-1.25.6C10.5,74.32,8,76.4,5.1,77a6.18,6.18,0,0,0-1.27.45,4.27,4.27,0,0,0-.93.47,1.49,1.49,0,0,0-.6.84,1.26,1.26,0,0,1-.12.42.67.67,0,0,1-.64.23,1.73,1.73,0,0,1-1.31-.75,1.43,1.43,0,0,1,0-1.48A9.15,9.15,0,0,1,1,76.3a1.57,1.57,0,0,0,.24-1.06c0-.8,0-1.55.73-2s1.76-.27,2.53-.7c1.26-.72,2.22-3.65,2.93-4.91C8.51,65.66,9.57,63.49,12,63c2-.42,3.18,1.49,5,2.07s3.58-.26,5.4-.44a10.55,10.55,0,0,1,8,3,14.9,14.9,0,0,1-.89-5.38,7.87,7.87,0,0,1,1.92-4.83,7.19,7.19,0,0,1,10.41.15,7.57,7.57,0,0,1,1.63,4.72C43.52,64.84,42.37,66.84,41.67,69.16Z"/><path class="cls-3" d="M36.61,69.35c0,.35,0,.71-.08,1.06a11,11,0,0,1-1.22,3.93c-.74,1.39-2,2.74-3.42,2.87a4.58,4.58,0,0,1-2.26-.55A83.73,83.73,0,0,1,19.91,71c-1.3-.81-2.85-2.18-4.39-2.28a8.21,8.21,0,0,0-4.81,1.19C8.89,71,7.53,72.8,5.56,73.62c-.55.23-1.15.37-1.68.65a2.07,2.07,0,0,0-1.12,1.34,1.5,1.5,0,0,1-.16.67,1.11,1.11,0,0,1-.47.31,1.9,1.9,0,0,0-1,1c-.17.51.36.91.23,1.33a.35.35,0,0,1-.28.22.59.59,0,0,1-.37-.08,1.2,1.2,0,0,1-.55-.92,1.73,1.73,0,0,1,.35-1.28c.31-.41.68-.62.76-1.14.14-.94-.35-2,.7-2.58.68-.41,1.56-.23,2.31-.5a3.5,3.5,0,0,0,1.85-2.14A24.71,24.71,0,0,1,8,66.61a10.14,10.14,0,0,1,2-2.53,4,4,0,0,1,3-1c1.7.21,2.94,1.77,4.6,2.19,1.34.33,2.41-.23,3.69-.46a8.67,8.67,0,0,1,3.08.2,14.27,14.27,0,0,1,6,2.73c-.69-2.52-1.41-5.49-.17-8a8.42,8.42,0,0,1,1.13-1.6,8.64,8.64,0,0,1,2.09-1.91c3.46-2.1,6.83.94,6,4.58A17.54,17.54,0,0,1,38,64.87,13.31,13.31,0,0,0,37,67,9.34,9.34,0,0,0,36.61,69.35Z"/><circle class="cls-12" cx="92.96" cy="69.25" r="15.19"/><path class="cls-13" d="M99.88,67.79a11.41,11.41,0,0,1-3.57,6.4,2.06,2.06,0,0,1,1.61,1.57,4.17,4.17,0,0,1-.19,2.34,9.17,9.17,0,0,1-5.2,5.53c-2.6,1.06-5,.15-7.34-1.24A15.2,15.2,0,0,1,85.68,56c2.78-1.53,4.6-2,7.65-.67a11.66,11.66,0,0,1,6,6.07A11.33,11.33,0,0,1,99.88,67.79Z"/><path class="cls-14" d="M68.58,0A10.32,10.32,0,0,1,75.8,2.54c3.09,2.87-1.12,4.54,4,7.44,0,0-2.55,1.37-6.9-2.61,0,0,1.56,4.31,4.66,5.54,0,0-3.68,1.39-9.6-3.71a4.66,4.66,0,0,0,2.42,3.72s-6.17.34-8.11-4.5.35-6.85,2.22-7.24A37.39,37.39,0,0,0,68.58,0Z"/></g></g></g></svg>