<svg xmlns="http://www.w3.org/2000/svg" viewBox="0 0 89.09 131.22"><defs><style>.cls-1{isolation:isolate;}.cls-2{fill:#f8cdb2;}.cls-3{fill:#a9dde1;}.cls-4{fill:#f7c4a4;}.cls-5{fill:#010101;}.cls-6{opacity:0.32;}.cls-7{fill:#421a1a;}.cls-10,.cls-13,.cls-8{mix-blend-mode:multiply;}.cls-9{fill:#f5a1c0;}.cls-10,.cls-13{fill:#c16768;}.cls-10{opacity:0.93;}.cls-11{fill:#f16161;opacity:0.21;}.cls-12{fill:#edc5ab;}.cls-13{opacity:0.15;}.cls-14{fill:#e59a36;fill-rule:evenodd;}.cls-15{fill:#cfedfc;}</style></defs><g class="cls-1"><g id="Layer_2" data-name="Layer 2"><g id="Layer_1-2" data-name="Layer 1"><path class="cls-2" d="M11.9,41.92C21.22,52.1,31.74,63.24,45.65,62a10.42,10.42,0,0,0,4.7-1.18c2.41-1.52,3.23-4.91,2.32-7.56-2-5.82-8.08-5.75-13.21-6.73a34.38,34.38,0,0,1-6.58-1.7c-5.67-2.27-10-7.4-15.92-8.86a4,4,0,0,0,.13-2.92c-.62-1.69-2.36-2.94-2.39-4.76,0-.65.22-1.3.17-1.95s-.53-1.35-1.18-1.25a1.21,1.21,0,0,0-.68.41,3.77,3.77,0,0,0-.56,3.18,7.25,7.25,0,0,1,.16,3.3c-1.25-1.87-2.69-3.63-4-5.43a4.74,4.74,0,0,0-1.22-1.3,1.29,1.29,0,0,0-1.44-.09,1.37,1.37,0,0,0-.38,1.33,5.81,5.81,0,0,0,1,2.15,31,31,0,0,1,2.66,3.85L4.47,29.08A3.25,3.25,0,0,0,3,28.37a1.2,1.2,0,0,0-1.32.75c1.4,2.26,3.6,3.85,5.76,5.39a63.11,63.11,0,0,1-5.39-3.95,1.08,1.08,0,0,0-.88-.39.74.74,0,0,0-.53.62,1.49,1.49,0,0,0,.13.83c.88,2.2,3.49,3.44,5.15,5a7.87,7.87,0,0,1-3.88-1.06c-.45-.27-1-.6-1.49-.34-1.46.78.2,2.39,1,2.78a7.88,7.88,0,0,0,3.59.75,2.32,2.32,0,0,1,1.12.17,2.6,2.6,0,0,1,.83,1A4.74,4.74,0,0,0,11.9,41.92Z"/><path class="cls-2" d="M55.4,46.25A11.44,11.44,0,0,1,58.86,49,15,15,0,0,1,61,53.82c1.41,4.36,1.67,8.5,2.44,12.84.7,4,4.78,6.48,7.58,8.88a20.22,20.22,0,0,1,6.58,19c-1.41,7-7.09,13.1-14,14.64-5.56,1.24-11.33-.4-16.3-3a22.08,22.08,0,0,1-6.43-4.77C33.23,92.6,37.7,80.64,35.17,70.5,33.9,65.41,33,60,34.31,54.86s5.15-10,10.32-11c3.56-.69,7.17.49,10.31,2.18Z"/><path class="cls-2" d="M41,89.13a15.26,15.26,0,0,0-2.53.09,29.53,29.53,0,0,0-9.78,3.44,17.5,17.5,0,0,0-2.85,1.71c-2.63,2-4.1,5.24-5.06,8.33-.29.94-2.05,9.81-2.62,9.62-2.47-.82-2.83-3.41-3.33-5.66s-1.59-5.72-4.11-6.31a2,2,0,0,0-1.41.12,1.07,1.07,0,0,0-.53,1.24c.18.44.75.73.67,1.2-.16-.51-.95-1.48-1.56-1.38a1.2,1.2,0,0,0-.94.87,1.13,1.13,0,0,0,.43,1.18,1,1,0,0,0-1.42,0,.87.87,0,0,0,.19,1.35c-.37-.37-1.09.09-1.08.62a1.21,1.21,0,0,0,1,1,.87.87,0,0,0-.7.9,1,1,0,0,0,.73.89c.26.09.57.1.73.32a1.16,1.16,0,0,1,.07.67c-.11,2,2.49,3.74,3.61,5.08a41.36,41.36,0,0,0,4.33,4.64c2.32,2,5.59,3.64,6.29-.74.33-2.06,2.17-3.56,4-4.49s3.91-1.56,5.51-2.91a7.79,7.79,0,0,0,2.27-8.39c3.94.32,7.51,1.79,11.58.78,2.7-.67,5.3-2.7,5.79-5.46a6.78,6.78,0,0,0-2.26-6A11.05,11.05,0,0,0,41,89.13Z"/><path class="cls-3" d="M35.81,80.9l-.09-.23a22.56,22.56,0,0,0,26.36,1.07,9.68,9.68,0,0,0,3.6-9.92,1.59,1.59,0,0,1-.09-1,1,1,0,0,1,1-.54,2.06,2.06,0,0,1,1,.47,7.89,7.89,0,0,1,2.23,2.54,4.46,4.46,0,0,0,1.08,1.55,3.46,3.46,0,0,0,1.35.48,18.88,18.88,0,0,1,8.94,4.32c2.66,2.43,2.94,5.64,3.41,9a16.81,16.81,0,0,1-2.32,10.76c-1.92,3.19-5.56,6-8.65,8a23.17,23.17,0,0,1-11.06,3.65A29.47,29.47,0,0,1,46,107a20.35,20.35,0,0,1-6.13-5.12c-1.31-1.76-1.81-3.7-2.71-5.64S35.32,93,35.85,90.68a1.28,1.28,0,0,0,.06-.67,1.36,1.36,0,0,0-.36-.5c-1.06-1-2-2.57-1.41-4a19.27,19.27,0,0,1,1.45-2.07A3.09,3.09,0,0,0,35.81,80.9Z"/><path class="cls-2" d="M57.31,99.35a12.48,12.48,0,0,0,.15,2.29,24.07,24.07,0,0,0,3.63,8.6,14.61,14.61,0,0,0,1.76,2.47c2.07,2.25,5.27,3.39,8.36,4.06,2.53.56,13.76.38,9.51,6.07a5.14,5.14,0,0,1-4.37,1.86,12.66,12.66,0,0,0-2.21-.12,1.93,1.93,0,0,0-1.7,1.27c-.19.73.59,1.57,1.25,1.22.28-.14.46-.43.73-.6a1,1,0,0,1,1.37.5,2.06,2.06,0,0,0-1.71.82c-.35.56-.06,1.49.6,1.5.47,0,.83-.42,1.21-.71s1.06-.37,1.22.07c-.61-.34-1.45.37-1.36,1.08a1.41,1.41,0,0,0,1.56,1.08,2.76,2.76,0,0,0,1.77-1.11c-.44.61.2,1.53.94,1.52a2,2,0,0,0,1.62-1.37c-.23.25.07.64.38.74a2.14,2.14,0,0,0,2-.72c.55-.53,1-1.2,1.55-1.69,3.53-3,4.29-9,2.66-13.08a4.27,4.27,0,0,0-1.5-2.12,1.94,1.94,0,0,0-2.44.21c-.3.34-.52.87-1,.9-1.25-2.58-2.45-5.58-4.9-7.16-.63-.4-7.59-3.05-7.71-1.1.23-3.57,1.6-6.88.5-10.49a6.8,6.8,0,0,0-5.54-4.89,7.31,7.31,0,0,0-5.86,2.4A9.78,9.78,0,0,0,57.31,99.35Z"/><path class="cls-4" d="M5.92,104.8a.9.9,0,0,1,0-1.24,1,1,0,0,1,1.42,0,1.15,1.15,0,0,1-.43-1.19,1.21,1.21,0,0,1,1-.87c.61-.09,1.4.88,1.56,1.38.09-.61-1.54-1.85.2-1.93a2.09,2.09,0,0,1,1.12.38,6.66,6.66,0,0,1,2.67,3.12c.64,1.53.71,3.28,1.35,4.81.91,2.18,2.87,3.07,4.2,4.81a.51.51,0,0,0,.32-.36l3.27-10.32A25.19,25.19,0,0,1,25,97.54a12,12,0,0,1,4.86-4.06c1.05-.52,5-2.61,5.69-1.39a9.89,9.89,0,0,0,.51,1c0,.06.12.13.2.1a3,3,0,0,1,0-1.3c0-.14.1-.3.24-.35a.44.44,0,0,1,.36.09l.84.49a3.62,3.62,0,0,0-1.19-1.74c-1.13-1.15-3.17-3-2.43-4.81a19.49,19.49,0,0,1,1.46-2.08,3.08,3.08,0,0,0,.22-2.55,2.29,2.29,0,0,0-.1-.23L36,81a43.47,43.47,0,0,0-.9-10.44C33.84,65.43,33,60,34.24,54.88,35.35,50.4,38.6,46,43,44.25c5-2,10.08-.1,10,5.81a28.51,28.51,0,0,1-1.3,6.63c-2.23,8.57-2.56,18.2,2.05,25.76a3.57,3.57,0,0,1,.63,1.46c.2,2.32-1.49,3.76.4,6a9.72,9.72,0,0,0,3.95,2.49A7.17,7.17,0,0,1,54,94c-1.69.07-3.39-.11-5.07.12-.33,0-.75.23-.7.56s.29.34.5.42a19.76,19.76,0,0,0,7.74,1.09,6.18,6.18,0,0,1,2.06.08c2.11.6,2.33,5.32,2.87,7.1.9,2.94,2.13,6,4.68,7.75,2,1.35,4.5,1.67,6.85,2.22a31.26,31.26,0,0,1,9.86,4.19c5.49,3.56,3.51,8-1.56,10.62-.76.4-3.51,2.18-4.28,2-1.32-.3-.94-1.28,0-1.59a.86.86,0,0,0-1.14,0c-.39.29-.75.71-1.22.7-.65,0-1-.93-.6-1.5a2.1,2.1,0,0,1,1.72-.81,1,1,0,0,0-1.38-.5c-.26.17-.44.46-.72.6-.67.34-1.44-.5-1.26-1.23a2,2,0,0,1,1.7-1.26,12.59,12.59,0,0,1,2.21.11,5.12,5.12,0,0,0,4.37-1.86c4.25-5.69-7-5.51-9.51-6.06-3.08-.68-6.29-1.81-8.36-4.06a12.07,12.07,0,0,1-1.16-1.53A29.75,29.75,0,0,1,46,107a23.65,23.65,0,0,1-4.48-3.28c-2.91,0-5.66-.89-8.61-1.14a7.79,7.79,0,0,1-2.28,8.4c-1.6,1.34-3.64,2-5.5,2.9s-3.69,2.44-4,4.49c-.71,4.38-4,2.8-6.29.74a41.3,41.3,0,0,1-4.34-4.63c-1.12-1.34-3.71-3.12-3.6-5.09a1.05,1.05,0,0,0-.08-.66c-.15-.22-.47-.24-.73-.32a1.06,1.06,0,0,1-.73-.9.89.89,0,0,1,.71-.9,1.21,1.21,0,0,1-1-1A.78.78,0,0,1,5.92,104.8Z"/><path class="cls-2" d="M77.5,43.41a2.47,2.47,0,0,1,1.67-1.09c2.15-.32,3.36.64,5.51-.88a7.25,7.25,0,0,0,2.8-5.07c.21-1.83-.49-4.06-2.24-4.36-1.32-.22-2.56.75-3.59,1.66,2.22-5.39.91-9.94-1.36-15A30.54,30.54,0,0,0,71.35,7.21,34.07,34.07,0,0,0,48.3.07,32.2,32.2,0,0,0,35.51,3.69,21.71,21.71,0,0,0,30,7.81c-1,1-3.7,4.13-3.27,5.73-.4-1.5-1.05-3.13-2.44-3.73a3.74,3.74,0,0,0-3.64.7,8,8,0,0,0-2.91,6,7.44,7.44,0,0,0,.74,3.05A6,6,0,0,0,20,21.81a2.8,2.8,0,0,0,2.56.55c-1.15.38-1.81,4.6-2,5.71a12.83,12.83,0,0,0,.79,6.76A20.76,20.76,0,0,0,28,43.5c1.77,1.4,3.81,1.9,5.79,2.86,1.68.82,2.39,2.43,4,3.45a13.73,13.73,0,0,0,7.93,1.95,28.46,28.46,0,0,1,7.88,1A23.83,23.83,0,0,0,77.5,43.41Z"/><path class="cls-5" d="M34.91,19.68c2.15-3.83,7.69-4.7,7.76.83a11.61,11.61,0,0,1-.55,3.27,19.57,19.57,0,0,1-.95-3.08c-.77-3.94-3.66-1.76-6.26-1Z"/><path class="cls-5" d="M58.77,30.1a5.73,5.73,0,0,1,6-3.43c2.63.78,3.37,4.12,2.58,6.41a18.3,18.3,0,0,0-1.33-2.91,3.27,3.27,0,0,0-1.75-1.64c-1.72-.3-3.87.72-5.55,1.57Z"/><g class="cls-6"><path class="cls-7" d="M37.55,14c.87-3.19,5.94-3.06,6.55.24A5.2,5.2,0,0,0,37.55,14Z"/></g><g class="cls-6"><path class="cls-7" d="M64.19,23.36a2.85,2.85,0,0,1,3.64-.8c1.41.64,1.49,2.39,1,3.61-.29-.58-.38-1.19-.61-1.62-.81-1.4-2.5-1.25-4-1.19Z"/></g><g class="cls-8"><path class="cls-9" d="M46.88,28.16a1.77,1.77,0,0,1,.25-2.53,3.06,3.06,0,0,1,4.74,1.65,1.86,1.86,0,0,1-1.21,2.25c2.14-2.88-4-5-3.78-1.37Z"/></g><path class="cls-10" d="M41.62,30.81a2.45,2.45,0,0,0-1,1.51c-.55,2.31,1.57,4.94,3.64,5.62,1.68.56,4.41-.54,5.59-1.83,2.4-2.63-2.24-3.1-3.68-3.72a13.9,13.9,0,0,1-1.9-1.26,2.67,2.67,0,0,0-2.15-.53A1.33,1.33,0,0,0,41.62,30.81Z"/><path class="cls-11" d="M42.75,34.65a1.6,1.6,0,0,0-.61.34c-1.35,1.26,1.13,2.63,2.09,2.95,1.5.5,7.76-1.63,5.56-3.54a3,3,0,0,0-1-.54,5.93,5.93,0,0,0-2.28-.4,3.27,3.27,0,0,0-2.14.88.64.64,0,0,1-.73.24A2.28,2.28,0,0,0,42.75,34.65Z"/><path class="cls-12" d="M23.92,31.48C30.62,43.61,38.26,57,52,59a10.24,10.24,0,0,0,4.8-.07c2.68-.93,4.24-4.07,4-6.88-.6-6.16-6.52-7.49-11.25-9.64a34.84,34.84,0,0,1-6-3.18c-5-3.54-8-9.57-13.38-12.37A4.12,4.12,0,0,0,31,24c-.23-1.81-1.63-3.43-1.24-5.23.14-.64.51-1.22.61-1.87s-.21-1.44-.86-1.5a1.23,1.23,0,0,0-.75.25,3.85,3.85,0,0,0-1.27,3,7.44,7.44,0,0,1-.58,3.26,27,27,0,0,0-3.6-6.64,3,3,0,0,0-2-1.42.86.86,0,0,0-.5.08c-.44.24-.42.87-.29,1.34.66,2.31,2.45,3.89,3,6.37L21.05,18.8a16.61,16.61,0,0,0-2-2.41,1.06,1.06,0,0,0-1.18-.09c-2,1.3,2.65,6,3.42,6.89-1.52-1.72-2.85-3.66-4.37-5.33a1.41,1.41,0,0,0-.43-.34c-.46-.19-1,.28-1.08.78a2.33,2.33,0,0,0,.39,1.44,21.85,21.85,0,0,0,3.74,4.71c-1.28.19-2.9-.66-3.91-1.36-.54-.38-2.12-1.13-2,.27.23,1.92,2.8,3,4.4,3.41a2.26,2.26,0,0,1,1.05.42,2.62,2.62,0,0,1,.57,1.17A4.73,4.73,0,0,0,23.92,31.48Z"/><path class="cls-13" d="M13.78,23.18a7.41,7.41,0,0,0,1.92,2.06c1.71,1.08,3.9.36,5.59,1.15s1.88,3.4,3.85,4c.56.16,1.22.13,1.62.55a2,2,0,0,1,.4.81c1.76,5.48,5.64,10.78,9.48,15a33.93,33.93,0,0,0,15.28,9.61,11,11,0,0,0,4.82.55,5,5,0,0,0,3.88-2.77,6.42,6.42,0,0,1-3.92,5,10,10,0,0,1-4.81.07c-13.73-2-21.37-15.36-28.07-27.49a4.7,4.7,0,0,1-4.2-3.12A2.8,2.8,0,0,0,19,27.34,2.38,2.38,0,0,0,18,26.92C16.93,26.66,12.41,24.84,13.78,23.18Z"/><path class="cls-14" d="M61.82,1.13S55.6-.09,52.61,3.35s-1.22,6.77-6.55,7.88c0,0,4.66,1,9.43-3,0,0-1.33,5.22-5.77,5.66a15.94,15.94,0,0,0,11.21-3.44s.22,2.88-3.44,4.33-4.33,6-1.22,6.43,5.66-1.77,4.88-3.55c0,0-1.57,2.77-4.09,2.58s-.57-3.8,1.32-4.46A17.92,17.92,0,0,0,64.26,13c2.88-2,5.76-6.65,3.43-8.87A14,14,0,0,0,61.82,1.13Z"/><path class="cls-3" d="M57.46,101.64a12.48,12.48,0,0,1-.15-2.29,9.78,9.78,0,0,1,2.54-6.5,7.31,7.31,0,0,1,5.86-2.4,6.8,6.8,0,0,1,5.54,4.89c1.1,3.61-.27,6.92-.5,10.49.08-1.24,2.93-.62,5.15.1a24.12,24.12,0,0,0,6.38-6.45A16.81,16.81,0,0,0,84.6,88.72c-.47-3.4-.75-6.61-3.41-9a18.88,18.88,0,0,0-8.94-4.32,3.46,3.46,0,0,1-1.35-.48,4.46,4.46,0,0,1-1.08-1.55,7.89,7.89,0,0,0-2.23-2.54,2.06,2.06,0,0,0-1-.47,1,1,0,0,0-1,.54,1.59,1.59,0,0,0,.09,1,9.68,9.68,0,0,1-3.6,9.92,22.56,22.56,0,0,1-26.36-1.07l.09.23a3.09,3.09,0,0,1-.22,2.55,19.27,19.27,0,0,0-1.45,2.07c-.57,1.42.35,3,1.41,4a1.36,1.36,0,0,1,.36.5,1.28,1.28,0,0,1-.06.67c-.53,2.29.45,3.61,1.34,5.51s1.4,3.88,2.71,5.64A20.35,20.35,0,0,0,46,107a29.58,29.58,0,0,0,15.65,4.21c-.21-.3-.41-.6-.59-.92A24.07,24.07,0,0,1,57.46,101.64Z"/><path class="cls-15" d="M68.59,75.66s.2,1.44,3.91,2.06,8.84,2.77,9.66,8-.82,13.13-4.48,16.43-4.48,1.18-4.48,1.18S76,96,73,91.71s-8.62-6.23-14.22-4.87C58.77,86.84,66.94,85.74,68.59,75.66Z"/></g></g></g></svg>