<svg xmlns="http://www.w3.org/2000/svg" viewBox="0 0 65.5 80.91"><defs><style>.cls-1{isolation:isolate;}.cls-2{fill:#f8cdb2;}.cls-3{fill:#f7c4a4;}.cls-4{fill:#c16768;opacity:0.14;}.cls-4,.cls-8{mix-blend-mode:multiply;}.cls-5{fill:#a9dde1;}.cls-6{fill:#cfedfc;}.cls-7{fill:#010101;}.cls-9{fill:#f5a1c0;}.cls-10{opacity:0.32;}.cls-11{fill:#421a1a;}.cls-12{fill:#fcb116;}.cls-13{fill:#73533b;}.cls-14{fill:#aa7a5a;}.cls-15{fill:#e59a36;fill-rule:evenodd;}</style></defs><g class="cls-1"><g id="Layer_2" data-name="Layer 2"><g id="Layer_1-2" data-name="Layer 1"><path class="cls-2" d="M52.75,49.3c-7.43-1-15.66-2.3-19.28-8.89A5.66,5.66,0,0,1,32.59,38a3.69,3.69,0,0,1,2.74-3.37c3.24-.9,5,1.85,7,3.84a19.62,19.62,0,0,0,2.75,2.41c2.74,1.83,6.36,2.17,8.81,4.38a2.27,2.27,0,0,1,1.29-1c1-.24,2,.15,2.89-.4.29-.2.52-.5.83-.68s.78-.17.92.15a.63.63,0,0,1,0,.43A2.13,2.13,0,0,1,58.59,45a3.93,3.93,0,0,0-1.54.94c1.22,0,2.46.09,3.68.13a2.61,2.61,0,0,1,1,.15.67.67,0,0,1,.47.61.8.8,0,0,1-.49.58,3.37,3.37,0,0,1-1.3.2,16.56,16.56,0,0,0-2.54,0l3,1.08a1.78,1.78,0,0,1,.76.42.65.65,0,0,1,.05.82A10.84,10.84,0,0,1,57.45,49a34.4,34.4,0,0,0,3.41,1.19c.18,0,.38.1.44.27a.41.41,0,0,1-.11.43.86.86,0,0,1-.42.2c-1.27.28-2.61-.5-3.81-.77a4.22,4.22,0,0,0,1.65,1.4c.26.12.58.27.6.56.09.89-1.14.65-1.55.43a4.22,4.22,0,0,1-1.42-1.37,1.19,1.19,0,0,0-.41-.45,1.37,1.37,0,0,0-.7-.06A2.54,2.54,0,0,1,52.75,49.3Z"/><path class="cls-2" d="M44.79,53.81c1.45-.07,2.9-.1,4.35-.08a7.2,7.2,0,0,1,3.54.69,4.88,4.88,0,0,1,2.13,3,13.85,13.85,0,0,1,.36,3.69c0,.87-1.48,10.42-1.21,10.43,2,.1,3-1.6,4-3s2.8-3.56,4.8-3.29a1.57,1.57,0,0,1,1,.47.78.78,0,0,1,0,1c-.26.26-.75.3-.83.65.26-.31,1.11-.77,1.53-.54a.89.89,0,0,1,.44.87.84.84,0,0,1-.65.7.81.81,0,0,1,1.05.36.65.65,0,0,1-.52.89c.37-.15.77.36.61.73a1,1,0,0,1-1,.45.65.65,0,0,1,.26.82.84.84,0,0,1-.79.43c-.21,0-.45-.09-.62,0a.81.81,0,0,0-.25.44c-.48,1.41-2.88,1.94-4.08,2.57a34.83,34.83,0,0,1-4.48,2.05c-2.28.8-5.12,1-4.38-2.23.46-2-1.36-4.15-2.21-5.91a9.86,9.86,0,0,1-.69-7.05,12.73,12.73,0,0,1-5.36,2.52c-5.59.72-7.16-6.51-3.15-9.35a8.71,8.71,0,0,1,4.47-1.19Z"/><path class="cls-3" d="M45.19,55.93l1.16-.2c2.21-.38,4.89-.6,6.37,1.09,1.21,1.38,1,3.42.79,5.2l-1.38,9.89c-.11.82,2.92-.52,3.11-.64A9.25,9.25,0,0,0,58,68.45c1-1.45,2.79-3.56,4.8-3.29a1.62,1.62,0,0,1,1,.47.76.76,0,0,1,0,1c-.25.26-.75.3-.82.65.26-.31,1.11-.77,1.53-.54a.9.9,0,0,1,.44.86.85.85,0,0,1-.65.71.82.82,0,0,1,1,.36.66.66,0,0,1-.53.89c.38-.15.77.36.62.73a1,1,0,0,1-1,.45.63.63,0,0,1,.26.82.84.84,0,0,1-.79.43,1,1,0,0,0-.62,0,.71.71,0,0,0-.24.44c-.48,1.4-2.89,1.94-4.08,2.57a34.35,34.35,0,0,1-4.49,2c-2.27.8-5.11,1-4.38-2.23.46-2-1.36-4.15-2.21-5.91a10,10,0,0,1-.69-7,12.87,12.87,0,0,1-5.35,2.52c-2.57.33-6.84-2.47-4.8-5.11C38.69,57.15,42.37,56.41,45.19,55.93Z"/><path class="cls-2" d="M31.72,33.81c1.93-.63,4.47-.84,5.58.81a4.43,4.43,0,0,1,.56,2.46c0,2.94-.57,5.87-.61,8.81s.56,6.07,2.57,8.28a29.77,29.77,0,0,1,3,3c1.93,2.9.24,7-2.71,9s-6.7,2.19-10.25,2.19A27.79,27.79,0,0,1,19.4,66.83c-3.27-1.33-6.17-4-6.9-7.35-.83-3.88,1.24-7.72,2.86-11.36a53,53,0,0,0,3.46-10.9c.38-1.86.93-4.07,2.78-4.69,2.18-.72,3.06,1,4.67,1.77C28.1,35.13,29.87,34.41,31.72,33.81Z"/><path class="cls-4" d="M37.57,36.29a22.16,22.16,0,0,1-.25,6.39c-.37,2.76-.64,5.7.59,8.18.38.76.9,1.59.59,2.38-.51,1.29-.21,1.37.16,2.71.32,1.15.55,2.33.91,3.47A10.6,10.6,0,0,1,36.34,70.5c-1.58,1.41-3.6.78-5.58.67a22.89,22.89,0,0,1-7.37-1.46c-3.28-1.32-6.18-4-6.9-7.35-.84-3.88,1.24-7.71,2.85-11.36,2-4.58,4.4-9.64,4.84-14.68,0,.23,5.26-.63,5.72-.75a53.58,53.58,0,0,0,5.37-1.92,1.62,1.62,0,0,1,1-.16,1.44,1.44,0,0,1,.83,1A8.48,8.48,0,0,1,37.57,36.29Z"/><path class="cls-5" d="M14.92,47.63h0a.59.59,0,0,1,.36.2,26.12,26.12,0,0,0,4.75,4.07A16.21,16.21,0,0,0,27,54.13,13.47,13.47,0,0,0,33.59,53c1.73-.8,4.15-2.26,3.84-4.48a3,3,0,0,1,2.94,3,5,5,0,0,0,0,1.39c.19.82,1.07,1.25,1.79,1.7,8.19,5.07,1,15.3-5.22,18a24,24,0,0,1-6,1.6A27.58,27.58,0,0,1,18,73.52a15.7,15.7,0,0,1-9.55-8.23c-1.73-4-1.15-9,1.92-12.06a18,18,0,0,0,2.77-2.75c.51-.79.65-2.25,1.49-2.76A.51.51,0,0,1,14.92,47.63Z"/><path class="cls-6" d="M15,47.63h0a.59.59,0,0,1,.37.2,30.79,30.79,0,0,0,7.43,5.53c3.06,1.52,6.23,1.7,9.58,2,.62.07,1.38.26,1.47.85s-.44.93-.92,1.17a12,12,0,0,1-6.82,1.06,22.22,22.22,0,0,1-6.67-2,19.78,19.78,0,0,0,7.79,4.18,25.1,25.1,0,0,1,5.23,1.58c2.26,1.19,2.61,3,2.72,5.2.14,2.62-.91,3.81-3.25,4.93a15.17,15.17,0,0,1-5.9,1.3c-4.95.21-10.14-1.14-13.71-4.57S7.28,59.9,9.57,55.51c.64-1.22,1.46-2.43,2.22-3.58.54-.81,1.46-1.39,1.91-2.23.36-.67.41-1.57,1.08-2A.48.48,0,0,1,15,47.63Z"/><path class="cls-2" d="M6.19,27.74a1.7,1.7,0,0,0-1.05-.94c-1.48-.46-2.46.08-3.79-1.21A4.93,4.93,0,0,1,0,21.75C.09,20.45.87,19,2.15,19a3.36,3.36,0,0,1,2.34,1.54c-.89-4,.62-7,2.87-10.31a22.59,22.59,0,0,1,7.79-7A25.18,25.18,0,0,1,32.4.63,22.72,22.72,0,0,1,41,4.53,14.78,14.78,0,0,1,44.42,8c.57.83,2.1,3.29,1.6,4.36A3.79,3.79,0,0,1,48.22,10a2.66,2.66,0,0,1,2.49.87A5.44,5.44,0,0,1,52,15.42a5.38,5.38,0,0,1-.92,2,4.08,4.08,0,0,1-1.39,1.38,4.47,4.47,0,0,1-1.77.35c-.09,1.41.45,2.82.17,4.34a11.65,11.65,0,0,1-1.85,4.38c-3.13,4.68-9.07,7.36-14.43,8.5-3.33.72-6.5.23-9.87.44A16.72,16.72,0,0,1,6.19,27.74Z"/><path class="cls-7" d="M39.31,15.53c-1.26-1-3.43-2.08-4.55-.46A15.36,15.36,0,0,0,34,16.93c-1.56-4.5,4.37-5.33,5.33-1.4Z"/><path class="cls-7" d="M20.62,20.52c-.86-1-1.73-2.4-3.1-1.89s-1.79,1.91-2.34,3.23a4.42,4.42,0,0,1,0-2.47c1.36-3.36,5.33-2.41,5.4,1.13Z"/><g class="cls-8"><path class="cls-9" d="M31.08,22.52c-.77,3.08-2.09,3.83-3.86.73A7.92,7.92,0,0,1,29,24.34c.17.1.21.09.27.06.49-.34,1.12-1.46,1.77-1.88Z"/></g><g class="cls-10"><path class="cls-11" d="M38.25,9.91c-1.56-.65-2.5-.22-3.62,1-.17-2,2.82-2.93,3.62-1Z"/></g><g class="cls-10"><path class="cls-11" d="M19.38,13.76a4,4,0,0,0-3.94.86c-.06-1.92,3.08-2.45,3.94-.86Z"/></g><g class="cls-8"><path class="cls-9" d="M29.83,20.39c.69-2.57-4.09-1.67-2.85.54a1.29,1.29,0,0,1-.53-1.71,2.21,2.21,0,0,1,3.49-.62,1.22,1.22,0,0,1-.11,1.79Z"/></g><path class="cls-12" d="M35.89,48,48.6,44.87a1.94,1.94,0,0,1,.68,0l13.4,1.64-12.2,3.22Z"/><path class="cls-13" d="M35.48,48.33V63.07a.37.37,0,0,0,.3.36L50.1,66.32a.37.37,0,0,0,.44-.36V49.87a.37.37,0,0,0-.33-.36L35.89,48A.37.37,0,0,0,35.48,48.33Z"/><path class="cls-14" d="M62.68,46.47V62.54L50.3,66.3V49.72a.26.26,0,0,1,.19-.24Z"/><polygon class="cls-12" points="60.01 60.52 54.7 61.75 51.39 57.43 53.39 51.87 58.7 50.64 62 54.97 60.01 60.52"/><polygon class="cls-12" points="45.69 61.96 42.29 59.82 38.65 61.51 39.58 57.49 36.92 54.44 40.89 54.1 42.89 50.53 44.42 54.33 48.31 55.18 45.28 57.86 45.69 61.96"/><path class="cls-2" d="M36.69,57.8c-7.82-3.12-16.44-6.73-18.95-15.6A7.55,7.55,0,0,1,17.31,39,4.14,4.14,0,0,1,21,35.64c3.7-.27,5.06,3.5,6.78,6.4a22.94,22.94,0,0,0,2.46,3.61c2.57,2.91,6.42,4.23,8.59,7.52a2.38,2.38,0,0,1,1.6-.83c1.09-.05,2.18.7,3.2.25.37-.16.68-.47,1.05-.6a.71.71,0,0,1,1,.4,1,1,0,0,1-.08.53,2.27,2.27,0,0,1-1.64,1.16,4.19,4.19,0,0,0-1.87.74,15,15,0,0,1,4.27,1.66,1.94,1.94,0,0,1,1,1.16.56.56,0,0,1,0,.34c-.1.31-.47.37-.76.34-1.43-.19-2.54-1.2-4.05-1.29l1.91,1.3a9.09,9.09,0,0,1,1.61,1.05.78.78,0,0,1,.18.77c-.59,1.44-3.81-1.1-4.4-1.52,1.16.82,2.43,1.49,3.56,2.32a1,1,0,0,1,.25.24.63.63,0,0,1-.36.8,1.21,1.21,0,0,1-.89-.1,12.7,12.7,0,0,1-3.14-2,4.42,4.42,0,0,0,1.18,2.44c.27.32.87,1.28,0,1.33-1.16,0-2-1.53-2.44-2.55a1.64,1.64,0,0,0-.35-.65,1.45,1.45,0,0,0-.74-.25A3,3,0,0,1,36.69,57.8Z"/><path class="cls-3" d="M42.69,63.59a4.3,4.3,0,0,1-1.4-1.05c-.8-1-.59-2.53-1.22-3.57s-2.19-.87-2.72-2.12c-.15-.35-.2-.79-.48-1a1.08,1.08,0,0,0-.52-.18C33,55.09,29.44,53.09,26.6,51a22.16,22.16,0,0,1-7.15-9.08,8,8,0,0,1-.79-3.13,3.5,3.5,0,0,1,1.26-2.87,4.17,4.17,0,0,0-2.56,3.14,7.55,7.55,0,0,0,.42,3.19c2.52,8.87,11.14,12.48,18.95,15.6A3,3,0,0,0,39,60.31a1.52,1.52,0,0,1,.75.25,1.69,1.69,0,0,1,.35.65C40.33,61.89,41.84,64.68,42.69,63.59Z"/><path class="cls-2" d="M18.1,58.1c1.24-.59,2.51-1.14,3.78-1.64a5.56,5.56,0,0,1,3.31-.55A4.87,4.87,0,0,1,28,58.3a18,18,0,0,1,1.5,3.77c.29.92,2.09,11.56,2.33,11.48,1.82-.63,2.13-2.79,2.55-4.67s1.29-4.76,3.12-5.2a1.28,1.28,0,0,1,1,.14,1,1,0,0,1,.35,1.06c-.14.36-.56.59-.51,1,.13-.43.72-1.22,1.16-1.12a.94.94,0,0,1,.67.75,1,1,0,0,1-.34,1,.67.67,0,0,1,1,0,.8.8,0,0,1-.17,1.12c.28-.3.79.11.77.55a.94.94,0,0,1-.76.85.74.74,0,0,1,.5.78.85.85,0,0,1-.56.73c-.18.06-.41.07-.53.25a1,1,0,0,0-.07.56c0,1.65-1.89,3.08-2.73,4.18a34.75,34.75,0,0,1-3.25,3.78C32.38,81,30,82.2,29.56,78.51c-.26-2.33-2.53-3.91-3.84-5.46a12.55,12.55,0,0,1-2.89-7.22c-1.1,1.83-2.34,4.11-4.37,4.67a5.34,5.34,0,0,1-5.22-1.6A6.27,6.27,0,0,1,11.63,64a6,6,0,0,1,1.79-3.46C14.81,59.2,16.48,58.88,18.1,58.1Z"/><path class="cls-3" d="M20.68,61.09a7.68,7.68,0,0,1,.63-.5,7.48,7.48,0,0,1,2.77-1.29,3.42,3.42,0,0,1,3.27.62,3.87,3.87,0,0,1,.82,1.69c1.16,4,1.4,8.26,2.31,12.35a.41.41,0,0,0,.18.33.44.44,0,0,0,.3,0c2.43-.58,3-3.37,3.49-5.45.42-1.89,1.28-4.76,3.12-5.2a1.29,1.29,0,0,1,1,.14A1,1,0,0,1,39,64.84c-.14.36-.56.59-.52,1,.13-.43.73-1.22,1.17-1.12a.92.92,0,0,1,.66.75,1,1,0,0,1-.33,1,.67.67,0,0,1,1,0,.8.8,0,0,1-.17,1.12c.28-.3.79.11.77.55a1,1,0,0,1-.76.85.72.72,0,0,1,.49.78.83.83,0,0,1-.55.73c-.19.06-.42.07-.53.25a1,1,0,0,0-.07.56c0,1.65-1.89,3.08-2.73,4.18a34.75,34.75,0,0,1-3.25,3.78c-1.73,1.66-4.14,2.91-4.55-.79-.26-2.32-2.53-3.9-3.84-5.45a12.48,12.48,0,0,1-2.89-7.22c-1.07,1.77-2.2,3.61-3.86,4.6a3.84,3.84,0,0,1-5.18-1.06c-1.56-2-1.63-4.19.73-5.54a11.73,11.73,0,0,1,3-1.21,9.31,9.31,0,0,0,1.66-.48A7,7,0,0,0,20.68,61.09Z"/><path class="cls-15" d="M22.47,0a10.31,10.31,0,0,1,7.21,2.53c3.09,2.87-1.12,4.54,4,7.44,0,0-2.55,1.37-6.9-2.61,0,0,1.56,4.31,4.66,5.54,0,0-3.68,1.39-9.6-3.71a4.66,4.66,0,0,0,2.42,3.72s-6.17.34-8.11-4.5.35-6.85,2.22-7.24A37.91,37.91,0,0,0,22.47,0Z"/></g></g></g></svg>