<svg xmlns="http://www.w3.org/2000/svg" viewBox="0 0 195.41 196.4"><defs><style>.cls-1{fill:#fff4cb;}.cls-1,.cls-2{fill-rule:evenodd;}.cls-2{fill:#fffde3;}.cls-3{fill:#9d7862;}</style></defs><g id="Layer_2" data-name="Layer 2"><g id="Layer_1-2" data-name="Layer 1"><path class="cls-1" d="M160.65,24.76Q148.86,41.14,136.71,61c-33,53.88-90.78,75-121.58,82.65A95.74,95.74,0,0,0,85.81,193a83.33,83.33,0,0,1,8.42-8.66c24-21.53,56.07-32.31,88.54-39.07a95.23,95.23,0,0,0,7.78-17.8c.66-2,1.24-4.13,1.76-6.24a95.76,95.76,0,0,0-31.66-96.46Z"/><path class="cls-2" d="M85.81,193a95.71,95.71,0,0,0,97-47.73C150.3,152,118.18,162.8,94.23,184.33A83.33,83.33,0,0,0,85.81,193Z"/><path class="cls-2" d="M153.62,19.42A95.71,95.71,0,0,0,11.93,137.11q1.47,3.33,3.2,6.52c30.8-7.7,88.56-28.77,121.58-82.65q12.16-19.86,23.94-36.22Q157.26,21.93,153.62,19.42Z"/><path class="cls-3" d="M159.5,27.2c-.63-.6-.68-.05-.83-.07C159.81,28,159.55,27.09,159.5,27.2Z"/><path class="cls-3" d="M170.41,36.53l-.31-.07c.59.43,1.14.89,1.71,1.34Z"/><path class="cls-3" d="M178.48,47.31a6.43,6.43,0,0,0-1.56-2.83,25.77,25.77,0,0,1-2.5-3.22l-.1-.43c-.38-.16-.75-.33-1.14-.48l3,3.61A22.64,22.64,0,0,1,178.48,47.31Z"/><path class="cls-3" d="M180.71,54.27c0-.27.26,0,.29.07s-.15-.22-1-1.55a2.27,2.27,0,0,1,.08.29C180.2,53.33,180.42,53.66,180.71,54.27Z"/><path class="cls-3" d="M180.06,53.08c-.72-1.19.25.91,0,0Z"/><path class="cls-3" d="M183.18,58.72c-.32-.52-.71-1-1.06-1.52,0,.41.72,1.89.34,1.4C183.35,60.25,183.36,59.83,183.18,58.72Z"/><path class="cls-3" d="M184.4,60.09l-.5-.83C183.91,59.45,184,59.69,184.4,60.09Z"/><path class="cls-3" d="M182.83,57.53c.39.56.73,1.14,1.07,1.73,0-.29.22-.43-.45-.81C183.72,58.5,183.37,58.22,182.83,57.53Z"/><path class="cls-3" d="M182.41,56.45c-.33-1-.85-2.24.23-.7C180.93,52.63,180.7,53.37,182.41,56.45Z"/><path class="cls-3" d="M179.52,47.47l-.59-1.31-.88-.88C178.49,45.72,179.37,47.67,179.52,47.47Z"/><path class="cls-3" d="M187,69.49c.19.06.22-.72.38-.92-.21-.41-.38-.83-.61-1.23C186.94,68,187.22,69.33,187,69.49Z"/><path class="cls-3" d="M187.41,68.57l.88,1.86C187.77,68.68,187.54,68.4,187.41,68.57Z"/><path class="cls-3" d="M185.3,60.05c-.65-.95-1.23-1.92-1.94-2.82.8,1.09,1.47,2.27,2.22,3.41Z"/><path class="cls-3" d="M189.12,76.93l-.65-1c.35.61.72,1.22,1.05,1.85C189.41,77.48,189.25,77.21,189.12,76.93Z"/><path class="cls-3" d="M190.23,81.94c-.47-.78-.29,1.23-.66.38a23.39,23.39,0,0,0,1.09,3.52A15.93,15.93,0,0,1,190.23,81.94Z"/><path class="cls-3" d="M191.27,87.58c-.16-.56-.38-1.13-.61-1.74A11.62,11.62,0,0,0,191.27,87.58Z"/><path class="cls-3" d="M189.2,73.79a2.92,2.92,0,0,0,0,1.67l.24-.89C189.33,74.33,189.26,74.06,189.2,73.79Z"/><path class="cls-3" d="M189.4,74.54v0c.21.85.35,1.44.41,1.69Z"/><path class="cls-3" d="M189.15,73.59a1.17,1.17,0,0,0,0,.2A.17.17,0,0,0,189.15,73.59Z"/><path class="cls-3" d="M187,65.19c.66,1,1.83,3.32,1.32.9C187.69,65.38,188,66.76,187,65.19Z"/><path class="cls-3" d="M189.45,72.47c-.17-.71-.37-1.41-.56-2.11-.1.07-.15.5-.45,0C188.77,71,189.13,71.75,189.45,72.47Z"/><polygon class="cls-3" points="189.85 73.47 189.44 72.47 189.61 73.27 189.85 73.47"/><path class="cls-3" d="M191.17,83.85a18.07,18.07,0,0,1,.68,3.06c-.09-1.24-.22-2.52-.39-3.73C191.29,83,191,82.54,191.17,83.85Z"/><path class="cls-3" d="M190.46,79.3l.07.2C190.54,79.36,190.53,79.26,190.46,79.3Z"/><path class="cls-3" d="M192.55,98.3l.08-.19-.08,0Z"/><path class="cls-3" d="M191.51,83a4.45,4.45,0,0,0-.53-2,16.48,16.48,0,0,1,.48,2.19C191.53,83.24,191.58,83.25,191.51,83Z"/><path class="cls-3" d="M191.75,90.71c.06-.49.09-1,.12-1.63A4.08,4.08,0,0,0,191.75,90.71Z"/><path class="cls-3" d="M190.47,79.83l-.05-.13C190.38,80,190.42,80,190.47,79.83Z"/><path class="cls-3" d="M190.47,79.83A10,10,0,0,0,191,81a15,15,0,0,0-.45-1.49A2.46,2.46,0,0,1,190.47,79.83Z"/><path class="cls-3" d="M195.41,101.86c-.42-.19-.69-2.7-.32-4.88-.38-2.14-1.73-.68-2.46,1.13.18.07.37.06.59,2.23.12-.38.28-1.57.41-2.46s.29-1.44.51-.52c.26,2.89-.15,2.37-.39,3.76.58-1.18.61,3.71,1.4,3.13-.05-.86-.09-1.72-.15-2.57C195.12,101.63,195.28,102.57,195.41,101.86Z"/><path class="cls-3" d="M192.56,94l-.08-.88a15.54,15.54,0,0,1-.49,3.07c.25,1.45.42,1.76.56,1.86l-.06-4.35Z"/><path class="cls-3" d="M192.15,89.18c.52.64.9,2.76,1.28,1.42-.26-2.62-.52-1.8-.88-3.33.5,4.18-.35-1.18-.35,1.87-.15-.81-.21-1.55-.35-2.23a17.56,17.56,0,0,1,0,2.17l0-.1v0h0c0-.19.07-.25.06,0,0,0,0,.07,0,.09a.43.43,0,0,1,.19.17c0,1.22-.1.2-.19-.17,0,0,0,0-.07,0h0c.19,1.38.41,2.77.59,4.16A33.58,33.58,0,0,0,192.15,89.18Z"/><path class="cls-3" d="M190,67.91c0,.14,0,.15-.06.17C190.06,68.33,190.13,68.41,190,67.91Z"/><path class="cls-3" d="M190.25,69.68a4,4,0,0,1-.67-1.44c-.14-.88.21-.07.34-.16-.3-.55-1-1.93-.59,0l.15.27a11.36,11.36,0,0,1,.34,3.68A5.76,5.76,0,0,0,190.25,69.68Z"/><path class="cls-3" d="M191.86,79.53c.28,1.14.65,2.28.87,3.44.06-.62.07-1.24.08-1.85l-.22.13C192.29,79.25,192.09,79.74,191.86,79.53Z"/><path class="cls-3" d="M192.32,98.7l-.48-.47c.22.67.45,1.34.66,2Z"/><polygon class="cls-3" points="192.25 103.22 191.84 103.03 192.02 104.23 192.25 103.22"/><path class="cls-3" d="M6.83,131.17l-.47-1A9.86,9.86,0,0,0,6.83,131.17Z"/><path class="cls-3" d="M9.72,138.44l.28.08C9.73,138.25,9.59,138.15,9.72,138.44Z"/><path class="cls-3" d="M128.84,186.5c-1.55.08-3.29,0-3,.39l.57.3A11,11,0,0,1,128.84,186.5Z"/><path class="cls-3" d="M53.75,182.5l.33.33,1.13.07Z"/><path class="cls-3" d="M51.87,183.63l-1.63-1.29A18.91,18.91,0,0,0,51.87,183.63Z"/><path class="cls-3" d="M1.13,89C1,88.6.87,88.16.78,87.72.59,89.71.92,88.86,1.13,89Z"/><path class="cls-3" d="M178.7,147.07c-.84,1-1.38,1.87-1.95,2.57C177.86,148.52,178.79,147.62,178.7,147.07Z"/><path class="cls-3" d="M12.49,132.26c-.32-.55-.49-.78-.58-.72C12.2,132.12,12.43,132.42,12.49,132.26Z"/><path class="cls-3" d="M174.62,152.68c.17-.16.32-.33.48-.49a27,27,0,0,1,1.65-2.55A9,9,0,0,0,174.62,152.68Z"/><path class="cls-3" d="M109.33.45l.34.09C109.71.48,109.56.46,109.33.45Z"/><path class="cls-3" d="M149.22,19c-.38-.2-1-.56-1.53-.89A14.16,14.16,0,0,0,149.22,19Z"/><path class="cls-3" d="M189.31,121.14c.23-.93,0-.16,0,0Z"/><path class="cls-3" d="M192.16,117c0,.21,0,.38.14.42A.68.68,0,0,1,192.16,117Z"/><path class="cls-3" d="M170.78,162l-.06.06C171,161.94,170.94,162,170.78,162Z"/><path class="cls-3" d="M189.88,119.8c-.14.33-.28.73-.44,1.15A8.59,8.59,0,0,0,189.88,119.8Z"/><path class="cls-3" d="M189.62,119.93l.24-.8C189.81,119,189.74,119.09,189.62,119.93Z"/><path class="cls-3" d="M189,122.43c.14-.53.3-1,.47-1.48-.08.18-.13.24-.13.19C189.24,121.41,189.14,121.8,189,122.43Z"/><path class="cls-3" d="M33.62,26.87l.19-.11C34.42,25.92,34.11,26.25,33.62,26.87Z"/><path class="cls-3" d="M104.62,195.93l.11,0h-.15Z"/><path class="cls-3" d="M101,196.4a6.62,6.62,0,0,1,3.58-.5l-1.25-1.3Z"/><path class="cls-3" d="M2.15,113c0,.87,0,1.73,0,2.6-1.22-2.94-1.25-5.25-1.5-2.75.74.08,1.14,2.56,1.68,5s1.19,4.87,1.93,4.86c.05.57.08,1.15.14,1.71-.12-.47-.22-.52-.33-1,.22,3.36,1.63,2.08,2.73,6.13.36,1.43.53,2.46,0,1.58.5,1,1,2,1.49,2.94.32.89,0,.77-.32-.12.65,1.53,1.31,3.06,2.05,4.55l-.05,0c.52.55,1.55,1.85,2,2.48.37,1.23-.41-.5-.43-.13l1.52,2.31c.16,1.18-1.17-.7-2-2.44a3.47,3.47,0,0,0,.82,2.74A14.09,14.09,0,0,1,13,145a17.28,17.28,0,0,1,1.41,2.91l-1.47-2.18a7.88,7.88,0,0,0,.89,2.81c.24.51.5,1,.78,1.62s.61,1.19.91,1.89c-.25-.71-2-5.78-.16-3.36a9.1,9.1,0,0,0,2,3c-.42.28.53,1.56,1.68,3.17l-.64.29c1.45,1.62,1.63,1.27,2.62,2.1,1.36,2,1.28,2.66,1.3,3.37,2.39,3-1-2.56,2,.83.46.65.91,1.24,1.37,1.79a19.41,19.41,0,0,0,1.49,1.52c1.06,1,2.17,2,3.68,3.16,1.45,1.69-.57,0-.13.72l1.81,1c.34.34.11.36,0,.36,1.36,1,.55-.37,2.6,1.21,1-.14,3.32,4.35,6.48,5.53.52.63-.55.11-.51.47a38,38,0,0,0,3.56,1.9c.77.37,1.48.66,3.18,1.33.78.69,1.61,1.3,2.41,2-1.69-1.59,1.12-.64,3.51.16-.57-.61-1-1.14-1.38-1.45.6.27,1.19.56,1.8.82l1.84.73c.37.31-.09.34-.8.3l.73.19c1.14.86.32.88-.77.76l-1.09-1c-1.07-.08-2.08-.18-2.1.28a8.54,8.54,0,0,1,1.23.5c-.29,0-.47,0-.4.1s.53.19,1.2.33l.46,1.09.34-.16c1.51.93,3,1.91,4.57,2.73,1.91.39,3.69.73,5.76,1,1,.15,2.11.34,3.28.6s2.49.46,3.92.82c-1.56.12-.56.79-.83,1.4a7.41,7.41,0,0,0-3.14-1.1,28.66,28.66,0,0,1-4.26-1.25c1.5.62,1.06.8.63.76,1.83.42,3.62.93,5.47,1.22-.29.48,1,.72,2.34,1.36-.37-.69.66-.52,2.08-.24s3.25.69,4.38.78c.06.39-.54.62-3.21-.1a5.35,5.35,0,0,0,3.44.57,6,6,0,0,1,3.43.29c-.66-.11-1-.22-1.3-.09,1.6,0,5.32.86,4.4,1l-.67-.1a54.36,54.36,0,0,0,8.51.82c2.93.05,5.37-.21,5.7-.66a3.28,3.28,0,0,1-.86,1.27c2.68-1,5.27-2.18,7.78-3.3-.32.42.21,1,.38,1.64s0,1.24-1.88,1.51a12.56,12.56,0,0,0,1.88,0,19.71,19.71,0,0,0,2.74-.44c-.74,0-1.9-.94-.93-1.11a16.64,16.64,0,0,0,2.43.4c.56,0,1.2.12,2.91.2-1.1,0-.08-1.4,1.6-1.65-.24.23.34,1.17-.26,1.4l4-1.91c-1,.38,0,1.07,1,1.15-.48-.12,3.62-.85,4.7-1.24l-1.84.16a11.3,11.3,0,0,0,2.73-.86,11.67,11.67,0,0,0,1.68-1.14,11.62,11.62,0,0,1,4.22-2.25,1.08,1.08,0,0,0-.29,1c.14.35.64.57,1.8.18a33.51,33.51,0,0,1,7-6.69l.87,0,1.34-.85,1.28-.94a19.18,19.18,0,0,1-1.41,1.72c-.62.65-1.35,1.39-2.12,2.13s-1.59,1.51-2.37,2.22-1.58,1.22-2.24,1.68c1.79-.41.64.23,3.14-.85.51,0,.22.22-.28.55s-1.27.64-1.64.8c2-.65,3.95-1.6,5.92-2.42-.29-.27.75-.92,1.75-1.63s2-1.46,1.74-1.66c-.95.64-1.86,1.37-2.85,1.95l-3,1.8c-.55-.57,2.77-3.41,6.62-5.53,1.13-.3-.11,1.52.08,1.69a12.18,12.18,0,0,1,2-1.43,13.07,13.07,0,0,1,1.92-1.18l-1.4,1.34c2.25-1.12,2.93-3,5.79-4.06.85-.58,3-1.09,2.93-1.54-1.86.35-3.58-1.53-3.07-2.67l2.61-1.35c1.26-.68,2.58-1.48,3.16-1.68,1.7-.6-.94,2.8.5,2.3-.08-.19.49-1,.73-1.29.94-.57.05.75,1.8-.83-.13-.74,3.51-3.23.43-1.19,1.51-1.73,1.86-1.57,3.78-3.46-.48.13-.32-.56.12-1.52a15.15,15.15,0,0,1,1.76-3.12c0,.22.57,0,.82-.1,1.64-1.65,2.74-3.05,3.93-4.33.58-.66,1.18-1.29,1.74-2s1.13-1.51,1.76-2.4c.37-.22,1.76-1.83,1.5-.92a15.62,15.62,0,0,1,1.07-2.34c1.9-1.89-1.5,2.6.19,1.33-.26-.38,1.33-3.3,2.09-5.07-.89.17-2.35,3.73-3.22,5.46-.7-.46.24-3.8,2.14-7.82,1.49-3.21,1.24-1.08,1.42-1.68a15.39,15.39,0,0,0,2-5.7,13.35,13.35,0,0,1,1.71-4.86c1.3-1.85,1.1.3,1.66,0-.83,2.81-2,4-2.77,5.82.41-.7.82-1.41,1.22-2.12a12.71,12.71,0,0,1-1.45,3.66,30.49,30.49,0,0,0,3-6.35c.6-1.52,1.19-3.16,1.74-4.72s1-3.08,1.46-4.3c.07-1,.31-2.53-.12-1.86l-.37,1.6c-.85,1.32.22-3.13-.55-1.19a49.62,49.62,0,0,1,1.1-7.62l.75-.46a6.36,6.36,0,0,0-.71,2.79c0-1.29,1.71-4.5,1-6l-.76,2.06c0-2.22-.35-5,.07-7.6-.76,1.16,0,.63-.91,2.45.55-.77.38.93.17,2.51s-.44,3,.25,1.78c-1.17,1.8-.91,3.3-2.16,5.64.22,0,.6-.8,0,1.37a2.52,2.52,0,0,1,.07.52l-.05.15.05-.12c0,.1,0,.11,0,0a4,4,0,0,1,.58-1c.29,1.22-.72,4.68-.81,5.93-.47,1.27-.09-.61-.51,0l-.12,1.86c-.48,0-1.85,3.14-1.14.07-.29.89-.6,1.78-.92,2.67a26.35,26.35,0,0,0-2.08,4.93c-.61,1.18-.87,3.29-.74,2.08-.51,1.39-1.05,2.77-1.64,4.13h-.12c-1,1.94-1.93,4-3.09,6-.57,1-1.16,2.06-1.84,3.06a27.59,27.59,0,0,1-2.42,2.82c-.37.63-.75,1.29-1.23,2s-1.14,1.48-2,2.4l-.62.12c-1,1.62-4,4-4.24,4.88a7.11,7.11,0,0,0-2,1.35c-.78.64-1.63,1.45-2.49,2.31a45.58,45.58,0,0,1-4.93,4.51l.25.5c-.86.74-1.75,1.43-2.67,2.18s-1.88,1.58-3,2.51l.41.29c-1.86,1.67-5.46,3.25-8.88,5.08a4.19,4.19,0,0,1,1.7-1,15.06,15.06,0,0,0-3.27,1.42c-1,.6-2.12,1.15-3.14,1.78s-2,1.25-3.09,1.75a14.9,14.9,0,0,1-3.15,1,7.34,7.34,0,0,1-2.38.92.77.77,0,0,0,.24-.12,3.2,3.2,0,0,1-.41.14l-1.47.2a10.62,10.62,0,0,0,1.25-.12c-.77.25-1.92.67-3,1.15l-.64-.34-.26.1c-1.17.17-.84.52-.12.7-.56.26-1.06.54-1.45.77-1.15-.57-3,1-4.5.48-.67.72-5.88,1.43-6.38,2.46-.06-.11-.43-.1.22-.22A22.21,22.21,0,0,0,110,192l-.64-.6-2.86,1.18c-1.83-.26-2.58-.52-.84-1.06-4.24.9-3.45.44-7.11,1.27l.18-.42c-1.3,0-3.42.5-4.2.11-1.44-.48-5-.71-9.18-1.39A57.54,57.54,0,0,1,73.12,188c1,1.6-3.17-1.51-3.73-.71-.32-.43-1.23-.95,0-.77a35.07,35.07,0,0,1-4.31-1.61,11.39,11.39,0,0,0-3.57-1.13c-.28-.44.92-.07.63-.38a3.57,3.57,0,0,1-1.49-.57c-.28-.31.61,0,1.21.12a10,10,0,0,0-3.53-1,1.83,1.83,0,0,0-1.37.65,7.79,7.79,0,0,0-4-1.89c-.47-.59-1.31-1.42.83-.28-.57-.37-2.33-1.5-4-2.49s-3.13-2-3.38-1.75a8.75,8.75,0,0,0-1.89-1.28L42,173c-.66-.5-1.32-1-2.48-1.95l.57.62c-1.44-.14-2.06-1.47-4-3l.11,0a16.72,16.72,0,0,0-2.79-2.87,7.45,7.45,0,0,1-.87-.77c-.37-.42-.89-1.09-1.71-2.21l-.17.58c-.58.19-1.31-.83-2.19-2.13a18.66,18.66,0,0,0-3-4.12l.52,1.07a3.67,3.67,0,0,1-.92-1.23,13.58,13.58,0,0,1-.64-1.77,15.86,15.86,0,0,0-1.16-3.24c-.14-.36.49.39.86.77-1.11-2-1.25-2.07-1.49-1.9s-.45.48-1.45-.9c0-.72,1.21.16,0-1.77a5.4,5.4,0,0,0-.89-1.28l-1.57-2a27.35,27.35,0,0,1-1.69-2.41,11,11,0,0,1-1-2.48c.05.74.11,1.48-.78.15a31.34,31.34,0,0,1-1.6-4.17A10.81,10.81,0,0,0,11.86,132c0-.32,0-.45.05-.49C11,129.9,9.57,126,8.81,125c.61-1.08-.4-3.76-1.18-6.33s-1.44-4.94-.64-5q-.51-2.81-.84-5.63l.18.13A19.66,19.66,0,0,0,5.21,102c.08-.85.26-.24.35-.17.06-2.67.16-4.13.12-5.49s-.28-2.61-.48-4.87L5.76,91c-.29-1.27,1.54-7.56,2.07-12.75,0,.06.12.19.1.61a26,26,0,0,1,1-4.58c.53-1.54,1.06-3.09,1.65-4.49A34.84,34.84,0,0,0,12,66a4.47,4.47,0,0,0,.21-2.71c.3-1.27.69-2.52,1.09-3.77-2.22,4.55-.46-1-1.61.75.73-1.89,2.66-4.48,1.74-2.2l-.24.31c.28.63,1-.79,1.78-2.23s1.61-3,1.89-2.79A91.44,91.44,0,0,1,34.66,31l-1.31.18,2.37-2.21c.74-.45,1.23-.32-.45,1.23a7.39,7.39,0,0,0,2.55-3c3.61-2.71-.73,1.84.33.95l1.37-1.27-.38.21a10.3,10.3,0,0,1,3-3.25c1.47-1,1-.18,1.56-.56,0,.05.23-.07.87-.59,1.13-.75,2.2-1.57,3.36-2.26-.57.12-1.14.24-1.69.4,1.31-1.29,3.23-2.06,1.26-1.64a15.26,15.26,0,0,0,3.29-1.48c1.43-.69,3-1.66,4.66-2.49a57,57,0,0,1,7.28-3.39A28.53,28.53,0,0,1,66.22,10c1.22-.54,2.57-.92,4-1.41-.77.13-1.44-.4,1.15-1.16-.52,1.66,4.89-.82,7.24-.2-1-.1.82-.62,2.53-1s3.29-.78,1.71-1c2.22-.28.23.5,1.94.54,5.16-1.37,11.61-.92,18.08-.89.11-.19-1-.51.44-.74l3.39,1.14c1.28,0,1.28-1,3.56-.09-.32-.19-.79-.48.08-.45a156.9,156.9,0,0,1,19,4.45A55.27,55.27,0,0,1,146.84,18c-1.33-1.2-.29-.66.85,0-.7-.53.26-.39.25-.7.71.58,1.43,1.14,2.13,1.73l2.07,1.8c1.26-.06,4.77,3.36,5.61,3.21l-1.45-1c1.16.39.8-.45.22-1.47s-1.36-2.19-.92-2.51c-1.34-.41-2.61-1.62-4.09-3A24.23,24.23,0,0,0,149,14.36a9.83,9.83,0,0,0-3-1.25c-.74-.65.88.12.55-.34a12.14,12.14,0,0,1-4.52-2l.3,0c-3.17-1.45-5.41-2.52-7.8-3.57-1.19-.52-2.4-1.07-3.8-1.61s-2.95-1.12-4.82-1.74l.42.65a22,22,0,0,1-2.64-1.08c-1,.13.11.44,1.27.75s2.31.73,1.35.88a7.53,7.53,0,0,0-2.59-1.17c-.59-.19-1.24-.37-1.92-.56l-2.09-.47c-1.4-.33-2.79-.58-3.91-.86a6.26,6.26,0,0,1-2.31-.9c-2.58-.36.67.68-1.9.32L111,1l-.7.33c-1.68-.23-2.5-.7-2.55-1,.41.07,1.18,0,1.63.06a16.25,16.25,0,0,0-4-.41c-1.38,0-2.58,0-3,0,.83.07,1.66.19,2.49.3C97.74.12,89,.32,82.35,2.18l.55.14c-1.26.34-2.15.54-2.86.66s-1.24.24-1.79.31-1.12.16-1.89.3L75,3.88l-1.77.55.19-.12a26.91,26.91,0,0,1-4,1.53c1.29-.73-2.74.36-1-.55-1.31.57-2.12.93-2.65,1.19a6.47,6.47,0,0,0-1,.59,14.53,14.53,0,0,1-2.07,1.66l-1-.05A11.9,11.9,0,0,1,58.22,11c2-1.27-1.91.2.28-1.28a16.72,16.72,0,0,0-3.68,1.52,22.94,22.94,0,0,0-2.63,1.62,9.23,9.23,0,0,1-4.17,2c-.86,1.22.29.61,1.56-.07s2.63-1.53,2-1.05c1.3-.3-1.58,1.79-3.18,2.71a11.12,11.12,0,0,1-2.85,1A15.46,15.46,0,0,0,41,19.87c.39-.28.37-.36.77-.64-1.66.82-2.58,2.47-4.62,3.47-.51,1.31-2.2,1.85-1.92,2.72,1.08-1,2.11-2.05,3.25-3a32.7,32.7,0,0,0-2.56,3c-.45.54-1,1.09-1.57,1.67a17.79,17.79,0,0,1-2.08,1.82,12.86,12.86,0,0,1,1.36-2c-1,.65-1.56,1.72-2.64,2.4-.17-.43.77-1.39,1.94-2.53a32.49,32.49,0,0,0,3.46-3.52c-1.23.58-3.44,3.81-3,2.23-.61,2.2-3.61,3.16-5.19,6.19l-.22-.5a24.67,24.67,0,0,1-1.5,2.08c.21-.58.43-1.16.67-1.72a13.58,13.58,0,0,1-2.57,2.91A12.08,12.08,0,0,0,22,37.24c1.64-2.13,2-2.22,2.08-2s0,.7.86,0a22.13,22.13,0,0,1-2.13,2.74,6.44,6.44,0,0,1-1.47,1.13c-1,.58-2,1.27-4,4.38.49-.88,2.42-2.9,1.7-1.49a39.25,39.25,0,0,1-2.77,3.12c-2.56,4.19.85-.36,0,1.56-1.44,1.07-1,2.2-1.91,4.12l-.46-.23c-1.52,2.34-1.37,2.83-1.3,3.2s.19.69-1.08,2.84c.07-.75.2-1.47.3-2.21-.34.81-.69,1.6-1,2.43L10.5,56a32.19,32.19,0,0,1-2.45,6c.58-.46.72.68-.13,3-.83,1.48-.16-1.06-1.21,2.26a3.91,3.91,0,0,1,.79-3.07c-.1-.21,0-.84-.11-1a11.25,11.25,0,0,0-1.22,2.88l-.78,2.61a9,9,0,0,1,.55-1.27c-.35,1.67-.54,3.38-.78,5.06-.4.71-.38.07-.36-.58-.22,1-.22,1.74-.49,3.22-.3-.47-.81-.5-.42-2.62-.32,1.59-.45,3.23-.69,4.83a9,9,0,0,0-.61,1.18c-.21.48-.39.83-.41.51a22.9,22.9,0,0,0-.55,4.75,34.89,34.89,0,0,1-.42,5.4,4.45,4.45,0,0,1,.12,1.33c-.09.83-.2,1.64-.31,2.44S.86,94.55.8,95.38.71,97.05.72,97.94A22.17,22.17,0,0,0,1,100.75L.33,103c.33,3.1.77-3.08,1.35,2.06.52,3.61-.53,1.41-.63,2.71A27.41,27.41,0,0,1,2.73,116,28.22,28.22,0,0,1,2.15,113Zm13.18,35.61c-.47-.58-1.5-1.69-1.5-2.31C14.76,146.77,14.84,147.46,15.33,148.64Zm42.89,37.24a5.23,5.23,0,0,1-2-1.15A10.7,10.7,0,0,1,58.22,185.88ZM186.57,131.3s0,.06,0,.08C185.82,132.77,186.09,132.28,186.57,131.3Zm1.31-3c0-.33,0-.33-.15-.23a4.93,4.93,0,0,1-.49,1.73A2.61,2.61,0,0,0,187.88,128.31ZM43.93,22.86l-.6.26C44.42,22.16,44.17,22.51,43.93,22.86Z"/><path class="cls-3" d="M52.11,183.51a.49.49,0,0,1-.13-.4C51.69,183,51.63,183.13,52.11,183.51Z"/><path class="cls-3" d="M1.2,89.28v-.12A.19.19,0,0,0,1.13,89Z"/><path class="cls-3" d="M162.55,172.87a5.43,5.43,0,0,1-1.21.67C161.39,173.66,161.7,173.54,162.55,172.87Z"/><path class="cls-3" d="M191,111.39c-.05.69-.12,1.38-.18,2.07a8.12,8.12,0,0,1,.45-1.82C191.16,111.67,190.93,112,191,111.39Z"/><path class="cls-3" d="M195,93.3c-.07-.31,0-.66-.13-1l-.23.1C194.73,93.76,194.92,94.68,195,93.3Z"/><path class="cls-3" d="M193,109.7c.45-.11.46-1.45.51-2.93a1.14,1.14,0,0,1,0,.26C192.9,106.54,193,108.12,193,109.7Z"/><path class="cls-3" d="M193.5,106.42c0-.45.05-.92.1-1.36C193.37,104.87,193.51,105.61,193.5,106.42Z"/><path class="cls-3" d="M188.8,124.27c.29-.64-.42-.57-.14-.9C188.34,122.47,188.05,128,188.8,124.27Z"/><polygon class="cls-3" points="194.53 108.67 193.93 109.14 194.26 110.02 194.53 108.67"/><path class="cls-3" d="M192.14,120.24c.23-.77.45-1.53.66-2.3-.09,0-.08-.29,0-.67A15.23,15.23,0,0,0,192.14,120.24Z"/><path class="cls-3" d="M192.76,117.27a9.61,9.61,0,0,0,.27-1.9C193,115.78,192.82,116.66,192.76,117.27Z"/><polygon class="cls-3" points="194.27 111.94 194.06 112.62 193.76 114.29 194.27 111.94"/><path class="cls-3" d="M182.87,144.06c-.37.79-.77,1.55-1.18,2.32,0,.32.48-.23.93-1.1C182.81,144.67,183.22,143.79,182.87,144.06Z"/><path class="cls-3" d="M187.71,137.61a2.91,2.91,0,0,1-.85.89l.56.35Z"/><path class="cls-3" d="M184.43,144.59c0,.32-1.45,3.6.19.66C184.59,144.92,185.71,142.52,184.43,144.59Z"/><polygon class="cls-3" points="158.24 174.06 158.78 173.66 158.03 172.86 158.24 174.06"/><path class="cls-3" d="M128.26,192.5c3.12-.71.52-.87,3.36-1.43.63-.46-2.32.46-1.66,0C128.22,191.92,127.21,192.08,128.26,192.5Z"/><path class="cls-3" d="M130,191.09q.42-.19.87-.45A7.13,7.13,0,0,0,130,191.09Z"/><polygon class="cls-3" points="154.78 23.46 156.18 24.81 155.41 23.76 154.78 23.46"/><path class="cls-3" d="M158.23,25.11l-.08.83,1.3.26A4.84,4.84,0,0,1,158.23,25.11Z"/><path class="cls-3" d="M17.23,154.21l.22,0a4.17,4.17,0,0,0-.79-1.6Z"/><path class="cls-3" d="M5.35,128.94l.14.46c.1-.35.21-.7.32-1.05Z"/><path class="cls-3" d="M0,106.05c.05,1,.3,2.08.37,3C.05,107,.75,105.73,0,106.05Z"/></g></g></svg>