<svg xmlns="http://www.w3.org/2000/svg" viewBox="0 0 117.59 117.29"><defs><style>.cls-1{fill:#fff4cb;}.cls-1,.cls-2{fill-rule:evenodd;}.cls-2{fill:#fffde3;}.cls-3{fill:#9d7862;}</style></defs><g id="Layer_2" data-name="Layer 2"><g id="Layer_1-2" data-name="Layer 1"><path class="cls-1" d="M38.34,5A57.75,57.75,0,0,0,6,37a56.82,56.82,0,0,0-2.88,9.31,57.51,57.51,0,0,0,20.66,57.58q2,1.58,4.11,3a57,57,0,0,0,8.75,4.71C46.8,91.9,51.35,69.34,53.11,50.77,54.61,35,48.9,18.62,38.34,5Z" transform="translate(0 -0.37)"/><path class="cls-2" d="M59.4,1a57.75,57.75,0,0,0-7.94.56A56.91,56.91,0,0,0,38.34,5C48.9,18.62,54.61,35,53.11,50.77,51.35,69.34,46.8,91.9,36.63,111.56a57.38,57.38,0,0,0,13.85,4,58.25,58.25,0,0,0,8.92.69A57.63,57.63,0,0,0,59.4,1Z" transform="translate(0 -0.37)"/><path class="cls-3" d="M59.81,2.58c-.52,0-.33.23-.41.28C60.26,2.82,59.79,2.51,59.81,2.58Z" transform="translate(0 -0.37)"/><polygon class="cls-3" points="68.45 2.31 68.28 2.39 69.59 2.35 68.45 2.31"/><path class="cls-3" d="M76.34,4.54c-.6-.65-2.84-.78-4.21-1.22l-.21-.15-.71.21c.85.18,1.86.3,2.78.5A15.94,15.94,0,0,1,76.34,4.54Z" transform="translate(0 -0.37)"/><path class="cls-3" d="M80.05,6.92c-.18-.26.91.2-.91-.41l.15.11Z" transform="translate(0 -0.37)"/><path class="cls-3" d="M79.29,6.62c-.78-.3.46.34,0,0Z" transform="translate(0 -0.37)"/><path class="cls-3" d="M82.91,8l-1.08-.31c.17.2,1,.62.69.54C83.59,8.65,83.42,8.46,82.91,8Z" transform="translate(0 -0.37)"/><path class="cls-3" d="M84,8.18c-.18-.07-.36-.14-.54-.19C83.53,8.07,83.66,8.14,84,8.18Z" transform="translate(0 -0.37)"/><path class="cls-3" d="M82.28,7.62,83.46,8c-.12-.13-.07-.28-.54-.19C83.07,7.72,82.79,7.74,82.28,7.62Z" transform="translate(0 -0.37)"/><path class="cls-3" d="M81.68,7.27c-.52-.36-1.26-.71-.16-.43C79.51,6.11,79.7,6.5,81.68,7.27Z" transform="translate(0 -0.37)"/><path class="cls-3" d="M76.88,4.22c-.25-.13-.51-.27-.77-.39l-.75-.05C75.74,3.8,76.89,4.36,76.88,4.22Z" transform="translate(0 -0.37)"/><path class="cls-3" d="M88.84,11.53c.11,0-.17-.42-.18-.57a7.27,7.27,0,0,0-.76-.33C88.24,10.89,88.87,11.38,88.84,11.53Z" transform="translate(0 -0.37)"/><path class="cls-3" d="M88.66,11l1.13.52C88.87,10.87,88.66,10.83,88.66,11Z" transform="translate(0 -0.37)"/><path class="cls-3" d="M84.41,7.81c-.65-.22-1.34-.36-2-.54.79.22,1.58.44,2.35.72Z" transform="translate(0 -0.37)"/><path class="cls-3" d="M92.68,14.16l-.7-.22c.41.14.8.3,1.19.47Z" transform="translate(0 -0.37)"/><path class="cls-3" d="M95.12,16.06c-.51-.19.32.7-.16.44a13.79,13.79,0,0,0,1.87,1.18A8.68,8.68,0,0,1,95.12,16.06Z" transform="translate(0 -0.37)"/><path class="cls-3" d="M97.76,18.28c-.28-.21-.59-.39-.93-.6A8.2,8.2,0,0,0,97.76,18.28Z" transform="translate(0 -0.37)"/><path class="cls-3" d="M91.5,12.69a1.75,1.75,0,0,0,.62.78l-.23-.5Z" transform="translate(0 -0.37)"/><path class="cls-3" d="M91.88,13v0l.84.62Z" transform="translate(0 -0.37)"/><path class="cls-3" d="M91.4,12.62l.1.07S91.46,12.61,91.4,12.62Z" transform="translate(0 -0.37)"/><path class="cls-3" d="M87.16,9.56c.7.23,2.12.85,1-.09C87.56,9.37,88.23,9.9,87.16,9.56Z" transform="translate(0 -0.37)"/><path class="cls-3" d="M91.1,12c-.34-.27-.71-.51-1.06-.77,0,.08.12.29-.22.16C90.24,11.58,90.68,11.76,91.1,12Z" transform="translate(0 -0.37)"/><polygon class="cls-3" points="91.68 11.91 91.1 11.61 91.49 11.91 91.68 11.91"/><path class="cls-3" d="M96.29,16.58a7.86,7.86,0,0,1,1.49,1.15,16,16,0,0,0-1.62-1.57C96,16.16,95.68,16.07,96.29,16.58Z" transform="translate(0 -0.37)"/><path class="cls-3" d="M94.21,14.74l.11.07C94.27,14.74,94.23,14.7,94.21,14.74Z" transform="translate(0 -0.37)"/><polygon class="cls-3" points="102.5 22.36 102.47 22.24 102.41 22.25 102.5 22.36"/><path class="cls-3" d="M96.1,16a3,3,0,0,0-1-.72q.51.38,1,.84C96.22,16.16,96.24,16.15,96.1,16Z" transform="translate(0 -0.37)"/><path class="cls-3" d="M99.22,19.52a7.62,7.62,0,0,0-.58-.8C98.79,19,99.1,19.49,99.22,19.52Z" transform="translate(0 -0.37)"/><path class="cls-3" d="M94.42,15l-.07-.05C94.45,15.1,94.45,15.07,94.42,15Z" transform="translate(0 -0.37)"/><path class="cls-3" d="M94.42,15c.25.14.47.23.69.33-.28-.2-.55-.37-.79-.51A.81.81,0,0,1,94.42,15Z" transform="translate(0 -0.37)"/><path class="cls-3" d="M105.19,23.28c-.28.08-1.35-1-2-2.14-1-.85-1.06.35-.7,1.47.1,0,.2-.12,1.12.81-.15-.46-1.61-2.43-.72-1.74,1.24,1.23.83,1.17,1.26,1.9-.19-.77,1.73,1.46,1.86.9-.33-.39-.7-.75-1.06-1.13C105,23.29,105.41,23.66,105.19,23.28Z" transform="translate(0 -0.37)"/><path class="cls-3" d="M100.86,20.74l-.39-.37a7.25,7.25,0,0,1,1,1.6c.67.58.87.66,1,.65-.57-.66-1.11-1.34-1.7-2Z" transform="translate(0 -0.37)"/><path class="cls-3" d="M98.81,18.66c.51.07,1.46.94,1.14.16-1.12-1.12-1-.61-1.71-1.18,1.88,1.7-.63-.39.58,1-.39-.31-.73-.6-1-.89.31.34.6.67.86,1l0,0h0c0-.1-.06-.14,0,0l0,0a.46.46,0,0,1,.16,0c.49.54,0,.13-.16,0h0c.65.54,1.24,1.14,1.86,1.7A19.14,19.14,0,0,0,98.81,18.66Z" transform="translate(0 -0.37)"/><path class="cls-3" d="M89.6,9.66c.05.06,0,.08,0,.1C89.79,9.82,89.86,9.84,89.6,9.66Z" transform="translate(0 -0.37)"/><path class="cls-3" d="M90.4,10.38a2.37,2.37,0,0,1-.86-.42c-.4-.35.07-.11.1-.2-.35-.14-1.2-.51-.29.21l.17.07a7,7,0,0,1,1.57,1.57A3.27,3.27,0,0,0,90.4,10.38Z" transform="translate(0 -0.37)"/><path class="cls-3" d="M95,14.31c.59.39,1.15.83,1.72,1.26L96,14.68l0,.14C95.05,14,95.13,14.32,95,14.31Z" transform="translate(0 -0.37)"/><path class="cls-3" d="M102.55,23l-.41,0c.38.2.72.45,1.08.68Z" transform="translate(0 -0.37)"/><path class="cls-3" d="M104.26,25.12l-.26.07c.19.16.36.33.54.49Z" transform="translate(0 -0.37)"/><path class="cls-3" d="M29.28,109.52l-.6-.27A5.66,5.66,0,0,0,29.28,109.52Z" transform="translate(0 -0.37)"/><path class="cls-3" d="M33.41,111.78l.16-.06C33.35,111.69,33.24,111.69,33.41,111.78Z" transform="translate(0 -0.37)"/><path class="cls-3" d="M107,88.09c-.69.63-1.53,1.26-1.23,1.33l.38-.08A6.86,6.86,0,0,1,107,88.09Z" transform="translate(0 -0.37)"/><path class="cls-3" d="M70.76,115.19l.28,0,.56-.4C71.35,114.93,71.07,115.07,70.76,115.19Z" transform="translate(0 -0.37)"/><path class="cls-3" d="M70.33,116.43l-1.25,0A10.4,10.4,0,0,0,70.33,116.43Z" transform="translate(0 -0.37)"/><path class="cls-3" d="M10.4,92.23l-.67-.47C10.41,92.75,10.23,92.23,10.4,92.23Z" transform="translate(0 -0.37)"/><path class="cls-3" d="M114.92,50.63a18.17,18.17,0,0,0,.07,1.94C115,51.63,115.18,50.84,114.92,50.63Z" transform="translate(0 -0.37)"/><path class="cls-3" d="M32.32,107.85c-.36-.14-.53-.17-.55-.11C32.14,107.89,32.35,108,32.32,107.85Z" transform="translate(0 -0.37)"/><path class="cls-3" d="M115.18,54.79l0-.41c-.09-.56-.15-1.13-.22-1.81A5.86,5.86,0,0,0,115.18,54.79Z" transform="translate(0 -0.37)"/><path class="cls-3" d="M26.29,9.56l.2-.09C26.48,9.42,26.4,9.47,26.29,9.56Z" transform="translate(0 -0.37)"/><path class="cls-3" d="M51.88,2.74l-1.05.17A8.25,8.25,0,0,0,51.88,2.74Z" transform="translate(0 -0.37)"/><path class="cls-3" d="M109.82,34.54c-.27-.51-.06-.07,0,0Z" transform="translate(0 -0.37)"/><path class="cls-3" d="M109.52,31.51c.08.1.16.16.23.15A.4.4,0,0,1,109.52,31.51Z" transform="translate(0 -0.37)"/><path class="cls-3" d="M117,60.6v0C117.07,60.48,117.06,60.51,117,60.6Z" transform="translate(0 -0.37)"/><path class="cls-3" d="M109.55,33.71a6.19,6.19,0,0,0,.26.69C109.77,34.28,109.69,34.07,109.55,33.71Z" transform="translate(0 -0.37)"/><path class="cls-3" d="M109.48,33.87l-.21-.46C109.2,33.36,109.2,33.43,109.48,33.87Z" transform="translate(0 -0.37)"/><path class="cls-3" d="M110.17,35.26c-.14-.3-.26-.58-.36-.86,0,.11,0,.16,0,.14Z" transform="translate(0 -0.37)"/><path class="cls-3" d="M1.44,51l0-.13C1.45,50.22,1.43,50.48,1.44,51Z" transform="translate(0 -0.37)"/><path class="cls-3" d="M99.48,101.8l0-.06-.08.05Z" transform="translate(0 -0.37)"/><path class="cls-3" d="M98,103.41a4.59,4.59,0,0,1,1.46-1.62l-1.06-.1Z" transform="translate(0 -0.37)"/><path class="cls-3" d="M20.13,102.94c.32.4.67.79,1,1.18-1.72-.86-2.58-2-1.76-.68.36-.23,1.54.71,2.71,1.66s2.46,1.75,2.79,1.47l.72.74c-.23-.18-.3-.16-.53-.34,1.39,1.49,1.52.4,3.59,1.83.72.52,1.19.94.62.72.6.28,1.21.54,1.81.8s.3.35-.19.06c.89.47,1.79.91,2.7,1.33h0c.45.07,1.41.29,1.88.4.64.42-.38-.08-.25.1.53.17,1.07.32,1.6.47.54.47-.82.15-1.86-.36,1.08,1.42,1.33.4,4.29,2.06l-1.52-.45c.77.83,2,1.1,3.63,1.94-.38-.27-3.15-1.9-1.37-1.5A6.07,6.07,0,0,0,42,115c-.08.3.86.51,2,.8l-.18.38a5.89,5.89,0,0,0,2,0c1.39.36,1.62.72,1.9,1,2.27.5-1.47-.79,1.23-.37a18.19,18.19,0,0,0,5.52.46c1.32.24-.25.23.22.39l1.2-.25c.29,0,.19.12.14.17,1-.08.11-.4,1.67-.46.42-.41,3.21.69,5.13.06.48.08-.21.27-.06.42a21.38,21.38,0,0,0,4.37-1.13c.62,0,1.25,0,1.87,0-1.39-.07.27-.74,1.68-1.29-.5-.07-.92-.13-1.2-.14.77-.21,1.54-.41,2.29-.68.29,0,.09.19-.25.45l.4-.2c.86,0,.49.29-.06.65l-.9,0c-.53.35-1,.72-.86.93a4.62,4.62,0,0,1,.76-.24c-.14.09-.23.17-.15.19s.33-.09.69-.29l.63.32.1-.2c1.05-.15,2.12-.29,3.16-.51.52-.26,1-.53,1.52-.82l1.53-.93c1.09-.61,2.28-1.34,3.89-2.11-.68.67,0,.58.15,1-1.07,0-2.51,1.25-4.33,1.74.94-.27.8,0,.58.12,1-.45,2-1,3-1.54.06.34.76,0,1.61-.28-.86-.31,2.1-1.4,3.19-2.24.18.15,0,.5-1.51,1.21,1.85-.42,1.77-1.72,3.5-2.26-.34.2-.55.28-.63.46a8.69,8.69,0,0,1,1.62-1c.56-.29,1-.47.79-.24l-.34.22c.58-.34,1.3-.79,2-1.28s1.5-1.09,2.2-1.62c1.36-1.13,2.41-2.17,2.38-2.51a1.87,1.87,0,0,1,.09.92c.84-1.51,1.64-3,2.32-4.53,0,.63,2,.31.54,2a9.56,9.56,0,0,0,2-2c-.35.28-1.24.31-.85-.15a16.94,16.94,0,0,0,2.68-1.8c-.5.43-.57-.61.11-1.37,0,.19.61.41.42.75.39-.81.76-1.61,1.08-2.44-.29.58.41.47.93.14-.14.07.21-.37.64-.9a17.07,17.07,0,0,0,1.06-1.48l-.77.79c1.79-2.31.81-2.92,2.33-5.3,0,.37.36,1.21,1.17,0a20.31,20.31,0,0,1,.67-5.78l.38-.34c.19-.61.39-1.21.53-1.84a21.35,21.35,0,0,1-.14,3.15,27.58,27.58,0,0,1-.63,3.58c.66-.89.37-.15,1.1-1.62.44-.43-.14.94-.35,1.38.62-1.12,1.26-2.24,1.8-3.4-.23,0,0-.73.18-1.43s.37-1.44.17-1.44c-.33,1.35-.8,2.65-1.23,4-.48-.06-.06-2.66.93-5.11.41-.58.53.74.68.75a13.89,13.89,0,0,1,.78-2.71L115,78.32c.64-1.38.25-2.49,1.11-4.11.22-.58,1-1.67.78-1.84-.71.89-2.23.68-2.44-.05.09-.19,1.17-3,1.49-3.63.56-.93.65,1.66,1.12.88-.11-.06-.15-.65-.16-.88.22-.63.32.32.51-1.08-.39-.3.4-2.85-.28-.72,0-1.38.32-1.43.42-3-.33.48-.81-1.53-.9-2.88.11.09.26-.21.33-.36,0-.7.07-1.31.1-1.89s0-1.1,0-1.63a24.86,24.86,0,0,0-.08-3.39c.09-.25.11-1.52.35-1a6.11,6.11,0,0,1-.43-1.5c.18-1.61.29,1.79.59.55-.28-.08-.58-2.05-1-3.15-.17.21,0,.86.1,1.61s.38,1.59.53,2.15c-.57.07-1.28-1.86-2-4.44-.53-2.06.16-1,0-1.32a14.67,14.67,0,0,0-.61-2.2,11.12,11.12,0,0,0-.65-1.23,8.41,8.41,0,0,1-1.08-2.91c-.1-1.36.63-.28.77-.64a10.52,10.52,0,0,1,.63,2.06,12,12,0,0,0,.33,1.71l-.24-1.46a9,9,0,0,1,.74,2.26,8.22,8.22,0,0,0-.29-1.57c-.17-.73-.44-1.61-.76-2.54s-.67-1.92-1-2.86-.68-1.82-1-2.56c-.34-.46-.84-1.29-.78-.81l.45.88c.12.94-1.11-1.53-.72-.34-.34-.56-.8-1.11-1.21-1.76a20.4,20.4,0,0,1-1.24-2.18l.17-.5a3.65,3.65,0,0,0,.76,1.56c-.54-.57-.93-2.75-1.86-3.18.16.42.32.82.45,1.24A29.43,29.43,0,0,1,105.2,26c.1.83.25.28.53,1.47-.06-1.15,2.2,3.49,1.85,1.83.13,1.3.86,1.87,1.16,3.45.1-.11,0-.6.53.63a.93.93,0,0,1,.24.21l0,.09,0-.08s0,0,0,0a2.07,2.07,0,0,1-.14-.71,6.66,6.66,0,0,1,1,1.45c.35.64.68,1.28.9,1.59.28.76-.28-.25-.22.21.22.3.44.6.64.92-.22.21.34,2.17-.51.47l.61,1.59a14.08,14.08,0,0,0,.94,3.08c.16.79.86,1.86.45,1.25.32.83.58,1.68.83,2.54L114,46c.3,1.28.62,2.61.94,4a15.27,15.27,0,0,1,.27,4.36c.07.44.15.89.21,1.41s0,1.13,0,1.87l-.25.29c.12,1.14-.3,3.4-.07,3.9-.72,1.18-.62,5.46-1.19,7.39l.31.14c-.12.68-.29,1.33-.4,2s-.24,1.46-.42,2.29l.3,0a9.59,9.59,0,0,1-.81,2.64c-.2.49-.42,1-.64,1.53s-.47,1.06-.68,1.61a2.55,2.55,0,0,1,.42-1.1c-1.55,2.36-1.9,5.62-3.55,7.64a4.66,4.66,0,0,1-.77,1.33.53.53,0,0,0,.06-.14l-.13.22c-.18.22-.38.43-.59.67a4.34,4.34,0,0,0,.52-.55c-.24.43-.62,1.06-1,1.71l-.42.09-.08.15c-.48.53-.19.56.21.37-.15.34-.3.64-.39.9-.76.17-1,1.68-1.88,2A10.89,10.89,0,0,1,103,94.51c-.52.73-1,1.49-.94,1.82-.07,0-.24.11,0-.19a11.17,11.17,0,0,0-1.58,1.76l-.52,0c-.28.55-.57,1.1-.89,1.63-.95.58-1.36.78-.8-.18a12,12,0,0,1-1.47,1.79,17.38,17.38,0,0,0-1.32,1.55l-.08-.26c-.61.49-1.39,1.54-1.9,1.67-.85.33-2.62,1.6-4.77,2.91a35.32,35.32,0,0,1-6.89,3.28c.55.16,0,.31-.6.47s-1.43.31-1.4.62c-.31-.07-.93.06-.31-.35a13.58,13.58,0,0,1-2.61.92,7.86,7.86,0,0,0-2.09.87c-.3-.1.4-.38.15-.42a2.34,2.34,0,0,1-.91.31c-.25,0,.28-.24.6-.41a6,6,0,0,0-2,.91,1.15,1.15,0,0,0-.38.83,4.58,4.58,0,0,0-2.58.67c-.45-.1-1.16-.15.27-.46-.81.17-5,.51-5,.89a4.41,4.41,0,0,0-1.37.12c-1.85.14-2,0-3.83.14l.51.05c-.72.52-1.52.15-3,.15l0,0a11.71,11.71,0,0,0-2.4-.24,8.1,8.1,0,0,1-2.34-.38l.14.33c-.4.64-2.88-.76-4.8-.91l.65.31c-1.09,0-2.68-1.5-3.65-1.85-.21-.12.37,0,.68,0-2.52-1.09-.44.31-2.44-.16-.29-.32.62-.39-.67-.83-.58-.35-4-.62-5.56-1.79.31.32.63.64-.3.37-1.38-.52-3.27-2.25-4.66-2.44-.14-.13-.18-.21-.17-.25-1-.42-3.23-1.65-3.92-1.84-.13-.74-1.6-1.64-3-2.47s-2.57-1.74-2.25-2.09c-.9-.71-1.71-1.51-2.57-2.27h.14a11.16,11.16,0,0,0-2.9-2.41c-.29-.43,0-.21.09-.21a26.09,26.09,0,0,0-4.17-4.65l.1-.41a15.88,15.88,0,0,1-1.56-2.55c-.34-.65-.72-1.36-1.13-2.07s-.8-1.44-1.26-2.08c0,0,.13,0,.29.24-.25-.37-.49-.77-.72-1.19s-.39-.87-.58-1.33a28.53,28.53,0,0,1-1-2.71c-.27-.87-.57-1.66-.84-2.3a2.72,2.72,0,0,0-1-1.34c-.34-.71-.67-1.42-1-2.16.72,3-.61-.29-.46,1-.38-1.16-.47-3.11,0-1.69v.24c.36.18.16-.75-.06-1.72s-.38-2-.17-2c-.35-1.44-.47-2.93-.68-4.38-.05-.73-.09-1.46-.14-2.18A19.85,19.85,0,0,1,3,60.92a62.21,62.21,0,0,1,.46-8.47L3,53c.08-.64.16-1.29.26-1.93s.45-.63.25.74a4.27,4.27,0,0,0,0-2.39c.65-2.64.37,1.14.52.32l.16-1.12-.1.24a6.3,6.3,0,0,1,.15-2.68c.33-1,.4-.46.52-.86,0,0,.08-.12.16-.61.22-.78.45-1.56.69-2.33l-.63.83c.12-1.1.69-2.2-.05-1.24a37.13,37.13,0,0,0,2.16-4.9c.45-1,.84-2,1.23-2.8a13.9,13.9,0,0,1,.85-1.56A11.18,11.18,0,0,1,10,30.6c.18-.35.38-.72.59-1.09l.73-1.12c-.31.35-.82.37.09-1,.38,1,2-2.26,3.27-2.89-.52.33.16-.58.77-1.44s1.24-1.62.41-1.13c.93-1,.3.15,1.12-.48,1.85-2.63,5-4.92,8-7.39,0-.13-.65.14-.08-.51.67-.27,1.32-.55,2-.78.61-.48.22-.94,1.61-1.42-.22,0-.55.08-.13-.24a93.65,93.65,0,0,1,10.5-5.28A33.44,33.44,0,0,1,50.42,3.22c-1.08,0-.39-.18.41-.31-.53,0,0-.28-.16-.42,1.11,0,2.22,0,3.31,0,.56-.51,3.5-.29,3.83-.68l-1,.11c1.38-.55-2-1-1.86-1.57-1.52.66-4.31-.39-6.77.9-.6,0,.44-.29.11-.37a7.6,7.6,0,0,1-2.85.83l.14-.11c-2,.53-3.47.92-5,1.35a50.47,50.47,0,0,0-5.28,1.78l.45.14a13.12,13.12,0,0,1-1.64.52c-.42.47.22.16.88-.14s1.35-.55,1-.11c-.75,0-2.36.74-3.91,1.52-.76.41-1.51.81-2.15,1.1a3.38,3.38,0,0,1-1.41.49c-1.33.82.58.06-.75.87l-.46.06c-.07.14-.13.29-.19.43-.86.54-1.42.64-1.55.53a8.43,8.43,0,0,0,.77-.6,10.43,10.43,0,0,0-2,1.36c-.64.53-1.18,1-1.38,1.13l1.27-.83c-3.33,2.67-7.33,6.11-9.68,9.54l.32-.14A21.73,21.73,0,0,1,13,22.86a14.2,14.2,0,0,0-1.88,2.45l0-.12a21.22,21.22,0,0,1-1.24,2.23c.32-.82-1.16,1.21-.7.15-1.52,3.07-.67,1.58-1.32,3.77l-.44.35a7.12,7.12,0,0,1-.78,2.45c.43-1.35-.8.83-.36-.71-2,3.09-1.61,5.12-2.86,6.43.06.9.38.18.69-.63S4.8,37.51,4.7,38c.47-.65,0,1.44-.43,2.48S2.84,42,2.15,44.88c.07-.28,0-.31.1-.59-.43,1-.27,2.12-.79,3.38.25.81-.32,1.71.15,2,.1-.88.22-1.76.35-2.63-.16,1.51.17,3-.38,5.38A5.9,5.9,0,0,1,1.44,51c-.25.7-.07,1.39-.3,2.12-.5-.26.24-3.22.17-4.87-.37.73-.11,3.09-.54,2.2.53,1.25-.46,2.85,0,4.87l-.3-.15a10,10,0,0,1,.11,1.54L.2,55.61c.25,1.61-.39,3.09-.14,4.64C0,57,.39,59.52.61,58.16a6.16,6.16,0,0,1-.16,3.18A6.73,6.73,0,0,0,.3,64.91c-.1-.6,0-2.28.2-1.35a22.81,22.81,0,0,1-.09,2.51c.49,2.92.24-.49.61.73-.21,1,.33,1.41.7,2.64l-.31.07c.25,1.66.45,1.85.64,2s.32.25.61,1.72c-.24-.38-.51-.75-.74-1.13.15.5.34,1,.51,1.49L2,73.36A21.68,21.68,0,0,1,3.2,77.1c.08-.43.6,0,1.07,1.43.19,1-.48-.42.33,1.51a2.26,2.26,0,0,1-.82-1.73c-.13,0-.33-.38-.46-.44a14.4,14.4,0,0,0,1.2,3.31,5.6,5.6,0,0,1-.24-.8L5,81.72,5.87,83c.09.48-.15.18-.39-.13.29.55.6.88,1,1.69-.32-.1-.53.06-1.18-1.06.48.85,1,1.69,1.53,2.5,0,.22.44,1.46.18,1.17a10.92,10.92,0,0,0,1.59,2.4,27.83,27.83,0,0,1,1.88,2.67,2.49,2.49,0,0,1,.56.58,20.77,20.77,0,0,0,3.82,4.86c.19.43.35.89.57,1.32,1.37,1.28-.85-1.71,1.42.41,1.63,1.48.3.87.74,1.51a15.68,15.68,0,0,1,4,3.13A16.77,16.77,0,0,1,20.13,102.94Zm19.8,11.42c-.44-.08-1.34-.2-1.58-.49C39,113.72,39.25,114,39.93,114.36Zm34.2.66a2.84,2.84,0,0,1-1.38.26A8.09,8.09,0,0,1,74.13,115ZM112.45,40.3l0,0C112.66,41.27,112.6,40.94,112.45,40.3Zm-.55-1.89c-.11-.16-.15-.13-.16,0a2.62,2.62,0,0,1,.45,1C112.22,39.19,112.18,38.94,111.9,38.41ZM4.66,45.13l-.17.35C4.61,44.62,4.63,44.87,4.66,45.13Z" transform="translate(0 -0.37)"/><path class="cls-3" d="M70.4,116.29a.29.29,0,0,1-.22-.14C70,116.24,70,116.3,70.4,116.29Z" transform="translate(0 -0.37)"/><path class="cls-3" d="M10.52,92.32l0-.06-.08,0Z" transform="translate(0 -0.37)"/><path class="cls-3" d="M117.39,68.79a3,3,0,0,1-.3.78C117.16,69.6,117.26,69.42,117.39,68.79Z" transform="translate(0 -0.37)"/><path class="cls-3" d="M106.84,29.38c.25.33.47.68.71,1a6.1,6.1,0,0,1-.49-1C107,29.45,107.05,29.7,106.84,29.38Z" transform="translate(0 -0.37)"/><path class="cls-3" d="M101.7,19.47c-.15-.11-.28-.28-.43-.39l-.07.14C101.76,19.79,102.23,20.12,101.7,19.47Z" transform="translate(0 -0.37)"/><path class="cls-3" d="M107.08,27.85c.15-.22-.32-.87-.89-1.56l.09.13C105.84,26.41,106.48,27.11,107.08,27.85Z" transform="translate(0 -0.37)"/><path class="cls-3" d="M106.06,26.13c-.16-.22-.33-.45-.48-.67C105.4,25.46,105.75,25.75,106.06,26.13Z" transform="translate(0 -0.37)"/><path class="cls-3" d="M110.8,36.18c-.11-.41-.41-.1-.41-.36C109.9,35.52,111.88,38.19,110.8,36.18Z" transform="translate(0 -0.37)"/><polygon class="cls-3" points="107.41 26.39 107.31 26.84 107.8 27.13 107.41 26.39"/><path class="cls-3" d="M110.76,33l-.57-1.32s-.15-.11-.28-.29A8.67,8.67,0,0,0,110.76,33Z" transform="translate(0 -0.37)"/><path class="cls-3" d="M109.91,31.43a5.31,5.31,0,0,0-.61-1C109.42,30.66,109.71,31.12,109.91,31.43Z" transform="translate(0 -0.37)"/><path class="cls-3" d="M108.55,28.37l.18.4.48.89C109,29.24,108.8,28.79,108.55,28.37Z" transform="translate(0 -0.37)"/><path class="cls-3" d="M115.66,47.63l.36,1.52c.14.14.13-.29,0-.86C115.86,47.93,115.72,47.37,115.66,47.63Z" transform="translate(0 -0.37)"/><path class="cls-3" d="M115.4,42.78a1.82,1.82,0,0,1,0,.74l.4-.06Z" transform="translate(0 -0.37)"/><path class="cls-3" d="M116.58,47.27c.14.13.72,2.23.34.24C116.8,47.36,116.39,45.82,116.58,47.27Z" transform="translate(0 -0.37)"/><polygon class="cls-3" points="115.85 70.63 115.93 70.24 115.28 70.16 115.85 70.63"/><path class="cls-3" d="M109.09,91.09c1.16-1.54-.09-.6,1-2,.11-.46-.88,1.11-.75.65C108.84,90.84,108.44,91.3,109.09,91.09Z" transform="translate(0 -0.37)"/><path class="cls-3" d="M109.33,89.78l.23-.55A3.63,3.63,0,0,0,109.33,89.78Z" transform="translate(0 -0.37)"/><polygon class="cls-3" points="56.19 2.3 57.36 2.38 56.59 2.19 56.19 2.3"/><path class="cls-3" d="M58.41,2.1l.29.41.7-.38A2.94,2.94,0,0,1,58.41,2.1Z" transform="translate(0 -0.37)"/><path class="cls-3" d="M43,116.2l.12-.07a3.08,3.08,0,0,0-1-.43Z" transform="translate(0 -0.37)"/><polygon class="cls-3" points="27.73 108.69 27.98 108.85 27.72 108.24 27.73 108.69"/><path class="cls-3" d="M16.45,100.53c.39.43.92.87,1.34,1.27C16.82,101,16.69,100.08,16.45,100.53Z" transform="translate(0 -0.37)"/></g></g></svg>