<svg xmlns="http://www.w3.org/2000/svg" viewBox="0 0 149.74 150.25"><defs><style>.cls-1{fill:#fff4cb;}.cls-1,.cls-2{fill-rule:evenodd;}.cls-2{fill:#fffde3;}.cls-3{fill:#9d7862;}</style></defs><g id="Layer_2" data-name="Layer 2"><g id="Layer_1-2" data-name="Layer 1"><path class="cls-1" d="M76.32,148.25a73.44,73.44,0,0,0,68.54-47.08,56.79,56.79,0,0,1,2.87-9.31,73.3,73.3,0,0,0-13-61.53A76.55,76.55,0,0,0,115,28.26C78,29.22,44,53.55,8.13,102A73.41,73.41,0,0,0,76.32,148.25Z"/><path class="cls-2" d="M108.47,8.82A73.42,73.42,0,0,0,8.13,102C44,53.55,78,29.22,115,28.26a76.55,76.55,0,0,1,19.68,2.07A73.78,73.78,0,0,0,108.47,8.82Z"/><path class="cls-3" d="M133.42,32c-.36-.56-.5-.16-.6-.2C133.53,32.61,133.48,31.89,133.42,32Z"/><polygon class="cls-3" points="140 40.8 139.78 40.7 140.83 41.98 140 40.8"/><path class="cls-3" d="M144.2,50.24c.22-1.13-1.42-3.48-2-5.22v-.33l-.78-.56A34.79,34.79,0,0,1,144.2,50.24Z"/><path class="cls-3" d="M144.66,55.82c.13-.38.5,1.08-.27-1.23a1.72,1.72,0,0,1,0,.23C144.45,55,144.53,55.32,144.66,55.82Z"/><path class="cls-3" d="M144.39,54.82c-.3-1,0,.73,0,0Z"/><path class="cls-3" d="M145.74,59.58l-.52-1.33c-.06.32.2,1.54,0,1.11C145.65,60.74,145.71,60.43,145.74,59.58Z"/><path class="cls-3" d="M146.43,60.81l-.22-.71C146.18,60.24,146.2,60.43,146.43,60.81Z"/><path class="cls-3" d="M145.68,58.62l.53,1.48c0-.22.23-.28-.22-.68C146.19,59.5,146,59.24,145.68,58.62Z"/><path class="cls-3" d="M145.57,57.75c0-.81-.27-1.82.31-.49C145.08,54.65,144.81,55.15,145.57,57.75Z"/><path class="cls-3" d="M145,50.53l-.21-1.08-.51-.81C144.48,49.05,144.8,50.66,145,50.53Z"/><path class="cls-3" d="M146.78,68.29c.14.08.29-.5.43-.62l-.25-1C146.93,67.19,147,68.2,146.78,68.29Z"/><path class="cls-3" d="M147.21,67.67c.12.51.27,1,.36,1.54C147.49,67.81,147.33,67.57,147.21,67.67Z"/><path class="cls-3" d="M147.12,60.93c-.3-.83-.64-1.64-1-2.44.4,1,.76,1.94,1.09,2.93Z"/><polygon class="cls-3" points="147.06 74.22 146.76 73.34 147.22 74.91 147.06 74.22"/><path class="cls-3" d="M147.05,78.15c-.21-.66-.45.87-.56.18a17.75,17.75,0,0,0,.24,2.81A12.29,12.29,0,0,1,147.05,78.15Z"/><path class="cls-3" d="M146.85,82.54c0-.44-.07-.9-.12-1.4A9.45,9.45,0,0,0,146.85,82.54Z"/><path class="cls-3" d="M147.68,71.88a2.15,2.15,0,0,0-.33,1.24l.33-.62Z"/><path class="cls-3" d="M147.69,72.47v0c0,.67,0,1.13,0,1.33Z"/><path class="cls-3" d="M147.67,71.72v.16A.12.12,0,0,0,147.67,71.72Z"/><path class="cls-3" d="M147.48,65.07c.35.88.72,2.8.84.89C148,65.33,148,66.41,147.48,65.07Z"/><path class="cls-3" d="M148.06,70.94l0-1.68c-.09,0-.2.35-.33-.1Z"/><polygon class="cls-3" points="148.22 71.75 148.06 70.94 148.07 71.56 148.22 71.75"/><path class="cls-3" d="M147.43,79.74a11.44,11.44,0,0,1,0,2.41,28.54,28.54,0,0,0,.34-2.86C147.66,79.15,147.49,78.73,147.43,79.74Z"/><path class="cls-3" d="M147.69,76.22v.16C147.74,76.28,147.75,76.2,147.69,76.22Z"/><polygon class="cls-3" points="145.99 90.78 146.08 90.66 146.03 90.61 145.99 90.78"/><path class="cls-3" d="M147.84,79.13a4,4,0,0,0-.05-1.56c0,.54,0,1.11,0,1.72C147.81,79.35,147.84,79.36,147.84,79.13Z"/><path class="cls-3" d="M146.71,85c.12-.35.25-.76.36-1.2A3.22,3.22,0,0,0,146.71,85Z"/><path class="cls-3" d="M147.6,76.62v-.11C147.51,76.74,147.55,76.71,147.6,76.62Z"/><path class="cls-3" d="M147.6,76.62a8.84,8.84,0,0,0,.19.95,10.32,10.32,0,0,0-.09-1.19A.87.87,0,0,1,147.6,76.62Z"/><path class="cls-3" d="M147.28,93.89c-.13-.12-.11-.66.09-1.34s.4-1.52.75-2.32c.1-1.66-1.16-.8-2,.43.06,0,.13.06.15.29s0,.32,0,.42a4.15,4.15,0,0,1-.18.85c.08-.11.27-.45.42-.68a7.56,7.56,0,0,0,.38-.88c.26-.64.48-1,.48-.31-.08.55-.16,1-.22,1.2a1,1,0,0,1-.12.27,2.55,2.55,0,0,1-.14.24,8.13,8.13,0,0,0-.63.88c.69-.74-.42,2.92.33,2.64.14-.64.29-1.29.45-1.93C147.12,93.65,147,94.37,147.28,93.89Z"/><path class="cls-3" d="M146.74,87.59l.08-.68a11.15,11.15,0,0,1-.87,2.22c-.07,1.13,0,1.38.08,1.48.26-1.08.49-2.17.7-3.26Z"/><path class="cls-3" d="M147.27,83.9c.28.57.19,2.22.72,1.28.25-2-.11-1.44-.12-2.65-.29,3.22-.08-.94-.56,1.35,0-.63.06-1.2.11-1.73-.11.57-.22,1.11-.35,1.62l0-.07h0c.06-.13.1-.17.05,0s0,0,0,.07a.33.33,0,0,1,.11.16c-.18.91-.1.13-.11-.16,0,0,0,0-.05,0h0c-.07,1.07-.16,2.14-.28,3.21A23.84,23.84,0,0,0,147.27,83.9Z"/><path class="cls-3" d="M149.25,67.62c0,.1,0,.1-.07.11C149.25,67.94,149.29,68,149.25,67.62Z"/><path class="cls-3" d="M149.17,69a3.63,3.63,0,0,1-.27-1.2c0-.68.17,0,.28-.06-.14-.46-.42-1.6-.44-.13l.07.23a7.76,7.76,0,0,1-.39,2.81A4.57,4.57,0,0,0,149.17,69Z"/><path class="cls-3" d="M148.69,76.63c0,.9.06,1.81.06,2.72l.38-1.37-.19.06C149.07,76.5,148.83,76.82,148.69,76.63Z"/><path class="cls-3" d="M145.75,91l-.29-.43,0,.41c0,.13.07.13.09.19s0,.17,0,.32l0,.43.16-.61C145.76,91.22,145.72,91.25,145.75,91Z"/><polygon class="cls-3" points="144.64 94.21 144.38 93.98 144.25 94.97 144.64 94.21"/><path class="cls-3" d="M1.48,83.6l-.19-.82A6.07,6.07,0,0,0,1.48,83.6Z"/><path class="cls-3" d="M2.39,89.53l.19.11C2.43,89.39,2.35,89.29,2.39,89.53Z"/><path class="cls-3" d="M83.25,145.84c-1.16-.13-2.46-.58-2.3-.22l.38.34A14.71,14.71,0,0,1,83.25,145.84Z"/><path class="cls-3" d="M27.82,130l.19.31.82.26Z"/><path class="cls-3" d="M26.2,130.52c-.34-.41-.71-.79-1-1.22A8,8,0,0,0,26.2,130.52Z"/><path class="cls-3" d="M4.4,51.11l0-1C3.88,51.52,4.27,50.94,4.4,51.11Z"/><path class="cls-3" d="M127.26,124.88a20.8,20.8,0,0,0-1.87,1.6C126.36,125.78,127.25,125.31,127.26,124.88Z"/><path class="cls-3" d="M5.52,85.38c-.13-.46-.23-.66-.31-.63C5.34,85.23,5.45,85.5,5.52,85.38Z"/><path class="cls-3" d="M123.26,128.37l.44-.28c.5-.52,1-1,1.69-1.61A7.19,7.19,0,0,0,123.26,128.37Z"/><path class="cls-3" d="M100.48,3.36a1.36,1.36,0,0,1,.24.13S100.65,3.41,100.48,3.36Z"/><path class="cls-3" d="M127.14,24.06l-1-.94A11.25,11.25,0,0,0,127.14,24.06Z"/><path class="cls-3" d="M139.62,107.29c.32-.67,0-.12,0,0Z"/><path class="cls-3" d="M142.46,104.65c0,.17,0,.3,0,.35A.56.56,0,0,1,142.46,104.65Z"/><path class="cls-3" d="M118.81,134.75l0,0C119,134.7,118.94,134.72,118.81,134.75Z"/><path class="cls-3" d="M140.28,106.38c-.17.22-.35.49-.53.78C139.84,107,140,106.8,140.28,106.38Z"/><path class="cls-3" d="M140.06,106.43c.13-.21.23-.39.32-.55S140.3,105.83,140.06,106.43Z"/><path class="cls-3" d="M139.16,108.2c.19-.37.39-.71.59-1-.09.12-.14.17-.13.13Z"/><path class="cls-3" d="M39.34,10.18l.16,0C40.1,9.62,39.82,9.81,39.34,10.18Z"/><path class="cls-3" d="M63.52,148.78h.09l-.11,0Z"/><path class="cls-3" d="M60.74,148.5a5.25,5.25,0,0,1,2.76.24l-.71-1.18Z"/><path class="cls-3" d="M1.09,69.24c-.15.65-.33,1.29-.46,2C.26,68.78.6,67.05,0,68.88c.55.18.39,2.1.41,4s0,3.84.59,4L.81,78.17c0-.38-.07-.43-.07-.8-.41,2.55.86,1.83,1,5,0,1.12,0,1.93-.25,1.18.18.82.39,1.64.6,2.45s-.13.58-.21-.14c.21,1.26.46,2.51.74,3.76l0,0c.27.51.79,1.66,1,2.21.06,1-.23-.44-.31-.17.25.66.5,1.33.77,2C4,94.57,3.3,93,3,91.51c-.61,2.18.61,1.65,1.22,5.93l-.72-1.89c-.24,1.43.43,2.88.84,5.17,0-.58-.51-4.65.46-2.54a7.76,7.76,0,0,0,1,2.56c-.36.15.12,1.27.76,2.65l-.53.1c.81,1.46,1,1.24,1.61,2A3.73,3.73,0,0,1,8,108.28c1.31,2.64-.38-2.09,1.35.94a22.34,22.34,0,0,0,1.56,3,35.92,35.92,0,0,0,2.25,3c.76,1.54-.43-.07-.23.52l1.16,1c.19.32,0,.29-.07.27.84,1,.48-.2,1.77,1.32.79.07,1.7,3.85,3.9,5.25.29.56-.43,0-.46.26,1.27,1.14,1.79,1.65,2.3,2.06s1,.72,2.2,1.5l1.43,1.91c-.95-1.51.9-.24,2.64.67-.34-.54-.61-1-.82-1.28l2.47,1.77c.22.3-.12.24-.64.08l.5.27c.7.86.08.73-.7.44l-.62-1c-.78-.25-1.56-.46-1.64-.13a6.2,6.2,0,0,1,.86.56c-.21-.06-.36-.09-.33,0s.37.23.84.46l.15.91.28-.06c.48.48.93,1,1.43,1.45l1.52,1.36c2.68,1.31,5.23,2,9.26,4.06-1.2-.16-.56.49-.86.9a3.29,3.29,0,0,0-.89-.7,11,11,0,0,0-1.25-.69,21.75,21.75,0,0,1-3-1.64c1,.72.65.77.34.67l3.86,1.88c-.3.31.64.7,1.54,1.38-.17-.56.59-.3,1.6.17l1.62.79a11.22,11.22,0,0,0,1.51.56c0,.15-.14.24-.5.19a5.73,5.73,0,0,1-1.89-.8,3.6,3.6,0,0,0,2.48,1,4.22,4.22,0,0,1,2.51.84c-.47-.21-.71-.36-.95-.31a12.22,12.22,0,0,1,2.26.89c.73.32,1.23.61.86.6l-.49-.16c.8.31,1.81.69,2.89,1.07l1.66.57,1.68.41c2.19.48,4,.84,4.37.5a2.51,2.51,0,0,1-.86.81q3.27-.51,6.38-1.14c-.31.27,0,.81,0,1.29s-.24.93-1.67.81a10,10,0,0,0,3.53.47c-.55-.15-1.26-1-.51-1a25.71,25.71,0,0,0,3.9,1.38c-.42-.1-.37-.37-.06-.58a2.43,2.43,0,0,1,1.53-.4c-.21.13.06.93-.43,1l3.31-.8c-.82.14-.17.78.57,1.07-.17-.12.54,0,1.4-.06s1.88,0,2.32-.09l-1.4-.16c3.72,0,3.59-1.34,7.18-1.75-.41.24-1,1.29.91,1.19.4-.3,1.27-.93,2.39-1.68a15.07,15.07,0,0,1,4-2.09l.65.15c.76-.28,1.51-.62,2.26-.93A35,35,0,0,1,87.74,149a5.44,5.44,0,0,0,2.48-.16c.78.1-1,.6-1.65.73l4.84-.79c-.32-.41,3.47-1.51,3.17-1.89l-2.47,1c-.83.32-1.68.55-2.52.82-.16-.25.51-.78,1.62-1.31a19.3,19.3,0,0,1,4.28-1.67c.9,0-.34,1.11-.23,1.27a9.23,9.23,0,0,1,1.7-.72,10,10,0,0,1,1.64-.57l-1.28.78c1.88-.46,2.69-1.75,5-2,.74-.27,2.44-.32,2.44-.67-1.44,0-2.4-1.74-1.83-2.51l2.17-.59,1.57-.4c.47-.14.87-.25,1.1-.29,1.36-.18-1.17,2,0,1.83,0-.16.52-.67.75-.86.79-.29-.08.58,1.47-.35,0-.63,3.24-1.71.52-.82a8.66,8.66,0,0,1,1.62-.89,14.19,14.19,0,0,0,1.8-1c-.74,0,.89-2,2.24-3.1,0,.17.41.09.61.05,1.44-1.06,2.57-1.82,3.69-2.57s2.09-1.64,3.35-2.73c.32-.1,1.64-1,1.29-.42a9.77,9.77,0,0,1,1.18-1.59c1.74-1.09-1.57,1.7-.09,1-.13-.32,1.56-2.23,2.44-3.41-.68,0-2.44,2.34-3.33,3.54-.49-.51.83-2.8,2.91-5.51,1.62-2.18,1.1-.61,1.33-1a19.26,19.26,0,0,0,1.78-2.3,12.75,12.75,0,0,0,.72-1.61,9.32,9.32,0,0,1,2.14-3.33c1.25-1.18.77.42,1.23.28-1.1,2-2.22,2.63-3.08,3.87l1.27-1.38A10.75,10.75,0,0,1,134,120.1a34.37,34.37,0,0,0,3.37-4.23l2.07-3.26,1-1.54c.29-.51.58-1,.85-1.4.2-.7.62-1.86.2-1.43l-.53,1.15c-.84.85.66-2.32-.22-1,.27-.8.54-1.66.89-2.57a16.82,16.82,0,0,1,1.22-3l.64-.21a4.56,4.56,0,0,0-1,2,9.06,9.06,0,0,1,1.07-2,10.44,10.44,0,0,0,.61-1.2,1.25,1.25,0,0,0,0-1c-.06.12-.13.29-.17.37a2.78,2.78,0,0,1-.19.27l-.48.68a3.8,3.8,0,0,0,.21-1.13c0-.47.05-1,.1-1.5a12.42,12.42,0,0,1,.71-3.13c-.76.81-.1.49-1.07,1.83.52-.56.13.79-.16,2-.07.29-.16.71-.16.73a4.47,4.47,0,0,0-.16.48c-.08.3,0,.36.37,0-1.21,1.13-1.29,2.29-2.58,3.85.15,0,.61-.48-.24,1a2,2,0,0,1,0,.4l-.06.1.06-.08c0,.08,0,.09,0,0a3.22,3.22,0,0,1,.63-.67c-.05.93-1.34,3.38-1.6,4.31-.54.87,0-.48-.38-.07-.12.47-.29.91-.45,1.36-.39-.07-2,2-.87-.16l-1.16,1.83c-.43.49-.87,1.1-1.3,1.69a11.73,11.73,0,0,0-1.1,1.64c-.67.78-1.19,2.33-.9,1.44-.31.48-.59,1-.92,1.43l-1,1.37-.09,0c-1.1,1.26-2.07,2.72-3.31,4-.6.67-1.23,1.33-1.9,2a12.27,12.27,0,0,1-2.29,1.7c-.39.41-.79.83-1.27,1.29a12.16,12.16,0,0,1-1.86,1.5l-.49,0c-1.1,1-3.62,2.39-4,2.93-.9.06-2.37,1-3.94,2s-3.3,2-4.45,2.53l.1.41c-1.62.68-3.08,1.53-5,2.51l.26.3c-1.69.89-4.63,1.52-7.51,2.26a3.15,3.15,0,0,1,1.43-.42,11.26,11.26,0,0,0-2.69.48c-.44.12-.88.27-1.32.43l-1.33.38c-.88.27-1.75.54-2.61.74a12.1,12.1,0,0,1-1.28.26,7.47,7.47,0,0,1-1.25,0,5.65,5.65,0,0,1-1.94.22l.19,0-.33,0-1.13-.06a7,7,0,0,0,1,.08c-.62.08-1.55.26-2.46.42l-.42-.38-.21,0c-.91-.11-.72.22-.22.49a10.33,10.33,0,0,0-1.21.29c-.76-.61-2.44.32-3.45-.34-.62.31-4.65.07-5.2.75,0-.09-.3-.15.21-.13a14.36,14.36,0,0,0-3-.27l-.38-.55-2.35.41c-1.32-.5-1.83-.83-.44-.94-3.33-.05-2.65-.28-5.54-.26l.21-.28c-1-.25-2.63-.26-3.15-.68A19.53,19.53,0,0,0,54,143.42c-1.15-.46-2.55-1-4.06-1.52s-3-1.35-4.55-2.05a17.74,17.74,0,0,1-2.15-1.19c-.68-.41-1.33-.82-1.92-1.23.25.69-.28.27-1-.24S39,136,38.68,136.24c-.16-.37-.76-.91.12-.58a27.4,27.4,0,0,1-3-1.91,8.11,8.11,0,0,0-2.46-1.48c-.13-.38.7.11.54-.18-.21-.1-.86-.39-1-.68s.46.1.88.3c-2.41-1.71-3-1.44-3.62-1.07a5.13,5.13,0,0,0-2.67-2.1c-.26-.51-.78-1.25.69-.09-.19-.18-.59-.53-1.05-1s-1-1-1.5-1.57c-1-1-2-2-2.28-1.84a5.45,5.45,0,0,0-1.16-1.31l-1.57-1.89c-.41-.48-.83-1-1.52-1.89l.31.57c-1-.35-1.26-1.47-2.44-2.92h.09c-.57-.91-.84-1.51-1.08-1.88a5.35,5.35,0,0,0-.52-.74A12.38,12.38,0,0,1,14,111.35l-.22.39c-.49.06-.82-.84-1.22-2A17.14,17.14,0,0,0,11,106.18a6.68,6.68,0,0,0,.18.89c-.87-1.09-.49-3.91-.94-5.14,0-.29.3.37.51.72-.48-1.68-.62-1.74-.82-1.66s-.42.28-.94-.92c.1-.55.87.33.33-1.32A21.41,21.41,0,0,0,8,95.86a11.62,11.62,0,0,1-1.21-4.12c-.08.56-.16,1.12-.61,0C5.69,89.91,6,86.66,5.09,85.1c0-.24.07-.34.12-.35-.39-1.38-.81-4.56-1.2-5.4.64-.7.34-2.88.2-4.93s-.27-4,.39-3.9c.1-1.45.13-2.91.33-4.35L5,66.3a15.78,15.78,0,0,0,.21-4.8c.2-.62.23-.13.28-.07A34.51,34.51,0,0,0,7,53.61l.48-.22a22.51,22.51,0,0,1,1.4-3.54c.4-.84.83-1.78,1.22-2.74a27.06,27.06,0,0,0,1.14-2.89c0,.06.06.17,0,.48a27.77,27.77,0,0,1,3.56-6.33c1.34-1.9,2.42-3.53,2.32-4.61.48-.88.93-1.78,1.45-2.64-2.38,3.07-.19-.86-1.32.29.84-1.3,2.8-2.86,1.68-1.34l-.24.19c.09.5.89-.4,1.71-1.38s1.75-2,1.91-1.74a60.14,60.14,0,0,1,8.16-7.67,93.29,93.29,0,0,1,8.95-6.06c-.35-.05-.67-.06-1-.09.7-.44,1.44-.81,2.16-1.23.63-.2,1,0-.56.83a5.55,5.55,0,0,0,2.43-1.84c3.18-1.36-.88,1.24.07.76l1.26-.69-.32.09a7.79,7.79,0,0,1,2.83-1.91c1.27-.45.78.05,1.27-.15,0,0,.18,0,.74-.31l2.9-1.1H49.86c1.19-.74,2.75-1,1.21-1,1.14,0,3.91-.88,6.63-1.59,1.35-.38,2.71-.66,3.78-.92a14.17,14.17,0,0,1,2.25-.34,13.6,13.6,0,0,1,2.87-.75,32.89,32.89,0,0,1,3.27-.37c-.6,0-1-.55,1.06-.64-.34.57.61.61,1.85.61a11.61,11.61,0,0,1,3.6.43c-.74-.26.71-.29,2.06-.32s2.6,0,1.45-.46c1.71.18.09.41,1.36.75,4.1-.16,8.84,1.26,13.68,2.4.11-.11-.64-.55.45-.47.79.46,1.57.94,2.33,1.44,1,.21,1.13-.52,2.68.53-.2-.19-.5-.49.14-.32A122.06,122.06,0,0,1,114,13.34,42.3,42.3,0,0,1,125.51,23c-.78-1.13-.11-.54.64.16-.44-.51.26-.24.3-.47.88,1.1,1.73,2.22,2.54,3.36.47.08,1.22.92,1.94,1.73s1.36,1.61,1.71,1.62l-.93-1c.8.48.67-.21.42-1.07s-.65-1.87-.26-2a10.48,10.48,0,0,1-2.56-2.91,9.6,9.6,0,0,0-3.58-3.26c-.44-.62.64.23.46-.17a9.62,9.62,0,0,1-3-2.25l.22.07c-2.1-1.66-3.62-2.81-5.21-4a62,62,0,0,0-5.88-4l.21.55a14.32,14.32,0,0,1-1.79-1.26c-1.58-.18,3.19,1.74,1.69,1.68-.56-.76-2.56-1.86-4.56-2.79s-4-1.76-4.35-2.39c-1.87-.7.38.62-1.48-.08l-.41-.41-.58.13c-1.21-.47-1.75-1-1.73-1.17.29.11.87.23,1.2.32C99,2.51,95.86,2,95.32,1.82c.61.2,1.21.43,1.82.65-2.65-.65-5.6-1.35-8.56-1.82A42.23,42.23,0,0,0,80,.05l.39.19c-4,.19-3.19-.32-7.58-.06l.16,0A19,19,0,0,1,69.74.6c1.09-.29-2.11-.25-.69-.6a14.87,14.87,0,0,0-3,.73c-.33.17-.49.28-1.83.88l-.7-.19a10.28,10.28,0,0,1-3.07,1.11c1.69-.66-1.46-.14.43-.93a18.47,18.47,0,0,0-3,.5c-.87.23-1.59.54-2.25.78a7.6,7.6,0,0,1-3.46.81c-.87.74.12.53,1.18.21s2.23-.68,1.68-.45c.51,0,.14.27-.53.58a15,15,0,0,1-2.31.91,10.78,10.78,0,0,1-2.3.25,11.1,11.1,0,0,0-3.83,1c.34-.15.34-.22.67-.37-1.34.4-2.38,1.34-4,1.83-.62.89-2,1-1.92,1.68l2.94-1.68c-.82.51-1.54,1.14-2.42,1.78a15.2,15.2,0,0,1-3.33,2,9.19,9.19,0,0,1,1.38-1.26c-.89.31-1.49,1-2.38,1.34-.07-.36.79-.94,1.88-1.56.54-.32,1.13-.66,1.68-1a10.42,10.42,0,0,0,1.51-1C41,8.1,38.81,10.2,39.38,9.08a4.85,4.85,0,0,1-2.16,1.67,10.43,10.43,0,0,0-2.8,2.05l-.08-.42a12.17,12.17,0,0,1-1.46,1.32l.79-1.18a9,9,0,0,1-2.43,1.73,11.48,11.48,0,0,0-2.39,1.69c3.22-2.55,1-.2,2.54-1a8.13,8.13,0,0,1-3.34,2.29,7,7,0,0,0-1.4.66,11.91,11.91,0,0,0-2.33,1.95,7.42,7.42,0,0,1,1.23-1c.42-.25.67-.31.28.15a20.53,20.53,0,0,1-2.6,1.86c-2.59,2.74.67-.14-.27,1.17-1.22.6-1.15,1.46-2.14,2.76l-.3-.26C19,26,19,26.36,19,26.66s0,.54-1.27,1.95L18.3,27l-1.12,1.66-.1-.6a25.63,25.63,0,0,1-2.88,4.09c.52-.24.39.62-.59,2.21-.89.95.07-.81-1.32,1.47a3.09,3.09,0,0,1,1.14-2.15c0-.17.12-.64.08-.81a19.32,19.32,0,0,0-2.42,3.77,6.07,6.07,0,0,1,.61-.87c-.49,1.23-1,2.43-1.45,3.65-.41.47-.29,0-.18-.5-.32.73-.41,1.3-.9,2.34-.15-.41-.48-.5.14-2-.45,1.17-1,2.31-1.35,3.49-.23.17-1.14,1.59-1,1.1a9.6,9.6,0,0,0-.69,1.57C6,46,5.87,46.6,5.69,47.25a32.63,32.63,0,0,1-1.25,4,3.58,3.58,0,0,1-.17,1c-.42,1.21-.81,2.36-1.23,3.56a19.57,19.57,0,0,0-.75,4.06l-.87,1.6c-.29,2.38,1.12-2.17.64,1.76-.18,2.8-.62,1-.91,1.93A20.73,20.73,0,0,1,1,71.56,16.05,16.05,0,0,1,1.09,69.24ZM4.81,98.13c-.25-.51-.83-1.52-.72-2C4.7,96.63,4.64,97.17,4.81,98.13Zm25.76,35.15a3.28,3.28,0,0,1-1.34-1.18A16,16,0,0,1,30.57,133.28Zm105.28-18.86,0,.06C135,115.38,135.32,115.08,135.85,114.42Zm1.46-2c.08-.24,0-.26-.08-.19a3.69,3.69,0,0,1-.65,1.21C136.76,113.31,137,113.07,137.31,112.39ZM47.73,8.94l-.48.1C48.21,8.48,48,8.7,47.73,8.94Z"/><path class="cls-3" d="M26.4,130.47a.38.38,0,0,1,0-.32C26.15,130.06,26.1,130.11,26.4,130.47Z"/><path class="cls-3" d="M4.4,51.3l0-.08a.23.23,0,0,0,0-.11Z"/><path class="cls-3" d="M110.8,141.44a4.19,4.19,0,0,1-1,.32C109.81,141.86,110.07,141.82,110.8,141.44Z"/><path class="cls-3" d="M142.55,100.43c0,.06-.13.39-.21.62l-.27.75a5.28,5.28,0,0,1,.67-1.23C142.64,100.58,142.46,100.66,142.55,100.43Z"/><path class="cls-3" d="M148.68,87.46c0-.24.08-.5.07-.74l-.2,0C148.4,87.76,148.41,88.49,148.68,87.46Z"/><path class="cls-3" d="M144.13,99.43c.36-.05.5-1.09.76-2.23l0,.2C144.49,96.93,144.28,98.18,144.13,99.43Z"/><path class="cls-3" d="M145,96.93a8.76,8.76,0,0,1,.31-1C145.13,95.71,145.09,96.3,145,96.93Z"/><path class="cls-3" d="M138.74,109.56c.32-.43-.21-.5,0-.7-.05-.36-.34.48-.48,1.08S138.16,110.9,138.74,109.56Z"/><polygon class="cls-3" points="145.43 98.79 144.93 99.08 145.09 99.79 145.43 98.79"/><path class="cls-3" d="M141.89,107.1a15.88,15.88,0,0,0,.9-1.6c-.07,0,0-.24.07-.51A22.22,22.22,0,0,0,141.89,107.1Z"/><path class="cls-3" d="M142.86,105a8.75,8.75,0,0,0,.52-1.38C143.26,103.9,143,104.53,142.86,105Z"/><polygon class="cls-3" points="144.94 101.27 144.65 101.74 144.11 102.92 144.94 101.27"/><path class="cls-3" d="M130.89,123.32a15.87,15.87,0,0,1-1.27,1.55c0,.24.41-.09.89-.66C130.75,123.78,131.18,123.18,130.89,123.32Z"/><path class="cls-3" d="M135.59,119.32a2.3,2.3,0,0,1-.77.53l.37.36Z"/><path class="cls-3" d="M132,124c0,.26-1.65,2.5,0,.53C132,124.26,133.25,122.63,132,124Z"/><polygon class="cls-3" points="107.36 141.57 107.83 141.35 107.4 140.63 107.36 141.57"/><path class="cls-3" d="M81.79,150.25c2.46,0,.54-.56,2.75-.55.55-.26-1.8,0-1.24-.23C81.87,149.88,81.08,149.71,81.79,150.25Z"/><path class="cls-3" d="M83.3,149.47l.73-.21A5.5,5.5,0,0,0,83.3,149.47Z"/><polygon class="cls-3" points="130.53 28.37 131.34 29.62 130.94 28.7 130.53 28.37"/><path class="cls-3" d="M132.82,30.19l-.2.6.94.42A3.77,3.77,0,0,1,132.82,30.19Z"/><path class="cls-3" d="M5.28,102.61l.17.07a3.46,3.46,0,0,0-.33-1.33Z"/><polygon class="cls-3" points="0.75 81.68 0.78 82.05 1.19 81.32 0.75 81.68"/><path class="cls-3" d="M.65,63.65C.54,64.39.53,65.26.42,66,.54,64.38,1.27,63.54.65,63.65Z"/></g></g></svg>