<svg xmlns="http://www.w3.org/2000/svg" viewBox="0 0 174.52 175.44"><defs><style>.cls-1{fill:#fff4cb;}.cls-1,.cls-2{fill-rule:evenodd;}.cls-2{fill:#fffde3;}.cls-3{fill:#9d7862;}</style></defs><g id="Layer_2" data-name="Layer 2"><g id="Layer_1-2" data-name="Layer 1"><path class="cls-1" d="M148.81,25.84a85.84,85.84,0,0,0-7.72-6.65q-2.11-1.39-4.11-3A85.75,85.75,0,0,0,7.63,60.92q-.78,3.17-1.76,6.24A85.08,85.08,0,0,0,3.53,83.87c35-6.84,69.94-9.44,94.93-16.24C122.57,61.06,138.45,45,148.81,25.84Z"/><path class="cls-2" d="M156.69,35.1a86.52,86.52,0,0,0-8.27-9.26C138.06,45,122.17,61.06,98.07,67.63c-25,6.8-59.9,9.4-94.93,16.24-.05,1.17-.09,2.35-.09,3.54a85.74,85.74,0,0,0,171.47,0A85.33,85.33,0,0,0,156.69,35.1Z"/><path class="cls-3" d="M155.61,37c-.44-.65-.59-.18-.72-.23C155.73,37.77,155.67,36.93,155.61,37Z"/><path class="cls-3" d="M163.34,47.3l-.26-.12c.43.49.82,1,1.24,1.49Z"/><path class="cls-3" d="M168.29,58.29c.26-1.32-1.67-4-2.37-6.08v-.39l-.91-.64c.59,1.16,1.34,2.46,1.94,3.74A17.67,17.67,0,0,1,168.29,58.29Z"/><path class="cls-3" d="M168.86,64.81c.15-.45.59,1.26-.32-1.44a1.33,1.33,0,0,1,0,.27C168.63,63.89,168.72,64.23,168.86,64.81Z"/><path class="cls-3" d="M168.55,63.64c-.37-1.19,0,.85,0,0Z"/><path class="cls-3" d="M170.15,69.19l-.61-1.55c-.07.38.23,1.8,0,1.3C170.05,70.55,170.12,70.18,170.15,69.19Z"/><path class="cls-3" d="M171,70.62c-.09-.27-.17-.55-.27-.82A1.17,1.17,0,0,0,171,70.62Z"/><path class="cls-3" d="M170.08,68.08l.62,1.72c.06-.26.27-.33-.26-.8C170.67,69.1,170.4,68.79,170.08,68.08Z"/><path class="cls-3" d="M170,67.05c-.07-.94-.34-2.12.35-.57C169.34,63.44,169,64,170,67.05Z"/><path class="cls-3" d="M169.17,58.63l-.25-1.26-.6-.94C168.62,56.9,169,58.78,169.17,58.63Z"/><path class="cls-3" d="M171.42,79.36c.15.09.33-.59.5-.73l-.3-1.2C171.59,78.07,171.62,79.26,171.42,79.36Z"/><path class="cls-3" d="M171.92,78.63l.43,1.79C172.22,78.79,172.06,78.51,171.92,78.63Z"/><path class="cls-3" d="M171.77,70.76c-.34-1-.77-1.9-1.17-2.84.46,1.12.9,2.26,1.29,3.41Z"/><polygon class="cls-3" points="171.78 86.28 171.42 85.26 171.97 87.08 171.78 86.28"/><path class="cls-3" d="M171.77,90.88c-.26-.77-.49,1-.64.21a20.91,20.91,0,0,0,.28,3.28A15.06,15.06,0,0,1,171.77,90.88Z"/><path class="cls-3" d="M171.59,96a14.39,14.39,0,0,0-.18-1.64A11.42,11.42,0,0,0,171.59,96Z"/><path class="cls-3" d="M172.48,83.54a2.92,2.92,0,0,0-.37,1.46l.39-.74C172.5,84,172.5,83.8,172.48,83.54Z"/><path class="cls-3" d="M172.51,84.24v0c0,.79,0,1.33,0,1.56Z"/><path class="cls-3" d="M172.47,83.36v.18A.15.15,0,0,0,172.47,83.36Z"/><path class="cls-3" d="M172.22,75.59c.41,1,.86,3.27,1,1C172.81,75.89,172.8,77.16,172.22,75.59Z"/><path class="cls-3" d="M172.92,82.44l0-2c-.1,0-.24.41-.39-.11Z"/><polygon class="cls-3" points="173.11 83.39 172.92 82.44 172.93 83.17 173.11 83.39"/><path class="cls-3" d="M172.23,92.73a15.41,15.41,0,0,1,0,2.81c.16-1.1.3-2.25.38-3.34C172.5,92,172.31,91.55,172.23,92.73Z"/><path class="cls-3" d="M172.5,88.61c0,.06,0,.13,0,.19C172.56,88.68,172.57,88.59,172.5,88.61Z"/><path class="cls-3" d="M170.62,105.63l.11-.15-.06,0Z"/><path class="cls-3" d="M172.71,92a4.27,4.27,0,0,0-.09-1.82,16.83,16.83,0,0,1,0,2C172.67,92.27,172.71,92.29,172.71,92Z"/><path class="cls-3" d="M171.42,98.84c.14-.41.28-.89.41-1.4A3.89,3.89,0,0,0,171.42,98.84Z"/><path class="cls-3" d="M172.4,89.08a.69.69,0,0,0,0-.13C172.29,89.22,172.33,89.19,172.4,89.08Z"/><path class="cls-3" d="M172.4,89.08a9.08,9.08,0,0,0,.22,1.11c0-.51-.05-1-.1-1.39A1.81,1.81,0,0,1,172.4,89.08Z"/><path class="cls-3" d="M172.44,109.31c-.29-.24-.15-2.52.69-4.33.07-2-1.33-.93-2.4.5.15.1.3.12.08,2.06.35-.6,1.44-4.09,1.41-2.42-.4,2.57-.61,2-1.09,3.21.76-.91-.22,3.36.6,3l.39-2.28C172.24,109.05,172.17,109.9,172.44,109.31Z"/><path class="cls-3" d="M171.47,101.89l.1-.78a15.31,15.31,0,0,1-1,2.59c-.07,1.32,0,1.61.09,1.73.34-1.25.54-2.54.8-3.81Z"/><path class="cls-3" d="M172.06,97.59c.33.66.27,2.59.86,1.48.26-2.34-.14-1.68-.14-3.08-.37,3.75-.09-1.1-.67,1.57,0-.74.11-1.39.13-2-.09.67-.27,1.3-.41,1.9l0-.08v0h0c.07-.16.11-.21.06,0v.08a.52.52,0,0,1,.13.18c-.22,1.07-.13.16-.13-.18,0,0,0-.05-.06-.05h0c-.11,1.24-.13,2.51-.3,3.75A23.13,23.13,0,0,0,172.06,97.59Z"/><path class="cls-3" d="M174.3,78.56c0,.12-.05.12-.08.13C174.29,78.93,174.34,79,174.3,78.56Z"/><path class="cls-3" d="M174.22,80.15a3.31,3.31,0,0,1-.33-1.39c0-.79.2,0,.33-.07-.17-.53-.5-1.87-.52-.15l.09.27a8.71,8.71,0,0,1-.45,3.28A5.27,5.27,0,0,0,174.22,80.15Z"/><path class="cls-3" d="M173.67,89.08c0,1.06.11,2.12.1,3.18.17-.53.29-1.07.42-1.6l-.21.07C174.11,88.93,173.83,89.31,173.67,89.08Z"/><polygon class="cls-3" points="170.34 105.93 170.01 105.43 170.2 107.33 170.34 105.93"/><polygon class="cls-3" points="169.4 109.87 169.07 109.63 169 110.71 169.4 109.87"/><path class="cls-3" d="M1.83,98.11l-.22-1A8.84,8.84,0,0,0,1.83,98.11Z"/><path class="cls-3" d="M3,105l.22.13C3,104.86,2.9,104.74,3,105Z"/><path class="cls-3" d="M97.7,170.33c-1.37-.25-2.88-.69-2.69-.27l.44.38A9.61,9.61,0,0,1,97.7,170.33Z"/><path class="cls-3" d="M32.84,152.13c.08.11.15.24.22.36l1,.31Z"/><path class="cls-3" d="M31,152.77c-.41-.47-.81-.94-1.19-1.44A10.25,10.25,0,0,0,31,152.77Z"/><path class="cls-3" d="M5,60.19c0-.5,0-.82,0-1.25-.31.84-.34,1.07-.3,1.25S5,60.05,5,60.19Z"/><path class="cls-3" d="M149,145.58c-.9.74-1.62,1.31-2.22,1.85C148,146.66,149,146.1,149,145.58Z"/><path class="cls-3" d="M6.56,100.17c-.16-.55-.27-.78-.36-.75C6.35,100,6.48,100.3,6.56,100.17Z"/><path class="cls-3" d="M144.33,149.69c.19-.1.35-.22.53-.33.59-.6,1.14-1.25,1.91-1.93A9.27,9.27,0,0,0,144.33,149.69Z"/><path class="cls-3" d="M117,3.8c.1.05.21.09.29.14S117.17,3.85,117,3.8Z"/><path class="cls-3" d="M148.22,27.81c-.29-.25-.73-.68-1.16-1.08A11.89,11.89,0,0,0,148.22,27.81Z"/><path class="cls-3" d="M163.33,125c.37-.77,0-.14,0,0Z"/><path class="cls-3" d="M166.62,121.87c0,.18,0,.34,0,.4A.59.59,0,0,1,166.62,121.87Z"/><path class="cls-3" d="M139.16,157.12l-.07,0C139.36,157.08,139.31,157.09,139.16,157.12Z"/><path class="cls-3" d="M164.09,123.9c-.19.26-.4.57-.61.92C163.59,124.68,163.77,124.4,164.09,123.9Z"/><path class="cls-3" d="M163.83,124c.15-.26.28-.46.37-.66S164.12,123.26,163.83,124Z"/><path class="cls-3" d="M162.81,126a13.91,13.91,0,0,1,.67-1.22c-.11.14-.16.19-.15.14C163.22,125.19,163.06,125.51,162.81,126Z"/><path class="cls-3" d="M45.63,12.16l.18-.06C46.51,11.5,46.18,11.72,45.63,12.16Z"/><path class="cls-3" d="M74.67,173.86h.11l-.13,0Z"/><path class="cls-3" d="M71.42,173.56a6.85,6.85,0,0,1,3.23.26l-.85-1.35Z"/><path class="cls-3" d="M1.27,81.34c-.17.76-.34,1.52-.5,2.28C.28,80.81.7,78.79,0,80.93c.63.21.5,2.45.51,4.69s.07,4.49.72,4.63L1,91.77c0-.44-.09-.5-.1-.93-.46,3,1,2.14,1.2,5.89,0,1.31,0,2.25-.29,1.38.22,1,.47,1.91.73,2.86.1.84-.15.67-.26-.17.26,1.47.56,2.93.91,4.38l0,0c.34.58.92,1.93,1.23,2.57.1,1.14-.28-.51-.36-.2L5,109.84c-.07,1.06-.9-.83-1.27-2.51a3,3,0,0,0,.22,2.55,12.76,12.76,0,0,1,.6,1.55,16.18,16.18,0,0,1,.65,2.82l-.85-2.2c-.26,1.67.51,3.36,1,6,0-.35-.17-1.71-.19-2.67s.15-1.53.71-.3a10,10,0,0,0,1.18,3c-.45.18.2,1.46.88,3.1l-.61.12c.88,1.73,1.16,1.44,1.86,2.36.82,2,.61,2.57.49,3.2,1.47,3.12-.4-2.45,1.54,1.12a27.77,27.77,0,0,0,4.47,6.93c.93,1.76-.51-.08-.26.6l1.4,1.19c.23.36,0,.33-.08.32,1,1.11.55-.22,2.05,1.55.46,0,1,1.15,1.67,2.47a10.69,10.69,0,0,0,2.91,3.64c.34.65-.51,0-.54.31a33.32,33.32,0,0,0,5.28,4.13l1.71,2.19c-1.14-1.74,1.07-.3,3.06.8-.38-.64-.7-1.18-1-1.51l2.88,2.07c.27.34-.15.3-.75.11a5.5,5.5,0,0,0,.59.3c.85,1,.12.83-.82.52-.25-.37-.49-.76-.73-1.13-.9-.3-1.8-.54-1.9-.15a6.65,6.65,0,0,1,1,.65c-.24-.08-.42-.11-.37,0s.42.28,1,.55l.18,1.06.33-.08c1.16,1.08,2.26,2.24,3.48,3.27.79.36,1.56.7,2.35,1s1.62.62,2.48,1,1.78.71,2.77,1.15l1.54.72c.54.24,1.11.5,1.71.79-1.4-.2-.65.58-1,1.06a7.45,7.45,0,0,0-2.52-1.6A18.31,18.31,0,0,1,40.59,160c1.17.86.75.92.39.8,1.48.78,3,1.44,4.54,2.14-.35.37.74.83,1.78,1.64-.19-.67.68-.33,1.87.19a36.47,36.47,0,0,0,3.67,1.55c0,.34-.61.48-2.79-.71A4.38,4.38,0,0,0,53,166.76a5.34,5.34,0,0,1,2.93,1c-.57-.21-.84-.41-1.12-.35,1.39.31,4.51,1.74,3.66,1.72l-.57-.21a51.63,51.63,0,0,0,7.29,2.38c2.55.6,4.73.87,5.11.53a3,3,0,0,1-1,.95c2.54-.37,5-.81,7.44-1.39-.72.6,1.42,2.62-1.92,2.49a13.16,13.16,0,0,0,4.12.55c-.64-.17-1.48-1.18-.6-1.15a15.11,15.11,0,0,0,2,.82c.48.15,1,.29,2.51.71-1-.22.2-1.24,1.71-1.1-.24.15.07,1.09-.5,1.17,1.3-.25,2.59-.63,3.86-.94-1,.17-.19.9.68,1.23-.4-.17,3.32,0,4.35-.17l-1.64-.21a9.91,9.91,0,0,0,2.55-.24,12,12,0,0,0,1.69-.65,12,12,0,0,1,4.13-1.18c-.47.29-1.11,1.52,1.08,1.38.46-.34,1.47-1.1,2.77-2a22.35,22.35,0,0,1,4.65-2.45l.76.15,1.33-.5,1.31-.55a40.71,40.71,0,0,1-8.63,5.2c1.64,0,.5.28,2.9-.17.91.13-1.23.67-1.94.82l2.83-.41c.94-.16,1.88-.36,2.82-.54-.2-.29.83-.68,1.85-1.09s2-.87,1.85-1.1c-1.9.81-3.85,1.47-5.82,2.15-.36-.6,3.08-2.49,6.88-3.54,1,0-.4,1.31-.26,1.49A19.82,19.82,0,0,1,118,170l-1.5.87a10.21,10.21,0,0,0,2.76-1.21,8.05,8.05,0,0,1,3.11-1.2c.88-.27,2.87-.34,2.87-.75-1.69,0-2.82-2-2.16-2.93l2.54-.69a32,32,0,0,1,3.1-.83c1.6-.18-1.38,2.24,0,2.1,0-.18.62-.76.89-1,.93-.31-.09.69,1.73-.39,0-.74,3.74-2.08.59-1,1.68-1.2,2-.94,4-2.28-.88,0,1.07-2.32,2.56-3.68,0,.21.5.12.74.07a78.54,78.54,0,0,0,8.21-6.18c.36-.13,1.86-1.29,1.47-.54a8.84,8.84,0,0,1,1.41-1.83c1-.64.57-.13.06.41s-1.07,1.14-.19.77c-.12-.35,1.83-2.6,2.84-4-.81,0-2.77,2.82-3.9,4.14-.28-.29,0-1.1.61-2.22a38.77,38.77,0,0,1,2.78-4.21c1.92-2.53,1.3-.71,1.57-1.2,3.9-4.56,2.07-4.8,5.35-8.5,1.49-1.37.9.49,1.45.33a12.15,12.15,0,0,1-1.88,2.59,25.61,25.61,0,0,0-1.68,2c.51-.52,1-1.08,1.47-1.62a13,13,0,0,1-.83,1.52,8.78,8.78,0,0,1-1.15,1.4,27.89,27.89,0,0,0,3.92-5c1.63-2.44,3.32-5.27,4.6-7.24.23-.83.72-2.18.22-1.67l-.6,1.34c-1,1,.75-2.72-.27-1.16a39.54,39.54,0,0,1,2.45-6.45l.73-.26c-.09,0-.33.39-.57.87a5.56,5.56,0,0,0-.6,1.43c.28-1.11,2.35-3.61,2.1-5l-1.08,1.64c.48-1.92.64-4.39,1.55-6.62-.86.88-.1.55-1.28,2,.63-.57.13.88-.32,2.23s-1,2.55-.16,1.6a6.91,6.91,0,0,0-1.4,2.09,12.37,12.37,0,0,1-1.59,2.41c.2,0,.67-.58-.25,1.21a1.57,1.57,0,0,1,0,.47l-.07.12.07-.09c0,.09,0,.1,0,0a3.86,3.86,0,0,1,.7-.8,8.27,8.27,0,0,1-.8,2.54c-.42,1-.84,2-1,2.5-.68,1,.06-.54-.45-.07l-.52,1.58c-.45-.07-2.2,2.4-1-.17-.42.73-.85,1.46-1.32,2.16a18.82,18.82,0,0,0-1.54,2,16.87,16.87,0,0,0-1.26,1.94c-.75.92-1.38,2.73-1,1.69l-2.24,3.29-.11,0c-2.54,3-4.86,6.56-8.72,9-.46.48-.93,1-1.5,1.5a16.19,16.19,0,0,1-2.16,1.75l-.57,0c-1.22,1.2-4.29,2.72-4.65,3.46-1,.1-2.77,1.17-4.61,2.34l-2.77,1.71c-.9.5-1.75.95-2.42,1.25l.11.48-2.76,1.39c-1,.49-1.93,1-3.09,1.59l.31.34c-1.93,1.15-5.41,1.78-8.75,2.72a3.77,3.77,0,0,1,1.68-.49,13,13,0,0,0-3.15.57c-1,.3-2.07.6-3.08.95-.52.17-1,.35-1.53.51l-1.52.38a11.76,11.76,0,0,1-3,.34,6.72,6.72,0,0,1-2.26.28l.23-.05-.39,0c-.42,0-.85,0-1.32-.06a9.5,9.5,0,0,0,1.12.09c-.72.12-1.81.26-2.88.44l-.49-.42-.25,0c-1.06-.09-.83.28-.24.59a10.2,10.2,0,0,0-1.42.38c-.89-.72-2.84.32-4-.44-.72.41-5.43.19-6.06.9,0-.1-.35-.18.24-.14a16.52,16.52,0,0,0-3.52-.26l-.44-.64c-.91.16-1.82.35-2.73.46-1.55-.61-2.16-.92-.52-1.11A20.37,20.37,0,0,1,73,170.1a24.57,24.57,0,0,0-3-.15l.24-.33c-1.13-.28-3.09-.23-3.69-.72a16.22,16.22,0,0,0-3-1.24l-2.22-.82c-.8-.29-1.66-.59-2.52-1a49.65,49.65,0,0,1-10.11-5.14c.58,1.61-2.47-1.94-3.11-1.38-.2-.43-.91-1,.13-.67a21,21,0,0,1-3.45-2.26,11.13,11.13,0,0,0-2.92-1.66c-.15-.45.82.12.63-.21a3.21,3.21,0,0,1-1.19-.8c-.19-.32.53.12,1,.35a8.24,8.24,0,0,0-2.89-1.55,1.7,1.7,0,0,0-1.34.31,6.42,6.42,0,0,0-3.13-2.44c-.3-.6-.9-1.47.8-.1-.47-.4-1.76-1.76-3-3s-2.36-2.34-2.63-2.17a7.45,7.45,0,0,0-1.4-1.5c-1.81-2.07-1.88-2.33-3.64-4.39L23,140c-1.27-.36-1.49-1.7-2.88-3.39h.09c-2.37-4.44-1.48-1.62-3.58-6.14l-.25.46c-1.11.11-1.7-4.09-3.28-6.48l.24,1a5.44,5.44,0,0,1-.79-2.92,17.88,17.88,0,0,0-.36-3.07c0-.35.32.45.57.85-1-4-.75-.25-2-3,.11-.64,1,.38.38-1.55-.11-1-2.94-5.27-2.94-8.17-.09.65-.18,1.31-.71,0-.63-2.11-.34-5.91-1.38-7.72,0-.28.08-.4.14-.42-.47-1.6-1-5.31-1.44-6.29.73-.82.39-3.37.19-5.76s-.3-4.61.44-4.55c.07-1.7.18-3.4.35-5.09l.13.15a17.72,17.72,0,0,0,.22-5.6c.23-.73.27-.16.33-.09.3-1.15.52-2,.72-2.81.09-.37.17-.72.25-1,0-.16.07-.32.1-.47a1.62,1.62,0,0,0,.06-.34A34.7,34.7,0,0,0,8.16,63l.58-.29a3,3,0,0,1,.13-.63c0-.14.08-.29.14-.45a3.39,3.39,0,0,1,.15-.41l1.18-2.59c.45-1,.93-2.09,1.36-3.23a31.93,31.93,0,0,0,1.36-3.36c0,.07.07.19,0,.56a20.27,20.27,0,0,1,1.75-3.82c.78-1.24,1.6-2.46,2.35-3.6.38-.56.69-1.13,1.05-1.63a14.71,14.71,0,0,0,.92-1.43,4.08,4.08,0,0,0,.71-2.34,31.64,31.64,0,0,1,1.67-3.09c-2.83,3.54-.21-1-1.57.33,1-1.49,3.28-3.34,2-1.55l-.28.22c.23,1.18,3.7-4.27,4.19-3.68a81.74,81.74,0,0,1,19.9-16.14l-1.2-.12,2.54-1.4c.74-.24,1.15,0-.64,1a6.08,6.08,0,0,0,2.81-2.17c.9-.45,1.31-.55,1.41-.49s-.13.24-.41.51c-.56.52-1.44,1.18-.9.88s.94-.6,1.43-.86l-.37.1a10.32,10.32,0,0,1,3.32-2.2c1.48-.54.91.05,1.48-.19,0,.05.21,0,.86-.38,1.11-.48,2.26-.84,3.39-1.27H57.88c1.41-.83,3.22-1.2,1.42-1.18a12.55,12.55,0,0,0,3.16-.7c1.38-.31,3-.76,4.57-1.22a41.77,41.77,0,0,1,4.41-1.08,20.15,20.15,0,0,1,2.62-.44,12,12,0,0,1,1.63-.55c.56-.12,1.13-.23,1.72-.32,1.18-.19,2.43-.33,3.81-.47-.7,0-1.18-.63,1.23-.8-.78,1.32,4.44.38,6.38,1.22-.43-.13-.23-.23.28-.3s1.33-.06,2.12-.08c1.57-.07,3,0,1.7-.56,2,.22.1.49,1.59.87a33.45,33.45,0,0,1,7.67.78c2.69.57,5.47,1.28,8.31,2,.13-.15-.76-.63.53-.57l2.73,1.66c1.12.27,1.31-.59,3.13.62-.23-.23-.59-.57.17-.38,6.45,2.81,13.07,5.7,19.09,9.72l-.09-.06q2.12,1.52,4.18,3.09l-.09-.06a42.87,42.87,0,0,1,6.17,6.1c-.93-1.3-.14-.62.74.2-.51-.6.3-.29.35-.56,1,1.28,2,2.58,3,3.91,1.1.2,3.51,3.87,4.27,3.9l-1.08-1.12c.94.56.79-.25.48-1.25s-.76-2.18-.32-2.38c-1.09-.61-1.93-1.95-3-3.38a11.46,11.46,0,0,0-4.2-3.79c-.52-.71.75.27.54-.2a10.93,10.93,0,0,1-3.57-2.61l.26.08L142,18l-.09-.06c-1.49-1.09-2.7-2-3.91-3h0l-.09-.06a77.44,77.44,0,0,0-7.13-4.78l.24.64a18.41,18.41,0,0,1-2.09-1.46c-.94-.08,0,.4,1,.91s1.88,1.08,1,1c-.64-.89-3-2.15-5.34-3.23-1.16-.56-2.32-1.06-3.25-1.52a5.51,5.51,0,0,1-1.84-1.25c-2.19-.82.45.73-1.72-.08l-.49-.49-.67.16c-1.43-.53-2-1.11-2-1.36a14.3,14.3,0,0,0,1.4.38,10.17,10.17,0,0,0-1.6-.66c-.6-.19-1.24-.35-1.85-.5-1.2-.3-2.26-.47-2.58-.61.71.24,1.42.48,2.12.75-3.1-.72-6.54-1.56-10-2.08A51.45,51.45,0,0,0,93,0l.45.24A24.89,24.89,0,0,1,89.24.22a29.65,29.65,0,0,0-4.6.08l.18-.06a14.08,14.08,0,0,1-1.74.31c-.64.06-1.32.12-2,.22C82.33.36,78.6.58,80.26.1c-5,1-2.48.6-5.65,1.86l-.81-.2a10.2,10.2,0,0,1-3.58,1.33c2-.71-1.71-.19.5-1.06a17.08,17.08,0,0,0-6.13,1.51,17,17,0,0,1-2.09.73,6.84,6.84,0,0,1-2,.2c-1,.91.13.58,1.37.23s2.61-.78,2-.49c.6,0,.17.31-.62.68-.39.18-.87.37-1.35.54s-.94.39-1.35.51a10.15,10.15,0,0,1-2.67.34A13.58,13.58,0,0,0,56,6.55a12.29,12.29,0,0,0-1.2.33c-.42.16-.87.36-1.36.59.39-.18.39-.26.78-.44-1.57.46-2.73,1.66-4.7,2.15-.76,1-2.28,1.21-2.21,2L49,10.13l1.75-.92c-2,1.07-3.3,3-6.7,4.41a11,11,0,0,1,1.61-1.46c-1.05.36-1.74,1.14-2.8,1.54-.15-.84,4.07-2.55,5.89-4.25-1.18.29-3.7,2.75-3,1.43a5.61,5.61,0,0,1-2.53,1.94,10.92,10.92,0,0,0-3.23,2.44l-.1-.48a13.31,13.31,0,0,1-1.73,1.51l1-1.35a8,8,0,0,1-1.38,1.11c-.24.16-.49.3-.74.44l-.73.46a14.35,14.35,0,0,0-2.77,2c3.75-3,1.18-.24,3-1.24-2.1,2.07-2.94,2.36-3.89,2.69s-2,.74-4.33,3.08c.62-.67,2.65-2.11,1.77-1a21.83,21.83,0,0,1-3.06,2.16c-3,3.23.77-.19-.31,1.37-1.41.71-1.29,1.74-2.45,3.26l-.35-.3C21.94,30.7,22,31.15,22,31.51s.07.66-1.45,2.3l.67-1.89-1.31,1.94-.12-.7a20.47,20.47,0,0,1-1.6,2.48c-.49.66-1,1.33-1.73,2.32.59-.3.51.75-.7,2.57-1,1.11.06-1-1.53,1.72a3.27,3.27,0,0,1,1.34-2.5c0-.2.14-.74.1-.94A13.59,13.59,0,0,0,14,41.06c-.5.82-.86,1.66-1.14,2.15a9.3,9.3,0,0,1,.69-1l-1.66,4.28c-.5.54-.35,0-.19-.58-.39.84-.57,1.46-1.08,2.72a2.62,2.62,0,0,1-.27-.7,3.07,3.07,0,0,1,.43-1.68l-.44,1-.36,1L9.2,50.33c-.27.19-1.34,1.84-1.23,1.27a11.55,11.55,0,0,0-.82,1.83c-.2.69-.39,1.45-.58,2.22s-.4,1.56-.64,2.34c-.12.39-.25.78-.39,1.16l-.22.57L5.2,60a2.59,2.59,0,0,0-.17.46,3.7,3.7,0,0,1-.11,1.12c-.43,1.35-.92,2.6-1.36,3.93L3.4,66l-.11.37a2.24,2.24,0,0,0-.09.35c-.09.37-.19.75-.26,1.14a21,21,0,0,0-.3,2.51c-.35.62-.69,1.24-1,1.87C1.31,75,2.89,69.7,2.4,74.3c-.24,3.26-.74,1.13-1.08,2.25a24.06,24.06,0,0,1-.11,7.5A24.14,24.14,0,0,1,1.27,81.34Zm4.55,33.71c-.31-.59-1-1.77-.85-2.32C5.7,113.3,5.61,113.93,5.82,115.05ZM36.09,156a4.71,4.71,0,0,1-1.57-1.38A9.13,9.13,0,0,1,36.09,156ZM158.93,133.3a.25.25,0,0,0,0,.07C158,134.45,158.33,134.07,158.93,133.3Zm1.74-2.35c.11-.28,0-.3-.08-.23a4.44,4.44,0,0,1-.79,1.4C160,132,160.29,131.74,160.67,131ZM55.41,10.64l-.56.13C56,10.1,55.68,10.36,55.41,10.64Z"/><path class="cls-3" d="M31.2,152.71a.43.43,0,0,1,0-.37C30.91,152.22,30.85,152.29,31.2,152.71Z"/><path class="cls-3" d="M5,60.54l0-.09v0s0,0,0-.11v0a.19.19,0,0,0,0-.08v.12l0,.09H5v.13Z"/><path class="cls-3" d="M129.85,165a4.91,4.91,0,0,1-1.19.34C128.68,165.47,129,165.42,129.85,165Z"/><path class="cls-3" d="M166.73,116.77l-.57,1.77a7.24,7.24,0,0,1,.75-1.5C166.8,117,166.52,117.32,166.73,116.77Z"/><path class="cls-3" d="M173.74,101.73c0-.28.1-.58.09-.86l-.23,0C173.41,102.08,173.43,102.93,173.74,101.73Z"/><path class="cls-3" d="M168.77,115.68c.41,0,.67-1.19,1-2.47a2,2,0,0,1-.07.23C169.33,112.9,169.05,114.29,168.77,115.68Z"/><path class="cls-3" d="M169.88,112.92c.12-.39.21-.8.34-1.18C170.05,111.53,170.06,112.21,169.88,112.92Z"/><path class="cls-3" d="M162.3,127.62c.4-.5-.24-.58.06-.81C162.3,126,160.83,130.68,162.3,127.62Z"/><polygon class="cls-3" points="170.32 115.07 169.71 115.37 169.84 116.21 170.32 115.07"/><path class="cls-3" d="M166,124.73c.36-.62.68-1.26,1-1.89-.09,0,0-.27.09-.59A14.72,14.72,0,0,0,166,124.73Z"/><path class="cls-3" d="M167.09,122.25a9,9,0,0,0,.63-1.6C167.57,121,167.26,121.73,167.09,122.25Z"/><polygon class="cls-3" points="169.47 117.89 169.14 118.44 168.55 119.84 169.47 117.89"/><path class="cls-3" d="M153.2,143.73c-.47.62-.95,1.24-1.46,1.82-.05.28.48-.1,1-.79C153,144.26,153.55,143.56,153.2,143.73Z"/><path class="cls-3" d="M158.7,139.05a2.54,2.54,0,0,1-.93.6l.43.42C158.37,139.73,158.55,139.4,158.7,139.05Z"/><path class="cls-3" d="M154.45,144.49c0,.29-1.91,2.92.05.62C154.53,144.82,156,142.93,154.45,144.49Z"/><polygon class="cls-3" points="125.84 165.19 126.38 164.94 125.88 164.1 125.84 165.19"/><path class="cls-3" d="M96,175.44c2.87,0,.62-.6,3.21-.61.64-.3-2.11,0-1.45-.27C96.1,174.93,95.18,174.86,96,175.44Z"/><path class="cls-3" d="M97.78,174.56a8.57,8.57,0,0,0,.85-.24C98.15,174.44,97.92,174.51,97.78,174.56Z"/><polygon class="cls-3" points="152.2 32.83 153.17 34.28 152.69 33.22 152.2 32.83"/><path class="cls-3" d="M154.9,34.94l-.23.71,1.09.48A4.36,4.36,0,0,1,154.9,34.94Z"/><path class="cls-3" d="M6.41,120.29l.19.07a3.93,3.93,0,0,0-.41-1.54Z"/><polygon class="cls-3" points="0.97 95.87 1 96.3 1.48 95.45 0.97 95.87"/><path class="cls-3" d="M.74,74.82C.6,75.67.6,76.7.48,77.56.59,75.67,1.47,74.69.74,74.82Z"/></g></g></svg>