<svg xmlns="http://www.w3.org/2000/svg" viewBox="0 0 280.73 76.2"><defs><style>.cls-1{fill:#9d7862;}</style></defs><g id="Layer_2" data-name="Layer 2"><g id="Layer_1-2" data-name="Layer 1"><path class="cls-1" d="M280.44,72.88c.48,0,.31-.22.38-.26C280,72.67,280.46,73,280.44,72.88Z" transform="translate(-0.09 -0.21)"/><polygon class="cls-1" points="272.4 73.17 272.55 73.07 271.37 73.31 272.4 73.17"/><path class="cls-1" d="M265.07,73.32c.7.42,2.69,0,4,.11l.22.1.6-.33C268.29,73.24,266.2,73.45,265.07,73.32Z" transform="translate(-0.09 -0.21)"/><path class="cls-1" d="M261.11,72.4c.25.16-.85.14.93.06l-.17,0Z" transform="translate(-0.09 -0.21)"/><path class="cls-1" d="M261.87,72.42c.78,0-.51-.14,0,0Z" transform="translate(-0.09 -0.21)"/><path class="cls-1" d="M258.26,72.49l1-.14c-.21-.1-1.13-.12-.79-.19C257.44,72.23,257.66,72.33,258.26,72.49Z" transform="translate(-0.09 -0.21)"/><path class="cls-1" d="M257.28,72.78l.53-.06C257.72,72.68,257.58,72.67,257.28,72.78Z" transform="translate(-0.09 -0.21)"/><path class="cls-1" d="M259,72.6l-1.14.12c.15.07.17.21.52,0C258.24,72.8,258.47,72.69,259,72.6Z" transform="translate(-0.09 -0.21)"/><path class="cls-1" d="M259.59,72.67c.58.09,1.32.15.29.29C261.85,72.92,261.56,72.62,259.59,72.67Z" transform="translate(-0.09 -0.21)"/><path class="cls-1" d="M264.69,73.75l.77.12.67-.13C265.79,73.81,264.64,73.62,264.69,73.75Z" transform="translate(-0.09 -0.21)"/><path class="cls-1" d="M251.84,72.23c-.06.09.35.24.43.35l.76-.1C252.64,72.42,251.89,72.36,251.84,72.23Z" transform="translate(-0.09 -0.21)"/><path class="cls-1" d="M252.27,72.58l-1.14.14C252.14,72.75,252.33,72.68,252.27,72.58Z" transform="translate(-0.09 -0.21)"/><polygon class="cls-1" points="257 73.03 258.88 72.73 256.64 73.03 257 73.03"/><polygon class="cls-1" points="247.41 71.98 248.05 71.79 246.9 72.09 247.41 71.98"/><path class="cls-1" d="M244.61,72.21c.48-.16-.65-.29-.15-.39a12.47,12.47,0,0,0-2.05.29A8.11,8.11,0,0,1,244.61,72.21Z" transform="translate(-0.09 -0.21)"/><path class="cls-1" d="M241.4,72.3c.32,0,.65-.11,1-.19A5.8,5.8,0,0,0,241.4,72.3Z" transform="translate(-0.09 -0.21)"/><path class="cls-1" d="M249.19,72.67a1.61,1.61,0,0,0-.9-.26l.45.25Z" transform="translate(-0.09 -0.21)"/><path class="cls-1" d="M248.75,72.67h0l-1,0Z" transform="translate(-0.09 -0.21)"/><path class="cls-1" d="M249.3,72.67h-.11A.09.09,0,0,0,249.3,72.67Z" transform="translate(-0.09 -0.21)"/><path class="cls-1" d="M254.11,73c-.67.13-2.06.27-.72.49C253.88,73.32,253.1,73.2,254.11,73Z" transform="translate(-0.09 -0.21)"/><path class="cls-1" d="M249.85,73l1.21.07c0-.07-.24-.17.09-.23Z" transform="translate(-0.09 -0.21)"/><polygon class="cls-1" points="249.17 72.85 249.76 72.78 249.32 72.75 249.17 72.85"/><path class="cls-1" d="M243.47,72.54a9.45,9.45,0,0,1-1.74.12c.69.06,1.4.09,2.08.09C243.91,72.67,244.21,72.54,243.47,72.54Z" transform="translate(-0.09 -0.21)"/><path class="cls-1" d="M246,72.63h-.12C246,72.66,246.05,72.67,246,72.63Z" transform="translate(-0.09 -0.21)"/><polygon class="cls-1" points="235.28 72.42 235.38 72.46 235.41 72.42 235.28 72.42"/><path class="cls-1" d="M243.93,72.8a3,3,0,0,0,1.12-.08c-.38,0-.8,0-1.24,0C243.77,72.79,243.76,72.81,243.93,72.8Z" transform="translate(-0.09 -0.21)"/><path class="cls-1" d="M239.62,72.4c.27.06.58.1.9.14A2.4,2.4,0,0,0,239.62,72.4Z" transform="translate(-0.09 -0.21)"/><path class="cls-1" d="M245.74,72.57h.08C245.65,72.5,245.67,72.53,245.74,72.57Z" transform="translate(-0.09 -0.21)"/><path class="cls-1" d="M245.74,72.57a4.4,4.4,0,0,0-.69.15l.87-.08Z" transform="translate(-0.09 -0.21)"/><path class="cls-1" d="M233.44,74.2a4,4,0,0,1,2.64-.18c1.16-.16.41-.92-.61-1.35,0,.1,0,.19-1.23.32.42.13,2.65.31,1.64.51a4.3,4.3,0,0,1-2.06-.21c.65.29-2,.4-1.68.82l1.39-.14C233.56,74,233.05,74.14,233.44,74.2Z" transform="translate(-0.09 -0.21)"/><path class="cls-1" d="M237.75,72.71l.49,0a9.51,9.51,0,0,1-1.7-.32c-.81.11-1,.19-1,.27l2.42,0Z" transform="translate(-0.09 -0.21)"/><path class="cls-1" d="M240.45,72.69c-.39.25-1.57.35-.84.62,1.44,0,1-.2,1.87-.3-2.33,0,.67-.14-1-.29.46,0,.87,0,1.26-.06-.42,0-.83-.07-1.21-.12l.06,0h0c.1,0,.14,0,0,0h0a.35.35,0,0,1-.11.09c-.67,0-.11-.06.11-.09,0,0,0,0,0,0h0l-2.34.12A21.48,21.48,0,0,0,240.45,72.69Z" transform="translate(-0.09 -0.21)"/><path class="cls-1" d="M252.15,74c-.08,0-.07,0-.08-.06S251.86,74,252.15,74Z" transform="translate(-0.09 -0.21)"/><path class="cls-1" d="M251.19,73.86a2.19,2.19,0,0,1,.86-.1c.48.07,0,.12,0,.2.34-.07,1.17-.17.13-.3l-.17,0a6.43,6.43,0,0,1-2-.44A3.3,3.3,0,0,0,251.19,73.86Z" transform="translate(-0.09 -0.21)"/><path class="cls-1" d="M245.75,73.34l-1.94.11,1,.22-.05-.13C245.85,73.6,245.61,73.44,245.75,73.34Z" transform="translate(-0.09 -0.21)"/><polygon class="cls-1" points="235.06 72.29 235.32 72.03 234.2 72.4 235.06 72.29"/><polygon class="cls-1" points="232.54 72.31 232.63 72.08 231.97 72.22 232.54 72.31"/><path class="cls-1" d="M90.22,75.23l-.57.07C89.92,75.28,90.09,75.25,90.22,75.23Z" transform="translate(-0.09 -0.21)"/><path class="cls-1" d="M94.34,75.18l.1-.11C94.25,75.13,94.17,75.18,94.34,75.18Z" transform="translate(-0.09 -0.21)"/><path class="cls-1" d="M170.64,72.26c-.83-.22-1.76-.55-1.66-.3l.25.26A5.7,5.7,0,0,1,170.64,72.26Z" transform="translate(-0.09 -0.21)"/><path class="cls-1" d="M128.18,73.69l.24.08.56-.24Z" transform="translate(-0.09 -0.21)"/><path class="cls-1" d="M127.59,74.73l-1.09-.16A10.83,10.83,0,0,0,127.59,74.73Z" transform="translate(-0.09 -0.21)"/><path class="cls-1" d="M67.55,75.73l-.69.23C67.91,76,67.46,75.85,67.55,75.73Z" transform="translate(-0.09 -0.21)"/><path class="cls-1" d="M206.78,72.47a17.77,17.77,0,0,0-1.79-.16C205.85,72.46,206.55,72.68,206.78,72.47Z" transform="translate(-0.09 -0.21)"/><path class="cls-1" d="M91.8,72.54c-.35,0-.5.1-.49.16C91.67,72.65,91.87,72.6,91.8,72.54Z" transform="translate(-0.09 -0.21)"/><path class="cls-1" d="M202.91,72.3l.38.06a15.23,15.23,0,0,1,1.7,0A5.19,5.19,0,0,0,202.91,72.3Z" transform="translate(-0.09 -0.21)"/><path class="cls-1" d="M3.57,30.91c0-.07,0-.14,0-.19S3.52,30.79,3.57,30.91Z" transform="translate(-0.09 -0.21)"/><path class="cls-1" d="M2.13,7c0,.24,0,.61.05,1C2.19,7.79,2.16,7.5,2.13,7Z" transform="translate(-0.09 -0.21)"/><path class="cls-1" d="M222.47,72.35c.54,0,.09,0,0,0Z" transform="translate(-0.09 -0.21)"/><path class="cls-1" d="M225.07,73.36c-.11,0-.2.06-.21.12A.31.31,0,0,1,225.07,73.36Z" transform="translate(-0.09 -0.21)"/><path class="cls-1" d="M197.58,73.84h-.05C197.69,73.89,197.66,73.88,197.58,73.84Z" transform="translate(-0.09 -0.21)"/><path class="cls-1" d="M223.28,72.47l-.69-.08C222.7,72.41,222.91,72.44,223.28,72.47Z" transform="translate(-0.09 -0.21)"/><path class="cls-1" d="M223.17,72.35l.47,0C223.7,72.34,223.65,72.31,223.17,72.35Z" transform="translate(-0.09 -0.21)"/><path class="cls-1" d="M221.73,72.36c.3,0,.59,0,.86,0-.1,0-.15,0-.12,0Z" transform="translate(-0.09 -0.21)"/><path class="cls-1" d="M31,64.86l-.09-.08C30.34,64.58,30.56,64.69,31,64.86Z" transform="translate(-0.09 -0.21)"/><path class="cls-1" d="M156.7,74.83h0Z" transform="translate(-0.09 -0.21)"/><path class="cls-1" d="M154.77,75a3.48,3.48,0,0,1,1.91-.2l-.63-.73Z" transform="translate(-0.09 -0.21)"/><path class="cls-1" d="M80.36,75.57l1.38.19c-1.63.42-2.84.32-1.54.6.08-.39,1.42-.45,2.73-.51s2.59-.12,2.67-.52l.88.14c-.25,0-.29,0-.54,0,1.73.33,1.25-.62,3.48-.54.78,0,1.33.16.8.26L91.94,75c.51,0,.39.14-.12.14L94.46,75l0,0c.38-.13,1.23-.33,1.64-.42.67.1-.33.09-.16.18l1.46-.2c.6.2-.61.4-1.62.39,1.37.76,1.21-.21,4.16.22l-1.38.11c.89.44,2,.27,3.53.54-.37-.15-3.13-.68-1.54-.89a5.77,5.77,0,0,0,1.89-.08c0,.28.84.2,1.89.18l-.07.37a5.51,5.51,0,0,0,1.7-.47c1.26,0,1.53.31,1.82.55,2,0-1.39-.46,1-.54a22.37,22.37,0,0,0,4.86-.24c1.18.12-.2.23.22.33l1-.3c.25,0,.17.1.13.14.88-.11.07-.37,1.45-.47.37-.41,2.83.59,4.54.12.42.1-.2.23-.07.37a31.81,31.81,0,0,0,3.93-.63l1.64.24c-1.21-.28.33-.61,1.68-.88-.43-.13-.79-.25-1-.31l2.15-.2c.26.06.05.19-.31.35l.4-.09c.77.13.37.35-.18.55l-.78-.22c-.53.22-1,.47-.91.69a3.83,3.83,0,0,1,.7-.1c-.14.06-.23.11-.16.15s.29,0,.65-.14l.49.42.11-.17,2.82.26a36.62,36.62,0,0,1,7-1.2c-.79.3-.17.5-.22.85-.87-.38-2.47.16-4.13.09.87,0,.68.21.46.27l2.95-.35c-.07.3.63.22,1.4.35-.58-.58,2.2-.39,3.4-.56.08.19-.21.39-1.68.34,1.62.44,2.1-.68,3.68-.3-.36,0-.55,0-.69.07.84-.17,2.88,0,2.4.14h-.36c2.38.07,7.24,0,7.59-.48a1.8,1.8,0,0,1-.45.69l4.24-1.64c-.37.42,1.06,1.43-.91,1.67a9.52,9.52,0,0,0,2.46,0c-.39-.06-1-.61-.44-.65a17.73,17.73,0,0,0,2.79.66c-.57-.09.07-.75,1-.73-.14.1.08.66-.26.73l2.28-.65c-.57.12-.1.55.41.74a24,24,0,0,1,2.57-.05l-1-.15c2.57.1,2.54-.91,5.09-.87-.31.13-.76.83.53.91a13.34,13.34,0,0,1,4.9-1.84l.43.19,1.73-.21a45.86,45.86,0,0,1-5.76,2,4.42,4.42,0,0,0,1.71.21c.5.18-.79.27-1.21.28l3.35.13c-.15-.39,2.57-.38,2.44-.71l-3.64.39c-.15-.39,2.11-1.09,4.48-1,.61.16-.45.69-.4.82a9.54,9.54,0,0,1,2.47-.15l-1,.21c1.32.15,2.16-.51,3.75-.13.55,0,1.64.5,1.73.27-.89-.44-1.06-1.82-.46-2.15.19,0,2.88.44,3.5.66.9.35-1.36.82-.59,1.12,0-.1.53-.23.74-.27.58.09-.24.33,1,.28.21-.39,2.55,0,.6-.33,1.22-.1,1.3.09,2.74.08-.46-.26,1.29-.86,2.52-1-.07.1.2.23.34.29,2.51,0,3.85.23,6.19.25.22.09,1.35.22.87.38a4.84,4.84,0,0,1,1.37-.2c1.39.34-1.61,0-.55.46.09-.23,1.87-.31,2.9-.45-.32-.35-2.38-.08-3.41.06,0-.49,1.79-1,4.24-1.2,1.95-.12.84.32,1.18.25,3.65.1,3.12-.84,6.15-.47,1.2.32,0,.62.32.84a31.48,31.48,0,0,1-3.51-.2l1.32.15a7.56,7.56,0,0,1-2.14.09c1,.28,6.17.08,9,.35.5-.1,1.37-.2,1-.33l-.89,0c-.82-.26,1.68-.34.55-.46a16.89,16.89,0,0,1,4.22-.29l.32.36a3.36,3.36,0,0,0-1.58-.12c.71-.15,2.58.5,3.35,0l-1.17-.25a18.49,18.49,0,0,1,4.18-.42c-.68-.36-.35,0-1.41-.38.92.51-3.81,0-2.34.5-1.09-.48-1.88-.21-3.3-.63,0,.12.5.23-.75.17l-.28.1h0c-.06,0-.06,0,0,0a1.93,1.93,0,0,1,.64.18,27.13,27.13,0,0,1-3.29.38c-.74-.06.31-.13-.09-.26l-1,.2c-.1-.26-2-.44-.22-.58l-1.58,0a11.75,11.75,0,0,0-3-.11c-.74-.06-1.88.28-1.23.08l-2.47.15,0-.07c-2.44,0-5,.41-7.81-.08a18.84,18.84,0,0,1-3,.06L200,72.2c-1,.07-3.16-.24-3.62,0-1.13-.61-5.11-.16-7-.27l-.07.29c-1.27,0-2.5.06-4.08.17l.09.26c-1.36.21-3.51-.2-5.67-.18a2.37,2.37,0,0,1,1.08,0c-2.58-.59-5.44.41-7.78,0a3.92,3.92,0,0,1-1.42,0h-.09l-.81-.14a6.88,6.88,0,0,0,.68.14c-.45,0-1.13,0-1.8.1l-.29-.28h-.15c-.66-.1-.53.13-.18.34a7.09,7.09,0,0,0-.89.17c-.53-.45-1.75.15-2.48-.33-.45.23-3.36.16-3.72.65,0-.06-.22-.09.14-.09a7.79,7.79,0,0,0-2.16,0l-.31-.36-1.63.47c-1-.22-1.4-.34-.42-.61-2.37.41-1.92.15-3.94.56l.1-.23a9.67,9.67,0,0,1-2.31.13c-1.61-.44-8-.08-12.12-.49.8.68-1.92-.3-2.09.22-.24-.16-.82-.25-.14-.39-2.12.16-3.18-.25-4.64.19-.24-.16.45-.23.24-.33a2,2,0,0,1-.89,0c-.22-.1.31-.14.64-.21-2.16,0-2.38.52-2.53,1a3.83,3.83,0,0,0-2.43.12c-.38-.15-1-.31.32-.36-.75,0-4.61-.22-4.68.15a3.73,3.73,0,0,0-1.25,0c-1.7,0-1.85,0-3.51,0l.46.06c-.65.45-1.38.11-2.72.16l0,0c-3.08-.31-1.33.16-4.36-.2l.17.28c-.28.59-2.69-.35-4.45-.11l.64.15c-1,.21-2.7-.79-3.66-.86-.21,0,.33-.08.62-.12-2.53-.34-.32.36-2.2.46-.35-.19.44-.5-.83-.53-.63-.15-3.67.66-5.4.3.38.15.76.29-.11.42-1.34.07-3.64-.52-4.84,0-.18,0-.24-.07-.25-.11a25.81,25.81,0,0,0-3.94.53c-1-.93-6.38.68-6.38-.22l-3.12.14.08-.09a9,9,0,0,0-3.41.46c-.46,0-.12-.14-.09-.19a17.35,17.35,0,0,0-5.67.13l-.24-.29a11.31,11.31,0,0,1-2.7-.27,24.4,24.4,0,0,0-4.34-.4s.1-.08.33-.1a20.69,20.69,0,0,1-5.12-.85c-1.62-.4-3-.6-3.68-.24l-2.12-.25c2.66.72-.5.35.56.78-1.07-.19-2.66-1-1.35-.7l.19.1c.61-.43-3.28-1-3.1-1.35a69.48,69.48,0,0,1-14.31-6.2l.31.64-.78-.41-.74-.48c-.34-.33-.35-.61.69.06a3.6,3.6,0,0,0-2-.87c-2-1.44,1.07.08.43-.32L30,61.8l.17.16a5.53,5.53,0,0,1-2.2-1c-.72-.64-.24-.51-.53-.74,0,0-.08-.11-.45-.35L25.24,58.5l.5.79c-.89-.45-1.66-1.26-1.08-.35a23.11,23.11,0,0,0-3.39-3.42c-1.39-1.42-2.74-2.78-3-3.17a21.3,21.3,0,0,1-3-3.26c.23.34,0,.82-.77-.41.94,0-1.29-2.36-1.44-3.65.23,1.09-2.2-3.47-1.8-1.8-.58-1.07.21-.21-.11-1.08A25.28,25.28,0,0,1,9,38c-.61-1.55-1.24-3.18-1.89-4.84-.11,0,0,.6-.46-.06,0-.65-.13-1.29-.17-1.93-.25-.65-.75-.44-.8-1.77,0,.2-.07.5-.24.06C4.66,26,3.72,22.6,3.1,19.07a40.1,40.1,0,0,1-.68-10.7c-.16,1-.21.33-.24-.4,0,.48-.25,0-.39.1.08-1,.21-2,.33-3-.39-.55,0-3.18-.3-3.5l0,.94C1.45,1.25.82,4.26.29,4.08.74,5.5-.43,7.87.41,10.19c-.08.53-.21-.43-.32-.14a6,6,0,0,1,.37,2.63l-.07-.15c.21,1.86.31,3.2.45,4.59s.27,2.85.58,4.94l.2-.36a7.72,7.72,0,0,1,.14,1.53c.63.93-.52-2.49.13-1.66a13.23,13.23,0,0,0,.52,3.72c.39,1.5.75,2.95.56,3.43.42,1.34.18-.48.6.86l-.06.4.32.27c.24.88.18,1.39,0,1.47,0-.22-.23-.59-.31-.81a20.67,20.67,0,0,0,1.26,3.55l-.38-1.29A52.77,52.77,0,0,0,9.84,44.08l0-.3c1.68,2.26,1,2,2.86,4.51l-.09-.07A10.56,10.56,0,0,1,14,50c-.6-.52.69,1.33-.09.63,2.15,2.21,1.13,1,2.77,2.29l.13.5a6.39,6.39,0,0,1,1.84,1.41c-1-.79.44.93-.71.08,1.87,2.74,3.8,3,4.44,4.5,1.49.53-1.89-2.11-1.18-1.65-.39-.6,1.21.48,1.92,1.19s.9,1.66,3,3.24c-.21-.15-.25-.13-.45-.29.69.72,1.64,1,2.54,1.81.76.06,1.31.84,1.71.56l-2.08-1.18a20.12,20.12,0,0,1,4.33,2.19,4.07,4.07,0,0,1-1.25-.4c.47.48,1.12.56,1.65,1-.18.14-.87-.11-1.62-.59A13.84,13.84,0,0,0,28.63,64c.5.54,2.51,1.18,1.63,1.21,1.19.06,2.22,1.34,4,1.73l-.22.19a8,8,0,0,1,1.29.48l-1-.11a6.84,6.84,0,0,1,1.87.94,8.56,8.56,0,0,0,1.86.88c-2.67-1.1-.47-.55-1.51-1.2a5.18,5.18,0,0,1,2.54,1.27,5.17,5.17,0,0,0,.87.68,6.93,6.93,0,0,0,1.95.83c-.54-.1-1.84-.87-1-.67a19.46,19.46,0,0,1,2,1c2.53.76-.3-.39.82-.21.75.6,1.27.27,2.39.52l-.07.27a4.52,4.52,0,0,0,1.38.39.81.81,0,0,0,.46-.08c.19-.1.34-.2,1.62.21l-1.2.11,1.39.23-.36.24a12.57,12.57,0,0,1,3.42.74c-.29-.27.29-.43,1.59-.25.86.31-.54.18,1.31.45A2.15,2.15,0,0,1,54,73.7c-.1.08-.45.11-.55.18a17.07,17.07,0,0,0,3.08.55,5.36,5.36,0,0,1-.72-.18l2.74,0c.41.18.06.21-.28.23.55,0,.94,0,1.74.08-.23.2-.21.46-1.36.38.86.08,1.73.05,2.6.05.16.12,1.3.4,1,.45,1.43.24,3.55,0,5.43.19a2.46,2.46,0,0,1,.71-.1,26.89,26.89,0,0,0,5.47.19c.4.16.8.28,1.2.4,1.66-.14-1.62-.46,1.13-.69,1.94-.19.73.32,1.42.42A11,11,0,0,1,82,75.48C81.38,75.57,80.92,75.53,80.36,75.57ZM100.49,75c-.39.06-1.17.25-1.46.08C99.47,74.76,99.82,74.91,100.49,75Zm30.66-.77a2.89,2.89,0,0,1-1.25-.06A5,5,0,0,1,131.15,74.23Zm85.45-1.68h0C215.69,72.45,216,72.49,216.6,72.55Zm1.81.13c.19,0,.17-.08.1-.12a3,3,0,0,1-1,0A1.45,1.45,0,0,0,218.41,72.68ZM27.21,60.16l.23.27C26.77,60,27,60.1,27.21,60.16Z" transform="translate(-0.09 -0.21)"/><path class="cls-1" d="M127.67,74.61a.26.26,0,0,1-.16-.15C127.35,74.5,127.35,74.56,127.67,74.61Z" transform="translate(-0.09 -0.21)"/><path class="cls-1" d="M67.67,75.68h-.06a.1.1,0,0,0-.06,0Z" transform="translate(-0.09 -0.21)"/><path class="cls-1" d="M190.35,74.91a2.59,2.59,0,0,1-.72-.15C189.61,74.83,189.78,74.89,190.35,74.91Z" transform="translate(-0.09 -0.21)"/><path class="cls-1" d="M228,72.26l-1.16.06a4.21,4.21,0,0,1,1.05.1C227.87,72.35,227.65,72.26,228,72.26Z" transform="translate(-0.09 -0.21)"/><path class="cls-1" d="M238.07,74c.17,0,.36,0,.53,0l0-.12C237.83,73.88,237.33,74,238.07,74Z" transform="translate(-0.09 -0.21)"/><path class="cls-1" d="M229.08,73.19c.09.23.82.16,1.63.12h-.14C230.81,73,230,73.09,229.08,73.19Z" transform="translate(-0.09 -0.21)"/><path class="cls-1" d="M230.9,73.3h.75C231.75,73.17,231.35,73.27,230.9,73.3Z" transform="translate(-0.09 -0.21)"/><path class="cls-1" d="M220.71,72.53c.39.07.25-.3.46-.2C221.6,72,218.6,72.68,220.71,72.53Z" transform="translate(-0.09 -0.21)"/><polygon class="cls-1" points="229.65 73.76 229.36 73.47 228.9 73.7 229.65 73.76"/><path class="cls-1" d="M223.32,73.72l1.3.09s.14-.08.35-.1A6.8,6.8,0,0,0,223.32,73.72Z" transform="translate(-0.09 -0.21)"/><path class="cls-1" d="M225,73.71a6.25,6.25,0,0,0,1,0A10,10,0,0,0,225,73.71Z" transform="translate(-0.09 -0.21)"/><polygon class="cls-1" points="227.87 73.84 227.49 73.77 226.57 73.75 227.87 73.84"/><path class="cls-1" d="M209.36,73.59l-1.41.08c-.15.09.24.16.76.12C209.05,73.72,209.58,73.69,209.36,73.59Z" transform="translate(-0.09 -0.21)"/><path class="cls-1" d="M213.64,74.41a1.71,1.71,0,0,1-.62-.23l0,.36Z" transform="translate(-0.09 -0.21)"/><path class="cls-1" d="M209.51,74.47c-.14.1-2.06.27-.26.26C209.39,74.63,210.81,74.56,209.51,74.47Z" transform="translate(-0.09 -0.21)"/><polygon class="cls-1" points="188.07 73.71 188.43 73.7 188.38 73.12 188.07 73.71"/><path class="cls-1" d="M169.34,75.26c1.68.14.4-.36,1.91-.18.4-.14-1.23-.15-.83-.27C169.41,75,168.87,74.87,169.34,75.26Z" transform="translate(-0.09 -0.21)"/><path class="cls-1" d="M170.42,74.81l.52-.09A5.25,5.25,0,0,0,170.42,74.81Z" transform="translate(-0.09 -0.21)"/><polygon class="cls-1" points="2.36 2.91 2.52 1.86 2.3 2.53 2.36 2.91"/><path class="cls-1" d="M2.1,1.07,2.5.85,2.21.21A2.67,2.67,0,0,1,2.1,1.07Z" transform="translate(-0.09 -0.21)"/><path class="cls-1" d="M103.49,75.73l.08-.09a2.11,2.11,0,0,0-.92-.11Z" transform="translate(-0.09 -0.21)"/><polygon class="cls-1" points="88.78 75.41 89.03 75.41 88.55 75.08 88.78 75.41"/><path class="cls-1" d="M76.58,76.41c.51,0,1.1-.1,1.62-.1C77.09,76.41,76.43,76,76.58,76.41Z" transform="translate(-0.09 -0.21)"/></g></g></svg>