<svg xmlns="http://www.w3.org/2000/svg" xmlns:xlink="http://www.w3.org/1999/xlink" viewBox="0 0 298.44 120.41"><defs><style>.cls-1,.cls-10,.cls-11,.cls-14,.cls-5{fill:none;}.cls-2{fill:#ffdaa4;}.cls-3{fill:#754d25;}.cls-4{fill:#fff;}.cls-5{stroke:#f15b27;stroke-width:2.4px;stroke-dasharray:6;opacity:0.5;}.cls-11,.cls-5{stroke-linecap:round;}.cls-10,.cls-14,.cls-5{stroke-miterlimit:10;}.cls-6{fill:#fbc5bc;}.cls-7{fill:#f8a89d;}.cls-8{fill:#c35263;}.cls-9{fill:#f8aeaf;}.cls-10,.cls-11,.cls-14{stroke:#f3828f;}.cls-10,.cls-11{stroke-width:0.91px;}.cls-11{stroke-linejoin:round;}.cls-12{clip-path:url(#clip-path);}.cls-13{fill:#f69c9f;}.cls-14{stroke-width:0.52px;}.cls-15{fill:#f49925;}</style><clipPath id="clip-path"><path class="cls-1" d="M34.46,39a14.53,14.53,0,0,1-4.56,0,11.66,11.66,0,0,0-2-.17,11.11,11.11,0,0,0-4.6,1A4.89,4.89,0,0,0,20,44c-.18,1,.07,1.9-1.28,2.53l0,0H45.64c-1.36-.64-1.11-1.52-1.3-2.54-.23-1.3-.52-2.92-3.29-4.18a11.11,11.11,0,0,0-4.6-1,11.66,11.66,0,0,0-2,.17"/></clipPath></defs><g id="Layer_2" data-name="Layer 2"><g id="Layer_1-2" data-name="Layer 1"><path class="cls-2" d="M284,17.79C267.75,4.63,215.32,0,173.76,0h-.13c-41.56,0-94,4.63-110.27,17.79S49,60.31,49,60.31s-2,31.78,14.34,42.31,67.78,17.68,109.89,17.78h.89c42.11-.1,93.71-7.33,109.89-17.78s14.34-42.31,14.34-42.31S300.33,31,284,17.79Z"/><path class="cls-3" d="M94,37.84V30a1.12,1.12,0,0,1,.29-.75,1,1,0,0,1,.8-.33h3.59a.87.87,0,0,1,.7.31,1.06,1.06,0,0,1,.24.67v0a1.11,1.11,0,0,1-.25.64.83.83,0,0,1-.69.29l-2.58,0v2h2.17a1,1,0,0,1,.76.31,1,1,0,0,1,.25.66,1,1,0,0,1-.25.67.91.91,0,0,1-.76.31H96.11v3a1.05,1.05,0,1,1-2.1,0Z"/><path class="cls-3" d="M103.84,31.23a3.3,3.3,0,0,1,2.6,1.2,4.08,4.08,0,0,1,1,2.72,4,4,0,0,1-1,2.72,3.58,3.58,0,0,1-5.24,0,4.22,4.22,0,0,1,0-5.44,3.28,3.28,0,0,1,2.61-1.19Zm-1.13,2.41a2.48,2.48,0,0,0-.45,1.2c0,.06,0,.11,0,.16s0,.1,0,.15v.12a.59.59,0,0,0,0,.13,2.38,2.38,0,0,0,.44,1.22,1.44,1.44,0,0,0,2.28,0,2.51,2.51,0,0,0,.44-1.22.66.66,0,0,0,0-.14V35a.91.91,0,0,1,0-.17,2.58,2.58,0,0,0-.45-1.2,1.3,1.3,0,0,0-1.13-.55A1.34,1.34,0,0,0,102.71,33.64Z"/><path class="cls-3" d="M112,31.23a3.3,3.3,0,0,1,2.61,1.2,4.18,4.18,0,0,1,0,5.44,3.58,3.58,0,0,1-5.24,0,4,4,0,0,1-1-2.72,4.08,4.08,0,0,1,1-2.72,3.26,3.26,0,0,1,2.6-1.19Zm-1.12,2.41a2.49,2.49,0,0,0-.46,1.2.81.81,0,0,1,0,.16v.27a.57.57,0,0,0,0,.13,2.58,2.58,0,0,0,.44,1.22,1.31,1.31,0,0,0,1.14.56,1.29,1.29,0,0,0,1.14-.56,2.41,2.41,0,0,0,.44-1.22.68.68,0,0,0,0-.14v-.12a.71.71,0,0,0,0-.14s0-.11,0-.17a2.38,2.38,0,0,0-.45-1.2,1.28,1.28,0,0,0-1.13-.55A1.32,1.32,0,0,0,110.85,33.64Z"/><path class="cls-3" d="M123.68,29.19v8.62a1.18,1.18,0,0,1-.28.82,1,1,0,0,1-.73.3,1,1,0,0,1-.67-.22,1.17,1.17,0,0,1-.34-.61,1.51,1.51,0,0,1-.61.59,3.18,3.18,0,0,1-.83.3l-.2,0h-.21a2.9,2.9,0,0,1-2.42-1.17,4.17,4.17,0,0,1-.9-2.6V35a4.9,4.9,0,0,1,.87-2.61,2.71,2.71,0,0,1,2.38-1.19,3,3,0,0,1,1,.18,2.6,2.6,0,0,1,.89.53V29.19a1.12,1.12,0,0,1,.29-.8,1,1,0,0,1,1.45,0,1.19,1.19,0,0,1,.28.81Zm-2,5.88V35a2.6,2.6,0,0,0-.41-1.31,1.3,1.3,0,0,0-1.17-.6,1.24,1.24,0,0,0-1.07.53,2.58,2.58,0,0,0-.47,1.18,1.1,1.1,0,0,0,0,.18,1,1,0,0,0,0,.17,1.09,1.09,0,0,0,0,.18.88.88,0,0,0,0,.17,2.51,2.51,0,0,0,.47,1.16,1.24,1.24,0,0,0,1.07.52,1.27,1.27,0,0,0,1.12-.55,2.66,2.66,0,0,0,.45-1.21v-.17a1,1,0,0,0,0-.17Z"/><path class="cls-3" d="M129.28,37.81V29.19a1.12,1.12,0,0,1,.28-.8,1,1,0,0,1,.72-.31.92.92,0,0,1,.73.31,1.14,1.14,0,0,1,.28.81v2.73a3,3,0,0,1,.91-.51,3,3,0,0,1,1-.18,2.7,2.7,0,0,1,2.38,1.19,4.9,4.9,0,0,1,.87,2.61v.2a4.17,4.17,0,0,1-.9,2.6A2.87,2.87,0,0,1,133.14,39h-.2l-.21,0a3.11,3.11,0,0,1-.82-.3,1.53,1.53,0,0,1-.62-.59,1.1,1.1,0,0,1-.34.61,1,1,0,0,1-.67.22,1,1,0,0,1-.72-.3,1.12,1.12,0,0,1-.28-.8Zm2-2.74c0,.06,0,.12,0,.18s0,.11,0,.17a2.54,2.54,0,0,0,.44,1.21,1.4,1.4,0,0,0,2.2,0,2.49,2.49,0,0,0,.46-1.16l0-.17V35l0-.18a2.56,2.56,0,0,0-.46-1.18,1.39,1.39,0,0,0-2.24.07,2.51,2.51,0,0,0-.42,1.31v.08Z"/><path class="cls-3" d="M137.63,37.81v-5.5a.84.84,0,0,1,.31-.71,1.16,1.16,0,0,1,.66-.29h.07a1.27,1.27,0,0,1,.69.18.73.73,0,0,1,.29.67l0,0a2,2,0,0,1,.61-.61,1.45,1.45,0,0,1,.8-.22,1,1,0,0,1,.67.27,1,1,0,0,1,.31.81.62.62,0,0,1-.21.52,2.15,2.15,0,0,1-.5.27l-.24.09-.25.11h0a5.4,5.4,0,0,0-.81.48,1,1,0,0,0-.37.85v3.09a1.13,1.13,0,0,1-.28.82,1,1,0,0,1-1.45,0,1.13,1.13,0,0,1-.29-.81Z"/><path class="cls-3" d="M146,31.23a3.3,3.3,0,0,1,2.61,1.2,4.22,4.22,0,0,1,0,5.44,3.58,3.58,0,0,1-5.24,0,4,4,0,0,1-1-2.72,4.08,4.08,0,0,1,1-2.72,3.26,3.26,0,0,1,2.6-1.19Zm-1.12,2.41a2.49,2.49,0,0,0-.46,1.2.81.81,0,0,1,0,.16v.27a.57.57,0,0,0,0,.13,2.58,2.58,0,0,0,.44,1.22,1.31,1.31,0,0,0,1.14.56,1.29,1.29,0,0,0,1.14-.56,2.41,2.41,0,0,0,.44-1.22.68.68,0,0,0,0-.14v-.12a.71.71,0,0,0,0-.14s0-.11,0-.17a2.38,2.38,0,0,0-.45-1.2,1.28,1.28,0,0,0-1.13-.55A1.32,1.32,0,0,0,144.87,33.64Z"/><path class="cls-3" d="M150.81,36.07V32.42a1.11,1.11,0,0,1,.29-.8,1,1,0,0,1,.72-.31.94.94,0,0,1,.72.31,1.17,1.17,0,0,1,.28.82V36a1.22,1.22,0,0,0,.4,1A1.37,1.37,0,0,0,155,37a1.17,1.17,0,0,0,.4-1V32.42a1.11,1.11,0,0,1,.29-.8,1,1,0,0,1,.72-.31.94.94,0,0,1,.72.31,1.17,1.17,0,0,1,.28.82v3.63a2.75,2.75,0,0,1-.86,2.15,4.21,4.21,0,0,1-4.91,0,2.78,2.78,0,0,1-.86-2.14Z"/><path class="cls-3" d="M165.83,32.42v5.84A3.38,3.38,0,0,1,164.75,41a4.17,4.17,0,0,1-2.8.91,6,6,0,0,1-.63,0,6.43,6.43,0,0,1-.81-.16,4.56,4.56,0,0,1-1.2-.48.94.94,0,0,1-.54-.82.5.5,0,0,1,0-.12l0-.12a1,1,0,0,1,.28-.41.74.74,0,0,1,.42-.23h.07a1.5,1.5,0,0,1,.49.09l.57.23.66.21a3.3,3.3,0,0,0,.8.1,1.79,1.79,0,0,0,1.22-.42,1.45,1.45,0,0,0,.48-1.17v-.49h0a2,2,0,0,1-.82.72,2.84,2.84,0,0,1-1.21.23,2.61,2.61,0,0,1-2.35-1.17,4.82,4.82,0,0,1-.76-2.68,4.49,4.49,0,0,1,.89-2.73,2.88,2.88,0,0,1,2.43-1.2h.2l.2,0a2.76,2.76,0,0,1,.83.3,1.53,1.53,0,0,1,.61.6,1.17,1.17,0,0,1,.35-.63,1.05,1.05,0,0,1,1.39.09,1.17,1.17,0,0,1,.28.82Zm-2,2.76V35a1,1,0,0,1,0-.17,2.62,2.62,0,0,0-.45-1.21,1.37,1.37,0,0,0-2.19,0,2.47,2.47,0,0,0-.47,1.15c0,.06,0,.12,0,.18s0,.12,0,.17a2.69,2.69,0,0,0,.4,1.44,1.43,1.43,0,0,0,2.34,0,2.47,2.47,0,0,0,.41-1.31v-.09Z"/><path class="cls-3" d="M167.33,37.81V29.19a1.08,1.08,0,0,1,.29-.8.92.92,0,0,1,.72-.31.9.9,0,0,1,.72.31,1.14,1.14,0,0,1,.28.81v2.73h0a1.56,1.56,0,0,1,.56-.42,2.63,2.63,0,0,1,.69-.21l.3,0,.29,0a2.8,2.8,0,0,1,2,.72,2.56,2.56,0,0,1,.78,2v3.85a1.13,1.13,0,0,1-.28.82.92.92,0,0,1-.72.3,1,1,0,0,1-.72-.3,1.08,1.08,0,0,1-.29-.8V34.3a1.3,1.3,0,0,0-.39-1,1.32,1.32,0,0,0-.93-.34,1.18,1.18,0,0,0-.95.39,1.52,1.52,0,0,0-.34,1v3.5a1.13,1.13,0,0,1-.28.82.92.92,0,0,1-.72.3,1,1,0,0,1-.72-.3,1.08,1.08,0,0,1-.29-.8Z"/><path class="cls-3" d="M176,37.81V33.16h-.45a.78.78,0,0,1-.63-.22.85.85,0,0,1-.23-.64.89.89,0,0,1,.24-.64.85.85,0,0,1,.62-.25H176V30.2a1.12,1.12,0,0,1,.29-.8,1,1,0,0,1,1.45,0,1.13,1.13,0,0,1,.28.81V31.4h.57a1.27,1.27,0,0,1,.68.21.93.93,0,0,1,0,1.35,1.12,1.12,0,0,1-.68.2H178v4.65a1.13,1.13,0,0,1-.28.82,1,1,0,0,1-1.45,0,1.12,1.12,0,0,1-.29-.8Z"/><path class="cls-3" d="M185,28.29a1.16,1.16,0,0,1,.79.34,1,1,0,0,1,.34.78,1.14,1.14,0,0,1-.33.82,1.07,1.07,0,0,1-.8.34,1.05,1.05,0,0,1-.79-.35,1.11,1.11,0,0,1-.35-.81,1.06,1.06,0,0,1,.35-.77,1.11,1.11,0,0,1,.79-.33Zm-1,9.52V32.42a1.16,1.16,0,0,1,.29-.8,1,1,0,0,1,1.45,0,1.21,1.21,0,0,1,.28.82v5.37a1.18,1.18,0,0,1-.28.82,1,1,0,0,1-1.45,0,1.13,1.13,0,0,1-.29-.81Z"/><path class="cls-3" d="M187.52,37.81V32.42a1.15,1.15,0,0,1,.28-.8,1,1,0,0,1,.72-.31.93.93,0,0,1,.63.2.86.86,0,0,1,.3.55,1.85,1.85,0,0,1,.76-.62,2.9,2.9,0,0,1,1.18-.21,2.81,2.81,0,0,1,2,.72,2.56,2.56,0,0,1,.78,2v3.86a1.13,1.13,0,0,1-.28.82,1,1,0,0,1-1.45,0,1.12,1.12,0,0,1-.28-.8V34.3a1.3,1.3,0,0,0-.39-1,1.35,1.35,0,0,0-.93-.34,1.18,1.18,0,0,0-.95.39,1.47,1.47,0,0,0-.34,1v3.5a1.13,1.13,0,0,1-.28.82,1,1,0,0,1-1.45,0,1.13,1.13,0,0,1-.28-.81Z"/><path class="cls-3" d="M199.75,37.81V29.19a1.12,1.12,0,0,1,.29-.8,1,1,0,0,1,1.45,0,1.14,1.14,0,0,1,.28.81v2.73a3.08,3.08,0,0,1,.9-.51,3,3,0,0,1,1-.18,2.72,2.72,0,0,1,2.38,1.19,4.81,4.81,0,0,1,.86,2.61v.2a4.16,4.16,0,0,1-.89,2.6A2.9,2.9,0,0,1,203.62,39h-.21l-.2,0a3.06,3.06,0,0,1-.83-.3,1.51,1.51,0,0,1-.61-.59,1.17,1.17,0,0,1-.34.61,1,1,0,0,1-.67.22,1,1,0,0,1-.72-.3,1.12,1.12,0,0,1-.29-.8Zm2-2.74v.18a1,1,0,0,1,0,.17,2.66,2.66,0,0,0,.45,1.21,1.39,1.39,0,0,0,2.19,0,2.51,2.51,0,0,0,.47-1.16.88.88,0,0,0,0-.17,1.09,1.09,0,0,0,0-.18,1,1,0,0,0,0-.17,1.1,1.1,0,0,0,0-.18,2.58,2.58,0,0,0-.47-1.18,1.26,1.26,0,0,0-1.07-.53,1.3,1.3,0,0,0-1.17.6,2.5,2.5,0,0,0-.41,1.31v.08Z"/><path class="cls-3" d="M207.63,32.69l-.06-.22a2.48,2.48,0,0,1,0-.29.73.73,0,0,1,.22-.53,1.17,1.17,0,0,1,.49-.31l.12,0h.11a1.06,1.06,0,0,1,.62.19,1.25,1.25,0,0,1,.39.53l1.38,3.78,1.49-3.8a1.15,1.15,0,0,1,.38-.51,1.06,1.06,0,0,1,.62-.19h.12l.11,0a1.27,1.27,0,0,1,.5.31.74.74,0,0,1,.23.53,1.29,1.29,0,0,1,0,.29.88.88,0,0,1-.07.23l-3.38,8.4a1.61,1.61,0,0,1-.35.56.81.81,0,0,1-.6.24,1.06,1.06,0,0,1-.78-.27.85.85,0,0,1-.27-.6.38.38,0,0,1,0-.1s0-.07,0-.1a1.29,1.29,0,0,1,0-.19,1.59,1.59,0,0,0,.07-.2l.88-2.18Z"/><path class="cls-3" d="M98.06,54.61V46a1.12,1.12,0,0,1,.28-.8,1,1,0,0,1,.72-.31.92.92,0,0,1,.73.31,1.13,1.13,0,0,1,.28.81v2.73a3,3,0,0,1,.91-.51,3,3,0,0,1,1-.18,2.7,2.7,0,0,1,2.38,1.19,4.9,4.9,0,0,1,.87,2.61V52a4.19,4.19,0,0,1-.9,2.6,2.87,2.87,0,0,1-2.42,1.17h-.2l-.21,0a3.11,3.11,0,0,1-.82-.3,1.53,1.53,0,0,1-.62-.59,1.1,1.1,0,0,1-.34.61.93.93,0,0,1-.67.22,1,1,0,0,1-.72-.3,1.13,1.13,0,0,1-.28-.81Zm2-2.74c0,.06,0,.12,0,.18s0,.11,0,.17a2.54,2.54,0,0,0,.44,1.21,1.4,1.4,0,0,0,2.2,0,2.49,2.49,0,0,0,.46-1.16l0-.17v-.35l0-.18a2.56,2.56,0,0,0-.46-1.18,1.39,1.39,0,0,0-2.24.07,2.51,2.51,0,0,0-.42,1.31v.08Z"/><path class="cls-3" d="M113.33,49.42v5.22a2.09,2.09,0,0,1,0,.24,1.34,1.34,0,0,1-.23.58,1.08,1.08,0,0,1-1.37,0,1.45,1.45,0,0,1-.32-.62,2.55,2.55,0,0,1-.87.69,2.31,2.31,0,0,1-1,.23,3,3,0,0,1-2.37-1.08,4.06,4.06,0,0,1-1-2.79,4.11,4.11,0,0,1,1-2.79A3,3,0,0,1,109.48,48a2.64,2.64,0,0,1,1.07.23,2,2,0,0,1,.85.71.9.9,0,0,1,.32-.61,1,1,0,0,1,.64-.25.85.85,0,0,1,.73.28,1.43,1.43,0,0,1,.23.59,2.09,2.09,0,0,1,0,.24v.21Zm-5.17,2.52v.13a.59.59,0,0,0,0,.13,2.47,2.47,0,0,0,.44,1.22,1.31,1.31,0,0,0,1.14.56,1.27,1.27,0,0,0,1.11-.56,2.56,2.56,0,0,0,.43-1.22.57.57,0,0,0,0-.13V51.8a.81.81,0,0,1,0-.16,2.58,2.58,0,0,0-.45-1.2,1.25,1.25,0,0,0-1.09-.55,1.32,1.32,0,0,0-1.13.55,2.48,2.48,0,0,0-.45,1.2.81.81,0,0,1,0,.16c0,.06,0,.1,0,.15Z"/><path class="cls-3" d="M114.83,54.61V46a1.08,1.08,0,0,1,.29-.8.92.92,0,0,1,.72-.31.9.9,0,0,1,.72.31,1.13,1.13,0,0,1,.29.81v2.73a3.08,3.08,0,0,1,.9-.51,3,3,0,0,1,1-.18,2.7,2.7,0,0,1,2.38,1.19,4.9,4.9,0,0,1,.87,2.61V52a4.19,4.19,0,0,1-.9,2.6,2.87,2.87,0,0,1-2.42,1.17h-.2l-.2,0a3.06,3.06,0,0,1-.83-.3,1.45,1.45,0,0,1-.61-.59,1.11,1.11,0,0,1-.35.61.92.92,0,0,1-.66.22,1,1,0,0,1-.72-.3,1.09,1.09,0,0,1-.29-.81Zm2-2.74v.18a.91.91,0,0,1,0,.17,2.55,2.55,0,0,0,.45,1.21,1.39,1.39,0,0,0,2.19,0A2.62,2.62,0,0,0,120,52.3c0-.06,0-.11,0-.17s0-.12,0-.18,0-.11,0-.17,0-.12,0-.18a2.69,2.69,0,0,0-.47-1.18,1.39,1.39,0,0,0-2.24.07,2.42,2.42,0,0,0-.41,1.31v.08Z"/><path class="cls-3" d="M122.71,49.49a.77.77,0,0,1-.06-.23,1.19,1.19,0,0,1,0-.28.76.76,0,0,1,.21-.53,1.2,1.2,0,0,1,.5-.31l.11,0h.11a1,1,0,0,1,1,.72L126,52.61l1.48-3.8a1.17,1.17,0,0,1,.39-.51,1.06,1.06,0,0,1,.62-.19h.11l.12,0a1.27,1.27,0,0,1,.5.31.73.73,0,0,1,.22.53,1.19,1.19,0,0,1,0,.28.62.62,0,0,1-.08.24l-3.37,8.4a1.5,1.5,0,0,1-.36.56.78.78,0,0,1-.59.24,1.07,1.07,0,0,1-.79-.27.88.88,0,0,1-.26-.6.38.38,0,0,1,0-.1v-.1a1.33,1.33,0,0,1,0-.19,1.52,1.52,0,0,0,.06-.2l.89-2.18Z"/><path class="cls-3" d="M132.78,47,131.6,49.1a.79.79,0,0,1-.19.25,1.58,1.58,0,0,1-.24.15.76.76,0,0,1-.2.06.52.52,0,0,1-.17,0,.92.92,0,0,1-.66-.26.87.87,0,0,1-.29-.65.67.67,0,0,1,.06-.28c0-.09.07-.18.11-.28L131.18,46a.67.67,0,0,1,.19-.22,1.58,1.58,0,0,1,.24-.15l.21-.07.17,0a1,1,0,0,1,.67.28.85.85,0,0,1,.3.65.74.74,0,0,1-.05.25,1.75,1.75,0,0,1-.11.24v0l0,0Z"/><path class="cls-3" d="M139.08,49.49a1,1,0,0,1-.23.63.75.75,0,0,1-.6.28,1,1,0,0,1-.35-.09l-.45-.21a1.69,1.69,0,0,1-.28-.12l-.28-.1-.22-.05-.23,0a.85.85,0,0,0-.47.13.47.47,0,0,0-.21.43.42.42,0,0,0,.22.36,3.21,3.21,0,0,0,.56.3l.47.17.5.2a4.91,4.91,0,0,1,1.2.74,1.6,1.6,0,0,1,.55,1.32,2.11,2.11,0,0,1-.79,1.68,3.06,3.06,0,0,1-2.08.67,3.31,3.31,0,0,1-.44,0,3.4,3.4,0,0,1-.46-.09,4,4,0,0,1-1.32-.53,1.07,1.07,0,0,1-.6-.9.55.55,0,0,1,0-.16.62.62,0,0,1,.07-.19,1.29,1.29,0,0,1,.3-.37.67.67,0,0,1,.47-.17,1.06,1.06,0,0,1,.45.08,2.64,2.64,0,0,1,.38.18l.08,0a.15.15,0,0,0,.07,0,2.51,2.51,0,0,0,.49.25,1.68,1.68,0,0,0,.62.1,1,1,0,0,0,.63-.14.55.55,0,0,0,.17-.43.45.45,0,0,0-.22-.36,4,4,0,0,0-.55-.28l-.47-.19-.51-.19a4.85,4.85,0,0,1-1.21-.74,1.65,1.65,0,0,1-.54-1.33,2.09,2.09,0,0,1,.77-1.7,2.89,2.89,0,0,1,2-.66l.4,0a3.64,3.64,0,0,1,.44.07,3.33,3.33,0,0,1,1.15.47,1,1,0,0,1,.53.89Z"/><path class="cls-3" d="M144.4,54.61V46a1.12,1.12,0,0,1,.28-.8,1,1,0,0,1,1.45,0,1.13,1.13,0,0,1,.28.81v8.61a1.13,1.13,0,0,1-.28.82,1,1,0,0,1-1.45,0,1.13,1.13,0,0,1-.28-.81Z"/><path class="cls-3" d="M148.86,45.09a1.16,1.16,0,0,1,.79.34,1,1,0,0,1,.35.78,1.14,1.14,0,0,1-.33.82,1.07,1.07,0,0,1-.81.34,1.05,1.05,0,0,1-.79-.35,1.1,1.1,0,0,1-.34-.81,1,1,0,0,1,.34-.77,1.12,1.12,0,0,1,.79-.34Zm-1,9.52V49.22a1.16,1.16,0,0,1,.29-.8,1,1,0,0,1,1.45,0,1.17,1.17,0,0,1,.28.82v5.37a1.15,1.15,0,0,1-.28.82,1,1,0,0,1-1.45,0,1.13,1.13,0,0,1-.29-.81Z"/><path class="cls-3" d="M151.34,49.22a1.11,1.11,0,0,1,.29-.8,1,1,0,0,1,.72-.31,1,1,0,0,1,.66.22,1.18,1.18,0,0,1,.35.62,1.67,1.67,0,0,1,.75-.66,2.85,2.85,0,0,1,1-.26h.14a2.7,2.7,0,0,1,2.38,1.19,4.9,4.9,0,0,1,.87,2.61V52a4.27,4.27,0,0,1-.89,2.61,2.91,2.91,0,0,1-2.43,1.17H155l-.26,0a3.55,3.55,0,0,1-.7-.22,2.63,2.63,0,0,1-.63-.41v2.45a1.19,1.19,0,0,1-.28.81,1,1,0,0,1-1.45,0,1.1,1.1,0,0,1-.29-.81Zm2,2.65v.18a.91.91,0,0,1,0,.17,2.66,2.66,0,0,0,.45,1.21,1.39,1.39,0,0,0,2.19,0,2.62,2.62,0,0,0,.47-1.16c0-.06,0-.11,0-.17s0-.12,0-.18,0-.11,0-.17,0-.12,0-.18a2.69,2.69,0,0,0-.47-1.18,1.27,1.27,0,0,0-1.07-.53,1.3,1.3,0,0,0-1.17.6,2.42,2.42,0,0,0-.41,1.31v.08Z"/><path class="cls-3" d="M164.79,49.49a.91.91,0,0,1-.23.63.72.72,0,0,1-.59.28.9.9,0,0,1-.35-.09l-.45-.21a1.69,1.69,0,0,1-.28-.12l-.28-.1-.22-.05-.23,0a.83.83,0,0,0-.47.13.47.47,0,0,0-.21.43.42.42,0,0,0,.22.36,3.21,3.21,0,0,0,.56.3l.47.17.5.2a5.11,5.11,0,0,1,1.2.74,1.63,1.63,0,0,1,.55,1.32,2.14,2.14,0,0,1-.79,1.68,3.08,3.08,0,0,1-2.08.67,3.54,3.54,0,0,1-.45,0,3.58,3.58,0,0,1-.45-.09,3.85,3.85,0,0,1-1.32-.53,1.07,1.07,0,0,1-.6-.9,1.15,1.15,0,0,1,0-.16.64.64,0,0,1,.08-.19,1.1,1.1,0,0,1,.29-.37.67.67,0,0,1,.48-.17,1.06,1.06,0,0,1,.45.08,3.26,3.26,0,0,1,.38.18l.07,0s.05,0,.08,0a2.51,2.51,0,0,0,.49.25,1.68,1.68,0,0,0,.62.1,1,1,0,0,0,.63-.14.54.54,0,0,0,.16-.43.44.44,0,0,0-.21-.36,3.63,3.63,0,0,0-.56-.28l-.47-.19-.51-.19a4.62,4.62,0,0,1-1.2-.74,1.66,1.66,0,0,1-.55-1.33,2.12,2.12,0,0,1,.77-1.7,2.92,2.92,0,0,1,2-.66l.41,0a3.49,3.49,0,0,1,.43.07,3.38,3.38,0,0,1,1.16.47,1,1,0,0,1,.52.89Z"/><path class="cls-3" d="M170.14,54.61V49.22a1.16,1.16,0,0,1,.29-.8,1,1,0,0,1,.72-.31,1,1,0,0,1,.63.2.83.83,0,0,1,.29.56,2.62,2.62,0,0,1,.84-.62,2.43,2.43,0,0,1,1-.22,2.63,2.63,0,0,1,1.16.26,2.69,2.69,0,0,1,.93.76,2.7,2.7,0,0,1,.6-.51,3.43,3.43,0,0,1,.68-.36l.44-.11a1.87,1.87,0,0,1,.4,0,2.88,2.88,0,0,1,2,.69,2.61,2.61,0,0,1,.76,2v3.86a1.15,1.15,0,0,1-.28.82,1,1,0,0,1-1.45,0,1.13,1.13,0,0,1-.28-.81V51.1a1.53,1.53,0,0,0-.32-1,1.05,1.05,0,0,0-.86-.39,1.08,1.08,0,0,0-.88.39,1.53,1.53,0,0,0-.31,1v3.5a1.13,1.13,0,0,1-.28.82,1,1,0,0,1-1.45,0,1.13,1.13,0,0,1-.29-.81V51.1a1.52,1.52,0,0,0-.31-1,1.05,1.05,0,0,0-.86-.39,1.07,1.07,0,0,0-.91.39,1.64,1.64,0,0,0-.28,1v3.5a1.18,1.18,0,0,1-.28.82,1,1,0,0,1-1.45,0,1.13,1.13,0,0,1-.29-.81Z"/><path class="cls-3" d="M185.74,48a3.3,3.3,0,0,1,2.6,1.2,4.08,4.08,0,0,1,1,2.72,4,4,0,0,1-1,2.72,3.57,3.57,0,0,1-5.23,0,4.22,4.22,0,0,1,0-5.44A3.27,3.27,0,0,1,185.74,48Zm-1.13,2.41a2.38,2.38,0,0,0-.45,1.2c0,.06,0,.11,0,.16a.81.81,0,0,0,0,.15v.12a.59.59,0,0,0,0,.13,2.38,2.38,0,0,0,.44,1.22,1.29,1.29,0,0,0,1.14.56,1.31,1.31,0,0,0,1.14-.56,2.51,2.51,0,0,0,.44-1.22.66.66,0,0,0,0-.14V51.8a1,1,0,0,1,0-.17,2.49,2.49,0,0,0-.46-1.2,1.27,1.27,0,0,0-1.12-.55A1.34,1.34,0,0,0,184.61,50.44Z"/><path class="cls-3" d="M192.12,54.89l-2-5.22a1.68,1.68,0,0,1-.08-.24.83.83,0,0,1,0-.22V49.1a.87.87,0,0,1,.31-.74,1.17,1.17,0,0,1,.72-.25.81.81,0,0,1,.54.17,1.1,1.1,0,0,1,.29.37.63.63,0,0,0,0,.09l0,.09,1.29,4h0l1.28-4a.21.21,0,0,0,0-.07l0-.09a1.1,1.1,0,0,1,.29-.37.8.8,0,0,1,.53-.17,1.22,1.22,0,0,1,.73.25.88.88,0,0,1,.32.74v.11a1.7,1.7,0,0,1,0,.22c0,.07,0,.15-.08.26l-2,5.2a1.58,1.58,0,0,1-.35.62,1,1,0,0,1-.74.22,1,1,0,0,1-.73-.22,1.82,1.82,0,0,1-.36-.61Z"/><path class="cls-3" d="M199,52.6a1.51,1.51,0,0,0,.65,1.11,2.22,2.22,0,0,0,1.25.35,2.09,2.09,0,0,0,.72-.12c.22-.09.42-.18.61-.28l.52-.28a.88.88,0,0,1,.43-.13.75.75,0,0,1,.58.28.89.89,0,0,1,.25.59c0,.37-.28.72-.83,1a5.09,5.09,0,0,1-1.82.61l-.33,0h-.31A3.62,3.62,0,0,1,198,54.72a3.86,3.86,0,0,1-1-2.77,4,4,0,0,1,1-2.72,3.45,3.45,0,0,1,5-.26A4.05,4.05,0,0,1,204.1,51c0,.11,0,.22.05.34a2,2,0,0,1,0,.34,1,1,0,0,1-.21.67.9.9,0,0,1-.68.23Zm3.16-1.35a1.87,1.87,0,0,0-.5-1.08,1.42,1.42,0,0,0-1.11-.45,1.44,1.44,0,0,0-1.1.45,1.84,1.84,0,0,0-.5,1.08Z"/><path class="cls-3" d="M212.13,46v8.62a1.18,1.18,0,0,1-.28.82,1,1,0,0,1-.73.3,1,1,0,0,1-.67-.22,1.17,1.17,0,0,1-.34-.61,1.51,1.51,0,0,1-.61.59,3.18,3.18,0,0,1-.83.3l-.2,0h-.21a2.9,2.9,0,0,1-2.42-1.17A4.18,4.18,0,0,1,205,52v-.2a4.81,4.81,0,0,1,.86-2.61A2.71,2.71,0,0,1,208.19,48a3,3,0,0,1,1,.18,2.74,2.74,0,0,1,.89.52V46a1.12,1.12,0,0,1,.29-.8,1,1,0,0,1,1.45,0,1.17,1.17,0,0,1,.28.81Zm-2,5.88V51.8a2.5,2.5,0,0,0-.41-1.31,1.3,1.3,0,0,0-1.17-.6,1.26,1.26,0,0,0-1.07.53A2.58,2.58,0,0,0,207,51.6a1.1,1.1,0,0,0,0,.18,1,1,0,0,0,0,.17,1.09,1.09,0,0,0,0,.18,1,1,0,0,0,0,.17,2.51,2.51,0,0,0,.47,1.16,1.25,1.25,0,0,0,1.07.52,1.27,1.27,0,0,0,1.12-.55,2.66,2.66,0,0,0,.45-1.21v-.17a1,1,0,0,0,0-.17Z"/><path class="cls-3" d="M218.22,54.61V50h-.45a.81.81,0,0,1-.64-.22.9.9,0,0,1-.23-.64.86.86,0,0,1,.87-.89h.45V47a1.11,1.11,0,0,1,.28-.79,1,1,0,0,1,1.45,0,1.13,1.13,0,0,1,.28.81V48.2h.58a1.3,1.3,0,0,1,.68.21,1,1,0,0,1,0,1.35,1.14,1.14,0,0,1-.68.2h-.58v4.65a1.13,1.13,0,0,1-.28.82,1,1,0,0,1-1.45,0,1.13,1.13,0,0,1-.28-.81Z"/><path class="cls-3" d="M225.54,48a3.3,3.3,0,0,1,2.6,1.2,4.08,4.08,0,0,1,1,2.72,4,4,0,0,1-1,2.72,3.58,3.58,0,0,1-5.24,0,4.22,4.22,0,0,1,0-5.44A3.28,3.28,0,0,1,225.54,48Zm-1.13,2.41a2.38,2.38,0,0,0-.45,1.2c0,.06,0,.11,0,.16a.81.81,0,0,0,0,.15v.12a.59.59,0,0,0,0,.13,2.38,2.38,0,0,0,.44,1.22,1.29,1.29,0,0,0,1.14.56,1.31,1.31,0,0,0,1.14-.56,2.51,2.51,0,0,0,.44-1.22.68.68,0,0,0,0-.14v-.12s0-.09,0-.14a1,1,0,0,1,0-.17,2.58,2.58,0,0,0-.45-1.2,1.3,1.3,0,0,0-1.13-.55A1.34,1.34,0,0,0,224.41,50.44Z"/><path class="cls-3" d="M235,54.61V50h-.45a.8.8,0,0,1-.64-.22.9.9,0,0,1-.23-.64.86.86,0,0,1,.87-.89H235V47a1.11,1.11,0,0,1,.28-.79,1,1,0,0,1,1.45,0A1.13,1.13,0,0,1,237,47V48.2h.58a1.3,1.3,0,0,1,.68.21,1,1,0,0,1,0,1.35,1.14,1.14,0,0,1-.68.2H237v4.65a1.13,1.13,0,0,1-.28.82,1,1,0,0,1-1.45,0,1.13,1.13,0,0,1-.28-.81Z"/><path class="cls-3" d="M239,54.61V46a1.12,1.12,0,0,1,.29-.8,1,1,0,0,1,1.45,0A1.17,1.17,0,0,1,241,46v2.73h0a1.56,1.56,0,0,1,.56-.42,2.75,2.75,0,0,1,.69-.21l.3,0,.29,0a2.8,2.8,0,0,1,2,.72,2.57,2.57,0,0,1,.79,2v3.85a1.18,1.18,0,0,1-.28.82,1,1,0,0,1-1.45,0,1.13,1.13,0,0,1-.29-.81V51.1a1.3,1.3,0,0,0-.39-1,1.33,1.33,0,0,0-.93-.35,1.2,1.2,0,0,0-.95.4,1.52,1.52,0,0,0-.33,1v3.5a1.18,1.18,0,0,1-.28.82,1,1,0,0,1-1.45,0,1.13,1.13,0,0,1-.29-.81Z"/><path class="cls-3" d="M248.71,52.6a1.49,1.49,0,0,0,.66,1.11,2.17,2.17,0,0,0,1.24.35,2.09,2.09,0,0,0,.72-.12,5.82,5.82,0,0,0,.61-.28l.52-.28a.88.88,0,0,1,.43-.13.75.75,0,0,1,.58.28.84.84,0,0,1,.25.59c0,.37-.28.72-.83,1a5,5,0,0,1-1.82.61l-.32,0h-.32a3.62,3.62,0,0,1-2.74-1.09,3.9,3.9,0,0,1-1-2.77,4.08,4.08,0,0,1,1-2.72,3.45,3.45,0,0,1,5-.26,4.15,4.15,0,0,1,1.2,2.05c0,.11,0,.22.05.34s0,.23,0,.34a.94.94,0,0,1-.21.67.89.89,0,0,1-.67.23Zm3.16-1.35a1.86,1.86,0,0,0-.49-1.08,1.59,1.59,0,0,0-2.22,0,1.77,1.77,0,0,0-.49,1.08Z"/><path class="cls-3" d="M98.06,71.41V62.79a1.12,1.12,0,0,1,.28-.8,1,1,0,0,1,.72-.31.92.92,0,0,1,.73.31,1.14,1.14,0,0,1,.28.81v2.73A3,3,0,0,1,101,65a2.94,2.94,0,0,1,1-.17A2.69,2.69,0,0,1,104.37,66a4.9,4.9,0,0,1,.87,2.61v.2a4.17,4.17,0,0,1-.9,2.6,2.88,2.88,0,0,1-2.42,1.18h-.2l-.21,0a3.11,3.11,0,0,1-.82-.3,1.53,1.53,0,0,1-.62-.59,1.1,1.1,0,0,1-.34.61.93.93,0,0,1-.67.22,1,1,0,0,1-.72-.3,1.12,1.12,0,0,1-.28-.8Zm2-2.74c0,.06,0,.12,0,.18s0,.11,0,.17a2.54,2.54,0,0,0,.44,1.21,1.4,1.4,0,0,0,2.2,0,2.49,2.49,0,0,0,.46-1.16l0-.17v-.35l0-.18a2.56,2.56,0,0,0-.46-1.18,1.39,1.39,0,0,0-2.24.07,2.51,2.51,0,0,0-.42,1.31v.08Z"/><path class="cls-3" d="M113.33,66.22v5.22a2.09,2.09,0,0,1,0,.24,1.34,1.34,0,0,1-.23.58,1.08,1.08,0,0,1-1.37,0,1.45,1.45,0,0,1-.32-.62,2.55,2.55,0,0,1-.87.69,2.31,2.31,0,0,1-1,.24,3.06,3.06,0,0,1-2.37-1.09,4.06,4.06,0,0,1-1-2.79,4.11,4.11,0,0,1,1-2.79,3,3,0,0,1,2.36-1.12,2.64,2.64,0,0,1,1.07.23,2,2,0,0,1,.85.71.9.9,0,0,1,.32-.61,1,1,0,0,1,.64-.25.85.85,0,0,1,.73.28,1.43,1.43,0,0,1,.23.59,2.09,2.09,0,0,1,0,.24v.21Zm-5.17,2.52v.13a.59.59,0,0,0,0,.13,2.47,2.47,0,0,0,.44,1.22,1.31,1.31,0,0,0,1.14.56,1.27,1.27,0,0,0,1.11-.56A2.56,2.56,0,0,0,111.3,69a.57.57,0,0,0,0-.13V68.6a.81.81,0,0,1,0-.16,2.58,2.58,0,0,0-.45-1.2,1.25,1.25,0,0,0-1.09-.55,1.32,1.32,0,0,0-1.13.55,2.48,2.48,0,0,0-.45,1.2.81.81,0,0,1,0,.16c0,.06,0,.1,0,.15Z"/><path class="cls-3" d="M120.61,66.11a.57.57,0,0,1,0,.13.69.69,0,0,1,0,.13,1.11,1.11,0,0,1-.26.49.59.59,0,0,1-.48.23l-.17,0-.16,0L119.3,67l-.2-.08-.41-.13a1.31,1.31,0,0,0-.44-.07,1.44,1.44,0,0,0-1.28.64,2.52,2.52,0,0,0-.42,1.42v.11a2.47,2.47,0,0,0,.48,1.33,1.43,1.43,0,0,0,1.22.59l.26,0a1.47,1.47,0,0,0,.28-.08l.15,0,.16-.06.38-.15a1,1,0,0,1,.26-.06.87.87,0,0,1,.87.88.91.91,0,0,1-.43.79,3.21,3.21,0,0,1-1,.43,3.25,3.25,0,0,1-.59.12c-.19,0-.35,0-.48,0a3.3,3.3,0,0,1-2.62-1.15,4.18,4.18,0,0,1,0-5.44,3.27,3.27,0,0,1,2.61-1.18,3.94,3.94,0,0,1,.47,0,3.76,3.76,0,0,1,.55.1,3.06,3.06,0,0,1,1,.39.84.84,0,0,1,.45.76Z"/><path class="cls-3" d="M121.66,71.41V62.79A1.12,1.12,0,0,1,122,62a1,1,0,0,1,1.45,0,1.19,1.19,0,0,1,.28.81v4.68l2.21-2.14a1.84,1.84,0,0,1,.47-.33,1.31,1.31,0,0,1,.44-.1.78.78,0,0,1,.6.28.94.94,0,0,1,.25.59v0a1.24,1.24,0,0,1,0,.27.88.88,0,0,1-.12.26l-.11.13-.13.14-1.79,1.58L127.84,71a.79.79,0,0,1,.14.23c0,.08.06.16.08.23a.52.52,0,0,1,0,.11s0,.08,0,.12a.87.87,0,0,1-.28.66.91.91,0,0,1-.67.28,1,1,0,0,1-.35-.07,1.49,1.49,0,0,1-.31-.2l-.15-.15c0-.06-.11-.12-.16-.19L123.71,69h0v2.45a1.18,1.18,0,0,1-.28.82,1,1,0,0,1-1.45,0,1.12,1.12,0,0,1-.29-.8Z"/><path class="cls-3" d="M136.43,64.83A3.3,3.3,0,0,1,139,66a4.2,4.2,0,0,1,0,5.44,3.56,3.56,0,0,1-5.24,0,4.2,4.2,0,0,1,0-5.44,3.25,3.25,0,0,1,2.6-1.18Zm-1.13,2.41a2.48,2.48,0,0,0-.45,1.2.81.81,0,0,1,0,.16c0,.06,0,.1,0,.15v.12a.59.59,0,0,0,0,.13,2.47,2.47,0,0,0,.44,1.22,1.44,1.44,0,0,0,2.28,0A2.51,2.51,0,0,0,138,69a.68.68,0,0,0,0-.14v-.12s0-.09,0-.14a.91.91,0,0,1,0-.17,2.48,2.48,0,0,0-.45-1.2,1.28,1.28,0,0,0-1.13-.55A1.35,1.35,0,0,0,135.3,67.24Z"/><path class="cls-3" d="M141.71,71.41V66.76h-.45a.81.81,0,0,1-.64-.22.9.9,0,0,1-.23-.64.86.86,0,0,1,.87-.89h.45V64a2.3,2.3,0,0,1,.59-1.69,2.1,2.1,0,0,1,1.52-.59,2.33,2.33,0,0,1,1,.19.72.72,0,0,1,.43.72.94.94,0,0,1-.2.65.83.83,0,0,1-.62.21,1.19,1.19,0,0,0-.47.09c-.14.06-.21.27-.21.65V65h.63a1.38,1.38,0,0,1,.74.21.93.93,0,0,1,0,1.35,1.22,1.22,0,0,1-.74.2h-.63v4.65a1.13,1.13,0,0,1-.28.82.94.94,0,0,1-.72.3,1,1,0,0,1-.72-.3,1.08,1.08,0,0,1-.29-.8Z"/><path class="cls-3" d="M150.33,71.41V66.76h-.45a.78.78,0,0,1-.63-.22.85.85,0,0,1-.23-.64.89.89,0,0,1,.24-.64.85.85,0,0,1,.62-.25h.45V63.8a1.12,1.12,0,0,1,.29-.8,1,1,0,0,1,1.45,0,1.13,1.13,0,0,1,.28.81V65h.57a1.27,1.27,0,0,1,.68.21.93.93,0,0,1,0,1.35,1.12,1.12,0,0,1-.68.2h-.57v4.65a1.13,1.13,0,0,1-.28.82,1,1,0,0,1-1.45,0,1.12,1.12,0,0,1-.29-.8Z"/><path class="cls-3" d="M154.34,71.41V62.79a1.12,1.12,0,0,1,.28-.8,1,1,0,0,1,1.45,0,1.14,1.14,0,0,1,.28.81v2.73h0a1.52,1.52,0,0,1,.55-.42,2.71,2.71,0,0,1,.7-.21l.3,0h.28a2.8,2.8,0,0,1,2,.71,2.58,2.58,0,0,1,.78,2v3.85a1.13,1.13,0,0,1-.28.82.94.94,0,0,1-.73.3,1,1,0,0,1-.72-.3,1.12,1.12,0,0,1-.28-.8V67.9a1.3,1.3,0,0,0-.39-1,1.35,1.35,0,0,0-.93-.34,1.18,1.18,0,0,0-.95.39,1.47,1.47,0,0,0-.34,1v3.5a1.13,1.13,0,0,1-.28.82,1,1,0,0,1-1.45,0,1.12,1.12,0,0,1-.28-.8Z"/><path class="cls-3" d="M164.09,69.4a1.56,1.56,0,0,0,.66,1.11,2.23,2.23,0,0,0,1.25.36,2.09,2.09,0,0,0,.72-.13,4.9,4.9,0,0,0,.61-.28l.52-.28a1,1,0,0,1,.43-.13.73.73,0,0,1,.57.28.86.86,0,0,1,.26.59c0,.37-.28.72-.83,1a5.09,5.09,0,0,1-1.82.61l-.33,0-.31,0a3.61,3.61,0,0,1-2.74-1.1,3.86,3.86,0,0,1-1-2.77A4.07,4.07,0,0,1,163,66a3.27,3.27,0,0,1,2.61-1.18,3.23,3.23,0,0,1,2.36.92,4.05,4.05,0,0,1,1.19,2c0,.11,0,.22.05.34a2,2,0,0,1,0,.34.94.94,0,0,1-.21.67.87.87,0,0,1-.67.23Zm3.17-1.35a1.87,1.87,0,0,0-.5-1.08,1.61,1.61,0,0,0-2.21,0,1.78,1.78,0,0,0-.5,1.08Z"/><path class="cls-3" d="M174.93,71.41V66.76h-.45a.78.78,0,0,1-.63-.22.86.86,0,0,1-.24-.64.9.9,0,0,1,.25-.64.85.85,0,0,1,.62-.25h.45V63.8a1.12,1.12,0,0,1,.29-.8,1,1,0,0,1,1.45,0,1.17,1.17,0,0,1,.28.81V65h.57a1.27,1.27,0,0,1,.68.21.93.93,0,0,1,0,1.35,1.12,1.12,0,0,1-.68.2H177v4.65a1.18,1.18,0,0,1-.28.82,1,1,0,0,1-1.45,0,1.12,1.12,0,0,1-.29-.8Z"/><path class="cls-3" d="M182.25,64.83a3.32,3.32,0,0,1,2.61,1.2,4.22,4.22,0,0,1,0,5.44,3.56,3.56,0,0,1-5.24,0,4,4,0,0,1-1-2.72,4.08,4.08,0,0,1,1-2.72,3.25,3.25,0,0,1,2.6-1.18Zm-1.12,2.41a2.49,2.49,0,0,0-.46,1.2.81.81,0,0,1,0,.16v.27a.57.57,0,0,0,0,.13,2.47,2.47,0,0,0,.44,1.22,1.31,1.31,0,0,0,1.14.56,1.29,1.29,0,0,0,1.14-.56,2.41,2.41,0,0,0,.44-1.22.68.68,0,0,0,0-.14v-.12a.71.71,0,0,0,0-.14s0-.11,0-.17a2.38,2.38,0,0,0-.45-1.2,1.28,1.28,0,0,0-1.13-.55A1.32,1.32,0,0,0,181.13,67.24Z"/><path class="cls-3" d="M187.07,71.41V66a1.15,1.15,0,0,1,.28-.8,1,1,0,0,1,.73-.31,1,1,0,0,1,.63.2.89.89,0,0,1,.29.55,1.92,1.92,0,0,1,.76-.62,3,3,0,0,1,1.19-.21,2.8,2.8,0,0,1,2,.72,2.56,2.56,0,0,1,.78,2v3.86a1.13,1.13,0,0,1-.28.82.94.94,0,0,1-.72.3,1,1,0,0,1-.73-.3,1.12,1.12,0,0,1-.28-.8V67.9a1.3,1.3,0,0,0-.39-1,1.32,1.32,0,0,0-.93-.34,1.18,1.18,0,0,0-1,.39,1.52,1.52,0,0,0-.34,1v3.5a1.13,1.13,0,0,1-.28.82.94.94,0,0,1-.72.3,1,1,0,0,1-.73-.3,1.13,1.13,0,0,1-.28-.81Z"/><path class="cls-3" d="M202.09,66v5.84A3.38,3.38,0,0,1,201,74.59a4.17,4.17,0,0,1-2.8.91,6,6,0,0,1-.63,0,6.43,6.43,0,0,1-.81-.16,4.56,4.56,0,0,1-1.2-.48A.94.94,0,0,1,195,74a.5.5,0,0,1,0-.12l0-.12a.92.92,0,0,1,.28-.41.74.74,0,0,1,.42-.23h.07a1.5,1.5,0,0,1,.49.09l.57.23.66.21a3.3,3.3,0,0,0,.8.1,1.79,1.79,0,0,0,1.22-.42,1.45,1.45,0,0,0,.48-1.17v-.49h0a2,2,0,0,1-.82.72,2.84,2.84,0,0,1-1.21.24,2.62,2.62,0,0,1-2.35-1.18,4.82,4.82,0,0,1-.76-2.68A4.49,4.49,0,0,1,195.8,66a2.87,2.87,0,0,1,2.42-1.2h.21l.2,0a2.76,2.76,0,0,1,.83.3,1.6,1.6,0,0,1,.61.6,1.17,1.17,0,0,1,.35-.63,1.05,1.05,0,0,1,1.39.09,1.17,1.17,0,0,1,.28.82Zm-2,2.76v-.15a1,1,0,0,1,0-.17,2.66,2.66,0,0,0-.45-1.21,1.37,1.37,0,0,0-2.19,0,2.47,2.47,0,0,0-.47,1.15c0,.06,0,.12,0,.18s0,.12,0,.17a2.6,2.6,0,0,0,.4,1.44,1.3,1.3,0,0,0,1.17.62,1.32,1.32,0,0,0,1.17-.59,2.56,2.56,0,0,0,.41-1.31v-.09Z"/><path class="cls-3" d="M203.59,69.67V66a1.11,1.11,0,0,1,.29-.8,1,1,0,0,1,.72-.31.94.94,0,0,1,.72.31,1.17,1.17,0,0,1,.28.82v3.59a1.22,1.22,0,0,0,.4,1,1.37,1.37,0,0,0,1.81,0,1.2,1.2,0,0,0,.4-1V66a1.11,1.11,0,0,1,.29-.8,1,1,0,0,1,.72-.31.94.94,0,0,1,.72.31,1.17,1.17,0,0,1,.28.82v3.63a2.75,2.75,0,0,1-.86,2.15,4.17,4.17,0,0,1-4.91,0,2.78,2.78,0,0,1-.86-2.14Z"/><path class="cls-3" d="M213.35,69.4a1.51,1.51,0,0,0,.65,1.11,2.23,2.23,0,0,0,1.25.36,2.09,2.09,0,0,0,.72-.13,4.9,4.9,0,0,0,.61-.28l.52-.28a1,1,0,0,1,.43-.13.75.75,0,0,1,.58.28.89.89,0,0,1,.25.59c0,.37-.28.72-.83,1a5.09,5.09,0,0,1-1.82.61l-.33,0-.31,0a3.62,3.62,0,0,1-2.74-1.1,3.9,3.9,0,0,1-1-2.77,4,4,0,0,1,1-2.72,3.47,3.47,0,0,1,5-.26,4.15,4.15,0,0,1,1.2,2c0,.11,0,.22,0,.34s0,.23,0,.34a.94.94,0,0,1-.21.67.9.9,0,0,1-.68.23Zm3.16-1.35A1.87,1.87,0,0,0,216,67a1.41,1.41,0,0,0-1.11-.44,1.45,1.45,0,0,0-1.1.44,1.84,1.84,0,0,0-.5,1.08Z"/><path class="cls-3" d="M94.42,88.21V83.56H94a.81.81,0,0,1-.64-.22.9.9,0,0,1-.23-.64.86.86,0,0,1,.87-.89h.45v-1A2.3,2.3,0,0,1,95,79.07a2.1,2.1,0,0,1,1.52-.59,2.33,2.33,0,0,1,1,.19.72.72,0,0,1,.43.72,1,1,0,0,1-.2.65.83.83,0,0,1-.62.2,1.2,1.2,0,0,0-.47.1c-.14.06-.21.27-.21.65v.81h.63a1.38,1.38,0,0,1,.74.21.93.93,0,0,1,0,1.35,1.22,1.22,0,0,1-.74.2h-.63v4.65a1.13,1.13,0,0,1-.28.82.94.94,0,0,1-.72.3,1,1,0,0,1-.73-.3,1.13,1.13,0,0,1-.28-.81Z"/><path class="cls-3" d="M101.77,81.63a3.3,3.3,0,0,1,2.6,1.2,4.08,4.08,0,0,1,1,2.72,4,4,0,0,1-1,2.72,3.58,3.58,0,0,1-5.24,0,4.18,4.18,0,0,1,0-5.44,3.28,3.28,0,0,1,2.61-1.19ZM100.64,84a2.49,2.49,0,0,0-.46,1.2v.16a.81.81,0,0,0,0,.15v.12s0,.09,0,.13a2.49,2.49,0,0,0,.45,1.22,1.29,1.29,0,0,0,1.14.56,1.31,1.31,0,0,0,1.14-.56,2.61,2.61,0,0,0,.44-1.22.66.66,0,0,0,0-.14V85.4a.91.91,0,0,1,0-.17,2.49,2.49,0,0,0-.46-1.2,1.27,1.27,0,0,0-1.12-.55A1.34,1.34,0,0,0,100.64,84Z"/><path class="cls-3" d="M106.55,88.21v-5.5a.84.84,0,0,1,.31-.71,1.16,1.16,0,0,1,.66-.29h.07a1.27,1.27,0,0,1,.69.18.73.73,0,0,1,.29.67l0,0a2.08,2.08,0,0,1,.61-.61,1.47,1.47,0,0,1,.8-.22,1,1,0,0,1,.67.27,1,1,0,0,1,.31.81.62.62,0,0,1-.21.52,2.15,2.15,0,0,1-.5.27l-.24.09-.25.11h0a5.4,5.4,0,0,0-.81.48,1,1,0,0,0-.37.85v3.09a1.13,1.13,0,0,1-.28.82,1,1,0,0,1-1.45,0,1.13,1.13,0,0,1-.29-.81Z"/><path class="cls-3" d="M120.76,83.09a.91.91,0,0,1-.23.63.72.72,0,0,1-.59.28,1,1,0,0,1-.35-.09l-.45-.21a1.69,1.69,0,0,1-.28-.12l-.28-.1-.22,0-.23,0a.85.85,0,0,0-.47.13.47.47,0,0,0-.21.43.42.42,0,0,0,.22.36,3.21,3.21,0,0,0,.56.3l.47.17.5.2a4.91,4.91,0,0,1,1.2.74,1.63,1.63,0,0,1,.55,1.32,2.14,2.14,0,0,1-.79,1.68,3.08,3.08,0,0,1-2.08.67,3.31,3.31,0,0,1-.44,0,3.4,3.4,0,0,1-.46-.09,3.94,3.94,0,0,1-1.32-.53,1.07,1.07,0,0,1-.6-.9,1.15,1.15,0,0,1,0-.16.64.64,0,0,1,.08-.19,1.25,1.25,0,0,1,.29-.37.74.74,0,0,1,.48-.17,1.06,1.06,0,0,1,.45.08,2.64,2.64,0,0,1,.38.18l.07,0s0,0,.08,0a2.51,2.51,0,0,0,.49.25,1.68,1.68,0,0,0,.62.1,1,1,0,0,0,.63-.14.54.54,0,0,0,.16-.43.44.44,0,0,0-.21-.36,3.63,3.63,0,0,0-.56-.28l-.46-.19-.52-.19a4.8,4.8,0,0,1-1.2-.74,1.66,1.66,0,0,1-.55-1.33,2.12,2.12,0,0,1,.77-1.7,2.92,2.92,0,0,1,2-.66,2.83,2.83,0,0,1,.41,0,3.49,3.49,0,0,1,.43.07,3.38,3.38,0,0,1,1.16.47,1,1,0,0,1,.52.89Z"/><path class="cls-3" d="M123.45,88.31l-1.71-4.84c0-.15-.1-.29-.13-.41a2.33,2.33,0,0,1-.06-.35.29.29,0,0,1,0-.09v-.09a.73.73,0,0,1,.29-.58,1.08,1.08,0,0,1,.72-.24.94.94,0,0,1,.62.22,1,1,0,0,1,.33.58l1.17,3.84h0l1.18-3.77a1.38,1.38,0,0,1,.35-.63,1.07,1.07,0,0,1,1.35,0,1.39,1.39,0,0,1,.34.65l1.18,3.75h0l1.16-3.85a1.11,1.11,0,0,1,.34-.57.91.91,0,0,1,.61-.22A1.05,1.05,0,0,1,132,82a1,1,0,0,1,.28.73,1.06,1.06,0,0,1-.06.34l-.14.41-1.72,4.86a1.83,1.83,0,0,1-.44.73,1,1,0,0,1-.77.29,1.13,1.13,0,0,1-.75-.24,1.64,1.64,0,0,1-.42-.68l-1-3.27h0l-1,3.25a1.48,1.48,0,0,1-.42.7,1.08,1.08,0,0,1-.74.24,1,1,0,0,1-.78-.29,1.86,1.86,0,0,1-.44-.72Z"/><path class="cls-3" d="M140.14,83v5.22a2.09,2.09,0,0,1,0,.24,1.34,1.34,0,0,1-.23.58.83.83,0,0,1-.72.27.85.85,0,0,1-.65-.22,1.45,1.45,0,0,1-.32-.62,2.55,2.55,0,0,1-.87.69,2.31,2.31,0,0,1-1.05.23,3,3,0,0,1-2.37-1.08,4.06,4.06,0,0,1-1-2.79,4.11,4.11,0,0,1,1-2.79,3,3,0,0,1,2.36-1.12,2.64,2.64,0,0,1,1.07.23,2.07,2.07,0,0,1,.85.71.9.9,0,0,1,.32-.61,1,1,0,0,1,.65-.25.84.84,0,0,1,.72.28,1.43,1.43,0,0,1,.23.59,2.09,2.09,0,0,1,0,.24V83ZM135,85.54v.13a.59.59,0,0,0,0,.13,2.47,2.47,0,0,0,.44,1.22,1.31,1.31,0,0,0,1.14.56,1.26,1.26,0,0,0,1.11-.56,2.56,2.56,0,0,0,.43-1.22.57.57,0,0,0,0-.13V85.4a.81.81,0,0,1,0-.16,2.58,2.58,0,0,0-.45-1.2,1.25,1.25,0,0,0-1.09-.55,1.32,1.32,0,0,0-1.13.55,2.58,2.58,0,0,0-.45,1.2.81.81,0,0,1,0,.16c0,.06,0,.1,0,.15Z"/><path class="cls-3" d="M141.61,88.21V79.59a1.12,1.12,0,0,1,.29-.8,1,1,0,0,1,1.45,0,1.17,1.17,0,0,1,.28.81v8.61a1.18,1.18,0,0,1-.28.82,1,1,0,0,1-1.45,0,1.13,1.13,0,0,1-.29-.81Z"/><path class="cls-3" d="M145.07,88.21V79.59a1.08,1.08,0,0,1,.29-.8.92.92,0,0,1,.72-.31.9.9,0,0,1,.72.31,1.13,1.13,0,0,1,.28.81v8.61a1.13,1.13,0,0,1-.28.82.92.92,0,0,1-.72.3,1,1,0,0,1-.72-.3,1.09,1.09,0,0,1-.29-.81Z"/><path class="cls-3" d="M151.87,81.63a3.32,3.32,0,0,1,2.61,1.2,4.22,4.22,0,0,1,0,5.44,3.58,3.58,0,0,1-5.24,0,4,4,0,0,1-1-2.72,4.08,4.08,0,0,1,1-2.72,3.26,3.26,0,0,1,2.6-1.19ZM150.75,84a2.49,2.49,0,0,0-.46,1.2.81.81,0,0,1,0,.16v.27a.57.57,0,0,0,0,.13,2.47,2.47,0,0,0,.44,1.22,1.31,1.31,0,0,0,1.14.56A1.29,1.29,0,0,0,153,87a2.41,2.41,0,0,0,.44-1.22.68.68,0,0,0,0-.14v-.12a.71.71,0,0,0,0-.14c0-.05,0-.11,0-.17A2.38,2.38,0,0,0,153,84a1.28,1.28,0,0,0-1.13-.55A1.32,1.32,0,0,0,150.75,84Z"/><path class="cls-3" d="M158.13,88.31l-1.71-4.84c0-.15-.1-.29-.13-.41a2.33,2.33,0,0,1-.06-.35.29.29,0,0,1,0-.09v-.09a.73.73,0,0,1,.29-.58,1.08,1.08,0,0,1,.72-.24,1,1,0,0,1,.62.22,1.08,1.08,0,0,1,.33.58l1.16,3.84h0l1.18-3.77a1.38,1.38,0,0,1,.35-.63,1.07,1.07,0,0,1,1.35,0,1.49,1.49,0,0,1,.34.65l1.18,3.75h0L165,82.5a1.09,1.09,0,0,1,.33-.57,1,1,0,0,1,.62-.22,1.05,1.05,0,0,1,.73.26,1,1,0,0,1,.28.73,1.06,1.06,0,0,1-.06.34c0,.12-.09.26-.14.41L165,88.31a1.83,1.83,0,0,1-.44.73,1,1,0,0,1-.78.29,1.1,1.1,0,0,1-.74-.24,1.46,1.46,0,0,1-.42-.68l-1-3.27h0l-1,3.25a1.48,1.48,0,0,1-.42.7,1.1,1.1,0,0,1-.74.24,1,1,0,0,1-.78-.29,1.86,1.86,0,0,1-.44-.72Z"/><path class="cls-3" d="M168.91,78.69a1.16,1.16,0,0,1,.79.34,1,1,0,0,1,.34.78,1.17,1.17,0,0,1-.32.82,1.07,1.07,0,0,1-.81.34,1.05,1.05,0,0,1-.79-.35,1.1,1.1,0,0,1-.34-.81,1,1,0,0,1,.34-.77,1.12,1.12,0,0,1,.79-.34Zm-1,9.52V82.82a1.16,1.16,0,0,1,.29-.8,1,1,0,0,1,1.45,0,1.21,1.21,0,0,1,.28.82v5.37a1.18,1.18,0,0,1-.28.82,1,1,0,0,1-1.45,0,1.13,1.13,0,0,1-.29-.81Z"/><path class="cls-3" d="M171.39,88.21V82.82a1.11,1.11,0,0,1,.29-.8,1,1,0,0,1,.72-.31,1,1,0,0,1,.63.2.89.89,0,0,1,.29.55,1.92,1.92,0,0,1,.76-.62,3,3,0,0,1,1.19-.21,2.8,2.8,0,0,1,2,.72,2.56,2.56,0,0,1,.78,2v3.86a1.13,1.13,0,0,1-.28.82.94.94,0,0,1-.72.3,1,1,0,0,1-.72-.3,1.09,1.09,0,0,1-.29-.81V84.7a1.3,1.3,0,0,0-.39-1,1.32,1.32,0,0,0-.93-.34,1.18,1.18,0,0,0-.95.39,1.52,1.52,0,0,0-.34,1v3.5a1.13,1.13,0,0,1-.28.82.94.94,0,0,1-.72.3,1,1,0,0,1-.72-.3,1.09,1.09,0,0,1-.29-.81Z"/><path class="cls-3" d="M186.41,82.82v5.84a3.38,3.38,0,0,1-1.08,2.73,4.17,4.17,0,0,1-2.8.91,6,6,0,0,1-.63,0,6.43,6.43,0,0,1-.81-.16,4.56,4.56,0,0,1-1.2-.48.94.94,0,0,1-.54-.82.5.5,0,0,1,0-.12l0-.12a1,1,0,0,1,.28-.41.74.74,0,0,1,.42-.23h.07a1.5,1.5,0,0,1,.49.09l.57.23.66.21a3.3,3.3,0,0,0,.8.1,1.79,1.79,0,0,0,1.22-.42,1.45,1.45,0,0,0,.48-1.17v-.49h0a2,2,0,0,1-.82.72,2.84,2.84,0,0,1-1.21.23A2.61,2.61,0,0,1,180,88.24a4.82,4.82,0,0,1-.76-2.68,4.49,4.49,0,0,1,.89-2.73,2.88,2.88,0,0,1,2.43-1.2h.2l.2,0a2.76,2.76,0,0,1,.83.3,1.53,1.53,0,0,1,.61.6,1.17,1.17,0,0,1,.35-.63,1.05,1.05,0,0,1,1.39.09,1.17,1.17,0,0,1,.28.82Zm-2,2.76v-.15a1,1,0,0,1,0-.17,2.62,2.62,0,0,0-.45-1.21,1.37,1.37,0,0,0-2.19,0,2.47,2.47,0,0,0-.47,1.15c0,.06,0,.12,0,.18s0,.12,0,.17a2.6,2.6,0,0,0,.4,1.44,1.3,1.3,0,0,0,1.17.62A1.32,1.32,0,0,0,184,87a2.47,2.47,0,0,0,.41-1.31v-.09Z"/><path class="cls-3" d="M189.68,78.68a1.91,1.91,0,0,1,1.49.61,2,2,0,0,1,.55,1.42,2.37,2.37,0,0,1-.1.67,5.59,5.59,0,0,1-.26.71,7.74,7.74,0,0,1-.48.83c-.17.28-.36.54-.54.78s-.24.28-.36.4a3.58,3.58,0,0,1-.33.34l-.12.1-.14.09a.33.33,0,0,1-.13,0h-.21l-.1,0a1,1,0,0,1-.26-.21.48.48,0,0,1-.12-.3h0V84l0-.07.06-.09a.76.76,0,0,1,.08-.11l.23-.28.27-.29s0,0,0,0h0l.32-.36a2.37,2.37,0,0,0,.26-.34v0a.68.68,0,0,1-.2.07l-.23,0h-.09a1.57,1.57,0,0,1-1.22-.56,1.88,1.88,0,0,1-.48-1.27,2,2,0,0,1,.57-1.41,1.92,1.92,0,0,1,1.48-.62Zm.56,2.63a.88.88,0,0,0,.21-.6,1,1,0,0,0-.2-.6.7.7,0,0,0-.57-.25.73.73,0,0,0-.57.24.9.9,0,0,0-.21.6,1,1,0,0,0,.2.59.68.68,0,0,0,.58.26A.71.71,0,0,0,190.24,81.31Z"/><circle class="cls-4" cx="39.97" cy="58.11" r="38.77"/><circle class="cls-5" cx="39.97" cy="58.11" r="38.77"/><path class="cls-6" d="M50.45,58a2.94,2.94,0,0,0-.78-1.68h0l0,0h0c-1-1-.76-2.8-.94-5.08-.29-3.59-.68-8.5-4.53-12.44-4.18-4.29-8.32-3.58-10.41-2.78a4.75,4.75,0,0,1-3.44,0,9,9,0,0,0-3.22-.6,9.92,9.92,0,0,0-7.19,3.38c-3.85,3.94-4.24,8.85-4.53,12.44-.18,2.28,0,4.07-.93,5.08h0l-.05,0h0A2.86,2.86,0,0,0,13.58,58Z"/><path class="cls-6" d="M50.45,58a2.83,2.83,0,0,1-.78,1.64h0l0,0v0c-1,1-.76,2.73-.94,5-.29,3.5-2.83,14.53-16.64,14.53s-16.39-11-16.68-14.53c-.18-2.22,0-4-.93-5v0l-.05,0h0A2.76,2.76,0,0,1,13.58,58Z"/><path class="cls-7" d="M49.42,58l0,0c-1.74-1.55-1.59-3.71-1.83-6.21-.29-3.18-.66-7.14-4.2-10.23a8.88,8.88,0,0,0-5.88-2.45,8.21,8.21,0,0,0-2.54.41,9.47,9.47,0,0,1-2.91.46,9.59,9.59,0,0,1-2.92-.46,8.14,8.14,0,0,0-2.53-.41,8.87,8.87,0,0,0-5.88,2.45c-3.54,3.09-3.91,7-4.21,10.23-.23,2.5-.09,4.66-1.82,6.2l0,0Z"/><path class="cls-7" d="M49.42,58l0,0c-1.74,1.51-1.59,3.62-1.83,6.06C47.28,67.15,45.73,75.57,32,75.57S16.8,67.15,16.5,64.06c-.23-2.44-.09-4.55-1.82-6.05l0,0Z"/><path class="cls-8" d="M42.6,65.05c2,0,3.41-5.77,2.72-7.65-1.52-4.13-4.25-10.09-7.33-10-4.71.14-4.44,5.66-4.44,5.66s.44,2.81-1.67,2.81h-.22c-2.11,0-1.68-2.81-1.68-2.81s.27-5.52-4.43-5.66c-3.08-.09-5.81,5.87-7.33,10-.7,1.88.71,7.65,2.71,7.65Z"/><path class="cls-9" d="M31.62,58c-3.07-3.51-8.1-.94-10.64.74a3.41,3.41,0,0,0-1.52,3c.19,3.91,1.21,13,6.62,17.29a8.21,8.21,0,0,0,10.12.23c5.51-4,7-12.77,7.37-16.77A3.71,3.71,0,0,0,42,59.11c-2.5-1.79-7.27-4.39-10.42-1.1"/><path class="cls-10" d="M31.62,58c-3.07-3.51-8.1-.94-10.64.74a3.41,3.41,0,0,0-1.52,3c.19,3.91,1.21,13,6.62,17.29a8.21,8.21,0,0,0,10.12.23c5.51-4,7-12.77,7.37-16.77A3.71,3.71,0,0,0,42,59.11C39.54,57.32,34.77,54.72,31.62,58Z"/><line class="cls-11" x1="31.62" y1="58.01" x2="31.62" y2="72.13"/><g class="cls-12"><path class="cls-13" d="M51,38.45c0,.81-4,2.19-9.88,3.4-1.45.29-3,1.21-4.65,1.37-1.38.14-2.83-.12-4.31-.12a44.67,44.67,0,0,1-5.3,0c-1.81-.21-3.51-1.2-5-1.57-5.12-1.22-8.5-2.35-8.5-3.09,0-1.18,8.43-1.18,18.84-1.18S51,37.27,51,38.45"/><path class="cls-14" d="M51,38.45c0,.81-4,2.19-9.88,3.4-1.45.29-3,1.21-4.65,1.37-1.38.14-2.83-.12-4.31-.12a44.67,44.67,0,0,1-5.3,0c-1.81-.21-3.51-1.2-5-1.57-5.12-1.22-8.5-2.35-8.5-3.09,0-1.18,8.43-1.18,18.84-1.18S51,37.27,51,38.45Z"/></g><path class="cls-15" d="M57.52,41.11,51.26,49.7c-.47.63.1,1.44,1,1.44h1.93V69.27H52.28c-.92,0-1.49.8-1,1.44l6.26,8.58a1.58,1.58,0,0,0,2.42,0l6.26-8.58c.46-.64-.11-1.44-1-1.44H63.25V51.14h1.93c.91,0,1.48-.81,1-1.44l-6.26-8.59a1.6,1.6,0,0,0-2.42,0"/></g></g></svg>