<svg id="Layer_1" data-name="Layer 1" xmlns="http://www.w3.org/2000/svg" xmlns:xlink="http://www.w3.org/1999/xlink" viewBox="0 0 238.47 109.57"><defs><style>.cls-1,.cls-10,.cls-11,.cls-13,.cls-9{fill:none;}.cls-2{fill:#f1f1ad;}.cls-3{fill:#754d24;}.cls-4,.cls-5{fill:#fff;}.cls-12,.cls-13,.cls-4{opacity:0.5;}.cls-6{clip-path:url(#clip-path);}.cls-7{fill:#fac5bb;}.cls-8{fill:#f39725;}.cls-11,.cls-9{stroke:#f7a79c;}.cls-10,.cls-11,.cls-13,.cls-9{stroke-linecap:round;}.cls-13,.cls-9{stroke-miterlimit:10;}.cls-10,.cls-11,.cls-9{stroke-width:0.75px;}.cls-10{stroke:#f07d26;}.cls-10,.cls-11{stroke-linejoin:round;}.cls-13{stroke:#3bb44a;stroke-width:2.4px;stroke-dasharray:6.09 6.09;}</style><clipPath id="clip-path" transform="translate(-840.76 -486.74)"><path class="cls-1" d="M853.46,539.43a27.27,27.27,0,1,0,27.27-27.27,27.27,27.27,0,0,0-27.27,27.27"/></clipPath></defs><title>1</title><path class="cls-2" d="M1068.46,502.93c-12.18-12-51.41-16.18-82.5-16.19h-.09c-31.09,0-70.32,4.21-82.5,16.19s-10.73,38.69-10.73,38.69-1.47,28.91,10.73,38.49,50.71,16.09,82.21,16.19h.67c31.5-.09,70.11-6.67,82.21-16.19s10.73-38.49,10.73-38.49S1080.65,514.92,1068.46,502.93Z" transform="translate(-840.76 -486.74)"/><path class="cls-3" d="M934.47,534.51v-8a1,1,0,0,1,.3-.8,1.05,1.05,0,0,1,1.8.82v3H941v-3a1,1,0,0,1,.3-.8,1.05,1.05,0,0,1,1.8.81v7.95a1.08,1.08,0,0,1-1.8.81,1,1,0,0,1-.3-.8v-3.07h-4.4v3.05a1.07,1.07,0,0,1-1.8.81,1,1,0,0,1-.3-.8Z" transform="translate(-840.76 -486.74)"/><path class="cls-3" d="M947.94,527.9a3.31,3.31,0,0,1,2.6,1.2,4.08,4.08,0,0,1,1,2.72,4,4,0,0,1-1,2.72,3.56,3.56,0,0,1-5.24,0,4,4,0,0,1-1-2.72,4.08,4.08,0,0,1,1-2.72,3.26,3.26,0,0,1,2.6-1.18Zm-1.13,2.41a2.52,2.52,0,0,0-.46,1.2c0,.06,0,.11,0,.16s0,.1,0,.15v.12a.73.73,0,0,0,0,.13,2.49,2.49,0,0,0,.44,1.22,1.44,1.44,0,0,0,2.28,0,2.51,2.51,0,0,0,.44-1.22.65.65,0,0,0,0-.13v-.12s0-.1,0-.15,0-.1,0-.16a2.53,2.53,0,0,0-.46-1.21,1.29,1.29,0,0,0-1.13-.55A1.32,1.32,0,0,0,946.81,530.31Z" transform="translate(-840.76 -486.74)"/><path class="cls-3" d="M952.73,534.48v-8.62a1.13,1.13,0,0,1,.29-.8,1,1,0,0,1,1.45,0,1.16,1.16,0,0,1,.28.81v8.61a1.15,1.15,0,0,1-.28.82,1,1,0,0,1-1.45,0,1.12,1.12,0,0,1-.29-.8Z" transform="translate(-840.76 -486.74)"/><path class="cls-3" d="M963.1,525.86v8.62a1.16,1.16,0,0,1-.28.82,1,1,0,0,1-.73.3,1,1,0,0,1-.67-.22,1.16,1.16,0,0,1-.34-.61,1.57,1.57,0,0,1-.62.59,3,3,0,0,1-.83.29l-.2,0h-.2a2.88,2.88,0,0,1-2.42-1.18,4.2,4.2,0,0,1-.9-2.6v-.2a4.87,4.87,0,0,1,.87-2.61,2.7,2.7,0,0,1,2.38-1.18,3.09,3.09,0,0,1,1,.17,2.64,2.64,0,0,1,.89.53v-2.76a1.12,1.12,0,0,1,.29-.8,1,1,0,0,1,1.45,0,1.16,1.16,0,0,1,.28.81Zm-2,5.88v-.07a2.56,2.56,0,0,0-.41-1.31,1.3,1.3,0,0,0-1.17-.59,1.25,1.25,0,0,0-1.07.53,2.53,2.53,0,0,0-.47,1.18c0,.06,0,.11,0,.17s0,.12,0,.18,0,.11,0,.17,0,.12,0,.17a2.48,2.48,0,0,0,.47,1.16,1.25,1.25,0,0,0,1.07.52,1.27,1.27,0,0,0,1.12-.55,2.61,2.61,0,0,0,.45-1.21c0-.06,0-.11,0-.17s0-.11,0-.17Z" transform="translate(-840.76 -486.74)"/><path class="cls-3" d="M969.68,525a1.17,1.17,0,0,1,.79.34,1,1,0,0,1,.34.78,1.14,1.14,0,0,1-.33.82,1.09,1.09,0,0,1-1.6,0,1.12,1.12,0,0,1-.34-.81,1,1,0,0,1,.34-.77,1.1,1.1,0,0,1,.79-.34Zm-1,9.52v-5.39a1.12,1.12,0,0,1,.29-.8,1,1,0,0,1,1.45,0,1.16,1.16,0,0,1,.28.81v5.37a1.16,1.16,0,0,1-.28.82,1,1,0,0,1-1.45,0,1.12,1.12,0,0,1-.29-.81Z" transform="translate(-840.76 -486.74)"/><path class="cls-3" d="M972.65,534.48v-4.65h-.45a.81.81,0,0,1-.64-.22.89.89,0,0,1-.23-.64.86.86,0,0,1,.25-.63.83.83,0,0,1,.62-.25h.45v-1.2a1.13,1.13,0,0,1,.29-.8,1,1,0,0,1,1.45,0,1.16,1.16,0,0,1,.28.81v1.19h.57a1.27,1.27,0,0,1,.68.21.94.94,0,0,1,0,1.35,1.16,1.16,0,0,1-.68.2h-.57v4.65a1.15,1.15,0,0,1-.28.82,1,1,0,0,1-1.45,0,1.12,1.12,0,0,1-.29-.8Z" transform="translate(-840.76 -486.74)"/><path class="cls-3" d="M978.28,532.46a1.52,1.52,0,0,0,.66,1.11,2.23,2.23,0,0,0,1.25.36,2,2,0,0,0,.72-.13,4.92,4.92,0,0,0,.61-.28l.52-.28a.94.94,0,0,1,.43-.13.76.76,0,0,1,.57.27.86.86,0,0,1,.25.6q0,.56-.83,1a5,5,0,0,1-1.82.62l-.33,0H980a3.6,3.6,0,0,1-2.74-1.1,3.86,3.86,0,0,1-1-2.76,4.08,4.08,0,0,1,1-2.72,3.46,3.46,0,0,1,5-.25,4.13,4.13,0,0,1,1.2,2c0,.11,0,.23,0,.34a2.72,2.72,0,0,1,0,.34,1,1,0,0,1-.21.67.88.88,0,0,1-.67.22Zm3.16-1.34a1.9,1.9,0,0,0-.5-1.08,1.6,1.6,0,0,0-2.21,0,1.8,1.8,0,0,0-.5,1.08Z" transform="translate(-840.76 -486.74)"/><path class="cls-3" d="M984.52,534.48v-5.39a1.12,1.12,0,0,1,.29-.8.94.94,0,0,1,.72-.31,1,1,0,0,1,.63.2.86.86,0,0,1,.29.56,2.54,2.54,0,0,1,.84-.62,2.47,2.47,0,0,1,1-.22,2.56,2.56,0,0,1,2.09,1,3.22,3.22,0,0,1,.6-.52,3.16,3.16,0,0,1,.69-.35l.43-.11a2.12,2.12,0,0,1,.41,0,2.85,2.85,0,0,1,2,.69,2.6,2.6,0,0,1,.76,2v3.86a1.16,1.16,0,0,1-.28.82,1,1,0,0,1-1.45,0,1.12,1.12,0,0,1-.29-.8V531a1.51,1.51,0,0,0-.31-1,1.06,1.06,0,0,0-.86-.38,1.07,1.07,0,0,0-.87.38,1.53,1.53,0,0,0-.31,1v3.5a1.16,1.16,0,0,1-.28.82,1,1,0,0,1-1.45,0,1.12,1.12,0,0,1-.29-.8V531a1.51,1.51,0,0,0-.31-1,1.2,1.2,0,0,0-1.76,0,1.63,1.63,0,0,0-.29,1v3.5a1.15,1.15,0,0,1-.28.82,1,1,0,0,1-1.45,0,1.12,1.12,0,0,1-.29-.81Z" transform="translate(-840.76 -486.74)"/><path class="cls-3" d="M1001.87,529.36a1,1,0,0,1-.23.64.75.75,0,0,1-.6.27.92.92,0,0,1-.35-.09l-.45-.2-.28-.12-.28-.1-.22,0-.22,0a.87.87,0,0,0-.48.13.47.47,0,0,0-.21.43.44.44,0,0,0,.22.36,3,3,0,0,0,.56.29l.47.18.5.2a4.84,4.84,0,0,1,1.2.74,1.62,1.62,0,0,1,.55,1.32,2.12,2.12,0,0,1-.78,1.68,3.1,3.1,0,0,1-2.09.67l-.44,0-.46-.08A4,4,0,0,1,997,535a1.07,1.07,0,0,1-.59-.9.79.79,0,0,1,0-.17.52.52,0,0,1,.08-.18,1.13,1.13,0,0,1,.29-.38.7.7,0,0,1,.48-.17,1.21,1.21,0,0,1,.45.08,2.44,2.44,0,0,1,.38.19l.08,0,.08,0a3,3,0,0,0,.49.25,1.69,1.69,0,0,0,.62.1,1,1,0,0,0,.63-.15.54.54,0,0,0,.17-.43.43.43,0,0,0-.22-.36,3.23,3.23,0,0,0-.55-.29l-.47-.18-.51-.2a4.69,4.69,0,0,1-1.2-.74,1.65,1.65,0,0,1-.55-1.33,2.12,2.12,0,0,1,.77-1.7,2.93,2.93,0,0,1,2-.65l.41,0a3.15,3.15,0,0,1,.43.08,3.27,3.27,0,0,1,1.16.47,1,1,0,0,1,.52.89Z" transform="translate(-840.76 -486.74)"/><path class="cls-3" d="M1007.22,532.74v-3.65a1.12,1.12,0,0,1,.29-.8,1,1,0,0,1,1.45,0,1.16,1.16,0,0,1,.28.81v3.59a1.22,1.22,0,0,0,.4,1,1.38,1.38,0,0,0,1.81,0,1.2,1.2,0,0,0,.4-1v-3.62a1.13,1.13,0,0,1,.29-.8,1,1,0,0,1,1.45,0,1.16,1.16,0,0,1,.28.81v3.63a2.78,2.78,0,0,1-.86,2.15,4.21,4.21,0,0,1-4.91,0,2.76,2.76,0,0,1-.86-2.14Z" transform="translate(-840.76 -486.74)"/><path class="cls-3" d="M1020.42,529.36a1,1,0,0,1-.23.64.75.75,0,0,1-.6.27.92.92,0,0,1-.35-.09l-.45-.2-.28-.12-.28-.1-.22,0-.22,0a.87.87,0,0,0-.48.13.47.47,0,0,0-.21.43.44.44,0,0,0,.22.36,3,3,0,0,0,.56.29l.47.18.5.2a4.84,4.84,0,0,1,1.2.74,1.62,1.62,0,0,1,.55,1.32,2.12,2.12,0,0,1-.78,1.68,3.1,3.1,0,0,1-2.09.67l-.44,0-.46-.08a4,4,0,0,1-1.32-.53,1.07,1.07,0,0,1-.59-.9.79.79,0,0,1,0-.17.52.52,0,0,1,.08-.18,1.13,1.13,0,0,1,.29-.38.7.7,0,0,1,.48-.17,1.21,1.21,0,0,1,.45.08,2.44,2.44,0,0,1,.38.19l.08,0,.08,0a3,3,0,0,0,.49.25,1.69,1.69,0,0,0,.62.1,1,1,0,0,0,.63-.15.54.54,0,0,0,.17-.43.43.43,0,0,0-.22-.36,3.23,3.23,0,0,0-.55-.29l-.47-.18-.51-.2a4.69,4.69,0,0,1-1.2-.74,1.65,1.65,0,0,1-.55-1.33,2.12,2.12,0,0,1,.77-1.7,2.93,2.93,0,0,1,2-.65l.41,0a3.15,3.15,0,0,1,.43.08,3.27,3.27,0,0,1,1.16.47,1,1,0,0,1,.52.89Z" transform="translate(-840.76 -486.74)"/><path class="cls-3" d="M1022.64,525a1.17,1.17,0,0,1,.79.34,1,1,0,0,1,.34.78,1.14,1.14,0,0,1-.33.82,1.09,1.09,0,0,1-1.6,0,1.12,1.12,0,0,1-.34-.81,1,1,0,0,1,.34-.77,1.1,1.1,0,0,1,.79-.34Zm-1,9.52v-5.39a1.12,1.12,0,0,1,.29-.8,1,1,0,0,1,1.45,0,1.16,1.16,0,0,1,.28.81v5.37a1.16,1.16,0,0,1-.28.82,1,1,0,0,1-1.45,0,1.12,1.12,0,0,1-.29-.81Z" transform="translate(-840.76 -486.74)"/><path class="cls-3" d="M1025.12,534.48v-5.39a1.12,1.12,0,0,1,.29-.8.94.94,0,0,1,.72-.31,1,1,0,0,1,.63.2.86.86,0,0,1,.29.55,1.86,1.86,0,0,1,.76-.62,2.89,2.89,0,0,1,1.18-.21,2.82,2.82,0,0,1,2,.72,2.58,2.58,0,0,1,.78,2v3.86a1.16,1.16,0,0,1-.28.82,1,1,0,0,1-1.45,0,1.12,1.12,0,0,1-.29-.8V531a1.31,1.31,0,0,0-.38-1,1.35,1.35,0,0,0-.93-.34,1.17,1.17,0,0,0-1,.4,1.48,1.48,0,0,0-.34,1v3.5a1.15,1.15,0,0,1-.28.82,1,1,0,0,1-.73.3,1,1,0,0,1-.72-.3,1.12,1.12,0,0,1-.29-.81Z" transform="translate(-840.76 -486.74)"/><path class="cls-3" d="M1040.14,529.09v5.84a3.37,3.37,0,0,1-1.08,2.73,4.19,4.19,0,0,1-2.8.91,5.22,5.22,0,0,1-.63,0,5.91,5.91,0,0,1-.81-.16,4.59,4.59,0,0,1-1.2-.48.93.93,0,0,1-.54-.82.59.59,0,0,1,0-.12l0-.12a1.12,1.12,0,0,1,.28-.41.82.82,0,0,1,.42-.23h.07a1.4,1.4,0,0,1,.5.1l.57.22.66.21a3,3,0,0,0,.79.1,1.82,1.82,0,0,0,1.22-.41,1.45,1.45,0,0,0,.48-1.17v-.49h0a1.93,1.93,0,0,1-.82.71,2.86,2.86,0,0,1-1.21.24,2.6,2.6,0,0,1-2.35-1.18,4.82,4.82,0,0,1-.76-2.68,4.45,4.45,0,0,1,.9-2.73,2.87,2.87,0,0,1,2.42-1.2h.2l.2,0a2.79,2.79,0,0,1,.83.3,1.61,1.61,0,0,1,.62.6,1.17,1.17,0,0,1,.34-.62,1,1,0,0,1,.67-.22.93.93,0,0,1,.73.31,1.16,1.16,0,0,1,.28.81Zm-2,2.76s0-.1,0-.15,0-.11,0-.17a2.61,2.61,0,0,0-.45-1.21,1.27,1.27,0,0,0-1.12-.55,1.25,1.25,0,0,0-1.07.53,2.47,2.47,0,0,0-.47,1.15,1.66,1.66,0,0,0,0,.18c0,.06,0,.12,0,.17a2.63,2.63,0,0,0,.39,1.43,1.43,1.43,0,0,0,2.34,0,2.55,2.55,0,0,0,.41-1.31v-.08Z" transform="translate(-840.76 -486.74)"/><path class="cls-3" d="M934.91,551.28v-4.65h-.45a.81.81,0,0,1-.64-.22.89.89,0,0,1-.23-.64.86.86,0,0,1,.25-.63.83.83,0,0,1,.62-.25h.45v-1.2a1.13,1.13,0,0,1,.29-.8,1,1,0,0,1,1.45,0,1.16,1.16,0,0,1,.28.81v1.19h.57a1.27,1.27,0,0,1,.68.21.94.94,0,0,1,0,1.35,1.16,1.16,0,0,1-.68.2h-.57v4.65a1.16,1.16,0,0,1-.28.82,1,1,0,0,1-1.45,0,1.12,1.12,0,0,1-.29-.8Z" transform="translate(-840.76 -486.74)"/><path class="cls-3" d="M938.91,551.28v-8.62a1.13,1.13,0,0,1,.29-.8,1,1,0,0,1,1.45,0,1.16,1.16,0,0,1,.28.81v2.73h0a1.61,1.61,0,0,1,.55-.42,2.54,2.54,0,0,1,.69-.21l.3,0h.29a2.82,2.82,0,0,1,2,.71,2.57,2.57,0,0,1,.78,2v3.85a1.15,1.15,0,0,1-.28.82,1,1,0,0,1-1.45,0,1.12,1.12,0,0,1-.29-.8v-3.53a1.31,1.31,0,0,0-.38-1,1.35,1.35,0,0,0-.93-.34,1.18,1.18,0,0,0-1,.4,1.48,1.48,0,0,0-.34,1v3.5a1.15,1.15,0,0,1-.28.82,1,1,0,0,1-1.45,0,1.12,1.12,0,0,1-.29-.8Z" transform="translate(-840.76 -486.74)"/><path class="cls-3" d="M948.67,549.26a1.52,1.52,0,0,0,.66,1.11,2.23,2.23,0,0,0,1.25.36,2,2,0,0,0,.72-.13,4.92,4.92,0,0,0,.61-.28l.52-.28a.94.94,0,0,1,.43-.13.76.76,0,0,1,.57.27.86.86,0,0,1,.25.6q0,.56-.83,1a5,5,0,0,1-1.82.62l-.33,0h-.31a3.6,3.6,0,0,1-2.74-1.1,3.86,3.86,0,0,1-1-2.76,4.08,4.08,0,0,1,1-2.72,3.46,3.46,0,0,1,5-.25,4.13,4.13,0,0,1,1.2,2c0,.11,0,.23,0,.34a2.74,2.74,0,0,1,0,.34,1,1,0,0,1-.21.67.88.88,0,0,1-.67.22Zm3.16-1.34a1.9,1.9,0,0,0-.5-1.08,1.6,1.6,0,0,0-2.21,0,1.8,1.8,0,0,0-.5,1.08Z" transform="translate(-840.76 -486.74)"/><path class="cls-3" d="M955.89,541.76a1.17,1.17,0,0,1,.79.34,1,1,0,0,1,.34.78,1.14,1.14,0,0,1-.33.82,1.09,1.09,0,0,1-1.6,0,1.12,1.12,0,0,1-.34-.81,1,1,0,0,1,.34-.77,1.1,1.1,0,0,1,.79-.34Zm-1,9.52v-5.39a1.12,1.12,0,0,1,.29-.8,1,1,0,0,1,1.45,0,1.16,1.16,0,0,1,.28.81v5.37a1.16,1.16,0,0,1-.28.82,1,1,0,0,1-1.45,0,1.12,1.12,0,0,1-.29-.81Z" transform="translate(-840.76 -486.74)"/><path class="cls-3" d="M958.34,551.28v-5.5a.88.88,0,0,1,.3-.71,1.15,1.15,0,0,1,.67-.28h.07a1.3,1.3,0,0,1,.69.18.71.71,0,0,1,.29.67h0A2.18,2.18,0,0,1,961,545a1.46,1.46,0,0,1,.8-.21,1,1,0,0,1,.67.27,1,1,0,0,1,.31.81.61.61,0,0,1-.21.51,2,2,0,0,1-.5.27l-.24.09-.25.11h0a5.48,5.48,0,0,0-.8.48,1,1,0,0,0-.37.86v3.08a1.16,1.16,0,0,1-.28.82,1,1,0,0,1-1.45,0,1.12,1.12,0,0,1-.29-.81Z" transform="translate(-840.76 -486.74)"/><path class="cls-3" d="M969.11,549.26a1.52,1.52,0,0,0,.66,1.11,2.23,2.23,0,0,0,1.25.36,2,2,0,0,0,.72-.13,4.92,4.92,0,0,0,.61-.28l.52-.28a.94.94,0,0,1,.43-.13.76.76,0,0,1,.57.27.86.86,0,0,1,.25.6q0,.56-.83,1a5,5,0,0,1-1.82.62l-.33,0h-.31a3.6,3.6,0,0,1-2.74-1.1,3.86,3.86,0,0,1-1-2.76,4.08,4.08,0,0,1,1-2.72,3.46,3.46,0,0,1,5-.25,4.13,4.13,0,0,1,1.2,2c0,.11,0,.23,0,.34a2.72,2.72,0,0,1,0,.34,1,1,0,0,1-.21.67.88.88,0,0,1-.67.22Zm3.16-1.34a1.9,1.9,0,0,0-.5-1.08,1.6,1.6,0,0,0-2.21,0,1.8,1.8,0,0,0-.5,1.08Z" transform="translate(-840.76 -486.74)"/><path class="cls-3" d="M975.35,551.28v-5.39a1.12,1.12,0,0,1,.29-.8.94.94,0,0,1,.72-.31,1,1,0,0,1,.63.2.85.85,0,0,1,.29.55,1.86,1.86,0,0,1,.76-.62,2.89,2.89,0,0,1,1.18-.21,2.82,2.82,0,0,1,2,.72,2.58,2.58,0,0,1,.78,2v3.86a1.16,1.16,0,0,1-.28.82,1,1,0,0,1-1.45,0,1.12,1.12,0,0,1-.29-.8v-3.53a1.31,1.31,0,0,0-.38-1,1.35,1.35,0,0,0-.93-.34,1.18,1.18,0,0,0-1,.4,1.48,1.48,0,0,0-.34,1v3.5a1.15,1.15,0,0,1-.28.82,1,1,0,0,1-1.45,0,1.12,1.12,0,0,1-.29-.81Z" transform="translate(-840.76 -486.74)"/><path class="cls-3" d="M984,551.28v-4.65h-.45a.8.8,0,0,1-.64-.22.88.88,0,0,1-.23-.64.87.87,0,0,1,.25-.63.83.83,0,0,1,.62-.25H984v-1.2a1.13,1.13,0,0,1,.29-.8,1,1,0,0,1,1.45,0,1.16,1.16,0,0,1,.28.81v1.19h.57a1.27,1.27,0,0,1,.68.21.94.94,0,0,1,0,1.35,1.16,1.16,0,0,1-.68.2H986v4.65a1.15,1.15,0,0,1-.28.82,1,1,0,0,1-1.45,0,1.12,1.12,0,0,1-.29-.8Z" transform="translate(-840.76 -486.74)"/><path class="cls-3" d="M989,541.76a1.17,1.17,0,0,1,.79.34,1,1,0,0,1,.34.78,1.14,1.14,0,0,1-.33.82,1.09,1.09,0,0,1-1.6,0,1.12,1.12,0,0,1-.34-.81,1,1,0,0,1,.34-.77,1.1,1.1,0,0,1,.79-.34Zm-1,9.52v-5.39a1.12,1.12,0,0,1,.29-.8,1,1,0,0,1,1.45,0,1.16,1.16,0,0,1,.28.81v5.37a1.16,1.16,0,0,1-.28.82,1,1,0,0,1-1.45,0,1.12,1.12,0,0,1-.29-.81Z" transform="translate(-840.76 -486.74)"/><path class="cls-3" d="M991.41,551.28v-5.5a.88.88,0,0,1,.3-.71,1.15,1.15,0,0,1,.66-.28h.07a1.3,1.3,0,0,1,.69.18.71.71,0,0,1,.29.67h0a2.18,2.18,0,0,1,.61-.62,1.46,1.46,0,0,1,.8-.21,1,1,0,0,1,.67.27,1,1,0,0,1,.31.81.6.6,0,0,1-.21.51,2,2,0,0,1-.5.27l-.24.09-.25.11h0a5.48,5.48,0,0,0-.8.48,1,1,0,0,0-.37.86v3.08a1.16,1.16,0,0,1-.28.82,1,1,0,0,1-1.45,0,1.12,1.12,0,0,1-.29-.81Z" transform="translate(-840.76 -486.74)"/><path class="cls-3" d="M998.07,549.26a1.52,1.52,0,0,0,.66,1.11,2.23,2.23,0,0,0,1.25.36,2,2,0,0,0,.72-.13,5,5,0,0,0,.61-.28l.52-.28a.94.94,0,0,1,.43-.13.76.76,0,0,1,.57.27.86.86,0,0,1,.25.6q0,.56-.83,1a5,5,0,0,1-1.82.62l-.33,0h-.32a3.6,3.6,0,0,1-2.74-1.1,3.86,3.86,0,0,1-1-2.76,4.08,4.08,0,0,1,1-2.72,3.46,3.46,0,0,1,5-.25,4.13,4.13,0,0,1,1.2,2c0,.11,0,.23,0,.34a2.92,2.92,0,0,1,0,.34.94.94,0,0,1-.21.67.88.88,0,0,1-.67.22Zm3.16-1.34a1.9,1.9,0,0,0-.5-1.08,1.6,1.6,0,0,0-2.21,0,1.8,1.8,0,0,0-.5,1.08Z" transform="translate(-840.76 -486.74)"/><path class="cls-3" d="M1008.42,545.89a1.12,1.12,0,0,1,.29-.8.94.94,0,0,1,.72-.31,1,1,0,0,1,.66.22,1.17,1.17,0,0,1,.34.62,1.72,1.72,0,0,1,.76-.67,2.72,2.72,0,0,1,1-.26h.14a2.7,2.7,0,0,1,2.38,1.19,4.88,4.88,0,0,1,.87,2.62v.2a4.21,4.21,0,0,1-.9,2.61,2.89,2.89,0,0,1-2.42,1.18H1012l-.27,0a3.25,3.25,0,0,1-.69-.22,2.62,2.62,0,0,1-.64-.41v2.45a1.16,1.16,0,0,1-.28.81,1,1,0,0,1-1.45,0,1.14,1.14,0,0,1-.29-.81Zm2,2.64c0,.07,0,.13,0,.18s0,.11,0,.17a2.59,2.59,0,0,0,.45,1.21,1.27,1.27,0,0,0,1.12.55,1.25,1.25,0,0,0,1.07-.52,2.48,2.48,0,0,0,.47-1.16c0-.06,0-.11,0-.17s0-.12,0-.17,0-.11,0-.18,0-.12,0-.17a2.53,2.53,0,0,0-.47-1.18,1.25,1.25,0,0,0-1.07-.53,1.3,1.3,0,0,0-1.17.59,2.55,2.55,0,0,0-.41,1.31v.08Z" transform="translate(-840.76 -486.74)"/><path class="cls-3" d="M1023.69,546.09v5.22a2.29,2.29,0,0,1,0,.24,1.29,1.29,0,0,1-.23.59.83.83,0,0,1-.72.27.84.84,0,0,1-.64-.22,1.47,1.47,0,0,1-.32-.62,2.69,2.69,0,0,1-.87.69,2.38,2.38,0,0,1-1,.23,3,3,0,0,1-2.37-1.09,4.05,4.05,0,0,1-1-2.78,4.11,4.11,0,0,1,1-2.79,3,3,0,0,1,2.36-1.12,2.61,2.61,0,0,1,1.07.23,2,2,0,0,1,.85.71.92.92,0,0,1,.32-.61,1,1,0,0,1,.64-.24.82.82,0,0,1,.72.27,1.35,1.35,0,0,1,.23.6,2.29,2.29,0,0,1,0,.24v.21Zm-5.17,2.52v.13a.66.66,0,0,0,0,.13,2.48,2.48,0,0,0,.44,1.22,1.3,1.3,0,0,0,1.14.56,1.25,1.25,0,0,0,1.11-.56,2.54,2.54,0,0,0,.43-1.22.73.73,0,0,0,0-.13v-.12s0-.1,0-.15,0-.11,0-.16a2.56,2.56,0,0,0-.45-1.2,1.25,1.25,0,0,0-1.09-.55,1.29,1.29,0,0,0-1.13.55,2.51,2.51,0,0,0-.46,1.2c0,.06,0,.11,0,.16s0,.1,0,.15Z" transform="translate(-840.76 -486.74)"/><path class="cls-3" d="M1025.16,551.28v-8.62a1.13,1.13,0,0,1,.29-.8,1,1,0,0,1,1.45,0,1.16,1.16,0,0,1,.28.81v8.61a1.15,1.15,0,0,1-.28.82,1,1,0,0,1-1.45,0,1.12,1.12,0,0,1-.29-.8Z" transform="translate(-840.76 -486.74)"/><path class="cls-3" d="M1028.65,551.28v-5.39a1.12,1.12,0,0,1,.29-.8.94.94,0,0,1,.72-.31,1,1,0,0,1,.63.2.86.86,0,0,1,.29.56,2.54,2.54,0,0,1,.84-.62,2.46,2.46,0,0,1,1-.22,2.56,2.56,0,0,1,2.09,1,3.22,3.22,0,0,1,.6-.52,3.17,3.17,0,0,1,.69-.35l.43-.11a2.12,2.12,0,0,1,.41,0,2.85,2.85,0,0,1,2,.69,2.6,2.6,0,0,1,.76,2v3.86a1.16,1.16,0,0,1-.28.82,1,1,0,0,1-1.45,0,1.12,1.12,0,0,1-.29-.8v-3.53a1.51,1.51,0,0,0-.31-1,1.06,1.06,0,0,0-.86-.38,1.07,1.07,0,0,0-.87.38,1.53,1.53,0,0,0-.31,1v3.5a1.16,1.16,0,0,1-.28.82,1,1,0,0,1-1.45,0,1.12,1.12,0,0,1-.29-.8v-3.53a1.51,1.51,0,0,0-.31-1,1.2,1.2,0,0,0-1.76,0,1.63,1.63,0,0,0-.29,1v3.5a1.15,1.15,0,0,1-.28.82,1,1,0,0,1-1.45,0,1.12,1.12,0,0,1-.29-.81Z" transform="translate(-840.76 -486.74)"/><path class="cls-3" d="M1041.27,547.23a1.7,1.7,0,0,1-.59-1.34,1.47,1.47,0,0,1,.25-.85,1.75,1.75,0,0,1,.63-.56,1.66,1.66,0,0,1-.45-.5,1.3,1.3,0,0,1-.17-.67,1.4,1.4,0,0,1,.52-1.14,1.9,1.9,0,0,1,1.25-.42,1.94,1.94,0,0,1,1.24.42,1.38,1.38,0,0,1,.53,1.15,1.42,1.42,0,0,1-.16.66,1.25,1.25,0,0,1-.46.51,1.51,1.51,0,0,1,.87,1.41,1.68,1.68,0,0,1-.6,1.35,2.14,2.14,0,0,1-1.42.5A2.08,2.08,0,0,1,1041.27,547.23Zm.88-2a.88.88,0,0,0-.2.58.94.94,0,0,0,.18.56.73.73,0,0,0,1.11,0,.91.91,0,0,0,.2-.57.84.84,0,0,0-.2-.6.7.7,0,0,0-.54-.22A.69.69,0,0,0,1042.15,545.24Zm.11-2.23a.66.66,0,0,0-.15.44.64.64,0,0,0,.16.45.55.55,0,0,0,.43.17.56.56,0,0,0,.44-.17.64.64,0,0,0,.16-.45.66.66,0,0,0-.16-.45.55.55,0,0,0-.44-.18A.56.56,0,0,0,1042.26,543Z" transform="translate(-840.76 -486.74)"/><path class="cls-3" d="M1046.87,547.25l-.69,1.22a.41.41,0,0,1-.11.14l-.14.09-.11,0h-.1a.53.53,0,0,1-.38-.16.51.51,0,0,1-.13-.54l.06-.16.68-1.22a.4.4,0,0,1,.11-.13l.14-.09.12,0h.1a.56.56,0,0,1,.39.16.5.5,0,0,1,.17.38.41.41,0,0,1,0,.15l-.06.14v0Z" transform="translate(-840.76 -486.74)"/><path class="cls-3" d="M1048.87,547.07V543h-.48a.48.48,0,0,1-.42-.16.63.63,0,0,1-.14-.37h0a.59.59,0,0,1,.15-.39.51.51,0,0,1,.41-.17h1.16a.53.53,0,0,1,.4.18.61.61,0,0,1,.14.41v4.64a.63.63,0,0,1-1,.47.6.6,0,0,1-.18-.46Z" transform="translate(-840.76 -486.74)"/><path class="cls-3" d="M1054.54,546.58a.83.83,0,0,1,.45.13.46.46,0,0,1,.18.41.47.47,0,0,1-.17.4.69.69,0,0,1-.41.13h-2.73a.78.78,0,0,1-.45-.13.46.46,0,0,1-.18-.4.43.43,0,0,1,0-.2l.09-.16,0,0,0,0,.32-.37.33-.36,0,0,0,0,.69-.8q.34-.4.65-.85a2.18,2.18,0,0,0,.2-.35,1,1,0,0,0,.09-.41.64.64,0,0,0-.17-.44.54.54,0,0,0-.42-.19.53.53,0,0,0-.49.21,1.76,1.76,0,0,0-.21.45v0a.08.08,0,0,0,0,0,2,2,0,0,1-.18.42.4.4,0,0,1-.38.18.55.55,0,0,1-.44-.18.63.63,0,0,1-.15-.42,1.72,1.72,0,0,1,.58-1.31,1.91,1.91,0,0,1,1.33-.54,1.89,1.89,0,0,1,1.28.46,1.56,1.56,0,0,1,.53,1.24,2.08,2.08,0,0,1-.38,1.16,10.55,10.55,0,0,1-.82,1.09l-.4.46-.36.42Z" transform="translate(-840.76 -486.74)"/><circle class="cls-4" cx="39.97" cy="52.69" r="38.77"/><circle class="cls-5" cx="39.97" cy="52.69" r="38.77"/><g class="cls-6"><path class="cls-7" d="M893,522c-5.13-.22-15.68,1.46-22.15,6.88-8.58,7.19-9.11,13.57-9.07,15.35.08,3.59,3.62,5.49,5,6.21l.27.15a2.51,2.51,0,0,0,.79.24v0l0,.1a5.47,5.47,0,0,0,1.56,2.18,2.57,2.57,0,0,0,.77.5.38.38,0,0,0,0,.11l.05.14a5.67,5.67,0,0,0,1.32,2.24,2.84,2.84,0,0,0,2.1.71h.16l6.42,7.34a.38.38,0,0,0,.28.13.37.37,0,0,0,.17,0l13.51-6.8a.38.38,0,0,0,.21-.33v-11a18.67,18.67,0,0,0,5.16-3.54,22.47,22.47,0,0,0,3.09,5.77,28.5,28.5,0,0,0,4.86,5.21.37.37,0,0,0,.23.08l.43-29.47A82.39,82.39,0,0,0,893,522" transform="translate(-840.76 -486.74)"/><polygon class="cls-8" points="33.55 70 39.76 77.31 53.17 70.39 53.22 56.98 51.89 55.48 49.18 56.48 45.3 56.7 40.98 56.26 38.7 57.31 35.88 59.64 34.22 60.41 33.55 60.52 33.88 61.74 33.99 63.02 35.1 64.24 35.27 65.79 34.88 66.29 35.99 67.34 36.21 68.94 35.33 69.67 33.55 70"/><path class="cls-9" d="M873.08,541.06a4.33,4.33,0,0,1,2.68,1.43c1,1.26-1,2.35-1,2.35a2.63,2.63,0,0,1-2.68-.25,3.46,3.46,0,0,1-.75-.75" transform="translate(-840.76 -486.74)"/><path class="cls-9" d="M870,542.44a5.16,5.16,0,0,0-3.9-1.38" transform="translate(-840.76 -486.74)"/><path class="cls-9" d="M874.13,538.58a10.93,10.93,0,0,0-.29-5.29" transform="translate(-840.76 -486.74)"/><polyline class="cls-10" points="35.13 60.44 38.73 63.97 53.25 56.71 51.95 55.58"/><line class="cls-8" x1="38.73" y1="64.07" x2="39.66" y2="76.93"/><line class="cls-10" x1="38.73" y1="64.07" x2="39.66" y2="76.93"/><path class="cls-9" d="M899.84,541.81a21.49,21.49,0,0,1-5.3,4.06" transform="translate(-840.76 -486.74)"/><path class="cls-9" d="M873.88,547.31a2.66,2.66,0,0,1,.71,1.8c.08,1.26-.88,1.26-1.64,1.3s-4.82.38-5.79-.17-4.95-2.39-5-6,2.18-9.39,8.93-15.06,17.52-7,21.9-6.8a81.21,81.21,0,0,1,15.1,2.22" transform="translate(-840.76 -486.74)"/><path class="cls-9" d="M871.11,550.41s.42-.8-1-2.35c1.64,0,2.22,0,2.68.34,1,.63.88,1,1.13,1.89" transform="translate(-840.76 -486.74)"/><path class="cls-9" d="M873.06,553.14s.32-.61-.77-1.8c1.26,0,1.71,0,2.06.26.77.48.68.81.87,1.45" transform="translate(-840.76 -486.74)"/><path class="cls-9" d="M874,556.07s.32-.61-.77-1.8c1.26,0,1.71,0,2.06.26.77.48.68.81.87,1.45" transform="translate(-840.76 -486.74)"/><path class="cls-9" d="M874.67,549.66a2.57,2.57,0,0,1,1.26,2c.13,1.38-.55,1.59-1.64,1.72s-3.48.63-4.66-.5a5.05,5.05,0,0,1-1.51-2.14" transform="translate(-840.76 -486.74)"/><path class="cls-11" d="M907.73,553.31s-9.9-7.8-8.64-17.7a11.3,11.3,0,0,1-8.22,7.3" transform="translate(-840.76 -486.74)"/><path class="cls-9" d="M875,547.1a4.13,4.13,0,0,1-4.61-1.17c-1.09-1.26-1-3,.42-4.78s5.62-3.1,7-6a13.51,13.51,0,0,0,1.85-6.12" transform="translate(-840.76 -486.74)"/><path class="cls-9" d="M884.32,541.81a27.2,27.2,0,0,0-4.19,1.76" transform="translate(-840.76 -486.74)"/><path class="cls-11" d="M890.87,542.9c-2.77.75-9.06.17-9.06.17" transform="translate(-840.76 -486.74)"/><path class="cls-9" d="M880.13,543.57c-1.17.75-3.44,2.85-5.12,3.52" transform="translate(-840.76 -486.74)"/><polyline class="cls-10" points="53.25 56.71 53.25 70.39 39.74 77.18 33.32 69.84"/><path class="cls-9" d="M875.72,553.22a2.12,2.12,0,0,1,1,1.63c.1,1.14-.42,1.32-1.27,1.42s-2.7.52-3.61-.41a5.55,5.55,0,0,1-1.29-2.25" transform="translate(-840.76 -486.74)"/></g><g class="cls-12"><circle class="cls-13" cx="39.97" cy="52.69" r="38.77"/></g></svg>