<svg xmlns="http://www.w3.org/2000/svg" xmlns:xlink="http://www.w3.org/1999/xlink" viewBox="0 0 457.84 137.51"><defs><style>.cls-1{fill:none;}.cls-2{isolation:isolate;}.cls-3,.cls-5{fill:#fbeda3;}.cls-3{fill-rule:evenodd;}.cls-4{fill:#ce895a;}.cls-6{fill:#7bc8be;}.cls-7{fill:#855838;}.cls-8{mix-blend-mode:multiply;}.cls-9{clip-path:url(#clip-path);}.cls-10{fill:#d2d6d5;}.cls-11{clip-path:url(#clip-path-2);}.cls-12{fill:#6eb4ab;}.cls-13{fill:#f8cdb2;}.cls-14{opacity:0.5;}.cls-15{clip-path:url(#clip-path-3);}.cls-16{fill:#dd8760;}.cls-17{fill:#e59a36;}.cls-18{fill:#8e6327;}.cls-19{fill:#b0754c;}.cls-20{clip-path:url(#clip-path-4);}</style><clipPath id="clip-path"><rect class="cls-1" x="389.83" y="110.08" width="59.65" height="5.66"/></clipPath><clipPath id="clip-path-2"><rect class="cls-1" x="443.13" y="49.92" width="9.63" height="59.67"/></clipPath><clipPath id="clip-path-3"><rect class="cls-1" x="401.89" y="38.21" width="30.4" height="18.74"/></clipPath><clipPath id="clip-path-4"><rect class="cls-1" x="385.95" y="78.42" width="59.65" height="3.4"/></clipPath></defs><g class="cls-2"><g id="Layer_2" data-name="Layer 2"><g id="Layer_1-2" data-name="Layer 1"><path class="cls-3" d="M310,94.39l4.47.07H318l16.56.13,29.43.14,3-.07,6.05-.3,5.66-.52c4.94-.78,9.74-1.4,13.5-3.16A12.25,12.25,0,0,0,396,88.45c3-3.17,3-9.17,4-14,.52-2.49.41-5.2.89-7.79a12.87,12.87,0,0,0,0-4.11c-.28-1.53,0-3.06-.27-4.47-.1-.93-.21-1.87-.31-2.8a33.06,33.06,0,0,0-1.74-6.57c-1.08-2.36-2.31-3.32-4-5.07A20.14,20.14,0,0,0,385,37.75c-5.54-1.47-13.63-1-20.83-1l-7.17,0-8-.1-16.17-.1-11.51.1-5.42.09c-9.7,0-19.84,0-29.43,0l-20.43,0-22.87-.1-46.06-.1-32.81.1-16.46.1L121,36.93l-9.5.1-26.07.53L69.6,38c-13.72.7-27.43.93-39.44,2-6.5.57-14.31,1.15-17.57,2.69-7.23,3.43-8.3,8.23-11,13-.33,1.35-.67,2.7-1,4S.19,62.43,0,63.79v2.7q.45,2.94.88,5.88.84,2.25,1.66,4.5l3.31,4.67c2.25,3,2.5,6.23,8.73,8.06l5.08,1.05C22.94,91.3,27,92,31,92.36c9.87.93,21.27.87,32.48,1.41l15.91.3,16.46.13,48.93.26H155l47.17.13,83.84.14,8.51-.07L310,94.39"/><path class="cls-4" d="M37.12,49.05c.45,0,1,.08,1.63.15a17.33,17.33,0,0,1,2,.35,10.79,10.79,0,0,1,3.14,1.3,2.72,2.72,0,0,1,1.42,2.42,3.38,3.38,0,0,1-.75,2.16,2.52,2.52,0,0,1-2,.94c-.2,0-.4,0-.61,0a4.13,4.13,0,0,1-.61-.13c-.19-.08-.39-.16-.6-.23l-.65-.23a14.32,14.32,0,0,0-1.4-.44A7.09,7.09,0,0,0,37,55.11a4.24,4.24,0,0,0-2.39.69,2.29,2.29,0,0,0-1,2,1.85,1.85,0,0,0,1.09,1.69,12.53,12.53,0,0,0,2.71,1.07c.5.17,1,.33,1.55.48l1.63.48a15.46,15.46,0,0,1,4.81,2.74q2.18,1.81,2.17,5.87a8.65,8.65,0,0,1-3.17,7.07,11.54,11.54,0,0,1-7.53,2.59c-.56,0-1.21,0-2-.08s-1.52-.15-2.29-.29a13.4,13.4,0,0,1-4.06-1.36,3.25,3.25,0,0,1-1.09-5,2.58,2.58,0,0,1,2.05-.88,5.39,5.39,0,0,1,1.55.25l1.67.55a17.18,17.18,0,0,0,1.84.58,7.66,7.66,0,0,0,2,.25,4.46,4.46,0,0,0,3.17-1,3.36,3.36,0,0,0,1.09-2.57,2.24,2.24,0,0,0-1.34-2.11,18.15,18.15,0,0,0-3.26-1.24L35,66.57c-.39-.11-.79-.24-1.21-.38a15.79,15.79,0,0,1-4.81-2.38q-2.17-1.59-2.17-5.23a8.53,8.53,0,0,1,3.09-6.94,11.08,11.08,0,0,1,7.27-2.55Z"/><path class="cls-4" d="M50,71V60.14a3.37,3.37,0,0,1,.86-2.39A2.83,2.83,0,0,1,53,56.83a2.8,2.8,0,0,1,2.17.92A3.47,3.47,0,0,1,56,60.18V70.91a3.63,3.63,0,0,0,1.19,2.93,4.11,4.11,0,0,0,5.4,0A3.58,3.58,0,0,0,63.8,71V60.14a3.36,3.36,0,0,1,.85-2.39,2.85,2.85,0,0,1,2.16-.92,2.81,2.81,0,0,1,2.17.92,3.45,3.45,0,0,1,.84,2.43V71a8.32,8.32,0,0,1-2.57,6.43c-1.72,1.57-4.16,2.36-7.34,2.36s-5.62-.79-7.34-2.36A8.28,8.28,0,0,1,50,71.07Z"/><path class="cls-4" d="M73.25,60.14a3.36,3.36,0,0,1,.85-2.39,3.15,3.15,0,0,1,4.14-.27,3.51,3.51,0,0,1,1,1.86,5.14,5.14,0,0,1,2.25-2,8,8,0,0,1,3.06-.77H85a8.05,8.05,0,0,1,7.11,3.54,14.51,14.51,0,0,1,2.59,7.81v.58A12.62,12.62,0,0,1,92,76.31a8.63,8.63,0,0,1-7.23,3.51,6.34,6.34,0,0,1-.76,0l-.79-.12A10,10,0,0,1,81.17,79a7.69,7.69,0,0,1-1.9-1.22v7.32a3.49,3.49,0,0,1-.84,2.43,3,3,0,0,1-4.33,0,3.45,3.45,0,0,1-.85-2.43Zm6,7.89a4.79,4.79,0,0,0,0,.55c0,.16,0,.33,0,.5a7.68,7.68,0,0,0,1.34,3.61,4.12,4.12,0,0,0,6.54.09,7.44,7.44,0,0,0,1.4-3.45,4.35,4.35,0,0,0,.06-.52,4.78,4.78,0,0,0,0-.53,4.7,4.7,0,0,0,0-.52,4.35,4.35,0,0,0-.06-.52,7.57,7.57,0,0,0-1.4-3.51A3.73,3.73,0,0,0,84,62.14a3.88,3.88,0,0,0-3.49,1.77,7.55,7.55,0,0,0-1.23,3.91V68Z"/><path class="cls-4" d="M97.24,60.14a3.37,3.37,0,0,1,.86-2.39,3.15,3.15,0,0,1,4.14-.27,3.51,3.51,0,0,1,1,1.86,5.08,5.08,0,0,1,2.25-2,8,8,0,0,1,3-.77H109a8.08,8.08,0,0,1,7.11,3.54,14.51,14.51,0,0,1,2.59,7.81v.58a12.62,12.62,0,0,1-2.67,7.8,8.64,8.64,0,0,1-7.24,3.51,6.28,6.28,0,0,1-.75,0l-.79-.12a10,10,0,0,1-2.07-.67,7.51,7.51,0,0,1-1.9-1.22v7.32a3.49,3.49,0,0,1-.84,2.43,3,3,0,0,1-4.33,0,3.45,3.45,0,0,1-.86-2.43Zm6,7.89a4.79,4.79,0,0,0,0,.55c0,.16,0,.33,0,.5a7.77,7.77,0,0,0,1.33,3.61,4.13,4.13,0,0,0,6.55.09,7.55,7.55,0,0,0,1.4-3.45,4.35,4.35,0,0,0,.06-.52c0-.18,0-.36,0-.53s0-.34,0-.52a4.35,4.35,0,0,0-.06-.52,7.68,7.68,0,0,0-1.4-3.51,3.74,3.74,0,0,0-3.2-1.59,3.87,3.87,0,0,0-3.49,1.77,7.55,7.55,0,0,0-1.23,3.91V68Z"/><path class="cls-4" d="M131.15,56.58a9.86,9.86,0,0,1,7.78,3.57,12.22,12.22,0,0,1,3,8.13,12,12,0,0,1-3,8.11,10.63,10.63,0,0,1-15.64,0,12,12,0,0,1-3-8.11,12.22,12.22,0,0,1,3-8.13,9.77,9.77,0,0,1,7.78-3.53Zm-3.36,7.19a7.45,7.45,0,0,0-1.36,3.59c0,.17,0,.33,0,.48a3.49,3.49,0,0,0,0,.44v.36a2,2,0,0,0,.05.4,7.44,7.44,0,0,0,1.31,3.63,4.3,4.3,0,0,0,6.82,0A7.66,7.66,0,0,0,135.88,69a2.85,2.85,0,0,0,0-.4v-.36c0-.14,0-.28,0-.44a3.7,3.7,0,0,1,0-.48,7.63,7.63,0,0,0-1.36-3.61,3.86,3.86,0,0,0-3.37-1.63A3.91,3.91,0,0,0,127.79,63.77Z"/><path class="cls-4" d="M144.4,76.22V59.8a2.62,2.62,0,0,1,.9-2.13,3.37,3.37,0,0,1,2-.84h.21a3.88,3.88,0,0,1,2.07.52,2.15,2.15,0,0,1,.86,2l.08-.05a6.64,6.64,0,0,1,1.82-1.84,4.41,4.41,0,0,1,2.4-.62,3,3,0,0,1,2,.79,3.05,3.05,0,0,1,.92,2.43,1.8,1.8,0,0,1-.63,1.53,5.94,5.94,0,0,1-1.5.82l-.71.27-.76.31a.06.06,0,0,0-.06,0l-.06,0a16.25,16.25,0,0,0-2.41,1.42,2.92,2.92,0,0,0-1.1,2.56v9.21a3.45,3.45,0,0,1-.84,2.45,3.05,3.05,0,0,1-4.33,0,3.35,3.35,0,0,1-.86-2.41Z"/><path class="cls-4" d="M159.87,76.23V62.35h-1.33a2.46,2.46,0,0,1-1.91-.67,2.67,2.67,0,0,1-.69-1.93,2.59,2.59,0,0,1,.74-1.88,2.46,2.46,0,0,1,1.86-.75l1.33,0v-3.6a3.36,3.36,0,0,1,.86-2.38,3,3,0,0,1,4.33,0,3.48,3.48,0,0,1,.83,2.42v3.56h1.72a3.8,3.8,0,0,1,2,.62,2.28,2.28,0,0,1,.85,2,2.31,2.31,0,0,1-.85,2,3.47,3.47,0,0,1-2,.6h-1.72V76.23a3.47,3.47,0,0,1-.83,2.44,3.05,3.05,0,0,1-4.33,0,3.34,3.34,0,0,1-.86-2.4Z"/><path class="cls-4" d="M175.63,70.21a4.55,4.55,0,0,0,2,3.32,6.67,6.67,0,0,0,3.72,1.07,6,6,0,0,0,2.15-.38,13.33,13.33,0,0,0,1.82-.84l1.55-.83a2.83,2.83,0,0,1,1.3-.38,2.25,2.25,0,0,1,1.71.82,2.56,2.56,0,0,1,.75,1.77c0,1.12-.82,2.15-2.46,3.1a15,15,0,0,1-5.44,1.84l-1,.08c-.32,0-.64,0-.94,0a10.75,10.75,0,0,1-8.18-3.28,11.55,11.55,0,0,1-3.11-8.26,12.17,12.17,0,0,1,3-8.13,9.77,9.77,0,0,1,7.78-3.53,9.64,9.64,0,0,1,7,2.77,12.41,12.41,0,0,1,3.58,6.11c0,.33.1.67.14,1a9,9,0,0,1,.06,1,2.8,2.8,0,0,1-.62,2,2.67,2.67,0,0,1-2,.67Zm9.45-4A5.66,5.66,0,0,0,183.6,63a4.32,4.32,0,0,0-3.32-1.31A4.38,4.38,0,0,0,177,63a5.39,5.39,0,0,0-1.48,3.23Z"/><path class="cls-4" d="M213.81,50.47V76.23a3.43,3.43,0,0,1-.84,2.44,2.83,2.83,0,0,1-2.17.9,2.86,2.86,0,0,1-2-.65,3.39,3.39,0,0,1-1-1.82A4.65,4.65,0,0,1,206,78.86a8.78,8.78,0,0,1-2.47.88,6,6,0,0,1-.61.06c-.21,0-.41,0-.6,0A8.64,8.64,0,0,1,195,76.31a12.54,12.54,0,0,1-2.67-7.78V68a14.51,14.51,0,0,1,2.59-7.8,8.09,8.09,0,0,1,7.11-3.53,9.13,9.13,0,0,1,3.07.52,7.87,7.87,0,0,1,2.66,1.57V50.47a3.35,3.35,0,0,1,.85-2.38,3,3,0,0,1,4.33,0,3.44,3.44,0,0,1,.84,2.42Zm-6,17.56v-.21a7.65,7.65,0,0,0-1.24-3.91,3.87,3.87,0,0,0-3.49-1.77,3.74,3.74,0,0,0-3.2,1.59,7.68,7.68,0,0,0-1.4,3.51,4.35,4.35,0,0,0-.06.52c0,.18,0,.36,0,.52s0,.35,0,.53a4.35,4.35,0,0,0,.06.52,7.55,7.55,0,0,0,1.4,3.45,4.13,4.13,0,0,0,6.55-.09,7.77,7.77,0,0,0,1.33-3.61c0-.17,0-.34,0-.5a4.36,4.36,0,0,0,0-.51Z"/><path class="cls-4" d="M243.57,60.93a2.87,2.87,0,0,1-.69,1.9,2.22,2.22,0,0,1-1.77.81,2.79,2.79,0,0,1-1.05-.27l-1.34-.6-.83-.36a5.7,5.7,0,0,0-.84-.31c-.22-.06-.44-.11-.67-.15a3.71,3.71,0,0,0-.67-.06,2.63,2.63,0,0,0-1.42.39,1.4,1.4,0,0,0-.63,1.28,1.34,1.34,0,0,0,.67,1.09,9.31,9.31,0,0,0,1.68.87l1.4.53c.48.18,1,.38,1.48.6a14.43,14.43,0,0,1,3.6,2.2,4.86,4.86,0,0,1,1.63,4,6.34,6.34,0,0,1-2.34,5,9.3,9.3,0,0,1-6.23,2,12.28,12.28,0,0,1-1.32-.08,12.51,12.51,0,0,1-1.36-.25,12,12,0,0,1-4-1.59,3.19,3.19,0,0,1-1.78-2.68,2.05,2.05,0,0,1,.07-.5,1.42,1.42,0,0,1,.23-.54,3.21,3.21,0,0,1,.87-1.13,2.14,2.14,0,0,1,1.42-.5,3.69,3.69,0,0,1,1.34.23,7,7,0,0,1,1.13.56,1,1,0,0,1,.23.11l.23.1a9,9,0,0,0,1.46.73,5,5,0,0,0,1.84.32,3,3,0,0,0,1.89-.44,1.63,1.63,0,0,0,.5-1.28,1.26,1.26,0,0,0-.65-1.06,8.93,8.93,0,0,0-1.65-.86l-1.4-.54-1.53-.59a14,14,0,0,1-3.59-2.22,4.9,4.9,0,0,1-1.64-4,6.35,6.35,0,0,1,2.3-5.08,8.81,8.81,0,0,1,5.86-1.94c.39,0,.79,0,1.21.06a9.13,9.13,0,0,1,1.3.23,9.84,9.84,0,0,1,3.45,1.4A3.08,3.08,0,0,1,243.57,61Z"/><path class="cls-4" d="M249.18,47.8a3.47,3.47,0,0,1,2.36,1,3.13,3.13,0,0,1,1,2.32,3.45,3.45,0,0,1-1,2.45,3.28,3.28,0,0,1-4.77,0,3.38,3.38,0,0,1-1-2.43,3.15,3.15,0,0,1,1-2.3,3.29,3.29,0,0,1,2.37-1Zm-3,28.42V60.14a3.36,3.36,0,0,1,.85-2.39,3,3,0,0,1,4.33,0,3.45,3.45,0,0,1,.84,2.43v16a3.45,3.45,0,0,1-.84,2.45,3.05,3.05,0,0,1-4.33,0,3.35,3.35,0,0,1-.85-2.41Z"/><path class="cls-4" d="M257,76.23V62.35h-1.33a2.46,2.46,0,0,1-1.91-.67,2.67,2.67,0,0,1-.69-1.93,2.59,2.59,0,0,1,.74-1.88,2.46,2.46,0,0,1,1.86-.75l1.33,0v-3.6a3.36,3.36,0,0,1,.86-2.38,3,3,0,0,1,4.33,0,3.44,3.44,0,0,1,.83,2.42v3.56h1.72a3.8,3.8,0,0,1,2,.62,2.28,2.28,0,0,1,.85,2,2.31,2.31,0,0,1-.85,2,3.47,3.47,0,0,1-2,.6H263V76.23a3.42,3.42,0,0,1-.83,2.44,3.05,3.05,0,0,1-4.33,0,3.34,3.34,0,0,1-.86-2.4Z"/><path class="cls-4" d="M269.37,76.23V62.35H268a2.44,2.44,0,0,1-1.9-.67,2.67,2.67,0,0,1-.69-1.93,2.58,2.58,0,0,1,.73-1.88,2.49,2.49,0,0,1,1.86-.75l1.34,0v-3.6a3.32,3.32,0,0,1,.86-2.38,3,3,0,0,1,4.32,0,3.44,3.44,0,0,1,.84,2.42v3.56h1.71a3.77,3.77,0,0,1,2,.62,2.29,2.29,0,0,1,.86,2,2.32,2.32,0,0,1-.86,2,3.45,3.45,0,0,1-2,.6h-1.71V76.23a3.43,3.43,0,0,1-.84,2.44,3,3,0,0,1-4.32,0,3.3,3.3,0,0,1-.86-2.4Z"/><path class="cls-4" d="M285.13,70.21a4.52,4.52,0,0,0,2,3.32,6.62,6.62,0,0,0,3.72,1.07,6,6,0,0,0,2.15-.38,14.54,14.54,0,0,0,1.82-.84l1.54-.83a2.87,2.87,0,0,1,1.3-.38,2.29,2.29,0,0,1,1.72.82,2.56,2.56,0,0,1,.75,1.77c0,1.12-.82,2.15-2.47,3.1a14.93,14.93,0,0,1-5.43,1.84l-1,.08c-.32,0-.63,0-.94,0a10.74,10.74,0,0,1-8.17-3.28A11.51,11.51,0,0,1,279,68.28a12.22,12.22,0,0,1,3-8.13,9.77,9.77,0,0,1,7.78-3.53,9.66,9.66,0,0,1,7.05,2.77,12.31,12.31,0,0,1,3.57,6.11c.06.33.1.67.15,1a9,9,0,0,1,.06,1,2.81,2.81,0,0,1-.63,2,2.65,2.65,0,0,1-2,.67Zm9.45-4A5.67,5.67,0,0,0,293.09,63a4.8,4.8,0,0,0-6.6,0A5.4,5.4,0,0,0,285,66.19Z"/><path class="cls-4" d="M302.65,76.22V59.8a2.62,2.62,0,0,1,.9-2.13,3.36,3.36,0,0,1,2-.84h.21a3.88,3.88,0,0,1,2.07.52,2.15,2.15,0,0,1,.86,2l.08-.05a6.78,6.78,0,0,1,1.82-1.84,4.46,4.46,0,0,1,2.4-.62,3,3,0,0,1,2,.79,3.05,3.05,0,0,1,.92,2.43,1.8,1.8,0,0,1-.63,1.53,5.77,5.77,0,0,1-1.5.82l-.71.27-.75.31a.09.09,0,0,0-.07,0l-.06,0a16.14,16.14,0,0,0-2.4,1.42A2.93,2.93,0,0,0,308.67,67v9.21a3.45,3.45,0,0,1-.84,2.45,2.83,2.83,0,0,1-2.17.9,2.87,2.87,0,0,1-2.16-.9,3.35,3.35,0,0,1-.85-2.41Z"/><path class="cls-4" d="M331.79,60.93a2.87,2.87,0,0,1-.69,1.9,2.23,2.23,0,0,1-1.78.81,2.71,2.71,0,0,1-1-.27l-1.34-.6-.84-.36a6,6,0,0,0-.83-.31L324.6,62a3.88,3.88,0,0,0-.67-.06,2.61,2.61,0,0,0-1.42.39,1.4,1.4,0,0,0-.63,1.28,1.31,1.31,0,0,0,.67,1.09,8.87,8.87,0,0,0,1.67.87l1.4.53c.49.18,1,.38,1.49.6a14.37,14.37,0,0,1,3.59,2.2,4.83,4.83,0,0,1,1.63,4,6.34,6.34,0,0,1-2.34,5,9.29,9.29,0,0,1-6.23,2,12.28,12.28,0,0,1-1.32-.08,12.51,12.51,0,0,1-1.36-.25,12.14,12.14,0,0,1-3.95-1.59,3.2,3.2,0,0,1-1.77-2.68,2.58,2.58,0,0,1,.06-.5,1.6,1.6,0,0,1,.23-.54,3.25,3.25,0,0,1,.88-1.13,2.12,2.12,0,0,1,1.42-.5,3.73,3.73,0,0,1,1.34.23,7.42,7.42,0,0,1,1.13.56,1,1,0,0,1,.23.11l.23.1a8.65,8.65,0,0,0,1.46.73,5,5,0,0,0,1.84.32,3,3,0,0,0,1.88-.44,1.6,1.6,0,0,0,.5-1.28,1.24,1.24,0,0,0-.65-1.06,8.93,8.93,0,0,0-1.65-.86c-.42-.17-.88-.35-1.4-.54l-1.52-.59a14.21,14.21,0,0,1-3.6-2.22,4.9,4.9,0,0,1-1.63-4,6.35,6.35,0,0,1,2.3-5.08,8.77,8.77,0,0,1,5.85-1.94c.39,0,.8,0,1.22.06a9.25,9.25,0,0,1,1.29.23,9.69,9.69,0,0,1,3.45,1.4A3.07,3.07,0,0,1,331.79,61Z"/><circle class="cls-5" cx="403.03" cy="68.75" r="54.8"/><path class="cls-6" d="M391.22,119.07c2.71,5.64-4,7.81-9.23,9.28a27.59,27.59,0,0,1-5.9,1.12l-.82.09a2.71,2.71,0,0,1-.92.44c-1.08.29-2.17-.06-2.42-.77a1.16,1.16,0,0,1,0-.18,1.71,1.71,0,0,1-1.81-.86c-.12-.34-1.08-1.37-1.25-1.87-.11-.29-1-1.25-1.21-1.71s-.59-2.26-.77-2.93c-.25-1,.76-2,2.28-2.29a3.85,3.85,0,0,1,2,.13,30,30,0,0,1,6.67-1.36c5.54-.62,12.13-1.85,13.46.91"/><path class="cls-7" d="M446.12,115.74H393.2a3.38,3.38,0,0,1-3.37-3.36V97a3.38,3.38,0,0,1,3.37-3.36h52.92A3.37,3.37,0,0,1,449.48,97v15.43a3.37,3.37,0,0,1-3.36,3.36"/><g class="cls-8"><g class="cls-9"><path class="cls-10" d="M446.12,113.45H393.19a3.37,3.37,0,0,1-3.36-3.37v2.3a3.37,3.37,0,0,0,3.36,3.36h52.93a3.37,3.37,0,0,0,3.36-3.36v-2.3a3.37,3.37,0,0,1-3.36,3.37"/></g></g><path class="cls-7" d="M452.8,52.87,449,107.26a2.56,2.56,0,0,1-2.73,2.37l-11.84-.83a2.56,2.56,0,0,1-2.37-2.74l3.72-52.64a4.35,4.35,0,0,1,4.61-4l10.09.72a2.56,2.56,0,0,1,2.37,2.73"/><g class="cls-8"><g class="cls-11"><path class="cls-10" d="M450.46,53.5l-3.74,52.81a3.37,3.37,0,0,1-3.59,3.11l2.28.16a3.38,3.38,0,0,0,3.6-3.11l3.74-52.8a3.37,3.37,0,0,0-3.13-3.59l-2.28-.16a3.36,3.36,0,0,1,3.12,3.58"/></g></g><path class="cls-6" d="M385.91,123.77c-2.86-.33-3.53-2.26-4.69-4.66-4.31-8.84-4.17-17.8-2.75-21.78,2-5.56,5.32-4,7.89-3.51,4.4.92,5.94,12.8,5,21s-3.9,9.09-5.41,8.92"/><path class="cls-6" d="M408,104.77c-9.57,3.29-28.56,3.62-29.95-2.87-1.61-7.51,7.41-14.26,17-17.56s18.11-3.71,21.85,4.25c3.12,6.65.69,12.88-8.89,16.18"/><path class="cls-12" d="M383.29,121.36c-3.64-7.47-4.1-15-3.31-19.58.49-6.54,8.59-12.24,17.15-15.19,7.4-2.54,14.19-3.37,18.61.07-4.11-6.17-12.06-5.58-20.89-2.54-8.55,2.94-16.66,8.64-17.15,15.18-.79,4.57-.33,12.12,3.31,19.59.92,1.88,1.53,3.47,3.13,4.23-.28-.54-.55-1.13-.85-1.76"/><path class="cls-12" d="M405.66,104.69c6.55-1.17,8.73-3.6,8.73-3.6s-.08,4.3-8.65,6.85c-9.14,2.72-12.95-2.13-12.95-2.13s-3.13-5.73-2-6.18c2-.79,5.56,6.7,14.83,5.06"/><path class="cls-6" d="M405.87,119.15c5.06,3.68.23,8.75-3.73,12.54a27.23,27.23,0,0,1-4.66,3.78l-.68.47a2.65,2.65,0,0,1-.6.82,2,2,0,0,1-2.5.47l-.12-.13a1.74,1.74,0,0,1-2,.1c-.27-.24-1.6-.71-2-1.06-.22-.2-1.51-.6-1.87-.93s-1.6-1.71-2.06-2.22c-.7-.75-.29-2.13.91-3.09a3.9,3.9,0,0,1,1.79-.82,30.32,30.32,0,0,1,5.23-4.36c4.58-3.17,9.81-7.37,12.28-5.57"/><path class="cls-13" d="M374.67,48.51c-.63,3.33,10.71,6.17,23.51,9.33.91.22-2,2.39-1.07,2.57,10.63,2,19.88.33,20.66-3.78s-6.59-11.86-17.39-12.55c-12.66-.82-24.92.32-25.71,4.43"/><path class="cls-13" d="M373.74,51.2c-.43-.72-6.34,1-7.09-.67-1.15-2.56,5.58-1.51,5-2.59-.37-.68-6.1,0-6.3-2.44-.15-1.79,6.58.24,6.17-.81-.29-.73-5.43-1.15-5.36-2.75.12-2.78,7.85,1.58,8.41.27.39-.91-3.23-3.16-1.53-3.44,2.06-.33,7.15,3.78,8.87,6.09s1.72,6.71-.75,8.15c-2.75,1.4-9.33,2.71-10.94.94-1.28-1.42,4.25-1.56,3.52-2.75"/><path class="cls-6" d="M417.67,107.34c12,6.21,19.73-10.29,15.74-18.86-3.88-7.44-4.94-7.33-3.11-12.92,3.12-9.54,2.29-23.55-6.68-27.31S407,42.82,399.57,53.44c-.67,1-8.86,15-3.51,35.36,2,9.75,15,15.1,21.61,18.54"/><path class="cls-12" d="M433.44,98.45a8.69,8.69,0,0,1-8.45-.23c-5.9-3.06-14.62-10.12-19.25-16.51-5.41-7.2-2.68-24.92,3.12-31.52,1.75-2,3-3.75,4.59-4.88-5-.39-9.63,1.49-14.2,8-.68,1-8.86,15-3.51,35.36,2,9.75,15,15.1,21.6,18.54,8,4.14,14.1-1.81,16.1-8.78"/><g class="cls-14"><g class="cls-15"><path class="cls-12" d="M416.23,56.7c10.1,1.61,15.35-4.83,16-9.9s-5.89-7.91-13.63-8.45-16,.35-16.68,5.42,6.66,11.71,14.3,12.93"/></g></g><path class="cls-13" d="M394.76,37a3,3,0,0,0,.42-.06,25.75,25.75,0,0,0,4.6,9c8.71,8.43,19.83,10.45,28,7.74,5.08-2,8.86-6,11.77-10.87l.16.08c2.72,1.23,5.59-1.46,7.5-5.68s1.28-8.65-1.44-9.88c-1-.46-1.27-.14-2.41.32C445.3,16,441.48,3.53,423.09.47s-25.59,9.27-27.4,20.21a3.79,3.79,0,0,0-2.07-.48c-3,.21-5.13,4.12-4.82,8.75s3,8.22,6,8"/><path class="cls-16" d="M423.62,48.25a8,8,0,0,1-7.34-2.15,4.8,4.8,0,0,1-1.34-2.3,33.48,33.48,0,0,0,4.23,2.36c1.42.7,2.87,1.25,4.45,2.09"/><path class="cls-17" d="M420.55,5c1-.51-3.68,3.83-4.65,3.54a9,9,0,0,0,5.43.21c2.56-.75,3.76-1.91,3.34-1.26-.47,1.19-3.48,2.89-2.8,2.84,3.16.23,6.91-1.21,8.23-3.4s.17-5.41-3.92-6.48a10,10,0,0,0-7,.66c-1.05.59-1.21,1.24-1.75,2.28A6.33,6.33,0,0,1,414.61,6c2.62.69,3.77.62,5.94-1"/><path class="cls-18" d="M431.6,37.09a2.7,2.7,0,1,1-2.22-3.1,2.69,2.69,0,0,1,2.22,3.1"/><path class="cls-18" d="M417.4,35.11a2.7,2.7,0,1,1-2.22-3.1,2.7,2.7,0,0,1,2.22,3.1"/><path class="cls-19" d="M444,81.82H387.55a1.6,1.6,0,0,1-1.6-1.6v-1.8a1.6,1.6,0,0,1,1.6-1.6H444a1.6,1.6,0,0,1,1.6,1.6v1.8a1.6,1.6,0,0,1-1.6,1.6"/><g class="cls-8"><g class="cls-20"><path class="cls-10" d="M442.24,79.18H389.31c-1.85,0-3.36-.34-3.36-.76v2.64c0,.42,1.51.76,3.36.76h52.93c1.85,0,3.36-.34,3.36-.76V78.42c0,.42-1.51.76-3.36.76"/></g></g><path class="cls-13" d="M392,79.2c-.57-3.35,12.28-2.16,22.42-14.91,6.74-8.46,14-14.14,17.42-11.74s2.24,11.91-4.46,20.4C418.5,84.2,393.75,89.51,392,79.2"/><path class="cls-13" d="M388,80.4c-.09-.81-6.1-1.54-6.06-3.35.05-2.75,5.62.81,5.55-.38,0-.76-5.45-2.35-4.6-4.65.62-1.66,5.78,2.77,5.86,1.67,0-.78-4.38-3.14-3.64-4.56,1.27-2.45,6.35,4.47,7.41,3.5.73-.66-1.57-4.09.07-3.68,2,.5,4.81,6.17,5.37,8.91s-1.28,6.7-4.09,7c-3.05.19-9.49-1.18-10.18-3.4-.54-1.76,4.46.25,4.31-1.11"/><path class="cls-6" d="M402.24,125.33c-2.86-.32-3.53-2.26-4.7-4.65-4.3-8.85-4.16-17.8-2.75-21.79,2-5.55,5.33-4,7.89-3.51,4.41.92,5.95,12.8,5,21s-3.9,9.09-5.41,8.92"/><path class="cls-6" d="M424.35,106.33c-9.57,3.29-28.56,3.62-30-2.87-1.61-7.51,7.41-14.26,17-17.56s18.12-3.71,21.86,4.25c3.12,6.65.68,12.89-8.89,16.18"/><path class="cls-12" d="M399.61,122.93c-3.63-7.47-4.09-15-3.3-19.59.48-6.54,8.59-12.24,17.14-15.18,7.41-2.55,14.2-3.37,18.62.06C428,82.06,420,82.64,411.18,85.68c-8.56,2.94-16.66,8.65-17.15,15.19-.79,4.57-.33,12.11,3.31,19.58.91,1.88,1.53,3.47,3.13,4.23-.28-.54-.55-1.13-.86-1.75"/><path class="cls-12" d="M422,106.25c6.55-1.16,8.73-3.6,8.73-3.6s-.08,4.3-8.66,6.85c-9.13,2.72-12.95-2.13-12.95-2.13s-3.12-5.72-2-6.18c2-.78,5.56,6.7,14.84,5.06"/></g></g></g></svg>