<svg xmlns="http://www.w3.org/2000/svg" viewBox="0 0 93.67 109.57"><defs><style>.cls-1{fill:#f2f2ae;}.cls-2{fill:#079247;}</style></defs><g id="Layer_2" data-name="Layer 2"><g id="Layer_1-2" data-name="Layer 1"><path class="cls-1" d="M93.38,0C62.27,0,23,4.2,10.78,16.19S.06,54.88.06,54.88-1.41,83.8,10.78,93.38s51.27,16.19,82.89,16.19Z"/><path class="cls-2" d="M7.56,57.77A1.14,1.14,0,0,1,8.8,56.52h2.81c2.47,0,4,1.11,4,3.62a3.1,3.1,0,0,1-3,3l2.72,2.92a1.05,1.05,0,0,1,.32.7A1.22,1.22,0,0,1,14.48,68a1.25,1.25,0,0,1-.93-.41L10,63.29h0v3.48A1.14,1.14,0,0,1,8.76,68a1.14,1.14,0,0,1-1.2-1.24ZM10,61.56h1.65a1.42,1.42,0,1,0,0-2.83H10Z"/><path class="cls-2" d="M16.46,57.91c0-.8.4-1.39,1.25-1.39h4a1.06,1.06,0,0,1,1.13,1.11,1.08,1.08,0,0,1-1.13,1.1H18.86v2.34h2.63a1.08,1.08,0,0,1,1.16,1.1,1.1,1.1,0,0,1-1.16,1.11H18.86v2.43h3A1.06,1.06,0,0,1,23,66.81a1.09,1.09,0,0,1-1.14,1.11H17.69a1.17,1.17,0,0,1-1.23-1.2Z"/><path class="cls-2" d="M26.51,57.66a1.88,1.88,0,0,1,1.71-1.33,1.8,1.8,0,0,1,1.71,1.33l3.14,8.71a1.75,1.75,0,0,1,.13.59A1.06,1.06,0,0,1,32.1,68a1.12,1.12,0,0,1-1.17-.83l-.48-1.5H26l-.48,1.49a1.12,1.12,0,0,1-1.16.84,1.14,1.14,0,0,1-1.18-1.12,1.4,1.4,0,0,1,.11-.52Zm.17,5.81h3.05l-1.49-4.64h0Z"/><path class="cls-2" d="M34,57.75a1.18,1.18,0,0,1,1.23-1.23h2.66c3.58,0,5.63,2.31,5.63,5.86A5.18,5.18,0,0,1,38,67.92H35.21A1.17,1.17,0,0,1,34,66.72Zm2.4,8H38c2.06,0,3-1.52,3-3.44s-1-3.54-3.16-3.54H36.35Z"/><path class="cls-2" d="M47,62.57l-3-4.26a1.28,1.28,0,0,1-.22-.72,1.19,1.19,0,0,1,2.14-.68l2.31,3.34,2.3-3.34a1.18,1.18,0,0,1,1-.48,1.13,1.13,0,0,1,1.15,1.16,1.21,1.21,0,0,1-.23.72l-3,4.26v4.28a1.2,1.2,0,0,1-2.4,0Z"/><path class="cls-2" d="M53.1,57.67a1.14,1.14,0,0,1,1.2-1.24,1.54,1.54,0,0,1,1,.52l5.07,6.77h0v-6a1.21,1.21,0,1,1,2.41,0v9.1A1.14,1.14,0,0,1,61.62,68a1.54,1.54,0,0,1-1-.52L55.53,60.8h0v6a1.2,1.2,0,1,1-2.4,0Z"/><path class="cls-2" d="M64.16,57.91c0-.8.4-1.39,1.24-1.39h4a1.11,1.11,0,1,1,0,2.21H66.56v2.34h2.62a1.08,1.08,0,0,1,1.17,1.1,1.1,1.1,0,0,1-1.17,1.11H66.56v2.43h3a1.06,1.06,0,0,1,1.13,1.1,1.08,1.08,0,0,1-1.13,1.11H65.39a1.16,1.16,0,0,1-1.23-1.2Z"/><path class="cls-2" d="M78.3,57.93a1.11,1.11,0,0,1-1.07,1.19c-.66,0-1.17-.48-2.13-.48-.69,0-1.31.36-1.31,1,0,1.64,5.34.59,5.34,4.72A3.79,3.79,0,0,1,75,68.11c-1.24,0-3.89-.29-3.89-1.79a1.06,1.06,0,0,1,1.07-1.14c.75,0,1.65.63,2.69.63s1.63-.6,1.63-1.38c0-1.89-5.34-.75-5.34-4.47a3.7,3.7,0,0,1,4-3.63C76.06,56.33,78.3,56.67,78.3,57.93Z"/><path class="cls-2" d="M86.89,57.93a1.11,1.11,0,0,1-1.07,1.19c-.65,0-1.17-.48-2.13-.48-.69,0-1.31.36-1.31,1,0,1.64,5.35.59,5.35,4.72a3.8,3.8,0,0,1-4.1,3.71c-1.23,0-3.89-.29-3.89-1.79a1.07,1.07,0,0,1,1.07-1.14c.75,0,1.65.63,2.69.63s1.63-.6,1.63-1.38c0-1.89-5.34-.75-5.34-4.47a3.7,3.7,0,0,1,4-3.63C84.65,56.33,86.89,56.67,86.89,57.93Z"/><path class="cls-2" d="M34.85,75.53c1.16,0,3.44.38,3.44,1.79a1,1,0,0,1-1,1.08c-.66,0-1.11-.56-2.45-.56-2,0-3,1.68-3,3.63s1,3.54,3,3.54c1.34,0,1.88-.68,2.54-.68a1.13,1.13,0,0,1,1.06,1.09c0,1.54-2.42,1.89-3.6,1.89-3.25,0-5.51-2.58-5.51-5.89S31.58,75.53,34.85,75.53Z"/><path class="cls-2" d="M39.47,76.87a1.2,1.2,0,1,1,2.4,0v5.59a2.45,2.45,0,0,0,2.46,2.64,2.51,2.51,0,0,0,2.45-2.64V76.87a1.2,1.2,0,1,1,2.4,0v5.72a4.86,4.86,0,0,1-9.71,0Z"/><path class="cls-2" d="M50.52,77.12c0-.81.4-1.4,1.25-1.4h4a1.07,1.07,0,0,1,1.14,1.11,1.09,1.09,0,0,1-1.14,1.1H52.92v2.34h2.63a1.08,1.08,0,0,1,1.17,1.1,1.1,1.1,0,0,1-1.17,1.11H52.92v2.43h3A1.06,1.06,0,0,1,57,86a1.08,1.08,0,0,1-1.13,1.11H51.76a1.17,1.17,0,0,1-1.24-1.2Z"/><path class="cls-2" d="M64.67,77.13a1.11,1.11,0,0,1-1.07,1.19c-.66,0-1.17-.48-2.13-.48-.69,0-1.31.36-1.31,1,0,1.64,5.34.59,5.34,4.72a3.8,3.8,0,0,1-4.09,3.71c-1.24,0-3.89-.29-3.89-1.79a1.06,1.06,0,0,1,1.07-1.14c.75,0,1.65.63,2.69.63s1.63-.6,1.63-1.38c0-1.89-5.35-.75-5.35-4.47a3.7,3.7,0,0,1,4-3.63C62.43,75.53,64.67,75.87,64.67,77.13Z"/><path class="cls-2" d="M64.72,33.72a3.12,3.12,0,0,0-1.53-.85L68,28.08a3.17,3.17,0,0,0-1.62-5.35,3.17,3.17,0,0,0-4.26-4.44,3.12,3.12,0,0,0-.87-1.66,3.16,3.16,0,0,0-4.48,0l-.76.76a3.13,3.13,0,0,0-.84-1.54,3.18,3.18,0,0,0-4.48,0L42.1,24.42a13.2,13.2,0,0,0-4,8.88,12,12,0,0,0,3.57,8.93c5.15,5.15,13.67,5.32,18.6.39l4.42-4.42a3.16,3.16,0,0,0,0-4.48m-5.47,7.85c-4.36,4.37-11.92,4.19-16.5-.39-4.36-4.37-4.19-11.12.4-15.71l8.56-8.57a1.69,1.69,0,1,1,2.39,2.38l-4.52,4.51a.74.74,0,0,0,1.05,1.05l7.17-7.16a1.68,1.68,0,0,1,2.38,2.38l-7,7a.74.74,0,0,0,1.05,1.05l7-7,.43-.43.83-.84a1.69,1.69,0,1,1,2.39,2.38l-.84.84-.54.54-6.91,6.91a.74.74,0,0,0,1,1l6.91-6.91A1.68,1.68,0,1,1,66.93,27l-6.69,6.69L58.86,35.1A8.56,8.56,0,0,0,57,33.84a7.43,7.43,0,0,0-6.3-.26.73.73,0,0,0-.41,1,.6.6,0,0,0,.16.25.74.74,0,0,0,.8.16,6.47,6.47,0,0,1,7.08,1.67.73.73,0,0,0,.53.26.77.77,0,0,0,.55-.22l1.89-1.89a1.68,1.68,0,1,1,2.38,2.38Z"/></g></g></svg>