<svg xmlns="http://www.w3.org/2000/svg" viewBox="0 0 93.67 109.57"><defs><style>.cls-1{fill:#eabdd8;}.cls-2{fill:#67308f;}.cls-3{fill:none;stroke:#67308f;stroke-linecap:round;stroke-linejoin:round;stroke-width:1.55px;}</style></defs><g id="Layer_2" data-name="Layer 2"><g id="Layer_1-2" data-name="Layer 1"><path class="cls-1" d="M93.38,0C62.27,0,23,4.2,10.78,16.19S.06,54.88.06,54.88-1.41,83.8,10.78,93.38s51.27,16.19,82.89,16.19Z"/><path class="cls-2" d="M24.3,58.49a1.2,1.2,0,0,1,1.25-1.25h4.09a1.11,1.11,0,0,1,0,2.21H26.7v2.33h2.48a1.08,1.08,0,0,1,1.15,1.09A1.09,1.09,0,0,1,29.18,64H26.7v3.49a1.2,1.2,0,1,1-2.4,0Z"/><path class="cls-2" d="M31.4,58.63c0-.8.4-1.39,1.25-1.39h4a1.06,1.06,0,0,1,1.14,1.1,1.09,1.09,0,0,1-1.14,1.11H33.8v2.33h2.63a1.11,1.11,0,1,1,0,2.21H33.8v2.44h3a1.06,1.06,0,0,1,1.14,1.1,1.08,1.08,0,0,1-1.14,1.1H32.63a1.17,1.17,0,0,1-1.23-1.2Z"/><path class="cls-2" d="M38.81,58.63c0-.8.4-1.39,1.25-1.39h4a1.06,1.06,0,0,1,1.13,1.1A1.08,1.08,0,0,1,44,59.45H41.21v2.33h2.63A1.09,1.09,0,0,1,45,62.89,1.11,1.11,0,0,1,43.84,64H41.21v2.44h3a1.06,1.06,0,0,1,1.14,1.1,1.08,1.08,0,0,1-1.14,1.1H40a1.17,1.17,0,0,1-1.23-1.2Z"/><path class="cls-2" d="M46.22,58.47a1.17,1.17,0,0,1,1.23-1.23h2.66c3.58,0,5.63,2.3,5.63,5.86a5.17,5.17,0,0,1-5.47,5.53H47.48a1.16,1.16,0,0,1-1.26-1.2Zm2.4,8h1.62c2.06,0,3-1.53,3-3.45s-1-3.53-3.17-3.53H48.62Z"/><path class="cls-2" d="M56.89,58.39a1.2,1.2,0,1,1,2.4,0v9.09a1.2,1.2,0,1,1-2.4,0Z"/><path class="cls-2" d="M60.63,58.39a1.15,1.15,0,0,1,1.2-1.25,1.47,1.47,0,0,1,1,.53l5.08,6.77h0v-6a1.2,1.2,0,1,1,2.4,0v9.09a1.15,1.15,0,0,1-1.2,1.25,1.55,1.55,0,0,1-1-.53l-5.07-6.69h0v6a1.21,1.21,0,1,1-2.41,0Z"/><path class="cls-2" d="M80.56,61.88c1,0,1.41.51,1.41,1.54a5.07,5.07,0,0,1-5.22,5.41c-3.25,0-5.51-2.58-5.51-5.89s2.24-5.89,5.51-5.89c2.42,0,4.4,1.13,4.4,2.25a1,1,0,0,1-1,1.12c-1.09,0-1.31-1.17-3.41-1.17s-3,1.75-3,3.69,1,3.68,3,3.68a2.5,2.5,0,0,0,2.72-2.53H77.84a1.11,1.11,0,1,1,0-2.21Z"/><path class="cls-2" d="M26.36,84.63c0,2.69-1.71,3.4-3.16,3.4-1.11,0-2.95-.44-2.95-1.83a1,1,0,0,1,.9-1c.64,0,1.2.59,1.92.59.89,0,.89-.83.89-1.35V77.59a1.2,1.2,0,1,1,2.4,0Z"/><path class="cls-2" d="M27.26,82.14c0-3.33,2.24-5.89,5.51-5.89a5.6,5.6,0,0,1,5.5,5.89c0,3.31-2.22,5.89-5.5,5.89S27.26,85.45,27.26,82.14Zm8.51,0c0-1.94-1-3.69-3-3.69s-3,1.75-3,3.69,1,3.68,3,3.68S35.77,84.09,35.77,82.14Z"/><path class="cls-2" d="M39.16,77.59a1.2,1.2,0,1,1,2.4,0v5.59A2.46,2.46,0,0,0,44,85.82a2.52,2.52,0,0,0,2.45-2.64V77.59a1.2,1.2,0,1,1,2.4,0V83.3a4.86,4.86,0,0,1-9.72,0Z"/><path class="cls-2" d="M50.22,77.69a1.13,1.13,0,0,1,1.23-1.25h2.82c2.46,0,4,1.1,4,3.62,0,1.76-1.32,2.76-3,3L58,86a1,1,0,0,1,.32.71,1.22,1.22,0,0,1-1.2,1.23,1.24,1.24,0,0,1-.93-.42l-3.55-4.3h0v3.47a1.2,1.2,0,1,1-2.4,0Zm2.4,3.79h1.65a1.36,1.36,0,0,0,1.49-1.42,1.34,1.34,0,0,0-1.49-1.41H52.62Z"/><path class="cls-2" d="M59,77.59a1.15,1.15,0,0,1,1.2-1.25,1.51,1.51,0,0,1,1,.53l5.07,6.77h0v-6a1.2,1.2,0,1,1,2.4,0v9.09a1.15,1.15,0,0,1-1.2,1.25,1.51,1.51,0,0,1-1-.53l-5.08-6.69h0v6a1.2,1.2,0,1,1-2.4,0Z"/><path class="cls-2" d="M70.07,77.83c0-.8.4-1.39,1.25-1.39h4a1.06,1.06,0,0,1,1.14,1.1,1.09,1.09,0,0,1-1.14,1.11H72.48V81H75.1a1.11,1.11,0,1,1,0,2.21H72.48v2.44h3a1.06,1.06,0,0,1,1.13,1.1,1.08,1.08,0,0,1-1.13,1.1H71.31a1.17,1.17,0,0,1-1.24-1.2Z"/><path class="cls-2" d="M79.85,82.49l-3-4.26a1.23,1.23,0,0,1-.23-.72,1.14,1.14,0,0,1,1.15-1.17,1.2,1.2,0,0,1,1,.48l2.3,3.35,2.31-3.35a1.17,1.17,0,0,1,1-.48,1.14,1.14,0,0,1,1.15,1.17,1.3,1.3,0,0,1-.22.72l-3,4.26v4.27a1.2,1.2,0,0,1-2.4,0Z"/><path class="cls-3" d="M51.24,23.62a3.26,3.26,0,1,1,3.26-3.26A3.26,3.26,0,0,1,51.24,23.62Z"/><path class="cls-3" d="M51.24,42.63a3.26,3.26,0,1,1,3.26-3.26A3.26,3.26,0,0,1,51.24,42.63Z"/><path class="cls-3" d="M40.63,33.13a3.27,3.27,0,1,1,3.27-3.27A3.26,3.26,0,0,1,40.63,33.13Z"/><path class="cls-3" d="M41.39,40.78a1.41,1.41,0,1,1,1.4-1.41A1.41,1.41,0,0,1,41.39,40.78Z"/><path class="cls-3" d="M41.39,21.77a1.41,1.41,0,1,1,1.4-1.41A1.41,1.41,0,0,1,41.39,21.77Z"/><circle class="cls-3" cx="61.85" cy="29.86" r="3.26"/><path class="cls-3" d="M61.1,19a1.41,1.41,0,1,1-1.41,1.41A1.41,1.41,0,0,1,61.1,19Z"/><path class="cls-3" d="M61.1,38a1.41,1.41,0,1,1-1.41,1.41A1.41,1.41,0,0,1,61.1,38Z"/><path class="cls-3" d="M52.65,29.86a1.41,1.41,0,1,1-1.41-1.41A1.41,1.41,0,0,1,52.65,29.86Z"/></g></g></svg>