<svg xmlns="http://www.w3.org/2000/svg" viewBox="0 0 93.67 109.57"><defs><style>.cls-1{fill:#ffdaa4;}.cls-2{fill:#f15b27;}.cls-3{fill:none;stroke:#f15b27;stroke-linecap:round;stroke-linejoin:round;stroke-width:1.51px;}</style></defs><g id="Layer_2" data-name="Layer 2"><g id="Layer_1-2" data-name="Layer 1"><path class="cls-1" d="M93.38,0C62.27,0,23,4.2,10.78,16.19S.06,54.88.06,54.88-1.41,83.8,10.78,93.38s51.27,16.19,82.89,16.19Z"/><path class="cls-2" d="M35.73,60.41c0-3.33,2.24-5.89,5.5-5.89a5.6,5.6,0,0,1,5.51,5.89c0,3.31-2.23,5.89-5.51,5.89S35.73,63.72,35.73,60.41Zm8.51,0c0-1.94-1-3.68-3-3.68s-3,1.74-3,3.68,1,3.68,3,3.68S44.24,62.36,44.24,60.41Z"/><path class="cls-2" d="M47.73,56A1.13,1.13,0,0,1,49,54.71h2.82c2.46,0,4,1.1,4,3.62a3.1,3.1,0,0,1-3,3l2.72,2.92a1,1,0,0,1,.32.7,1.23,1.23,0,0,1-1.2,1.23,1.25,1.25,0,0,1-.93-.41l-3.55-4.31h0V65a1.2,1.2,0,1,1-2.4,0Zm2.4,3.79h1.65a1.36,1.36,0,0,0,1.48-1.42,1.34,1.34,0,0,0-1.48-1.41H50.13Z"/><path class="cls-2" d="M59.26,55.85A1.88,1.88,0,0,1,61,54.52a1.81,1.81,0,0,1,1.71,1.33l3.14,8.7a2,2,0,0,1,.12.6,1.06,1.06,0,0,1-1.1,1,1.12,1.12,0,0,1-1.17-.83l-.48-1.5H58.75l-.48,1.48a1.11,1.11,0,0,1-1.15.85,1.15,1.15,0,0,1-1.19-1.12,1.24,1.24,0,0,1,.12-.53Zm.18,5.81h3L61,57h0Z"/><path class="cls-2" d="M66.7,55.86a1.2,1.2,0,1,1,2.4,0v8H72a1.08,1.08,0,0,1,1.15,1.15A1.11,1.11,0,0,1,72,66.11H68a1.2,1.2,0,0,1-1.25-1.32Z"/><path class="cls-2" d="M37.23,75.32a1.11,1.11,0,0,1-1.08,1.18C35.5,76.5,35,76,34,76c-.68,0-1.31.37-1.31,1,0,1.65,5.35.6,5.35,4.73A3.81,3.81,0,0,1,34,85.5c-1.23,0-3.89-.29-3.89-1.79a1.07,1.07,0,0,1,1.07-1.14c.75,0,1.65.62,2.69.62s1.63-.59,1.63-1.37c0-1.89-5.34-.75-5.34-4.47a3.7,3.7,0,0,1,4-3.63C35,73.72,37.23,74.05,37.23,75.32Z"/><path class="cls-2" d="M39.08,75a1.16,1.16,0,0,1,1.2-1.19A1.13,1.13,0,0,1,41.48,75v3.46l3.94-4.2a1.25,1.25,0,0,1,.93-.45A1.17,1.17,0,0,1,47.53,75c0,.41-.26.75-.78,1.28l-3,3,3.7,3.86a1.78,1.78,0,0,1,.67,1.22,1.11,1.11,0,0,1-1.25,1.1c-.46,0-.77-.27-1.22-.75l-4.14-4.48v4.08a1.15,1.15,0,0,1-1.2,1.15,1.12,1.12,0,0,1-1.2-1.15Z"/><path class="cls-2" d="M48.85,75.06a1.2,1.2,0,1,1,2.4,0v9.09a1.2,1.2,0,1,1-2.4,0Z"/><path class="cls-2" d="M52.69,75.06a1.2,1.2,0,1,1,2.4,0v8h2.85a1.09,1.09,0,0,1,1.16,1.15,1.13,1.13,0,0,1-1.16,1.06h-4A1.2,1.2,0,0,1,52.69,84Z"/><path class="cls-2" d="M59.51,75.06a1.2,1.2,0,1,1,2.4,0v8h2.85a1.08,1.08,0,0,1,1.15,1.15,1.12,1.12,0,0,1-1.15,1.06h-4A1.19,1.19,0,0,1,59.51,84Z"/><path class="cls-2" d="M73.06,75.32A1.1,1.1,0,0,1,72,76.5c-.65,0-1.17-.48-2.13-.48-.69,0-1.31.37-1.31,1,0,1.65,5.35.6,5.35,4.73a3.81,3.81,0,0,1-4.1,3.71c-1.23,0-3.89-.29-3.89-1.79A1.07,1.07,0,0,1,67,82.57c.75,0,1.65.62,2.69.62s1.63-.59,1.63-1.37c0-1.89-5.34-.75-5.34-4.47a3.7,3.7,0,0,1,4-3.63C70.82,73.72,73.06,74.05,73.06,75.32Z"/><path class="cls-3" d="M57.76,17.54c2.8.07,14.05,10.74,14.52,10.47-.16.14-10.92-1.91-18.76-2.16-7.83.25-18.6,2.3-18.75,2.16.47.28,11.77-10.39,14.52-10.47,2.41.17,2.88,2.08,4.23,2.1S55.57,17.69,57.76,17.54Z"/><path class="cls-3" d="M34.74,28.1c0-.05,1.88,6.67,7.78,10.17,3.25,1.92,7.25,1.19,11,1.19s7.66.77,10.85-1.1c5.94-3.48,8-10.31,7.94-10.26s-6.54-1.49-11.3-1c-2.62.31-4.39,2.45-7.49,2.47s-5-2.66-7.89-2.79C40.9,26.62,34.8,28.14,34.74,28.1Z"/></g></g></svg>