<svg xmlns="http://www.w3.org/2000/svg" xmlns:xlink="http://www.w3.org/1999/xlink" viewBox="0 0 431.33 126.21"><defs><style>.cls-1,.cls-11,.cls-12,.cls-5{fill:none;}.cls-2{fill:#ffdaa4;}.cls-3{fill:#754d25;}.cls-4{fill:#fff;}.cls-5{stroke:#f15b27;stroke-width:2.4px;stroke-dasharray:6;opacity:0.5;}.cls-12,.cls-5{stroke-linecap:round;}.cls-11,.cls-5{stroke-miterlimit:10;}.cls-6{fill:#fbc5bc;}.cls-7{fill:#f8a89d;}.cls-8{clip-path:url(#clip-path);}.cls-9{fill:#c35263;}.cls-10{fill:#f8aeaf;}.cls-11,.cls-12{stroke:#f3828f;stroke-width:0.91px;}.cls-12{stroke-linejoin:round;}.cls-13{fill:#f49925;}</style><clipPath id="clip-path"><path class="cls-1" d="M39.86,40.66a9.43,9.43,0,0,1-5.82,0,8.52,8.52,0,0,0-2.54-.41,8.88,8.88,0,0,0-5.88,2.46c-3.54,3.09-3.91,7-4.21,10.23-.23,2.5-.09,4.65-1.82,6.2l0,0H54.33l0,0c-1.74-1.55-1.59-3.7-1.82-6.2-.3-3.18-.67-7.14-4.21-10.23a8.88,8.88,0,0,0-5.88-2.46,8.52,8.52,0,0,0-2.54.41"/></clipPath></defs><g id="Layer_2" data-name="Layer 2"><g id="Layer_1-2" data-name="Layer 1"><path class="cls-2" d="M409.25,18.65C384.3,4.85,303.93,0,240.24,0H240C176.35,0,96,4.85,71,18.65s-22,44.57-22,44.57-3,33.31,22,44.34c24.81,11,103.89,18.54,168.42,18.65h1.38c64.53-.11,143.62-7.69,168.42-18.65,25-11,22-44.34,22-44.34S434.23,32.46,409.25,18.65Z"/><path class="cls-3" d="M103.9,45.84v-8a1.06,1.06,0,0,1,.3-.8,1.14,1.14,0,0,1,1.5,0,1.07,1.07,0,0,1,.3.82v8a1.06,1.06,0,0,1-.3.81,1.05,1.05,0,0,1-1.8-.8Z"/><path class="cls-3" d="M107.2,45.81V40.42a1.14,1.14,0,0,1,.29-.8,1,1,0,0,1,.72-.31,1,1,0,0,1,.63.2.8.8,0,0,1,.29.55,1.88,1.88,0,0,1,.77-.62,2.87,2.87,0,0,1,1.18-.21,2.84,2.84,0,0,1,2,.71,2.57,2.57,0,0,1,.79,2v3.86a1.2,1.2,0,0,1-.28.82,1,1,0,0,1-1.45,0,1.13,1.13,0,0,1-.29-.81V42.3a1.33,1.33,0,0,0-.38-1,1.37,1.37,0,0,0-.94-.35,1.2,1.2,0,0,0-1,.4,1.52,1.52,0,0,0-.33,1v3.5a1.18,1.18,0,0,1-.28.82,1,1,0,0,1-1.45,0,1.13,1.13,0,0,1-.29-.81Z"/><path class="cls-3" d="M120.77,40.5s0,.09,0,.14,0,.08,0,.13a1.23,1.23,0,0,1-.26.49.61.61,0,0,1-.48.22h-.17l-.17,0-.2-.07-.21-.07-.4-.14a1.63,1.63,0,0,0-.45-.06,1.41,1.41,0,0,0-1.27.64,2.52,2.52,0,0,0-.42,1.42v.11a2.4,2.4,0,0,0,.47,1.32,1.42,1.42,0,0,0,1.22.6l.27,0,.28-.08.15,0,.15-.06.39-.15a.9.9,0,0,1,.26-.06.82.82,0,0,1,.61.26.85.85,0,0,1,.26.62.92.92,0,0,1-.44.79,3.15,3.15,0,0,1-1,.43,3.25,3.25,0,0,1-.59.12l-.49,0a3.32,3.32,0,0,1-2.62-1.14,4,4,0,0,1-1-2.72,4.08,4.08,0,0,1,1-2.72,3.26,3.26,0,0,1,2.6-1.19l.48,0a3.76,3.76,0,0,1,.55.1,3,3,0,0,1,1,.38.87.87,0,0,1,.45.77Z"/><path class="cls-3" d="M121.44,45.81v-5.5a.89.89,0,0,1,.3-.72,1.21,1.21,0,0,1,.67-.28h.06a1.28,1.28,0,0,1,.7.18.72.72,0,0,1,.29.66h0a2.25,2.25,0,0,1,.61-.62,1.48,1.48,0,0,1,.81-.21,1,1,0,0,1,.67.27,1,1,0,0,1,.31.81.62.62,0,0,1-.21.52,2.43,2.43,0,0,1-.51.27l-.24.09-.25.11h0a4.84,4.84,0,0,0-.8.48,1,1,0,0,0-.37.85v3.09a1.16,1.16,0,0,1-.29.82.92.92,0,0,1-.72.3,1,1,0,0,1-.72-.3,1.09,1.09,0,0,1-.29-.81Z"/><path class="cls-3" d="M127.75,43.79a1.56,1.56,0,0,0,.66,1.12,2.31,2.31,0,0,0,1.25.35,2.09,2.09,0,0,0,.72-.12c.22-.09.42-.18.61-.28s.36-.2.51-.28a.91.91,0,0,1,.44-.13.77.77,0,0,1,.57.27.87.87,0,0,1,.25.6c0,.37-.27.72-.82,1a5.09,5.09,0,0,1-1.82.61l-.33,0h-.32a3.56,3.56,0,0,1-2.73-1.1,3.82,3.82,0,0,1-1-2.76,4.07,4.07,0,0,1,1-2.72,3.28,3.28,0,0,1,2.61-1.19,3.23,3.23,0,0,1,2.36.93,4.05,4.05,0,0,1,1.19,2c0,.11,0,.22,0,.34a1.94,1.94,0,0,1,0,.34.94.94,0,0,1-.21.67.87.87,0,0,1-.67.22Zm3.17-1.34a1.93,1.93,0,0,0-.5-1.09,1.48,1.48,0,0,0-1.11-.44,1.44,1.44,0,0,0-1.1.45,1.76,1.76,0,0,0-.5,1.08Z"/><path class="cls-3" d="M140.53,40.62v5.22a1.85,1.85,0,0,1,0,.23,1.22,1.22,0,0,1-.23.59.83.83,0,0,1-.72.27.89.89,0,0,1-.65-.22,1.57,1.57,0,0,1-.32-.62,2.55,2.55,0,0,1-.87.69,2.25,2.25,0,0,1-1,.23,3,3,0,0,1-2.37-1.08,4.5,4.5,0,0,1,0-5.58,3,3,0,0,1,2.35-1.12,2.65,2.65,0,0,1,1.08.23,2,2,0,0,1,.84.71.94.94,0,0,1,.32-.61,1,1,0,0,1,.65-.25.81.81,0,0,1,.72.28,1.3,1.3,0,0,1,.23.59,2.09,2.09,0,0,1,0,.24v.21Zm-5.16,2.52v.13a.62.62,0,0,0,0,.13,2.58,2.58,0,0,0,.44,1.22,1.31,1.31,0,0,0,1.14.56,1.26,1.26,0,0,0,1.11-.56,2.46,2.46,0,0,0,.43-1.22.69.69,0,0,0,0-.13v-.12a.76.76,0,0,0,0-.15s0-.1,0-.16a2.47,2.47,0,0,0-.44-1.2,1.4,1.4,0,0,0-2.22,0,2.49,2.49,0,0,0-.46,1.2V43a.76.76,0,0,0,0,.15Z"/><path class="cls-3" d="M146.75,40.69a1,1,0,0,1-.23.63.75.75,0,0,1-.6.28.82.82,0,0,1-.35-.1l-.44-.2-.28-.12-.28-.1-.23,0a.82.82,0,0,0-.22,0,.86.86,0,0,0-.48.13.47.47,0,0,0-.21.43.44.44,0,0,0,.23.36,3.54,3.54,0,0,0,.56.3l.47.17.49.2a5.17,5.17,0,0,1,1.21.74,1.62,1.62,0,0,1,.54,1.32,2.13,2.13,0,0,1-.78,1.68,3.09,3.09,0,0,1-2.09.67l-.44,0-.45-.09a4,4,0,0,1-1.33-.53,1.08,1.08,0,0,1-.59-.9,1.15,1.15,0,0,1,0-.16.46.46,0,0,1,.08-.19,1,1,0,0,1,.29-.37.67.67,0,0,1,.48-.17,1.23,1.23,0,0,1,.44.07l.38.19.08,0,.08,0a2.51,2.51,0,0,0,.49.25,1.63,1.63,0,0,0,.61.1,1,1,0,0,0,.63-.14.55.55,0,0,0,.17-.43.42.42,0,0,0-.22-.36,2.54,2.54,0,0,0-.55-.28l-.47-.19-.51-.19a4.91,4.91,0,0,1-1.2-.74,1.64,1.64,0,0,1-.55-1.33,2.16,2.16,0,0,1,.77-1.71,3,3,0,0,1,2-.65l.41,0a3.58,3.58,0,0,1,.43.08,3.38,3.38,0,0,1,1.16.47,1,1,0,0,1,.52.89Z"/><path class="cls-3" d="M149.27,43.79a1.5,1.5,0,0,0,.66,1.12,2.27,2.27,0,0,0,1.24.35,2.11,2.11,0,0,0,.73-.12c.21-.09.42-.18.6-.28l.52-.28a.91.91,0,0,1,.44-.13.77.77,0,0,1,.57.27.87.87,0,0,1,.25.6c0,.37-.27.72-.82,1a5.09,5.09,0,0,1-1.82.61l-.33,0H151a3.55,3.55,0,0,1-2.73-1.1,3.83,3.83,0,0,1-1-2.76,4.08,4.08,0,0,1,1-2.72,3.26,3.26,0,0,1,2.6-1.19,3.22,3.22,0,0,1,2.36.93,4.15,4.15,0,0,1,1.2,2c0,.11,0,.22.05.34s0,.23,0,.34a.94.94,0,0,1-.21.67.87.87,0,0,1-.67.22Zm3.16-1.34a1.92,1.92,0,0,0-.49-1.09,1.48,1.48,0,0,0-1.12-.44,1.43,1.43,0,0,0-1.09.45,1.76,1.76,0,0,0-.5,1.08Z"/><path class="cls-3" d="M159.41,45.81V41.16H159a.8.8,0,0,1-.64-.22.92.92,0,0,1-.23-.65.84.84,0,0,1,.87-.88h.45V38.19a1.11,1.11,0,0,1,.28-.79.94.94,0,0,1,.72-.31.92.92,0,0,1,.73.31,1.13,1.13,0,0,1,.28.81V39.4H162a1.24,1.24,0,0,1,.67.21.93.93,0,0,1,0,1.35,1.15,1.15,0,0,1-.67.2h-.58v4.65a1.13,1.13,0,0,1-.28.82.94.94,0,0,1-.73.3,1,1,0,0,1-.72-.3,1.13,1.13,0,0,1-.28-.81Z"/><path class="cls-3" d="M163.06,45.81V37.19a1.12,1.12,0,0,1,.29-.8,1,1,0,0,1,1.45,0,1.17,1.17,0,0,1,.28.81v2.73h0a1.56,1.56,0,0,1,.56-.42,2.75,2.75,0,0,1,.69-.21l.3,0,.29,0a2.8,2.8,0,0,1,2,.72,2.57,2.57,0,0,1,.79,2v3.85a1.18,1.18,0,0,1-.28.82,1,1,0,0,1-1.45,0,1.13,1.13,0,0,1-.29-.81V42.3a1.3,1.3,0,0,0-.39-1,1.33,1.33,0,0,0-.93-.35,1.2,1.2,0,0,0-1,.4,1.52,1.52,0,0,0-.33,1v3.5a1.18,1.18,0,0,1-.28.82,1,1,0,0,1-1.45,0,1.13,1.13,0,0,1-.29-.81Z"/><path class="cls-3" d="M172.47,43.79a1.5,1.5,0,0,0,.66,1.12,2.27,2.27,0,0,0,1.24.35,2.09,2.09,0,0,0,.72-.12,5.82,5.82,0,0,0,.61-.28l.52-.28a.88.88,0,0,1,.43-.13.77.77,0,0,1,.58.27.87.87,0,0,1,.25.6c0,.37-.27.72-.83,1a5,5,0,0,1-1.82.61l-.33,0h-.31a3.59,3.59,0,0,1-2.74-1.1,3.86,3.86,0,0,1-1-2.76,4.08,4.08,0,0,1,1-2.72,3.45,3.45,0,0,1,5-.26,4.15,4.15,0,0,1,1.2,2c0,.11,0,.22,0,.34s0,.23,0,.34a.94.94,0,0,1-.21.67.89.89,0,0,1-.67.22Zm3.16-1.34a1.92,1.92,0,0,0-.49-1.09,1.48,1.48,0,0,0-1.12-.44,1.45,1.45,0,0,0-1.1.45,1.75,1.75,0,0,0-.49,1.08Z"/><path class="cls-3" d="M183.68,46.09l-2-5.22a1.44,1.44,0,0,1-.08-.25.71.71,0,0,1,0-.21V40.3a.87.87,0,0,1,.31-.74,1.17,1.17,0,0,1,.73-.25.8.8,0,0,1,.53.17,1.1,1.1,0,0,1,.29.37l0,.09,0,.09,1.29,4h0l1.29-4,0-.07,0-.09a1.1,1.1,0,0,1,.29-.37.8.8,0,0,1,.53-.17,1.19,1.19,0,0,1,.73.25.88.88,0,0,1,.32.74v.11a1.3,1.3,0,0,1,0,.21c0,.08,0,.16-.08.26l-2,5.21a1.72,1.72,0,0,1-.36.62,1,1,0,0,1-.74.22,1,1,0,0,1-.72-.22,1.76,1.76,0,0,1-.37-.61Z"/><path class="cls-3" d="M190.21,43.79a1.52,1.52,0,0,0,.65,1.12,2.31,2.31,0,0,0,1.25.35,2.09,2.09,0,0,0,.72-.12c.22-.09.42-.18.61-.28l.52-.28a.88.88,0,0,1,.43-.13.77.77,0,0,1,.58.27.91.91,0,0,1,.25.6c0,.37-.28.72-.83,1a5.09,5.09,0,0,1-1.82.61l-.33,0h-.31a3.59,3.59,0,0,1-2.74-1.1,3.86,3.86,0,0,1-1-2.76,4,4,0,0,1,1-2.72,3.45,3.45,0,0,1,5-.26,4.15,4.15,0,0,1,1.2,2c0,.11,0,.22,0,.34a2,2,0,0,1,0,.34.94.94,0,0,1-.21.67.9.9,0,0,1-.68.22Zm3.16-1.34a1.93,1.93,0,0,0-.5-1.09,1.59,1.59,0,0,0-2.21,0,1.81,1.81,0,0,0-.5,1.08Z"/><path class="cls-3" d="M196.07,45.81v-5.5a.89.89,0,0,1,.3-.72,1.21,1.21,0,0,1,.67-.28h.07a1.27,1.27,0,0,1,.69.18.72.72,0,0,1,.29.66h0a2.1,2.1,0,0,1,.6-.62,1.48,1.48,0,0,1,.81-.21,1,1,0,0,1,.67.27,1,1,0,0,1,.31.81.62.62,0,0,1-.21.52,2.43,2.43,0,0,1-.51.27l-.23.09-.26.11h0a5.3,5.3,0,0,0-.8.48,1,1,0,0,0-.37.85v3.09a1.2,1.2,0,0,1-.28.82,1,1,0,0,1-1.45,0,1.13,1.13,0,0,1-.29-.81Z"/><path class="cls-3" d="M201.25,45.81V41.16h-.45a.78.78,0,0,1-.63-.22,1,1,0,0,1,0-1.28.85.85,0,0,1,.62-.25h.45V38.19a1.11,1.11,0,0,1,.29-.79,1,1,0,0,1,1.45,0,1.17,1.17,0,0,1,.28.81V39.4h.57a1.27,1.27,0,0,1,.68.21.93.93,0,0,1,0,1.35,1.19,1.19,0,0,1-.68.2h-.57v4.65a1.18,1.18,0,0,1-.28.82,1,1,0,0,1-1.45,0,1.13,1.13,0,0,1-.29-.81Z"/><path class="cls-3" d="M205.88,36.29a1.18,1.18,0,0,1,.8.34,1.08,1.08,0,0,1,.34.78,1.14,1.14,0,0,1-.33.82,1.1,1.1,0,0,1-1.6,0,1.14,1.14,0,0,1-.34-.81,1.07,1.07,0,0,1,.34-.77,1.13,1.13,0,0,1,.79-.34Zm-1,9.52V40.42a1.13,1.13,0,0,1,.28-.8,1,1,0,0,1,.72-.31,1,1,0,0,1,.73.31,1.17,1.17,0,0,1,.28.82v5.37a1.15,1.15,0,0,1-.28.82.94.94,0,0,1-.73.3,1,1,0,0,1-.72-.3,1.13,1.13,0,0,1-.28-.81Z"/><path class="cls-3" d="M213.8,40.5s0,.09,0,.14,0,.08,0,.13a1.37,1.37,0,0,1-.26.49.61.61,0,0,1-.48.22h-.17l-.17,0-.2-.07-.21-.07-.4-.14a1.63,1.63,0,0,0-.45-.06,1.41,1.41,0,0,0-1.27.64,2.52,2.52,0,0,0-.42,1.42v.11a2.33,2.33,0,0,0,.47,1.32,1.42,1.42,0,0,0,1.22.6l.27,0,.28-.08.15,0,.15-.06.39-.15a.9.9,0,0,1,.26-.06.82.82,0,0,1,.61.26.85.85,0,0,1,.26.62.92.92,0,0,1-.44.79,3.27,3.27,0,0,1-1,.43,3.35,3.35,0,0,1-.6.12l-.48,0a3.32,3.32,0,0,1-2.62-1.14,4,4,0,0,1-1-2.72,4.08,4.08,0,0,1,1-2.72,3.26,3.26,0,0,1,2.6-1.19l.48,0a3.64,3.64,0,0,1,.54.1,3,3,0,0,1,1,.38.87.87,0,0,1,.45.77Z"/><path class="cls-3" d="M221.38,40.62v5.22a1.85,1.85,0,0,1,0,.23,1.33,1.33,0,0,1-.23.59.83.83,0,0,1-.72.27.89.89,0,0,1-.65-.22,1.57,1.57,0,0,1-.32-.62,2.55,2.55,0,0,1-.87.69,2.25,2.25,0,0,1-1.05.23,3,3,0,0,1-2.37-1.08,4.08,4.08,0,0,1-1-2.79,4.16,4.16,0,0,1,1-2.79,3,3,0,0,1,2.36-1.12,2.6,2.6,0,0,1,1.07.23,2,2,0,0,1,.85.71,1,1,0,0,1,1-.86.81.81,0,0,1,.72.28,1.43,1.43,0,0,1,.23.59,2.09,2.09,0,0,1,0,.24v.21Zm-5.16,2.52v.13a.62.62,0,0,0,0,.13,2.58,2.58,0,0,0,.44,1.22,1.31,1.31,0,0,0,1.14.56,1.26,1.26,0,0,0,1.11-.56,2.46,2.46,0,0,0,.43-1.22.69.69,0,0,0,0-.13v-.12s0-.1,0-.15,0-.1,0-.16a2.47,2.47,0,0,0-.44-1.2,1.4,1.4,0,0,0-2.22,0,2.49,2.49,0,0,0-.46,1.2.81.81,0,0,1,0,.16v.15Z"/><path class="cls-3" d="M222.5,45.81V37.19a1.12,1.12,0,0,1,.29-.8,1,1,0,0,1,1.45,0,1.13,1.13,0,0,1,.28.81v8.61a1.13,1.13,0,0,1-.28.82,1,1,0,0,1-1.45,0,1.13,1.13,0,0,1-.29-.81Z"/><path class="cls-3" d="M114.31,56.69a1,1,0,0,1-.23.63.76.76,0,0,1-.6.28.82.82,0,0,1-.35-.1c-.14-.06-.29-.12-.44-.2l-.28-.12-.28-.1-.23,0a.82.82,0,0,0-.22,0,.86.86,0,0,0-.48.13.47.47,0,0,0-.21.43.45.45,0,0,0,.22.36,3.69,3.69,0,0,0,.57.3l.46.17.5.2a5.17,5.17,0,0,1,1.21.74,1.62,1.62,0,0,1,.54,1.32,2.13,2.13,0,0,1-.78,1.68,3.1,3.1,0,0,1-2.09.67l-.44,0a3.26,3.26,0,0,1-.45-.09,4,4,0,0,1-1.33-.53,1.08,1.08,0,0,1-.59-.9.5.5,0,0,1,0-.16.46.46,0,0,1,.08-.19,1,1,0,0,1,.29-.37.67.67,0,0,1,.47-.17,1.25,1.25,0,0,1,.45.07l.38.19.08,0,.08,0a2.25,2.25,0,0,0,.49.25,1.63,1.63,0,0,0,.61.1,1,1,0,0,0,.63-.14.55.55,0,0,0,.17-.43.42.42,0,0,0-.22-.36,2.8,2.8,0,0,0-.55-.28l-.47-.19-.51-.19a4.91,4.91,0,0,1-1.2-.74,1.64,1.64,0,0,1-.55-1.33,2.16,2.16,0,0,1,.77-1.71,3,3,0,0,1,2-.65l.41,0a4,4,0,0,1,.43.08,3.33,3.33,0,0,1,1.15.47,1,1,0,0,1,.53.89Z"/><path class="cls-3" d="M115.21,56.42a1.13,1.13,0,0,1,.28-.8,1,1,0,0,1,.72-.31,1,1,0,0,1,.67.22,1.17,1.17,0,0,1,.34.62,1.69,1.69,0,0,1,.76-.66,2.56,2.56,0,0,1,1-.26h.14a2.7,2.7,0,0,1,2.38,1.18,5,5,0,0,1,.87,2.62v.2a4.22,4.22,0,0,1-.9,2.61A2.89,2.89,0,0,1,119.07,63h-.25l-.27,0a3.11,3.11,0,0,1-.69-.23,2.54,2.54,0,0,1-.64-.4v2.45a1.16,1.16,0,0,1-.28.81,1,1,0,0,1-1.45,0,1.16,1.16,0,0,1-.28-.81Zm2,2.65a1.09,1.09,0,0,0,0,.18s0,.11,0,.17a2.58,2.58,0,0,0,.44,1.21,1.28,1.28,0,0,0,1.12.55,1.24,1.24,0,0,0,1.07-.53,2.37,2.37,0,0,0,.47-1.15,1,1,0,0,0,0-.18,1,1,0,0,0,0-.17,1.15,1.15,0,0,0,0-.18,1,1,0,0,0,0-.17,2.47,2.47,0,0,0-.47-1.18,1.24,1.24,0,0,0-1.07-.53,1.3,1.3,0,0,0-1.17.6,2.6,2.6,0,0,0-.41,1.31v.08Z"/><path class="cls-3" d="M130.13,56.62v5.22c0,.07,0,.15,0,.23a1.23,1.23,0,0,1-.24.59.81.81,0,0,1-.72.27.87.87,0,0,1-.64-.22,1.45,1.45,0,0,1-.32-.62,2.55,2.55,0,0,1-.87.69,2.31,2.31,0,0,1-1,.23,3,3,0,0,1-2.37-1.08,4.52,4.52,0,0,1,0-5.58,3,3,0,0,1,2.36-1.12,2.64,2.64,0,0,1,1.07.23,2.07,2.07,0,0,1,.85.71.86.86,0,0,1,.32-.61.92.92,0,0,1,.64-.25.79.79,0,0,1,.72.28,1.32,1.32,0,0,1,.24.59c0,.09,0,.17,0,.24v.21ZM125,59.14v.13a.69.69,0,0,0,0,.13,2.38,2.38,0,0,0,.44,1.22,1.41,1.41,0,0,0,2.25,0,2.56,2.56,0,0,0,.43-1.22.62.62,0,0,0,0-.13V59a.81.81,0,0,1,0-.16,2.58,2.58,0,0,0-.45-1.2,1.23,1.23,0,0,0-1.09-.55,1.28,1.28,0,0,0-1.13.55,2.38,2.38,0,0,0-.45,1.2c0,.06,0,.11,0,.16a.76.76,0,0,0,0,.15Z"/><path class="cls-3" d="M137.06,56.5a.66.66,0,0,1,0,.14.69.69,0,0,1,0,.13,1.23,1.23,0,0,1-.26.49.59.59,0,0,1-.48.22h-.17l-.17,0-.2-.07-.2-.07-.41-.14a1.63,1.63,0,0,0-.45-.06,1.41,1.41,0,0,0-1.27.64,2.52,2.52,0,0,0-.42,1.42v.11a2.4,2.4,0,0,0,.47,1.32,1.42,1.42,0,0,0,1.22.6,1.24,1.24,0,0,0,.27,0l.28-.08.15,0,.16-.06.38-.15a.9.9,0,0,1,.26-.06.85.85,0,0,1,.62.26.89.89,0,0,1,.25.62.92.92,0,0,1-.44.79,3.15,3.15,0,0,1-1,.43,3.25,3.25,0,0,1-.59.12l-.49,0A3.29,3.29,0,0,1,132,61.87a4,4,0,0,1-1-2.72,4.08,4.08,0,0,1,1-2.72,3.26,3.26,0,0,1,2.6-1.19l.48,0a3.76,3.76,0,0,1,.55.1,3,3,0,0,1,1,.38.87.87,0,0,1,.45.77Z"/><path class="cls-3" d="M139.38,59.79a1.56,1.56,0,0,0,.66,1.12,2.28,2.28,0,0,0,1.25.35,2.09,2.09,0,0,0,.72-.12c.22-.09.42-.18.61-.28s.36-.2.51-.28a.91.91,0,0,1,.44-.13.77.77,0,0,1,.57.27.87.87,0,0,1,.25.6c0,.37-.27.72-.82,1a5.09,5.09,0,0,1-1.82.61l-.33,0h-.32a3.55,3.55,0,0,1-2.73-1.1,3.83,3.83,0,0,1-1.05-2.76,4.08,4.08,0,0,1,1-2.72,3.27,3.27,0,0,1,2.61-1.19,3.2,3.2,0,0,1,2.35.93,4.07,4.07,0,0,1,1.2,2c0,.11,0,.22,0,.34a1.94,1.94,0,0,1,0,.34.94.94,0,0,1-.21.67.87.87,0,0,1-.67.22Zm3.17-1.34a2,2,0,0,0-.5-1.09,1.48,1.48,0,0,0-1.11-.44,1.44,1.44,0,0,0-1.1.45,1.76,1.76,0,0,0-.5,1.08Z"/><path class="cls-3" d="M152.35,55.23a3.3,3.3,0,0,1,2.6,1.2,4.08,4.08,0,0,1,1,2.72,4,4,0,0,1-1,2.72,3.57,3.57,0,0,1-5.23,0,4.18,4.18,0,0,1,0-5.44,3.27,3.27,0,0,1,2.61-1.19Zm-1.13,2.41a2.49,2.49,0,0,0-.46,1.2V59a.76.76,0,0,0,0,.15v.12a.62.62,0,0,0,0,.13,2.49,2.49,0,0,0,.45,1.22,1.29,1.29,0,0,0,1.14.56,1.31,1.31,0,0,0,1.14-.56,2.61,2.61,0,0,0,.44-1.22.71.71,0,0,0,0-.14V59a1,1,0,0,1,0-.17,2.49,2.49,0,0,0-.46-1.2,1.27,1.27,0,0,0-1.12-.55A1.31,1.31,0,0,0,151.22,57.64Z"/><path class="cls-3" d="M157.27,61.81V57.16h-.44a.8.8,0,0,1-.64-.22.92.92,0,0,1-.23-.65.88.88,0,0,1,.24-.63.88.88,0,0,1,.63-.25h.44v-1a2.25,2.25,0,0,1,.6-1.69,2.08,2.08,0,0,1,1.52-.59,2.29,2.29,0,0,1,1,.19.71.71,0,0,1,.44.72.91.91,0,0,1-.2.64.86.86,0,0,1-.63.21,1.14,1.14,0,0,0-.46.09c-.14.07-.21.28-.21.66v.81h.63a1.4,1.4,0,0,1,.74.21,1,1,0,0,1,0,1.35,1.32,1.32,0,0,1-.74.2h-.63v4.65a1.13,1.13,0,0,1-.28.82,1,1,0,0,1-1.45,0,1.13,1.13,0,0,1-.29-.81Z"/><path class="cls-3" d="M165.2,61.81V57.16h-.45a.81.81,0,0,1-.64-.22.92.92,0,0,1-.23-.65.85.85,0,0,1,.87-.88h.45V54.19a1.07,1.07,0,0,1,.29-.79.92.92,0,0,1,.72-.31.91.91,0,0,1,.72.31,1.13,1.13,0,0,1,.28.81V55.4h.58a1.27,1.27,0,0,1,.68.21,1,1,0,0,1,0,1.35,1.19,1.19,0,0,1-.68.2h-.58v4.65a1.13,1.13,0,0,1-.28.82.94.94,0,0,1-.72.3,1,1,0,0,1-.72-.3,1.09,1.09,0,0,1-.29-.81Z"/><path class="cls-3" d="M168.85,61.81V53.19a1.12,1.12,0,0,1,.29-.8,1,1,0,0,1,1.45,0,1.13,1.13,0,0,1,.28.81v2.73h0a1.52,1.52,0,0,1,.55-.42,2.75,2.75,0,0,1,.69-.21l.3,0,.29,0a2.8,2.8,0,0,1,2,.72,2.53,2.53,0,0,1,.79,2v3.85a1.13,1.13,0,0,1-.28.82,1,1,0,0,1-1.45,0,1.13,1.13,0,0,1-.29-.81V58.3a1.33,1.33,0,0,0-.38-1,1.36,1.36,0,0,0-.93-.35,1.22,1.22,0,0,0-1,.4,1.52,1.52,0,0,0-.33,1v3.5a1.13,1.13,0,0,1-.28.82,1,1,0,0,1-1.45,0,1.13,1.13,0,0,1-.29-.81Z"/><path class="cls-3" d="M178.26,59.79a1.5,1.5,0,0,0,.66,1.12,2.28,2.28,0,0,0,1.25.35,2.09,2.09,0,0,0,.72-.12c.21-.09.42-.18.61-.28s.35-.2.51-.28a.91.91,0,0,1,.44-.13.77.77,0,0,1,.57.27.87.87,0,0,1,.25.6c0,.37-.27.72-.82,1a5.09,5.09,0,0,1-1.82.61l-.33,0H180a3.55,3.55,0,0,1-2.73-1.1,3.83,3.83,0,0,1-1.05-2.76,4.08,4.08,0,0,1,1-2.72,3.26,3.26,0,0,1,2.6-1.19,3.22,3.22,0,0,1,2.36.93,4.15,4.15,0,0,1,1.2,2c0,.11,0,.22,0,.34s0,.23,0,.34a.94.94,0,0,1-.21.67.87.87,0,0,1-.67.22Zm3.16-1.34a1.92,1.92,0,0,0-.49-1.09,1.48,1.48,0,0,0-1.12-.44,1.43,1.43,0,0,0-1.09.45,1.76,1.76,0,0,0-.5,1.08Z"/><path class="cls-3" d="M191.22,55.23a3.3,3.3,0,0,1,2.61,1.2,4.18,4.18,0,0,1,0,5.44,3.57,3.57,0,0,1-5.23,0,4,4,0,0,1-1-2.72,4.08,4.08,0,0,1,1-2.72,3.26,3.26,0,0,1,2.6-1.19Zm-1.12,2.41a2.49,2.49,0,0,0-.46,1.2V59a.76.76,0,0,0,0,.15v.12a.62.62,0,0,0,0,.13,2.58,2.58,0,0,0,.44,1.22,1.45,1.45,0,0,0,2.29,0,2.61,2.61,0,0,0,.44-1.22.71.71,0,0,0,0-.14v-.12a.71.71,0,0,0,0-.14v-.17a2.49,2.49,0,0,0-.46-1.2,1.28,1.28,0,0,0-1.13-.55A1.3,1.3,0,0,0,190.1,57.64Z"/><path class="cls-3" d="M195.66,61.81v-5.5a.89.89,0,0,1,.3-.72,1.24,1.24,0,0,1,.67-.28h.07a1.27,1.27,0,0,1,.69.18.72.72,0,0,1,.29.66h0a2.12,2.12,0,0,1,.61-.62,1.42,1.42,0,0,1,.8-.21,1,1,0,0,1,.67.27,1,1,0,0,1,.31.81.62.62,0,0,1-.21.52,2.61,2.61,0,0,1-.5.27l-.24.09-.25.11h-.05a5.84,5.84,0,0,0-.8.48,1,1,0,0,0-.37.85v3.09a1.2,1.2,0,0,1-.28.82,1,1,0,0,1-1.45,0,1.13,1.13,0,0,1-.29-.81Z"/><path class="cls-3" d="M207.24,56.62v5.22a1.85,1.85,0,0,1,0,.23,1.33,1.33,0,0,1-.23.59.83.83,0,0,1-.72.27.89.89,0,0,1-.65-.22,1.45,1.45,0,0,1-.32-.62,2.55,2.55,0,0,1-.87.69,2.31,2.31,0,0,1-1.05.23A3,3,0,0,1,201,61.93a4.52,4.52,0,0,1,0-5.58,3,3,0,0,1,2.36-1.12,2.64,2.64,0,0,1,1.07.23,2.07,2.07,0,0,1,.85.71.9.9,0,0,1,.32-.61.93.93,0,0,1,.65-.25.81.81,0,0,1,.72.28,1.43,1.43,0,0,1,.23.59,2.09,2.09,0,0,1,0,.24v.21Zm-5.17,2.52v.13a.69.69,0,0,0,0,.13,2.47,2.47,0,0,0,.44,1.22,1.31,1.31,0,0,0,1.14.56,1.26,1.26,0,0,0,1.11-.56,2.56,2.56,0,0,0,.43-1.22.62.62,0,0,0,0-.13V59a.81.81,0,0,1,0-.16,2.48,2.48,0,0,0-.45-1.2,1.23,1.23,0,0,0-1.09-.55,1.3,1.3,0,0,0-1.13.55,2.48,2.48,0,0,0-.45,1.2.81.81,0,0,1,0,.16s0,.1,0,.15Z"/><path class="cls-3" d="M208.36,61.81V53.19a1.12,1.12,0,0,1,.29-.8,1,1,0,0,1,1.45,0,1.17,1.17,0,0,1,.28.81v8.61a1.18,1.18,0,0,1-.28.82,1,1,0,0,1-1.45,0,1.13,1.13,0,0,1-.29-.81Z"/><path class="cls-3" d="M221,56.5a.66.66,0,0,1,0,.14.69.69,0,0,1,0,.13,1.11,1.11,0,0,1-.26.49.58.58,0,0,1-.48.22h-.17l-.17,0-.2-.07-.2-.07-.41-.14a1.63,1.63,0,0,0-.45-.06,1.41,1.41,0,0,0-1.27.64,2.52,2.52,0,0,0-.42,1.42v.11a2.41,2.41,0,0,0,.48,1.32,1.41,1.41,0,0,0,1.21.6,1.24,1.24,0,0,0,.27,0l.28-.08.15,0,.16-.06.38-.15a1,1,0,0,1,.26-.06.85.85,0,0,1,.62.26.84.84,0,0,1,.25.62.93.93,0,0,1-.43.79,3.21,3.21,0,0,1-1,.43,3.25,3.25,0,0,1-.59.12l-.48,0A3.29,3.29,0,0,1,216,61.87a4.18,4.18,0,0,1,0-5.44,3.27,3.27,0,0,1,2.61-1.19l.47,0a3.76,3.76,0,0,1,.55.1,3,3,0,0,1,1,.38.87.87,0,0,1,.45.77Z"/><path class="cls-3" d="M228.62,56.62v5.22a2,2,0,0,1,0,.23,1.13,1.13,0,0,1-.23.59.81.81,0,0,1-.72.27.87.87,0,0,1-.64-.22,1.45,1.45,0,0,1-.32-.62,2.65,2.65,0,0,1-.87.69,2.31,2.31,0,0,1-1,.23,3,3,0,0,1-2.37-1.08,4.52,4.52,0,0,1,0-5.58,3,3,0,0,1,2.36-1.12,2.64,2.64,0,0,1,1.07.23,2.07,2.07,0,0,1,.85.71.86.86,0,0,1,.32-.61.92.92,0,0,1,.64-.25.79.79,0,0,1,.72.28,1.2,1.2,0,0,1,.23.59,2.32,2.32,0,0,1,0,.24v.21Zm-5.17,2.52v.13a.69.69,0,0,0,0,.13,2.38,2.38,0,0,0,.44,1.22,1.29,1.29,0,0,0,1.14.56,1.25,1.25,0,0,0,1.1-.56,2.47,2.47,0,0,0,.44-1.22.62.62,0,0,0,0-.13V59a.81.81,0,0,1,0-.16,2.58,2.58,0,0,0-.45-1.2,1.24,1.24,0,0,0-1.09-.55,1.28,1.28,0,0,0-1.13.55,2.38,2.38,0,0,0-.45,1.2c0,.06,0,.11,0,.16a.76.76,0,0,0,0,.15Z"/><path class="cls-3" d="M231.33,62.09l-2-5.22c0-.09-.06-.17-.08-.25a.71.71,0,0,1,0-.21V56.3a.88.88,0,0,1,.32-.74,1.17,1.17,0,0,1,.72-.25.8.8,0,0,1,.53.17,1.1,1.1,0,0,1,.29.37.39.39,0,0,1,0,.09.32.32,0,0,1,0,.09l1.29,4h0l1.29-4a.24.24,0,0,0,0-.07l0-.09a1.1,1.1,0,0,1,.29-.37.8.8,0,0,1,.53-.17,1.19,1.19,0,0,1,.73.25.85.85,0,0,1,.32.74v.11a.71.71,0,0,1,0,.21,1.86,1.86,0,0,1-.08.26l-2,5.21a1.59,1.59,0,0,1-.36.62,1,1,0,0,1-.73.22,1,1,0,0,1-.73-.22,1.93,1.93,0,0,1-.37-.61Z"/><path class="cls-3" d="M237.21,52.29a1.14,1.14,0,0,1,.79.34,1,1,0,0,1,.35.78,1.14,1.14,0,0,1-.33.82,1.1,1.1,0,0,1-1.6,0,1.1,1.1,0,0,1-.34-.81,1,1,0,0,1,.34-.77,1.13,1.13,0,0,1,.79-.34Zm-1,9.52V56.42a1.13,1.13,0,0,1,.28-.8,1,1,0,0,1,1.45,0,1.17,1.17,0,0,1,.28.82v5.37a1.15,1.15,0,0,1-.28.82,1,1,0,0,1-1.45,0,1.13,1.13,0,0,1-.28-.81Z"/><path class="cls-3" d="M239.83,61.81V57.16h-.45a.78.78,0,0,1-.63-.22,1,1,0,0,1,0-1.28.85.85,0,0,1,.62-.25h.45V54.19a1.11,1.11,0,0,1,.29-.79,1,1,0,0,1,1.45,0,1.17,1.17,0,0,1,.28.81V55.4h.57a1.27,1.27,0,0,1,.68.21.93.93,0,0,1,0,1.35,1.19,1.19,0,0,1-.68.2h-.57v4.65a1.18,1.18,0,0,1-.28.82,1,1,0,0,1-1.45,0,1.13,1.13,0,0,1-.29-.81Z"/><path class="cls-3" d="M243,56.69a.77.77,0,0,1-.06-.23,1.19,1.19,0,0,1,0-.28.76.76,0,0,1,.21-.53,1.2,1.2,0,0,1,.5-.31l.11,0h.11a1.07,1.07,0,0,1,.63.19,1.1,1.1,0,0,1,.38.53l1.39,3.78,1.48-3.8a1.25,1.25,0,0,1,.39-.51,1.06,1.06,0,0,1,.62-.19h.11l.12,0a1.27,1.27,0,0,1,.5.31.73.73,0,0,1,.22.53,1.19,1.19,0,0,1,0,.28.84.84,0,0,1-.07.24l-3.38,8.4a1.58,1.58,0,0,1-.36.56.78.78,0,0,1-.59.24,1,1,0,0,1-.79-.28.86.86,0,0,1-.26-.59.38.38,0,0,1,0-.1v-.1a1.33,1.33,0,0,1,0-.19,1.59,1.59,0,0,0,.07-.2l.88-2.18Z"/><path class="cls-3" d="M253.94,61.81V53.19a1.12,1.12,0,0,1,.29-.8,1,1,0,0,1,1.45,0,1.13,1.13,0,0,1,.28.81v8.61a1.13,1.13,0,0,1-.28.82,1,1,0,0,1-1.45,0,1.13,1.13,0,0,1-.29-.81Z"/><path class="cls-3" d="M258.7,59.79a1.56,1.56,0,0,0,.66,1.12,2.28,2.28,0,0,0,1.25.35,2.09,2.09,0,0,0,.72-.12c.22-.09.42-.18.61-.28s.35-.2.51-.28a.91.91,0,0,1,.44-.13.77.77,0,0,1,.57.27.87.87,0,0,1,.25.6c0,.37-.27.72-.82,1a5.09,5.09,0,0,1-1.82.61l-.33,0h-.32a3.55,3.55,0,0,1-2.73-1.1,3.83,3.83,0,0,1-1.05-2.76,4.08,4.08,0,0,1,1-2.72,3.46,3.46,0,0,1,5-.26,4.13,4.13,0,0,1,1.19,2c0,.11,0,.22.05.34a1.94,1.94,0,0,1,0,.34.94.94,0,0,1-.21.67.87.87,0,0,1-.67.22Zm3.17-1.34a2,2,0,0,0-.5-1.09,1.48,1.48,0,0,0-1.11-.44,1.44,1.44,0,0,0-1.1.45,1.76,1.76,0,0,0-.5,1.08Z"/><path class="cls-3" d="M271.48,56.62v5.22a1.85,1.85,0,0,1,0,.23,1.33,1.33,0,0,1-.23.59.83.83,0,0,1-.72.27.89.89,0,0,1-.65-.22,1.57,1.57,0,0,1-.32-.62,2.55,2.55,0,0,1-.87.69,2.25,2.25,0,0,1-1.05.23,3,3,0,0,1-2.37-1.08,4.08,4.08,0,0,1-1-2.79,4.16,4.16,0,0,1,1-2.79,3,3,0,0,1,2.36-1.12,2.6,2.6,0,0,1,1.07.23,2,2,0,0,1,.85.71,1,1,0,0,1,1-.86.81.81,0,0,1,.72.28,1.43,1.43,0,0,1,.23.59,2.09,2.09,0,0,1,0,.24v.21Zm-5.16,2.52v.13a.62.62,0,0,0,0,.13,2.58,2.58,0,0,0,.44,1.22,1.31,1.31,0,0,0,1.14.56,1.26,1.26,0,0,0,1.11-.56,2.46,2.46,0,0,0,.43-1.22.69.69,0,0,0,0-.13v-.12s0-.1,0-.15,0-.1,0-.16a2.47,2.47,0,0,0-.44-1.2,1.4,1.4,0,0,0-2.22,0,2.49,2.49,0,0,0-.46,1.2.81.81,0,0,1,0,.16v.15Z"/><path class="cls-3" d="M279.52,53.19v8.62a1.13,1.13,0,0,1-.28.82,1,1,0,0,1-.73.3.92.92,0,0,1-.66-.22,1.11,1.11,0,0,1-.35-.61,1.51,1.51,0,0,1-.61.59,3.06,3.06,0,0,1-.83.3l-.2,0h-.2a2.91,2.91,0,0,1-2.43-1.17,4.25,4.25,0,0,1-.89-2.61V59a4.82,4.82,0,0,1,.87-2.61,2.7,2.7,0,0,1,2.38-1.19,3,3,0,0,1,1,.18,2.64,2.64,0,0,1,.89.52V53.19a1.12,1.12,0,0,1,.29-.8,1,1,0,0,1,1.45,0,1.13,1.13,0,0,1,.28.81Zm-2,5.88V59a2.5,2.5,0,0,0-.41-1.31,1.3,1.3,0,0,0-1.17-.6,1.26,1.26,0,0,0-1.07.53,2.58,2.58,0,0,0-.47,1.18c0,.06,0,.11,0,.17s0,.12,0,.18,0,.11,0,.17,0,.12,0,.18a2.47,2.47,0,0,0,.47,1.15,1.38,1.38,0,0,0,2.19,0,2.7,2.7,0,0,0,.45-1.21.91.91,0,0,1,0-.17v-.17Z"/><path class="cls-3" d="M285.74,56.69a.92.92,0,0,1-.24.63.74.74,0,0,1-.59.28.82.82,0,0,1-.35-.1l-.45-.2-.28-.12-.28-.1-.22,0a.9.9,0,0,0-.23,0,.85.85,0,0,0-.47.13.47.47,0,0,0-.21.43.42.42,0,0,0,.22.36,4.05,4.05,0,0,0,.56.3l.47.17.5.2a4.91,4.91,0,0,1,1.2.74,1.6,1.6,0,0,1,.55,1.32,2.11,2.11,0,0,1-.79,1.68,3.06,3.06,0,0,1-2.08.67l-.44,0a3.4,3.4,0,0,1-.46-.09,4,4,0,0,1-1.32-.53,1.07,1.07,0,0,1-.6-.9,1.15,1.15,0,0,1,0-.16.64.64,0,0,1,.08-.19,1.17,1.17,0,0,1,.3-.37.67.67,0,0,1,.47-.17,1.25,1.25,0,0,1,.45.07l.38.19.07,0,.08,0a2.51,2.51,0,0,0,.49.25,1.68,1.68,0,0,0,.62.1,1,1,0,0,0,.63-.14.55.55,0,0,0,.17-.43.45.45,0,0,0-.22-.36,3.11,3.11,0,0,0-.55-.28l-.47-.19-.51-.19a5.17,5.17,0,0,1-1.21-.74,1.67,1.67,0,0,1-.54-1.33,2.13,2.13,0,0,1,.77-1.71,2.93,2.93,0,0,1,2-.65l.4,0a3.73,3.73,0,0,1,.44.08,3.33,3.33,0,0,1,1.15.47,1,1,0,0,1,.53.89Z"/><path class="cls-3" d="M290.87,61.81V57.16h-.44a.79.79,0,0,1-.64-.22.89.89,0,0,1,.64-1.53h.44V54.19a1.11,1.11,0,0,1,.29-.79,1,1,0,0,1,1.45,0,1.13,1.13,0,0,1,.28.81V55.4h.57a1.27,1.27,0,0,1,.68.21.93.93,0,0,1,0,1.35,1.19,1.19,0,0,1-.68.2h-.57v4.65a1.13,1.13,0,0,1-.28.82,1,1,0,0,1-1.45,0,1.13,1.13,0,0,1-.29-.81Z"/><path class="cls-3" d="M297.84,55.23a3.3,3.3,0,0,1,2.61,1.2,4.08,4.08,0,0,1,1,2.72,4,4,0,0,1-1,2.72,3.57,3.57,0,0,1-5.23,0,4,4,0,0,1-1-2.72,4.08,4.08,0,0,1,1-2.72,3.26,3.26,0,0,1,2.6-1.19Zm-1.12,2.41a2.49,2.49,0,0,0-.46,1.2V59a.76.76,0,0,0,0,.15v.12a.62.62,0,0,0,0,.13,2.58,2.58,0,0,0,.44,1.22,1.45,1.45,0,0,0,2.29,0,2.61,2.61,0,0,0,.44-1.22.71.71,0,0,0,0-.14v-.12a.71.71,0,0,0,0-.14v-.17a2.49,2.49,0,0,0-.46-1.2,1.28,1.28,0,0,0-1.13-.55A1.3,1.3,0,0,0,296.72,57.64Z"/><path class="cls-3" d="M306.06,61.81V56.42a1.14,1.14,0,0,1,.29-.8,1,1,0,0,1,.72-.31,1,1,0,0,1,.63.2.88.88,0,0,1,.3.56,2.48,2.48,0,0,1,.83-.62,2.43,2.43,0,0,1,1-.22,2.63,2.63,0,0,1,1.16.26,2.6,2.6,0,0,1,.93.76,3,3,0,0,1,.6-.52,3.2,3.2,0,0,1,.69-.35l.43-.11a1.87,1.87,0,0,1,.4,0,2.86,2.86,0,0,1,2,.69,2.61,2.61,0,0,1,.76,2v3.86a1.15,1.15,0,0,1-.28.82.94.94,0,0,1-.73.3,1,1,0,0,1-.72-.3,1.13,1.13,0,0,1-.28-.81V58.3a1.51,1.51,0,0,0-.32-1,1,1,0,0,0-.86-.39,1.06,1.06,0,0,0-.87.39,1.54,1.54,0,0,0-.32,1v3.5a1.13,1.13,0,0,1-.28.82,1,1,0,0,1-1.45,0,1.13,1.13,0,0,1-.28-.81V58.3a1.51,1.51,0,0,0-.32-1,1.05,1.05,0,0,0-.86-.39,1,1,0,0,0-.9.39,1.58,1.58,0,0,0-.29,1v3.5a1.13,1.13,0,0,1-.28.82,1,1,0,0,1-1.45,0,1.13,1.13,0,0,1-.29-.81Z"/><path class="cls-3" d="M321.31,55.23a3.3,3.3,0,0,1,2.6,1.2,4.08,4.08,0,0,1,1,2.72,4,4,0,0,1-1,2.72,3.58,3.58,0,0,1-5.24,0,4.2,4.2,0,0,1,0-5.44,3.26,3.26,0,0,1,2.6-1.19Zm-1.13,2.41a2.38,2.38,0,0,0-.45,1.2c0,.06,0,.11,0,.16a.76.76,0,0,0,0,.15v.12a.69.69,0,0,0,0,.13,2.38,2.38,0,0,0,.44,1.22,1.29,1.29,0,0,0,1.14.56,1.31,1.31,0,0,0,1.14-.56,2.51,2.51,0,0,0,.44-1.22.78.78,0,0,0,0-.14v-.12s0-.09,0-.14a1,1,0,0,1,0-.17,2.58,2.58,0,0,0-.45-1.2,1.3,1.3,0,0,0-1.13-.55A1.31,1.31,0,0,0,320.18,57.64Z"/><path class="cls-3" d="M325.75,61.81v-5.5a.89.89,0,0,1,.3-.72,1.21,1.21,0,0,1,.66-.28h.07a1.3,1.3,0,0,1,.7.18.72.72,0,0,1,.28.66h0a2.25,2.25,0,0,1,.61-.62,1.48,1.48,0,0,1,.81-.21,1,1,0,0,1,.67.27,1,1,0,0,1,.31.81.62.62,0,0,1-.21.52,2.7,2.7,0,0,1-.51.27l-.24.09-.25.11h0a5.4,5.4,0,0,0-.81.48,1,1,0,0,0-.37.85v3.09a1.15,1.15,0,0,1-.28.82.94.94,0,0,1-.73.3,1,1,0,0,1-.72-.3,1.13,1.13,0,0,1-.28-.81Z"/><path class="cls-3" d="M332.06,59.79a1.56,1.56,0,0,0,.66,1.12,2.27,2.27,0,0,0,1.24.35,2.11,2.11,0,0,0,.73-.12,5.62,5.62,0,0,0,.6-.28l.52-.28a.91.91,0,0,1,.44-.13.77.77,0,0,1,.57.27.87.87,0,0,1,.25.6c0,.37-.27.72-.82,1a5.09,5.09,0,0,1-1.82.61l-.33,0h-.32a3.55,3.55,0,0,1-2.73-1.1A3.83,3.83,0,0,1,330,59.15a4.08,4.08,0,0,1,1-2.72,3.27,3.27,0,0,1,2.61-1.19,3.21,3.21,0,0,1,2.35.93,4.15,4.15,0,0,1,1.2,2c0,.11,0,.22.05.34s0,.23,0,.34a.94.94,0,0,1-.21.67.87.87,0,0,1-.67.22Zm3.17-1.34a2,2,0,0,0-.5-1.09,1.48,1.48,0,0,0-1.11-.44,1.44,1.44,0,0,0-1.1.45,1.76,1.76,0,0,0-.5,1.08Z"/><path class="cls-3" d="M107.56,77.81V69.19a1.12,1.12,0,0,1,.29-.8,1,1,0,0,1,1.45,0,1.13,1.13,0,0,1,.28.81v8.61a1.13,1.13,0,0,1-.28.82,1,1,0,0,1-1.45,0,1.13,1.13,0,0,1-.29-.81Z"/><path class="cls-3" d="M117.59,72.62v5.22c0,.07,0,.15,0,.23a1.23,1.23,0,0,1-.24.59.81.81,0,0,1-.72.27.87.87,0,0,1-.64-.22,1.45,1.45,0,0,1-.32-.62,2.55,2.55,0,0,1-.87.69,2.31,2.31,0,0,1-1.05.23,3,3,0,0,1-2.37-1.08,4.52,4.52,0,0,1,0-5.58,3,3,0,0,1,2.36-1.12,2.64,2.64,0,0,1,1.07.23,2.07,2.07,0,0,1,.85.71.86.86,0,0,1,.32-.61.92.92,0,0,1,.64-.25.79.79,0,0,1,.72.28,1.32,1.32,0,0,1,.24.59c0,.09,0,.17,0,.24v.21Zm-5.17,2.52v.13a.69.69,0,0,0,0,.13,2.38,2.38,0,0,0,.44,1.22,1.41,1.41,0,0,0,2.25,0,2.56,2.56,0,0,0,.43-1.22.62.62,0,0,0,0-.13V75a.81.81,0,0,1,0-.16,2.58,2.58,0,0,0-.45-1.2,1.23,1.23,0,0,0-1.09-.55,1.28,1.28,0,0,0-1.13.55,2.38,2.38,0,0,0-.45,1.2c0,.06,0,.11,0,.16a.76.76,0,0,0,0,.15Z"/><path class="cls-3" d="M119.23,77.81V73.16h-.45a.81.81,0,0,1-.64-.22.92.92,0,0,1-.23-.65.85.85,0,0,1,.87-.88h.45V70.19a1.11,1.11,0,0,1,.28-.79,1,1,0,0,1,.72-.31.92.92,0,0,1,.73.31,1.13,1.13,0,0,1,.28.81V71.4h.58a1.3,1.3,0,0,1,.68.21,1,1,0,0,1,0,1.35,1.21,1.21,0,0,1-.68.2h-.58v4.65a1.13,1.13,0,0,1-.28.82.94.94,0,0,1-.73.3,1,1,0,0,1-.72-.3,1.13,1.13,0,0,1-.28-.81Z"/><path class="cls-3" d="M124.5,75.79a1.56,1.56,0,0,0,.66,1.12,2.31,2.31,0,0,0,1.25.35,2.09,2.09,0,0,0,.72-.12c.22-.09.42-.18.61-.28s.36-.2.52-.28a.88.88,0,0,1,.43-.13.74.74,0,0,1,.57.27.88.88,0,0,1,.26.6c0,.37-.28.72-.83,1a5.09,5.09,0,0,1-1.82.61l-.33,0h-.31a3.57,3.57,0,0,1-2.74-1.1,3.82,3.82,0,0,1-1-2.76,4.07,4.07,0,0,1,1-2.72,3.28,3.28,0,0,1,2.61-1.19,3.23,3.23,0,0,1,2.36.93,4.05,4.05,0,0,1,1.19,2c0,.11,0,.22,0,.34a1.94,1.94,0,0,1,0,.34.94.94,0,0,1-.21.67.87.87,0,0,1-.67.22Zm3.17-1.34a1.93,1.93,0,0,0-.5-1.09,1.59,1.59,0,0,0-2.21,0,1.76,1.76,0,0,0-.5,1.08Z"/><path class="cls-3" d="M130.37,77.81v-5.5a.89.89,0,0,1,.3-.72,1.21,1.21,0,0,1,.67-.28h.07a1.27,1.27,0,0,1,.69.18.72.72,0,0,1,.29.66h0a2.25,2.25,0,0,1,.61-.62,1.48,1.48,0,0,1,.81-.21,1,1,0,0,1,1,1.08.62.62,0,0,1-.21.52,2.43,2.43,0,0,1-.51.27l-.23.09-.26.11h0s0,0,0,0a4.84,4.84,0,0,0-.8.48,1,1,0,0,0-.37.85v3.09a1.2,1.2,0,0,1-.28.82,1,1,0,0,1-1.45,0,1.13,1.13,0,0,1-.29-.81Z"/><path class="cls-3" d="M142,72.62v5.22a2,2,0,0,1,0,.23,1.13,1.13,0,0,1-.23.59.81.81,0,0,1-.72.27.87.87,0,0,1-.64-.22,1.45,1.45,0,0,1-.32-.62,2.76,2.76,0,0,1-.87.69,2.31,2.31,0,0,1-1.05.23,3.07,3.07,0,0,1-2.38-1.08,4.53,4.53,0,0,1,0-5.58,3,3,0,0,1,2.36-1.12,2.64,2.64,0,0,1,1.07.23,2.07,2.07,0,0,1,.85.71.86.86,0,0,1,.32-.61.91.91,0,0,1,.64-.25.79.79,0,0,1,.72.28,1.2,1.2,0,0,1,.23.59,2.32,2.32,0,0,1,0,.24v.21Zm-5.17,2.52v.13a.69.69,0,0,0,0,.13,2.38,2.38,0,0,0,.44,1.22,1.29,1.29,0,0,0,1.14.56,1.25,1.25,0,0,0,1.1-.56,2.47,2.47,0,0,0,.44-1.22.62.62,0,0,0,0-.13v-.12a.76.76,0,0,0,0-.15v-.16a2.58,2.58,0,0,0-.45-1.2,1.24,1.24,0,0,0-1.09-.55,1.28,1.28,0,0,0-1.13.55,2.38,2.38,0,0,0-.45,1.2c0,.06,0,.11,0,.16a.76.76,0,0,0,0,.15Z"/><path class="cls-3" d="M143.07,77.81V69.19a1.08,1.08,0,0,1,.29-.8.92.92,0,0,1,.72-.31.9.9,0,0,1,.72.31,1.13,1.13,0,0,1,.28.81v8.61a1.13,1.13,0,0,1-.28.82.92.92,0,0,1-.72.3,1,1,0,0,1-.72-.3,1.09,1.09,0,0,1-.29-.81Z"/><path class="cls-3" d="M150.45,77.81V73.16H150a.8.8,0,0,1-.64-.22.92.92,0,0,1-.23-.65.85.85,0,0,1,.87-.88h.45V70.19a1.11,1.11,0,0,1,.28-.79,1,1,0,0,1,1.45,0,1.13,1.13,0,0,1,.28.81V71.4H153a1.24,1.24,0,0,1,.67.21.93.93,0,0,1,0,1.35,1.15,1.15,0,0,1-.67.2h-.58v4.65a1.13,1.13,0,0,1-.28.82,1,1,0,0,1-1.45,0,1.13,1.13,0,0,1-.28-.81Z"/><path class="cls-3" d="M157.42,71.23a3.3,3.3,0,0,1,2.6,1.2,4.08,4.08,0,0,1,1,2.72,4,4,0,0,1-1,2.72,3.58,3.58,0,0,1-5.24,0,4.22,4.22,0,0,1,0-5.44,3.28,3.28,0,0,1,2.61-1.19Zm-1.13,2.41a2.38,2.38,0,0,0-.45,1.2c0,.06,0,.11,0,.16a.76.76,0,0,0,0,.15v.12a.69.69,0,0,0,0,.13,2.38,2.38,0,0,0,.44,1.22,1.29,1.29,0,0,0,1.14.56,1.31,1.31,0,0,0,1.14-.56A2.51,2.51,0,0,0,159,75.4a.71.71,0,0,0,0-.14V75a1,1,0,0,1,0-.17,2.49,2.49,0,0,0-.46-1.2,1.27,1.27,0,0,0-1.12-.55A1.31,1.31,0,0,0,156.29,73.64Z"/><path class="cls-3" d="M161.88,77.81V72.42a1.14,1.14,0,0,1,.29-.8,1,1,0,0,1,.72-.31,1,1,0,0,1,.63.2.86.86,0,0,1,.3.55,1.85,1.85,0,0,1,.76-.62,3.22,3.22,0,0,1,3.16.5,2.6,2.6,0,0,1,.78,2v3.86a1.15,1.15,0,0,1-.28.82,1,1,0,0,1-1.45,0,1.13,1.13,0,0,1-.29-.81V74.3a1.29,1.29,0,0,0-.38-1,1.36,1.36,0,0,0-.93-.35,1.19,1.19,0,0,0-.95.4,1.47,1.47,0,0,0-.34,1v3.5a1.13,1.13,0,0,1-.28.82,1,1,0,0,1-1.45,0,1.13,1.13,0,0,1-.29-.81Z"/><path class="cls-3" d="M176.56,72.42v5.84A3.38,3.38,0,0,1,175.48,81a4.23,4.23,0,0,1-2.8.91,6,6,0,0,1-.63-.05,6.43,6.43,0,0,1-.81-.16,4.58,4.58,0,0,1-1.2-.49.93.93,0,0,1-.54-.81.49.49,0,0,1,0-.12l0-.12a1.24,1.24,0,0,1,.28-.42.88.88,0,0,1,.42-.23h.07a1.53,1.53,0,0,1,.5.1l.57.23L172,80a3.24,3.24,0,0,0,.79.09,1.81,1.81,0,0,0,1.23-.41,1.45,1.45,0,0,0,.48-1.17v-.49h0a1.91,1.91,0,0,1-.82.72,3,3,0,0,1-1.21.23,2.6,2.6,0,0,1-2.34-1.17,4.83,4.83,0,0,1-.77-2.68,4.43,4.43,0,0,1,.9-2.73,2.86,2.86,0,0,1,2.42-1.2h.2l.21,0a2.46,2.46,0,0,1,.82.3,1.6,1.6,0,0,1,.62.59,1.17,1.17,0,0,1,.34-.62,1,1,0,0,1,.67-.22,1,1,0,0,1,.73.31,1.21,1.21,0,0,1,.28.82Zm-2,2.76a.92.92,0,0,0,0-.16v-.16a2.7,2.7,0,0,0-.45-1.22,1.29,1.29,0,0,0-1.12-.55,1.24,1.24,0,0,0-1.07.53,2.37,2.37,0,0,0-.47,1.15,1.1,1.1,0,0,0,0,.18,1,1,0,0,0,0,.17,2.68,2.68,0,0,0,.39,1.44,1.44,1.44,0,0,0,2.35,0,2.59,2.59,0,0,0,.41-1.3v-.09Z"/><path class="cls-3" d="M177.7,76.07V72.42a1.14,1.14,0,0,1,.29-.8,1,1,0,0,1,1.45,0,1.17,1.17,0,0,1,.28.82V76a1.19,1.19,0,0,0,.4,1,1.33,1.33,0,0,0,.9.34,1.31,1.31,0,0,0,.9-.34,1.18,1.18,0,0,0,.4-1V72.42a1.16,1.16,0,0,1,.29-.8,1,1,0,0,1,1.45,0,1.17,1.17,0,0,1,.28.82v3.63a2.79,2.79,0,0,1-.86,2.15,4.23,4.23,0,0,1-4.92,0,2.78,2.78,0,0,1-.86-2.14Z"/><path class="cls-3" d="M187.11,75.79a1.56,1.56,0,0,0,.66,1.12,2.28,2.28,0,0,0,1.25.35,2.09,2.09,0,0,0,.72-.12c.22-.09.42-.18.61-.28s.35-.2.51-.28a.91.91,0,0,1,.44-.13.77.77,0,0,1,.57.27.87.87,0,0,1,.25.6c0,.37-.27.72-.82,1a5.09,5.09,0,0,1-1.82.61l-.33,0h-.32a3.55,3.55,0,0,1-2.73-1.1,3.83,3.83,0,0,1-1-2.76,4.08,4.08,0,0,1,1-2.72,3.27,3.27,0,0,1,2.61-1.19,3.21,3.21,0,0,1,2.35.93,4.15,4.15,0,0,1,1.2,2c0,.11,0,.22.05.34s0,.23,0,.34a.94.94,0,0,1-.21.67.87.87,0,0,1-.67.22Zm3.17-1.34a2,2,0,0,0-.5-1.09,1.48,1.48,0,0,0-1.11-.44,1.44,1.44,0,0,0-1.1.45,1.76,1.76,0,0,0-.5,1.08Z"/><path class="cls-3" d="M196.76,77.81V72.42a1.13,1.13,0,0,1,.28-.8,1,1,0,0,1,.73-.31,1,1,0,0,1,.63.2.92.92,0,0,1,.29.56,2.48,2.48,0,0,1,1.88-.84,2.56,2.56,0,0,1,2.08,1,3.21,3.21,0,0,1,1.29-.87l.43-.11a2,2,0,0,1,.41,0,2.83,2.83,0,0,1,2,.69,2.62,2.62,0,0,1,.77,2v3.86a1.2,1.2,0,0,1-.28.82,1,1,0,0,1-1.45,0,1.13,1.13,0,0,1-.29-.81V74.3a1.5,1.5,0,0,0-.31-1,1.05,1.05,0,0,0-.86-.39,1.06,1.06,0,0,0-.88.39,1.53,1.53,0,0,0-.31,1v3.5a1.18,1.18,0,0,1-.28.82,1,1,0,0,1-1.45,0,1.13,1.13,0,0,1-.29-.81V74.3a1.51,1.51,0,0,0-.32-1,1.19,1.19,0,0,0-1.76,0,1.65,1.65,0,0,0-.29,1v3.5a1.13,1.13,0,0,1-.28.82.94.94,0,0,1-.72.3,1,1,0,0,1-.73-.3,1.13,1.13,0,0,1-.28-.81Z"/><path class="cls-3" d="M212,71.23a3.3,3.3,0,0,1,2.61,1.2,4.18,4.18,0,0,1,0,5.44,3.57,3.57,0,0,1-5.23,0,4,4,0,0,1-1-2.72,4.08,4.08,0,0,1,1-2.72,3.26,3.26,0,0,1,2.6-1.19Zm-1.12,2.41a2.49,2.49,0,0,0-.46,1.2.81.81,0,0,1,0,.16v.27a.62.62,0,0,0,0,.13,2.58,2.58,0,0,0,.44,1.22,1.31,1.31,0,0,0,1.14.56,1.29,1.29,0,0,0,1.14-.56,2.41,2.41,0,0,0,.44-1.22.78.78,0,0,0,0-.14v-.12a.71.71,0,0,0,0-.14c0-.06,0-.11,0-.17a2.38,2.38,0,0,0-.45-1.2,1.28,1.28,0,0,0-1.13-.55A1.3,1.3,0,0,0,210.88,73.64Z"/><path class="cls-3" d="M218,78.09l-2-5.22a1.52,1.52,0,0,1-.09-.25.71.71,0,0,1,0-.21V72.3a.87.87,0,0,1,.31-.74,1.17,1.17,0,0,1,.72-.25.78.78,0,0,1,.53.17,1.29,1.29,0,0,1,.3.37.46.46,0,0,1,0,.09.36.36,0,0,1,0,.09l1.29,4h0l1.29-4,0-.07a.46.46,0,0,1,0-.09,1.29,1.29,0,0,1,.3-.37.78.78,0,0,1,.53-.17,1.22,1.22,0,0,1,.73.25.88.88,0,0,1,.32.74v.11c0,.07,0,.15,0,.21a2,2,0,0,1-.09.26l-2,5.21a1.47,1.47,0,0,1-.36.62,1,1,0,0,1-.73.22,1,1,0,0,1-.73-.22,1.76,1.76,0,0,1-.36-.61Z"/><path class="cls-3" d="M224.56,75.79a1.56,1.56,0,0,0,.66,1.12,2.27,2.27,0,0,0,1.24.35,2.11,2.11,0,0,0,.73-.12,5.62,5.62,0,0,0,.6-.28l.52-.28a.91.91,0,0,1,.44-.13.77.77,0,0,1,.57.27.87.87,0,0,1,.25.6c0,.37-.27.72-.82,1a5.09,5.09,0,0,1-1.82.61l-.33,0h-.32a3.55,3.55,0,0,1-2.73-1.1,3.83,3.83,0,0,1-1.05-2.76,4.08,4.08,0,0,1,1-2.72,3.27,3.27,0,0,1,2.61-1.19,3.21,3.21,0,0,1,2.35.93,4.15,4.15,0,0,1,1.2,2c0,.11,0,.22.05.34s0,.23,0,.34a.94.94,0,0,1-.21.67.87.87,0,0,1-.67.22Zm3.17-1.34a2,2,0,0,0-.5-1.09,1.48,1.48,0,0,0-1.11-.44,1.44,1.44,0,0,0-1.1.45,1.76,1.76,0,0,0-.5,1.08Z"/><path class="cls-3" d="M230.46,77.81V72.42a1.13,1.13,0,0,1,.28-.8,1,1,0,0,1,.72-.31,1,1,0,0,1,.63.2.88.88,0,0,1,.3.56,2.42,2.42,0,0,1,.84-.62,2.35,2.35,0,0,1,1-.22,2.63,2.63,0,0,1,1.16.26,2.6,2.6,0,0,1,.93.76,3.73,3.73,0,0,1,.6-.52,3.2,3.2,0,0,1,.69-.35l.43-.11a2,2,0,0,1,.41,0,2.85,2.85,0,0,1,2,.69,2.61,2.61,0,0,1,.76,2v3.86a1.19,1.19,0,0,1-.27.82,1,1,0,0,1-1.45,0,1.09,1.09,0,0,1-.29-.81V74.3a1.51,1.51,0,0,0-.32-1,1,1,0,0,0-.86-.39,1.06,1.06,0,0,0-.87.39,1.54,1.54,0,0,0-.32,1v3.5a1.13,1.13,0,0,1-.28.82.94.94,0,0,1-.73.3,1,1,0,0,1-.72-.3,1.13,1.13,0,0,1-.28-.81V74.3a1.51,1.51,0,0,0-.32-1,1.05,1.05,0,0,0-.86-.39,1,1,0,0,0-.9.39,1.65,1.65,0,0,0-.29,1v3.5a1.13,1.13,0,0,1-.28.82,1,1,0,0,1-1.45,0,1.13,1.13,0,0,1-.28-.81Z"/><path class="cls-3" d="M244,75.79a1.5,1.5,0,0,0,.66,1.12,2.25,2.25,0,0,0,1.24.35,2.09,2.09,0,0,0,.72-.12c.22-.09.42-.18.61-.28l.52-.28a.88.88,0,0,1,.43-.13.77.77,0,0,1,.58.27.91.91,0,0,1,.25.6c0,.37-.28.72-.83,1a5,5,0,0,1-1.82.61L246,79h-.31a3.59,3.59,0,0,1-2.74-1.1,3.86,3.86,0,0,1-1-2.76,4,4,0,0,1,1-2.72,3.45,3.45,0,0,1,5-.26,4.15,4.15,0,0,1,1.2,2c0,.11,0,.22,0,.34s0,.23,0,.34a.94.94,0,0,1-.21.67.9.9,0,0,1-.68.22Zm3.16-1.34a1.93,1.93,0,0,0-.5-1.09,1.59,1.59,0,0,0-2.21,0,1.81,1.81,0,0,0-.5,1.08Z"/><path class="cls-3" d="M249.9,77.81V72.42a1.14,1.14,0,0,1,.29-.8,1,1,0,0,1,.72-.31,1,1,0,0,1,.63.2.85.85,0,0,1,.29.55,1.92,1.92,0,0,1,.76-.62,3,3,0,0,1,1.19-.21,2.84,2.84,0,0,1,2,.71,2.61,2.61,0,0,1,.79,2v3.86a1.2,1.2,0,0,1-.28.82,1,1,0,0,1-1.45,0,1.13,1.13,0,0,1-.29-.81V74.3a1.3,1.3,0,0,0-.39-1,1.33,1.33,0,0,0-.93-.35,1.2,1.2,0,0,0-.95.4,1.52,1.52,0,0,0-.33,1v3.5a1.18,1.18,0,0,1-.28.82,1,1,0,0,1-1.45,0,1.13,1.13,0,0,1-.29-.81Z"/><path class="cls-3" d="M258.17,77.81V73.16h-.44a.8.8,0,0,1-.64-.22.92.92,0,0,1-.23-.65.88.88,0,0,1,.24-.63.88.88,0,0,1,.63-.25h.44V70.19a1.11,1.11,0,0,1,.29-.79,1,1,0,0,1,1.45,0,1.13,1.13,0,0,1,.28.81V71.4h.57a1.24,1.24,0,0,1,.68.21.93.93,0,0,1,0,1.35,1.16,1.16,0,0,1-.68.2h-.57v4.65a1.13,1.13,0,0,1-.28.82,1,1,0,0,1-1.45,0,1.13,1.13,0,0,1-.29-.81Z"/><path class="cls-3" d="M266.07,77.81V73.16h-.45a.81.81,0,0,1-.64-.22.92.92,0,0,1-.23-.65.89.89,0,0,1,.25-.63.85.85,0,0,1,.62-.25h.45V70.19a1.11,1.11,0,0,1,.29-.79,1,1,0,0,1,1.45,0,1.17,1.17,0,0,1,.28.81V71.4h.57a1.27,1.27,0,0,1,.68.21.93.93,0,0,1,0,1.35,1.19,1.19,0,0,1-.68.2h-.57v4.65a1.18,1.18,0,0,1-.28.82,1,1,0,0,1-1.45,0,1.13,1.13,0,0,1-.29-.81Z"/><path class="cls-3" d="M273,71.23a3.32,3.32,0,0,1,2.61,1.2,4.22,4.22,0,0,1,0,5.44,3.58,3.58,0,0,1-5.24,0,4,4,0,0,1-1-2.72,4.08,4.08,0,0,1,1-2.72,3.26,3.26,0,0,1,2.6-1.19Zm-1.12,2.41a2.49,2.49,0,0,0-.46,1.2.81.81,0,0,1,0,.16v.27a.62.62,0,0,0,0,.13,2.47,2.47,0,0,0,.44,1.22,1.31,1.31,0,0,0,1.14.56,1.29,1.29,0,0,0,1.14-.56,2.41,2.41,0,0,0,.44-1.22.78.78,0,0,0,0-.14v-.12a.71.71,0,0,0,0-.14c0-.06,0-.11,0-.17a2.38,2.38,0,0,0-.45-1.2,1.28,1.28,0,0,0-1.13-.55A1.3,1.3,0,0,0,271.92,73.64Z"/><path class="cls-3" d="M281.26,77.81V69.19a1.12,1.12,0,0,1,.29-.8,1,1,0,0,1,1.45,0,1.17,1.17,0,0,1,.28.81v2.73a3.08,3.08,0,0,1,.9-.51,3,3,0,0,1,1-.18,2.7,2.7,0,0,1,2.38,1.19,4.9,4.9,0,0,1,.87,2.61v.19a4.25,4.25,0,0,1-.89,2.61A2.91,2.91,0,0,1,285.12,79h-.2l-.2,0a3.06,3.06,0,0,1-.83-.3,1.45,1.45,0,0,1-.61-.59,1.11,1.11,0,0,1-.35.61.92.92,0,0,1-.66.22,1,1,0,0,1-.72-.3,1.13,1.13,0,0,1-.29-.81Zm2-2.74v.18a.91.91,0,0,1,0,.17,2.7,2.7,0,0,0,.45,1.21,1.25,1.25,0,0,0,1.12.55,1.27,1.27,0,0,0,1.07-.53,2.47,2.47,0,0,0,.47-1.15c0-.06,0-.11,0-.18s0-.11,0-.17,0-.11,0-.18,0-.11,0-.17a2.58,2.58,0,0,0-.47-1.18,1.27,1.27,0,0,0-1.07-.53,1.29,1.29,0,0,0-1.17.6,2.42,2.42,0,0,0-.41,1.31v.08Z"/><path class="cls-3" d="M289.27,77.81v-5.5a.89.89,0,0,1,.3-.72,1.21,1.21,0,0,1,.66-.28h.07a1.3,1.3,0,0,1,.7.18.72.72,0,0,1,.28.66h0a2.25,2.25,0,0,1,.61-.62,1.48,1.48,0,0,1,.81-.21,1,1,0,0,1,.67.27,1,1,0,0,1,.31.81.62.62,0,0,1-.21.52,2.43,2.43,0,0,1-.51.27l-.24.09-.25.11h0s0,0,0,0a5.4,5.4,0,0,0-.81.48,1,1,0,0,0-.37.85v3.09a1.15,1.15,0,0,1-.28.82.94.94,0,0,1-.72.3,1,1,0,0,1-.73-.3,1.13,1.13,0,0,1-.28-.81Z"/><path class="cls-3" d="M295.58,75.79a1.56,1.56,0,0,0,.66,1.12,2.28,2.28,0,0,0,1.25.35,2.09,2.09,0,0,0,.72-.12c.22-.09.42-.18.61-.28s.35-.2.51-.28a.91.91,0,0,1,.44-.13.77.77,0,0,1,.57.27.87.87,0,0,1,.25.6c0,.37-.27.72-.82,1A5.09,5.09,0,0,1,298,79l-.33,0h-.32a3.55,3.55,0,0,1-2.73-1.1,3.83,3.83,0,0,1-1.05-2.76,4.08,4.08,0,0,1,1-2.72,3.46,3.46,0,0,1,5-.26,4.13,4.13,0,0,1,1.19,2c0,.11,0,.22.05.34s0,.23,0,.34a.94.94,0,0,1-.21.67.87.87,0,0,1-.67.22Zm3.17-1.34a2,2,0,0,0-.5-1.09,1.48,1.48,0,0,0-1.11-.44,1.44,1.44,0,0,0-1.1.45,1.76,1.76,0,0,0-.5,1.08Z"/><path class="cls-3" d="M308.36,72.62v5.22a1.85,1.85,0,0,1,0,.23,1.33,1.33,0,0,1-.23.59.83.83,0,0,1-.72.27.89.89,0,0,1-.65-.22,1.57,1.57,0,0,1-.32-.62,2.55,2.55,0,0,1-.87.69,2.25,2.25,0,0,1-1.05.23,3,3,0,0,1-2.37-1.08,4.08,4.08,0,0,1-1-2.79,4.16,4.16,0,0,1,1-2.79,3,3,0,0,1,2.36-1.12,2.6,2.6,0,0,1,1.07.23,2,2,0,0,1,.85.71,1,1,0,0,1,1-.86.81.81,0,0,1,.72.28,1.43,1.43,0,0,1,.23.59,2.09,2.09,0,0,1,0,.24v.21Zm-5.16,2.52v.13a.62.62,0,0,0,0,.13,2.58,2.58,0,0,0,.44,1.22,1.31,1.31,0,0,0,1.14.56,1.26,1.26,0,0,0,1.11-.56,2.46,2.46,0,0,0,.43-1.22.69.69,0,0,0,0-.13v-.12c0-.05,0-.1,0-.15s0-.1,0-.16a2.47,2.47,0,0,0-.44-1.2,1.4,1.4,0,0,0-2.22,0,2.49,2.49,0,0,0-.46,1.2.81.81,0,0,1,0,.16v.15Z"/><path class="cls-3" d="M309.51,77.81V69.19a1.12,1.12,0,0,1,.29-.8,1,1,0,0,1,1.45,0,1.17,1.17,0,0,1,.28.81v4.68l2.21-2.15a1.67,1.67,0,0,1,.48-.32,1.21,1.21,0,0,1,.43-.1.75.75,0,0,1,.6.28.94.94,0,0,1,.25.59v0a1.24,1.24,0,0,1,0,.27.76.76,0,0,1-.12.26l-.11.13a1.59,1.59,0,0,1-.13.13l-1.79,1.59,2.37,2.78a.79.79,0,0,1,.14.23,1,1,0,0,1,.08.23.43.43,0,0,1,0,.11.45.45,0,0,1,0,.11.88.88,0,0,1-.28.67A.9.9,0,0,1,315,79a.81.81,0,0,1-.35-.07,1.3,1.3,0,0,1-.31-.19l-.15-.16-.16-.18-2.46-3h0v2.45a1.18,1.18,0,0,1-.28.82,1,1,0,0,1-1.45,0,1.13,1.13,0,0,1-.29-.81Z"/><path class="cls-3" d="M320.73,77.81V73.16h-.45a.8.8,0,0,1-.64-.22.92.92,0,0,1-.23-.65.84.84,0,0,1,.87-.88h.45v-1a2.25,2.25,0,0,1,.59-1.69,2.08,2.08,0,0,1,1.52-.59,2.37,2.37,0,0,1,1,.19.72.72,0,0,1,.43.72.91.91,0,0,1-.2.64.86.86,0,0,1-.63.21,1.18,1.18,0,0,0-.46.09c-.14.07-.21.28-.21.66v.81h.63a1.38,1.38,0,0,1,.74.21,1,1,0,0,1,0,1.35,1.29,1.29,0,0,1-.74.2h-.63v4.65a1.13,1.13,0,0,1-.28.82,1,1,0,0,1-1.45,0,1.13,1.13,0,0,1-.28-.81Z"/><path class="cls-3" d="M327.72,71.23a3.3,3.3,0,0,1,2.61,1.2,4.08,4.08,0,0,1,1,2.72,4,4,0,0,1-1,2.72,3.57,3.57,0,0,1-5.23,0,4,4,0,0,1-1-2.72,4.08,4.08,0,0,1,1-2.72,3.26,3.26,0,0,1,2.6-1.19Zm-1.12,2.41a2.49,2.49,0,0,0-.46,1.2V75a.76.76,0,0,0,0,.15v.12a.62.62,0,0,0,0,.13,2.58,2.58,0,0,0,.44,1.22,1.45,1.45,0,0,0,2.29,0,2.61,2.61,0,0,0,.44-1.22.71.71,0,0,0,0-.14v-.12a.71.71,0,0,0,0-.14v-.17a2.49,2.49,0,0,0-.46-1.2,1.28,1.28,0,0,0-1.13-.55A1.3,1.3,0,0,0,326.6,73.64Z"/><path class="cls-3" d="M335.51,71.23a3.3,3.3,0,0,1,2.6,1.2,4.2,4.2,0,0,1,0,5.44,3.58,3.58,0,0,1-5.24,0,4.2,4.2,0,0,1,0-5.44,3.26,3.26,0,0,1,2.6-1.19Zm-1.13,2.41a2.48,2.48,0,0,0-.45,1.2c0,.06,0,.11,0,.16s0,.1,0,.15v.12a.69.69,0,0,0,0,.13,2.38,2.38,0,0,0,.44,1.22,1.44,1.44,0,0,0,2.28,0,2.51,2.51,0,0,0,.44-1.22.78.78,0,0,0,0-.14v-.12s0-.09,0-.14a1,1,0,0,1,0-.17,2.58,2.58,0,0,0-.45-1.2,1.3,1.3,0,0,0-1.13-.55A1.31,1.31,0,0,0,334.38,73.64Z"/><path class="cls-3" d="M346.86,69.19v8.62a1.13,1.13,0,0,1-.28.82.94.94,0,0,1-.72.3,1,1,0,0,1-.67-.22,1.1,1.1,0,0,1-.34-.61,1.53,1.53,0,0,1-.62.59,3.11,3.11,0,0,1-.82.3l-.21,0H343a2.87,2.87,0,0,1-2.42-1.17,4.2,4.2,0,0,1-.9-2.61V75a4.9,4.9,0,0,1,.87-2.61,2.7,2.7,0,0,1,2.38-1.19,3,3,0,0,1,1,.18,2.74,2.74,0,0,1,.89.52V69.19a1.12,1.12,0,0,1,.28-.8,1,1,0,0,1,.73-.31.91.91,0,0,1,.72.31,1.13,1.13,0,0,1,.28.81Zm-2,5.88V75a2.51,2.51,0,0,0-.42-1.31,1.39,1.39,0,0,0-2.24-.07,2.56,2.56,0,0,0-.46,1.18l0,.17v.35c0,.07,0,.12,0,.18a2.46,2.46,0,0,0,.46,1.15,1.39,1.39,0,0,0,2.2,0,2.58,2.58,0,0,0,.44-1.21c0-.06,0-.12,0-.17s0-.11,0-.17Z"/><path class="cls-3" d="M348.68,73.6V69.5h-.48a.51.51,0,0,1-.42-.16.65.65,0,0,1-.14-.37h0v0a.55.55,0,0,1,.15-.38.5.5,0,0,1,.41-.18h1.16a.56.56,0,0,1,.4.18.64.64,0,0,1,.14.41V73.6a.64.64,0,0,1-.17.47.61.61,0,0,1-1.05-.47Z"/><path class="cls-3" d="M351.7,73.6V69.5h-.48a.51.51,0,0,1-.42-.16.65.65,0,0,1-.14-.37h0v0a.55.55,0,0,1,.15-.38.5.5,0,0,1,.41-.18h1.16a.56.56,0,0,1,.4.18.64.64,0,0,1,.14.41V73.6a.64.64,0,0,1-.17.47.61.61,0,0,1-1.05-.47Z"/><circle class="cls-4" cx="39.97" cy="63.92" r="38.77"/><circle class="cls-5" cx="39.97" cy="63.92" r="38.77"/><path class="cls-6" d="M55.14,59.17a2.88,2.88,0,0,0-.76-1.68h0l0,0h0c-.94-1-.74-2.81-.92-5.08-.28-3.59-.67-8.5-4.45-12.44-4.12-4.29-8.19-3.58-10.25-2.78a4.72,4.72,0,0,1-3.39,0,8.79,8.79,0,0,0-3.17-.61,9.68,9.68,0,0,0-7.08,3.39c-3.79,3.94-4.18,8.85-4.46,12.44-.18,2.27,0,4.07-.91,5.08h0l0,0h0a2.88,2.88,0,0,0-.76,1.68Z"/><path class="cls-6" d="M55.14,59.17a2.77,2.77,0,0,1-.76,1.63h0s0,0,0,0h0c-.94,1-.74,2.74-.92,5-.28,3.5-2.78,14.53-16.38,14.53s-16.14-11-16.42-14.53c-.18-2.22,0-4-.91-5h0l0,0h0a2.77,2.77,0,0,1-.76-1.63Z"/><path class="cls-7" d="M54.33,59.17l0,0c-1.74-1.55-1.59-3.7-1.82-6.2-.3-3.18-.67-7.14-4.21-10.23a8.88,8.88,0,0,0-5.88-2.46,8.52,8.52,0,0,0-2.54.41,9.43,9.43,0,0,1-5.82,0,8.52,8.52,0,0,0-2.54-.41,8.88,8.88,0,0,0-5.88,2.46c-3.54,3.09-3.91,7-4.21,10.23-.23,2.5-.08,4.65-1.82,6.2l0,0Z"/><path class="cls-7" d="M54.33,59.17l0,0c-1.74,1.51-1.59,3.62-1.82,6-.3,3.1-1.84,11.52-15.54,11.52S21.71,68.34,21.41,65.24c-.23-2.43-.08-4.54-1.82-6l0,0Z"/><g class="cls-8"><path class="cls-4" d="M36.88,39.42v2.2A1.62,1.62,0,0,1,36.17,43,1.84,1.84,0,0,1,35,43.3l-1.53-.08a2.1,2.1,0,0,1-1.19-.43,1.88,1.88,0,0,1-.76-1.58,3,3,0,0,1,1.36-2.58c1.76-1,3.68-1.45,4,.79"/><path class="cls-4" d="M37,39.42v2.2A1.62,1.62,0,0,0,37.73,43a1.84,1.84,0,0,0,1.16.34l1.53-.08a2.1,2.1,0,0,0,1.19-.43,1.88,1.88,0,0,0,.76-1.58A3,3,0,0,0,41,38.63c-1.76-1-3.68-1.45-4,.79"/></g><path class="cls-9" d="M47.52,66.24c2,0,3.41-5.77,2.71-7.65-1.52-4.13-4.25-10.09-7.33-10-4.7.14-4.43,5.66-4.43,5.66s.43,2.81-1.68,2.81h-.22c-2.11,0-1.67-2.81-1.67-2.81s.27-5.52-4.44-5.66c-3.08-.09-5.81,5.87-7.33,10-.69,1.88.72,7.65,2.72,7.65Z"/><path class="cls-10" d="M38,59.09c-4.46-1.28-8,1.36-9.56,2.91-.63.61-.9,1.76-.06,2.06,9.5,3.33,10.46,6.3,17.14,8.69a11.16,11.16,0,0,0,5.43.54,6.19,6.19,0,0,0,4-2.12c3.31-3.55.43-7-2.65-11a13.41,13.41,0,0,0-4.11-2.92c-3.5-1.26-8.76-.8-10.2,1.81"/><path class="cls-11" d="M38,59.09c-4.46-1.28-8,1.36-9.56,2.91-.63.61-.9,1.76-.06,2.06,9.5,3.33,10.46,6.3,17.14,8.69a11.16,11.16,0,0,0,5.43.54,6.19,6.19,0,0,0,4-2.12c3.31-3.55.43-7-2.65-11a13.41,13.41,0,0,0-4.11-2.92C44.73,56,39.47,56.48,38,59.09Z"/><path class="cls-12" d="M38,59.09c5.63,1.08,10.24,6.8,10.24,6.8"/><path class="cls-13" d="M26.78,67h-9.3V65.36c0-.78-.69-1.27-1.23-.87L8.94,69.82a1.36,1.36,0,0,0,0,2.06l7.31,5.34c.54.39,1.23-.09,1.23-.87V74.7h9.3Z"/><path class="cls-13" d="M54.44,74.7h9.29v1.65c0,.78.69,1.26,1.23.87l7.31-5.34a1.35,1.35,0,0,0,0-2.06L65,64.49c-.54-.4-1.23.09-1.23.87V67H54.44Z"/></g></g></svg>