<svg xmlns="http://www.w3.org/2000/svg" xmlns:xlink="http://www.w3.org/1999/xlink" viewBox="0 0 252.1 109.57"><defs><style>.cls-1,.cls-11,.cls-6,.cls-9{fill:none;}.cls-2{fill:#f1f1ad;}.cls-3{fill:#754d24;}.cls-4{fill:#fff;}.cls-5{opacity:0.5;}.cls-6{stroke:#3bb44a;stroke-width:2.4px;stroke-dasharray:6.09 6.09;}.cls-11,.cls-6{stroke-linecap:round;}.cls-11,.cls-6,.cls-9{stroke-miterlimit:10;}.cls-7{clip-path:url(#clip-path);}.cls-8{fill:#f39725;}.cls-9{stroke:#f07d26;stroke-width:0.63px;}.cls-10{fill:#fac5bb;}.cls-11{stroke:#f7a79c;stroke-width:0.88px;}</style><clipPath id="clip-path" transform="translate(0)"><path class="cls-1" d="M7.85,52.69A32.12,32.12,0,1,0,40,20.57,32.12,32.12,0,0,0,7.85,52.69"/></clipPath></defs><title>Asset 2</title><g id="Layer_2" data-name="Layer 2"><g id="Layer_1-2" data-name="Layer 1"><path class="cls-2" d="M240.53,16.19C227.46,4.21,185.37,0,152,0h-.1C118.54,0,76.45,4.21,63.38,16.19S51.87,54.88,51.87,54.88,50.29,83.8,63.38,93.38s54.41,16.09,88.21,16.19h.72c33.8-.09,75.22-6.67,88.21-16.19S252,54.88,252,54.88,253.61,28.18,240.53,16.19Z" transform="translate(0)"/><path class="cls-3" d="M96.26,31.14V23.27a1.09,1.09,0,0,1,.28-.78,1.05,1.05,0,0,1,.8-.29H99.8a4,4,0,0,1,2.55.77,2.92,2.92,0,0,1,.93,2.41,2.29,2.29,0,0,1-.76,1.81,3.54,3.54,0,0,1-1.83.83l2.38,2.53a1.11,1.11,0,0,1,.22.32.82.82,0,0,1,.06.31,1.07,1.07,0,0,1-.29.73,1,1,0,0,1-.76.33h-.17l-.17,0a.74.74,0,0,1-.25-.11,1,1,0,0,1-.22-.19L98.39,28.1h0v3a1.08,1.08,0,0,1-1.8.81,1,1,0,0,1-.3-.8Zm2.1-4.55H99.8a1.29,1.29,0,0,0,.94-.32,1.17,1.17,0,0,0,.37-.92,1.15,1.15,0,0,0-.37-.92,1.38,1.38,0,0,0-.94-.31H98.36Z" transform="translate(0)"/><path class="cls-3" d="M106,29.1a1.52,1.52,0,0,0,.66,1.11,2.23,2.23,0,0,0,1.25.36,2,2,0,0,0,.72-.13,5,5,0,0,0,.61-.28l.52-.28a.94.94,0,0,1,.43-.13.76.76,0,0,1,.57.27.86.86,0,0,1,.25.6q0,.56-.83,1a5,5,0,0,1-1.82.62l-.33,0h-.32a3.6,3.6,0,0,1-2.74-1.1,3.86,3.86,0,0,1-1-2.76,4.08,4.08,0,0,1,1-2.72,3.27,3.27,0,0,1,2.6-1.18,3.23,3.23,0,0,1,2.36.93,4.13,4.13,0,0,1,1.2,2c0,.11,0,.23,0,.34a2.72,2.72,0,0,1,0,.34,1,1,0,0,1-.21.67.88.88,0,0,1-.67.22Zm3.16-1.34a1.91,1.91,0,0,0-.5-1.09,1.6,1.6,0,0,0-2.21,0,1.8,1.8,0,0,0-.5,1.08Z" transform="translate(0)"/><path class="cls-3" d="M112.18,31.11V22.49a1.13,1.13,0,0,1,.29-.8,1,1,0,0,1,1.45,0,1.16,1.16,0,0,1,.28.81v8.61a1.16,1.16,0,0,1-.28.82,1,1,0,0,1-1.45,0,1.12,1.12,0,0,1-.29-.8Z" transform="translate(0)"/><path class="cls-3" d="M122.55,25.92v5.22c0,.08,0,.15,0,.24a1.29,1.29,0,0,1-.23.59.83.83,0,0,1-.72.27.84.84,0,0,1-.64-.22,1.49,1.49,0,0,1-.32-.62,2.68,2.68,0,0,1-.87.69,2.38,2.38,0,0,1-1,.23,3,3,0,0,1-2.37-1.09,4.05,4.05,0,0,1-1-2.78,4.11,4.11,0,0,1,1-2.79,3,3,0,0,1,2.36-1.12,2.61,2.61,0,0,1,1.07.23,2,2,0,0,1,.85.71.92.92,0,0,1,.32-.61,1,1,0,0,1,.64-.24.82.82,0,0,1,.72.27,1.35,1.35,0,0,1,.23.6c0,.08,0,.16,0,.24v.21Zm-5.17,2.52v.13a.65.65,0,0,0,0,.13,2.48,2.48,0,0,0,.44,1.22,1.29,1.29,0,0,0,1.14.56,1.25,1.25,0,0,0,1.11-.56,2.54,2.54,0,0,0,.43-1.22.73.73,0,0,0,0-.13v-.12s0-.1,0-.15,0-.11,0-.16a2.56,2.56,0,0,0-.45-1.2,1.25,1.25,0,0,0-1.09-.55,1.29,1.29,0,0,0-1.13.55,2.52,2.52,0,0,0-.46,1.2c0,.06,0,.11,0,.16s0,.1,0,.15Z" transform="translate(0)"/><path class="cls-3" d="M124.54,31.11V26.46h-.45a.81.81,0,0,1-.64-.22.89.89,0,0,1-.23-.64.87.87,0,0,1,.25-.63.83.83,0,0,1,.62-.25h.45V23.5a1.13,1.13,0,0,1,.29-.8,1,1,0,0,1,1.45,0,1.16,1.16,0,0,1,.28.81V24.7h.57a1.27,1.27,0,0,1,.68.21.94.94,0,0,1,0,1.35,1.16,1.16,0,0,1-.68.2h-.57v4.65a1.16,1.16,0,0,1-.28.82,1,1,0,0,1-1.45,0,1.12,1.12,0,0,1-.29-.8Z" transform="translate(0)"/><path class="cls-3" d="M129.52,21.59a1.17,1.17,0,0,1,.79.34,1,1,0,0,1,.34.78,1.14,1.14,0,0,1-.33.82,1.09,1.09,0,0,1-1.6,0,1.12,1.12,0,0,1-.34-.81,1,1,0,0,1,.34-.77,1.1,1.1,0,0,1,.79-.34Zm-1,9.52V25.72a1.12,1.12,0,0,1,.29-.8,1,1,0,0,1,1.45,0,1.16,1.16,0,0,1,.28.81v5.37a1.16,1.16,0,0,1-.28.82,1,1,0,0,1-1.45,0,1.12,1.12,0,0,1-.29-.81Z" transform="translate(0)"/><path class="cls-3" d="M133.57,31.39l-2-5.22a2.46,2.46,0,0,1-.08-.25.88.88,0,0,1,0-.22V25.6a.88.88,0,0,1,.31-.74,1.14,1.14,0,0,1,.72-.25.79.79,0,0,1,.53.17,1.16,1.16,0,0,1,.29.36l0,.09,0,.09,1.29,4h0l1.29-4,0-.08,0-.09a1.19,1.19,0,0,1,.29-.36.79.79,0,0,1,.53-.17,1.17,1.17,0,0,1,.73.25.87.87,0,0,1,.32.74v.11a1.56,1.56,0,0,1,0,.22c0,.07,0,.16-.08.26l-2,5.2a1.63,1.63,0,0,1-.36.62,1,1,0,0,1-.73.22,1,1,0,0,1-.73-.22,1.83,1.83,0,0,1-.36-.61Z" transform="translate(0)"/><path class="cls-3" d="M140.44,29.1a1.52,1.52,0,0,0,.66,1.11,2.23,2.23,0,0,0,1.25.36,2,2,0,0,0,.72-.13,5,5,0,0,0,.61-.28l.52-.28a.94.94,0,0,1,.43-.13.76.76,0,0,1,.57.27.86.86,0,0,1,.25.6q0,.56-.83,1a5,5,0,0,1-1.82.62l-.33,0h-.31a3.6,3.6,0,0,1-2.74-1.1,3.86,3.86,0,0,1-1-2.76,4.08,4.08,0,0,1,1-2.72,3.46,3.46,0,0,1,5-.25,4.13,4.13,0,0,1,1.2,2c0,.11,0,.23,0,.34a2.74,2.74,0,0,1,0,.34,1,1,0,0,1-.21.67.88.88,0,0,1-.67.22Zm3.16-1.34a1.9,1.9,0,0,0-.5-1.09,1.6,1.6,0,0,0-2.21,0,1.8,1.8,0,0,0-.5,1.08Z" transform="translate(0)"/><path class="cls-3" d="M146.66,31.11V22.49a1.13,1.13,0,0,1,.29-.8,1,1,0,0,1,1.45,0,1.17,1.17,0,0,1,.28.81v8.61a1.16,1.16,0,0,1-.28.82,1,1,0,0,1-1.45,0,1.12,1.12,0,0,1-.29-.8Z" transform="translate(0)"/><path class="cls-3" d="M149.64,26a1,1,0,0,1-.06-.22,1.76,1.76,0,0,1,0-.28.74.74,0,0,1,.22-.53,1.14,1.14,0,0,1,.5-.31l.11,0h.11a1,1,0,0,1,.62.19,1.11,1.11,0,0,1,.39.53l1.38,3.78,1.48-3.79a1.13,1.13,0,0,1,.38-.51,1,1,0,0,1,.62-.19h.11l.11,0a1.2,1.2,0,0,1,.5.31.73.73,0,0,1,.22.53,1.75,1.75,0,0,1,0,.28.84.84,0,0,1-.08.24l-3.37,8.4a1.67,1.67,0,0,1-.36.56.79.79,0,0,1-.59.24,1.05,1.05,0,0,1-.78-.27.84.84,0,0,1-.27-.59.76.76,0,0,1,0-.1.74.74,0,0,0,0-.1,1,1,0,0,1,0-.2l.06-.2.88-2.18Z" transform="translate(0)"/><path class="cls-3" d="M161.33,31.11V25.72a1.12,1.12,0,0,1,.29-.8.94.94,0,0,1,.72-.31,1,1,0,0,1,.63.2.86.86,0,0,1,.29.56,2.52,2.52,0,0,1,.84-.62,2.46,2.46,0,0,1,1-.22,2.56,2.56,0,0,1,2.09,1,3.22,3.22,0,0,1,.6-.52,3.15,3.15,0,0,1,.69-.35l.43-.11a2.12,2.12,0,0,1,.41,0,2.85,2.85,0,0,1,2,.69,2.6,2.6,0,0,1,.76,2v3.86a1.16,1.16,0,0,1-.28.82,1,1,0,0,1-1.45,0,1.12,1.12,0,0,1-.29-.8V27.6a1.51,1.51,0,0,0-.32-1,1.05,1.05,0,0,0-.86-.38,1.07,1.07,0,0,0-.87.38,1.53,1.53,0,0,0-.32,1v3.5a1.15,1.15,0,0,1-.28.82,1,1,0,0,1-1.45,0,1.12,1.12,0,0,1-.29-.8V27.6a1.51,1.51,0,0,0-.31-1,1.2,1.2,0,0,0-1.76,0,1.63,1.63,0,0,0-.29,1v3.5a1.16,1.16,0,0,1-.28.82,1,1,0,0,1-.73.3,1,1,0,0,1-.72-.3,1.12,1.12,0,0,1-.29-.81Z" transform="translate(0)"/><path class="cls-3" d="M176.93,24.53a3.31,3.31,0,0,1,2.6,1.2,4.08,4.08,0,0,1,1,2.72,4,4,0,0,1-1,2.72,3.56,3.56,0,0,1-5.24,0,4,4,0,0,1-1-2.72,4.08,4.08,0,0,1,1-2.72,3.26,3.26,0,0,1,2.6-1.18Zm-1.13,2.41a2.5,2.5,0,0,0-.46,1.2c0,.06,0,.11,0,.16s0,.1,0,.15v.12a.66.66,0,0,0,0,.13,2.49,2.49,0,0,0,.44,1.22,1.44,1.44,0,0,0,2.28,0,2.52,2.52,0,0,0,.44-1.22.72.72,0,0,0,0-.13v-.12s0-.1,0-.15,0-.1,0-.16a2.54,2.54,0,0,0-.46-1.21,1.29,1.29,0,0,0-1.13-.55A1.32,1.32,0,0,0,175.8,26.94Z" transform="translate(0)"/><path class="cls-3" d="M181.71,31.11v-5.5a.88.88,0,0,1,.3-.71,1.16,1.16,0,0,1,.67-.28h.07a1.3,1.3,0,0,1,.69.18.71.71,0,0,1,.29.66h0a2.17,2.17,0,0,1,.61-.62,1.46,1.46,0,0,1,.8-.21,1,1,0,0,1,.67.27,1,1,0,0,1,.31.81.61.61,0,0,1-.21.51,2,2,0,0,1-.5.27l-.24.09-.25.11h0a5.53,5.53,0,0,0-.8.48,1,1,0,0,0-.37.86v3.08a1.16,1.16,0,0,1-.28.82,1,1,0,0,1-1.45,0,1.12,1.12,0,0,1-.29-.81Z" transform="translate(0)"/><path class="cls-3" d="M188.38,29.1a1.52,1.52,0,0,0,.66,1.11,2.23,2.23,0,0,0,1.25.36,2,2,0,0,0,.72-.13,5,5,0,0,0,.61-.28l.52-.28a.94.94,0,0,1,.43-.13.76.76,0,0,1,.57.27.86.86,0,0,1,.25.6q0,.56-.83,1a5,5,0,0,1-1.82.62l-.33,0h-.32a3.6,3.6,0,0,1-2.74-1.1,3.86,3.86,0,0,1-1-2.76,4.08,4.08,0,0,1,1-2.72,3.27,3.27,0,0,1,2.6-1.18,3.23,3.23,0,0,1,2.36.93,4.13,4.13,0,0,1,1.2,2c0,.11,0,.23,0,.34a2.72,2.72,0,0,1,0,.34,1,1,0,0,1-.21.67.88.88,0,0,1-.67.22Zm3.16-1.34a1.91,1.91,0,0,0-.5-1.09,1.6,1.6,0,0,0-2.21,0,1.8,1.8,0,0,0-.5,1.08Z" transform="translate(0)"/><path class="cls-3" d="M103.09,42.72v5.22a2.29,2.29,0,0,1,0,.24,1.29,1.29,0,0,1-.23.59.83.83,0,0,1-.72.27.85.85,0,0,1-.64-.22,1.49,1.49,0,0,1-.32-.62,2.69,2.69,0,0,1-.87.69,2.39,2.39,0,0,1-1.05.23A3,3,0,0,1,96.87,48a4.06,4.06,0,0,1-1-2.78,4.11,4.11,0,0,1,1-2.79,3,3,0,0,1,2.36-1.12,2.62,2.62,0,0,1,1.07.23,2,2,0,0,1,.85.71.93.93,0,0,1,.32-.61,1,1,0,0,1,.64-.24.82.82,0,0,1,.72.27,1.35,1.35,0,0,1,.23.6,2.29,2.29,0,0,1,0,.24v.21Zm-5.17,2.52v.13a.66.66,0,0,0,0,.13,2.49,2.49,0,0,0,.44,1.22,1.3,1.3,0,0,0,1.14.56,1.25,1.25,0,0,0,1.11-.56,2.52,2.52,0,0,0,.43-1.22.65.65,0,0,0,0-.13v-.12s0-.1,0-.15a1.44,1.44,0,0,1,0-.16,2.56,2.56,0,0,0-.45-1.2,1.25,1.25,0,0,0-1.09-.55,1.29,1.29,0,0,0-1.13.55,2.5,2.5,0,0,0-.46,1.2c0,.06,0,.11,0,.16s0,.1,0,.15Z" transform="translate(0)"/><path class="cls-3" d="M104.56,47.91v-5.5a.88.88,0,0,1,.3-.71,1.16,1.16,0,0,1,.67-.28h.07a1.3,1.3,0,0,1,.69.18.71.71,0,0,1,.29.66h0a2.18,2.18,0,0,1,.61-.62,1.46,1.46,0,0,1,.8-.21,1,1,0,0,1,.67.27,1,1,0,0,1,.31.81.61.61,0,0,1-.21.51,2,2,0,0,1-.5.27l-.24.09-.25.11h0a5.54,5.54,0,0,0-.8.48,1,1,0,0,0-.37.86v3.08a1.16,1.16,0,0,1-.28.82,1,1,0,0,1-1.45,0,1.12,1.12,0,0,1-.29-.81Z" transform="translate(0)"/><path class="cls-3" d="M109.6,47.91V42.52a1.12,1.12,0,0,1,.29-.8.94.94,0,0,1,.72-.31,1,1,0,0,1,.63.2.86.86,0,0,1,.3.56,2.52,2.52,0,0,1,.84-.62,2.46,2.46,0,0,1,1-.22,2.56,2.56,0,0,1,2.09,1,3.22,3.22,0,0,1,.6-.52,3.15,3.15,0,0,1,.69-.35l.43-.11a2.13,2.13,0,0,1,.41,0,2.85,2.85,0,0,1,2,.69,2.6,2.6,0,0,1,.76,2v3.86a1.16,1.16,0,0,1-.28.82,1,1,0,0,1-1.45,0,1.12,1.12,0,0,1-.29-.8V44.4a1.51,1.51,0,0,0-.32-1,1.05,1.05,0,0,0-.86-.38,1.07,1.07,0,0,0-.87.38,1.53,1.53,0,0,0-.32,1v3.5a1.16,1.16,0,0,1-.28.82,1,1,0,0,1-1.45,0,1.12,1.12,0,0,1-.29-.8V44.4a1.51,1.51,0,0,0-.31-1,1.2,1.2,0,0,0-1.76,0,1.63,1.63,0,0,0-.29,1v3.5a1.16,1.16,0,0,1-.28.82,1,1,0,0,1-.73.3,1,1,0,0,1-.72-.3,1.12,1.12,0,0,1-.29-.81Z" transform="translate(0)"/><path class="cls-3" d="M126,47.91V42.52a1.12,1.12,0,0,1,.29-.8.94.94,0,0,1,.72-.31,1,1,0,0,1,.63.2.86.86,0,0,1,.29.56,2.53,2.53,0,0,1,.84-.62,2.47,2.47,0,0,1,1-.22,2.56,2.56,0,0,1,2.09,1,3.31,3.31,0,0,1,1.29-.87l.43-.11a2.13,2.13,0,0,1,.41,0,2.85,2.85,0,0,1,2,.69,2.6,2.6,0,0,1,.76,2v3.86a1.16,1.16,0,0,1-.28.82,1,1,0,0,1-1.45,0,1.12,1.12,0,0,1-.29-.8V44.4a1.51,1.51,0,0,0-.31-1,1.06,1.06,0,0,0-.86-.38,1.07,1.07,0,0,0-.87.38,1.53,1.53,0,0,0-.31,1v3.5a1.15,1.15,0,0,1-.28.82,1,1,0,0,1-1.45,0,1.12,1.12,0,0,1-.29-.8V44.4a1.5,1.5,0,0,0-.32-1,1.2,1.2,0,0,0-1.76,0,1.63,1.63,0,0,0-.29,1v3.5a1.16,1.16,0,0,1-.28.82,1,1,0,0,1-1.45,0,1.12,1.12,0,0,1-.29-.81Z" transform="translate(0)"/><path class="cls-3" d="M141.58,41.33a3.31,3.31,0,0,1,2.6,1.2,4.08,4.08,0,0,1,1,2.72,4,4,0,0,1-1,2.72A3.56,3.56,0,0,1,139,48a4,4,0,0,1-1-2.72,4.08,4.08,0,0,1,1-2.72,3.26,3.26,0,0,1,2.6-1.18Zm-1.13,2.41a2.52,2.52,0,0,0-.46,1.2c0,.06,0,.11,0,.16s0,.1,0,.15v.12a.65.65,0,0,0,0,.13,2.48,2.48,0,0,0,.44,1.22,1.44,1.44,0,0,0,2.28,0,2.5,2.5,0,0,0,.44-1.22.65.65,0,0,0,0-.13v-.12s0-.1,0-.15,0-.1,0-.16a2.54,2.54,0,0,0-.46-1.21,1.29,1.29,0,0,0-1.13-.55A1.32,1.32,0,0,0,140.45,43.74Z" transform="translate(0)"/><path class="cls-3" d="M148,48.19l-2-5.22a2.44,2.44,0,0,1-.08-.25.88.88,0,0,1,0-.22V42.4a.88.88,0,0,1,.31-.74,1.14,1.14,0,0,1,.72-.25.79.79,0,0,1,.53.17,1.16,1.16,0,0,1,.29.36l0,.09,0,.09,1.29,4h0l1.29-4,0-.08,0-.09a1.19,1.19,0,0,1,.29-.36.79.79,0,0,1,.53-.17,1.17,1.17,0,0,1,.73.25.87.87,0,0,1,.32.74v.11a1.54,1.54,0,0,1,0,.22c0,.07,0,.16-.08.26l-2,5.2a1.63,1.63,0,0,1-.36.62,1,1,0,0,1-.73.22,1,1,0,0,1-.73-.22,1.83,1.83,0,0,1-.36-.61Z" transform="translate(0)"/><path class="cls-3" d="M154.83,45.9a1.52,1.52,0,0,0,.66,1.11,2.23,2.23,0,0,0,1.25.36,2,2,0,0,0,.72-.13,5,5,0,0,0,.61-.28l.52-.28a.94.94,0,0,1,.43-.13.76.76,0,0,1,.57.27.86.86,0,0,1,.25.6q0,.56-.83,1a5,5,0,0,1-1.82.62l-.33,0h-.31a3.6,3.6,0,0,1-2.74-1.1,3.86,3.86,0,0,1-1-2.76,4.08,4.08,0,0,1,1-2.72,3.46,3.46,0,0,1,5-.25,4.13,4.13,0,0,1,1.2,2c0,.11,0,.23,0,.34a2.72,2.72,0,0,1,0,.34,1,1,0,0,1-.21.67.89.89,0,0,1-.67.22ZM158,44.55a1.91,1.91,0,0,0-.5-1.09,1.6,1.6,0,0,0-2.21,0,1.8,1.8,0,0,0-.5,1.08Z" transform="translate(0)"/><path class="cls-3" d="M161.08,47.91V42.52a1.12,1.12,0,0,1,.29-.8.94.94,0,0,1,.72-.31,1,1,0,0,1,.63.2.86.86,0,0,1,.29.56,2.53,2.53,0,0,1,.84-.62,2.47,2.47,0,0,1,1-.22,2.56,2.56,0,0,1,2.09,1,3.31,3.31,0,0,1,1.29-.87l.43-.11a2.13,2.13,0,0,1,.41,0,2.85,2.85,0,0,1,2,.69,2.6,2.6,0,0,1,.76,2v3.86a1.16,1.16,0,0,1-.28.82,1,1,0,0,1-1.45,0,1.12,1.12,0,0,1-.29-.8V44.4a1.51,1.51,0,0,0-.31-1,1.06,1.06,0,0,0-.86-.38,1.07,1.07,0,0,0-.87.38,1.53,1.53,0,0,0-.31,1v3.5a1.15,1.15,0,0,1-.28.82,1,1,0,0,1-1.45,0,1.12,1.12,0,0,1-.29-.8V44.4a1.5,1.5,0,0,0-.32-1,1.2,1.2,0,0,0-1.76,0,1.63,1.63,0,0,0-.29,1v3.5a1.16,1.16,0,0,1-.28.82,1,1,0,0,1-1.45,0,1.12,1.12,0,0,1-.29-.81Z" transform="translate(0)"/><path class="cls-3" d="M175,45.9a1.52,1.52,0,0,0,.66,1.11,2.23,2.23,0,0,0,1.25.36,2,2,0,0,0,.72-.13,4.92,4.92,0,0,0,.61-.28l.52-.28a.94.94,0,0,1,.43-.13.76.76,0,0,1,.57.27.86.86,0,0,1,.25.6q0,.56-.83,1a5,5,0,0,1-1.82.62l-.33,0h-.32A3.6,3.6,0,0,1,174,48a3.86,3.86,0,0,1-1-2.76,4.08,4.08,0,0,1,1-2.72,3.46,3.46,0,0,1,5-.25,4.13,4.13,0,0,1,1.2,2c0,.11,0,.23,0,.34a2.93,2.93,0,0,1,0,.34.94.94,0,0,1-.21.67.88.88,0,0,1-.67.22Zm3.16-1.34a1.9,1.9,0,0,0-.5-1.09,1.6,1.6,0,0,0-2.21,0,1.8,1.8,0,0,0-.5,1.08Z" transform="translate(0)"/><path class="cls-3" d="M181.22,47.91V42.52a1.12,1.12,0,0,1,.29-.8.94.94,0,0,1,.72-.31,1,1,0,0,1,.63.2.86.86,0,0,1,.29.55,1.86,1.86,0,0,1,.76-.62,2.89,2.89,0,0,1,1.18-.21,2.82,2.82,0,0,1,2,.72,2.58,2.58,0,0,1,.78,2v3.86a1.16,1.16,0,0,1-.28.82,1,1,0,0,1-1.45,0,1.12,1.12,0,0,1-.29-.8V44.4a1.31,1.31,0,0,0-.38-1,1.35,1.35,0,0,0-.93-.34,1.17,1.17,0,0,0-1,.4,1.48,1.48,0,0,0-.34,1v3.5a1.15,1.15,0,0,1-.28.82,1,1,0,0,1-.73.3,1,1,0,0,1-.72-.3,1.12,1.12,0,0,1-.29-.81Z" transform="translate(0)"/><path class="cls-3" d="M189.85,47.91V43.26h-.45a.81.81,0,0,1-.64-.22.89.89,0,0,1-.23-.64.87.87,0,0,1,.25-.63.83.83,0,0,1,.62-.25h.45V40.3a1.13,1.13,0,0,1,.29-.8,1,1,0,0,1,1.45,0,1.16,1.16,0,0,1,.28.81V41.5h.57a1.27,1.27,0,0,1,.68.21.94.94,0,0,1,0,1.35,1.16,1.16,0,0,1-.68.2h-.57v4.65a1.15,1.15,0,0,1-.28.82,1,1,0,0,1-1.45,0,1.12,1.12,0,0,1-.29-.8Z" transform="translate(0)"/><path class="cls-3" d="M198.44,47.91V43.26H198a.81.81,0,0,1-.64-.22.89.89,0,0,1-.23-.64.87.87,0,0,1,.25-.63.83.83,0,0,1,.62-.25h.45V40.3a1.13,1.13,0,0,1,.29-.8,1,1,0,0,1,1.45,0,1.16,1.16,0,0,1,.28.81V41.5H201a1.27,1.27,0,0,1,.68.21.94.94,0,0,1,0,1.35,1.16,1.16,0,0,1-.68.2h-.57v4.65a1.15,1.15,0,0,1-.28.82,1,1,0,0,1-1.45,0,1.12,1.12,0,0,1-.29-.8Z" transform="translate(0)"/><path class="cls-3" d="M205.77,41.33a3.31,3.31,0,0,1,2.6,1.2,4.08,4.08,0,0,1,1,2.72,4,4,0,0,1-1,2.72,3.56,3.56,0,0,1-5.24,0,4,4,0,0,1-1-2.72,4.08,4.08,0,0,1,1-2.72,3.26,3.26,0,0,1,2.6-1.18Zm-1.13,2.41a2.52,2.52,0,0,0-.46,1.2c0,.06,0,.11,0,.16s0,.1,0,.15v.12a.73.73,0,0,0,0,.13,2.5,2.5,0,0,0,.44,1.22,1.44,1.44,0,0,0,2.28,0,2.5,2.5,0,0,0,.44-1.22.65.65,0,0,0,0-.13v-.12s0-.1,0-.15,0-.1,0-.16a2.53,2.53,0,0,0-.45-1.21,1.29,1.29,0,0,0-1.13-.55A1.33,1.33,0,0,0,204.64,43.74Z" transform="translate(0)"/><path class="cls-3" d="M96.2,63V59.32a1.13,1.13,0,0,1,.29-.8,1,1,0,0,1,1.45,0,1.17,1.17,0,0,1,.28.81v3.59a1.21,1.21,0,0,0,.4,1,1.38,1.38,0,0,0,1.81,0,1.2,1.2,0,0,0,.4-1V59.32a1.13,1.13,0,0,1,.29-.8,1,1,0,0,1,1.45,0,1.16,1.16,0,0,1,.28.81V63a2.78,2.78,0,0,1-.86,2.15,4.2,4.2,0,0,1-4.91,0A2.76,2.76,0,0,1,96.2,63Z" transform="translate(0)"/><path class="cls-3" d="M109.41,59.59a1,1,0,0,1-.23.64.74.74,0,0,1-.6.27.93.93,0,0,1-.35-.09l-.45-.2-.28-.12-.28-.11-.22,0-.22,0a.87.87,0,0,0-.48.13.47.47,0,0,0-.21.43.44.44,0,0,0,.22.36,3.12,3.12,0,0,0,.56.29l.47.17.5.2a4.81,4.81,0,0,1,1.2.74,1.62,1.62,0,0,1,.55,1.32,2.12,2.12,0,0,1-.78,1.68,3.1,3.1,0,0,1-2.09.67l-.44,0-.46-.08a4,4,0,0,1-1.32-.53,1.07,1.07,0,0,1-.6-.9.85.85,0,0,1,0-.17A.53.53,0,0,1,104,64a1.14,1.14,0,0,1,.29-.38.71.71,0,0,1,.48-.17,1.23,1.23,0,0,1,.45.08,2.39,2.39,0,0,1,.38.19l.08,0,.08,0a3,3,0,0,0,.49.25,1.67,1.67,0,0,0,.62.11,1,1,0,0,0,.63-.15.54.54,0,0,0,.17-.43.43.43,0,0,0-.22-.36,3.13,3.13,0,0,0-.55-.29l-.47-.18-.51-.2a4.7,4.7,0,0,1-1.2-.74,1.65,1.65,0,0,1-.55-1.33,2.12,2.12,0,0,1,.77-1.7,2.93,2.93,0,0,1,2-.65l.41,0a3,3,0,0,1,.43.08,3.27,3.27,0,0,1,1.16.47,1,1,0,0,1,.52.89Z" transform="translate(0)"/><path class="cls-3" d="M112.28,62.7a1.51,1.51,0,0,0,.66,1.11,2.22,2.22,0,0,0,1.25.36,2,2,0,0,0,.72-.13,4.94,4.94,0,0,0,.61-.28l.52-.28a.94.94,0,0,1,.43-.13.76.76,0,0,1,.57.27.86.86,0,0,1,.25.59q0,.56-.83,1a5,5,0,0,1-1.82.62l-.33,0H114a3.6,3.6,0,0,1-2.74-1.1,3.86,3.86,0,0,1-1-2.76,4.07,4.07,0,0,1,1-2.72,3.46,3.46,0,0,1,5-.25,4.12,4.12,0,0,1,1.2,2c0,.11,0,.23,0,.34a3,3,0,0,1,0,.34.94.94,0,0,1-.21.67.89.89,0,0,1-.67.22Zm3.16-1.34a1.9,1.9,0,0,0-.5-1.08,1.6,1.6,0,0,0-2.21,0,1.8,1.8,0,0,0-.5,1.08Z" transform="translate(0)"/><path class="cls-3" d="M129.51,59.52v5.22a2.06,2.06,0,0,1,0,.24,1.3,1.3,0,0,1-.23.59.83.83,0,0,1-.72.27.84.84,0,0,1-.64-.22,1.46,1.46,0,0,1-.32-.62,2.68,2.68,0,0,1-.87.69,2.38,2.38,0,0,1-1.05.23,3,3,0,0,1-2.37-1.09,4.06,4.06,0,0,1-1-2.78,4.11,4.11,0,0,1,1-2.79,3,3,0,0,1,2.36-1.12,2.61,2.61,0,0,1,1.07.23,2,2,0,0,1,.85.71.92.92,0,0,1,.32-.61,1,1,0,0,1,.64-.24.82.82,0,0,1,.72.27,1.34,1.34,0,0,1,.23.6,2.08,2.08,0,0,1,0,.24v.21ZM124.34,62v.13a.73.73,0,0,0,0,.13,2.49,2.49,0,0,0,.44,1.22,1.3,1.3,0,0,0,1.14.56,1.25,1.25,0,0,0,1.11-.56,2.53,2.53,0,0,0,.43-1.22.65.65,0,0,0,0-.13v-.12s0-.1,0-.15,0-.11,0-.16a2.56,2.56,0,0,0-.45-1.2,1.25,1.25,0,0,0-1.09-.55,1.29,1.29,0,0,0-1.13.55,2.51,2.51,0,0,0-.46,1.2c0,.06,0,.11,0,.16s0,.1,0,.15Z" transform="translate(0)"/><path class="cls-3" d="M131,64.71V59.32a1.13,1.13,0,0,1,.29-.8.94.94,0,0,1,.72-.31,1,1,0,0,1,.63.2.85.85,0,0,1,.29.55,1.87,1.87,0,0,1,.76-.62,2.91,2.91,0,0,1,1.18-.21,2.82,2.82,0,0,1,2,.71,2.58,2.58,0,0,1,.78,2v3.86a1.16,1.16,0,0,1-.28.82,1,1,0,0,1-1.45,0,1.12,1.12,0,0,1-.29-.81V61.2a1.31,1.31,0,0,0-.38-1,1.35,1.35,0,0,0-.93-.34,1.18,1.18,0,0,0-1,.4,1.48,1.48,0,0,0-.34,1v3.5a1.15,1.15,0,0,1-.28.82,1,1,0,0,1-1.45,0,1.12,1.12,0,0,1-.29-.81Z" transform="translate(0)"/><path class="cls-3" d="M144.22,55.19a1.16,1.16,0,0,1,.79.34,1,1,0,0,1,.34.78,1.14,1.14,0,0,1-.33.82,1.09,1.09,0,0,1-1.6,0,1.13,1.13,0,0,1-.34-.81,1,1,0,0,1,.34-.77,1.09,1.09,0,0,1,.79-.34Zm-1,9.52V59.32a1.13,1.13,0,0,1,.29-.8,1,1,0,0,1,1.45,0,1.17,1.17,0,0,1,.28.81v5.37a1.16,1.16,0,0,1-.28.82,1,1,0,0,1-1.45,0,1.12,1.12,0,0,1-.29-.81Z" transform="translate(0)"/><path class="cls-3" d="M146.7,64.71V59.32a1.13,1.13,0,0,1,.29-.8.94.94,0,0,1,.72-.31,1,1,0,0,1,.63.2.85.85,0,0,1,.29.55,1.87,1.87,0,0,1,.76-.62,2.91,2.91,0,0,1,1.18-.21,2.82,2.82,0,0,1,2,.71,2.58,2.58,0,0,1,.78,2v3.86a1.16,1.16,0,0,1-.28.82,1,1,0,0,1-1.45,0,1.12,1.12,0,0,1-.29-.81V61.2a1.31,1.31,0,0,0-.38-1,1.35,1.35,0,0,0-.93-.34,1.18,1.18,0,0,0-1,.4,1.48,1.48,0,0,0-.34,1v3.5a1.15,1.15,0,0,1-.28.82,1,1,0,0,1-1.45,0,1.12,1.12,0,0,1-.29-.81Z" transform="translate(0)"/><path class="cls-3" d="M155.3,64.71V60.06h-.45a.8.8,0,0,1-.64-.22.88.88,0,0,1-.23-.64.87.87,0,0,1,.24-.63.83.83,0,0,1,.62-.25h.45v-1a2.28,2.28,0,0,1,.59-1.69,2.08,2.08,0,0,1,1.52-.59,2.4,2.4,0,0,1,1,.19.71.71,0,0,1,.43.72.9.9,0,0,1-.2.64.83.83,0,0,1-.62.21,1.15,1.15,0,0,0-.46.09q-.21.09-.21.65v.81h.63a1.37,1.37,0,0,1,.74.21.94.94,0,0,1,0,1.35,1.25,1.25,0,0,1-.74.2h-.63v4.65a1.16,1.16,0,0,1-.28.82,1,1,0,0,1-1.45,0,1.12,1.12,0,0,1-.29-.81Z" transform="translate(0)"/><path class="cls-3" d="M161,62.7a1.52,1.52,0,0,0,.66,1.11,2.23,2.23,0,0,0,1.25.36,2,2,0,0,0,.72-.13,4.92,4.92,0,0,0,.61-.28l.52-.28a.94.94,0,0,1,.43-.13.76.76,0,0,1,.57.27.86.86,0,0,1,.25.59q0,.56-.83,1a5,5,0,0,1-1.82.62l-.33,0h-.31a3.6,3.6,0,0,1-2.74-1.1,3.86,3.86,0,0,1-1-2.76,4.07,4.07,0,0,1,1-2.72,3.46,3.46,0,0,1,5-.25,4.13,4.13,0,0,1,1.2,2c0,.11,0,.23,0,.34a2.92,2.92,0,0,1,0,.34.94.94,0,0,1-.21.67.89.89,0,0,1-.67.22Zm3.16-1.34a1.89,1.89,0,0,0-.5-1.08,1.61,1.61,0,0,0-2.21,0,1.8,1.8,0,0,0-.5,1.08Z" transform="translate(0)"/><path class="cls-3" d="M167.17,64.71v-5.5a.88.88,0,0,1,.3-.72,1.15,1.15,0,0,1,.67-.28h.07a1.31,1.31,0,0,1,.69.17.72.72,0,0,1,.29.67h0a2.21,2.21,0,0,1,.61-.62,1.47,1.47,0,0,1,.8-.21,1,1,0,0,1,.67.27,1,1,0,0,1,.31.81.61.61,0,0,1-.21.51,2,2,0,0,1-.5.27l-.24.09-.25.1h0a5.4,5.4,0,0,0-.8.48,1,1,0,0,0-.37.86v3.09a1.16,1.16,0,0,1-.28.82,1,1,0,0,1-1.45,0,1.12,1.12,0,0,1-.29-.81Z" transform="translate(0)"/><path class="cls-3" d="M173.19,55.19a1.16,1.16,0,0,1,.79.34,1,1,0,0,1,.34.78,1.14,1.14,0,0,1-.33.82,1.09,1.09,0,0,1-1.6,0,1.13,1.13,0,0,1-.34-.81,1,1,0,0,1,.34-.77,1.09,1.09,0,0,1,.79-.34Zm-1,9.52V59.32a1.13,1.13,0,0,1,.29-.8,1,1,0,0,1,1.45,0,1.16,1.16,0,0,1,.28.81v5.37a1.16,1.16,0,0,1-.28.82,1,1,0,0,1-1.45,0,1.12,1.12,0,0,1-.29-.81Z" transform="translate(0)"/><path class="cls-3" d="M179,58.13a3.31,3.31,0,0,1,2.6,1.2,4.08,4.08,0,0,1,1,2.72,4,4,0,0,1-1,2.72,3.56,3.56,0,0,1-5.24,0,4,4,0,0,1-1-2.72,4.07,4.07,0,0,1,1-2.72,3.26,3.26,0,0,1,2.6-1.18Zm-1.13,2.41a2.51,2.51,0,0,0-.46,1.2c0,.06,0,.11,0,.16s0,.1,0,.15v.12a.73.73,0,0,0,0,.13,2.49,2.49,0,0,0,.44,1.22,1.44,1.44,0,0,0,2.28,0,2.52,2.52,0,0,0,.44-1.22.73.73,0,0,0,0-.13V62s0-.1,0-.15,0-.11,0-.16a2.54,2.54,0,0,0-.46-1.21A1.29,1.29,0,0,0,179,60,1.33,1.33,0,0,0,177.86,60.54Z" transform="translate(0)"/><path class="cls-3" d="M183.77,64.71v-5.5a.88.88,0,0,1,.3-.72,1.16,1.16,0,0,1,.67-.28h.07a1.31,1.31,0,0,1,.69.17.72.72,0,0,1,.29.67h0a2.18,2.18,0,0,1,.61-.62,1.47,1.47,0,0,1,.8-.21,1,1,0,0,1,.67.27,1,1,0,0,1,.31.81.61.61,0,0,1-.21.51,2,2,0,0,1-.5.27l-.24.09-.25.1h0a5.44,5.44,0,0,0-.8.48,1,1,0,0,0-.37.86v3.09a1.16,1.16,0,0,1-.28.82,1,1,0,0,1-1.45,0,1.12,1.12,0,0,1-.29-.81Z" transform="translate(0)"/><path class="cls-3" d="M192.91,59.32a1.13,1.13,0,0,1,.29-.8.94.94,0,0,1,.72-.31,1,1,0,0,1,.66.22,1.18,1.18,0,0,1,.34.62,1.72,1.72,0,0,1,.76-.67,2.7,2.7,0,0,1,1-.26h.14a2.7,2.7,0,0,1,2.38,1.19,4.88,4.88,0,0,1,.87,2.62v.2a4.21,4.21,0,0,1-.9,2.61,2.88,2.88,0,0,1-2.42,1.18h-.25l-.27,0a3.19,3.19,0,0,1-.69-.22,2.62,2.62,0,0,1-.64-.41v2.45a1.16,1.16,0,0,1-.28.81,1,1,0,0,1-1.45,0,1.14,1.14,0,0,1-.29-.81Zm2,2.64c0,.07,0,.13,0,.18s0,.11,0,.17a2.6,2.6,0,0,0,.45,1.21,1.27,1.27,0,0,0,1.12.55,1.25,1.25,0,0,0,1.07-.53,2.47,2.47,0,0,0,.47-1.16c0-.06,0-.11,0-.17s0-.12,0-.17,0-.11,0-.17,0-.12,0-.17a2.54,2.54,0,0,0-.47-1.18,1.25,1.25,0,0,0-1.07-.53,1.3,1.3,0,0,0-1.17.59,2.55,2.55,0,0,0-.41,1.31V62Z" transform="translate(0)"/><path class="cls-3" d="M202.28,55.19a1.16,1.16,0,0,1,.79.34,1,1,0,0,1,.34.78,1.15,1.15,0,0,1-.33.82,1.09,1.09,0,0,1-1.6,0,1.13,1.13,0,0,1-.34-.81,1,1,0,0,1,.34-.77,1.09,1.09,0,0,1,.79-.34Zm-1,9.52V59.32a1.13,1.13,0,0,1,.29-.8,1,1,0,0,1,1.45,0,1.17,1.17,0,0,1,.28.81v5.37a1.16,1.16,0,0,1-.28.82,1,1,0,0,1-1.45,0,1.12,1.12,0,0,1-.29-.81Z" transform="translate(0)"/><path class="cls-3" d="M204.76,64.71V59.32a1.13,1.13,0,0,1,.29-.8.94.94,0,0,1,.72-.31,1,1,0,0,1,.63.2.85.85,0,0,1,.29.55,1.87,1.87,0,0,1,.76-.62,2.91,2.91,0,0,1,1.18-.21,2.82,2.82,0,0,1,2,.71,2.58,2.58,0,0,1,.78,2v3.86a1.16,1.16,0,0,1-.28.82,1,1,0,0,1-1.45,0,1.12,1.12,0,0,1-.29-.81V61.2a1.31,1.31,0,0,0-.39-1,1.35,1.35,0,0,0-.93-.34,1.18,1.18,0,0,0-1,.4,1.48,1.48,0,0,0-.34,1v3.5a1.15,1.15,0,0,1-.28.82,1,1,0,0,1-1.45,0,1.12,1.12,0,0,1-.29-.81Z" transform="translate(0)"/><path class="cls-3" d="M218.67,59.41a1.15,1.15,0,0,1,0,.13s0,.09,0,.13a1.25,1.25,0,0,1-.26.49.6.6,0,0,1-.48.22h-.17l-.17,0-.2-.06-.2-.08-.41-.13a1.56,1.56,0,0,0-.45-.06,1.42,1.42,0,0,0-1.27.64,2.52,2.52,0,0,0-.42,1.42v.11a2.43,2.43,0,0,0,.48,1.32,1.42,1.42,0,0,0,1.22.6l.27,0,.28-.08.15,0,.15-.06.38-.15a.86.86,0,0,1,.26-.06.82.82,0,0,1,.62.26.86.86,0,0,1,.25.62.91.91,0,0,1-.43.78,3.15,3.15,0,0,1-1,.43,4.25,4.25,0,0,1-.59.12l-.48,0a3.29,3.29,0,0,1-2.62-1.15,4,4,0,0,1-1-2.72,4.07,4.07,0,0,1,1-2.72,3.26,3.26,0,0,1,2.6-1.18l.48,0a4.06,4.06,0,0,1,.55.1,3.08,3.08,0,0,1,1,.39.85.85,0,0,1,.45.76Z" transform="translate(0)"/><path class="cls-3" d="M221.35,62.7a1.51,1.51,0,0,0,.66,1.11,2.22,2.22,0,0,0,1.25.36A2,2,0,0,0,224,64a4.92,4.92,0,0,0,.61-.28l.52-.28a.94.94,0,0,1,.43-.13.76.76,0,0,1,.57.27.86.86,0,0,1,.25.59q0,.56-.83,1a5,5,0,0,1-1.82.62l-.33,0h-.32a3.6,3.6,0,0,1-2.74-1.1,3.86,3.86,0,0,1-1-2.76,4.07,4.07,0,0,1,1-2.72,3.46,3.46,0,0,1,5-.25,4.12,4.12,0,0,1,1.2,2q0,.17,0,.34a2.92,2.92,0,0,1,0,.34,1,1,0,0,1-.21.67.89.89,0,0,1-.67.22Zm3.16-1.34a1.91,1.91,0,0,0-.5-1.08,1.6,1.6,0,0,0-2.21,0,1.79,1.79,0,0,0-.5,1.08Z" transform="translate(0)"/><path class="cls-3" d="M227.56,64.71v-5.5a.89.89,0,0,1,.3-.72,1.16,1.16,0,0,1,.67-.28h.07a1.31,1.31,0,0,1,.69.17.72.72,0,0,1,.29.67h0a2.18,2.18,0,0,1,.61-.62,1.47,1.47,0,0,1,.8-.21,1,1,0,0,1,.67.27,1,1,0,0,1,.31.81.61.61,0,0,1-.21.51,2,2,0,0,1-.5.27l-.24.09-.25.1h0a5.41,5.41,0,0,0-.81.48,1,1,0,0,0-.37.86v3.09a1.16,1.16,0,0,1-.28.82,1,1,0,0,1-1.45,0,1.12,1.12,0,0,1-.29-.81Z" transform="translate(0)"/><path class="cls-3" d="M99.52,74.93a3.3,3.3,0,0,1,2.6,1.2,4.08,4.08,0,0,1,1,2.72,4,4,0,0,1-1,2.72,3.56,3.56,0,0,1-5.24,0,4,4,0,0,1-1-2.72,4.08,4.08,0,0,1,1-2.72,3.26,3.26,0,0,1,2.6-1.18ZM98.4,77.34a2.5,2.5,0,0,0-.46,1.2c0,.06,0,.11,0,.16s0,.1,0,.15V79a.66.66,0,0,0,0,.13,2.49,2.49,0,0,0,.44,1.22,1.44,1.44,0,0,0,2.28,0,2.52,2.52,0,0,0,.44-1.22.73.73,0,0,0,0-.13v-.12s0-.1,0-.15,0-.11,0-.16a2.55,2.55,0,0,0-.46-1.21,1.29,1.29,0,0,0-1.13-.55A1.32,1.32,0,0,0,98.4,77.34Z" transform="translate(0)"/><path class="cls-3" d="M104.31,81.51V76a.88.88,0,0,1,.3-.72,1.16,1.16,0,0,1,.67-.28h.07a1.31,1.31,0,0,1,.69.17.72.72,0,0,1,.29.67h0a2.18,2.18,0,0,1,.61-.62,1.47,1.47,0,0,1,.8-.21,1,1,0,0,1,.67.27,1,1,0,0,1,.31.81.61.61,0,0,1-.21.51,2,2,0,0,1-.5.27l-.24.09-.25.1h0a5.44,5.44,0,0,0-.8.48,1,1,0,0,0-.37.86v3.09a1.16,1.16,0,0,1-.28.82,1,1,0,0,1-1.45,0,1.12,1.12,0,0,1-.29-.81Z" transform="translate(0)"/><path class="cls-3" d="M118.52,76.39a1,1,0,0,1-.23.64.74.74,0,0,1-.59.27.93.93,0,0,1-.35-.09l-.45-.2-.28-.12-.28-.11-.22,0-.22,0a.87.87,0,0,0-.48.13.47.47,0,0,0-.21.43.44.44,0,0,0,.22.36,3.15,3.15,0,0,0,.56.29l.47.17.5.2a4.81,4.81,0,0,1,1.2.74,1.62,1.62,0,0,1,.55,1.32,2.12,2.12,0,0,1-.79,1.68,3.1,3.1,0,0,1-2.09.67l-.44,0-.46-.08a4,4,0,0,1-1.32-.53,1.07,1.07,0,0,1-.59-.9.84.84,0,0,1,0-.17.53.53,0,0,1,.08-.18,1.13,1.13,0,0,1,.29-.38.71.71,0,0,1,.48-.17,1.23,1.23,0,0,1,.45.08,2.42,2.42,0,0,1,.38.19l.08,0,.08,0a2.94,2.94,0,0,0,.49.25A1.66,1.66,0,0,0,116,81a1,1,0,0,0,.63-.15.53.53,0,0,0,.17-.43.43.43,0,0,0-.22-.36,3.13,3.13,0,0,0-.55-.29l-.47-.18-.51-.2a4.7,4.7,0,0,1-1.2-.74,1.65,1.65,0,0,1-.55-1.33,2.12,2.12,0,0,1,.77-1.7,2.93,2.93,0,0,1,2-.65l.41,0a3,3,0,0,1,.43.08,3.27,3.27,0,0,1,1.16.47,1,1,0,0,1,.52.89Z" transform="translate(0)"/><path class="cls-3" d="M125.55,76.21a1.15,1.15,0,0,1,0,.13s0,.09,0,.13a1.26,1.26,0,0,1-.26.49.6.6,0,0,1-.48.22h-.17l-.17,0-.2-.06L124,77l-.41-.13a1.56,1.56,0,0,0-.45-.06,1.42,1.42,0,0,0-1.27.64,2.53,2.53,0,0,0-.42,1.42V79a2.43,2.43,0,0,0,.48,1.32,1.42,1.42,0,0,0,1.22.6l.27,0,.28-.08.15,0,.15-.06.38-.15a.86.86,0,0,1,.26-.06.83.83,0,0,1,.62.26.86.86,0,0,1,.25.62.9.9,0,0,1-.43.78,3.15,3.15,0,0,1-1,.43,4.25,4.25,0,0,1-.59.12l-.48,0a3.29,3.29,0,0,1-2.62-1.15,4,4,0,0,1-1-2.72,4.07,4.07,0,0,1,1-2.72,3.26,3.26,0,0,1,2.6-1.18l.48,0a4,4,0,0,1,.55.1,3.08,3.08,0,0,1,1,.39.85.85,0,0,1,.45.76Z" transform="translate(0)"/><path class="cls-3" d="M127.58,72a1.17,1.17,0,0,1,.79.34,1,1,0,0,1,.34.78,1.14,1.14,0,0,1-.33.82,1.09,1.09,0,0,1-1.6,0,1.13,1.13,0,0,1-.34-.81,1,1,0,0,1,.34-.77,1.09,1.09,0,0,1,.79-.34Zm-1,9.52V76.12a1.13,1.13,0,0,1,.29-.8,1,1,0,0,1,1.45,0,1.16,1.16,0,0,1,.28.81v5.37a1.16,1.16,0,0,1-.28.82,1,1,0,0,1-1.45,0,1.12,1.12,0,0,1-.29-.81Z" transform="translate(0)"/><path class="cls-3" d="M135.12,76.39a1,1,0,0,1-.23.64.74.74,0,0,1-.59.27.92.92,0,0,1-.35-.09l-.45-.2-.28-.12-.28-.11-.22,0-.22,0a.87.87,0,0,0-.48.13.47.47,0,0,0-.21.43.44.44,0,0,0,.22.36,3.14,3.14,0,0,0,.56.29l.47.17.5.2a4.79,4.79,0,0,1,1.2.74,1.62,1.62,0,0,1,.55,1.32,2.13,2.13,0,0,1-.78,1.68,3.1,3.1,0,0,1-2.09.67l-.44,0-.46-.08a4,4,0,0,1-1.32-.53,1.07,1.07,0,0,1-.59-.9.77.77,0,0,1,0-.17.53.53,0,0,1,.08-.18,1.12,1.12,0,0,1,.29-.38.71.71,0,0,1,.48-.17,1.23,1.23,0,0,1,.45.08,2.41,2.41,0,0,1,.38.19l.08,0,.08,0a2.87,2.87,0,0,0,.49.25,1.66,1.66,0,0,0,.62.11,1,1,0,0,0,.63-.15.54.54,0,0,0,.17-.43.43.43,0,0,0-.22-.36,3.16,3.16,0,0,0-.55-.29l-.47-.18-.51-.2a4.71,4.71,0,0,1-1.21-.74,1.65,1.65,0,0,1-.54-1.33,2.12,2.12,0,0,1,.77-1.7,2.93,2.93,0,0,1,2-.65l.41,0a3,3,0,0,1,.43.08,3.26,3.26,0,0,1,1.16.47,1,1,0,0,1,.53.89Z" transform="translate(0)"/><path class="cls-3" d="M141.44,76.39a1,1,0,0,1-.23.64.74.74,0,0,1-.59.27.93.93,0,0,1-.35-.09l-.45-.2-.28-.12-.28-.11-.22,0-.22,0a.87.87,0,0,0-.48.13.47.47,0,0,0-.21.43.44.44,0,0,0,.22.36,3.15,3.15,0,0,0,.56.29l.47.17.5.2a4.8,4.8,0,0,1,1.2.74,1.62,1.62,0,0,1,.55,1.32,2.12,2.12,0,0,1-.79,1.68,3.1,3.1,0,0,1-2.09.67l-.44,0-.46-.08a4,4,0,0,1-1.32-.53,1.07,1.07,0,0,1-.59-.9.84.84,0,0,1,0-.17.53.53,0,0,1,.08-.18,1.13,1.13,0,0,1,.29-.38.71.71,0,0,1,.48-.17,1.23,1.23,0,0,1,.45.08,2.42,2.42,0,0,1,.38.19l.08,0,.08,0a3,3,0,0,0,.49.25,1.66,1.66,0,0,0,.62.11,1,1,0,0,0,.63-.15.54.54,0,0,0,.17-.43.43.43,0,0,0-.22-.36,3.13,3.13,0,0,0-.55-.29l-.47-.18-.51-.2a4.7,4.7,0,0,1-1.2-.74,1.65,1.65,0,0,1-.55-1.33,2.12,2.12,0,0,1,.77-1.7,2.93,2.93,0,0,1,2-.65l.41,0a3,3,0,0,1,.43.08,3.27,3.27,0,0,1,1.16.47,1,1,0,0,1,.52.89Z" transform="translate(0)"/><path class="cls-3" d="M146,74.93a3.3,3.3,0,0,1,2.6,1.2,4.08,4.08,0,0,1,1,2.72,4,4,0,0,1-1,2.72,3.56,3.56,0,0,1-5.24,0,4,4,0,0,1-1-2.72,4.07,4.07,0,0,1,1-2.72,3.26,3.26,0,0,1,2.6-1.18Zm-1.13,2.41a2.53,2.53,0,0,0-.46,1.2q0,.08,0,.16a1.26,1.26,0,0,0,0,.15V79a.72.72,0,0,0,0,.13,2.49,2.49,0,0,0,.44,1.22,1.44,1.44,0,0,0,2.28,0,2.5,2.5,0,0,0,.44-1.22.65.65,0,0,0,0-.13v-.12s0-.1,0-.15a1.46,1.46,0,0,1,0-.16,2.54,2.54,0,0,0-.46-1.21,1.29,1.29,0,0,0-1.13-.55A1.33,1.33,0,0,0,144.87,77.34Z" transform="translate(0)"/><path class="cls-3" d="M150.79,81.51V76a.88.88,0,0,1,.3-.72,1.15,1.15,0,0,1,.66-.28h.07a1.31,1.31,0,0,1,.69.17.72.72,0,0,1,.29.67h0a2.18,2.18,0,0,1,.61-.62,1.47,1.47,0,0,1,.8-.21,1,1,0,0,1,.67.27,1,1,0,0,1,.31.81.6.6,0,0,1-.21.51,2,2,0,0,1-.5.27l-.24.09-.25.1h0a5.35,5.35,0,0,0-.8.48,1,1,0,0,0-.37.86v3.09a1.16,1.16,0,0,1-.28.82,1,1,0,0,1-1.45,0,1.12,1.12,0,0,1-.29-.81Z" transform="translate(0)"/><path class="cls-3" d="M166.82,76.12V82a3.37,3.37,0,0,1-1.08,2.73,4.2,4.2,0,0,1-2.8.91,5.39,5.39,0,0,1-.63,0,6.22,6.22,0,0,1-.81-.16,4.63,4.63,0,0,1-1.2-.48.93.93,0,0,1-.54-.82.58.58,0,0,1,0-.12l0-.12a1.1,1.1,0,0,1,.28-.41.82.82,0,0,1,.42-.23h.07a1.39,1.39,0,0,1,.5.1l.57.22c.21.08.43.14.66.21a3,3,0,0,0,.79.1,1.82,1.82,0,0,0,1.22-.41,1.45,1.45,0,0,0,.48-1.17v-.49h0a1.92,1.92,0,0,1-.82.71,2.85,2.85,0,0,1-1.21.24,2.6,2.6,0,0,1-2.35-1.18,4.83,4.83,0,0,1-.76-2.68,4.44,4.44,0,0,1,.9-2.73,2.87,2.87,0,0,1,2.42-1.2h.2l.2,0a2.79,2.79,0,0,1,.83.3,1.6,1.6,0,0,1,.62.59,1.17,1.17,0,0,1,.34-.62,1,1,0,0,1,.67-.22.94.94,0,0,1,.73.31,1.17,1.17,0,0,1,.28.81Zm-2,2.76s0-.1,0-.15,0-.11,0-.17a2.61,2.61,0,0,0-.45-1.21,1.38,1.38,0,0,0-2.19,0,2.5,2.5,0,0,0-.47,1.16c0,.06,0,.11,0,.17s0,.12,0,.17a2.64,2.64,0,0,0,.39,1.44,1.43,1.43,0,0,0,2.34,0A2.55,2.55,0,0,0,164.8,79v-.08Z" transform="translate(0)"/><path class="cls-3" d="M168.29,81.51V76a.88.88,0,0,1,.3-.72,1.15,1.15,0,0,1,.67-.28h.07a1.31,1.31,0,0,1,.69.17.72.72,0,0,1,.29.67h0a2.15,2.15,0,0,1,.61-.62,1.46,1.46,0,0,1,.8-.21,1,1,0,0,1,.67.27,1,1,0,0,1,.31.81.6.6,0,0,1-.21.51,2,2,0,0,1-.5.27l-.24.09-.25.1h0a5.39,5.39,0,0,0-.8.48,1,1,0,0,0-.37.86v3.09a1.15,1.15,0,0,1-.28.82,1,1,0,0,1-1.45,0,1.12,1.12,0,0,1-.29-.81Z" transform="translate(0)"/><path class="cls-3" d="M180.22,76.32v5.22a2.31,2.31,0,0,1,0,.24,1.3,1.3,0,0,1-.23.59.83.83,0,0,1-.72.27.85.85,0,0,1-.64-.22,1.49,1.49,0,0,1-.32-.62,2.67,2.67,0,0,1-.87.69,2.37,2.37,0,0,1-1.05.23A3,3,0,0,1,174,81.63a4.06,4.06,0,0,1-1-2.78,4.11,4.11,0,0,1,1-2.79,3,3,0,0,1,2.36-1.12,2.62,2.62,0,0,1,1.07.23,2,2,0,0,1,.85.71.92.92,0,0,1,.32-.61,1,1,0,0,1,.64-.24.82.82,0,0,1,.72.27,1.35,1.35,0,0,1,.23.6,2.33,2.33,0,0,1,0,.24v.21Zm-5.17,2.52V79a.66.66,0,0,0,0,.13,2.49,2.49,0,0,0,.44,1.22,1.29,1.29,0,0,0,1.14.56,1.25,1.25,0,0,0,1.11-.56,2.52,2.52,0,0,0,.43-1.22.64.64,0,0,0,0-.13v-.12s0-.1,0-.15a1.45,1.45,0,0,1,0-.16,2.56,2.56,0,0,0-.45-1.2,1.25,1.25,0,0,0-1.09-.55,1.29,1.29,0,0,0-1.13.55,2.5,2.5,0,0,0-.46,1.2c0,.06,0,.11,0,.16s0,.1,0,.15Z" transform="translate(0)"/><path class="cls-3" d="M186.78,76.39a1,1,0,0,1-.23.64.74.74,0,0,1-.6.27.93.93,0,0,1-.35-.09l-.45-.2-.28-.12-.28-.11-.22,0-.22,0a.87.87,0,0,0-.48.13.47.47,0,0,0-.21.43.44.44,0,0,0,.22.36,3.12,3.12,0,0,0,.56.29l.47.17.5.2a4.81,4.81,0,0,1,1.2.74,1.62,1.62,0,0,1,.55,1.32,2.12,2.12,0,0,1-.78,1.68,3.1,3.1,0,0,1-2.09.67l-.44,0-.46-.08a4,4,0,0,1-1.32-.53,1.07,1.07,0,0,1-.6-.9.85.85,0,0,1,0-.17.53.53,0,0,1,.08-.18,1.15,1.15,0,0,1,.29-.38.71.71,0,0,1,.48-.17,1.23,1.23,0,0,1,.45.08,2.41,2.41,0,0,1,.38.19l.08,0,.08,0a3,3,0,0,0,.49.25,1.67,1.67,0,0,0,.62.11,1,1,0,0,0,.63-.15.53.53,0,0,0,.17-.43.43.43,0,0,0-.22-.36,3.13,3.13,0,0,0-.55-.29l-.47-.18-.51-.2a4.7,4.7,0,0,1-1.2-.74,1.65,1.65,0,0,1-.55-1.33,2.12,2.12,0,0,1,.77-1.7,2.93,2.93,0,0,1,2-.65l.41,0a3,3,0,0,1,.43.08,3.27,3.27,0,0,1,1.16.47,1,1,0,0,1,.52.89Z" transform="translate(0)"/><path class="cls-3" d="M188,76.12a1.13,1.13,0,0,1,.29-.8A.94.94,0,0,1,189,75a1,1,0,0,1,.67.22,1.17,1.17,0,0,1,.34.62,1.73,1.73,0,0,1,.76-.67,2.7,2.7,0,0,1,1-.26H192a2.7,2.7,0,0,1,2.38,1.19,4.88,4.88,0,0,1,.87,2.62v.2a4.21,4.21,0,0,1-.9,2.61,2.88,2.88,0,0,1-2.42,1.18h-.25l-.27,0a3.21,3.21,0,0,1-.69-.22A2.64,2.64,0,0,1,190,82v2.45a1.16,1.16,0,0,1-.28.81,1,1,0,0,1-1.45,0,1.15,1.15,0,0,1-.29-.81Zm2,2.64c0,.07,0,.13,0,.18s0,.11,0,.17a2.59,2.59,0,0,0,.45,1.21,1.38,1.38,0,0,0,2.19,0,2.49,2.49,0,0,0,.47-1.16c0-.06,0-.11,0-.17s0-.12,0-.17,0-.11,0-.17,0-.12,0-.17a2.56,2.56,0,0,0-.47-1.18,1.25,1.25,0,0,0-1.07-.53,1.3,1.3,0,0,0-1.17.59A2.55,2.55,0,0,0,190,78.7v.08Z" transform="translate(0)"/><path class="cls-3" d="M196.75,77.46a1.69,1.69,0,0,1-.59-1.33,1.48,1.48,0,0,1,.24-.85,1.73,1.73,0,0,1,.63-.56,1.67,1.67,0,0,1-.45-.5,1.3,1.3,0,0,1-.17-.67,1.4,1.4,0,0,1,.52-1.14,1.9,1.9,0,0,1,1.24-.42,1.94,1.94,0,0,1,1.24.42,1.39,1.39,0,0,1,.53,1.15,1.43,1.43,0,0,1-.16.66,1.26,1.26,0,0,1-.46.51,1.53,1.53,0,0,1,.64.57,1.56,1.56,0,0,1,.23.84,1.68,1.68,0,0,1-.6,1.35,2.13,2.13,0,0,1-1.42.5A2.08,2.08,0,0,1,196.75,77.46Zm.88-2a.88.88,0,0,0-.2.58.93.93,0,0,0,.18.56.64.64,0,0,0,.56.25.65.65,0,0,0,.55-.25.91.91,0,0,0,.2-.57.85.85,0,0,0-.2-.6.7.7,0,0,0-.54-.22A.69.69,0,0,0,197.64,75.47Zm.11-2.23a.66.66,0,0,0-.15.44.65.65,0,0,0,.16.45.55.55,0,0,0,.43.17.57.57,0,0,0,.44-.17.64.64,0,0,0,.15-.45.66.66,0,0,0-.15-.45.55.55,0,0,0-.44-.18A.56.56,0,0,0,197.75,73.24Z" transform="translate(0)"/><path class="cls-3" d="M202.35,77.48l-.69,1.22a.42.42,0,0,1-.11.14l-.14.09-.11,0h-.1a.54.54,0,0,1-.38-.16.51.51,0,0,1-.16-.38.48.48,0,0,1,0-.16l.06-.16.68-1.22a.4.4,0,0,1,.11-.13l.14-.09.12,0h.1a.56.56,0,0,1,.39.16.5.5,0,0,1,.17.38.41.41,0,0,1,0,.15l-.06.14v0Z" transform="translate(0)"/><path class="cls-3" d="M204.36,77.3V73.2h-.48a.47.47,0,0,1-.42-.16.63.63,0,0,1-.14-.37h0a.59.59,0,0,1,.15-.39.5.5,0,0,1,.41-.18H205a.53.53,0,0,1,.4.18.61.61,0,0,1,.14.41V77.3a.63.63,0,0,1-1,.47.6.6,0,0,1-.18-.47Z" transform="translate(0)"/><path class="cls-3" d="M210,76.81a.82.82,0,0,1,.45.13.55.55,0,0,1,0,.82.68.68,0,0,1-.41.13h-2.73a.78.78,0,0,1-.45-.13.46.46,0,0,1-.18-.4.43.43,0,0,1,0-.2l.09-.16,0,0,0,0,.32-.37.33-.36,0,0,0,0,.69-.8a10.61,10.61,0,0,0,.65-.85,2.16,2.16,0,0,0,.2-.35,1,1,0,0,0,.09-.41.64.64,0,0,0-.17-.44.54.54,0,0,0-.42-.19.53.53,0,0,0-.49.21,1.75,1.75,0,0,0-.21.45v0a.08.08,0,0,0,0,0,2,2,0,0,1-.18.42.4.4,0,0,1-.38.18.55.55,0,0,1-.44-.18.63.63,0,0,1-.15-.42,1.72,1.72,0,0,1,.58-1.31,1.91,1.91,0,0,1,1.33-.54,1.89,1.89,0,0,1,1.28.46,1.56,1.56,0,0,1,.53,1.24,2.08,2.08,0,0,1-.38,1.16,10.44,10.44,0,0,1-.82,1.09l-.4.46-.36.42Z" transform="translate(0)"/><circle class="cls-4" cx="39.97" cy="52.69" r="38.77"/><g class="cls-5"><circle class="cls-6" cx="39.97" cy="52.69" r="38.77"/></g><g class="cls-7"><path class="cls-8" d="M35.91,56.12a1.58,1.58,0,1,1-1.57-1.57,1.57,1.57,0,0,1,1.57,1.57" transform="translate(0)"/><circle class="cls-9" cx="34.34" cy="56.12" r="1.57"/><path class="cls-10" d="M70,41.3c0-.05-1.22,0-1.27-.05a15.27,15.27,0,0,1-2.8-1.11l-.56-.27a29.19,29.19,0,0,0-9.91-2.67A32.28,32.28,0,0,0,50.29,37l-.4,0a10.36,10.36,0,0,0-3.65.74,15.35,15.35,0,0,1-3.07.68c-1.58.15-2.68.21-4.81.3h-.83a24.13,24.13,0,0,1-2.43-.06,3.93,3.93,0,0,0-3,.76,2.45,2.45,0,0,0-.33.47h0l-4-.12a9,9,0,0,0-3.46.59,2.09,2.09,0,0,0-1.17,1.49c-1,.15-1.88.27-2.82.34a5.74,5.74,0,0,0-2.58.8,2.34,2.34,0,0,0-1.15,2.44,2.21,2.21,0,0,0,1.71,2.13A15,15,0,0,0,23,48h.18c.33,0,.69,0,1.07,0l.84,0h0l1.42.07c.67,0,1.31.08,2,.08h.83c-1,.53-2.06,1-3.09,1.45l-1.79.81-.19.09a3.15,3.15,0,0,0-.8.46,6.82,6.82,0,0,1-2,1.09,8.68,8.68,0,0,0-1.71.87c-1.21.85-1.48,1.5-1.14,2.74a2.51,2.51,0,0,0,2.56,1.88h.22a12.09,12.09,0,0,0,2.73-.42l.4-.09a8.61,8.61,0,0,1,1.35-.16c.32,0,.66,0,1-.09a21.32,21.32,0,0,0,7.31-2.28,1.09,1.09,0,0,0,.63.2H35a10.27,10.27,0,0,1,1.46-.05,8.87,8.87,0,0,0,1.8-.1l.71-.13a17.2,17.2,0,0,0,3.21-.8l.27-.1a11.14,11.14,0,0,0,1-.44,3.77,3.77,0,0,0,2.28,1.29,8.47,8.47,0,0,0,1.65.26,3.25,3.25,0,0,0,0,1.46h0l-.86.56-2.16,1.43a1.58,1.58,0,0,1-1.22.35l-2.86-.52-2.8-.51a5.62,5.62,0,0,0-3.48.13,4.07,4.07,0,0,0-2.08,2.63,1.87,1.87,0,0,0,.18,1.73A2.62,2.62,0,0,0,34.2,63h.11a1.34,1.34,0,0,1,.78.18,11.09,11.09,0,0,0,4.25,1.92,49.16,49.16,0,0,1,7.85,2.29,16.06,16.06,0,0,0,5.57,1h.37A32.43,32.43,0,0,0,61,67.22,22.49,22.49,0,0,0,66.59,65a.15.15,0,0,0,.08.15,13.56,13.56,0,0,0,3.66.89h.06a9.83,9.83,0,0,0,1.55.15h.32a.15.15,0,0,0,0-.29l.12-13.17c.08,0,0-11.31,0-11.39a.15.15,0,0,0-.13-.16Z" transform="translate(0)"/><path class="cls-11" d="M68.9,41.69A22.51,22.51,0,0,1,65.3,40a28.92,28.92,0,0,0-9.86-2.65,32.12,32.12,0,0,0-5.15-.15,11.25,11.25,0,0,0-4,.76,15.47,15.47,0,0,1-3.11.69c-1.62.15-2.74.21-4.83.3-1.22,0-2.19,0-3.27-.06a3.76,3.76,0,0,0-2.94.73,3,3,0,0,0-.33.48" transform="translate(0)"/><path class="cls-11" d="M68.64,63.09a3.29,3.29,0,0,1-1.41,1.31,20.6,20.6,0,0,1-6.31,2.68,32.37,32.37,0,0,1-7.8,1.17,15.9,15.9,0,0,1-5.88-1A48.64,48.64,0,0,0,39.35,65a11,11,0,0,1-4.19-1.9,1.63,1.63,0,0,0-1-.21c-1.54-.06-2.67-1.3-2.16-2.63a4,4,0,0,1,2-2.55,5.5,5.5,0,0,1,3.4-.12l5.67,1a1.73,1.73,0,0,0,1.32-.37l3-2" transform="translate(0)"/><path class="cls-11" d="M43.47,40.65a34.88,34.88,0,0,0-4.69,2.45c-2.72,2-5.87,3.23-8.79,4.88-1.76,1-3.67,1.74-5.5,2.6a4,4,0,0,0-1,.52c-1.08,1-2.54,1.15-3.7,2s-1.42,1.35-1.09,2.59a2.37,2.37,0,0,0,2.42,1.77,12.78,12.78,0,0,0,3.32-.5c.76-.17,1.57-.13,2.35-.24a21.21,21.21,0,0,0,7.29-2.28" transform="translate(0)"/><path class="cls-11" d="M35.37,41.36c-.12,0-1.61,0-1.92,0-.15,0-4.59-.06-5.22,0a7.19,7.19,0,0,0-2.72.32c-1.8.33-3.46.61-5.22.75a5.6,5.6,0,0,0-2.52.77,2.21,2.21,0,0,0-1.08,2.3,2.07,2.07,0,0,0,1.6,2,15.35,15.35,0,0,0,4.86.32c.6,0,1.29,0,1.93,0,1.27,0,2.28.15,3.39.16l1.39,0" transform="translate(0)"/><path class="cls-11" d="M38.68,40c-1.25,0-3.77,0-3.77,0l-3.22.12-4-.12a9,9,0,0,0-3.38.57A1.9,1.9,0,0,0,23.23,42" transform="translate(0)"/><path class="cls-11" d="M22.34,52.06a8.4,8.4,0,0,1,.36.88c.37,1.28,0,1.89-1.54,2.5-.66.26-1.32.49-2,.74" transform="translate(0)"/><path class="cls-11" d="M44.64,51.91a4.92,4.92,0,0,1-2.58,1.61,21.84,21.84,0,0,1-3.89.92c-1.09.21-2.17,0-3.25.15a.92.92,0,0,1-1-.77,7.46,7.46,0,0,1-.27-1.62" transform="translate(0)"/><path class="cls-11" d="M66.72,65a13.65,13.65,0,0,0,3.68.89,10.23,10.23,0,0,0,2,.14" transform="translate(0)"/><path class="cls-11" d="M32.36,59.54c.44,0,1.1-.08,1.54,0,1.08.08,1.48.64,1.41,1.76a16.09,16.09,0,0,1-.45,1.62" transform="translate(0)"/><path class="cls-11" d="M21.17,42.49a1.81,1.81,0,0,1-1,1.18,5.12,5.12,0,0,1-3.17.66" transform="translate(0)"/><path class="cls-11" d="M43.54,53a3.61,3.61,0,0,0,2.21,1.24,7.77,7.77,0,0,0,3.31.16" transform="translate(0)"/><path class="cls-11" d="M72.24,41.17c-.66-.06-3.53.24-3.79,1a6.52,6.52,0,0,1-.72,1.18" transform="translate(0)"/><path class="cls-11" d="M39.49,60.45a8.54,8.54,0,0,0,0,2.35" transform="translate(0)"/><path class="cls-11" d="M47.51,54.63A2.58,2.58,0,0,0,48,57" transform="translate(0)"/><path class="cls-11" d="M27.64,41.53a3.39,3.39,0,0,0,0,1.55" transform="translate(0)"/><path class="cls-11" d="M26.76,49.63a2.93,2.93,0,0,1,.44,1.55" transform="translate(0)"/><path class="cls-11" d="M43.47,64.27c0,.58-.56.87-.66,1.4" transform="translate(0)"/><path class="cls-11" d="M26,49.92l.59,1.4" transform="translate(0)"/><path class="cls-11" d="M24.33,55.59c.17.37-.05.82.22,1.18" transform="translate(0)"/><path class="cls-11" d="M24.63,46.68a2.1,2.1,0,0,1-.29,1.1" transform="translate(0)"/><path class="cls-11" d="M28.53,41.53a2,2,0,0,0-.07.81" transform="translate(0)"/></g></g></g></svg>