<svg xmlns="http://www.w3.org/2000/svg" xmlns:xlink="http://www.w3.org/1999/xlink" viewBox="0 0 454.49 114.13"><defs><style>.cls-1{fill:#e59a36;}.cls-2,.cls-4{fill:#d1eefc;}.cls-2{fill-rule:evenodd;}.cls-3{fill:#88a0d2;}.cls-5{fill:#f8cdb2;}.cls-6{fill:#7bc8be;}.cls-7{fill:#41ab99;}.cls-8{fill:#fff;}.cls-9{fill:#00a0b9;}.cls-10{fill:#dd8760;}.cls-11{fill:#8e6327;}.cls-12{clip-path:url(#clip-path);}.cls-13{fill:#c28530;}</style><clipPath id="clip-path"><path class="cls-1" d="M442.93,19.61s-8.76,12.27-28.18,10.58S392,19.75,396.22,11.8c2.86-5.42,12.66-8.36,20.28-3.27C426.53,15.22,437.68,20.24,442.93,19.61Z"/></clipPath></defs><g id="Layer_2" data-name="Layer 2"><g id="Layer_1-2" data-name="Layer 1"><path class="cls-2" d="M279.37,77.6l4,.06h3.22l14.92.12,26.53.12,2.69-.06,5.45-.27,5.1-.47c4.45-.7,8.78-1.27,12.16-2.85a11,11,0,0,0,3.39-2c2.7-2.85,2.72-8.26,3.64-12.65.46-2.25.36-4.69.8-7a11.83,11.83,0,0,0,0-3.71c-.26-1.37,0-2.76-.25-4-.09-.84-.19-1.68-.28-2.52a29.31,29.31,0,0,0-1.57-5.92c-1-2.12-2.08-3-3.57-4.56a18.06,18.06,0,0,0-8.7-5.28c-5-1.33-12.28-.95-18.76-.95l-6.47,0-7.23-.08-14.58-.09-10.37.09-4.88.08c-8.74-.05-17.88,0-26.53,0l-18.41,0-20.61-.08-41.52-.09L148,25.49l-14.83.08L109,25.81l-8.57.09L77,26.37l-14.24.36c-12.35.63-24.71.84-35.54,1.81-5.86.52-12.9,1-15.83,2.43-6.52,3.08-7.48,7.41-10,11.73C1.1,43.91.8,45.13.5,46.34S.17,48.79,0,50v2.43c.27,1.77.53,3.53.8,5.3.49,1.35,1,2.71,1.49,4.06l3,4.21c2,2.75,2.25,5.61,7.86,7.26l4.58.94c3,.59,6.62,1.2,10.26,1.55,8.89.84,19.17.78,29.27,1.27l14.33.27,14.84.11,44.1.24h9.16l42.51.12,75.57.12,7.66-.06,13.95-.24"/><path class="cls-3" d="M105.87,49.35a15.74,15.74,0,0,1,4-10.92A13.36,13.36,0,0,1,120.25,34c.51,0,1.07,0,1.7.09a14.09,14.09,0,0,1,1.9.29,11.44,11.44,0,0,1,3.72,1.44,3.22,3.22,0,0,1,1.67,2.87,2.9,2.9,0,0,1-.71,2,2.33,2.33,0,0,1-1.88.84,3.58,3.58,0,0,1-.48,0l-.44-.09-.77-.27a8.2,8.2,0,0,1-.82-.36c-.47-.16-1-.32-1.63-.48a9.59,9.59,0,0,0-2.26-.23,6.7,6.7,0,0,0-5.87,2.83,11.3,11.3,0,0,0-2,6.66,10.67,10.67,0,0,0,2,6.48,6.79,6.79,0,0,0,5.85,2.76,8.54,8.54,0,0,0,2.3-.27,13.17,13.17,0,0,0,1.72-.6l1-.48a4.16,4.16,0,0,1,1-.32l.32-.06.31,0a2.31,2.31,0,0,1,1.57.52,3.51,3.51,0,0,1,.9,1.19,2.06,2.06,0,0,1,.23.59,2.62,2.62,0,0,1,.06.54,3.35,3.35,0,0,1-1.73,3,11.12,11.12,0,0,1-3.79,1.42,14.88,14.88,0,0,1-2.09.34c-.67,0-1.27.08-1.8.08a13.31,13.31,0,0,1-10.36-4.43,15.63,15.63,0,0,1-4-10.91Z"/><path class="cls-3" d="M132.34,61.13V44.71a2.62,2.62,0,0,1,.9-2.13,3.34,3.34,0,0,1,2-.84h.21a3.88,3.88,0,0,1,2.07.52,2.15,2.15,0,0,1,.86,2l.08,0a6.64,6.64,0,0,1,1.82-1.84,4.44,4.44,0,0,1,2.4-.62,3,3,0,0,1,2,.79,3.05,3.05,0,0,1,.92,2.43,1.8,1.8,0,0,1-.63,1.53,5.94,5.94,0,0,1-1.5.82l-.71.27-.76.31a.09.09,0,0,0-.06,0l-.06,0a16.25,16.25,0,0,0-2.41,1.42,3,3,0,0,0-1.1,2.56v9.21a3.45,3.45,0,0,1-.84,2.45,3.05,3.05,0,0,1-4.33,0,3.35,3.35,0,0,1-.85-2.41Z"/><path class="cls-3" d="M166.91,45.63V61.22a6,6,0,0,1,0,.71,3.79,3.79,0,0,1-.69,1.76,2.48,2.48,0,0,1-2.15.79,2.51,2.51,0,0,1-1.93-.67,4.56,4.56,0,0,1-1-1.84A8,8,0,0,1,158.55,64a7.09,7.09,0,0,1-3.14.69,9.08,9.08,0,0,1-7.08-3.24,12.13,12.13,0,0,1-2.87-8.32,12.24,12.24,0,0,1,2.91-8.33,9,9,0,0,1,7-3.35,7.63,7.63,0,0,1,3.2.68,6,6,0,0,1,2.53,2.12,2.79,2.79,0,0,1,1-1.83,2.87,2.87,0,0,1,1.93-.72,2.43,2.43,0,0,1,2.15.82,3.87,3.87,0,0,1,.69,1.77,6.13,6.13,0,0,1,0,.72v.58Zm-15.42,7.52v.4a1.94,1.94,0,0,0,0,.4,7.44,7.44,0,0,0,1.31,3.63,3.87,3.87,0,0,0,3.41,1.68,3.72,3.72,0,0,0,3.3-1.68,7.42,7.42,0,0,0,1.3-3.63,1.94,1.94,0,0,0,0-.4v-.36c0-.14,0-.28,0-.44s0-.31,0-.48a7.67,7.67,0,0,0-1.34-3.59,3.71,3.71,0,0,0-3.26-1.63,3.83,3.83,0,0,0-3.36,1.63,7.49,7.49,0,0,0-1.36,3.59c0,.17,0,.33,0,.48a3.39,3.39,0,0,0,0,.44Z"/><path class="cls-3" d="M174.65,61.42,169.55,47c-.17-.44-.3-.85-.4-1.21a5.82,5.82,0,0,1-.19-1,.77.77,0,0,1,0-.27v-.27a2.15,2.15,0,0,1,.86-1.72,3.26,3.26,0,0,1,2.15-.71,2.69,2.69,0,0,1,1.84.65,3.17,3.17,0,0,1,1,1.73l3.47,11.46h.09l3.51-11.25a4.23,4.23,0,0,1,1-1.88,2.71,2.71,0,0,1,2-.71,2.68,2.68,0,0,1,2,.71,4.29,4.29,0,0,1,1,1.92l3.51,11.21h.09L195,44.08a3.07,3.07,0,0,1,1-1.69,2.69,2.69,0,0,1,1.84-.65,3.08,3.08,0,0,1,2.17.77,2.8,2.8,0,0,1,.84,2.16,2.92,2.92,0,0,1-.19,1c-.12.35-.26.76-.39,1.23l-5.15,14.49a5.52,5.52,0,0,1-1.31,2.2,3.13,3.13,0,0,1-2.33.86,3.24,3.24,0,0,1-2.21-.73,4.32,4.32,0,0,1-1.25-2L184.93,52h-.08l-3.1,9.7a4.35,4.35,0,0,1-1.25,2.07,3.25,3.25,0,0,1-2.22.73,3.11,3.11,0,0,1-2.32-.86,5.6,5.6,0,0,1-1.31-2.15Z"/><path class="cls-3" d="M202.78,61.14V35.38a3.36,3.36,0,0,1,.86-2.38A3,3,0,0,1,208,33a3.44,3.44,0,0,1,.83,2.42V61.14a3.42,3.42,0,0,1-.83,2.44,3.05,3.05,0,0,1-4.33,0,3.34,3.34,0,0,1-.86-2.4Z"/><path class="cls-3" d="M217,55.12a4.54,4.54,0,0,0,2,3.32,6.67,6.67,0,0,0,3.72,1.07,6.05,6.05,0,0,0,2.16-.38,14.54,14.54,0,0,0,1.82-.84l1.54-.83a2.87,2.87,0,0,1,1.3-.38,2.25,2.25,0,0,1,1.71.82,2.53,2.53,0,0,1,.76,1.77c0,1.12-.83,2.15-2.47,3.1a15,15,0,0,1-5.44,1.84l-1,.08c-.32,0-.63,0-.94,0A10.73,10.73,0,0,1,214,61.45a11.51,11.51,0,0,1-3.12-8.26,12.22,12.22,0,0,1,3-8.13,9.77,9.77,0,0,1,7.78-3.53,9.64,9.64,0,0,1,7,2.77,12.26,12.26,0,0,1,3.58,6.11q.08.5.15,1a9,9,0,0,1,.06,1,2.81,2.81,0,0,1-.63,2,2.67,2.67,0,0,1-2,.67Zm9.45-4A5.74,5.74,0,0,0,225,47.86a4.8,4.8,0,0,0-6.6,0,5.4,5.4,0,0,0-1.49,3.23Z"/><path class="cls-3" d="M234.52,61.13V44.71a2.64,2.64,0,0,1,.89-2.13,3.37,3.37,0,0,1,2-.84h.21a3.88,3.88,0,0,1,2.07.52,2.15,2.15,0,0,1,.86,2l.08,0a6.64,6.64,0,0,1,1.82-1.84,4.44,4.44,0,0,1,2.4-.62,3,3,0,0,1,2,.79,3.05,3.05,0,0,1,.92,2.43,1.8,1.8,0,0,1-.63,1.53,5.94,5.94,0,0,1-1.5.82l-.71.27-.76.31a.07.07,0,0,0-.06,0l-.06,0a16.25,16.25,0,0,0-2.41,1.42,3,3,0,0,0-1.1,2.56v9.21a3.45,3.45,0,0,1-.84,2.45,3.05,3.05,0,0,1-4.33,0,3.35,3.35,0,0,1-.85-2.41Z"/><circle class="cls-4" cx="389.49" cy="54.8" r="54.8"/><path class="cls-5" d="M443.49,100c5.33-3.87,14.2,1.07,9.83,6.46s-13,1.45-13,1.45Z"/><path class="cls-5" d="M338,109.16l-4.21-1.34s-6.81,3.33-8.74.29,8.26-12,11.23-11.21a9,9,0,0,1,4.67,3.35Z"/><path class="cls-6" d="M429.57,87.07c3.2,2.07,16.19,11.85,16.19,11.85l-4.21,9.63s-14.89-3.34-24.76-7.81Z"/><path class="cls-6" d="M395.83,90c0,.74-7.49,11-7.49,11l5.69,2.12-2.69,8.67s-15.72.14-18.39-3.16,2.36-15.91,2.36-15.91.69-8.22,9.91-7.76S395.83,90,395.83,90Z"/><path class="cls-6" d="M376.44,65.64,364.36,70.1S353,68.8,346.93,72.36c-6.57,3.84-9.86,9.42-9,18.59.38,4,3.3,8.06,3.3,8.06A11.17,11.17,0,0,0,338,109.16s13.07,6.29,21.09,4.73,9.89-7,10.22-10.5l50.91-.82-9.1-27.65Z"/><path class="cls-5" d="M392.77,103.68c5.33-3.86,14.2,1.08,9.83,6.47s-13,1.44-13,1.44Z"/><path class="cls-7" d="M369.33,103.81h0a.41.41,0,0,1-.37-.45c0-.08.82-8.61-7-16a.41.41,0,0,1,.57-.6c8.11,7.72,7.24,16.63,7.23,16.72A.41.41,0,0,1,369.33,103.81Z"/><path class="cls-8" d="M427.3,77.29c6.36,5.63,13.69,23.26-8.8,25S389.57,90.89,393.13,77.5Z"/><path class="cls-9" d="M414.66,103.26c-8.71,0-15.33-2.47-19.29-7.22s-5-11.37-3-18.75a.81.81,0,0,1,.79-.61l34.18-.22h0a.84.84,0,0,1,.55.21C431.61,80,436.16,88,434,94.46c-1.17,3.49-4.8,7.83-15.42,8.64C417.22,103.21,415.92,103.26,414.66,103.26ZM393.77,78.32c-1.6,6.6-.59,12.5,2.87,16.66,4.17,5,11.71,7.25,21.79,6.48,7.7-.59,12.53-3.19,14-7.53,1.82-5.41-1.93-12.55-5.43-15.81Z"/><path class="cls-10" d="M440.32,68.56h-.11a.62.62,0,0,1-.5-.72c.9-4.88-1.16-7.57-1.18-7.6a.61.61,0,0,1-.12-.5l1.69-8.61a.62.62,0,0,1,.73-.49.63.63,0,0,1,.49.73l-1.65,8.35a11.45,11.45,0,0,1,1.26,8.34A.61.61,0,0,1,440.32,68.56Z"/><path class="cls-5" d="M400.19,12.39c17.49-.05,33.33,4.41,40,18.89,4.88,10.62-.61,26.69-.61,26.69s5.55,7.9-3.61,15.7-31.66,8.25-43,5.08c-13.63-3.81-17.93-12.07-21-18.21s-4.54-23.32,2.86-33.93C381.09,17.52,390.71,12.42,400.19,12.39Z"/><path class="cls-5" d="M376.23,56.49c-3.65-4.07-9.91-3-9.84,5s8.66,14.33,14.22,10.81C382.88,70.86,376.23,56.49,376.23,56.49Z"/><path class="cls-5" d="M440.71,51.24c4-1.9,7.41,3.16,6,8.62a13.76,13.76,0,0,1-6.43,8.08l-2.54-8.54Z"/><path class="cls-10" d="M409.82,60.63l-.16,0a.62.62,0,0,1-.43-.76c0-.13,1-3.39,3.86-3.62,1.6-.13,3,2.38,3.28,2.89a.61.61,0,0,1-.25.83.62.62,0,0,1-.84-.25c-.58-1.09-1.61-2.25-2.09-2.23-2,.15-2.76,2.69-2.77,2.71A.61.61,0,0,1,409.82,60.63Z"/><path class="cls-10" d="M411.69,71.15c-5.79,0-7.78-6.28-7.8-6.34a.62.62,0,1,1,1.18-.37c.07.23,1.75,5.47,6.62,5.47h.13c5.45-.1,7-5.79,7-5.85a.62.62,0,1,1,1.19.32c0,.07-1.83,6.65-8.21,6.77Z"/><path class="cls-11" d="M427.45,51.07a3.26,3.26,0,0,0-3.2-1.51c-2.49.21-3.71,2.79-3.63,5.22.07,2.26,1.24,4.57,3.69,4.62h.07a3.49,3.49,0,0,0,3.06-2A6.69,6.69,0,0,0,427.45,51.07Z"/><path class="cls-11" d="M399.27,51c-2.48.21-3.71,2.79-3.63,5.22.07,2.26,1.24,4.57,3.69,4.62h.08a3.49,3.49,0,0,0,3-2,6.69,6.69,0,0,0,0-6.34A3.27,3.27,0,0,0,399.27,51Z"/><path class="cls-1" d="M442.93,19.61s-8.76,12.27-28.18,10.58S392,19.75,396.22,11.8c2.86-5.42,12.66-8.36,20.28-3.27C426.53,15.22,437.68,20.24,442.93,19.61Z"/><g class="cls-12"><path class="cls-13" d="M420,26.1a32.1,32.1,0,0,1-13.24-2.7.41.41,0,1,1,.33-.75c16.65,7.45,35.44-3.29,35.63-3.4a.41.41,0,0,1,.41.72C443,20.05,432.42,26.1,420,26.1Z"/><path class="cls-13" d="M434.45,20.63c-17.65,0-28.88-8.18-29-8.28a.41.41,0,1,1,.5-.66c.15.11,15.34,11.17,38.18,7.29a.42.42,0,0,1,.47.34.41.41,0,0,1-.34.48A58.93,58.93,0,0,1,434.45,20.63Z"/></g><path class="cls-7" d="M392.77,104.1a.41.41,0,0,1-.18,0L387,101.26a.41.41,0,0,1-.2-.53L390,93.49a.43.43,0,0,1,.55-.22.42.42,0,0,1,.21.55l-3,6.88,5.24,2.62a.41.41,0,0,1,.18.55A.42.42,0,0,1,392.77,104.1Z"/><path class="cls-7" d="M372.51,103h-.08a.41.41,0,0,1-.32-.49l3.36-16.22a.42.42,0,0,1,.49-.32.41.41,0,0,1,.32.49l-3.37,16.22A.42.42,0,0,1,372.51,103Z"/></g></g></svg>