<svg xmlns="http://www.w3.org/2000/svg" viewBox="0 0 236.25 159.89"><defs><style>.cls-1{fill:#fdf6e3;}.cls-2{fill:#ed1c24;}.cls-3{fill:#fcb116;}.cls-4{fill:#754d25;}.cls-5,.cls-6,.cls-8{fill:none;stroke-miterlimit:10;}.cls-5,.cls-6{stroke:#e5be82;stroke-linecap:round;stroke-width:1.3px;}.cls-6{stroke-dasharray:6.5;}.cls-7{fill:#f8cdb2;}.cls-8{stroke:#dd8760;stroke-width:1.27px;}.cls-9{fill:#e59a36;fill-rule:evenodd;}.cls-10{fill:#8e6327;}.cls-11{fill:#fae8d3;}.cls-12{fill:#ea1d25;}</style></defs><g id="Layer_2" data-name="Layer 2"><g id="Layer_1-2" data-name="Layer 1"><path class="cls-1" d="M1,118c0-5.46-1.72-63.81,2.59-84.8C5.88,24,10.19,1.26,54.45.68c11.79-.15,79.05.29,90.26.58s47.43,2.3,65.25,8c11.5,4,26.73,14.66,25.58,40.53-.32,7.19.86,47.14-2.59,73.3-1.72,9.49-1.14,31.33-49.43,34.78-8.91.64-77.61,4.6-140.28-5.17-5.14-.8-38.8-2-40.81-22.42C2,126.06,1,118,1,118Z"/><path class="cls-2" d="M20.15,43.42V35H18.32a1,1,0,0,1-.85-.33,1.27,1.27,0,0,1-.28-.76v0a1.27,1.27,0,0,1,.29-.8,1,1,0,0,1,.84-.36l6.18,0a1.08,1.08,0,0,1,.84.38,1.23,1.23,0,0,1,.3.8v0a1.27,1.27,0,0,1-.28.76,1,1,0,0,1-.86.35l-1.83,0v8.44a1.26,1.26,0,0,1-.36,1,1.26,1.26,0,0,1-2.16-1Z"/><path class="cls-2" d="M26.13,43.38V33a1.41,1.41,0,0,1,.34-1,1.16,1.16,0,0,1,.87-.37,1.13,1.13,0,0,1,.87.37,1.38,1.38,0,0,1,.34,1v3.28h0a1.79,1.79,0,0,1,.67-.51,3,3,0,0,1,.83-.25l.36,0,.35,0a3.4,3.4,0,0,1,2.37.86,3.1,3.1,0,0,1,.94,2.4v4.62a1.41,1.41,0,0,1-.34,1,1.14,1.14,0,0,1-.87.36,1.15,1.15,0,0,1-.87-.36,1.35,1.35,0,0,1-.34-1V39.16a1.56,1.56,0,0,0-.47-1.23,1.62,1.62,0,0,0-1.11-.41A1.42,1.42,0,0,0,29,38a1.76,1.76,0,0,0-.4,1.18v4.2a1.37,1.37,0,0,1-.34,1,1.12,1.12,0,0,1-.87.36,1.15,1.15,0,0,1-.87-.36,1.4,1.4,0,0,1-.34-1Z"/><path class="cls-2" d="M37.42,41a1.85,1.85,0,0,0,.79,1.34,2.74,2.74,0,0,0,1.5.43,2.39,2.39,0,0,0,.86-.15,6.34,6.34,0,0,0,.74-.34l.62-.34a1.12,1.12,0,0,1,.52-.15.91.91,0,0,1,.69.33,1.05,1.05,0,0,1,.3.72c0,.44-.33.86-1,1.24a6,6,0,0,1-2.19.74l-.39,0-.38,0a4.29,4.29,0,0,1-3.28-1.32A4.62,4.62,0,0,1,35,40.19a4.94,4.94,0,0,1,1.21-3.27,4,4,0,0,1,3.13-1.42,3.86,3.86,0,0,1,2.83,1.12,4.91,4.91,0,0,1,1.44,2.45l.06.41c0,.14,0,.28,0,.41a1.14,1.14,0,0,1-.25.81,1.11,1.11,0,0,1-.81.26Zm3.8-1.61a2.22,2.22,0,0,0-.6-1.3,1.7,1.7,0,0,0-1.33-.53,1.76,1.76,0,0,0-1.32.53,2.21,2.21,0,0,0-.6,1.3Z"/><path class="cls-2" d="M50.18,32a1.37,1.37,0,0,1,1,.41,1.25,1.25,0,0,1,.41.93,1.34,1.34,0,0,1-.4,1,1.29,1.29,0,0,1-1.91,0,1.3,1.3,0,0,1-.41-1,1.21,1.21,0,0,1,.41-.92,1.31,1.31,0,0,1,1-.41ZM49,43.38V36.92a1.33,1.33,0,0,1,.34-1,1.13,1.13,0,0,1,.87-.37,1.1,1.1,0,0,1,.87.37,1.35,1.35,0,0,1,.34,1v6.45a1.39,1.39,0,0,1-.34,1,1.12,1.12,0,0,1-.87.36,1.15,1.15,0,0,1-.87-.36,1.37,1.37,0,0,1-.34-1Z"/><path class="cls-2" d="M52.7,43.38v-6.6a1.06,1.06,0,0,1,.36-.86,1.38,1.38,0,0,1,.8-.33h.08a1.55,1.55,0,0,1,.83.21.85.85,0,0,1,.35.79h0a2.71,2.71,0,0,1,.73-.74,1.77,1.77,0,0,1,1-.25,1.19,1.19,0,0,1,.81.32,1.22,1.22,0,0,1,.37,1,.74.74,0,0,1-.26.62,2.28,2.28,0,0,1-.6.33l-.29.1-.3.13h0a7.06,7.06,0,0,0-1,.57,1.2,1.2,0,0,0-.44,1v3.7a1.39,1.39,0,0,1-.34,1,1.12,1.12,0,0,1-.87.36,1.15,1.15,0,0,1-.87-.36,1.37,1.37,0,0,1-.34-1Z"/><path class="cls-2" d="M62,35.48a4,4,0,0,1,3.12,1.44,4.89,4.89,0,0,1,1.21,3.27,4.79,4.79,0,0,1-1.19,3.26,4.26,4.26,0,0,1-6.28,0,4.8,4.8,0,0,1-1.2-3.26,4.94,4.94,0,0,1,1.21-3.27A4,4,0,0,1,62,35.5Zm-1.35,2.9a3,3,0,0,0-.55,1.44,1.15,1.15,0,0,1,0,.19c0,.07,0,.12,0,.18v.14a.88.88,0,0,0,0,.16A3,3,0,0,0,60.64,42a1.73,1.73,0,0,0,2.74,0,3,3,0,0,0,.53-1.46.92.92,0,0,0,0-.16V40a1.15,1.15,0,0,1,0-.19,3.07,3.07,0,0,0-.55-1.45,1.7,1.7,0,0,0-2.7,0Z"/><path class="cls-2" d="M67.37,43.38V36.92a1.33,1.33,0,0,1,.34-1,1.13,1.13,0,0,1,.87-.37,1.15,1.15,0,0,1,.76.23,1.07,1.07,0,0,1,.35.66,2.2,2.2,0,0,1,.91-.74A3.46,3.46,0,0,1,72,35.48a3.37,3.37,0,0,1,2.37.86,3.1,3.1,0,0,1,.94,2.41v4.63a1.43,1.43,0,0,1-.33,1,1.23,1.23,0,0,1-1.74,0,1.36,1.36,0,0,1-.35-1V39.16a1.56,1.56,0,0,0-.46-1.23,1.64,1.64,0,0,0-1.11-.41,1.42,1.42,0,0,0-1.15.48,1.76,1.76,0,0,0-.4,1.18v4.2a1.37,1.37,0,0,1-.34,1,1.12,1.12,0,0,1-.87.36,1.15,1.15,0,0,1-.87-.36,1.37,1.37,0,0,1-.34-1Z"/><path class="cls-2" d="M88.16,37a.81.81,0,0,1,0,.16.9.9,0,0,1,0,.16,1.4,1.4,0,0,1-.31.59.8.8,0,0,1-.78.25.73.73,0,0,1-.2-.05l-.24-.07L86.34,38l-.48-.16a1.91,1.91,0,0,0-.54-.08,1.71,1.71,0,0,0-1.53.76,3,3,0,0,0-.51,1.71v.13a2.94,2.94,0,0,0,.58,1.59,1.68,1.68,0,0,0,1.46.72,1.22,1.22,0,0,0,.32,0,1.39,1.39,0,0,0,.33-.1l.19-.05.18-.07.46-.17a1.2,1.2,0,0,1,.32-.08,1,1,0,0,1,.74.31,1.05,1.05,0,0,1,.3.75,1.1,1.1,0,0,1-.52.94,3.63,3.63,0,0,1-1.15.52,4.74,4.74,0,0,1-.71.15c-.23,0-.42,0-.58,0a3.94,3.94,0,0,1-3.14-1.38,4.8,4.8,0,0,1-1.2-3.26,4.94,4.94,0,0,1,1.21-3.27A4,4,0,0,1,85.2,35.5a4,4,0,0,1,.57,0,5.67,5.67,0,0,1,.66.11,3.75,3.75,0,0,1,1.19.47,1,1,0,0,1,.54.91Z"/><path class="cls-2" d="M89,43.38V33a1.36,1.36,0,0,1,.34-1,1.16,1.16,0,0,1,.87-.37,1.13,1.13,0,0,1,.87.37,1.38,1.38,0,0,1,.34,1v3.28h0a1.79,1.79,0,0,1,.67-.51,3,3,0,0,1,.83-.25l.36,0,.34,0a3.4,3.4,0,0,1,2.37.86,3.07,3.07,0,0,1,.94,2.4v4.62a1.41,1.41,0,0,1-.33,1,1.16,1.16,0,0,1-.88.36,1.15,1.15,0,0,1-.86-.36,1.36,1.36,0,0,1-.35-1V39.16a1.56,1.56,0,0,0-.46-1.23A1.65,1.65,0,0,0,93,37.52a1.41,1.41,0,0,0-1.14.48,1.76,1.76,0,0,0-.4,1.18v4.2a1.37,1.37,0,0,1-.34,1,1.12,1.12,0,0,1-.87.36,1.15,1.15,0,0,1-.87-.36,1.35,1.35,0,0,1-.34-1Z"/><path class="cls-2" d="M106.61,37.15v6.26c0,.09,0,.19,0,.29a1.55,1.55,0,0,1-.27.71,1,1,0,0,1-.87.32,1,1,0,0,1-.77-.27,1.79,1.79,0,0,1-.39-.74,3.1,3.1,0,0,1-1,.83,2.77,2.77,0,0,1-1.26.28,3.66,3.66,0,0,1-2.85-1.31A4.84,4.84,0,0,1,98,40.18a4.94,4.94,0,0,1,1.17-3.35A3.6,3.6,0,0,1,102,35.48a3.14,3.14,0,0,1,1.28.28,2.39,2.39,0,0,1,1,.85,1,1,0,0,1,.39-.73,1.1,1.1,0,0,1,.77-.29,1,1,0,0,1,.87.32,1.58,1.58,0,0,1,.27.72c0,.1,0,.2,0,.29v.23Zm-6.2,3v.16a.86.86,0,0,0,0,.16A3.15,3.15,0,0,0,101,42a1.58,1.58,0,0,0,1.37.67,1.51,1.51,0,0,0,1.33-.67,3,3,0,0,0,.52-1.47.88.88,0,0,0,0-.16v-.14a1.15,1.15,0,0,0,0-.18c0-.06,0-.12,0-.19a2.88,2.88,0,0,0-.54-1.44,1.48,1.48,0,0,0-1.31-.66,1.55,1.55,0,0,0-1.35.66,3,3,0,0,0-.55,1.44V40a1.15,1.15,0,0,0,0,.18Z"/><path class="cls-2" d="M108,43.38V33a1.37,1.37,0,0,1,.35-1,1.16,1.16,0,0,1,.86-.37,1.17,1.17,0,0,1,.88.37,1.42,1.42,0,0,1,.33,1V43.38a1.41,1.41,0,0,1-.33,1,1.16,1.16,0,0,1-.88.36,1.15,1.15,0,0,1-.86-.36,1.36,1.36,0,0,1-.35-1Z"/><path class="cls-2" d="M111.68,43.38V33a1.37,1.37,0,0,1,.35-1,1.16,1.16,0,0,1,.86-.37,1.17,1.17,0,0,1,.88.37,1.42,1.42,0,0,1,.33,1V43.38a1.41,1.41,0,0,1-.33,1,1.16,1.16,0,0,1-.88.36,1.15,1.15,0,0,1-.86-.36,1.36,1.36,0,0,1-.35-1Z"/><path class="cls-2" d="M117.4,41a1.82,1.82,0,0,0,.79,1.34,2.68,2.68,0,0,0,1.49.43,2.41,2.41,0,0,0,.87-.15,6.18,6.18,0,0,0,.73-.34l.62-.34a1.16,1.16,0,0,1,.52-.15.91.91,0,0,1,.69.33,1.05,1.05,0,0,1,.3.72c0,.44-.33.86-1,1.24a6,6,0,0,1-2.18.74l-.4,0-.38,0a4.31,4.31,0,0,1-3.28-1.32,4.61,4.61,0,0,1-1.25-3.32,4.89,4.89,0,0,1,1.21-3.27,3.93,3.93,0,0,1,3.12-1.42,3.88,3.88,0,0,1,2.84,1.12,5,5,0,0,1,1.43,2.45l.06.41a2.93,2.93,0,0,1,0,.41,1.14,1.14,0,0,1-.26.81,1.07,1.07,0,0,1-.8.26Zm3.8-1.61a2.28,2.28,0,0,0-.6-1.3,1.73,1.73,0,0,0-1.34-.53,1.79,1.79,0,0,0-1.32.53,2.14,2.14,0,0,0-.59,1.3Z"/><path class="cls-2" d="M124.47,43.38V36.92a1.33,1.33,0,0,1,.35-1,1.11,1.11,0,0,1,.86-.37,1.13,1.13,0,0,1,.76.23,1,1,0,0,1,.35.66,2.23,2.23,0,0,1,.92-.74,3.8,3.8,0,0,1,3.79.6,3.14,3.14,0,0,1,.94,2.41v4.63a1.39,1.39,0,0,1-.34,1,1.12,1.12,0,0,1-.87.36,1.15,1.15,0,0,1-.87-.36,1.35,1.35,0,0,1-.34-1V39.16a1.59,1.59,0,0,0-.46-1.23,1.66,1.66,0,0,0-1.12-.41,1.4,1.4,0,0,0-1.14.48,1.76,1.76,0,0,0-.41,1.18v4.2a1.41,1.41,0,0,1-.33,1,1.16,1.16,0,0,1-.88.36,1.13,1.13,0,0,1-.86-.36,1.37,1.37,0,0,1-.35-1Z"/><path class="cls-2" d="M142.08,36.92v7a4.06,4.06,0,0,1-1.29,3.28,5,5,0,0,1-3.36,1.09,6.43,6.43,0,0,1-.76-.06,7.21,7.21,0,0,1-1-.19,5.79,5.79,0,0,1-1.44-.58,1.12,1.12,0,0,1-.65-1,.77.77,0,0,1,0-.15l0-.14a1.44,1.44,0,0,1,.34-.5,1,1,0,0,1,.5-.27h.09a1.91,1.91,0,0,1,.6.11l.68.27c.24.09.51.18.79.26a4.06,4.06,0,0,0,1,.11,2.16,2.16,0,0,0,1.47-.49,1.74,1.74,0,0,0,.58-1.41v-.58h0a2.31,2.31,0,0,1-1,.85,3.46,3.46,0,0,1-1.46.29,3.11,3.11,0,0,1-2.81-1.42,5.77,5.77,0,0,1-.92-3.21,5.34,5.34,0,0,1,1.08-3.28,3.44,3.44,0,0,1,2.91-1.44h.24l.24,0a3.46,3.46,0,0,1,1,.36,1.87,1.87,0,0,1,.74.71,1.38,1.38,0,0,1,.42-.74,1.11,1.11,0,0,1,.79-.26,1.13,1.13,0,0,1,.88.37,1.39,1.39,0,0,1,.33,1Zm-2.42,3.3V40a1.41,1.41,0,0,1,0-.2,3.24,3.24,0,0,0-.54-1.46,1.66,1.66,0,0,0-2.63,0,2.87,2.87,0,0,0-.56,1.39l0,.21c0,.07,0,.14,0,.21a3.19,3.19,0,0,0,.47,1.72,1.57,1.57,0,0,0,1.42.75,1.56,1.56,0,0,0,1.4-.72,3,3,0,0,0,.49-1.57v-.12Z"/><path class="cls-2" d="M145.41,41a1.82,1.82,0,0,0,.79,1.34,2.74,2.74,0,0,0,1.5.43,2.39,2.39,0,0,0,.86-.15,5.51,5.51,0,0,0,.73-.34l.63-.34a1.12,1.12,0,0,1,.52-.15.94.94,0,0,1,.69.33,1.05,1.05,0,0,1,.3.72c0,.44-.33.86-1,1.24a6,6,0,0,1-2.19.74l-.39,0-.38,0a4.33,4.33,0,0,1-3.29-1.32,4.66,4.66,0,0,1-1.25-3.32,4.89,4.89,0,0,1,1.21-3.27,4,4,0,0,1,3.13-1.42,3.86,3.86,0,0,1,2.83,1.12,5,5,0,0,1,1.44,2.45c0,.13,0,.27,0,.41a2.93,2.93,0,0,1,0,.41,1.14,1.14,0,0,1-.25.81,1.11,1.11,0,0,1-.81.26Zm3.8-1.61a2.28,2.28,0,0,0-.6-1.3,1.7,1.7,0,0,0-1.33-.53,1.76,1.76,0,0,0-1.32.53,2.21,2.21,0,0,0-.6,1.3Z"/><path class="cls-2" d="M26.33,54.61v6.26c0,.09,0,.19,0,.29a1.63,1.63,0,0,1-.28.71,1.29,1.29,0,0,1-1.64.05,1.79,1.79,0,0,1-.39-.74A3.1,3.1,0,0,1,23,62a2.77,2.77,0,0,1-1.26.28A3.66,3.66,0,0,1,18.86,61a4.84,4.84,0,0,1-1.15-3.34,4.94,4.94,0,0,1,1.17-3.35A3.6,3.6,0,0,1,21.71,53a3.17,3.17,0,0,1,1.29.27,2.36,2.36,0,0,1,1,.85,1.12,1.12,0,0,1,.39-.73,1.1,1.1,0,0,1,.77-.29,1,1,0,0,1,.87.32,1.72,1.72,0,0,1,.28.72c0,.1,0,.2,0,.29v.23Zm-6.2,3v.16a.88.88,0,0,0,0,.16,3,3,0,0,0,.53,1.47,1.57,1.57,0,0,0,1.37.67,1.5,1.5,0,0,0,1.32-.67A3,3,0,0,0,23.9,58a.86.86,0,0,0,0-.16v-.14a1.15,1.15,0,0,0,0-.18v-.19a3.08,3.08,0,0,0-.54-1.44,1.5,1.5,0,0,0-1.31-.66,1.55,1.55,0,0,0-1.36.66,3,3,0,0,0-.54,1.44c0,.07,0,.13,0,.19a1.15,1.15,0,0,0,0,.18Z"/><path class="cls-2" d="M28.3,60.84V55.26h-.54A.92.92,0,0,1,27,55a1.17,1.17,0,0,1,0-1.53,1,1,0,0,1,.75-.31h.54V51.7a1.36,1.36,0,0,1,.34-1,1.16,1.16,0,0,1,.87-.37,1.13,1.13,0,0,1,.87.37,1.39,1.39,0,0,1,.34,1v1.43h.69a1.47,1.47,0,0,1,.81.25.91.91,0,0,1,.35.81.92.92,0,0,1-.35.81,1.38,1.38,0,0,1-.81.24h-.69v5.58a1.37,1.37,0,0,1-.34,1,1.12,1.12,0,0,1-.87.36,1.15,1.15,0,0,1-.87-.36,1.35,1.35,0,0,1-.34-1Z"/><path class="cls-2" d="M38.25,61.05a4.1,4.1,0,0,1-1.15-2.91,4.93,4.93,0,0,1,.21-1.38,11.38,11.38,0,0,1,.55-1.46,14.75,14.75,0,0,1,1-1.72c.38-.57.75-1.1,1.13-1.59.25-.3.49-.58.73-.84s.47-.49.68-.69a1.29,1.29,0,0,1,.25-.2l.29-.21a1,1,0,0,1,.27-.1h.23l.2,0,.21.08a2,2,0,0,1,.53.45,1.06,1.06,0,0,1,.26.61v0a.68.68,0,0,1,0,.14.69.69,0,0,1-.05.13.86.86,0,0,1-.13.2l-.16.22q-.21.27-.48.57c-.18.21-.37.41-.56.61a.1.1,0,0,1,0,0l0,0-.66.75a6.72,6.72,0,0,0-.53.68l0,0a2.2,2.2,0,0,1,.41-.12l.46-.07H42a3.2,3.2,0,0,1,2.51,1.14,3.82,3.82,0,0,1,1,2.63A4.09,4.09,0,0,1,44.36,61a4.36,4.36,0,0,1-6.11,0Zm1.91-4.16a2,2,0,0,0,0,2.47,1.42,1.42,0,0,0,1.17.53,1.46,1.46,0,0,0,1.16-.52,1.86,1.86,0,0,0,.44-1.24,2,2,0,0,0-.4-1.22,1.41,1.41,0,0,0-1.2-.54A1.53,1.53,0,0,0,40.16,56.89Z"/><path class="cls-2" d="M51.34,60.84V54.38a1.33,1.33,0,0,1,.34-1,1.26,1.26,0,0,1,1.62-.14,1.08,1.08,0,0,1,.36.67,3,3,0,0,1,1-.74A2.92,2.92,0,0,1,55.91,53a3.08,3.08,0,0,1,1.39.31,3,3,0,0,1,1.11.91,4.28,4.28,0,0,1,.72-.62,3.81,3.81,0,0,1,.83-.42,3.59,3.59,0,0,1,.52-.13A2.09,2.09,0,0,1,61,53a3.4,3.4,0,0,1,2.39.83,3.12,3.12,0,0,1,.92,2.43v4.63a1.43,1.43,0,0,1-.34,1,1.12,1.12,0,0,1-.87.36,1.15,1.15,0,0,1-.87-.36,1.35,1.35,0,0,1-.34-1V56.63a1.83,1.83,0,0,0-.38-1.19,1.26,1.26,0,0,0-1-.46,1.27,1.27,0,0,0-1.05.46,1.8,1.8,0,0,0-.38,1.2v4.2a1.37,1.37,0,0,1-.34,1,1.12,1.12,0,0,1-.87.36,1.15,1.15,0,0,1-.87-.36,1.35,1.35,0,0,1-.34-1V56.63a1.83,1.83,0,0,0-.38-1.19,1.45,1.45,0,0,0-2.12,0,2,2,0,0,0-.34,1.2v4.2a1.37,1.37,0,0,1-.34,1,1.12,1.12,0,0,1-.87.36,1.15,1.15,0,0,1-.87-.36,1.37,1.37,0,0,1-.34-1Z"/><path class="cls-2" d="M69.64,53a4,4,0,0,1,3.12,1.43A4.89,4.89,0,0,1,74,57.65a4.79,4.79,0,0,1-1.19,3.26,4.26,4.26,0,0,1-6.28,0,4.8,4.8,0,0,1-1.2-3.26,4.94,4.94,0,0,1,1.21-3.27A4,4,0,0,1,69.64,53Zm-1.35,2.89a2.9,2.9,0,0,0-.55,1.44,1.15,1.15,0,0,1,0,.19,1.15,1.15,0,0,0,0,.18v.14a.88.88,0,0,0,0,.16,3,3,0,0,0,.53,1.47,1.73,1.73,0,0,0,2.74,0A3,3,0,0,0,71.54,58a.92.92,0,0,0,0-.16v-.15a1,1,0,0,0,0-.17v-.2A3.07,3.07,0,0,0,71,55.82a1.7,1.7,0,0,0-2.7,0Z"/><path class="cls-2" d="M75,60.84V54.38a1.33,1.33,0,0,1,.34-1A1.26,1.26,0,0,1,77,53.28a1,1,0,0,1,.36.66,2.2,2.2,0,0,1,.91-.74A3.47,3.47,0,0,1,79.65,53,3.36,3.36,0,0,1,82,53.8,3.1,3.1,0,0,1,83,56.21v4.63a1.43,1.43,0,0,1-.33,1,1.16,1.16,0,0,1-.88.36,1.15,1.15,0,0,1-.86-.36,1.36,1.36,0,0,1-.35-1V56.63a1.56,1.56,0,0,0-.46-1.24A1.65,1.65,0,0,0,79,55a1.41,1.41,0,0,0-1.14.48,1.76,1.76,0,0,0-.4,1.18v4.2a1.37,1.37,0,0,1-.34,1,1.12,1.12,0,0,1-.87.36,1.15,1.15,0,0,1-.87-.36,1.37,1.37,0,0,1-.34-1Z"/><path class="cls-2" d="M84.93,60.84V55.26h-.54a.92.92,0,0,1-.76-.26,1.17,1.17,0,0,1,0-1.53,1,1,0,0,1,.75-.31h.54V51.7a1.32,1.32,0,0,1,.35-1,1.2,1.2,0,0,1,1.73,0,1.39,1.39,0,0,1,.34,1v1.43H88a1.47,1.47,0,0,1,.81.25.91.91,0,0,1,.35.81.92.92,0,0,1-.35.81,1.38,1.38,0,0,1-.81.24h-.69v5.58a1.37,1.37,0,0,1-.34,1,1.22,1.22,0,0,1-1.73,0,1.32,1.32,0,0,1-.35-1Z"/><path class="cls-2" d="M89.32,60.84V50.49a1.36,1.36,0,0,1,.34-1,1.16,1.16,0,0,1,.87-.37,1.13,1.13,0,0,1,.87.37,1.44,1.44,0,0,1,.34,1v3.28h0a1.84,1.84,0,0,1,.66-.51,3,3,0,0,1,.84-.25l.36-.05L94,53a3.4,3.4,0,0,1,2.37.86,3.07,3.07,0,0,1,.94,2.4v4.62a1.41,1.41,0,0,1-.33,1,1.16,1.16,0,0,1-.88.36,1.15,1.15,0,0,1-.86-.36,1.36,1.36,0,0,1-.35-1V56.63a1.56,1.56,0,0,0-.46-1.24A1.65,1.65,0,0,0,93.28,55a1.41,1.41,0,0,0-1.14.48,1.76,1.76,0,0,0-.4,1.18v4.2a1.41,1.41,0,0,1-.34,1,1.12,1.12,0,0,1-.87.36,1.15,1.15,0,0,1-.87-.36,1.35,1.35,0,0,1-.34-1Z"/><path class="cls-2" d="M104.74,54.69a1.19,1.19,0,0,1-.27.77.91.91,0,0,1-.72.33,1.19,1.19,0,0,1-.42-.11l-.54-.25-.33-.14-.34-.13-.27-.06-.27,0a1,1,0,0,0-.57.16.58.58,0,0,0-.25.51.53.53,0,0,0,.27.44,3.76,3.76,0,0,0,.67.35l.57.21c.19.07.39.16.59.25a5.51,5.51,0,0,1,1.45.88,2,2,0,0,1,.65,1.59,2.54,2.54,0,0,1-.94,2,3.7,3.7,0,0,1-2.5.81l-.53,0a4.86,4.86,0,0,1-.55-.11,4.81,4.81,0,0,1-1.59-.63,1.32,1.32,0,0,1-.71-1.08,1.68,1.68,0,0,1,0-.2.62.62,0,0,1,.1-.22,1.25,1.25,0,0,1,.35-.45.84.84,0,0,1,.57-.21,1.53,1.53,0,0,1,.54.1,2.35,2.35,0,0,1,.45.22l.1,0,.09,0a3.24,3.24,0,0,0,.59.29,1.88,1.88,0,0,0,.74.13,1.14,1.14,0,0,0,.75-.18.63.63,0,0,0,.2-.51.5.5,0,0,0-.26-.43,3.35,3.35,0,0,0-.66-.34l-.56-.22-.62-.24a5.49,5.49,0,0,1-1.44-.89,2,2,0,0,1-.66-1.59,2.55,2.55,0,0,1,.93-2,3.51,3.51,0,0,1,2.35-.78l.49,0a3.55,3.55,0,0,1,.52.09,4,4,0,0,1,1.38.56,1.24,1.24,0,0,1,.63,1.07Z"/><path class="cls-3" d="M16.94,91.42V82.7a1.12,1.12,0,0,1,.33-.87,1.13,1.13,0,0,1,.82-.31,1.1,1.1,0,0,1,1.15,1.2v8.7a1.18,1.18,0,0,1-2,.89,1.15,1.15,0,0,1-.33-.88Z"/><path class="cls-3" d="M20.52,91.38v-6a1,1,0,0,1,.33-.78,1.25,1.25,0,0,1,.73-.31h.08a1.43,1.43,0,0,1,.76.19.81.81,0,0,1,.31.73l0,0a2.37,2.37,0,0,1,.67-.67,1.62,1.62,0,0,1,.88-.23,1.11,1.11,0,0,1,.73.29,1.09,1.09,0,0,1,.34.89.67.67,0,0,1-.23.56,2.06,2.06,0,0,1-.55.3l-.26.1-.28.11h0a5.83,5.83,0,0,0-.88.52,1.09,1.09,0,0,0-.41.94v3.37a1.25,1.25,0,0,1-.31.9,1,1,0,0,1-.79.33,1,1,0,0,1-.79-.33,1.22,1.22,0,0,1-.32-.88Z"/><path class="cls-3" d="M29,84.19a3.61,3.61,0,0,1,2.85,1.31,4.59,4.59,0,0,1,0,6,3.9,3.9,0,0,1-5.72,0,4.38,4.38,0,0,1-1.09-3,4.47,4.47,0,0,1,1.1-3A3.57,3.57,0,0,1,29,84.2Zm-1.23,2.63a2.77,2.77,0,0,0-.5,1.32,1.09,1.09,0,0,1,0,.18c0,.05,0,.11,0,.16v.13a.78.78,0,0,0,0,.14,2.68,2.68,0,0,0,.48,1.33,1.57,1.57,0,0,0,2.5,0,2.72,2.72,0,0,0,.48-1.33.89.89,0,0,0,0-.15v-.13s0-.11,0-.16a1.09,1.09,0,0,1,0-.18,2.77,2.77,0,0,0-.5-1.32,1.41,1.41,0,0,0-1.23-.6A1.44,1.44,0,0,0,27.78,86.82Z"/><path class="cls-3" d="M33.9,91.38V85.49a1.2,1.2,0,0,1,.31-.87,1,1,0,0,1,.79-.34,1.05,1.05,0,0,1,.69.21,1,1,0,0,1,.32.6,2,2,0,0,1,.84-.67,3,3,0,0,1,1.29-.23A3.08,3.08,0,0,1,40.3,85a2.82,2.82,0,0,1,.86,2.19v4.22a1.25,1.25,0,0,1-.31.9,1,1,0,0,1-.79.33,1,1,0,0,1-.79-.33A1.22,1.22,0,0,1,39,91.4V87.54a1.42,1.42,0,0,0-.42-1.12,1.48,1.48,0,0,0-1-.38,1.29,1.29,0,0,0-1,.44,1.64,1.64,0,0,0-.37,1.08v3.83a1.28,1.28,0,0,1-.3.89,1.12,1.12,0,0,1-1.59,0,1.21,1.21,0,0,1-.31-.88Z"/><path class="cls-4" d="M46.49,91.38v-6a1,1,0,0,1,.33-.78,1.22,1.22,0,0,1,.73-.31h.07a1.41,1.41,0,0,1,.76.19.79.79,0,0,1,.32.73l0,0a2.34,2.34,0,0,1,.66-.67,1.65,1.65,0,0,1,.88-.23,1.13,1.13,0,0,1,.74.29,1.12,1.12,0,0,1,.33.89.66.66,0,0,1-.22.56,2.12,2.12,0,0,1-.56.3l-.26.1-.27.11H50a5.83,5.83,0,0,0-.88.52,1.09,1.09,0,0,0-.4.94v3.37a1.29,1.29,0,0,1-.31.9,1.12,1.12,0,0,1-1.59,0,1.21,1.21,0,0,1-.31-.88Z"/><path class="cls-4" d="M53.12,89.18a1.66,1.66,0,0,0,.72,1.22,2.47,2.47,0,0,0,1.37.39,2.3,2.3,0,0,0,.79-.14,5,5,0,0,0,.66-.3l.57-.31a1,1,0,0,1,.47-.14.82.82,0,0,1,.63.3,1,1,0,0,1,.28.65c0,.41-.3.79-.91,1.13a5.34,5.34,0,0,1-2,.68l-.36,0H55a4,4,0,0,1-3-1.2,4.22,4.22,0,0,1-1.14-3,4.47,4.47,0,0,1,1.1-3,3.57,3.57,0,0,1,2.85-1.3,3.53,3.53,0,0,1,2.58,1,4.44,4.44,0,0,1,1.31,2.24l.06.37c0,.13,0,.25,0,.37a1.07,1.07,0,0,1-.23.74,1,1,0,0,1-.73.24Zm3.46-1.47A2.08,2.08,0,0,0,56,86.52,1.6,1.6,0,0,0,54.82,86a1.57,1.57,0,0,0-1.2.49,2,2,0,0,0-.54,1.18Z"/><path class="cls-4" d="M67.11,85.49v9.14a1.24,1.24,0,0,1-.31.89,1,1,0,0,1-.79.34,1,1,0,0,1-.79-.34,1.24,1.24,0,0,1-.32-.89V91.94a2.6,2.6,0,0,1-.69.46,3.71,3.71,0,0,1-.76.24l-.29,0h-.28a3.17,3.17,0,0,1-2.65-1.28,4.65,4.65,0,0,1-1-2.86v-.21a5.37,5.37,0,0,1,1-2.87,3,3,0,0,1,2.6-1.29H63a3,3,0,0,1,1.12.28,1.88,1.88,0,0,1,.82.73,1.22,1.22,0,0,1,.38-.68,1.05,1.05,0,0,1,.73-.24,1,1,0,0,1,.79.34,1.24,1.24,0,0,1,.31.89ZM64.9,88.38v-.07a2.78,2.78,0,0,0-.45-1.43,1.42,1.42,0,0,0-1.28-.66,1.36,1.36,0,0,0-1.17.59,2.71,2.71,0,0,0-.51,1.28l0,.19v.39l0,.19A2.68,2.68,0,0,0,62,90.12a1.35,1.35,0,0,0,1.17.58,1.39,1.39,0,0,0,1.23-.61,2.87,2.87,0,0,0,.49-1.32v-.19a1.09,1.09,0,0,0,0-.18Z"/><path class="cls-4" d="M68.36,89.48v-4a1.21,1.21,0,0,1,.32-.87,1,1,0,0,1,.79-.34,1,1,0,0,1,.79.34,1.24,1.24,0,0,1,.31.89v3.93A1.32,1.32,0,0,0,71,90.51a1.5,1.5,0,0,0,2,0,1.31,1.31,0,0,0,.44-1.06v-4a1.2,1.2,0,0,1,.31-.87,1,1,0,0,1,.79-.34,1,1,0,0,1,.8.34,1.28,1.28,0,0,1,.31.89v4a3.06,3.06,0,0,1-.95,2.36,4.62,4.62,0,0,1-5.37,0,3,3,0,0,1-1-2.34Z"/><path class="cls-4" d="M78,81a1.28,1.28,0,0,1,.87.38,1.14,1.14,0,0,1,.38.85,1.22,1.22,0,0,1-.37.89,1.18,1.18,0,0,1-1.74,0,1.22,1.22,0,0,1-.38-.88,1.17,1.17,0,0,1,.38-.85A1.21,1.21,0,0,1,78,81Zm-1.1,10.41V85.49a1.25,1.25,0,0,1,.31-.87,1,1,0,0,1,.79-.34,1,1,0,0,1,.8.34,1.24,1.24,0,0,1,.31.89v5.87a1.25,1.25,0,0,1-.31.9,1,1,0,0,1-.8.33,1.06,1.06,0,0,1-.79-.33,1.26,1.26,0,0,1-.31-.88Z"/><path class="cls-4" d="M80.25,91.38v-6a1,1,0,0,1,.33-.78,1.22,1.22,0,0,1,.73-.31h.08a1.39,1.39,0,0,1,.75.19.79.79,0,0,1,.32.73l0,0a2.34,2.34,0,0,1,.66-.67,1.66,1.66,0,0,1,.89-.23,1.11,1.11,0,0,1,.73.29,1.09,1.09,0,0,1,.34.89.67.67,0,0,1-.23.56,2.22,2.22,0,0,1-.55.3l-.26.1-.28.11h-.05a6.37,6.37,0,0,0-.88.52,1.09,1.09,0,0,0-.4.94v3.37a1.25,1.25,0,0,1-.31.9,1.11,1.11,0,0,1-1.58,0,1.22,1.22,0,0,1-.32-.88Z"/><path class="cls-4" d="M86.88,89.18a1.72,1.72,0,0,0,.72,1.22,2.47,2.47,0,0,0,1.37.39,2.26,2.26,0,0,0,.79-.14,5,5,0,0,0,.66-.3L91,90a1,1,0,0,1,.47-.14.82.82,0,0,1,.63.3.93.93,0,0,1,.28.65c0,.41-.3.79-.91,1.13a5.34,5.34,0,0,1-2,.68l-.36,0h-.34a4,4,0,0,1-3-1.2,4.22,4.22,0,0,1-1.14-3,4.43,4.43,0,0,1,1.11-3,3.77,3.77,0,0,1,5.43-.28,4.51,4.51,0,0,1,1.31,2.24c0,.12,0,.24,0,.37s0,.25,0,.37a1,1,0,0,1-.23.74,1,1,0,0,1-.73.24Zm3.47-1.47a2.09,2.09,0,0,0-.55-1.19,1.75,1.75,0,0,0-2.42,0,2,2,0,0,0-.54,1.18Z"/><path class="cls-4" d="M93.33,91.38V85.49a1.21,1.21,0,0,1,.32-.87,1,1,0,0,1,.79-.34,1.09,1.09,0,0,1,.69.21,1,1,0,0,1,.32.62,2.69,2.69,0,0,1,.92-.69,2.78,2.78,0,0,1,1.13-.23,2.85,2.85,0,0,1,1.27.28,2.79,2.79,0,0,1,1,.84,3.56,3.56,0,0,1,.66-.57,3.78,3.78,0,0,1,.75-.38,3.13,3.13,0,0,1,.48-.13,2.25,2.25,0,0,1,.44,0,3.08,3.08,0,0,1,2.18.76,2.81,2.81,0,0,1,.84,2.21v4.22a1.25,1.25,0,0,1-.31.9,1,1,0,0,1-.79.33,1,1,0,0,1-.79-.33,1.22,1.22,0,0,1-.32-.88V87.54a1.64,1.64,0,0,0-.34-1.08,1.15,1.15,0,0,0-.94-.42,1.17,1.17,0,0,0-1,.42,1.69,1.69,0,0,0-.35,1.1v3.83a1.28,1.28,0,0,1-.3.89,1.12,1.12,0,0,1-1.59,0,1.21,1.21,0,0,1-.31-.88V87.54a1.65,1.65,0,0,0-.35-1.08,1.32,1.32,0,0,0-1.93,0,1.79,1.79,0,0,0-.31,1.1v3.83a1.24,1.24,0,0,1-.31.89,1,1,0,0,1-.79.33,1,1,0,0,1-.79-.33,1.22,1.22,0,0,1-.32-.88Z"/><path class="cls-4" d="M108.16,89.18a1.66,1.66,0,0,0,.72,1.22,2.47,2.47,0,0,0,1.37.39,2.3,2.3,0,0,0,.79-.14,5,5,0,0,0,.66-.3l.57-.31a1,1,0,0,1,.47-.14.82.82,0,0,1,.63.3,1,1,0,0,1,.28.65c0,.41-.3.79-.91,1.13a5.34,5.34,0,0,1-2,.68l-.36,0h-.34a4,4,0,0,1-3-1.2,4.22,4.22,0,0,1-1.14-3,4.47,4.47,0,0,1,1.1-3,3.57,3.57,0,0,1,2.85-1.3,3.53,3.53,0,0,1,2.58,1,4.44,4.44,0,0,1,1.31,2.24l.06.37c0,.13,0,.25,0,.37a1.07,1.07,0,0,1-.23.74,1,1,0,0,1-.73.24Zm3.46-1.47a2.08,2.08,0,0,0-.54-1.19,1.6,1.6,0,0,0-1.22-.48,1.57,1.57,0,0,0-1.2.49,2,2,0,0,0-.54,1.18Z"/><path class="cls-4" d="M114.61,91.38V85.49a1.21,1.21,0,0,1,.32-.87,1,1,0,0,1,.78-.34,1.05,1.05,0,0,1,.69.21,1,1,0,0,1,.33.6,2,2,0,0,1,.83-.67,3,3,0,0,1,1.29-.23A3.08,3.08,0,0,1,121,85a2.78,2.78,0,0,1,.86,2.19v4.22a1.29,1.29,0,0,1-.3.9,1.12,1.12,0,0,1-1.59,0,1.21,1.21,0,0,1-.31-.88V87.54a1.42,1.42,0,0,0-.42-1.12,1.52,1.52,0,0,0-1-.38,1.28,1.28,0,0,0-1,.44,1.59,1.59,0,0,0-.37,1.08v3.83a1.28,1.28,0,0,1-.31.89,1,1,0,0,1-.8.33,1,1,0,0,1-.78-.33,1.22,1.22,0,0,1-.32-.88Z"/><path class="cls-4" d="M123.66,91.39V86.3h-.49a.89.89,0,0,1-.69-.24,1,1,0,0,1-.25-.71,1,1,0,0,1,.26-.69.93.93,0,0,1,.68-.27l.49,0V83.05a1.23,1.23,0,0,1,.32-.87,1,1,0,0,1,.79-.34,1,1,0,0,1,.79.34,1.24,1.24,0,0,1,.31.89v1.3h.63a1.38,1.38,0,0,1,.74.23.83.83,0,0,1,.32.74.84.84,0,0,1-.32.74,1.22,1.22,0,0,1-.74.22h-.63v5.09a1.24,1.24,0,0,1-.31.89,1,1,0,0,1-.79.33,1,1,0,0,1-.79-.33,1.22,1.22,0,0,1-.32-.88Z"/><path class="cls-4" d="M18,96.89a1.27,1.27,0,0,1,.87.37,1.15,1.15,0,0,1,.37.85,1.25,1.25,0,0,1-.36.9,1.21,1.21,0,0,1-1.75,0,1.22,1.22,0,0,1-.37-.89,1.14,1.14,0,0,1,.37-.84A1.19,1.19,0,0,1,18,96.9Zm-1.1,10.41v-5.89a1.25,1.25,0,0,1,.31-.88,1.12,1.12,0,0,1,1.59,0,1.31,1.31,0,0,1,.3.89v5.88a1.29,1.29,0,0,1-.3.9,1.12,1.12,0,0,1-1.59,0,1.21,1.21,0,0,1-.31-.88Z"/><path class="cls-4" d="M20.28,107.3v-5.89a1.25,1.25,0,0,1,.31-.88,1,1,0,0,1,.79-.33,1.05,1.05,0,0,1,.69.21.93.93,0,0,1,.32.6,2.08,2.08,0,0,1,.84-.68,3.2,3.2,0,0,1,1.29-.23,3,3,0,0,1,2.16.79,2.82,2.82,0,0,1,.86,2.19v4.22a1.25,1.25,0,0,1-.31.9,1,1,0,0,1-.79.33,1,1,0,0,1-.79-.33,1.22,1.22,0,0,1-.32-.88v-3.86a1.44,1.44,0,0,0-.42-1.13,1.47,1.47,0,0,0-1-.37,1.29,1.29,0,0,0-1,.43,1.64,1.64,0,0,0-.37,1.08v3.83a1.29,1.29,0,0,1-.3.9,1.12,1.12,0,0,1-1.59,0,1.21,1.21,0,0,1-.31-.88Z"/><path class="cls-4" d="M35.12,101.5v.14l0,.15a1.3,1.3,0,0,1-.28.53.64.64,0,0,1-.53.25l-.18,0-.19,0-.22-.07-.22-.08c-.14-.06-.29-.1-.45-.15a1.53,1.53,0,0,0-.49-.07,1.55,1.55,0,0,0-1.39.7,2.71,2.71,0,0,0-.46,1.55v.13A2.6,2.6,0,0,0,31.2,106a1.54,1.54,0,0,0,1.33.65,1.6,1.6,0,0,0,.3,0,1.71,1.71,0,0,0,.3-.09l.17,0,.17-.07.42-.16a1.22,1.22,0,0,1,.28-.07.92.92,0,0,1,.68.29.94.94,0,0,1,.27.68,1,1,0,0,1-.47.86,3.62,3.62,0,0,1-1,.47,4.39,4.39,0,0,1-.65.13,3.79,3.79,0,0,1-.53,0,3.61,3.61,0,0,1-2.87-1.26,4.39,4.39,0,0,1-1.09-3,4.46,4.46,0,0,1,1.11-3,3.56,3.56,0,0,1,2.85-1.29l.52,0a4.34,4.34,0,0,1,.59.11,3.26,3.26,0,0,1,1.09.42.93.93,0,0,1,.49.83Z"/><path class="cls-4" d="M35.86,107.3v-6a1,1,0,0,1,.33-.79,1.27,1.27,0,0,1,.72-.3H37a1.41,1.41,0,0,1,.76.19.77.77,0,0,1,.31.72h0a2.36,2.36,0,0,1,.67-.67,1.54,1.54,0,0,1,.88-.23,1.09,1.09,0,0,1,.74.29,1.12,1.12,0,0,1,.33.89.65.65,0,0,1-.23.56,2.19,2.19,0,0,1-.55.3l-.26.1-.27.11h0a5.1,5.1,0,0,0-.88.52,1.07,1.07,0,0,0-.41.93v3.38a1.29,1.29,0,0,1-.3.9,1.12,1.12,0,0,1-1.59,0,1.21,1.21,0,0,1-.31-.88Z"/><path class="cls-4" d="M42.49,105.1a1.68,1.68,0,0,0,.72,1.22,2.43,2.43,0,0,0,1.36.39,2.22,2.22,0,0,0,.79-.14,5.2,5.2,0,0,0,.67-.31l.57-.3a.93.93,0,0,1,.47-.14.82.82,0,0,1,.63.3,1,1,0,0,1,.28.65c0,.41-.31.78-.91,1.13a5.39,5.39,0,0,1-2,.67l-.36,0h-.35a3.94,3.94,0,0,1-3-1.2,4.22,4.22,0,0,1-1.14-3,4.5,4.5,0,0,1,1.1-3,3.8,3.8,0,0,1,5.43-.28,4.52,4.52,0,0,1,1.31,2.24l.06.38c0,.12,0,.25,0,.37a1,1,0,0,1-.23.73,1,1,0,0,1-.74.25ZM46,103.63a2.08,2.08,0,0,0-.54-1.19,1.77,1.77,0,0,0-2.42,0,2,2,0,0,0-.54,1.19Z"/><path class="cls-4" d="M56.48,101.62v5.71a2.46,2.46,0,0,1,0,.26,1.4,1.4,0,0,1-.25.65.92.92,0,0,1-.79.29.88.88,0,0,1-.7-.25,1.58,1.58,0,0,1-.36-.67,2.83,2.83,0,0,1-1,.76,2.55,2.55,0,0,1-1.15.25,3.33,3.33,0,0,1-2.59-1.19,4.43,4.43,0,0,1-1.05-3,4.51,4.51,0,0,1,1.06-3.06,3.29,3.29,0,0,1,2.58-1.23,3,3,0,0,1,1.18.25,2.23,2.23,0,0,1,.92.78,1,1,0,0,1,.36-.67,1,1,0,0,1,.7-.26.92.92,0,0,1,.79.29,1.44,1.44,0,0,1,.25.66,2.46,2.46,0,0,1,0,.26v.21Zm-5.65,2.76v.14a.76.76,0,0,0,0,.15,2.72,2.72,0,0,0,.48,1.33,1.41,1.41,0,0,0,1.25.61,1.36,1.36,0,0,0,1.21-.61,2.72,2.72,0,0,0,.48-1.33.76.76,0,0,0,0-.15v-.13a.92.92,0,0,0,0-.16v-.17a2.87,2.87,0,0,0-.49-1.32,1.38,1.38,0,0,0-1.2-.6,1.41,1.41,0,0,0-1.23.6,2.77,2.77,0,0,0-.5,1.32.91.91,0,0,1,0,.17v.16Z"/><path class="cls-4" d="M63.28,101.7a1.08,1.08,0,0,1-.25.69.83.83,0,0,1-.66.3,1,1,0,0,1-.38-.1l-.49-.22-.3-.13a2.33,2.33,0,0,0-.31-.11l-.25-.06-.24,0a1,1,0,0,0-.52.14.51.51,0,0,0-.23.47.49.49,0,0,0,.24.4,3.55,3.55,0,0,0,.62.32l.51.19c.18.07.36.14.54.23a5.23,5.23,0,0,1,1.32.8,1.77,1.77,0,0,1,.6,1.45,2.34,2.34,0,0,1-.86,1.84,3.38,3.38,0,0,1-2.28.73,3.87,3.87,0,0,1-.48,0,4,4,0,0,1-.5-.09,4.41,4.41,0,0,1-1.45-.58,1.2,1.2,0,0,1-.65-1,1.37,1.37,0,0,1,0-.19.72.72,0,0,1,.09-.2,1.12,1.12,0,0,1,.32-.41.77.77,0,0,1,.52-.18,1.26,1.26,0,0,1,.49.08,2.27,2.27,0,0,1,.41.21l.09,0a.2.2,0,0,0,.08,0,2.72,2.72,0,0,0,.54.27,1.74,1.74,0,0,0,.67.12,1,1,0,0,0,.69-.17.57.57,0,0,0,.18-.46.44.44,0,0,0-.23-.39,3.76,3.76,0,0,0-.61-.32l-.51-.2-.56-.21a5.27,5.27,0,0,1-1.32-.81,1.8,1.8,0,0,1-.6-1.46,2.35,2.35,0,0,1,.85-1.86,3.21,3.21,0,0,1,2.14-.71l.45,0,.47.09a3.49,3.49,0,0,1,1.26.51,1.11,1.11,0,0,1,.58,1Z"/><path class="cls-4" d="M66,105.1a1.68,1.68,0,0,0,.72,1.22,2.41,2.41,0,0,0,1.36.39,2.22,2.22,0,0,0,.79-.14,5.05,5.05,0,0,0,.66-.31l.57-.3a1,1,0,0,1,.48-.14.82.82,0,0,1,.62.3.91.91,0,0,1,.28.65c0,.41-.3.78-.9,1.13a5.44,5.44,0,0,1-2,.67l-.36,0h-.34a3.92,3.92,0,0,1-3-1.2,4.19,4.19,0,0,1-1.15-3,4.46,4.46,0,0,1,1.11-3,3.8,3.8,0,0,1,5.43-.28,4.6,4.6,0,0,1,1.31,2.24c0,.12,0,.25.05.38a2.3,2.3,0,0,1,0,.37,1,1,0,0,1-.23.73.92.92,0,0,1-.73.25Zm3.46-1.47a2.09,2.09,0,0,0-.55-1.19,1.57,1.57,0,0,0-1.21-.48,1.62,1.62,0,0,0-1.21.48,2,2,0,0,0-.54,1.19Z"/><path class="cls-4" d="M78,101.7a1,1,0,0,1-.25.69.82.82,0,0,1-.65.3,1,1,0,0,1-.39-.1l-.49-.22-.3-.13a1.92,1.92,0,0,0-.31-.11l-.24-.06-.25,0a1,1,0,0,0-.52.14.53.53,0,0,0-.23.47.48.48,0,0,0,.25.4,3.11,3.11,0,0,0,.61.32l.51.19c.18.07.36.14.55.23a5.35,5.35,0,0,1,1.31.8,1.77,1.77,0,0,1,.6,1.45,2.34,2.34,0,0,1-.86,1.84,3.38,3.38,0,0,1-2.28.73l-.48,0a4,4,0,0,1-.5-.09,4.5,4.5,0,0,1-1.45-.58,1.2,1.2,0,0,1-.65-1,1.37,1.37,0,0,1,0-.19.72.72,0,0,1,.09-.2,1.24,1.24,0,0,1,.32-.41A.78.78,0,0,1,73,106a1.26,1.26,0,0,1,.49.08,2.27,2.27,0,0,1,.41.21l.09,0a.2.2,0,0,0,.08,0,3,3,0,0,0,.54.27,1.74,1.74,0,0,0,.67.12,1,1,0,0,0,.69-.17.58.58,0,0,0,.19-.46.45.45,0,0,0-.24-.39,3.76,3.76,0,0,0-.61-.32l-.51-.2L74.2,105a5.27,5.27,0,0,1-1.32-.81,1.83,1.83,0,0,1-.59-1.46,2.34,2.34,0,0,1,.84-1.86,3.23,3.23,0,0,1,2.14-.71l.45,0,.47.09a3.61,3.61,0,0,1,1.27.51,1.12,1.12,0,0,1,.57,1Z"/><path class="cls-4" d="M83.65,107.3v-5.08h-.49a.88.88,0,0,1-.7-.25,1,1,0,0,1-.25-.7.93.93,0,0,1,.27-.69.9.9,0,0,1,.68-.28h.49V99A1.21,1.21,0,0,1,84,98.1a1,1,0,0,1,.79-.34,1,1,0,0,1,.79.34,1.24,1.24,0,0,1,.31.89v1.3h.63a1.32,1.32,0,0,1,.74.23.82.82,0,0,1,.31.74.85.85,0,0,1-.31.74,1.32,1.32,0,0,1-.74.22h-.63v5.08a1.25,1.25,0,0,1-.31.9,1,1,0,0,1-.79.33,1,1,0,0,1-.79-.33,1.22,1.22,0,0,1-.32-.88Z"/><path class="cls-4" d="M91.28,100.1a3.61,3.61,0,0,1,2.85,1.31,4.45,4.45,0,0,1,1.1,3,4.38,4.38,0,0,1-1.08,3,3.89,3.89,0,0,1-5.73,0,4.34,4.34,0,0,1-1.09-3,4.5,4.5,0,0,1,1.1-3,3.59,3.59,0,0,1,2.85-1.29Zm-1.23,2.64a2.77,2.77,0,0,0-.5,1.32.91.91,0,0,1,0,.17v.29a.76.76,0,0,0,0,.15A2.72,2.72,0,0,0,90,106a1.59,1.59,0,0,0,2.5,0,2.75,2.75,0,0,0,.48-1.34.78.78,0,0,0,0-.14v-.13c0-.06,0-.11,0-.17a.91.91,0,0,1,0-.17,2.74,2.74,0,0,0-.5-1.32,1.41,1.41,0,0,0-1.23-.6A1.44,1.44,0,0,0,90.05,102.74Z"/><path class="cls-4" d="M18.88,113.26a1.15,1.15,0,0,1,.69.26.81.81,0,0,1,.3.65,1.23,1.23,0,0,1,0,.21l-.09.29a.13.13,0,0,1,0,.06.19.19,0,0,0,0,.08,1.8,1.8,0,0,0-.08.21.82.82,0,0,0-.06.16,17.24,17.24,0,0,0-.59,2.38,15.44,15.44,0,0,0-.2,2.44c0,.3,0,.6,0,.91s0,.61.08.93.13.92.23,1.38.23.89.37,1.3a1.35,1.35,0,0,1,.08.21,2.22,2.22,0,0,0,.11.3v0l0,0,.11.37a1,1,0,0,1,.06.24.93.93,0,0,1-.27.71,1,1,0,0,1-.72.27.63.63,0,0,1-.46-.17,1.49,1.49,0,0,1-.33-.41,6.16,6.16,0,0,1-.57-1.42,17.92,17.92,0,0,1-.4-1.78c-.09-.54-.16-1.07-.2-1.59s-.07-1-.07-1.34a13,13,0,0,1,.08-1.35c.06-.57.14-1.17.24-1.79a16.7,16.7,0,0,1,.5-2,3.39,3.39,0,0,1,.71-1.38.53.53,0,0,1,.14-.12l.18-.07h.18Z"/><path class="cls-4" d="M21.5,123.19a7,7,0,0,1-1.13-3c0-.22-.05-.44-.07-.66s0-.44,0-.66,0-.43,0-.65,0-.44.07-.66a7.09,7.09,0,0,1,1.13-3,3.18,3.18,0,0,1,2.84-1.35,3.17,3.17,0,0,1,2.83,1.35,7.24,7.24,0,0,1,1.14,3q0,.33.06.66c0,.22,0,.44,0,.65s0,.44,0,.66,0,.44-.06.66a7.2,7.2,0,0,1-1.14,3,3.17,3.17,0,0,1-2.83,1.35A3.18,3.18,0,0,1,21.5,123.19Zm3.93-1.36a4.25,4.25,0,0,0,.47-1.38,6.32,6.32,0,0,0,.09-.84c0-.27,0-.5,0-.7s0-.41,0-.67a7.88,7.88,0,0,0-.07-.8,4.53,4.53,0,0,0-.46-1.43,1.18,1.18,0,0,0-1.12-.65,1.19,1.19,0,0,0-1.13.65,4.2,4.2,0,0,0-.45,1.43,7.55,7.55,0,0,0-.08.79c0,.26,0,.48,0,.68s0,.42,0,.69a5.05,5.05,0,0,0,.1.84,4.24,4.24,0,0,0,.46,1.38,1.17,1.17,0,0,0,1.1.63A1.11,1.11,0,0,0,25.43,121.83Z"/><path class="cls-4" d="M29.59,123.34a1.2,1.2,0,0,1,2.39,0,1.14,1.14,0,0,1-.35.83,1.2,1.2,0,0,1-1.69,0,1.14,1.14,0,0,1-.35-.83Z"/><path class="cls-4" d="M37.24,113.26a3.69,3.69,0,0,1,2.81,1.15,3.84,3.84,0,0,1,1,2.67,4.42,4.42,0,0,1-.19,1.25,9.55,9.55,0,0,1-.5,1.34,13.06,13.06,0,0,1-.89,1.57c-.33.51-.68,1-1,1.44-.23.28-.45.53-.67.77l-.62.63a2.13,2.13,0,0,1-.22.18l-.27.17a.59.59,0,0,1-.24.09l-.22,0-.18,0-.19-.08a1.43,1.43,0,0,1-.48-.39,1,1,0,0,1-.24-.56v0a.5.5,0,0,1,0-.12.56.56,0,0,1,0-.12l.12-.19.14-.19.45-.52c.16-.19.33-.37.5-.56,0,0,0,0,0,0l0,0c.21-.24.4-.47.6-.68a6,6,0,0,0,.49-.63l0,0a1.42,1.42,0,0,1-.38.14,3,3,0,0,1-.42.06h-.17a2.93,2.93,0,0,1-2.29-1,3.57,3.57,0,0,1-.91-2.39,3.78,3.78,0,0,1,1.07-2.65,3.62,3.62,0,0,1,2.78-1.15Zm1,4.95a1.65,1.65,0,0,0,.4-1.13,1.74,1.74,0,0,0-.38-1.12,1.3,1.3,0,0,0-1.07-.48,1.36,1.36,0,0,0-1.06.46,1.65,1.65,0,0,0-.4,1.13,1.76,1.76,0,0,0,.37,1.1,1.28,1.28,0,0,0,1.09.48A1.25,1.25,0,0,0,38.29,118.21Z"/><path class="cls-4" d="M46.24,119a.9.9,0,0,1,.65.31,1,1,0,0,1,.23.68,1,1,0,0,1-.23.65.86.86,0,0,1-.65.3H43a.85.85,0,0,1-.65-.29,1,1,0,0,1-.22-.66,1,1,0,0,1,.22-.69A.89.89,0,0,1,43,119Z"/><path class="cls-4" d="M49.92,123.25v-7.69H49a.89.89,0,0,1-.78-.3,1.15,1.15,0,0,1-.27-.7v0a1.13,1.13,0,0,1,.28-.73.94.94,0,0,1,.77-.33h2.17a1,1,0,0,1,.76.33,1.11,1.11,0,0,1,.27.77v8.7a1.18,1.18,0,0,1-2,.89,1.15,1.15,0,0,1-.33-.87Z"/><path class="cls-4" d="M54.12,123.34a1.2,1.2,0,0,1,2.39,0,1.14,1.14,0,0,1-.35.83,1.2,1.2,0,0,1-1.69,0,1.14,1.14,0,0,1-.35-.83Z"/><path class="cls-4" d="M61.52,113.26a3.3,3.3,0,0,1,2.09.65,3.18,3.18,0,0,1,1,1.4,2.19,2.19,0,0,1,.11.4,2.31,2.31,0,0,1,0,.37,3,3,0,0,1-.31,1.33,2.55,2.55,0,0,1-.95,1,3.36,3.36,0,0,1,1.35,1.12,2.69,2.69,0,0,1,.52,1.63,3.07,3.07,0,0,1-1.11,2.37,4,4,0,0,1-2.75,1,3.72,3.72,0,0,1-2.23-.64A3.5,3.5,0,0,1,58,122.5a2.3,2.3,0,0,1-.14-.42,1.9,1.9,0,0,1,0-.41.85.85,0,0,1,.31-.67,1.33,1.33,0,0,1,.68-.34H59a.69.69,0,0,1,.49.18,2.44,2.44,0,0,1,.33.43l.09.14a1.47,1.47,0,0,0,.1.13,2.44,2.44,0,0,0,.54.62,1.44,1.44,0,0,0,1,.29,1.42,1.42,0,0,0,1-.41,1.36,1.36,0,0,0,.42-1c0-.54-.13-.88-.4-1a2.64,2.64,0,0,0-.9-.29h-.05l0,0a3,3,0,0,1-.84-.23c-.25-.11-.37-.38-.37-.81s.11-.66.34-.78a3.17,3.17,0,0,1,.75-.29,3.12,3.12,0,0,0,.75-.31q.33-.2.33-.84a1,1,0,0,0-.29-.74,1.1,1.1,0,0,0-.81-.29,1.25,1.25,0,0,0-.83.24,3.19,3.19,0,0,0-.47.51l-.06.09a.18.18,0,0,0,0,.07,2.48,2.48,0,0,1-.36.42.78.78,0,0,1-.53.17.84.84,0,0,1-.73-.35,1.24,1.24,0,0,1-.26-.78v-.12a.57.57,0,0,0,0-.13A2.5,2.5,0,0,1,59.33,114a3.75,3.75,0,0,1,2.19-.69Z"/><path class="cls-4" d="M70.89,123.22v-5.9a1.23,1.23,0,0,1,.32-.87,1.12,1.12,0,0,1,1.47-.12.94.94,0,0,1,.33.61,2.67,2.67,0,0,1,2-.92,2.85,2.85,0,0,1,1.27.28,2.88,2.88,0,0,1,1,.84,3.26,3.26,0,0,1,.66-.57,3.78,3.78,0,0,1,.75-.38,4.21,4.21,0,0,1,.48-.12,1.7,1.7,0,0,1,.44,0,3.08,3.08,0,0,1,2.18.76,2.84,2.84,0,0,1,.84,2.22v4.22a1.31,1.31,0,0,1-.31.9,1.06,1.06,0,0,1-.8.32,1,1,0,0,1-.78-.32,1.24,1.24,0,0,1-.32-.89v-3.86a1.68,1.68,0,0,0-.34-1.08,1.28,1.28,0,0,0-1.9,0,1.7,1.7,0,0,0-.35,1.1v3.83a1.29,1.29,0,0,1-.3.9,1.15,1.15,0,0,1-1.59,0,1.24,1.24,0,0,1-.31-.89v-3.86a1.69,1.69,0,0,0-.35-1.08,1.32,1.32,0,0,0-1.93,0,1.81,1.81,0,0,0-.31,1.1v3.83a1.25,1.25,0,0,1-.31.9,1,1,0,0,1-.79.32,1.05,1.05,0,0,1-.79-.32,1.26,1.26,0,0,1-.32-.89Z"/><path class="cls-4" d="M91.48,117.32v6.39a3.69,3.69,0,0,1-1.18,3,4.61,4.61,0,0,1-3.06,1c-.18,0-.41,0-.69,0a7.8,7.8,0,0,1-.89-.18,4.93,4.93,0,0,1-1.31-.53,1,1,0,0,1-.59-.89.3.3,0,0,1,0-.13.5.5,0,0,1,0-.13,1.11,1.11,0,0,1,.3-.45.9.9,0,0,1,.46-.26h.08a1.58,1.58,0,0,1,.54.11c.19.07.4.15.62.25l.73.23a3.35,3.35,0,0,0,.87.1,2,2,0,0,0,1.34-.45,1.6,1.6,0,0,0,.52-1.28v-.53h0a2.17,2.17,0,0,1-.89.78,3.22,3.22,0,0,1-1.33.26,2.83,2.83,0,0,1-2.56-1.29,5.26,5.26,0,0,1-.84-2.93,4.9,4.9,0,0,1,1-3A3.16,3.16,0,0,1,87.25,116h.22l.23,0a3.06,3.06,0,0,1,.9.33,1.68,1.68,0,0,1,.67.65,1.32,1.32,0,0,1,.38-.68,1.05,1.05,0,0,1,.73-.24,1,1,0,0,1,.79.34,1.24,1.24,0,0,1,.31.89Zm-2.21,3v-.17a1.09,1.09,0,0,1,0-.18,3,3,0,0,0-.49-1.33,1.41,1.41,0,0,0-1.23-.6,1.37,1.37,0,0,0-1.17.57,2.72,2.72,0,0,0-.51,1.26l0,.2v.19a2.87,2.87,0,0,0,.43,1.57,1.56,1.56,0,0,0,2.56,0,2.8,2.8,0,0,0,.45-1.43v-.1Z"/><path class="cls-4" d="M92.37,123.27l4.09-9.44a1,1,0,0,1,.3-.4.89.89,0,0,1,.56-.15.91.91,0,0,1,.64.24.83.83,0,0,1,.26.6.9.9,0,0,1,0,.15,2.24,2.24,0,0,1-.11.28L94,124a1,1,0,0,1-.3.41.83.83,0,0,1-.56.16.93.93,0,0,1-.65-.24.76.76,0,0,1-.27-.59.54.54,0,0,1,0-.15,1.9,1.9,0,0,1,.1-.28Z"/><path class="cls-4" d="M99,123.22v-9.44a1.23,1.23,0,0,1,.32-.87,1,1,0,0,1,.78-.34,1,1,0,0,1,.8.34,1.28,1.28,0,0,1,.31.89v5.11l2.42-2.34a1.64,1.64,0,0,1,.52-.35,1.27,1.27,0,0,1,.47-.11.83.83,0,0,1,.66.3,1.08,1.08,0,0,1,.28.65v0a1.54,1.54,0,0,1,0,.3,1,1,0,0,1-.13.28l-.12.15-.14.14-2,1.74,2.59,3a1,1,0,0,1,.16.25c0,.09.06.17.08.25a.59.59,0,0,1,0,.13.49.49,0,0,1,0,.12,1,1,0,0,1-1.42.95,1.57,1.57,0,0,1-.34-.21l-.16-.17-.18-.2-2.69-3.34h0v2.68a1.29,1.29,0,0,1-.31.9,1,1,0,0,1-.8.32,1,1,0,0,1-.78-.32,1.24,1.24,0,0,1-.32-.89Z"/><path class="cls-4" d="M114.17,117.32v6.39a3.72,3.72,0,0,1-1.18,3,4.62,4.62,0,0,1-3.07,1c-.17,0-.4,0-.69,0a7.65,7.65,0,0,1-.88-.18,4.93,4.93,0,0,1-1.31-.53,1,1,0,0,1-.59-.89.57.57,0,0,1,0-.13l0-.13a1.14,1.14,0,0,1,.31-.45.86.86,0,0,1,.46-.26h.07a1.58,1.58,0,0,1,.55.11l.62.25c.22.08.47.15.73.23a3.33,3.33,0,0,0,.86.1,2,2,0,0,0,1.34-.45A1.57,1.57,0,0,0,112,124v-.53h0a2.14,2.14,0,0,1-.9.78,3.14,3.14,0,0,1-1.32.26,2.85,2.85,0,0,1-2.57-1.29,5.33,5.33,0,0,1-.83-2.93,4.83,4.83,0,0,1,1-3,3.15,3.15,0,0,1,2.65-1.31h.22l.22,0a3,3,0,0,1,.91.33,1.74,1.74,0,0,1,.67.65,1.26,1.26,0,0,1,.38-.68,1,1,0,0,1,.72-.24,1,1,0,0,1,.8.34,1.28,1.28,0,0,1,.31.89Zm-2.21,3a1,1,0,0,0,0-.17V120a3.07,3.07,0,0,0-.49-1.33,1.41,1.41,0,0,0-1.23-.6,1.37,1.37,0,0,0-1.17.57,2.85,2.85,0,0,0-.52,1.26c0,.07,0,.13,0,.2s0,.13,0,.19a3,3,0,0,0,.43,1.57,1.57,1.57,0,0,0,2.57,0,2.8,2.8,0,0,0,.45-1.43v-.1Z"/><path class="cls-4" d="M115.06,123.27l4.09-9.44a1.09,1.09,0,0,1,.29-.4.91.91,0,0,1,.56-.15.93.93,0,0,1,.65.24.83.83,0,0,1,.26.6.9.9,0,0,1,0,.15,2.24,2.24,0,0,1-.11.28L116.69,124a1,1,0,0,1-.29.41.85.85,0,0,1-.56.16.92.92,0,0,1-.65-.24.76.76,0,0,1-.27-.59.54.54,0,0,1,0-.15,1.19,1.19,0,0,1,.1-.28Z"/><path class="cls-4" d="M129.2,113.78v9.44a1.29,1.29,0,0,1-.31.9,1,1,0,0,1-.8.32,1.07,1.07,0,0,1-.73-.23,1.32,1.32,0,0,1-.37-.67,1.65,1.65,0,0,1-.67.64,3.31,3.31,0,0,1-.91.33l-.22,0H125a3.14,3.14,0,0,1-2.65-1.29,4.56,4.56,0,0,1-1-2.85v-.21a5.23,5.23,0,0,1,1-2.86,3,3,0,0,1,2.6-1.3,3.36,3.36,0,0,1,1.13.2,2.89,2.89,0,0,1,1,.57v-3a1.22,1.22,0,0,1,.31-.87,1.1,1.1,0,0,1,1.59,0,1.28,1.28,0,0,1,.31.89ZM127,120.22v-.08a2.78,2.78,0,0,0-.45-1.43,1.41,1.41,0,0,0-1.28-.65,1.35,1.35,0,0,0-1.17.58,2.8,2.8,0,0,0-.52,1.29c0,.06,0,.12,0,.19a1.21,1.21,0,0,0,0,.19,1.28,1.28,0,0,0,0,.19c0,.07,0,.13,0,.19a2.77,2.77,0,0,0,.52,1.27,1.51,1.51,0,0,0,2.39,0,2.76,2.76,0,0,0,.49-1.32c0-.06,0-.12,0-.18a1.28,1.28,0,0,0,0-.19Z"/><path class="cls-4" d="M138,117.54v5.71a2.46,2.46,0,0,1,0,.26,1.37,1.37,0,0,1-.25.64.9.9,0,0,1-.79.29.91.91,0,0,1-.7-.24,1.64,1.64,0,0,1-.36-.67,2.79,2.79,0,0,1-1,.75,2.55,2.55,0,0,1-1.14.26,3.33,3.33,0,0,1-2.6-1.19,4.94,4.94,0,0,1,0-6.1,3.3,3.3,0,0,1,2.59-1.23,2.83,2.83,0,0,1,1.17.25,2.09,2.09,0,0,1,.92.78,1.09,1.09,0,0,1,1.06-.94.9.9,0,0,1,.79.3,1.45,1.45,0,0,1,.25.65,2.46,2.46,0,0,1,0,.26v.23Zm-5.65,2.75v.15a.71.71,0,0,0,0,.14,2.75,2.75,0,0,0,.48,1.34,1.41,1.41,0,0,0,1.25.61,1.36,1.36,0,0,0,1.21-.61,2.75,2.75,0,0,0,.48-1.34.71.71,0,0,0,0-.14v-.13a.86.86,0,0,0,0-.16V120a2.87,2.87,0,0,0-.49-1.32,1.39,1.39,0,0,0-1.2-.59,1.42,1.42,0,0,0-1.23.59,2.77,2.77,0,0,0-.5,1.32,1.09,1.09,0,0,1,0,.18v.14Z"/><path class="cls-4" d="M138.69,117.62a1.82,1.82,0,0,1-.07-.25,2.69,2.69,0,0,1,0-.31.8.8,0,0,1,.24-.58,1.3,1.3,0,0,1,.54-.34l.12,0h.13a1.12,1.12,0,0,1,.68.21,1.22,1.22,0,0,1,.42.57l1.52,4.14,1.62-4.15a1.19,1.19,0,0,1,.42-.56,1.12,1.12,0,0,1,.68-.21h.13l.12,0a1.33,1.33,0,0,1,.55.34.81.81,0,0,1,.25.58,1.42,1.42,0,0,1,0,.31.79.79,0,0,1-.08.26l-3.69,9.19a2.12,2.12,0,0,1-.39.61.86.86,0,0,1-.66.26,1.13,1.13,0,0,1-.85-.3.88.88,0,0,1-.29-.65v-.1a.49.49,0,0,0,0-.11,2.25,2.25,0,0,1,.05-.22,1.72,1.72,0,0,0,.07-.21l1-2.39Z"/><path class="cls-4" d="M146.36,126.47a.81.81,0,0,1-.3-.65.68.68,0,0,1,0-.21c0-.09.05-.19.08-.29a.14.14,0,0,1,0-.06.19.19,0,0,0,0-.08,1.89,1.89,0,0,0,.09-.21l0-.16a15.79,15.79,0,0,0,.59-2.37,14.27,14.27,0,0,0,.21-2.44c0-.29,0-.6,0-.9s0-.62-.09-.94a13.05,13.05,0,0,0-.23-1.37,10.64,10.64,0,0,0-.37-1.32,1.65,1.65,0,0,1-.07-.21c0-.1-.07-.2-.11-.3a.07.07,0,0,0,0,0,.05.05,0,0,0,0,0c0-.13-.08-.26-.12-.37a1.44,1.44,0,0,1-.05-.24.91.91,0,0,1,.28-.71.94.94,0,0,1,.7-.27.65.65,0,0,1,.47.17,1.49,1.49,0,0,1,.33.41,6.66,6.66,0,0,1,.56,1.42,14.33,14.33,0,0,1,.4,1.8c.09.54.16,1.07.21,1.58s.07,1,.07,1.34,0,.79-.09,1.36-.13,1.16-.23,1.78a18.26,18.26,0,0,1-.5,2,3.53,3.53,0,0,1-.71,1.37.44.44,0,0,1-.15.12l-.17.07H147A1.07,1.07,0,0,1,146.36,126.47Z"/><path class="cls-4" d="M152.1,112.79a1.87,1.87,0,0,1,1.22.38,1.81,1.81,0,0,1,.6.81,1.12,1.12,0,0,1,.06.23,1.8,1.8,0,0,1,0,.22,1.55,1.55,0,0,1-.73,1.37,1.88,1.88,0,0,1,.78.64,1.63,1.63,0,0,1,.31,1,1.82,1.82,0,0,1-.65,1.39,2.3,2.3,0,0,1-1.6.58,2.2,2.2,0,0,1-1.31-.37,2.14,2.14,0,0,1-.73-.82,1.13,1.13,0,0,1-.08-.24,1,1,0,0,1,0-.24.48.48,0,0,1,.18-.39.8.8,0,0,1,.4-.2h.11a.38.38,0,0,1,.28.11,1,1,0,0,1,.2.25l.06.08a.35.35,0,0,0,.05.08,1.53,1.53,0,0,0,.32.36.81.81,0,0,0,.56.17.83.83,0,0,0,.6-.24.81.81,0,0,0,.24-.59c0-.32-.08-.52-.23-.6a1.57,1.57,0,0,0-.53-.17h0a1.86,1.86,0,0,1-.49-.14c-.14-.06-.22-.22-.22-.47a.47.47,0,0,1,.2-.45,1.55,1.55,0,0,1,.44-.17,2.89,2.89,0,0,0,.44-.18c.13-.08.19-.24.19-.49a.54.54,0,0,0-.17-.43.61.61,0,0,0-.47-.17.66.66,0,0,0-.48.14,1.9,1.9,0,0,0-.28.29.1.1,0,0,1,0,.05l0,0a1.84,1.84,0,0,1-.21.25.45.45,0,0,1-.31.1.51.51,0,0,1-.43-.2.77.77,0,0,1-.15-.46v-.07a.17.17,0,0,0,0-.07,1.46,1.46,0,0,1,.66-.9,2.19,2.19,0,0,1,1.28-.41Z"/><line class="cls-5" x1="18.92" y1="70.35" x2="152.17" y2="70.35"/><polyline class="cls-6" points="229.22 69.38 224.62 73.69 229.22 69.38 224.62 64.78"/><path class="cls-6" d="M1,118c0-5.46-1.72-63.81,2.59-84.8C5.88,24,10.19,1.26,54.45.68c11.79-.15,79.05.29,90.26.58s47.43,2.3,65.25,8c11.5,4,26.73,14.66,25.58,40.53-.32,7.19.86,47.14-2.59,73.3-1.72,9.49-1.14,31.33-49.43,34.78-8.91.64-77.61,4.6-140.28-5.17-5.14-.8-38.8-2-40.81-22.42C2,126.06,1,118,1,118Z"/><path class="cls-7" d="M205.64,48a17.83,17.83,0,0,0-35.59-.05c-1.37,0-2.93.64-2.43,4.3.65,4.76,3.09,6.06,4.68,5.59a17.83,17.83,0,0,0,31.18-.16c1.55.83,4.37-.26,5.08-5.43C209.12,48.14,207.08,47.77,205.64,48Z"/><path class="cls-8" d="M182.59,58.07s4.56-4.2,11.51,0"/><path class="cls-7" d="M206.93,83.27c.3-4.44-.46-14.34-9.48-18.35s-1.95,10.55-1.95,10.55,1-.59,2.06.6,5.35,9,5.35,9S205.63,85.17,206.93,83.27Z"/><path class="cls-7" d="M198.08,67.27c.7-5-12.48-4-15.52-3.13s-5.44,8.4-5.44,8.4.09,6.06,0,9.1S175,89.13,176,93.41a39.57,39.57,0,0,0,2.41,8.12c1.07,2.49.18,5.52,1,9.13s1.43,4.34.45,5.58-3.48,4.94-1.34,6,9,1.08,9.63.35,1.07-1.53-.62-3.85-1.43-3.57-1.07-4.55a43.16,43.16,0,0,0,.36-10.61c-.45-2.77.16-7,1.33-8.83s2.95,4.19,3,5.89-.18,4.26,0,7.52,1.51,5.52,1.51,6.8-1.16,4,0,6.1,3.21,1.55,7.41,1.53,6.42,0,4.9-1.8-5.71-4.37-6.42-5.44.8-6.24.8-8.47.54-8.74.54-12.22a32.55,32.55,0,0,0-.54-6L200,72.54Z"/><path class="cls-9" d="M186,30.48a11.59,11.59,0,0,1,8.12,2.84c3.48,3.23-1.26,5.11,4.53,8.38,0,0-2.87,1.54-7.77-2.94,0,0,1.76,4.85,5.25,6.23,0,0-4.15,1.58-10.81-4.17A5.21,5.21,0,0,0,188,45s-7,.39-9.13-5.06.39-7.71,2.5-8.15A43.17,43.17,0,0,0,186,30.48Z"/><path class="cls-10" d="M184.56,51.63c0,1.41-1.14-.77-2.55-.77s-2.55,2.18-2.55.77a2.55,2.55,0,0,1,5.1,0Z"/><path class="cls-10" d="M195.63,51.63c0,1.41-1.15-.77-2.56-.77s-2.55,2.18-2.55.77a2.56,2.56,0,0,1,5.11,0Z"/><path class="cls-7" d="M170.28,81.7c-.28-4.15.43-13.42,8.87-17.16S181,74.4,181,74.4s-.9-.55-1.92.56-5,8.4-5,8.4S171.5,83.48,170.28,81.7Z"/><path class="cls-7" d="M173.81,82.22a14.07,14.07,0,0,1,1.08,4c.28,2.33-1.57.21-1.79-1a10.38,10.38,0,0,0,.78,4.16c.92,2.25-2.28-.09-3-1.95s-1-6-.12-6.53S173.81,82.22,173.81,82.22Z"/><path class="cls-7" d="M203.67,84.08a15.22,15.22,0,0,0-1.15,4.28c-.3,2.5,1.68.24,1.91-1.07a11.07,11.07,0,0,1-.83,4.44c-1,2.41,2.43-.09,3.2-2.07s1-6.38.12-7S203.67,84.08,203.67,84.08Z"/><path class="cls-11" d="M184.51,121.59a22.81,22.81,0,0,1-4.35-.38,1.06,1.06,0,0,1-.76-1.47,11.92,11.92,0,0,1,1.58-2.57c1.2-1.52.87-2.77.37-4.66-.15-.58-.34-1.29-.53-2.17a19.25,19.25,0,0,1-.35-4.33,12.54,12.54,0,0,0-.72-5.07,38.19,38.19,0,0,1-2.32-7.87c-.56-2.43,0-5.08.54-7.41a21.35,21.35,0,0,0,.65-4c.08-2.59,0-6.43.06-9.09,0-3,1-4.75,2.41-5.13,1-.26,4.35,1.24,7.26,1.24a27.78,27.78,0,0,0,7.89-1.26c1.84-.17,2.21,5.4,2.2,5.53l-.61,15.77,0,.18a30.68,30.68,0,0,1,.51,5.74c0,1.89-.17,4.74-.31,7.26-.12,2.11-.23,3.92-.23,5a24.24,24.24,0,0,1-.46,3.36c-.54,3.06-.82,4.85-.09,6a15.2,15.2,0,0,0,3.07,2.68l.42.31a1.06,1.06,0,0,1-.64,1.91h0c-.88,0-1.63,0-2.3.06l-1.52,0c-1.69,0-2-.25-2.32-.83-.57-1.06-.28-2.52-.05-3.7a6,6,0,0,0-.34-4.2,16.47,16.47,0,0,1-.94-4.37c-.11-1.85-.06-3.44,0-4.85,0-1,.06-1.91,0-2.67,0-.08-1-7.67-4.06-7.67A2.05,2.05,0,0,0,186.81,94c-1.34,2.17-2.05,6.68-1.53,9.87a45,45,0,0,1-.29,9.84.24.24,0,0,1,0,.08c-.49,1.37-.71,3.15,1.29,5.89.94,1.28.89,1.71.89,1.71l0,.06A12.85,12.85,0,0,1,184.51,121.59Z"/><polygon class="cls-12" points="185.7 70.35 191.44 70.35 191.44 84.76 194.76 84.76 189.29 91.09 182.78 84.76 185.7 84.76 185.7 70.35"/></g></g></svg>