<svg xmlns="http://www.w3.org/2000/svg" viewBox="0 0 222.69 372.05"><defs><style>.cls-1,.cls-10,.cls-11,.cls-12,.cls-13,.cls-14,.cls-3{fill:none;stroke-miterlimit:10;}.cls-1,.cls-3{stroke:#e5be82;stroke-width:1.3px;}.cls-1,.cls-14,.cls-3{stroke-linecap:round;}.cls-2{fill:#fdf6e3;}.cls-3{stroke-dasharray:6.5;}.cls-4{fill:#ed1c24;}.cls-5{fill:#754d25;}.cls-6{fill:#fcb116;}.cls-7{fill:#fff7ee;}.cls-8{fill:#fee7cf;}.cls-9{fill:#fdd1a9;}.cls-10,.cls-11,.cls-12,.cls-13,.cls-14{stroke:#c97e7b;}.cls-10{stroke-width:1.22px;}.cls-11{stroke-width:0.59px;}.cls-12{stroke-width:0.8px;}.cls-13{stroke-width:0.46px;}.cls-14{stroke-dasharray:3;}.cls-15{fill:#ed2e26;}.cls-16{fill:#cf2128;}.cls-17{fill:#e0e1e0;}.cls-18{fill:#b4b7b6;}.cls-19{fill:#ececeb;}.cls-20{fill:#d0af94;}.cls-21{fill:#824f95;}.cls-22{fill:#ad9b99;}.cls-23{fill:#ffcd05;}.cls-24{fill:#97462b;}.cls-25{fill:#3492d0;}.cls-26{fill:#6eab43;}.cls-27{fill:#ed7425;}.cls-28{fill:#faaf1b;}.cls-29{fill:#78b34d;}.cls-30{fill:#f08a88;}</style></defs><g id="Layer_2" data-name="Layer 2"><g id="Layer_1-2" data-name="Layer 1"><polyline class="cls-1" points="205.16 77.1 209.47 81.41 205.44 86.01"/><path class="cls-2" d="M2.22,48.93c1.16-6.8-.57-45.7,42.26-48,5-.27,71-.58,90.83.29S192.22,5,208.61,16.74c6,4.3,14.94,22.13,13.22,52-.38,6.6-1.73,255.66-3.16,265.43s-1.15,28.46-39.67,34.5c-4.55.71-54,6-111.82-.58-7.56-.86-42.25-4.89-56.91-13.22-3.89-2.21-8.62-9.49-9.2-34.49S.21,60.72,2.22,48.93Z"/><path class="cls-3" d="M2.22,48.93c1.16-6.8-.57-45.7,42.26-48,5-.27,71-.58,90.83.29S192.22,5,208.61,16.74c6,4.3,14.94,22.13,13.22,52-.38,6.6-1.73,255.66-3.16,265.43s-1.15,28.46-39.67,34.5c-4.55.71-54,6-111.82-.58-7.56-.86-42.25-4.89-56.91-13.22-3.89-2.21-8.62-9.49-9.2-34.49S.21,60.72,2.22,48.93Z"/><line class="cls-1" x1="14.3" y1="70.42" x2="200.84" y2="70.42"/><path class="cls-4" d="M59.17,34.73v-9a1.21,1.21,0,0,1,.35-.92,1.24,1.24,0,0,1,.86-.32,1.26,1.26,0,0,1,.87.32,1.23,1.23,0,0,1,.34.94v8.1h2.88a1.1,1.1,0,0,1,.82.32,1.27,1.27,0,0,1,.32.66.51.51,0,0,1,0,.09V35h0v0a1.13,1.13,0,0,1-.32.73,1.14,1.14,0,0,1-.84.32h-4a1.2,1.2,0,0,1-.93-.36,1.32,1.32,0,0,1-.33-1Z"/><path class="cls-4" d="M67.11,23.89a1.37,1.37,0,0,1,.92.39,1.22,1.22,0,0,1,.39.9,1.28,1.28,0,0,1-.38.94,1.21,1.21,0,0,1-.93.4,1.26,1.26,0,0,1-.91-.41,1.29,1.29,0,0,1-.39-.93,1.21,1.21,0,0,1,.39-.89,1.27,1.27,0,0,1,.91-.39ZM66,34.86V28.65a1.3,1.3,0,0,1,.33-.92,1.08,1.08,0,0,1,.83-.36,1.06,1.06,0,0,1,.84.36,1.33,1.33,0,0,1,.33.94v6.19a1.32,1.32,0,0,1-.33,1,1.08,1.08,0,0,1-.84.34,1.1,1.1,0,0,1-.83-.34,1.29,1.29,0,0,1-.33-.93Z"/><path class="cls-4" d="M70.13,34.86V29.5h-.51a.94.94,0,0,1-.74-.25,1,1,0,0,1-.27-.75,1,1,0,0,1,.29-.72.94.94,0,0,1,.72-.29l.51,0V26.08a1.31,1.31,0,0,1,.33-.92,1.11,1.11,0,0,1,.83-.35,1.09,1.09,0,0,1,.84.35,1.33,1.33,0,0,1,.33.94v1.37h.66a1.44,1.44,0,0,1,.78.24.88.88,0,0,1,.33.79.87.87,0,0,1-.33.77,1.28,1.28,0,0,1-.78.23h-.66v5.36a1.32,1.32,0,0,1-.33,1,1.08,1.08,0,0,1-.84.34,1.1,1.1,0,0,1-.83-.34,1.29,1.29,0,0,1-.33-.93Z"/><path class="cls-4" d="M74.91,34.86V29.5h-.52a.93.93,0,0,1-.73-.25,1,1,0,0,1-.27-.75,1,1,0,0,1,.29-.72.91.91,0,0,1,.71-.29l.52,0V26.08a1.31,1.31,0,0,1,.33-.92,1.11,1.11,0,0,1,.83-.35,1.09,1.09,0,0,1,.84.35,1.33,1.33,0,0,1,.33.94v1.37h.66a1.44,1.44,0,0,1,.78.24.88.88,0,0,1,.33.79.87.87,0,0,1-.33.77,1.28,1.28,0,0,1-.78.23h-.66v5.36a1.32,1.32,0,0,1-.33,1,1.08,1.08,0,0,1-.84.34,1.1,1.1,0,0,1-.83-.34,1.29,1.29,0,0,1-.33-.93Z"/><path class="cls-4" d="M79.09,34.86V24.92a1.3,1.3,0,0,1,.33-.92,1.08,1.08,0,0,1,.83-.36,1.06,1.06,0,0,1,.84.36,1.33,1.33,0,0,1,.33.94v9.92a1.32,1.32,0,0,1-.33,1,1.08,1.08,0,0,1-.84.34,1.1,1.1,0,0,1-.83-.34,1.29,1.29,0,0,1-.33-.93Z"/><path class="cls-4" d="M84.58,32.54a1.72,1.72,0,0,0,.76,1.28,2.52,2.52,0,0,0,1.43.41,2.19,2.19,0,0,0,.83-.14c.26-.1.49-.21.71-.32l.59-.33a1.19,1.19,0,0,1,.51-.14.89.89,0,0,1,.66.31,1,1,0,0,1,.29.69c0,.43-.32.83-1,1.19a5.62,5.62,0,0,1-2.1.71l-.38,0h-.37A4.12,4.12,0,0,1,83.41,35a4.43,4.43,0,0,1-1.2-3.18,4.66,4.66,0,0,1,1.16-3.14,4,4,0,0,1,5.72-.3,4.73,4.73,0,0,1,1.38,2.36l.06.4c0,.13,0,.26,0,.39a1.09,1.09,0,0,1-.24.77,1,1,0,0,1-.78.26ZM88.23,31a2.21,2.21,0,0,0-.58-1.25,1.65,1.65,0,0,0-1.28-.51,1.69,1.69,0,0,0-1.27.51A2,2,0,0,0,84.53,31Z"/><path class="cls-4" d="M97.7,34.9V26.79H95.94a.92.92,0,0,1-.81-.31,1.27,1.27,0,0,1-.27-.74v0a1.21,1.21,0,0,1,.28-.76,1,1,0,0,1,.8-.35l5.94,0a1.07,1.07,0,0,1,.81.37,1.17,1.17,0,0,1,.29.76v0a1.27,1.27,0,0,1-.27.74,1,1,0,0,1-.83.33l-1.76,0V34.9a1.21,1.21,0,1,1-2.42,0Z"/><path class="cls-4" d="M102,32.86V28.65a1.26,1.26,0,0,1,.34-.92,1.05,1.05,0,0,1,.83-.36,1.09,1.09,0,0,1,.84.36,1.37,1.37,0,0,1,.32.94v4.14a1.38,1.38,0,0,0,.46,1.13,1.55,1.55,0,0,0,1,.39,1.57,1.57,0,0,0,1-.39,1.36,1.36,0,0,0,.46-1.11V28.65a1.3,1.3,0,0,1,.33-.92,1.08,1.08,0,0,1,.83-.36,1.06,1.06,0,0,1,.84.36,1.33,1.33,0,0,1,.33.94v4.19a3.22,3.22,0,0,1-1,2.48,4.86,4.86,0,0,1-5.66,0,3.2,3.2,0,0,1-1-2.47Z"/><path class="cls-4" d="M110.94,34.86V28.65a1.3,1.3,0,0,1,.33-.92,1.08,1.08,0,0,1,.83-.36,1.14,1.14,0,0,1,.73.23,1.05,1.05,0,0,1,.34.64,2.8,2.8,0,0,1,1-.71,2.76,2.76,0,0,1,1.19-.25,3,3,0,0,1,2.41,1.17,3.58,3.58,0,0,1,.69-.59,4,4,0,0,1,.79-.41l.5-.12a1.93,1.93,0,0,1,.47,0,3.26,3.26,0,0,1,2.3.8,3,3,0,0,1,.88,2.33v4.45a1.36,1.36,0,0,1-.32,1,1.11,1.11,0,0,1-.84.34,1.09,1.09,0,0,1-.83-.34,1.25,1.25,0,0,1-.34-.93V30.81a1.77,1.77,0,0,0-.36-1.14,1.22,1.22,0,0,0-1-.44,1.25,1.25,0,0,0-1,.44,1.79,1.79,0,0,0-.36,1.16v4a1.32,1.32,0,0,1-.33,1,1.08,1.08,0,0,1-.84.34,1.1,1.1,0,0,1-.83-.34,1.29,1.29,0,0,1-.33-.93V30.81a1.77,1.77,0,0,0-.36-1.14,1.22,1.22,0,0,0-1-.44,1.25,1.25,0,0,0-1,.44,1.9,1.9,0,0,0-.33,1.16v4a1.32,1.32,0,0,1-.32,1,1.08,1.08,0,0,1-.84.34,1.1,1.1,0,0,1-.83-.34,1.29,1.29,0,0,1-.33-.93Z"/><path class="cls-4" d="M124.69,34.86V28.65a1.3,1.3,0,0,1,.33-.92,1.08,1.08,0,0,1,.83-.36,1.1,1.1,0,0,1,.73.23,1,1,0,0,1,.34.64,2.8,2.8,0,0,1,1-.71,2.76,2.76,0,0,1,1.19-.25,3,3,0,0,1,1.34.3,3,3,0,0,1,1.07.87,3.58,3.58,0,0,1,.69-.59,4,4,0,0,1,.79-.41l.5-.12a1.93,1.93,0,0,1,.47,0,3.24,3.24,0,0,1,2.3.8,3,3,0,0,1,.88,2.33v4.45a1.36,1.36,0,0,1-.32,1,1.2,1.2,0,0,1-1.67,0,1.29,1.29,0,0,1-.33-.93V30.81a1.72,1.72,0,0,0-.37-1.14,1.22,1.22,0,0,0-1-.44,1.25,1.25,0,0,0-1,.44,1.79,1.79,0,0,0-.36,1.16v4a1.36,1.36,0,0,1-.32,1,1.11,1.11,0,0,1-.84.34,1.09,1.09,0,0,1-.83-.34,1.25,1.25,0,0,1-.33-.93V30.81a1.77,1.77,0,0,0-.37-1.14,1.39,1.39,0,0,0-2,0,1.9,1.9,0,0,0-.33,1.16v4a1.32,1.32,0,0,1-.33,1,1.08,1.08,0,0,1-.84.34,1.1,1.1,0,0,1-.83-.34,1.29,1.29,0,0,1-.33-.93Z"/><path class="cls-4" d="M137.86,29a1.63,1.63,0,0,1-.07-.26c0-.1,0-.21,0-.32a.84.84,0,0,1,.25-.62,1.27,1.27,0,0,1,.57-.35.61.61,0,0,1,.13,0h.13a1.23,1.23,0,0,1,.72.22,1.32,1.32,0,0,1,.44.61l1.6,4.36,1.71-4.38a1.32,1.32,0,0,1,.44-.59,1.23,1.23,0,0,1,.72-.22h.13a.61.61,0,0,1,.13,0,1.3,1.3,0,0,1,.58.35.85.85,0,0,1,.26.62c0,.11,0,.22,0,.32a1.07,1.07,0,0,1-.09.27l-3.89,9.69a2.13,2.13,0,0,1-.41.64.9.9,0,0,1-.69.28,1.19,1.19,0,0,1-.9-.32,1,1,0,0,1-.31-.68.53.53,0,0,1,0-.12v-.11a2,2,0,0,1,.06-.23,1.87,1.87,0,0,0,.07-.22l1-2.52Z"/><path class="cls-4" d="M147.56,35.25l-1.35,2.42A.85.85,0,0,1,146,38a1.17,1.17,0,0,1-.28.17,1,1,0,0,1-.23.08l-.19,0a1.06,1.06,0,0,1-.76-.31,1,1,0,0,1-.32-.75,1.26,1.26,0,0,1,0-.33l.12-.32,1.34-2.42a.88.88,0,0,1,.22-.25,1.4,1.4,0,0,1,.28-.17l.25-.09a.68.68,0,0,1,.19,0,1.12,1.12,0,0,1,.78.31,1,1,0,0,1,.33.75.74.74,0,0,1-.05.29l-.12.28s0,0,0,0,0,0,0,0Z"/><path class="cls-4" d="M57.15,54.2V45.15a1.1,1.1,0,0,1,.36-.88,1.35,1.35,0,0,1,.91-.32h3.1a3.2,3.2,0,0,1,2.15.79,2.59,2.59,0,0,1,.89,2.06,2.44,2.44,0,0,1-1.51,2.38h0a2.94,2.94,0,0,1,1.75.94,2.6,2.6,0,0,1,.71,1.82,3.24,3.24,0,0,1-1,2.6,4,4,0,0,1-2.71.89H58.44a1.36,1.36,0,0,1-.92-.32,1.13,1.13,0,0,1-.37-.89Zm2.42-5.71h1.26a1.27,1.27,0,0,0,1-.33,1.19,1.19,0,0,0,.35-.93,1,1,0,0,0-.38-.86,1.53,1.53,0,0,0-.92-.29H59.57Zm0,4.81h1.9A1.57,1.57,0,0,0,62.56,53,1.3,1.3,0,0,0,63,51.9a1.11,1.11,0,0,0-.43-.92,1.94,1.94,0,0,0-1.28-.36H59.57Z"/><path class="cls-4" d="M67.48,43.26a1.34,1.34,0,0,1,.91.39,1.23,1.23,0,0,1,.4.9,1.32,1.32,0,0,1-.38.94,1.24,1.24,0,0,1-.93.4,1.23,1.23,0,0,1-.91-.41,1.26,1.26,0,0,1-.4-.93,1.2,1.2,0,0,1,.4-.89,1.24,1.24,0,0,1,.91-.39Zm-1.16,11V48a1.3,1.3,0,0,1,.33-.92,1.07,1.07,0,0,1,.83-.36,1.09,1.09,0,0,1,.84.36,1.37,1.37,0,0,1,.32.94v6.19a1.36,1.36,0,0,1-.32,1,1.12,1.12,0,0,1-.84.35,1.09,1.09,0,0,1-.83-.35,1.29,1.29,0,0,1-.33-.93Z"/><path class="cls-4" d="M77.87,48v6.73a3.89,3.89,0,0,1-1.24,3.15A4.85,4.85,0,0,1,73.4,59a6,6,0,0,1-.73-.06,8.44,8.44,0,0,1-.93-.18,5.32,5.32,0,0,1-1.38-.56,1.07,1.07,0,0,1-.62-.95.62.62,0,0,1,0-.13.57.57,0,0,1,0-.14,1.3,1.3,0,0,1,.32-.48,1,1,0,0,1,.48-.26h.08a1.53,1.53,0,0,1,.58.11l.65.26c.24.08.49.17.77.24a3.24,3.24,0,0,0,.91.11A2.12,2.12,0,0,0,75,56.44a1.69,1.69,0,0,0,.56-1.35v-.57h0a2.31,2.31,0,0,1-1,.83,3.33,3.33,0,0,1-1.4.27,3,3,0,0,1-2.7-1.36,5.5,5.5,0,0,1-.88-3.08,5.17,5.17,0,0,1,1-3.15,3.31,3.31,0,0,1,2.8-1.38h.23l.23,0a3,3,0,0,1,1,.35,1.79,1.79,0,0,1,.71.68,1.39,1.39,0,0,1,.39-.72,1.17,1.17,0,0,1,.77-.25,1.09,1.09,0,0,1,.84.36,1.37,1.37,0,0,1,.32.94ZM75.55,51.2a1.21,1.21,0,0,0,0-.18,1.21,1.21,0,0,1,0-.19,3,3,0,0,0-.51-1.4,1.5,1.5,0,0,0-1.3-.64,1.46,1.46,0,0,0-1.23.61A2.77,2.77,0,0,0,72,50.73l0,.2v.2a3.06,3.06,0,0,0,.45,1.66,1.65,1.65,0,0,0,2.7,0,2.9,2.9,0,0,0,.48-1.51V51.2Z"/><path class="cls-4" d="M87.14,48v6.73A3.92,3.92,0,0,1,85.9,57.9,4.85,4.85,0,0,1,82.67,59a5.72,5.72,0,0,1-.73-.06,9.07,9.07,0,0,1-.94-.18,5.62,5.62,0,0,1-1.38-.56A1.08,1.08,0,0,1,79,57.2a.69.69,0,0,1,0-.13l0-.14a1.44,1.44,0,0,1,.32-.48,1,1,0,0,1,.49-.26h.08a1.51,1.51,0,0,1,.57.11l.66.26c.23.08.49.17.76.24a3.29,3.29,0,0,0,.91.11,2.15,2.15,0,0,0,1.42-.47,1.69,1.69,0,0,0,.55-1.35v-.57h0a2.28,2.28,0,0,1-.94.83,3.36,3.36,0,0,1-1.4.27,3,3,0,0,1-2.7-1.36,5.5,5.5,0,0,1-.88-3.08,5.11,5.11,0,0,1,1-3.15,3.31,3.31,0,0,1,2.79-1.38h.24l.23,0a3,3,0,0,1,.95.35,1.79,1.79,0,0,1,.71.68,1.4,1.4,0,0,1,.4-.72,1.15,1.15,0,0,1,.77-.25,1.09,1.09,0,0,1,.84.36,1.37,1.37,0,0,1,.32.94ZM84.81,51.2V51a1.21,1.21,0,0,1,0-.19,3.1,3.1,0,0,0-.52-1.4A1.47,1.47,0,0,0,83,48.79a1.44,1.44,0,0,0-1.23.61,2.89,2.89,0,0,0-.55,1.33c0,.07,0,.13,0,.2a1.41,1.41,0,0,0,0,.2,3.06,3.06,0,0,0,.45,1.66,1.65,1.65,0,0,0,2.71,0,3,3,0,0,0,.47-1.51V51.2Z"/><path class="cls-4" d="M90.33,51.91a1.75,1.75,0,0,0,.76,1.28,2.53,2.53,0,0,0,1.44.41,2.23,2.23,0,0,0,.83-.14,7.67,7.67,0,0,0,.7-.32l.6-.33a1.15,1.15,0,0,1,.5-.14.86.86,0,0,1,.66.31,1,1,0,0,1,.29.69c0,.43-.31.83-1,1.19a5.5,5.5,0,0,1-2.1.71l-.38,0h-.36a4.19,4.19,0,0,1-3.16-1.26A4.47,4.47,0,0,1,88,51.17,4.71,4.71,0,0,1,89.12,48a4,4,0,0,1,5.73-.3,4.89,4.89,0,0,1,1.38,2.36c0,.13,0,.26,0,.4a2.56,2.56,0,0,1,0,.39,1.05,1.05,0,0,1-.25.77,1,1,0,0,1-.77.26ZM94,50.36a2.16,2.16,0,0,0-.57-1.25,1.85,1.85,0,0,0-2.55,0,2,2,0,0,0-.57,1.25Z"/><path class="cls-4" d="M97.1,54.23V47.89a1,1,0,0,1,.34-.82,1.39,1.39,0,0,1,.77-.33h.08a1.47,1.47,0,0,1,.8.21.82.82,0,0,1,.33.76h0a2.39,2.39,0,0,1,.71-.71,1.6,1.6,0,0,1,.92-.25,1.21,1.21,0,0,1,.78.31,1.18,1.18,0,0,1,.36.94.7.7,0,0,1-.25.59,2.12,2.12,0,0,1-.58.31l-.27.11-.29.12h0a5.3,5.3,0,0,0-.93.55,1.11,1.11,0,0,0-.43,1v3.56a1.36,1.36,0,0,1-.32,1,1.17,1.17,0,0,1-1.67,0,1.29,1.29,0,0,1-.33-.93Z"/><path class="cls-4" d="M106.8,54.26V45.08a1.17,1.17,0,0,1,.35-.92,1.24,1.24,0,0,1,.86-.32l.21,0a1.27,1.27,0,0,1,.23.08,2.23,2.23,0,0,1,.32.19,1.21,1.21,0,0,1,.26.24l5.11,6.81h0v-6.1a1.2,1.2,0,0,1,.34-.92,1.22,1.22,0,0,1,2.08.94v9.16a1.22,1.22,0,0,1-.35.94,1.2,1.2,0,0,1-.86.33.78.78,0,0,1-.21,0l-.23-.06a1.29,1.29,0,0,1-.32-.18.87.87,0,0,1-.26-.24l-5.12-6.76h0v6a1.23,1.23,0,0,1-2.07.93,1.16,1.16,0,0,1-.35-.92Z"/><path class="cls-4" d="M119.76,51.91a1.75,1.75,0,0,0,.76,1.28,2.53,2.53,0,0,0,1.44.41,2.26,2.26,0,0,0,.83-.14c.25-.1.48-.21.7-.32l.6-.33a1.15,1.15,0,0,1,.5-.14.86.86,0,0,1,.66.31,1,1,0,0,1,.29.69c0,.43-.32.83-1,1.19a5.62,5.62,0,0,1-2.1.71l-.38,0h-.36a4.16,4.16,0,0,1-3.16-1.26,4.47,4.47,0,0,1-1.2-3.19A4.71,4.71,0,0,1,118.55,48a3.78,3.78,0,0,1,3-1.37,3.72,3.72,0,0,1,2.72,1.07,4.73,4.73,0,0,1,1.38,2.36l.06.4a2.55,2.55,0,0,1,0,.39,1.09,1.09,0,0,1-.24.77,1,1,0,0,1-.77.26Zm3.65-1.55a2.29,2.29,0,0,0-.57-1.25,1.69,1.69,0,0,0-1.29-.51,1.67,1.67,0,0,0-1.26.51,2.11,2.11,0,0,0-.58,1.25Z"/><path class="cls-4" d="M128.43,51.91a1.72,1.72,0,0,0,.76,1.28,2.52,2.52,0,0,0,1.43.41,2.28,2.28,0,0,0,.84-.14c.25-.1.48-.21.7-.32l.6-.33a1.12,1.12,0,0,1,.5-.14.89.89,0,0,1,.66.31,1,1,0,0,1,.29.69c0,.43-.32.83-1,1.19a5.62,5.62,0,0,1-2.1.71l-.38,0h-.37a4.15,4.15,0,0,1-3.15-1.26,4.47,4.47,0,0,1-1.2-3.19A4.66,4.66,0,0,1,127.22,48a4,4,0,0,1,5.72-.3,4.73,4.73,0,0,1,1.38,2.36l.06.4c0,.13,0,.26,0,.39a1.09,1.09,0,0,1-.24.77,1,1,0,0,1-.78.26Zm3.65-1.55a2.24,2.24,0,0,0-.58-1.25,1.65,1.65,0,0,0-1.28-.51,1.69,1.69,0,0,0-1.27.51,2.1,2.1,0,0,0-.57,1.25Z"/><path class="cls-4" d="M143.17,44.29v9.94a1.32,1.32,0,0,1-.33,1,1.08,1.08,0,0,1-.83.35,1.15,1.15,0,0,1-.77-.25,1.41,1.41,0,0,1-.4-.71,1.79,1.79,0,0,1-.71.68,3.27,3.27,0,0,1-.95.34l-.23,0h-.24a3.33,3.33,0,0,1-2.79-1.35,4.86,4.86,0,0,1-1-3V51a5.53,5.53,0,0,1,1-3,3.11,3.11,0,0,1,2.74-1.37,3.43,3.43,0,0,1,1.19.21,2.93,2.93,0,0,1,1,.6V44.29a1.3,1.3,0,0,1,.33-.92A1.09,1.09,0,0,1,142,43a1.05,1.05,0,0,1,.83.36,1.33,1.33,0,0,1,.33.94Zm-2.33,6.78V51a3,3,0,0,0-.47-1.51,1.5,1.5,0,0,0-1.35-.69,1.45,1.45,0,0,0-1.24.62,3.06,3.06,0,0,0-.54,1.35,1.49,1.49,0,0,0,0,.21,1.34,1.34,0,0,0,0,.2,1.41,1.41,0,0,0,0,.2,1.23,1.23,0,0,0,0,.2,2.93,2.93,0,0,0,.54,1.33,1.59,1.59,0,0,0,2.53,0,3.06,3.06,0,0,0,.52-1.4,1.21,1.21,0,0,1,0-.19v-.21Z"/><path class="cls-4" d="M150.33,48.33a1.07,1.07,0,0,1-.26.73.87.87,0,0,1-.69.32,1.05,1.05,0,0,1-.4-.11l-.52-.23-.32-.14-.32-.12-.26-.06-.26,0a1,1,0,0,0-.55.15.54.54,0,0,0-.24.49.5.5,0,0,0,.26.42,3.42,3.42,0,0,0,.64.34l.54.2.58.24a5.46,5.46,0,0,1,1.38.85,1.84,1.84,0,0,1,.63,1.52,2.45,2.45,0,0,1-.9,1.94,3.59,3.59,0,0,1-2.41.77l-.5,0a3.1,3.1,0,0,1-.53-.1,4.54,4.54,0,0,1-1.52-.61,1.24,1.24,0,0,1-.69-1,1.68,1.68,0,0,1,0-.2,1,1,0,0,1,.09-.21,1.38,1.38,0,0,1,.34-.43.83.83,0,0,1,.55-.2,1.42,1.42,0,0,1,.52.09,2.49,2.49,0,0,1,.43.22.25.25,0,0,1,.09,0l.09,0a3,3,0,0,0,.57.28,1.92,1.92,0,0,0,.71.12,1.08,1.08,0,0,0,.72-.17.6.6,0,0,0,.2-.49.5.5,0,0,0-.25-.41,4.17,4.17,0,0,0-.64-.33l-.54-.21-.59-.23a5.35,5.35,0,0,1-1.39-.85,1.91,1.91,0,0,1-.63-1.53,2.47,2.47,0,0,1,.89-2,3.37,3.37,0,0,1,2.26-.75l.47,0a2.4,2.4,0,0,1,.5.09,3.59,3.59,0,0,1,1.33.54,1.17,1.17,0,0,1,.6,1Z"/><path class="cls-5" d="M40.74,81.22c.08-.26.21-.51.57-.51s.49.25.56.51l2.57,9h0l1.43-9a.56.56,0,0,1,.59-.54.45.45,0,0,1,.49.45c0,.12-.08.55-.18,1.1L45.22,90.9a.83.83,0,0,1-1.59,0l-2.31-8.51h0L38.92,90.9a.74.74,0,0,1-.8.59.77.77,0,0,1-.79-.59l-1.5-8.64a6.36,6.36,0,0,1-.18-1.1.44.44,0,0,1,.49-.45.55.55,0,0,1,.58.54l1.43,9h0Z"/><path class="cls-5" d="M48.9,80.71a.73.73,0,1,1-.73.73A.73.73,0,0,1,48.9,80.71Zm.54,10.1c0,.44-.2.68-.54.68s-.54-.24-.54-.68V84.08c0-.45.2-.69.54-.69s.54.24.54.69Z"/><path class="cls-5" d="M52.74,90.81c0,.44-.19.68-.54.68s-.53-.24-.53-.68V84.37H51a.42.42,0,0,1-.46-.44.43.43,0,0,1,.46-.45h.7V81.74c0-.46.19-.7.53-.7s.54.24.54.7v1.74h.7a.43.43,0,0,1,.46.45.42.42,0,0,1-.46.44h-.7Z"/><path class="cls-5" d="M56.05,90.81c0,.44-.2.68-.54.68s-.54-.24-.54-.68V80.59c0-.45.2-.68.54-.68s.54.23.54.68v3.87h0a2.4,2.4,0,0,1,2.07-1.07A2.73,2.73,0,0,1,61,86.22v4.59c0,.44-.19.68-.54.68s-.53-.24-.53-.68V86.19A1.76,1.76,0,0,0,58,84.37a1.92,1.92,0,0,0-1.93,2.07Z"/><path class="cls-5" d="M66.53,84.08c0-.45.19-.69.53-.69s.54.24.54.69v4.45a1.94,1.94,0,1,0,3.87,0V84.08c0-.45.19-.69.54-.69s.53.24.53.69V88.8a3,3,0,0,1-6,0Z"/><path class="cls-5" d="M74.51,84.08c0-.45.19-.69.53-.69s.54.24.54.69v.49h0a2.47,2.47,0,0,1,2.19-1.18c2.28,0,3.41,1.82,3.41,4,0,2-1.08,4-3.38,4a2.65,2.65,0,0,1-2.22-1.17h0v3.62c0,.44-.19.68-.54.68s-.53-.24-.53-.68Zm3.3,6.52c1.67,0,2.25-1.71,2.25-3.16s-.58-3.15-2.25-3.15S75.56,86,75.56,87.44,76.15,90.6,77.81,90.6Z"/><path class="cls-5" d="M87.7,90.81c0,.44-.19.68-.54.68s-.53-.24-.53-.68V84.37h-.7a.43.43,0,0,1-.47-.44.44.44,0,0,1,.47-.45h.7V81.74c0-.46.19-.7.53-.7s.54.24.54.7v1.74h.7a.43.43,0,0,1,.46.45.42.42,0,0,1-.46.44h-.7Z"/><path class="cls-5" d="M92.94,91.49c-2.28,0-3.41-1.81-3.41-4,0-2,1.09-4,3.41-4s3.41,2.06,3.41,4C96.35,89.68,95.22,91.49,92.94,91.49Zm0-.89c1.67,0,2.25-1.71,2.25-3.16s-.58-3.15-2.25-3.15S90.69,86,90.69,87.44,91.27,90.6,92.94,90.6Z"/><path class="cls-6" d="M101.16,81.6a.38.38,0,0,1-.41-.4.39.39,0,0,1,.41-.4h1.32a.37.37,0,0,1,.4.36v5.55a.4.4,0,0,1-.44.45.41.41,0,0,1-.45-.45V81.6Z"/><path class="cls-6" d="M106.71,80.93c.09-.22.21-.37.46-.37s.42.15.42.34a1.41,1.41,0,0,1-.14.47l-3.87,9.9c-.09.22-.21.37-.46.37a.37.37,0,0,1-.42-.34,1.32,1.32,0,0,1,.14-.46Z"/><path class="cls-6" d="M109.88,88.23A1.57,1.57,0,0,1,111,89.76a1.89,1.89,0,0,1-2.14,1.95c-1.42,0-2-.88-2-1.35a.39.39,0,0,1,.42-.4c.18,0,.37,0,.52.4s.31.55,1.07.55a1.12,1.12,0,0,0,1.15-1.19c0-.61-.42-.91-1-1-.35,0-.44-.17-.44-.32s.18-.35.52-.44.58-.58.58-1c0-.57-.25-.94-.85-.94a.74.74,0,0,0-.79.7c0,.3-.21.42-.48.42a.4.4,0,0,1-.41-.42,1.56,1.56,0,0,1,1.72-1.51c1.32,0,1.79.78,1.79,1.6A1.5,1.5,0,0,1,109.88,88.23Z"/><path class="cls-6" d="M117.46,90.81c0,.44-.19.68-.54.68s-.53-.24-.53-.68V84.37h-.7a.42.42,0,0,1-.46-.44.43.43,0,0,1,.46-.45h.7V81.74c0-.46.19-.7.53-.7s.54.24.54.7v1.74h.7a.43.43,0,0,1,.46.45.42.42,0,0,1-.46.44h-.7Z"/><path class="cls-6" d="M120.77,90.81c0,.44-.2.68-.54.68s-.54-.24-.54-.68V80.59c0-.45.2-.68.54-.68s.54.23.54.68v3.87h0a2.42,2.42,0,0,1,2.07-1.07,2.74,2.74,0,0,1,2.85,2.83v4.59c0,.44-.19.68-.54.68s-.53-.24-.53-.68V86.19a1.76,1.76,0,0,0-1.94-1.82,1.92,1.92,0,0,0-1.93,2.07Z"/><path class="cls-6" d="M128.43,87.92a2.59,2.59,0,0,0,2.36,2.68c1.69,0,2.14-1.22,2.65-1.22.29,0,.5.1.5.52s-1.23,1.59-3.08,1.59c-2.53,0-3.59-2-3.59-4s1.18-4,3.41-4,3.38,1.88,3.38,3.87c0,.29-.09.66-.73.66ZM132.9,87c0-1.33-.79-2.74-2.23-2.74s-2.19,1.41-2.24,2.74Z"/><path class="cls-6" d="M144.21,84.08c0-.45.2-.69.54-.69s.54.24.54.69v7a3.34,3.34,0,0,1-3.46,3.59c-1.58,0-3-.89-3-1.43a.5.5,0,0,1,.54-.55c.43,0,1.15,1,2.4,1a2.33,2.33,0,0,0,2.48-2.52v-.83h0a2.44,2.44,0,0,1-2.21,1.2c-2.28,0-3.41-1.81-3.41-4,0-2,1.09-4,3.38-4a2.82,2.82,0,0,1,2.24,1.16h0ZM142,90.6a2.33,2.33,0,0,0,2.25-2.4V86.68A2.32,2.32,0,0,0,142,84.29c-1.67,0-2.25,1.71-2.25,3.15S140.31,90.6,142,90.6Z"/><path class="cls-6" d="M152.49,84.08c0-.45.2-.69.54-.69s.54.24.54.69v6.73c0,.44-.2.68-.54.68s-.54-.24-.54-.68v-.49h0a2.48,2.48,0,0,1-2.19,1.17c-2.28,0-3.41-1.81-3.41-4,0-2,1.09-4,3.38-4a2.66,2.66,0,0,1,2.22,1.18h0Zm-2.23,6.52c1.67,0,2.23-1.71,2.23-3.16s-.56-3.15-2.23-3.15S148,86,148,87.44,148.59,90.6,150.26,90.6Z"/><path class="cls-6" d="M160.49,84.61a.47.47,0,0,1-.54.52c-.41,0-1-.84-2-.84-.74,0-1.55.35-1.55,1.11a1,1,0,0,0,.73.94l1.63.66c1.07.43,2,1,2,2.2s-1.25,2.29-2.92,2.29-2.86-1-2.86-1.5c0-.16.24-.52.51-.52.5,0,1,1.13,2.39,1.13,1,0,1.72-.61,1.72-1.36s-.53-1-1.11-1.22l-1.84-.76a1.82,1.82,0,0,1-1.39-1.78,2.32,2.32,0,0,1,2.49-2.09C159.24,83.39,160.52,84.05,160.49,84.61Z"/><path class="cls-6" d="M163.48,90.81c0,.44-.19.68-.54.68s-.53-.24-.53-.68V84.37h-.7a.42.42,0,0,1-.46-.44.43.43,0,0,1,.46-.45h.7V81.74c0-.46.19-.7.53-.7s.54.24.54.7v1.74h.7a.43.43,0,0,1,.46.45.42.42,0,0,1-.46.44h-.7Z"/><path class="cls-6" d="M166.78,90.81c0,.44-.19.68-.53.68s-.54-.24-.54-.68V84.08c0-.45.2-.69.54-.69s.53.24.53.69v.74h0a2.1,2.1,0,0,1,1.74-1.43c.5,0,.71.28.71.58s-.21.46-.73.58a2.24,2.24,0,0,0-1.76,2.4Z"/><path class="cls-6" d="M170.94,80.71a.73.73,0,1,1-.73.73A.73.73,0,0,1,170.94,80.71Zm.53,10.1c0,.44-.19.68-.53.68s-.54-.24-.54-.68V84.08c0-.45.2-.69.54-.69s.53.24.53.69Z"/><path class="cls-6" d="M178.06,90.09a.46.46,0,0,1,.44.44c0,.65-1,1-2.05,1-2.24,0-3.41-2-3.41-4s1.29-4,3.54-4c1,0,2,.39,2,.84a.54.54,0,0,1-.6.59c-.28,0-.53-.45-1.5-.45-1.52,0-2.25,1.72-2.25,3,0,1.67.85,3.16,2.25,3.16C177.42,90.51,177.76,90.09,178.06,90.09Z"/><path class="cls-6" d="M22.79,107.69a.47.47,0,0,1,.45.43c0,.65-1,1-2.06,1-2.23,0-3.41-2.06-3.41-4s1.3-4.05,3.55-4.05c1,0,2,.38,2,.83a.54.54,0,0,1-.59.59c-.29,0-.54-.44-1.51-.44-1.52,0-2.25,1.71-2.25,3,0,1.66.85,3.15,2.25,3.15C22.15,108.1,22.49,107.69,22.79,107.69Z"/><path class="cls-6" d="M30,101.67c0-.45.19-.68.53-.68s.54.23.54.68v6.73c0,.45-.2.69-.54.69s-.53-.24-.53-.69v-.49H30a2.49,2.49,0,0,1-2.19,1.18c-2.28,0-3.41-1.82-3.41-4,0-2,1.09-4.05,3.38-4.05A2.63,2.63,0,0,1,30,102.16H30Zm-2.24,6.52c1.67,0,2.24-1.71,2.24-3.15s-.57-3.16-2.24-3.16-2.25,1.71-2.25,3.16S26.12,108.19,27.79,108.19Z"/><path class="cls-6" d="M33.06,101.67c0-.45.2-.68.54-.68s.53.23.53.68v.49h0A2.47,2.47,0,0,1,36.37,101c2.28,0,3.41,1.81,3.41,4.05,0,2-1.09,4-3.38,4a2.64,2.64,0,0,1-2.22-1.18h0v3.62c0,.45-.19.68-.53.68s-.54-.23-.54-.68Zm3.31,6.52c1.67,0,2.25-1.71,2.25-3.15s-.58-3.16-2.25-3.16-2.25,1.71-2.25,3.16S34.7,108.19,36.37,108.19Z"/><path class="cls-6" d="M46.58,101.67c0-.45.2-.68.54-.68s.53.23.53.68v6.73c0,.45-.19.69-.53.69s-.54-.24-.54-.69v-.49h0a2.49,2.49,0,0,1-2.19,1.18c-2.28,0-3.41-1.82-3.41-4,0-2,1.08-4.05,3.38-4.05a2.65,2.65,0,0,1,2.22,1.17h0Zm-2.23,6.52c1.67,0,2.23-1.71,2.23-3.15s-.56-3.16-2.23-3.16S42.1,103.59,42.1,105,42.68,108.19,44.35,108.19Z"/><path class="cls-6" d="M54.23,107.69a.46.46,0,0,1,.45.43c0,.65-1,1-2,1-2.24,0-3.41-2.06-3.41-4S50.51,101,52.76,101c1,0,2,.38,2,.83a.54.54,0,0,1-.6.59c-.28,0-.54-.44-1.5-.44-1.52,0-2.25,1.71-2.25,3,0,1.66.85,3.15,2.25,3.15C53.59,108.1,53.94,107.69,54.23,107.69Z"/><path class="cls-6" d="M56.76,98.3A.73.73,0,1,1,56,99,.73.73,0,0,1,56.76,98.3Zm.54,10.1c0,.45-.19.69-.54.69s-.53-.24-.53-.69v-6.73c0-.45.19-.68.53-.68s.54.23.54.68Z"/><path class="cls-6" d="M60.61,108.4c0,.45-.2.69-.54.69s-.54-.24-.54-.69V102h-.7a.45.45,0,1,1,0-.9h.7V99.33c0-.46.2-.7.54-.7s.54.24.54.7v1.74h.7a.45.45,0,1,1,0,.9h-.7Z"/><path class="cls-6" d="M62.09,101.79a1,1,0,0,1-.06-.31.49.49,0,0,1,.5-.49c.29,0,.46.17.56.49L65,107.23h0L67,101.48c.11-.32.27-.49.57-.49a.48.48,0,0,1,.49.49.77.77,0,0,1-.06.31l-3.42,9.89c-.12.36-.29.53-.59.53a.46.46,0,0,1-.49-.44,1.11,1.11,0,0,1,.09-.43l1-2.55Z"/><path class="cls-6" d="M77.37,107.69a.47.47,0,0,1,.45.43c0,.65-1,1-2.06,1-2.23,0-3.41-2.06-3.41-4S73.65,101,75.9,101c1,0,2,.38,2,.83a.54.54,0,0,1-.59.59c-.29,0-.54-.44-1.51-.44-1.52,0-2.25,1.71-2.25,3,0,1.66.85,3.15,2.25,3.15C76.73,108.1,77.07,107.69,77.37,107.69Z"/><path class="cls-6" d="M82.37,109.09c-2.28,0-3.41-1.82-3.41-4,0-2,1.09-4.05,3.41-4.05S85.78,103,85.78,105C85.78,107.27,84.65,109.09,82.37,109.09Zm0-.9c1.67,0,2.25-1.71,2.25-3.15s-.58-3.16-2.25-3.16-2.25,1.71-2.25,3.16S80.7,108.19,82.37,108.19Z"/><path class="cls-6" d="M93.09,108.4c0,.45-.19.69-.53.69s-.54-.24-.54-.69V104c0-1.74-1-2.07-1.79-2.07A1.91,1.91,0,0,0,88.42,104v4.36c0,.45-.2.69-.54.69s-.54-.24-.54-.69v-6.73c0-.45.2-.68.54-.68s.54.23.54.68v.39h0A2.4,2.4,0,0,1,90.52,101a2.22,2.22,0,0,1,2.08,1.38A2.76,2.76,0,0,1,94.92,101a2.73,2.73,0,0,1,2.85,2.82v4.59c0,.45-.2.69-.54.69s-.53-.24-.53-.69V104c0-1.74-1-2.07-1.79-2.07A1.91,1.91,0,0,0,93.09,104Z"/><path class="cls-6" d="M99.73,101.67c0-.45.2-.68.54-.68s.53.23.53.68v.49h0A2.46,2.46,0,0,1,103,101c2.28,0,3.41,1.81,3.41,4.05,0,2-1.09,4-3.38,4a2.64,2.64,0,0,1-2.22-1.18h0v3.62c0,.45-.19.68-.53.68s-.54-.23-.54-.68Zm3.31,6.52c1.67,0,2.25-1.71,2.25-3.15s-.58-3.16-2.25-3.16-2.25,1.71-2.25,3.16S101.37,108.19,103,108.19Z"/><path class="cls-6" d="M113.25,101.67c0-.45.2-.68.54-.68s.53.23.53.68v6.73c0,.45-.19.69-.53.69s-.54-.24-.54-.69v-.49h0a2.49,2.49,0,0,1-2.19,1.18c-2.28,0-3.41-1.82-3.41-4,0-2,1.09-4.05,3.38-4.05a2.65,2.65,0,0,1,2.22,1.17h0ZM111,108.19c1.67,0,2.23-1.71,2.23-3.15s-.56-3.16-2.23-3.16-2.25,1.71-2.25,3.16S109.35,108.19,111,108.19Z"/><path class="cls-6" d="M117.36,108.4c0,.45-.19.69-.54.69s-.53-.24-.53-.69v-6.73c0-.45.19-.68.53-.68s.54.23.54.68v.74h0a2.11,2.11,0,0,1,1.74-1.42c.51,0,.72.28.72.58s-.21.46-.73.58a2.22,2.22,0,0,0-1.76,2.39Z"/><path class="cls-6" d="M121.74,105.51a2.57,2.57,0,0,0,2.35,2.68c1.7,0,2.15-1.22,2.65-1.22.3,0,.51.11.51.52s-1.24,1.6-3.09,1.6c-2.53,0-3.58-2.06-3.58-4S121.75,101,124,101s3.38,1.87,3.38,3.87c0,.28-.09.65-.73.65Zm4.46-.89c0-1.33-.78-2.74-2.23-2.74s-2.19,1.41-2.23,2.74Z"/><path class="cls-6" d="M134,98.19c0-.45.19-.69.53-.69s.54.24.54.69V108.4c0,.45-.2.69-.54.69s-.53-.24-.53-.69v-.49h0a2.47,2.47,0,0,1-2.19,1.18c-2.28,0-3.41-1.82-3.41-4,0-2,1.09-4.05,3.38-4.05a2.63,2.63,0,0,1,2.22,1.17h0Zm-2.24,10c1.67,0,2.24-1.71,2.24-3.15s-.57-3.16-2.24-3.16-2.25,1.71-2.25,3.16S130,108.19,131.71,108.19Z"/><path class="cls-6" d="M141.9,108.4c0,.45-.2.69-.54.69s-.54-.24-.54-.69V102h-.7a.45.45,0,1,1,0-.9h.7V99.33c0-.46.2-.7.54-.7s.54.24.54.7v1.74h.7a.45.45,0,1,1,0,.9h-.7Z"/><path class="cls-6" d="M147.14,109.09c-2.28,0-3.41-1.82-3.41-4,0-2,1.08-4.05,3.41-4.05s3.41,2.05,3.41,4.05C150.55,107.27,149.42,109.09,147.14,109.09Zm0-.9c1.67,0,2.25-1.71,2.25-3.15s-.58-3.16-2.25-3.16-2.25,1.71-2.25,3.16S145.47,108.19,147.14,108.19Z"/><path class="cls-6" d="M160.92,101.67c0-.45.2-.68.54-.68s.54.23.54.68v6.73c0,.45-.2.69-.54.69s-.54-.24-.54-.69v-.49h0a2.49,2.49,0,0,1-2.19,1.18c-2.28,0-3.41-1.82-3.41-4,0-2,1.09-4.05,3.38-4.05a2.65,2.65,0,0,1,2.22,1.17h0Zm-2.23,6.52c1.67,0,2.23-1.71,2.23-3.15s-.56-3.16-2.23-3.16-2.25,1.71-2.25,3.16S157,108.19,158.69,108.19Z"/><path class="cls-6" d="M169.2,98.19c0-.45.2-.69.54-.69s.54.24.54.69V108.4c0,.45-.2.69-.54.69s-.54-.24-.54-.69v-.49h0a2.49,2.49,0,0,1-2.19,1.18c-2.28,0-3.41-1.82-3.41-4,0-2,1.09-4.05,3.38-4.05a2.65,2.65,0,0,1,2.22,1.17h0Zm-2.23,10c1.67,0,2.23-1.71,2.23-3.15s-.56-3.16-2.23-3.16-2.25,1.71-2.25,3.16S165.3,108.19,167,108.19Z"/><path class="cls-6" d="M172.24,101.67c0-.45.19-.68.54-.68s.53.23.53.68v4.45a1.94,1.94,0,1,0,3.87,0v-4.45c0-.45.2-.68.54-.68s.54.23.54.68v4.72a3,3,0,0,1-6,0Z"/><path class="cls-6" d="M181.29,108.4c0,.45-.19.69-.53.69s-.54-.24-.54-.69V98.19c0-.45.19-.69.54-.69s.53.24.53.69Z"/><path class="cls-6" d="M184.6,108.4c0,.45-.2.69-.54.69s-.54-.24-.54-.69V102h-.7a.45.45,0,1,1,0-.9h.7V99.33c0-.46.2-.7.54-.7s.54.24.54.7v1.74h.7a.45.45,0,1,1,0,.9h-.7Z"/><path class="cls-6" d="M191.79,102.21a.48.48,0,0,1-.54.52c-.41,0-1-.85-2-.85-.74,0-1.55.36-1.55,1.12a1,1,0,0,0,.73.93l1.63.66c1.07.43,2,1,2,2.2s-1.25,2.3-2.92,2.3-2.86-1-2.86-1.51c0-.16.24-.52.51-.52.5,0,1,1.13,2.39,1.13,1,0,1.72-.61,1.72-1.35s-.53-1-1.11-1.22l-1.84-.76a1.84,1.84,0,0,1-1.39-1.79A2.31,2.31,0,0,1,189,101C190.54,101,191.82,101.64,191.79,102.21Z"/><path class="cls-6" d="M193.85,98.26c0-.25.11-.4.37-.4h1.86a.29.29,0,1,1,0,.57h-1.64l-.28,1.79a1.57,1.57,0,0,1,.68-.15,1.75,1.75,0,0,1,1.68,1.83,2,2,0,0,1-1.92,2.19,1.81,1.81,0,0,1-1.71-.94.33.33,0,0,1,.31-.32c.25,0,.47.69,1.39.69s1.25-.68,1.25-1.54a1.2,1.2,0,0,0-1.22-1.34c-.44,0-.63.27-.9.27a.24.24,0,0,1-.24-.24,2.54,2.54,0,0,1,.05-.37Z"/><path class="cls-7" d="M122.3,165.83c-1.48-5.55-7-9.59-12.69-10a35.15,35.15,0,0,0-8.35.86,32.5,32.5,0,0,1-8.79.62,13.18,13.18,0,0,1-8-3.4,16.2,16.2,0,0,1-3.91-7.75,12.3,12.3,0,0,1-.27-6.5,27,27,0,0,1,2.17-4.29c2.2-4.25,2.35-9.22,2.44-14a2.45,2.45,0,0,0-2.72-3.1c-.34,0-.69-.07-1-.09.81,3,1.58,7.88-.24,12.06-2.83,6.53-8.13,9.74-7.51,17S78,162.18,89.06,162.8s20.08-4.19,25.38.62,5.55,13.42,5.3,18.72a5.63,5.63,0,0,1-1.92,3.79,7.75,7.75,0,0,0,1.59-.12c3.36-.63,3.4-2.5,3.41-4.23q0-4.58,0-9.13A25.27,25.27,0,0,0,122.3,165.83Z"/><path class="cls-8" d="M119.74,182.14c.25-5.3,0-13.92-5.3-18.72s-14.29,0-25.38-.62-15-8.26-15.64-15.52,4.68-10.48,7.51-17c1.82-4.18,1-9,.24-12.06a5.27,5.27,0,0,0-3.72.81c-1.47,1.15-1.65,3.24-2,5.06a15.56,15.56,0,0,1-2.91,6.26,1,1,0,0,1-1.26.28c-3.31-1.74-6.83-3.52-10.52-3.68a50.94,50.94,0,0,0-3.32,20c.25,15.89,12.57,21.43,24.27,24,10.18,2.25,21-2.21,25.44-2.27.72-.48,1.45-.94,2.2-1.38a2.23,2.23,0,0,1,1.35-.33c1,.11,1.24.91,1.39,1.63a100.3,100.3,0,0,1,1.87,14.13c.06,1,.19,2.16,1,2.72a4.17,4.17,0,0,0,1.85.44c.34,0,.68,0,1,.06A5.63,5.63,0,0,0,119.74,182.14Z"/><path class="cls-9" d="M59.47,127.16A11.42,11.42,0,0,0,50.56,133a17,17,0,0,0-1.62,5,36.25,36.25,0,0,0,6.2,27.25,38.17,38.17,0,0,0,23.68,15,24.12,24.12,0,0,0,6.4.45c4.57-.37,8.81-2.52,12.62-5.07,3.26-2.19,6.3-4.68,9.57-6.84-4.44.06-15.27,4.52-25.45,2.27-11.7-2.59-24-8.13-24.27-24a51.17,51.17,0,0,1,3.32-20A11.34,11.34,0,0,0,59.47,127.16Z"/><path class="cls-10" d="M71.24,130.62a1,1,0,0,0,1.26-.28,15.56,15.56,0,0,0,2.91-6.26c.39-1.82.57-3.91,2-5.06,1.29-1,3.12-.9,4.76-.72a2.46,2.46,0,0,1,2.72,3.1c-.09,4.78-.24,9.75-2.44,14a27,27,0,0,0-2.17,4.29,12.3,12.3,0,0,0,.27,6.5,16.2,16.2,0,0,0,3.91,7.75,13.18,13.18,0,0,0,8,3.4,32.5,32.5,0,0,0,8.79-.62,35.15,35.15,0,0,1,8.35-.86c5.73.38,11.21,4.42,12.69,10a25.27,25.27,0,0,1,.56,6.62l0,9.13c0,1.73,0,3.6-3.41,4.23a9.21,9.21,0,0,1-2.62.06,4.17,4.17,0,0,1-1.85-.44c-.83-.56-1-1.72-1-2.72a100.3,100.3,0,0,0-1.87-14.13c-.15-.72-.35-1.52-1.39-1.63a2.23,2.23,0,0,0-1.35.33c-4.14,2.41-7.79,5.55-11.76,8.21-3.81,2.56-8,4.71-12.62,5.08a24.23,24.23,0,0,1-6.41-.46,38.12,38.12,0,0,1-23.67-15,36.25,36.25,0,0,1-6.2-27.25,17,17,0,0,1,1.61-5A11.43,11.43,0,0,1,59.18,127c4.24-.37,8.29,1.67,12.06,3.65Z"/><path class="cls-7" d="M172.68,163.09a6.94,6.94,0,0,0-6.18-4.86,17.48,17.48,0,0,0-4.07.42,15.4,15.4,0,0,1-4.28.3,6.45,6.45,0,0,1-3.88-1.65,7.85,7.85,0,0,1-1.9-3.78,5.87,5.87,0,0,1-.13-3.16,12,12,0,0,1,1-2.09c1.08-2.07,1.15-4.49,1.19-6.82a1.66,1.66,0,0,0-.25-1.12,1.62,1.62,0,0,0-1.07-.39l-.51,0a9.18,9.18,0,0,1-.12,5.87c-1.38,3.18-4,4.75-3.66,8.28s2.22,7.26,7.62,7.56,9.78-2,12.36.3,2.7,6.54,2.58,9.12a2.72,2.72,0,0,1-.93,1.84,4,4,0,0,0,.77-.05c1.64-.31,1.66-1.22,1.66-2.07,0-1.48,0-3,0-4.44A12.38,12.38,0,0,0,172.68,163.09Z"/><path class="cls-8" d="M171.43,171c.12-2.58,0-6.78-2.58-9.12s-7,0-12.36-.3-7.32-4-7.62-7.56,2.28-5.1,3.66-8.28a9.18,9.18,0,0,0,.12-5.87,2.61,2.61,0,0,0-1.81.39,4,4,0,0,0-1,2.47,7.65,7.65,0,0,1-1.42,3,.48.48,0,0,1-.61.14,12.66,12.66,0,0,0-5.13-1.79,24.68,24.68,0,0,0-1.61,9.72c.12,7.74,6.12,10.44,11.81,11.7,5,1.1,10.23-1.08,12.39-1.11.35-.23.71-.46,1.07-.67a1.18,1.18,0,0,1,.66-.16c.51.06.6.44.68.8a49.5,49.5,0,0,1,.91,6.87,1.63,1.63,0,0,0,.5,1.33,1.91,1.91,0,0,0,.89.21,4.36,4.36,0,0,0,.51,0A2.72,2.72,0,0,0,171.43,171Z"/><path class="cls-9" d="M142.08,144.26a5.56,5.56,0,0,0-4.34,2.85,8.06,8.06,0,0,0-.78,2.45,17.6,17.6,0,0,0,3,13.27,18.57,18.57,0,0,0,11.52,7.31,12.13,12.13,0,0,0,3.12.22,13.26,13.26,0,0,0,6.15-2.47c1.58-1.07,3.06-2.28,4.65-3.33-2.15,0-7.43,2.2-12.38,1.1-5.7-1.26-11.7-4-11.82-11.69a24.7,24.7,0,0,1,1.62-9.73A4.86,4.86,0,0,0,142.08,144.26Z"/><path class="cls-11" d="M147.82,145.94a.48.48,0,0,0,.61-.14,7.65,7.65,0,0,0,1.42-3,4,4,0,0,1,1-2.47,3.22,3.22,0,0,1,2.32-.35,1.62,1.62,0,0,1,1.07.39,1.66,1.66,0,0,1,.25,1.12c0,2.33-.11,4.75-1.19,6.82a12,12,0,0,0-1,2.09,5.87,5.87,0,0,0,.13,3.16,7.85,7.85,0,0,0,1.9,3.78,6.45,6.45,0,0,0,3.88,1.65,15.4,15.4,0,0,0,4.28-.3,17.48,17.48,0,0,1,4.07-.42,6.94,6.94,0,0,1,6.18,4.86,12.38,12.38,0,0,1,.27,3.22l0,4.44c0,.85,0,1.76-1.66,2.07a4.57,4.57,0,0,1-1.28,0,1.91,1.91,0,0,1-.89-.21,1.63,1.63,0,0,1-.5-1.33,49.5,49.5,0,0,0-.91-6.87c-.08-.36-.17-.74-.68-.8a1.18,1.18,0,0,0-.66.16c-2,1.18-3.79,2.71-5.73,4a13.12,13.12,0,0,1-6.14,2.47,11.3,11.3,0,0,1-3.12-.22,18.58,18.58,0,0,1-11.53-7.3,17.66,17.66,0,0,1-3-13.27,8.37,8.37,0,0,1,.79-2.45,5.58,5.58,0,0,1,4.34-2.86c2.07-.18,4,.82,5.88,1.78Z"/><path class="cls-5" d="M35.62,206.24c0-.3.15-.46.53-.46h1.56a2.16,2.16,0,0,1,2.48,2.15A1.73,1.73,0,0,1,39,209.72v0a2,2,0,0,1,1.88,2.15,2.42,2.42,0,0,1-2.72,2.46h-2c-.38,0-.53-.15-.53-.45Zm.87,3.22h1.27a1.49,1.49,0,0,0,1.56-1.5,1.41,1.41,0,0,0-1.54-1.38H36.49Zm0,4.11H38c1.22,0,2-.58,2-1.69a1.76,1.76,0,0,0-2-1.7H36.49Z"/><path class="cls-5" d="M46.34,208.43c0-.36.16-.55.44-.55s.43.19.43.55v5.45c0,.36-.16.56-.43.56s-.44-.2-.44-.56v-.4h0a2,2,0,0,1-1.78,1c-1.84,0-2.76-1.47-2.76-3.28,0-1.62.88-3.28,2.74-3.28a2.15,2.15,0,0,1,1.8,1h0Zm-1.81,5.28c1.35,0,1.81-1.38,1.81-2.55s-.46-2.56-1.81-2.56-1.82,1.39-1.82,2.56S43.18,213.71,44.53,213.71Z"/><path class="cls-5" d="M48.8,205.61c0-.36.16-.55.44-.55s.43.19.43.55v3.22h0a2.13,2.13,0,0,1,1.79-1c1.86,0,2.74,1.66,2.74,3.28,0,1.81-.92,3.28-2.76,3.28a2,2,0,0,1-1.77-1h0v.4c0,.36-.15.56-.43.56s-.44-.2-.44-.56Zm2.68,8.1c1.35,0,1.82-1.38,1.82-2.55s-.47-2.56-1.82-2.56-1.82,1.39-1.82,2.56S50.13,213.71,51.48,213.71Z"/><path class="cls-5" d="M55.94,205.71a.58.58,0,0,1,.59.59.59.59,0,0,1-.59.59.6.6,0,0,1-.59-.59A.59.59,0,0,1,55.94,205.71Zm.44,8.17c0,.36-.16.56-.44.56s-.43-.2-.43-.56v-5.45c0-.36.16-.55.43-.55s.44.19.44.55Z"/><path class="cls-5" d="M58.58,211.54a2.09,2.09,0,0,0,1.91,2.17c1.37,0,1.73-1,2.14-1,.25,0,.41.09.41.43s-1,1.29-2.49,1.29c-2,0-2.91-1.67-2.91-3.28s1-3.28,2.76-3.28,2.74,1.52,2.74,3.13c0,.23-.07.53-.59.53Zm3.62-.72c0-1.07-.64-2.22-1.81-2.22s-1.77,1.15-1.81,2.22Z"/><path class="cls-5" d="M68.24,208.87a.38.38,0,0,1-.43.42c-.34,0-.79-.69-1.65-.69-.61,0-1.26.29-1.26.91a.8.8,0,0,0,.59.75l1.32.54c.87.34,1.6.77,1.6,1.78s-1,1.86-2.36,1.86-2.32-.81-2.32-1.22c0-.13.2-.42.41-.42.41,0,.81.91,1.94.91.84,0,1.39-.49,1.39-1.09s-.42-.8-.89-1l-1.5-.62A1.48,1.48,0,0,1,64,209.57a1.88,1.88,0,0,1,2-1.69C67.23,207.88,68.27,208.41,68.24,208.87Z"/><path class="cls-5" d="M73.34,213.88c0,.36-.15.56-.43.56s-.43-.2-.43-.56v-5.45c0-.36.15-.55.43-.55s.43.19.43.55v.32h0a2,2,0,0,1,1.67-.87,2.22,2.22,0,0,1,2.31,2.29v3.71c0,.36-.16.56-.44.56s-.43-.2-.43-.56v-3.74a1.42,1.42,0,0,0-1.57-1.47,1.56,1.56,0,0,0-1.57,1.68Z"/><path class="cls-5" d="M79.56,211.54a2.08,2.08,0,0,0,1.9,2.17c1.37,0,1.74-1,2.15-1,.24,0,.41.09.41.43s-1,1.29-2.5,1.29c-2,0-2.91-1.67-2.91-3.28s1-3.28,2.77-3.28,2.73,1.52,2.73,3.13c0,.23-.07.53-.59.53Zm3.61-.72c0-1.07-.64-2.22-1.81-2.22s-1.77,1.15-1.8,2.22Z"/><path class="cls-5" d="M85.81,211.54a2.09,2.09,0,0,0,1.91,2.17c1.37,0,1.73-1,2.14-1,.25,0,.41.09.41.43s-1,1.29-2.49,1.29c-2,0-2.91-1.67-2.91-3.28s1-3.28,2.76-3.28,2.74,1.52,2.74,3.13c0,.23-.07.53-.59.53Zm3.62-.72c0-1.07-.64-2.22-1.81-2.22s-1.77,1.15-1.81,2.22Z"/><path class="cls-5" d="M95.7,205.61c0-.36.16-.55.44-.55s.43.19.43.55v8.27c0,.36-.16.56-.43.56s-.44-.2-.44-.56v-.4h0a2,2,0,0,1-1.78,1c-1.84,0-2.76-1.47-2.76-3.28,0-1.62.88-3.28,2.74-3.28a2.15,2.15,0,0,1,1.8,1h0Zm-1.81,8.1c1.35,0,1.81-1.38,1.81-2.55s-.46-2.56-1.81-2.56-1.82,1.39-1.82,2.56S92.54,213.71,93.89,213.71Z"/><path class="cls-5" d="M105.3,208.43c0-.36.16-.55.44-.55s.43.19.43.55v5.45c0,.36-.16.56-.43.56s-.44-.2-.44-.56v-.4h0a2,2,0,0,1-1.78,1c-1.84,0-2.76-1.47-2.76-3.28,0-1.62.88-3.28,2.74-3.28a2.15,2.15,0,0,1,1.8,1h0Zm-1.81,5.28c1.35,0,1.81-1.38,1.81-2.55s-.46-2.56-1.81-2.56-1.82,1.39-1.82,2.56S102.14,213.71,103.49,213.71Z"/><path class="cls-5" d="M112,208.43c0-.36.15-.55.43-.55s.43.19.43.55v5.63a2.7,2.7,0,0,1-2.79,2.91c-1.28,0-2.46-.73-2.46-1.16a.4.4,0,0,1,.43-.45c.35,0,.93.81,1.94.81a1.89,1.89,0,0,0,2-2v-.67h0a2,2,0,0,1-1.78,1c-1.85,0-2.76-1.47-2.76-3.28,0-1.62.88-3.28,2.73-3.28a2.26,2.26,0,0,1,1.81.94h0Zm-1.81,5.28a1.89,1.89,0,0,0,1.82-1.94v-1.23a1.88,1.88,0,0,0-1.82-1.94c-1.35,0-1.82,1.39-1.82,2.56S108.85,213.71,110.2,213.71Z"/><path class="cls-5" d="M115.08,211.54a2.09,2.09,0,0,0,1.91,2.17c1.37,0,1.73-1,2.14-1,.24,0,.41.09.41.43s-1,1.29-2.49,1.29c-2,0-2.91-1.67-2.91-3.28s1-3.28,2.76-3.28,2.74,1.52,2.74,3.13c0,.23-.07.53-.59.53Zm3.62-.72c0-1.07-.64-2.22-1.81-2.22s-1.77,1.15-1.81,2.22Z"/><path class="cls-5" d="M123.22,210.76a.42.42,0,0,1,.46.4.42.42,0,0,1-.46.4h-2.34a.42.42,0,0,1-.45-.4.41.41,0,0,1,.45-.4Z"/><path class="cls-5" d="M129.22,208.43c0-.36.15-.55.43-.55s.43.19.43.55v5.45c0,.36-.15.56-.43.56s-.43-.2-.43-.56v-.4h0a2,2,0,0,1-1.77,1c-1.85,0-2.76-1.47-2.76-3.28,0-1.62.88-3.28,2.73-3.28a2.14,2.14,0,0,1,1.8,1h0Zm-1.81,5.28c1.35,0,1.81-1.38,1.81-2.55s-.46-2.56-1.81-2.56-1.82,1.39-1.82,2.56S126.06,213.71,127.41,213.71Z"/><path class="cls-5" d="M131.68,208.43c0-.36.15-.55.43-.55s.44.19.44.55v.4h0a2,2,0,0,1,1.77-1c1.85,0,2.76,1.47,2.76,3.28,0,1.61-.87,3.28-2.73,3.28a2.16,2.16,0,0,1-1.8-1h0v2.93c0,.36-.16.56-.44.56s-.43-.2-.43-.56Zm2.67,5.28c1.35,0,1.82-1.38,1.82-2.55s-.47-2.56-1.82-2.56-1.82,1.39-1.82,2.56S133,213.71,134.35,213.71Z"/><path class="cls-5" d="M138.38,208.43c0-.36.16-.55.44-.55s.43.19.43.55v.4h0a2,2,0,0,1,1.77-1c1.84,0,2.76,1.47,2.76,3.28,0,1.61-.88,3.28-2.74,3.28a2.14,2.14,0,0,1-1.79-1h0v2.93c0,.36-.16.56-.43.56s-.44-.2-.44-.56Zm2.68,5.28c1.35,0,1.82-1.38,1.82-2.55s-.47-2.56-1.82-2.56-1.82,1.39-1.82,2.56S139.71,213.71,141.06,213.71Z"/><path class="cls-5" d="M146,213.88c0,.36-.16.56-.44.56s-.43-.2-.43-.56v-5.45c0-.36.15-.55.43-.55s.44.19.44.55V209h0a1.7,1.7,0,0,1,1.41-1.16c.41,0,.58.23.58.47s-.17.37-.59.47a1.8,1.8,0,0,0-1.42,1.94Z"/><path class="cls-5" d="M151.32,214.44c-1.84,0-2.76-1.47-2.76-3.28,0-1.62.88-3.28,2.76-3.28s2.76,1.66,2.76,3.28C154.08,213,153.17,214.44,151.32,214.44Zm0-.73c1.35,0,1.82-1.38,1.82-2.55s-.47-2.56-1.82-2.56-1.82,1.39-1.82,2.56S150,213.71,151.32,213.71Z"/><path class="cls-5" d="M155.35,208.43c0-.36.16-.55.43-.55s.44.19.44.55v.4h0a2,2,0,0,1,1.78-1c1.84,0,2.76,1.47,2.76,3.28,0,1.61-.88,3.28-2.74,3.28a2.16,2.16,0,0,1-1.8-1h0v2.93c0,.36-.16.56-.44.56s-.43-.2-.43-.56Zm2.68,5.28c1.35,0,1.82-1.38,1.82-2.55s-.47-2.56-1.82-2.56-1.82,1.39-1.82,2.56S156.68,213.71,158,213.71Z"/><path class="cls-5" d="M162.92,213.88c0,.36-.15.56-.43.56s-.43-.2-.43-.56v-5.45c0-.36.15-.55.43-.55s.43.19.43.55V209h0a1.7,1.7,0,0,1,1.41-1.16c.41,0,.58.23.58.47s-.17.37-.59.47a1.8,1.8,0,0,0-1.43,1.94Z"/><path class="cls-5" d="M166.29,205.71a.59.59,0,0,1,.59.59.6.6,0,0,1-.59.59.59.59,0,0,1-.59-.59A.58.58,0,0,1,166.29,205.71Zm.43,8.17c0,.36-.15.56-.43.56s-.43-.2-.43-.56v-5.45c0-.36.15-.55.43-.55s.43.19.43.55Z"/><path class="cls-5" d="M172.56,208.43c0-.36.15-.55.43-.55s.44.19.44.55v5.45c0,.36-.16.56-.44.56s-.43-.2-.43-.56v-.4h0a2,2,0,0,1-1.77,1c-1.84,0-2.76-1.47-2.76-3.28,0-1.62.88-3.28,2.74-3.28a2.13,2.13,0,0,1,1.79,1h0Zm-1.81,5.28c1.35,0,1.81-1.38,1.81-2.55s-.46-2.56-1.81-2.56-1.82,1.39-1.82,2.56S169.4,213.71,170.75,213.71Z"/><path class="cls-5" d="M176.11,213.88c0,.36-.16.56-.44.56s-.43-.2-.43-.56v-5.21h-.57a.34.34,0,0,1-.37-.36.35.35,0,0,1,.37-.36h.57v-1.41c0-.37.15-.57.43-.57s.44.2.44.57V208h.56a.35.35,0,0,1,.37.36.34.34,0,0,1-.37.36h-.56Z"/><path class="cls-5" d="M178.53,211.54a2.08,2.08,0,0,0,1.9,2.17c1.38,0,1.74-1,2.15-1,.24,0,.41.09.41.43s-1,1.29-2.5,1.29c-2,0-2.9-1.67-2.9-3.28s.95-3.28,2.76-3.28,2.74,1.52,2.74,3.13c0,.23-.08.53-.6.53Zm3.62-.72c0-1.07-.64-2.22-1.81-2.22s-1.77,1.15-1.81,2.22Z"/><path class="cls-6" d="M55,223.47a.88.88,0,0,1,.87-1,.73.73,0,0,1,.8.64,1.87,1.87,0,0,1,1.67-.71,2.23,2.23,0,0,1,2.38,2.34v3.32a.88.88,0,1,1-1.74,0v-3a1.12,1.12,0,1,0-2.24,0v3a.88.88,0,1,1-1.74,0Z"/><path class="cls-6" d="M61.75,223.47a.87.87,0,1,1,1.74,0v3.1a1.12,1.12,0,0,0,2.24,0v-3.1a.87.87,0,1,1,1.73,0v3.14c0,1.54-1,2.53-2.85,2.53s-2.86-1-2.86-2.53Z"/><path class="cls-6" d="M68.88,224.1h-.39a.7.7,0,0,1-.76-.76.75.75,0,0,1,.76-.76h.39v-1a.87.87,0,1,1,1.73,0v1h.5a.76.76,0,1,1,0,1.52h-.5v4a.87.87,0,1,1-1.73,0Z"/><path class="cls-6" d="M72,223.38a.85.85,0,0,1,.89-.87c.46,0,.85.17.85.72h0a1.38,1.38,0,0,1,1.22-.72.84.84,0,0,1,.84.93c0,.56-.52.6-1,.84s-1.05.47-1.05,1.16v2.66a.88.88,0,1,1-1.74,0Z"/><path class="cls-6" d="M77.86,220.86a1,1,0,0,1-1,1,1,1,0,0,1-1-1,1,1,0,0,1,2,0ZM76,223.47a.87.87,0,1,1,1.73,0v4.63a.87.87,0,1,1-1.73,0Z"/><path class="cls-6" d="M80.12,226.37a1.5,1.5,0,0,0,1.64,1.25c.89,0,1.5-.7,2-.7a.77.77,0,0,1,.71.75c0,.75-1.54,1.47-2.83,1.47a3.17,3.17,0,0,1-3.26-3.34,3.12,3.12,0,1,1,6.24-.2c0,.51-.23.77-.76.77Zm2.72-1.16a1.38,1.38,0,0,0-2.76,0Z"/><path class="cls-6" d="M85.19,223.47a.87.87,0,0,1,.87-1,.73.73,0,0,1,.8.64,1.86,1.86,0,0,1,1.67-.71,2.23,2.23,0,0,1,2.38,2.34v3.32a.88.88,0,1,1-1.74,0v-3a1.12,1.12,0,1,0-2.24,0v3a.88.88,0,1,1-1.74,0Z"/><path class="cls-6" d="M92.32,224.1h-.38a.7.7,0,0,1-.76-.76.74.74,0,0,1,.76-.76h.38v-1a.87.87,0,1,1,1.74,0v1h.49a.76.76,0,1,1,0,1.52h-.49v4a.88.88,0,1,1-1.74,0Z"/><path class="cls-6" d="M98.6,224.74a.76.76,0,0,1,0,1.52H96a.76.76,0,0,1,0-1.52Z"/><path class="cls-6" d="M106.09,228.1a.88.88,0,0,1-.87,1,.82.82,0,0,1-.86-.73,1.92,1.92,0,0,1-1.6.8,3.07,3.07,0,0,1-2.85-3.27c0-1.69.92-3.43,2.79-3.43a2.51,2.51,0,0,1,1.66.6v-2.36a.87.87,0,1,1,1.73,0ZM103,224c-.9,0-1.35.95-1.35,1.77s.45,1.75,1.35,1.75,1.37-1,1.37-1.81S103.92,224,103,224Z"/><path class="cls-6" d="M108.48,226.37a1.5,1.5,0,0,0,1.64,1.25c.89,0,1.51-.7,2-.7a.77.77,0,0,1,.72.75c0,.75-1.55,1.47-2.84,1.47a3.16,3.16,0,0,1-3.25-3.34,3.12,3.12,0,1,1,6.23-.2c0,.51-.23.77-.76.77Zm2.72-1.16a1.37,1.37,0,0,0-1.38-1.33,1.41,1.41,0,0,0-1.38,1.33Z"/><path class="cls-6" d="M113.56,223.47a.87.87,0,0,1,.87-1,.73.73,0,0,1,.79.64,1.89,1.89,0,0,1,1.68-.71,2.22,2.22,0,0,1,2.37,2.34v3.32a.87.87,0,1,1-1.73,0v-3a1.13,1.13,0,1,0-2.25,0v3a.87.87,0,1,1-1.73,0Z"/><path class="cls-6" d="M123.91,224.46c-.32,0-1-.5-1.55-.5-.31,0-.59.14-.59.48,0,.81,3,.68,3,2.66,0,1.16-1,2-2.47,2-1,0-2.42-.56-2.42-1.34a.82.82,0,0,1,.75-.77c.67,0,1,.59,1.79.59.53,0,.69-.17.69-.49,0-.8-3-.68-3-2.67a2.1,2.1,0,0,1,2.35-2c.85,0,2.17.39,2.17,1.25A.75.75,0,0,1,123.91,224.46Z"/><path class="cls-6" d="M126.8,226.37a1.5,1.5,0,0,0,1.64,1.25c.89,0,1.51-.7,2-.7a.76.76,0,0,1,.71.75c0,.75-1.54,1.47-2.83,1.47A3.16,3.16,0,0,1,125,225.8a3.12,3.12,0,1,1,6.23-.2c0,.51-.23.77-.76.77Zm2.72-1.16a1.37,1.37,0,0,0-1.38-1.33,1.4,1.4,0,0,0-1.38,1.33Z"/><path class="cls-6" d="M135.51,224.1h-.39a.7.7,0,0,1-.76-.76.75.75,0,0,1,.76-.76h.39v-.89a1.77,1.77,0,0,1,1.82-2c.61,0,1.2.18,1.2.79s-.23.73-.71.73c-.29,0-.58,0-.58.64v.71h.54c.52,0,.88.21.88.76s-.37.76-.88.76h-.54v4a.87.87,0,1,1-1.73,0Z"/><path class="cls-6" d="M144.64,225.8a3.12,3.12,0,1,1-6.22,0,3.12,3.12,0,1,1,6.22,0Zm-4.48,0c0,.83.43,1.75,1.37,1.75s1.38-.92,1.38-1.75-.42-1.77-1.38-1.77S140.16,225,140.16,225.8Z"/><path class="cls-6" d="M151.35,225.8a3.12,3.12,0,1,1-6.22,0,3.12,3.12,0,1,1,6.22,0Zm-4.49,0c0,.83.44,1.75,1.38,1.75s1.37-.92,1.37-1.75-.42-1.77-1.37-1.77S146.86,225,146.86,225.8Z"/><path class="cls-6" d="M158,228.1a.88.88,0,0,1-.87,1,.84.84,0,0,1-.87-.73,1.89,1.89,0,0,1-1.59.8,3.07,3.07,0,0,1-2.85-3.27c0-1.69.92-3.43,2.79-3.43a2.47,2.47,0,0,1,1.65.6v-2.36a.88.88,0,1,1,1.74,0Zm-3.1-4.07c-.9,0-1.35.95-1.35,1.77s.45,1.75,1.35,1.75,1.36-1,1.36-1.81S155.85,224,154.92,224Z"/><path class="cls-6" d="M162.66,224.46c-.32,0-1-.5-1.55-.5-.32,0-.59.14-.59.48,0,.81,3,.68,3,2.66a2.19,2.19,0,0,1-2.47,2c-1,0-2.42-.56-2.42-1.34a.82.82,0,0,1,.74-.77c.68,0,1,.59,1.8.59.53,0,.69-.17.69-.49,0-.8-3-.68-3-2.67a2.11,2.11,0,0,1,2.35-2c.86,0,2.17.39,2.17,1.25A.75.75,0,0,1,162.66,224.46Z"/><path class="cls-5" d="M34.86,243.14c0,.36-.16.56-.44.56s-.43-.2-.43-.56v-5.2h-.57a.37.37,0,1,1,0-.73H34V235.8c0-.37.16-.56.43-.56s.44.19.44.56v1.41h.56a.37.37,0,1,1,0,.73h-.56Z"/><path class="cls-5" d="M39.1,243.7c-1.84,0-2.76-1.47-2.76-3.28,0-1.62.88-3.28,2.76-3.28s2.76,1.66,2.76,3.28C41.86,242.23,41,243.7,39.1,243.7Zm0-.73c1.35,0,1.82-1.38,1.82-2.55s-.47-2.56-1.82-2.56-1.82,1.39-1.82,2.56S37.75,243,39.1,243Z"/><path class="cls-5" d="M47.11,243.14c0,.36-.16.56-.43.56s-.44-.2-.44-.56v-5.2h-.56a.37.37,0,1,1,0-.73h.56v-1.65a1.09,1.09,0,0,1,1.15-1.24h.44c.41,0,.59.18.59.4s-.1.4-.45.4h-.4a.42.42,0,0,0-.46.39v1.7h.77a.37.37,0,1,1,0,.73h-.77Z"/><path class="cls-5" d="M48.93,237.69c0-.36.16-.55.44-.55s.43.19.43.55v3.61a1.57,1.57,0,1,0,3.13,0v-3.61c0-.36.16-.55.44-.55s.43.19.43.55v3.83a2.45,2.45,0,0,1-4.87,0Z"/><path class="cls-5" d="M56.26,243.14c0,.36-.15.56-.43.56s-.43-.2-.43-.56v-8.27c0-.36.15-.55.43-.55s.43.19.43.55Z"/><path class="cls-5" d="M58.94,243.14c0,.36-.16.56-.43.56s-.44-.2-.44-.56v-5.2h-.56a.37.37,0,1,1,0-.73h.56v-1.65a1.09,1.09,0,0,1,1.15-1.24h.44c.41,0,.59.18.59.4s-.1.4-.45.4h-.4a.42.42,0,0,0-.46.39v1.7h.77a.37.37,0,1,1,0,.73h-.77Zm1.65-7.58a.6.6,0,0,1,.59-.59.59.59,0,0,1,.59.59.58.58,0,0,1-.59.59A.59.59,0,0,1,60.59,235.56Zm1,7.58c0,.36-.16.56-.44.56s-.43-.2-.43-.56v-5.45c0-.36.16-.55.43-.55s.44.19.44.55Z"/><path class="cls-5" d="M64.08,243.14c0,.36-.16.56-.44.56s-.43-.2-.43-.56v-8.27c0-.36.16-.55.43-.55s.44.19.44.55Z"/><path class="cls-5" d="M69.65,243.14c0,.36-.16.56-.43.56s-.44-.2-.44-.56v-5.2h-.56a.37.37,0,1,1,0-.73h.56V235.8c0-.37.16-.56.44-.56s.43.19.43.56v1.41h.57a.37.37,0,1,1,0,.73h-.57Z"/><path class="cls-5" d="M72.33,243.14c0,.36-.16.56-.44.56s-.43-.2-.43-.56v-8.27c0-.36.15-.55.43-.55s.44.19.44.55V238h0a2,2,0,0,1,1.68-.87,2.21,2.21,0,0,1,2.3,2.29v3.71c0,.36-.16.56-.44.56s-.43-.2-.43-.56v-3.73a1.41,1.41,0,0,0-1.57-1.47,1.55,1.55,0,0,0-1.56,1.67Z"/><path class="cls-5" d="M78.54,240.8a2.07,2.07,0,0,0,1.9,2.17c1.38,0,1.74-1,2.15-1,.24,0,.41.08.41.42s-1,1.29-2.5,1.29c-2,0-2.9-1.67-2.9-3.28s1-3.28,2.76-3.28,2.73,1.52,2.73,3.13c0,.23-.07.53-.59.53Zm3.61-.72c0-1.07-.64-2.22-1.8-2.22s-1.78,1.15-1.81,2.22Z"/><path class="cls-5" d="M84.62,235a.6.6,0,0,1,.59.59.59.59,0,0,1-.59.59.58.58,0,0,1-.59-.59A.59.59,0,0,1,84.62,235Zm.43,8.17c0,.36-.16.56-.43.56s-.44-.2-.44-.56v-5.45c0-.36.16-.55.44-.55s.43.19.43.55Z"/><path class="cls-5" d="M87.51,243.14c0,.36-.16.56-.43.56s-.44-.2-.44-.56v-5.45c0-.36.16-.55.44-.55s.43.19.43.55v.61h0a1.73,1.73,0,0,1,1.41-1.16c.41,0,.58.23.58.47s-.17.37-.59.47A1.8,1.8,0,0,0,87.51,240Z"/><path class="cls-5" d="M94.2,243.14c0,.36-.15.56-.43.56s-.44-.2-.44-.56v-5.45c0-.36.16-.55.44-.55s.43.19.43.55V238h0a1.93,1.93,0,0,1,1.67-.87,2.21,2.21,0,0,1,2.3,2.29v3.71c0,.36-.15.56-.43.56s-.43-.2-.43-.56v-3.73a1.42,1.42,0,0,0-1.57-1.47,1.55,1.55,0,0,0-1.57,1.67Z"/><path class="cls-5" d="M99.8,237.69c0-.36.16-.55.43-.55s.44.19.44.55v3.61a1.57,1.57,0,1,0,3.13,0v-3.61c0-.36.16-.55.44-.55s.43.19.43.55v3.83a2.45,2.45,0,0,1-4.87,0Z"/><path class="cls-5" d="M107.35,243.14c0,.36-.16.56-.44.56s-.43-.2-.43-.56v-5.2h-.57a.37.37,0,1,1,0-.73h.57V235.8c0-.37.16-.56.43-.56s.44.19.44.56v1.41h.56a.37.37,0,1,1,0,.73h-.56Z"/><path class="cls-5" d="M110,243.14c0,.36-.15.56-.43.56s-.43-.2-.43-.56v-5.45c0-.36.15-.55.43-.55s.43.19.43.55v.61h0a1.71,1.71,0,0,1,1.41-1.16c.41,0,.58.23.58.47s-.17.37-.59.47A1.8,1.8,0,0,0,110,240Z"/><path class="cls-5" d="M113.39,235a.6.6,0,0,1,.59.59.59.59,0,0,1-.59.59.58.58,0,0,1-.59-.59A.59.59,0,0,1,113.39,235Zm.43,8.17c0,.36-.15.56-.43.56s-.43-.2-.43-.56v-5.45c0-.36.15-.55.43-.55s.43.19.43.55Z"/><path class="cls-5" d="M116.5,243.14c0,.36-.16.56-.43.56s-.44-.2-.44-.56v-5.2h-.56a.37.37,0,1,1,0-.73h.56V235.8c0-.37.16-.56.44-.56s.43.19.43.56v1.41h.57a.37.37,0,1,1,0,.73h-.57Z"/><path class="cls-5" d="M118.74,235a.59.59,0,0,1,.59.59.58.58,0,0,1-.59.59.59.59,0,0,1-.59-.59A.6.6,0,0,1,118.74,235Zm.44,8.17c0,.36-.16.56-.44.56s-.43-.2-.43-.56v-5.45c0-.36.16-.55.43-.55s.44.19.44.55Z"/><path class="cls-5" d="M123.2,243.7c-1.84,0-2.76-1.47-2.76-3.28,0-1.62.88-3.28,2.76-3.28s2.77,1.66,2.77,3.28C126,242.23,125.05,243.7,123.2,243.7Zm0-.73c1.36,0,1.83-1.38,1.83-2.55s-.47-2.56-1.83-2.56-1.82,1.39-1.82,2.56S121.86,243,123.2,243Z"/><path class="cls-5" d="M128.1,243.14c0,.36-.15.56-.43.56s-.44-.2-.44-.56v-5.45c0-.36.16-.55.44-.55s.43.19.43.55V238h0a1.93,1.93,0,0,1,1.67-.87,2.21,2.21,0,0,1,2.3,2.29v3.71c0,.36-.15.56-.43.56s-.43-.2-.43-.56v-3.73a1.42,1.42,0,0,0-1.57-1.47,1.55,1.55,0,0,0-1.57,1.67Z"/><path class="cls-5" d="M137.94,237.69c0-.36.16-.55.43-.55s.44.19.44.55v5.45c0,.36-.16.56-.44.56s-.43-.2-.43-.56v-.39h0a2,2,0,0,1-1.77.95c-1.84,0-2.76-1.47-2.76-3.28,0-1.62.88-3.28,2.74-3.28a2.12,2.12,0,0,1,1.79,1h0ZM136.13,243c1.35,0,1.81-1.38,1.81-2.55s-.46-2.56-1.81-2.56-1.82,1.39-1.82,2.56S134.78,243,136.13,243Z"/><path class="cls-5" d="M141.27,243.14c0,.36-.16.56-.43.56s-.44-.2-.44-.56v-8.27c0-.36.16-.55.44-.55s.43.19.43.55Z"/><path class="cls-5" d="M146.62,243.14c0,.36-.15.56-.43.56s-.43-.2-.43-.56v-5.45c0-.36.15-.55.43-.55s.43.19.43.55V238h0a2,2,0,0,1,1.67-.87,2.22,2.22,0,0,1,2.31,2.29v3.71c0,.36-.16.56-.44.56s-.43-.2-.43-.56v-3.73a1.41,1.41,0,0,0-1.57-1.47,1.55,1.55,0,0,0-1.57,1.67Z"/><path class="cls-5" d="M152.84,240.8a2.07,2.07,0,0,0,1.9,2.17c1.38,0,1.74-1,2.15-1,.24,0,.41.08.41.42s-1,1.29-2.5,1.29c-2.05,0-2.9-1.67-2.9-3.28s.95-3.28,2.76-3.28,2.73,1.52,2.73,3.13c0,.23-.07.53-.59.53Zm3.61-.72c0-1.07-.64-2.22-1.8-2.22s-1.78,1.15-1.81,2.22Z"/><path class="cls-5" d="M159.1,240.8A2.07,2.07,0,0,0,161,243c1.37,0,1.74-1,2.15-1,.24,0,.41.08.41.42s-1,1.29-2.5,1.29c-2.05,0-2.91-1.67-2.91-3.28s1-3.28,2.77-3.28,2.73,1.52,2.73,3.13c0,.23-.07.53-.59.53Zm3.61-.72c0-1.07-.64-2.22-1.81-2.22s-1.77,1.15-1.8,2.22Z"/><path class="cls-5" d="M169,234.87c0-.36.16-.55.44-.55s.43.19.43.55v8.27c0,.36-.16.56-.43.56s-.44-.2-.44-.56v-.39h0a2,2,0,0,1-1.78.95c-1.84,0-2.76-1.47-2.76-3.28,0-1.62.88-3.28,2.74-3.28a2.15,2.15,0,0,1,1.8,1h0Zm-1.81,8.1c1.36,0,1.81-1.38,1.81-2.55s-.45-2.56-1.81-2.56-1.82,1.39-1.82,2.56S165.82,243,167.17,243Z"/><path class="cls-5" d="M175.46,238.13a.38.38,0,0,1-.43.42c-.34,0-.79-.69-1.66-.69-.6,0-1.25.29-1.25.91a.81.81,0,0,0,.59.76l1.31.53c.87.35,1.61.77,1.61,1.78s-1,1.86-2.36,1.86-2.32-.81-2.32-1.22c0-.13.19-.42.41-.42.41,0,.81.91,1.94.91.83,0,1.39-.49,1.39-1.09s-.42-.8-.89-1l-1.5-.62a1.48,1.48,0,0,1-1.12-1.44,1.88,1.88,0,0,1,2-1.69C174.45,237.14,175.48,237.67,175.46,238.13Z"/><path class="cls-5" d="M179.09,239.15a.24.24,0,0,1,.27.23.25.25,0,0,1-.27.23h-2.34c-.2,0-.27-.1-.27-.2a.52.52,0,0,1,.14-.31l1.62-2.24a1.88,1.88,0,0,0,.43-1c0-.62-.31-.86-.8-.86s-.94.4-.94,1.16a.23.23,0,0,1-.25.25c-.16,0-.26-.08-.26-.34a1.45,1.45,0,0,1,1.47-1.53,1.22,1.22,0,0,1,1.33,1.28,1.93,1.93,0,0,1-.48,1.15l-1.58,2.16Z"/><path class="cls-5" d="M180.45,239.15a.25.25,0,0,1,.24-.15.23.23,0,0,1,.25.22.42.42,0,0,1-.06.21l-.4.89a.23.23,0,0,1-.24.15.23.23,0,0,1-.24-.22.63.63,0,0,1,.05-.21Z"/><path class="cls-5" d="M181.89,238a4.81,4.81,0,0,1,1.67-3.35.42.42,0,0,1,.27-.14.24.24,0,0,1,.23.27c0,.22-.65.41-1.35,1.82h0a1.34,1.34,0,0,1,.72-.2c.83,0,1.35.63,1.35,1.6a1.52,1.52,0,0,1-1.43,1.67A1.54,1.54,0,0,1,181.89,238Zm2.36.05c0-.73-.36-1.23-.91-1.23s-.9.44-.9,1.23c0,.57.27,1.16.88,1.16S184.25,238.8,184.25,238Z"/><path class="cls-7" d="M96.13,334.4a9.33,9.33,0,0,0-8.32-6.54,22.59,22.59,0,0,0-5.48.57,21.46,21.46,0,0,1-5.76.4,8.67,8.67,0,0,1-5.23-2.23,10.74,10.74,0,0,1-2.57-5.08,8.06,8.06,0,0,1-.17-4.27A16.88,16.88,0,0,1,70,314.44c1.44-2.79,1.53-6.05,1.6-9.19a2.15,2.15,0,0,0-.35-1.5,2.2,2.2,0,0,0-1.44-.53l-.69-.06c.54,2,1,5.17-.15,7.92-1.86,4.28-5.33,6.38-4.93,11.15s3,9.78,10.26,10.18,13.18-2.75,16.65.41,3.64,8.8,3.48,12.28a3.7,3.7,0,0,1-1.26,2.48,5.2,5.2,0,0,0,1-.07c2.21-.42,2.23-1.65,2.23-2.78l0-6A16.17,16.17,0,0,0,96.13,334.4Z"/><path class="cls-8" d="M94.46,345.1c.16-3.48,0-9.13-3.48-12.28s-9.37,0-16.65-.41S64.47,327,64.07,322.23s3.07-6.87,4.93-11.15c1.19-2.75.69-5.93.15-7.92a3.48,3.48,0,0,0-2.44.53c-1,.76-1.07,2.13-1.33,3.32a10.33,10.33,0,0,1-1.91,4.11.66.66,0,0,1-.83.18c-2.17-1.14-4.48-2.31-6.9-2.41A33.63,33.63,0,0,0,53.56,322c.17,10.42,8.25,14.06,15.93,15.75,6.67,1.48,13.78-1.44,16.68-1.49.48-.31,1-.61,1.44-.9a1.41,1.41,0,0,1,.89-.21c.68.07.81.59.91,1.06a65.92,65.92,0,0,1,1.23,9.27,2.17,2.17,0,0,0,.67,1.78,2.51,2.51,0,0,0,1.21.29,5.07,5.07,0,0,0,.68,0A3.7,3.7,0,0,0,94.46,345.1Z"/><path class="cls-9" d="M54.92,309a7.49,7.49,0,0,0-5.84,3.85,10.91,10.91,0,0,0-1.07,3.3,23.85,23.85,0,0,0,4.07,17.88,25,25,0,0,0,15.53,9.84,16,16,0,0,0,4.2.29,17.72,17.72,0,0,0,8.28-3.33c2.14-1.43,4.13-3.06,6.28-4.48-2.91,0-10,3-16.69,1.49-7.68-1.7-15.76-5.33-15.92-15.76A33.29,33.29,0,0,1,55.94,309,8.68,8.68,0,0,0,54.92,309Z"/><path class="cls-12" d="M62.64,311.3a.66.66,0,0,0,.83-.18A10.33,10.33,0,0,0,65.38,307c.26-1.19.37-2.56,1.33-3.32a4.25,4.25,0,0,1,3.13-.47,2.2,2.2,0,0,1,1.44.53,2.15,2.15,0,0,1,.35,1.5c-.07,3.14-.16,6.4-1.61,9.19a17.63,17.63,0,0,0-1.42,2.81,8.06,8.06,0,0,0,.17,4.27,10.74,10.74,0,0,0,2.57,5.08,8.67,8.67,0,0,0,5.23,2.23,21.46,21.46,0,0,0,5.76-.4,22.59,22.59,0,0,1,5.48-.57,9.33,9.33,0,0,1,8.32,6.54,16.17,16.17,0,0,1,.37,4.34l0,6c0,1.13,0,2.36-2.23,2.78a6.2,6.2,0,0,1-1.72,0,2.51,2.51,0,0,1-1.21-.29,2.17,2.17,0,0,1-.67-1.78,65.92,65.92,0,0,0-1.23-9.27c-.1-.47-.23-1-.91-1.06a1.41,1.41,0,0,0-.89.21c-2.71,1.58-5.1,3.64-7.71,5.39a17.93,17.93,0,0,1-8.28,3.33,16,16,0,0,1-4.2-.3,25,25,0,0,1-15.53-9.84,23.78,23.78,0,0,1-4.07-17.87,11.15,11.15,0,0,1,1.06-3.31,7.51,7.51,0,0,1,5.85-3.84c2.79-.25,5.44,1.09,7.91,2.39Z"/><path class="cls-7" d="M181.74,338.55a5.32,5.32,0,0,0-4.75-3.73,13.13,13.13,0,0,0-3.12.33,12.14,12.14,0,0,1-3.29.23,4.86,4.86,0,0,1-3-1.28,6,6,0,0,1-1.47-2.9,4.57,4.57,0,0,1-.1-2.43,10.07,10.07,0,0,1,.82-1.6,11.92,11.92,0,0,0,.91-5.24,1.26,1.26,0,0,0-.2-.86,1.18,1.18,0,0,0-.82-.3l-.39,0a7.16,7.16,0,0,1-.09,4.52c-1.06,2.44-3,3.64-2.81,6.36s1.7,5.58,5.85,5.81,7.52-1.57,9.5.23,2.08,5,2,7a2.1,2.1,0,0,1-.71,1.42,3,3,0,0,0,.59-.05c1.26-.23,1.27-.93,1.28-1.58,0-1.14,0-2.28,0-3.42A9.39,9.39,0,0,0,181.74,338.55Z"/><path class="cls-8" d="M180.78,344.66c.1-2,0-5.21-2-7s-5.35,0-9.5-.23-5.62-3.09-5.85-5.81,1.75-3.92,2.81-6.36a7.16,7.16,0,0,0,.09-4.52A2,2,0,0,0,165,321a3,3,0,0,0-.76,1.89,6,6,0,0,1-1.09,2.34.39.39,0,0,1-.48.11A9.7,9.7,0,0,0,158.7,324a19.05,19.05,0,0,0-1.25,7.47c.1,5.95,4.71,8,9.09,9,3.81.85,7.86-.82,9.52-.85.27-.18.54-.35.82-.51a.82.82,0,0,1,.51-.12c.39,0,.46.33.52.6a39.29,39.29,0,0,1,.7,5.29,1.25,1.25,0,0,0,.38,1,1.49,1.49,0,0,0,.69.16l.39,0A2.1,2.1,0,0,0,180.78,344.66Z"/><path class="cls-9" d="M158.23,324.08a4.29,4.29,0,0,0-3.34,2.19,6.62,6.62,0,0,0-.6,1.89,13.52,13.52,0,0,0,2.32,10.2,14.25,14.25,0,0,0,8.86,5.61,8.78,8.78,0,0,0,2.4.17,10.14,10.14,0,0,0,4.72-1.9c1.22-.81,2.36-1.75,3.58-2.56-1.66,0-5.71,1.7-9.52.86-4.38-1-9-3.05-9.09-9a19.05,19.05,0,0,1,1.25-7.47A5.61,5.61,0,0,0,158.23,324.08Z"/><path class="cls-13" d="M162.63,325.38a.39.39,0,0,0,.48-.11,6,6,0,0,0,1.09-2.34A3,3,0,0,1,165,321a2.36,2.36,0,0,1,1.78-.27,1.18,1.18,0,0,1,.82.3,1.26,1.26,0,0,1,.2.86,11.92,11.92,0,0,1-.91,5.24,10.07,10.07,0,0,0-.82,1.6,4.57,4.57,0,0,0,.1,2.43,6,6,0,0,0,1.47,2.9,4.86,4.86,0,0,0,3,1.28,12.14,12.14,0,0,0,3.29-.23,13.13,13.13,0,0,1,3.12-.33,5.32,5.32,0,0,1,4.75,3.73A9.39,9.39,0,0,1,182,341v3.42c0,.65,0,1.35-1.28,1.58a3.22,3.22,0,0,1-1,0,1.49,1.49,0,0,1-.69-.16,1.25,1.25,0,0,1-.38-1,39.29,39.29,0,0,0-.7-5.29c-.06-.27-.13-.56-.52-.6a.82.82,0,0,0-.51.12c-1.55.9-2.91,2.07-4.4,3.07a10.14,10.14,0,0,1-4.72,1.9,9.22,9.22,0,0,1-2.4-.17,14.29,14.29,0,0,1-8.86-5.61,13.52,13.52,0,0,1-2.32-10.2,6.62,6.62,0,0,1,.6-1.89,4.29,4.29,0,0,1,3.34-2.19,8.45,8.45,0,0,1,4.51,1.37Z"/><line class="cls-14" x1="78.96" y1="303.16" x2="78.96" y2="326.03"/><line class="cls-14" x1="171.02" y1="308.12" x2="171.02" y2="330.99"/><path class="cls-15" d="M111.35,260.49s26.75,4.49,40.91,21.94c0,0,42.86-13.38,55.51,11.14,0,0-.67,12.89-27.76,12.89-23.31,0-21.23-16.93-46.33-29.68-5.14-2.09-8.83-5-22.33-5.29Z"/><path class="cls-16" d="M207.77,293.57s-.67,12.89-27.76,12.89c-23.31,0-21.23-16.93-46.33-29.68-5.14-2.09-8.83-5-22.33-5.29V269.7s16.19-2.22,34.84,12.55S171,304.1,197.6,299.35C206.5,297.07,207.77,293.57,207.77,293.57Z"/><path class="cls-17" d="M15,258.19A53,53,0,0,1,31.84,267c8.29,6.62,44.38,5,49.17,6l-4.26,4.59s-17.25-1.21-17.21,1c0,1.62,12,4,31.82,2.84l-1,2.65H69.39l-1.16,1.2,15.59.43h.88l4.91.11-.72,2-22.24-.32-1.74,1.82,23.14.53-.85,2.2-23.79-.65-2.15,1.75,25.05,1.17L85.66,296l-26.46-1s7.81,3,25.55,3.33l-.62,1.68s-11.7,3.26-27.53-2.16-17.44-9.33-22.15-17.34A33.26,33.26,0,0,0,15,265Z"/><path class="cls-18" d="M84.1,301.72s-11.7,1.57-27.53-3.84-17.44-9.33-22.15-17.34A33.33,33.33,0,0,0,14.91,265v-1.37s10,2.55,16.17,10,9.92,18,23.59,22.74S84.1,300,84.1,300Z"/><polygon class="cls-18" points="90.3 284.1 90.32 286.02 89.61 286.02 89.61 285.89 87.14 285.83 69.36 285.26 69.36 284.1 90.3 284.1"/><polygon class="cls-18" points="66.62 287.5 66.62 289.18 88.88 289.73 88.86 287.82 66.62 287.5"/><path class="cls-18" d="M63.38,291.4v1.28l23.88,1.22c0-.23-.06-1.83-.06-1.83Z"/><path class="cls-18" d="M85.66,296v2l-18.24-1a69.94,69.94,0,0,1-8.24-2Z"/><polygon class="cls-19" points="91.33 281.45 91.33 283.36 90.32 286.02 90.3 284.1 91.33 281.45"/><polygon class="cls-19" points="69.36 285.26 69.27 285.36 68.23 285.33 69.36 284.1 69.36 285.26"/><polygon class="cls-19" points="66.62 289.18 66.45 289.38 64.91 289.35 66.62 287.5 66.62 289.18"/><polygon class="cls-19" points="63.38 292.68 63.28 292.8 61.74 292.79 63.38 291.4 63.38 292.68"/><polygon class="cls-19" points="85.65 298.03 86.36 296.19 86.31 294.35 85.66 296.03 85.65 298.03"/><polygon class="cls-19" points="87.26 293.9 88.06 291.83 88.05 289.88 87.2 292.08 87.26 293.9"/><polygon class="cls-19" points="89.61 285.89 89.63 287.77 88.88 289.73 88.86 287.82 89.61 285.89"/><polygon class="cls-19" points="84.75 298.39 84.75 300.35 84.1 302.01 84.1 300.04 84.75 298.39"/><path class="cls-18" d="M76.75,277.64v3l-13.06-.21s-3.83-.66-4.15-1.78,6.07-1.31,6.07-1.31S74.6,277.26,76.75,277.64Z"/><polygon class="cls-19" points="81.01 273.05 81.01 275.99 76.75 280.63 76.75 277.64 81.01 273.05"/><path class="cls-20" d="M55.21,279.68c-.41-1.11-1.06-2.1-1.45-3.21a6,6,0,0,1,0-3.85,29.18,29.18,0,0,1,3.55-7.19l-1.06.14a19.17,19.17,0,0,1,3.93,6.29,4.8,4.8,0,0,1-.27,3.73A6.77,6.77,0,0,1,58,278.38c-.77.6.32,1.71,1.08,1.08a8.17,8.17,0,0,0,2.2-3.2,6.29,6.29,0,0,0,.5-4.36,19.11,19.11,0,0,0-4.53-7.29.68.68,0,0,0-1.06.14,43.28,43.28,0,0,0-2.2,4,19.69,19.69,0,0,0-1.57,4.07,6.52,6.52,0,0,0,2.66,7,.12.12,0,0,0,.17-.13Z"/><path class="cls-21" d="M64.72,274.43a3.75,3.75,0,0,1,0-1.73,8.79,8.79,0,0,1,.42-1.68,6.83,6.83,0,0,1,8.38-4.27l-.55-1a13.86,13.86,0,0,1-2.28,5,8.78,8.78,0,0,1-4.06,2.74c-1,.31-.57,1.87.43,1.56a10.29,10.29,0,0,0,4.77-3.16,15,15,0,0,0,2.65-5.73.8.8,0,0,0-.55-1,8.28,8.28,0,0,0-10.23,5.7,7.16,7.16,0,0,0-.28,2.11,2.05,2.05,0,0,0,.7,1.84.41.41,0,0,0,.6-.46Z"/><path class="cls-22" d="M75.06,276a11,11,0,0,0,.62-1.24,4.45,4.45,0,0,1,.86-1.07,5.22,5.22,0,0,1,2.2-1.23,5.6,5.6,0,0,1,5.07,1.29v-1.15a14.25,14.25,0,0,1-3.36,3.08c-1,.64-2.72,1.78-3.91,1-.9-.56-1.73.87-.83,1.42,1.68,1,3.72.05,5.23-.84a14.26,14.26,0,0,0,4.14-3.71.82.82,0,0,0-.13-1,7.18,7.18,0,0,0-6.73-1.49,5.71,5.71,0,0,0-2.7,1.77c-.66.8-1.42,2.08-1,3.12.1.23.41.16.52,0Z"/><path class="cls-23" d="M74.16,282.76a8.54,8.54,0,0,1,1.35-1.12,8,8,0,0,1,1.46-.93,7.58,7.58,0,0,1,3.78-.71,11.18,11.18,0,0,1,4,1.09,8.85,8.85,0,0,0,3.9,1.17l-.56-1.34C87,281.94,86,283,84.88,284a13.66,13.66,0,0,1-3.52,2.52,5.72,5.72,0,0,1-4,.4c-1.38-.4-2.54-1.32-3.88-1.81-.91-.33-1.3,1-.62,1.45a16,16,0,0,0,2.18,1.21,9.75,9.75,0,0,0,2.08.81,7.29,7.29,0,0,0,4.51-.48c3-1.24,5.25-3.85,7.54-6a.79.79,0,0,0-.55-1.34c-1.56,0-2.92-.88-4.34-1.39a11.26,11.26,0,0,0-4.45-.7,7.74,7.74,0,0,0-3.77,1.18A5.46,5.46,0,0,0,74.74,281a4.64,4.64,0,0,0-.71,1.68.08.08,0,0,0,.13.08Z"/><path class="cls-24" d="M67.86,289.43a3.09,3.09,0,0,1,1.6-1,4.36,4.36,0,0,1,2.21-.06A9.73,9.73,0,0,1,75.31,290a10.42,10.42,0,0,1,4,6.15l.53-.95a12.3,12.3,0,0,1-7.35.8,8,8,0,0,1-2.78-1.28,6.7,6.7,0,0,1-1.09-1,7.68,7.68,0,0,1-.5-.63,2.14,2.14,0,0,0-.2-.32c-.1-.21-.31-.27-.63-.16-.74,0-.78-.1-.14-.36a.81.81,0,0,0-.21,1.58,1.09,1.09,0,0,0,1.3-1.51,1.1,1.1,0,0,0-1.91,0c-.47.82.38,1.71.88,2.29a8.57,8.57,0,0,0,1.93,1.62c3.37,2.11,7.53,1.82,11.11.43a.8.8,0,0,0,.54-1,12,12,0,0,0-5.2-7.36,8.29,8.29,0,0,0-4.75-1.5,4.19,4.19,0,0,0-2.14.7,2.92,2.92,0,0,0-.69.67,5.44,5.44,0,0,0-.42,1c-.09.17.17.32.25.15Z"/><path class="cls-25" d="M54.75,288.5a10.77,10.77,0,0,0,.91-.76,4.94,4.94,0,0,1,1.15-.63,6.62,6.62,0,0,1,3-.4,8.53,8.53,0,0,1,5.31,2.68l.15-1.19c-.84.55-1.52,1.29-2.32,1.89a6.84,6.84,0,0,1-2.71,1.21,4.54,4.54,0,0,1-4.58-1.85.82.82,0,0,0-1.42.83,5.83,5.83,0,0,0,5.66,2.6,8,8,0,0,0,3.28-1.12c1-.64,1.84-1.58,2.86-2.25a.77.77,0,0,0,.15-1.19,10,10,0,0,0-6.67-3.05,6.41,6.41,0,0,0-3.37.82c-.74.44-1.74,1.36-1.6,2.32,0,.1.16.14.24.09Z"/><path class="cls-26" d="M52.54,279.93c-.73-.88-2.28-.7-3.27-.49A7.5,7.5,0,0,0,46,281c-2.13,1.75-3,4.69-3.33,7.33-.07.55.53.8.95.73a9,9,0,0,1,2,.07,8.57,8.57,0,0,0,2-.09,8.43,8.43,0,0,0,3.43-1.42,10.58,10.58,0,0,0,4-5.92.76.76,0,0,0-1.47-.41A8.92,8.92,0,0,1,50,286.53a7,7,0,0,1-3,1.1c-1.25.13-2.47-.19-3.72,0l1,.73A9.68,9.68,0,0,1,47,282.12a6.3,6.3,0,0,1,2.62-1.31,12.61,12.61,0,0,0,2.84-.51.24.24,0,0,0,0-.37Z"/><path class="cls-27" d="M60.44,281.38a9.79,9.79,0,0,1,5.16-4.15,8.22,8.22,0,0,1,7,1.09l-.27-1a25.64,25.64,0,0,1-4.63,5.39,6.22,6.22,0,0,1-2.81,1.56,4.84,4.84,0,0,1-3.45-1c-.83-.54-1.63.82-.78,1.34a5.84,5.84,0,0,0,7.46-.36,24.5,24.5,0,0,0,5.48-6.22.74.74,0,0,0-.27-1c-4.57-3-11.64-1.39-13.38,4.13-.09.28.3.42.45.19Z"/><path class="cls-28" d="M170.3,266.38a12.79,12.79,0,0,1-1.52-2.57,5.12,5.12,0,0,1,.21-3.3c.91-2.35,3-3.95,5-5.39l-.95-.12a7.74,7.74,0,0,1,2.56,5.8,4.34,4.34,0,0,1-3.32,4c-1,.2-.6,1.81.45,1.6a5.94,5.94,0,0,0,4.48-5.24c.33-2.75-1.15-5.39-3.06-7.25a.79.79,0,0,0-.95-.13c-2.37,1.8-4.84,3.78-5.73,6.75a6.2,6.2,0,0,0,.1,4c.41,1,1.23,2.3,2.47,2.33a.3.3,0,0,0,.25-.45Z"/><path class="cls-22" d="M180.89,261.79a1.19,1.19,0,0,0,1-.1,7.74,7.74,0,0,0,1.21-.7,8.33,8.33,0,0,0,1.71-1.59,6,6,0,0,0,1.37-4.65,3.41,3.41,0,0,0-1.11-2.28c-.71-.48-1.76,0-2.5.23a8.87,8.87,0,0,0-3.87,2.7,7.85,7.85,0,0,0-1.34,2.48,5.12,5.12,0,0,0-.21,2.79,1,1,0,0,0,1.06.7,1,1,0,0,0,.84-1c0-.35,0-.72.05-1.07a5.18,5.18,0,0,1,.31-1.17,5.38,5.38,0,0,1,1.18-1.83,7.29,7.29,0,0,1,4-2.13h-.53c-.14,0-.27-.32-.17-.06l.13.23a3.22,3.22,0,0,1,.14.44,3.37,3.37,0,0,1,.09,1.05,4.57,4.57,0,0,1-.67,2,9.8,9.8,0,0,1-1.4,1.74l-1,1a1.36,1.36,0,0,0-.5,1,.2.2,0,0,0,.14.18Z"/><path class="cls-24" d="M180.4,272.37a6.22,6.22,0,0,0-.46-.56c-.17-.14-.38-.24-.56-.38a2.75,2.75,0,0,1-.95-1.13,6.09,6.09,0,0,1-.33-2.81,7.11,7.11,0,0,1,.72-2.59,7.53,7.53,0,0,1,.75-1.25c.2-.27.61-.91.93-1h-.41c-.23-.09.13.19.2.27a4.82,4.82,0,0,1,.35.44,7.9,7.9,0,0,1,.53.88,6.6,6.6,0,0,1,.66,2.13,6.44,6.44,0,0,1-1.11,4.34c-.6.89.85,1.73,1.45.84a7.87,7.87,0,0,0-.95-9.92,1.22,1.22,0,0,0-1.2-.44A2.64,2.64,0,0,0,179,262a8.86,8.86,0,0,0-1.43,2.1,9,9,0,0,0-.89,4.81,5.06,5.06,0,0,0,1,2.8,3.34,3.34,0,0,0,1.14.86,2.8,2.8,0,0,0,1.4.28.31.31,0,0,0,.21-.52Z"/><path class="cls-29" d="M185.76,263.47c.5-1,.85-2.07,1.44-3a7.71,7.71,0,0,1,2.38-2.41,7.58,7.58,0,0,1,7.1-.49l-.36-.89c-.69,2.58-1.37,5.4-3.22,7.43a6.89,6.89,0,0,1-2.93,2,5.52,5.52,0,0,1-3.71-.31c-.87-.31-1.31,1-.6,1.42a5.76,5.76,0,0,0,4.4.53,8.12,8.12,0,0,0,3.66-2.15c2.29-2.25,3.17-5.45,3.93-8.47a.8.8,0,0,0-.36-.9,9.08,9.08,0,0,0-8.58.55c-2,1.33-4.2,4.11-3.62,6.68a.26.26,0,0,0,.47.06Z"/><path class="cls-28" d="M195.61,266.85a2.07,2.07,0,0,0,1,0,4.28,4.28,0,0,1,1.12.17,6.21,6.21,0,0,1,2,1A3.7,3.7,0,0,1,201,269.7a3.25,3.25,0,0,1,.23,1.05,3.53,3.53,0,0,1,0,.48,1.5,1.5,0,0,1-.06.29c0,.05,0,.09,0,.14s0,.13,0,0l.28-.27,0,0h.41c-.7-.12-1.4-.31-2.09-.46a8.52,8.52,0,0,1-1.62-.47,2.19,2.19,0,0,1-1.09-1,6.78,6.78,0,0,1-.43-1.72.82.82,0,0,0-1-.57.84.84,0,0,0-.56,1,4.47,4.47,0,0,0,2,3.54,7.39,7.39,0,0,0,1.93.68l2.21.46a1.05,1.05,0,0,0,1.25-.41,2.9,2.9,0,0,0,.31-1.16,4.41,4.41,0,0,0-.29-2,5.57,5.57,0,0,0-2.83-2.92,5.28,5.28,0,0,0-2.34-.54c-.55,0-1.71.22-1.75.94a.15.15,0,0,0,.07.12Z"/><path class="cls-22" d="M183.68,273.38a6.4,6.4,0,0,0,1.36-.84,5.72,5.72,0,0,1,1.68-.73,6.79,6.79,0,0,1,3.84.12,9.13,9.13,0,0,1,3.36,2.12,6.13,6.13,0,0,0,3.2,2.07l-.36-1.39a18,18,0,0,1-2.86,2,7.67,7.67,0,0,1-3.69.72,8.65,8.65,0,0,1-3.36-.44c-1.1-.49-1.51-1.59-2.28-2.42-.53-.57-1.66,0-1.36.79a6.09,6.09,0,0,0,2.59,3,9,9,0,0,0,4.17.74,9.94,9.94,0,0,0,4.41-.77,16.84,16.84,0,0,0,3.55-2.44c.63-.52,0-1.34-.59-1.42a3.27,3.27,0,0,1-1.65-1c-.54-.49-1.05-1-1.62-1.43a9.42,9.42,0,0,0-4.08-1.85,6.88,6.88,0,0,0-4,.47c-1,.43-2.43,1.36-2.45,2.56a.14.14,0,0,0,.17.12Z"/><path class="cls-25" d="M176,271.23c-.68.11-1.32.37-2,.45a4,4,0,0,1-2.05-.29,4.12,4.12,0,0,1-2.38-2.75l-.8.81a7.26,7.26,0,0,0,2.13-.17,5.17,5.17,0,0,1,1.71.08,5.42,5.42,0,0,1,1.59.62,5.31,5.31,0,0,1,.66.48c.22.19.36.41.56.61a.63.63,0,0,0,1-.27c.26-.79-.64-1.39-1.19-1.77a6.89,6.89,0,0,0-1.87-.86,6.42,6.42,0,0,0-3.09-.12,3.7,3.7,0,0,1-1.19.14.66.66,0,0,0-.8.8,5.11,5.11,0,0,0,3.24,3.52c1.41.47,3.79.36,4.55-1.15a.09.09,0,0,0-.1-.13Z"/><path class="cls-24" d="M167.46,271.83a4.78,4.78,0,0,0-1.39.48,5.58,5.58,0,0,1-1.62.29,5,5,0,0,1-2.92-.86,5.07,5.07,0,0,1-1.8-2.17c-.47-1.11-.34-2.32-.66-3.46l-.86.86a31.38,31.38,0,0,1,5.62,1,5.24,5.24,0,0,1,2,1.14,6,6,0,0,1,1.12,1.85.7.7,0,0,0,1.3-.35,3.65,3.65,0,0,0-1.18-2.37,6.38,6.38,0,0,0-2.27-1.48,25.87,25.87,0,0,0-6.37-1.18.7.7,0,0,0-.67.89,16.23,16.23,0,0,1,.34,2.2,6.28,6.28,0,0,0,.6,1.77,6.16,6.16,0,0,0,2.41,2.47,5.82,5.82,0,0,0,5.24.13c.48-.22,1.1-.54,1.25-1.09a.1.1,0,0,0-.1-.13Z"/><path class="cls-21" d="M165.34,280.51c.47-.38.19-1.11.06-1.59a6.28,6.28,0,0,0-.92-2,8.9,8.9,0,0,0-3.35-2.95,9.45,9.45,0,0,0-9.3.58.86.86,0,0,0-.17,1.32A36.92,36.92,0,0,1,154,279a12.19,12.19,0,0,0,2.21,2.83,7.76,7.76,0,0,0,6.46,1.12.85.85,0,0,0-.23-1.67c-2,.12-4.06.45-5.56-1.14a23.82,23.82,0,0,1-1.89-2.67c-.66-.95-1.38-1.87-2.12-2.77l-.17,1.32a7.88,7.88,0,0,1,8.11-.37,8.35,8.35,0,0,1,2.85,2.63c.17.25,1.34,2.5,1.7,2.21Z"/><path class="cls-24" d="M168.1,289.17a4.44,4.44,0,0,0-1.74-3,7.26,7.26,0,0,0-3.51-1.53,7.89,7.89,0,0,0-4,.45,13,13,0,0,0-3.69,2.51.85.85,0,0,0,.17,1.33c2.62,1.33,4.53,3.73,7.43,4.58,2.38.7,5.34.07,6.5-2.33.49-1-1-1.88-1.49-.87-1,2-3.53,2-5.37,1.26-2.31-1-4-3-6.21-4.1l.17,1.32a11.22,11.22,0,0,1,2.95-2.07,6.58,6.58,0,0,1,3.34-.45,7.11,7.11,0,0,1,2.85,1c.46.29.85.64,1.28,1s.86.6,1.26,1a0,0,0,0,0,.08-.05Z"/><path class="cls-28" d="M169.18,285.71a8.23,8.23,0,0,1-.18-4.09,6.84,6.84,0,0,1,2.17-3.38c2.27-2,5.4-2.57,8.33-2.71l-.81-1.06c-.57,2.46-.54,5.07-1.51,7.43-.79,1.93-2.51,3.69-4.75,3.37-1-.14-1.47,1.31-.43,1.55,2.61.63,5.14-1.2,6.31-3.42,1.39-2.62,1.38-5.64,2-8.48a.85.85,0,0,0-.81-1.06c-3.48.21-7.11,1-9.68,3.53a8.18,8.18,0,0,0-2.33,4.19,5.22,5.22,0,0,0,1,4.54.43.43,0,0,0,.71-.41Z"/><path class="cls-28" d="M170.3,293.87c.63-.66.95-1.52,1.58-2.19a6.46,6.46,0,0,1,2.47-1.61c2.34-.84,4.87-.29,7.11.58l-.49-1.2a69,69,0,0,1-4.16,6.05,4.76,4.76,0,0,1-1,1.15,2.64,2.64,0,0,1-1.53.39,8.4,8.4,0,0,1-3.33-.84c-.91-.39-1.44,1.06-.65,1.54a7.54,7.54,0,0,0,3.89,1,4.28,4.28,0,0,0,3.44-1.52,54.23,54.23,0,0,0,4.8-6.94.83.83,0,0,0-.49-1.2c-2.65-1-5.69-1.48-8.36-.29a6.74,6.74,0,0,0-2.66,2.13c-.6.8-1.19,2-.69,2.94a.07.07,0,0,0,.11,0Z"/><path class="cls-21" d="M182.55,293.69c1.81-1.9,4.66-1.08,6.36.49,1.91,1.78,2.77,4.44,4,6.7l.95-1.24c-1.4-.31-2.6.29-4,.48a7.28,7.28,0,0,1-3-.29,7.66,7.66,0,0,1-3.71-2.55c-.34-.44-.57-1-.9-1.41a.79.79,0,0,0-1.43.6,6.4,6.4,0,0,0,2,2.95,10,10,0,0,0,3,1.85,8.92,8.92,0,0,0,3.43.59,8.78,8.78,0,0,0,1.77-.25,5.34,5.34,0,0,1,2.36-.34.85.85,0,0,0,.95-1.24c-1.48-2.71-2.57-5.78-5.22-7.62-2.1-1.45-6-2-7.11.95-.12.32.34.56.56.33Z"/><path class="cls-24" d="M191.42,291.06a2.26,2.26,0,0,1,2-.92,4.35,4.35,0,0,1,2.23,1,5.51,5.51,0,0,1,2,4l.87-.66c-2.56-.4-5.3-1-7.12-3-.66-.72-1.72.35-1.07,1.06,2,2.22,5,2.85,7.82,3.27a.69.69,0,0,0,.87-.66,6.81,6.81,0,0,0-2.88-5.3,4.31,4.31,0,0,0-3.26-.84,3.08,3.08,0,0,0-1.26.61,1.6,1.6,0,0,0-.59,1.23c0,.2.28.34.41.17Z"/><path class="cls-20" d="M185.27,290c-.36-.38-.66-.82-1-1.2s-.68-.64-1-1a5.22,5.22,0,0,1-1.38-2.71,5.36,5.36,0,0,1,.94-3.1l1.62-3.18-1,.26c1.89,1.43,3.87,3,4.86,5.25a5.43,5.43,0,0,1,.47,3.05,5.08,5.08,0,0,1-1.42,2.58.77.77,0,0,0,.93,1.21,4.71,4.71,0,0,0,2-3.1,6.79,6.79,0,0,0-.32-3.91c-1.09-2.81-3.46-4.61-5.79-6.35a.75.75,0,0,0-1,.26l-1.93,3.81a5.12,5.12,0,0,0,.94,6.58,9,9,0,0,0,1.37,1.09,8.56,8.56,0,0,0,1.63.66.13.13,0,0,0,.12-.22Z"/><path class="cls-25" d="M192.07,282.07a5.13,5.13,0,0,1,5.74-1.94c2.36.69,4.06,2.64,5.5,4.52l.28-1.07c-1.85.8-3.1,2.68-5.11,3.13-2.26.5-4.27-.81-6-2.1-.76-.58-1.75.7-1,1.32a9.11,9.11,0,0,0,6.94,2.41,6.69,6.69,0,0,0,3.11-1.41,15.78,15.78,0,0,1,2.86-2,.79.79,0,0,0,.16-1.23c-1.79-2.27-3.95-4.56-6.93-5.07-2.52-.43-5.18.72-5.65,3.4a.06.06,0,0,0,.11,0Z"/><path class="cls-30" d="M199.44,289s0-.06,0-.06a0,0,0,1,0,0,.06Z"/><path class="cls-28" d="M199.12,290.18a3.1,3.1,0,0,1,1.83-1.09,3.32,3.32,0,0,1,2.37.64,10,10,0,0,1,1.93,1.91l2,2.44.71-1.21a3,3,0,0,0-2.37.55,3,3,0,0,1-2.07.59,4.43,4.43,0,0,1-2.07-1,10.38,10.38,0,0,1-.93-.81c-.13-.12-.71-.59-.69-.71a.81.81,0,0,0-.54-1,.79.79,0,0,0-1,.55c-.3,1.1.68,1.89,1.42,2.53a8,8,0,0,0,2.53,1.58,4.31,4.31,0,0,0,2.79.1,6.26,6.26,0,0,0,1.31-.68,1.56,1.56,0,0,1,1.19-.38.73.73,0,0,0,.71-1.2c-.78-.93-1.54-1.87-2.32-2.79a7.86,7.86,0,0,0-2.65-2.14,3.65,3.65,0,0,0-3.08-.1,2.09,2.09,0,0,0-1.35,2.05c0,.11.15.2.23.1Z"/></g></g></svg>