<svg xmlns="http://www.w3.org/2000/svg" xmlns:xlink="http://www.w3.org/1999/xlink" viewBox="0 0 254.52 175.17"><defs><style>.cls-1{fill:#fdf6e3;}.cls-10,.cls-14,.cls-16,.cls-18,.cls-2,.cls-21,.cls-5{fill:none;stroke-miterlimit:10;}.cls-2{stroke:#e5be82;stroke-width:1.3px;stroke-dasharray:6.5;}.cls-14,.cls-16,.cls-18,.cls-2{stroke-linecap:round;}.cls-3{fill:#ed1c24;}.cls-4{fill:#f8cdb2;}.cls-5{stroke:#dd8760;}.cls-6{fill:#fff;}.cls-7{fill:url(#linear-gradient);}.cls-8{fill:#e59a36;fill-rule:evenodd;}.cls-9{fill:#8e6327;}.cls-10{stroke:#ef4a51;}.cls-10,.cls-14,.cls-16,.cls-18{stroke-width:3px;}.cls-11{fill:#ef4a51;}.cls-12{fill:#754d25;}.cls-13{fill:url(#linear-gradient-2);}.cls-14{stroke:url(#linear-gradient-3);}.cls-15{fill:url(#linear-gradient-4);}.cls-16{stroke:url(#linear-gradient-5);}.cls-17{fill:url(#linear-gradient-6);}.cls-18{stroke:url(#linear-gradient-7);}.cls-19{fill:#231f20;}.cls-20{fill:url(#linear-gradient-8);}.cls-21{stroke:#fff;}</style><linearGradient id="linear-gradient" x1="38.65" y1="118.9" x2="57.73" y2="118.9" gradientUnits="userSpaceOnUse"><stop offset="0" stop-color="#fff"/><stop offset="1" stop-color="#42c3f1"/></linearGradient><linearGradient id="linear-gradient-2" x1="98.14" y1="137.22" x2="98.14" y2="111.6" gradientUnits="userSpaceOnUse"><stop offset="0" stop-color="#fff"/><stop offset="1" stop-color="#55276c"/></linearGradient><linearGradient id="linear-gradient-3" x1="100.62" y1="155.17" x2="100.62" y2="133.33" xlink:href="#linear-gradient-2"/><linearGradient id="linear-gradient-4" x1="135.75" y1="137.22" x2="135.75" y2="111.6" gradientUnits="userSpaceOnUse"><stop offset="0" stop-color="#fff"/><stop offset="0.98" stop-color="#60ac45"/></linearGradient><linearGradient id="linear-gradient-5" x1="124.44" y1="144.25" x2="152.01" y2="144.25" gradientUnits="userSpaceOnUse"><stop offset="0.02" stop-color="#60ac45"/><stop offset="1" stop-color="#fff"/></linearGradient><linearGradient id="linear-gradient-6" x1="176.69" y1="137.45" x2="176.69" y2="108.86" gradientUnits="userSpaceOnUse"><stop offset="0" stop-color="#fff"/><stop offset="1" stop-color="#f2a725"/></linearGradient><linearGradient id="linear-gradient-7" x1="179.17" y1="155.17" x2="179.17" y2="133.33" xlink:href="#linear-gradient-6"/><linearGradient id="linear-gradient-8" x1="72.51" y1="150.1" x2="72.51" y2="107.89" xlink:href="#linear-gradient"/></defs><g id="Layer_2" data-name="Layer 2"><g id="Layer_1-2" data-name="Layer 1"><path class="cls-1" d="M32.85,164.72c-5.33,0-28.46-2.59-31-30.62-.93-10-2.59-71.57,1.29-88.82s4.31-39.23,47.43-44c15.43-1.7,63.38.43,83.64.43S201.44,3,229.46,12.52c9.49,5.6,26.73,15.09,24.15,58.2-.52,8.65.86,45.71-2.59,66-2.59,12.94-10.35,34.49-59.93,36.65-9.48.41-76.32,2.16-94.86.43S43.2,164.72,32.85,164.72Z"/><path class="cls-2" d="M32.85,164.72c-5.33,0-28.46-2.59-31-30.62-.93-10-2.59-71.57,1.29-88.82s4.31-39.23,47.43-44c15.43-1.7,63.38.43,83.64.43S201.44,3,229.46,12.52c9.49,5.6,26.73,15.09,24.15,58.2-.52,8.65.86,45.71-2.59,66-2.59,12.94-10.35,34.49-59.93,36.65-9.48.41-76.32,2.16-94.86.43S43.2,164.72,32.85,164.72Z"/><path class="cls-3" d="M16.13,35.56V26.82a1.2,1.2,0,0,1,.31-.87,1.16,1.16,0,0,1,.89-.32l2.73,0a4.45,4.45,0,0,1,2.84.85,3.26,3.26,0,0,1,1,2.68,2.53,2.53,0,0,1-.84,2,3.91,3.91,0,0,1-2,.92l2.64,2.82a1.37,1.37,0,0,1,.24.35.87.87,0,0,1,.07.35,1.17,1.17,0,0,1-.33.81,1,1,0,0,1-.84.37l-.19,0-.19,0a1,1,0,0,1-.28-.12l-.24-.21-3.45-4.2h0v3.38a1.19,1.19,0,0,1-.33.9,1.2,1.2,0,0,1-.83.31,1.23,1.23,0,0,1-.84-.31,1.18,1.18,0,0,1-.33-.89Zm2.33-5.06h1.6a1.4,1.4,0,0,0,1-.34,1.33,1.33,0,0,0,.41-1,1.27,1.27,0,0,0-.41-1,1.54,1.54,0,0,0-1-.35l-1.6,0Z"/><path class="cls-3" d="M32.36,29.76v5.79a2.65,2.65,0,0,1,0,.27,1.42,1.42,0,0,1-.26.65.91.91,0,0,1-.8.3.94.94,0,0,1-.71-.25,1.57,1.57,0,0,1-.36-.68,3,3,0,0,1-1,.76,2.54,2.54,0,0,1-1.17.26,3.36,3.36,0,0,1-2.63-1.21,4.48,4.48,0,0,1-1.07-3.09,4.55,4.55,0,0,1,1.08-3.09,3.36,3.36,0,0,1,2.62-1.25,2.86,2.86,0,0,1,1.19.25,2.24,2.24,0,0,1,.94.79,1,1,0,0,1,.36-.68,1.05,1.05,0,0,1,.71-.27.91.91,0,0,1,.8.31,1.46,1.46,0,0,1,.26.66,2.46,2.46,0,0,1,0,.26v.22Zm-5.74,2.8v.14a.77.77,0,0,0,0,.15,2.67,2.67,0,0,0,.49,1.35,1.41,1.41,0,0,0,1.26.63,1.38,1.38,0,0,0,1.23-.63,2.75,2.75,0,0,0,.48-1.35.77.77,0,0,0,0-.15v-.13a.92.92,0,0,0,0-.16,1.09,1.09,0,0,1,0-.18,2.85,2.85,0,0,0-.5-1.34,1.37,1.37,0,0,0-1.21-.6,1.44,1.44,0,0,0-1.25.6,2.85,2.85,0,0,0-.5,1.34c0,.06,0,.12,0,.18a.92.92,0,0,0,0,.16Z"/><path class="cls-3" d="M33.63,29.54a1.24,1.24,0,0,1,.32-.88,1,1,0,0,1,.8-.35,1.1,1.1,0,0,1,.74.24,1.43,1.43,0,0,1,.38.7,1.85,1.85,0,0,1,.84-.74,3,3,0,0,1,1.13-.29H38a3,3,0,0,1,2.64,1.32,5.37,5.37,0,0,1,1,2.9v.22a4.66,4.66,0,0,1-1,2.89,3.22,3.22,0,0,1-2.69,1.31h-.28l-.3-.05a3.84,3.84,0,0,1-.77-.25,2.78,2.78,0,0,1-.7-.45v2.72a1.33,1.33,0,0,1-.31.9,1.12,1.12,0,0,1-1.61,0,1.29,1.29,0,0,1-.32-.9Zm2.24,2.94a1.27,1.27,0,0,0,0,.2v.19a2.89,2.89,0,0,0,.5,1.34,1.4,1.4,0,0,0,1.24.62,1.39,1.39,0,0,0,1.19-.59A2.66,2.66,0,0,0,39.33,33l0-.19v-.39l0-.2a2.73,2.73,0,0,0-.52-1.3,1.36,1.36,0,0,0-1.19-.59,1.42,1.42,0,0,0-1.29.66,2.76,2.76,0,0,0-.46,1.45v.09Z"/><path class="cls-3" d="M43.64,25a1.24,1.24,0,0,1,.87.38,1.14,1.14,0,0,1,.39.86,1.29,1.29,0,0,1-.37.91,1.21,1.21,0,0,1-1.77,0,1.23,1.23,0,0,1-.38-.9,1.12,1.12,0,0,1,.38-.85,1.22,1.22,0,0,1,.88-.38ZM42.52,35.52v-6a1.19,1.19,0,0,1,.32-.88,1.1,1.1,0,0,1,1.61,0,1.31,1.31,0,0,1,.31.9v6a1.3,1.3,0,0,1-.31.91,1.12,1.12,0,0,1-1.61,0,1.2,1.2,0,0,1-.32-.89Z"/><path class="cls-3" d="M53.64,26v9.57a1.26,1.26,0,0,1-.31.91,1,1,0,0,1-.8.34,1.06,1.06,0,0,1-.74-.24,1.29,1.29,0,0,1-.38-.68,1.73,1.73,0,0,1-.69.65,3,3,0,0,1-.91.33l-.23,0h-.22a3.2,3.2,0,0,1-2.69-1.3,4.63,4.63,0,0,1-1-2.89v-.22a5.3,5.3,0,0,1,1-2.9,3,3,0,0,1,2.64-1.31,3.41,3.41,0,0,1,1.14.19,2.9,2.9,0,0,1,1,.58V26a1.23,1.23,0,0,1,.31-.88,1.07,1.07,0,0,1,.81-.35,1,1,0,0,1,.8.35,1.25,1.25,0,0,1,.31.9Zm-2.23,6.53V32.4A2.86,2.86,0,0,0,51,31a1.45,1.45,0,0,0-1.3-.66,1.37,1.37,0,0,0-1.19.59,2.84,2.84,0,0,0-.52,1.3,1.36,1.36,0,0,0,0,.2,1.21,1.21,0,0,0,0,.19,1.41,1.41,0,0,0,0,.2,1.23,1.23,0,0,0,0,.19,2.76,2.76,0,0,0,.52,1.28,1.52,1.52,0,0,0,2.43,0,2.89,2.89,0,0,0,.5-1.34,1.15,1.15,0,0,1,0-.19c0-.06,0-.12,0-.19Z"/><path class="cls-3" d="M66.73,29.54V36a3.73,3.73,0,0,1-1.2,3,4.62,4.62,0,0,1-3.11,1c-.17,0-.4,0-.69-.05a8.11,8.11,0,0,1-.91-.18,5,5,0,0,1-1.32-.54,1,1,0,0,1-.6-.91.62.62,0,0,1,0-.13l0-.13a1.38,1.38,0,0,1,.31-.46,1,1,0,0,1,.47-.26h.08a1.63,1.63,0,0,1,.55.11l.63.25.74.24a3.38,3.38,0,0,0,.88.1A2.06,2.06,0,0,0,64,37.65a1.64,1.64,0,0,0,.53-1.3V35.8h0a2.13,2.13,0,0,1-.91.8,3.27,3.27,0,0,1-1.34.26,2.91,2.91,0,0,1-2.61-1.31,5.37,5.37,0,0,1-.84-3,5,5,0,0,1,1-3,3.18,3.18,0,0,1,2.69-1.33h.23l.22,0a3.1,3.1,0,0,1,.92.34,1.73,1.73,0,0,1,.68.66,1.36,1.36,0,0,1,.38-.7,1.08,1.08,0,0,1,.74-.24,1.05,1.05,0,0,1,.81.35,1.26,1.26,0,0,1,.31.9ZM64.49,32.6a1,1,0,0,0,0-.17v-.18A3,3,0,0,0,64,30.9a1.41,1.41,0,0,0-1.24-.61,1.38,1.38,0,0,0-1.19.58A2.7,2.7,0,0,0,61,32.15l0,.2v.19a2.91,2.91,0,0,0,.43,1.59,1.46,1.46,0,0,0,1.31.7A1.41,1.41,0,0,0,64,34.16a2.76,2.76,0,0,0,.46-1.45V32.6Z"/><path class="cls-3" d="M68,35.52v-6.1a1,1,0,0,1,.34-.79,1.26,1.26,0,0,1,.73-.32h.08a1.45,1.45,0,0,1,.77.2.8.8,0,0,1,.32.74l0,0a2.31,2.31,0,0,1,.68-.68,1.58,1.58,0,0,1,.89-.24,1.12,1.12,0,0,1,.75.3,1.16,1.16,0,0,1,.34.9.69.69,0,0,1-.23.57,2.29,2.29,0,0,1-.56.3l-.27.11-.28.11h0a5.32,5.32,0,0,0-.9.53,1.09,1.09,0,0,0-.41,1v3.42a1.26,1.26,0,0,1-.31.91,1.12,1.12,0,0,1-1.61,0,1.24,1.24,0,0,1-.32-.89Z"/><path class="cls-3" d="M76.58,28.22a3.65,3.65,0,0,1,2.89,1.33,4.66,4.66,0,0,1,0,6,4,4,0,0,1-5.81,0,4.46,4.46,0,0,1-1.11-3,4.54,4.54,0,0,1,1.12-3,3.61,3.61,0,0,1,2.89-1.31Zm-1.25,2.67a2.85,2.85,0,0,0-.5,1.34c0,.06,0,.12,0,.18a.92.92,0,0,0,0,.16v.13a.77.77,0,0,0,0,.15,2.67,2.67,0,0,0,.49,1.35,1.41,1.41,0,0,0,1.26.63,1.44,1.44,0,0,0,1.27-.63,2.8,2.8,0,0,0,.49-1.36.71.71,0,0,0,0-.14v-.3a1.09,1.09,0,0,1,0-.18,2.76,2.76,0,0,0-.51-1.34,1.41,1.41,0,0,0-1.25-.61A1.48,1.48,0,0,0,75.33,30.89Z"/><path class="cls-3" d="M83.14,35.63l-1.9-5.37a4.39,4.39,0,0,1-.14-.45,2,2,0,0,1-.07-.39.36.36,0,0,1,0-.1v-.1a.8.8,0,0,1,.32-.64,1.19,1.19,0,0,1,.8-.27,1,1,0,0,1,.68.24,1.25,1.25,0,0,1,.38.65l1.29,4.26h0l1.3-4.18a1.49,1.49,0,0,1,.39-.7,1,1,0,0,1,.75-.27,1,1,0,0,1,.75.27,1.56,1.56,0,0,1,.38.71l1.31,4.17h0l1.29-4.28a1.19,1.19,0,0,1,.37-.63,1,1,0,0,1,.68-.24,1.15,1.15,0,0,1,.81.29,1,1,0,0,1,.31.8,1.07,1.07,0,0,1-.07.39l-.14.45-1.92,5.39a2,2,0,0,1-.49.82,1.17,1.17,0,0,1-.86.32,1.21,1.21,0,0,1-.82-.27,1.76,1.76,0,0,1-.47-.76L87,32.12h0l-1.15,3.61a1.65,1.65,0,0,1-.47.77,1.19,1.19,0,0,1-.82.27,1.17,1.17,0,0,1-.86-.32,2.08,2.08,0,0,1-.49-.8Z"/><path class="cls-3" d="M94.17,35.52V30.36h-.49a.88.88,0,0,1-.71-.24,1,1,0,0,1-.26-.72.94.94,0,0,1,1-1h.49V27.07a1.28,1.28,0,0,1,.32-.89,1.12,1.12,0,0,1,1.61,0,1.29,1.29,0,0,1,.31.91v1.32h.64a1.33,1.33,0,0,1,.75.23.84.84,0,0,1,.32.75.86.86,0,0,1-.32.75,1.25,1.25,0,0,1-.75.22h-.64v5.16a1.26,1.26,0,0,1-.31.91,1.12,1.12,0,0,1-1.61,0,1.24,1.24,0,0,1-.32-.89Z"/><path class="cls-3" d="M98.23,35.52V26a1.24,1.24,0,0,1,.32-.88,1.1,1.1,0,0,1,1.61,0,1.29,1.29,0,0,1,.31.9v3h0a1.78,1.78,0,0,1,.61-.47,2.86,2.86,0,0,1,.77-.23l.33-.05h.32a3.12,3.12,0,0,1,2.19.79,2.86,2.86,0,0,1,.87,2.22v4.27a1.26,1.26,0,0,1-.31.91,1,1,0,0,1-.8.34,1,1,0,0,1-.8-.34,1.2,1.2,0,0,1-.32-.89V31.62a1.48,1.48,0,0,0-.43-1.14,1.52,1.52,0,0,0-1-.38,1.32,1.32,0,0,0-1.06.44,1.65,1.65,0,0,0-.37,1.1v3.88a1.3,1.3,0,0,1-.31.91,1.12,1.12,0,0,1-1.61,0,1.24,1.24,0,0,1-.32-.89Z"/><path class="cls-3" d="M112.12,25a1.26,1.26,0,0,1,.88.38,1.16,1.16,0,0,1,.38.86,1.25,1.25,0,0,1-.37.91,1.19,1.19,0,0,1-.89.38,1.21,1.21,0,0,1-.88-.39,1.27,1.27,0,0,1-.38-.9,1.16,1.16,0,0,1,.38-.85,1.24,1.24,0,0,1,.88-.38ZM111,35.52v-6a1.24,1.24,0,0,1,.32-.88,1.1,1.1,0,0,1,1.61,0,1.26,1.26,0,0,1,.31.9v6a1.26,1.26,0,0,1-.31.91,1.12,1.12,0,0,1-1.61,0,1.24,1.24,0,0,1-.32-.89Z"/><path class="cls-3" d="M114.48,35.52v-6a1.24,1.24,0,0,1,.32-.88,1,1,0,0,1,.8-.35,1.08,1.08,0,0,1,.7.22,1,1,0,0,1,.33.61,2.13,2.13,0,0,1,.85-.69,3.27,3.27,0,0,1,1.31-.23A3.12,3.12,0,0,1,121,29a2.88,2.88,0,0,1,.87,2.23v4.28a1.26,1.26,0,0,1-.31.91,1.12,1.12,0,0,1-1.61,0,1.24,1.24,0,0,1-.32-.89V31.62a1.45,1.45,0,0,0-.43-1.14,1.49,1.49,0,0,0-1-.38,1.34,1.34,0,0,0-1.06.44,1.7,1.7,0,0,0-.37,1.1v3.88a1.26,1.26,0,0,1-.31.91,1.12,1.12,0,0,1-1.61,0,1.24,1.24,0,0,1-.32-.89Z"/><path class="cls-3" d="M127.29,35.52V26a1.19,1.19,0,0,1,.32-.88,1.1,1.1,0,0,1,1.61,0,1.29,1.29,0,0,1,.31.9v3a3.21,3.21,0,0,1,1-.57,3.35,3.35,0,0,1,1.13-.19,3,3,0,0,1,2.64,1.31,5.37,5.37,0,0,1,1,2.9v.22a4.68,4.68,0,0,1-1,2.89,3.21,3.21,0,0,1-2.69,1.3h-.23l-.22,0a3.07,3.07,0,0,1-.92-.33,1.64,1.64,0,0,1-.68-.65,1.37,1.37,0,0,1-.38.68,1.1,1.1,0,0,1-.74.24,1,1,0,0,1-.8-.34,1.2,1.2,0,0,1-.32-.89Zm2.24-3v.2a1.15,1.15,0,0,1,0,.19,2.89,2.89,0,0,0,.5,1.34,1.4,1.4,0,0,0,1.24.62,1.39,1.39,0,0,0,1.19-.59A2.66,2.66,0,0,0,133,33a1.23,1.23,0,0,0,0-.19,1.41,1.41,0,0,0,0-.2,1.21,1.21,0,0,0,0-.19,1.36,1.36,0,0,0,0-.2,2.73,2.73,0,0,0-.52-1.3,1.36,1.36,0,0,0-1.19-.59A1.45,1.45,0,0,0,130,31a2.85,2.85,0,0,0-.45,1.45v.09Z"/><path class="cls-3" d="M143.85,29.76v5.79a2.53,2.53,0,0,1,0,.27,1.42,1.42,0,0,1-.26.65.91.91,0,0,1-.8.3.94.94,0,0,1-.71-.25,1.57,1.57,0,0,1-.36-.68,3,3,0,0,1-1,.76,2.57,2.57,0,0,1-1.17.26A3.35,3.35,0,0,1,137,35.65a4.48,4.48,0,0,1-1.07-3.09A4.55,4.55,0,0,1,137,29.47a3.35,3.35,0,0,1,2.62-1.25,2.86,2.86,0,0,1,1.19.25,2.24,2.24,0,0,1,.94.79,1,1,0,0,1,.36-.68,1,1,0,0,1,.71-.27.91.91,0,0,1,.8.31,1.46,1.46,0,0,1,.26.66,2.35,2.35,0,0,1,0,.26v.22Zm-5.73,2.8v.14a.77.77,0,0,0,0,.15,2.67,2.67,0,0,0,.49,1.35,1.41,1.41,0,0,0,1.26.63,1.38,1.38,0,0,0,1.23-.63,2.75,2.75,0,0,0,.48-1.35.77.77,0,0,0,0-.15v-.13s0-.1,0-.16a1.09,1.09,0,0,1,0-.18,2.85,2.85,0,0,0-.5-1.34,1.38,1.38,0,0,0-1.21-.6,1.44,1.44,0,0,0-1.25.6,2.85,2.85,0,0,0-.5,1.34c0,.06,0,.12,0,.18a.92.92,0,0,0,0,.16Z"/><path class="cls-3" d="M145.13,35.52V26a1.19,1.19,0,0,1,.32-.88,1.1,1.1,0,0,1,1.61,0,1.29,1.29,0,0,1,.31.9v3a3.21,3.21,0,0,1,1-.57,3.35,3.35,0,0,1,1.13-.19,3,3,0,0,1,2.64,1.31,5.37,5.37,0,0,1,1,2.9v.22a4.68,4.68,0,0,1-1,2.89,3.21,3.21,0,0,1-2.69,1.3h-.23l-.22,0a3.07,3.07,0,0,1-.92-.33,1.64,1.64,0,0,1-.68-.65,1.37,1.37,0,0,1-.38.68,1.1,1.1,0,0,1-.74.24,1,1,0,0,1-.8-.34,1.2,1.2,0,0,1-.32-.89Zm2.24-3v.2a1.15,1.15,0,0,1,0,.19,2.89,2.89,0,0,0,.5,1.34,1.4,1.4,0,0,0,1.24.62,1.39,1.39,0,0,0,1.19-.59,2.66,2.66,0,0,0,.52-1.28,1.23,1.23,0,0,0,0-.19,1.41,1.41,0,0,0,0-.2,1.21,1.21,0,0,0,0-.19,1.36,1.36,0,0,0,0-.2,2.73,2.73,0,0,0-.52-1.3,1.36,1.36,0,0,0-1.19-.59,1.45,1.45,0,0,0-1.3.66,2.85,2.85,0,0,0-.45,1.45v.09Z"/><path class="cls-3" d="M155.14,25a1.24,1.24,0,0,1,.87.38,1.13,1.13,0,0,1,.38.86,1.28,1.28,0,0,1-.36.91,1.19,1.19,0,0,1-.89.38,1.18,1.18,0,0,1-.88-.39,1.23,1.23,0,0,1-.38-.9,1.12,1.12,0,0,1,.38-.85,1.2,1.2,0,0,1,.88-.38ZM154,35.52v-6a1.19,1.19,0,0,1,.32-.88,1,1,0,0,1,.8-.35,1,1,0,0,1,.8.35,1.26,1.26,0,0,1,.31.9v6a1.26,1.26,0,0,1-.31.91,1,1,0,0,1-.8.34,1,1,0,0,1-.8-.34,1.2,1.2,0,0,1-.32-.89Z"/><path class="cls-3" d="M159.3,33.29a1.67,1.67,0,0,0,.73,1.23,2.46,2.46,0,0,0,1.39.4,2.26,2.26,0,0,0,.79-.14,5.35,5.35,0,0,0,.68-.31l.58-.31A.93.93,0,0,1,164,34a.86.86,0,0,1,.64.3,1,1,0,0,1,.27.66c0,.42-.3.8-.91,1.15a5.55,5.55,0,0,1-2,.68l-.37,0h-.35a4,4,0,0,1-3-1.22A4.29,4.29,0,0,1,157,32.57a4.49,4.49,0,0,1,1.12-3,3.83,3.83,0,0,1,5.5-.28A4.49,4.49,0,0,1,165,31.54l.06.38c0,.12,0,.25,0,.37a1.08,1.08,0,0,1-.23.75,1,1,0,0,1-.75.25Zm3.51-1.5a2.09,2.09,0,0,0-.55-1.2A1.59,1.59,0,0,0,161,30.1a1.63,1.63,0,0,0-1.22.49,2,2,0,0,0-.56,1.2Z"/><path class="cls-3" d="M171.47,29.84a1,1,0,0,1-.26.7.81.81,0,0,1-.66.31,1.24,1.24,0,0,1-.39-.1l-.49-.23-.31-.13a2.08,2.08,0,0,0-.32-.12l-.24-.05-.25,0a.94.94,0,0,0-.53.15.52.52,0,0,0-.23.48.49.49,0,0,0,.24.4,4.52,4.52,0,0,0,.63.33l.52.19c.18.07.36.14.55.23a5,5,0,0,1,1.33.81,1.8,1.8,0,0,1,.61,1.47,2.33,2.33,0,0,1-.87,1.86,3.41,3.41,0,0,1-2.31.75l-.49,0a4.17,4.17,0,0,1-.51-.09,4.54,4.54,0,0,1-1.47-.59,1.2,1.2,0,0,1-.66-1,1.76,1.76,0,0,1,0-.19.88.88,0,0,1,.09-.2,1.27,1.27,0,0,1,.33-.42.79.79,0,0,1,.53-.18,1.48,1.48,0,0,1,.49.08,2.74,2.74,0,0,1,.42.21l.09,0a.2.2,0,0,0,.08,0,4,4,0,0,0,.55.27,1.76,1.76,0,0,0,.68.12,1.08,1.08,0,0,0,.7-.17.59.59,0,0,0,.19-.47.49.49,0,0,0-.24-.4,4,4,0,0,0-.62-.31l-.52-.21-.57-.21a5.11,5.11,0,0,1-1.33-.83,1.8,1.8,0,0,1-.61-1.47A2.36,2.36,0,0,1,166.5,29a3.25,3.25,0,0,1,2.17-.72,3.39,3.39,0,0,1,.45,0,2.67,2.67,0,0,1,.48.08,3.67,3.67,0,0,1,1.29.53,1.15,1.15,0,0,1,.58,1Z"/><path class="cls-3" d="M184.27,26v9.57a1.26,1.26,0,0,1-.31.91,1,1,0,0,1-.8.34,1.06,1.06,0,0,1-.74-.24,1.29,1.29,0,0,1-.38-.68,1.73,1.73,0,0,1-.69.65,3,3,0,0,1-.91.33l-.23,0H180a3.2,3.2,0,0,1-2.69-1.3,4.63,4.63,0,0,1-1-2.89v-.22a5.3,5.3,0,0,1,1-2.9,3,3,0,0,1,2.64-1.31,3.41,3.41,0,0,1,1.14.19,2.9,2.9,0,0,1,1,.58V26a1.23,1.23,0,0,1,.31-.88,1.07,1.07,0,0,1,.81-.35,1,1,0,0,1,.8.35,1.25,1.25,0,0,1,.31.9ZM182,32.48V32.4a2.86,2.86,0,0,0-.46-1.45,1.45,1.45,0,0,0-1.3-.66,1.37,1.37,0,0,0-1.19.59,2.84,2.84,0,0,0-.52,1.3,1.36,1.36,0,0,0,0,.2,1.21,1.21,0,0,0,0,.19,1.41,1.41,0,0,0,0,.2,1.23,1.23,0,0,0,0,.19,2.76,2.76,0,0,0,.52,1.28,1.52,1.52,0,0,0,2.43,0,2.89,2.89,0,0,0,.5-1.34,1.15,1.15,0,0,1,0-.19c0-.06,0-.12,0-.19Z"/><path class="cls-3" d="M187.35,33.29a1.67,1.67,0,0,0,.73,1.23,2.45,2.45,0,0,0,1.38.4,2.28,2.28,0,0,0,.8-.14,5.35,5.35,0,0,0,.68-.31l.58-.31A.93.93,0,0,1,192,34a.82.82,0,0,1,.63.3.93.93,0,0,1,.28.66c0,.42-.3.8-.91,1.15a5.55,5.55,0,0,1-2,.68l-.37,0h-.35a4,4,0,0,1-3-1.22,4.29,4.29,0,0,1-1.15-3.07,4.49,4.49,0,0,1,1.12-3,3.83,3.83,0,0,1,5.5-.28A4.49,4.49,0,0,1,193,31.54l.06.38c0,.12,0,.25,0,.37a1.08,1.08,0,0,1-.23.75,1,1,0,0,1-.75.25Zm3.51-1.5a2.09,2.09,0,0,0-.55-1.2,1.59,1.59,0,0,0-1.23-.49,1.63,1.63,0,0,0-1.22.49,2,2,0,0,0-.56,1.2Z"/><path class="cls-3" d="M193.89,35.52v-6a1.24,1.24,0,0,1,.32-.88,1,1,0,0,1,.8-.35,1.08,1.08,0,0,1,.7.22,1,1,0,0,1,.33.62,2.82,2.82,0,0,1,.93-.69,2.75,2.75,0,0,1,1.15-.24,2.91,2.91,0,0,1,1.29.29,2.87,2.87,0,0,1,1,.85,3.66,3.66,0,0,1,.66-.58,3.28,3.28,0,0,1,.77-.39,4.21,4.21,0,0,1,.48-.12,2.3,2.3,0,0,1,.45-.05A3.16,3.16,0,0,1,205,29a2.86,2.86,0,0,1,.85,2.25v4.28a1.3,1.3,0,0,1-.31.91,1.12,1.12,0,0,1-1.61,0,1.24,1.24,0,0,1-.32-.89V31.62a1.68,1.68,0,0,0-.35-1.09,1.15,1.15,0,0,0-1-.43,1.19,1.19,0,0,0-1,.43,1.69,1.69,0,0,0-.34,1.11v3.88a1.26,1.26,0,0,1-.32.91,1,1,0,0,1-.8.34,1,1,0,0,1-.8-.34,1.2,1.2,0,0,1-.32-.89V31.62a1.68,1.68,0,0,0-.35-1.09,1.33,1.33,0,0,0-2,0,1.81,1.81,0,0,0-.32,1.11v3.88a1.26,1.26,0,0,1-.31.91,1.12,1.12,0,0,1-1.61,0,1.24,1.24,0,0,1-.32-.89Z"/><path class="cls-3" d="M214.78,29.76v5.79a2.65,2.65,0,0,1,0,.27,1.4,1.4,0,0,1-.25.65.92.92,0,0,1-.8.3,1,1,0,0,1-.72-.25,1.82,1.82,0,0,1-.36-.68,3,3,0,0,1-1,.76,2.5,2.5,0,0,1-1.16.26,3.37,3.37,0,0,1-2.64-1.21,4.48,4.48,0,0,1-1.06-3.09,4.55,4.55,0,0,1,1.08-3.09,3.35,3.35,0,0,1,2.62-1.25,2.81,2.81,0,0,1,1.18.25,2.18,2.18,0,0,1,.94.79,1.06,1.06,0,0,1,.36-.68,1.08,1.08,0,0,1,.72-.27.92.92,0,0,1,.8.31,1.44,1.44,0,0,1,.25.66,2.46,2.46,0,0,1,0,.26v.22ZM209,32.56v.14a.77.77,0,0,0,0,.15,2.67,2.67,0,0,0,.49,1.35,1.44,1.44,0,0,0,1.27.63A1.38,1.38,0,0,0,212,34.2a2.87,2.87,0,0,0,.49-1.35.76.76,0,0,0,0-.15v-.13a.92.92,0,0,0,0-.16v-.18a3,3,0,0,0-.5-1.34,1.39,1.39,0,0,0-1.21-.6,1.43,1.43,0,0,0-1.25.6,2.76,2.76,0,0,0-.51,1.34,1.09,1.09,0,0,1,0,.18c0,.06,0,.11,0,.16Z"/><path class="cls-3" d="M216.05,35.52v-6a1.24,1.24,0,0,1,.32-.88,1,1,0,0,1,.8-.35,1.08,1.08,0,0,1,.7.22,1,1,0,0,1,.33.61,2.17,2.17,0,0,1,.84-.69,3.36,3.36,0,0,1,1.32-.23,3.12,3.12,0,0,1,2.19.79,2.88,2.88,0,0,1,.87,2.23v4.28a1.26,1.26,0,0,1-.31.91,1.12,1.12,0,0,1-1.61,0,1.24,1.24,0,0,1-.32-.89V31.62a1.45,1.45,0,0,0-.43-1.14,1.49,1.49,0,0,0-1-.38,1.32,1.32,0,0,0-1.06.44,1.7,1.7,0,0,0-.37,1.1v3.88a1.26,1.26,0,0,1-.31.91,1.12,1.12,0,0,1-1.61,0,1.24,1.24,0,0,1-.32-.89Z"/><path class="cls-3" d="M232.34,26v9.57a1.26,1.26,0,0,1-.31.91,1,1,0,0,1-.81.34,1.08,1.08,0,0,1-.74-.24,1.29,1.29,0,0,1-.38-.68,1.64,1.64,0,0,1-.68.65,3.07,3.07,0,0,1-.92.33l-.22,0h-.23a3.21,3.21,0,0,1-2.69-1.3,4.68,4.68,0,0,1-1-2.89v-.22a5.37,5.37,0,0,1,1-2.9A3,3,0,0,1,228,28.24a3.43,3.43,0,0,1,1.15.19,3,3,0,0,1,1,.58V26a1.24,1.24,0,0,1,.32-.88,1.1,1.1,0,0,1,1.61,0,1.25,1.25,0,0,1,.31.9Zm-2.24,6.53V32.4a2.76,2.76,0,0,0-.46-1.45,1.42,1.42,0,0,0-1.29-.66,1.36,1.36,0,0,0-1.19.59,2.73,2.73,0,0,0-.52,1.3l0,.2v.39l0,.19a2.66,2.66,0,0,0,.52,1.28,1.39,1.39,0,0,0,1.19.59,1.42,1.42,0,0,0,1.24-.62,3,3,0,0,0,.5-1.34v-.19a1.15,1.15,0,0,0,0-.19Z"/><path class="cls-3" d="M239.24,29.84a1,1,0,0,1-.26.7.81.81,0,0,1-.66.31,1.24,1.24,0,0,1-.39-.1l-.49-.23-.31-.13-.31-.12-.25-.05-.25,0a.94.94,0,0,0-.53.15.52.52,0,0,0-.23.48.49.49,0,0,0,.24.4,4.52,4.52,0,0,0,.63.33l.52.19c.18.07.36.14.55.23a5.1,5.1,0,0,1,1.34.81,1.82,1.82,0,0,1,.6,1.47,2.33,2.33,0,0,1-.87,1.86,3.41,3.41,0,0,1-2.31.75l-.49,0a4.17,4.17,0,0,1-.51-.09,4.54,4.54,0,0,1-1.47-.59,1.2,1.2,0,0,1-.66-1,.81.81,0,0,1,0-.19.56.56,0,0,1,.08-.2,1.27,1.27,0,0,1,.33-.42.79.79,0,0,1,.53-.18,1.48,1.48,0,0,1,.49.08,2.74,2.74,0,0,1,.42.21l.09,0,.08,0a4,4,0,0,0,.55.27,1.76,1.76,0,0,0,.68.12,1.08,1.08,0,0,0,.7-.17.59.59,0,0,0,.19-.47.49.49,0,0,0-.24-.4,4,4,0,0,0-.62-.31l-.52-.21-.57-.21a5.11,5.11,0,0,1-1.33-.83,1.8,1.8,0,0,1-.61-1.47,2.36,2.36,0,0,1,.86-1.89,3.25,3.25,0,0,1,2.17-.72,3.39,3.39,0,0,1,.45,0,2.67,2.67,0,0,1,.48.08,3.67,3.67,0,0,1,1.29.53,1.15,1.15,0,0,1,.58,1Z"/><path class="cls-3" d="M23.71,45.91V51.7a2.35,2.35,0,0,1,0,.26,1.46,1.46,0,0,1-.26.66.91.91,0,0,1-.8.29.94.94,0,0,1-.71-.24,1.61,1.61,0,0,1-.36-.69,3,3,0,0,1-1,.77,2.68,2.68,0,0,1-1.17.26,3.35,3.35,0,0,1-2.63-1.21,4.48,4.48,0,0,1-1.07-3.09,4.57,4.57,0,0,1,1.08-3.1,3.35,3.35,0,0,1,2.62-1.24,2.86,2.86,0,0,1,1.19.25,2.24,2.24,0,0,1,.94.79,1,1,0,0,1,.36-.68,1,1,0,0,1,.71-.27.91.91,0,0,1,.8.3,1.54,1.54,0,0,1,.26.67,2.35,2.35,0,0,1,0,.26v.23ZM18,48.7v.15A.77.77,0,0,0,18,49a2.7,2.7,0,0,0,.49,1.35,1.43,1.43,0,0,0,1.26.62A1.4,1.4,0,0,0,21,50.35,2.79,2.79,0,0,0,21.46,49a.77.77,0,0,0,0-.15v-.13s0-.11,0-.16a1.09,1.09,0,0,1,0-.18A2.81,2.81,0,0,0,21,47a1.39,1.39,0,0,0-1.21-.61A1.45,1.45,0,0,0,18.5,47a2.81,2.81,0,0,0-.5,1.34c0,.06,0,.12,0,.18a.86.86,0,0,0,0,.16Z"/><path class="cls-3" d="M29.15,51.67V42.1a1.28,1.28,0,0,1,.32-.89,1.12,1.12,0,0,1,1.61,0,1.28,1.28,0,0,1,.31.9v3h0a1.8,1.8,0,0,1,.62-.46,2.88,2.88,0,0,1,.77-.24l.33,0,.32,0a3.16,3.16,0,0,1,2.19.79,2.86,2.86,0,0,1,.87,2.23v4.27a1.27,1.27,0,0,1-.31.91,1.15,1.15,0,0,1-1.61,0,1.24,1.24,0,0,1-.32-.89V47.77a1.42,1.42,0,0,0-.43-1.14,1.44,1.44,0,0,0-1-.38,1.34,1.34,0,0,0-1.06.44,1.7,1.7,0,0,0-.37,1.1v3.88a1.27,1.27,0,0,1-.31.91,1.15,1.15,0,0,1-1.61,0,1.24,1.24,0,0,1-.32-.89Z"/><path class="cls-3" d="M38.88,41.1a1.33,1.33,0,0,1,.88.38,1.2,1.2,0,0,1,.38.87,1.26,1.26,0,0,1-.37.91,1.19,1.19,0,0,1-.89.38,1.21,1.21,0,0,1-.88-.39,1.27,1.27,0,0,1-.38-.9,1.19,1.19,0,0,1,.38-.86,1.23,1.23,0,0,1,.88-.37ZM37.76,51.67v-6a1.28,1.28,0,0,1,.32-.89,1.12,1.12,0,0,1,1.61,0,1.29,1.29,0,0,1,.31.91v6a1.27,1.27,0,0,1-.31.91,1.15,1.15,0,0,1-1.61,0,1.25,1.25,0,0,1-.32-.9Z"/><path class="cls-3" d="M48.89,45.69v6.48a3.76,3.76,0,0,1-1.2,3,4.66,4.66,0,0,1-3.1,1,5.33,5.33,0,0,1-.7-.06A6.29,6.29,0,0,1,43,56a5.37,5.37,0,0,1-1.32-.54,1,1,0,0,1-.6-.91.57.57,0,0,1,0-.13l0-.13a1.38,1.38,0,0,1,.31-.46.93.93,0,0,1,.47-.26H42a1.63,1.63,0,0,1,.55.11l.63.25c.23.08.47.16.74.23a3.36,3.36,0,0,0,.88.11,2,2,0,0,0,1.36-.46,1.63,1.63,0,0,0,.53-1.3V52h0a2.11,2.11,0,0,1-.91.79,3.11,3.11,0,0,1-1.34.27,2.91,2.91,0,0,1-2.61-1.31,5.37,5.37,0,0,1-.84-3,4.94,4.94,0,0,1,1-3,3.18,3.18,0,0,1,2.69-1.33h.23l.22,0a3.07,3.07,0,0,1,.92.33,1.73,1.73,0,0,1,.68.66A1.29,1.29,0,0,1,47,44.7a1.08,1.08,0,0,1,.74-.24,1,1,0,0,1,.81.34,1.29,1.29,0,0,1,.31.91Zm-2.24,3.06a1,1,0,0,0,0-.17v-.19a3,3,0,0,0-.5-1.34,1.42,1.42,0,0,0-1.24-.62,1.39,1.39,0,0,0-1.19.59,2.62,2.62,0,0,0-.52,1.28l0,.19v.2a2.91,2.91,0,0,0,.43,1.59A1.45,1.45,0,0,0,44.9,51a1.42,1.42,0,0,0,1.29-.66,2.76,2.76,0,0,0,.46-1.45v-.1Z"/><path class="cls-3" d="M50.16,51.67V42.1a1.28,1.28,0,0,1,.32-.89,1.12,1.12,0,0,1,1.61,0,1.28,1.28,0,0,1,.31.9v3h0a1.8,1.8,0,0,1,.62-.46,2.88,2.88,0,0,1,.77-.24l.33,0,.32,0a3.16,3.16,0,0,1,2.19.79,2.86,2.86,0,0,1,.87,2.23v4.27a1.27,1.27,0,0,1-.31.91,1.15,1.15,0,0,1-1.61,0,1.24,1.24,0,0,1-.32-.89V47.77a1.42,1.42,0,0,0-.43-1.14,1.44,1.44,0,0,0-1-.38,1.34,1.34,0,0,0-1.06.44,1.7,1.7,0,0,0-.37,1.1v3.88a1.27,1.27,0,0,1-.31.91,1.15,1.15,0,0,1-1.61,0,1.24,1.24,0,0,1-.32-.89Z"/><path class="cls-3" d="M60.61,49.43a1.68,1.68,0,0,0,.73,1.24,2.48,2.48,0,0,0,1.38.4,2.07,2.07,0,0,0,.8-.15,4.69,4.69,0,0,0,.68-.31l.57-.31a1.11,1.11,0,0,1,.48-.14.84.84,0,0,1,.64.31.93.93,0,0,1,.28.66c0,.41-.31.79-.92,1.15a5.49,5.49,0,0,1-2,.68l-.36,0-.35,0a4,4,0,0,1-3-1.22,4.31,4.31,0,0,1-1.16-3.07,4.54,4.54,0,0,1,1.12-3A3.83,3.83,0,0,1,65,45.41a4.65,4.65,0,0,1,1.33,2.27c0,.13,0,.25,0,.38a2.53,2.53,0,0,1,0,.38,1.06,1.06,0,0,1-.24.75,1,1,0,0,1-.74.24Zm3.51-1.49a2.09,2.09,0,0,0-.55-1.2,1.79,1.79,0,0,0-2.46,0,2,2,0,0,0-.55,1.2Z"/><path class="cls-3" d="M67.12,51.67v-6.1a1,1,0,0,1,.33-.8,1.25,1.25,0,0,1,.74-.31h.08a1.47,1.47,0,0,1,.77.19.81.81,0,0,1,.32.74h0a2.46,2.46,0,0,1,.67-.69,1.69,1.69,0,0,1,.9-.23A1.1,1.1,0,0,1,72,45.66a.66.66,0,0,1-.23.57,2,2,0,0,1-.56.3l-.26.1-.28.12h0a7,7,0,0,0-.89.53,1.09,1.09,0,0,0-.41,1v3.43a1.28,1.28,0,0,1-.32.91,1,1,0,0,1-.8.33,1.06,1.06,0,0,1-.8-.33,1.21,1.21,0,0,1-.32-.9Z"/><path class="cls-3" d="M76.49,51.67v-6a1.23,1.23,0,0,1,.32-.89,1,1,0,0,1,.8-.34,1,1,0,0,1,.7.22.93.93,0,0,1,.32.6,2.11,2.11,0,0,1,.85-.68,3.57,3.57,0,0,1,3.5.56,2.86,2.86,0,0,1,.87,2.23v4.28a1.27,1.27,0,0,1-.31.91,1,1,0,0,1-.8.33,1.09,1.09,0,0,1-.81-.33,1.24,1.24,0,0,1-.31-.89V47.77a1.46,1.46,0,0,0-.43-1.14,1.48,1.48,0,0,0-1-.38,1.32,1.32,0,0,0-1.06.44,1.65,1.65,0,0,0-.37,1.1v3.88a1.32,1.32,0,0,1-.31.91,1.15,1.15,0,0,1-1.61,0,1.21,1.21,0,0,1-.32-.9Z"/><path class="cls-3" d="M86.93,49.43a1.71,1.71,0,0,0,.73,1.24,2.53,2.53,0,0,0,1.38.4,2.07,2.07,0,0,0,.8-.15,4.25,4.25,0,0,0,.68-.31l.58-.31a1,1,0,0,1,.48-.14.8.8,0,0,1,.63.31.93.93,0,0,1,.28.66c0,.41-.3.79-.91,1.15a5.55,5.55,0,0,1-2,.68l-.37,0-.35,0a4,4,0,0,1-3-1.22,4.3,4.3,0,0,1-1.15-3.07,4.49,4.49,0,0,1,1.12-3,3.82,3.82,0,0,1,5.5-.29,4.57,4.57,0,0,1,1.33,2.27l.06.38c0,.13,0,.26,0,.38a1.1,1.1,0,0,1-.23.75,1,1,0,0,1-.75.24Zm3.51-1.49a2,2,0,0,0-.55-1.2,1.78,1.78,0,0,0-2.45,0,2,2,0,0,0-.56,1.2Z"/><path class="cls-3" d="M95.28,49.43A1.68,1.68,0,0,0,96,50.67a2.48,2.48,0,0,0,1.38.4,2.07,2.07,0,0,0,.8-.15,4.69,4.69,0,0,0,.68-.31l.57-.31a1.11,1.11,0,0,1,.48-.14.84.84,0,0,1,.64.31.93.93,0,0,1,.28.66c0,.41-.31.79-.92,1.15a5.49,5.49,0,0,1-2,.68l-.36,0-.35,0a4,4,0,0,1-3-1.22A4.31,4.31,0,0,1,93,48.72a4.49,4.49,0,0,1,1.12-3,3.83,3.83,0,0,1,5.51-.29A4.65,4.65,0,0,1,101,47.68c0,.13,0,.25,0,.38a2.53,2.53,0,0,1,0,.38,1.06,1.06,0,0,1-.24.75,1,1,0,0,1-.74.24Zm3.51-1.49a2.09,2.09,0,0,0-.55-1.2,1.79,1.79,0,0,0-2.46,0,2,2,0,0,0-.55,1.2Z"/><path class="cls-3" d="M109.46,42.1v9.57a1.27,1.27,0,0,1-.31.91,1,1,0,0,1-.8.33,1.08,1.08,0,0,1-.74-.24,1.26,1.26,0,0,1-.38-.67,1.8,1.8,0,0,1-.69.65,3.31,3.31,0,0,1-.91.33l-.23,0h-.22a3.21,3.21,0,0,1-2.69-1.31,4.61,4.61,0,0,1-1-2.89v-.22a5.3,5.3,0,0,1,1-2.89,3,3,0,0,1,2.64-1.32,3.42,3.42,0,0,1,1.14.2,2.9,2.9,0,0,1,1,.58V42.1a1.27,1.27,0,0,1,.31-.89,1.06,1.06,0,0,1,.81-.34,1,1,0,0,1,.8.34,1.28,1.28,0,0,1,.31.9Zm-2.23,6.53v-.08a2.89,2.89,0,0,0-.46-1.46,1.45,1.45,0,0,0-1.3-.66,1.4,1.4,0,0,0-1.19.59,2.87,2.87,0,0,0-.52,1.31,1.23,1.23,0,0,0,0,.19,1.41,1.41,0,0,0,0,.2,1.21,1.21,0,0,0,0,.19,1.36,1.36,0,0,0,0,.2,2.81,2.81,0,0,0,.52,1.28,1.54,1.54,0,0,0,2.43,0,2.88,2.88,0,0,0,.5-1.35,1.09,1.09,0,0,1,0-.18c0-.07,0-.13,0-.19Z"/><path class="cls-3" d="M115.42,51.67V46.51h-.5a.89.89,0,0,1-.71-.25,1,1,0,0,1-.25-.71,1,1,0,0,1,.27-.7.9.9,0,0,1,.69-.28l.5,0V43.4a2.55,2.55,0,0,1,.66-1.88,2.31,2.31,0,0,1,1.68-.65,2.62,2.62,0,0,1,1.07.21.79.79,0,0,1,.49.8,1,1,0,0,1-.23.72.94.94,0,0,1-.69.23,1.19,1.19,0,0,0-.51.1q-.24.1-.24.72v.9h.7a1.56,1.56,0,0,1,.82.23,1.05,1.05,0,0,1,0,1.51,1.39,1.39,0,0,1-.82.22h-.7v5.16a1.27,1.27,0,0,1-.31.91,1.06,1.06,0,0,1-.81.33,1.08,1.08,0,0,1-.8-.33,1.24,1.24,0,0,1-.31-.89Z"/><path class="cls-3" d="M123.19,44.37a3.66,3.66,0,0,1,2.89,1.33,4.53,4.53,0,0,1,1.11,3,4.42,4.42,0,0,1-1.1,3,3.94,3.94,0,0,1-5.81,0,4.42,4.42,0,0,1-1.1-3,4.53,4.53,0,0,1,1.11-3,3.63,3.63,0,0,1,2.9-1.32ZM121.93,47a2.81,2.81,0,0,0-.5,1.34,1.09,1.09,0,0,1,0,.18s0,.11,0,.16v.13a.77.77,0,0,0,0,.15,2.7,2.7,0,0,0,.49,1.35,1.45,1.45,0,0,0,1.27.62,1.43,1.43,0,0,0,1.26-.62,2.74,2.74,0,0,0,.49-1.36.77.77,0,0,0,0-.15v-.13c0-.05,0-.11,0-.16a1.09,1.09,0,0,1,0-.18,2.81,2.81,0,0,0-.5-1.34,1.44,1.44,0,0,0-1.25-.61A1.5,1.5,0,0,0,121.93,47Z"/><path class="cls-3" d="M128.11,51.67v-6.1a1,1,0,0,1,.34-.8,1.25,1.25,0,0,1,.73-.31h.08a1.44,1.44,0,0,1,.77.19.81.81,0,0,1,.32.74h0a2.48,2.48,0,0,1,.68-.69,1.66,1.66,0,0,1,.89-.23,1.1,1.1,0,0,1,1.09,1.2.67.67,0,0,1-.24.57,2.06,2.06,0,0,1-.55.3l-.27.1-.28.12h0a7.11,7.11,0,0,0-.9.53,1.11,1.11,0,0,0-.41,1v3.43a1.27,1.27,0,0,1-.31.91,1.15,1.15,0,0,1-1.61,0,1.25,1.25,0,0,1-.32-.9Z"/><path class="cls-3" d="M137.48,51.67v-6a1.28,1.28,0,0,1,.32-.89,1.16,1.16,0,0,1,1.5-.12.9.9,0,0,1,.33.6,2.08,2.08,0,0,1,.84-.68,3.19,3.19,0,0,1,1.32-.23,3.12,3.12,0,0,1,2.19.79,2.86,2.86,0,0,1,.87,2.23v4.28a1.27,1.27,0,0,1-.31.91,1.15,1.15,0,0,1-1.61,0,1.24,1.24,0,0,1-.32-.89V47.77a1.42,1.42,0,0,0-.43-1.14,1.46,1.46,0,0,0-1-.38,1.32,1.32,0,0,0-1.06.44,1.65,1.65,0,0,0-.37,1.1v3.88a1.27,1.27,0,0,1-.31.91,1.15,1.15,0,0,1-1.61,0,1.25,1.25,0,0,1-.32-.9Z"/><path class="cls-3" d="M146.12,49.74V45.69a1.28,1.28,0,0,1,.32-.89,1.12,1.12,0,0,1,1.61,0,1.29,1.29,0,0,1,.31.91v4a1.34,1.34,0,0,0,.44,1.09,1.52,1.52,0,0,0,2,0,1.32,1.32,0,0,0,.44-1.07v-4a1.28,1.28,0,0,1,.32-.89,1.12,1.12,0,0,1,1.61,0,1.34,1.34,0,0,1,.31.91v4a3.1,3.1,0,0,1-1,2.39,4.66,4.66,0,0,1-5.45,0,3.07,3.07,0,0,1-1-2.38Z"/><path class="cls-3" d="M155.31,51.67V46.51h-.5a.89.89,0,0,1-.71-.25,1,1,0,0,1-.25-.71,1,1,0,0,1,.27-.7.9.9,0,0,1,.69-.28l.5,0V43.22a1.22,1.22,0,0,1,.32-.89,1,1,0,0,1,.8-.34,1,1,0,0,1,.8.34,1.28,1.28,0,0,1,.31.9v1.32h.64a1.48,1.48,0,0,1,.76.23,1.07,1.07,0,0,1,0,1.51,1.31,1.31,0,0,1-.76.22h-.64v5.16a1.27,1.27,0,0,1-.31.91,1,1,0,0,1-.8.33,1,1,0,0,1-.8-.33,1.2,1.2,0,0,1-.32-.89Z"/><path class="cls-3" d="M159.33,51.67v-6.1a1,1,0,0,1,.34-.8,1.22,1.22,0,0,1,.73-.31h.08a1.44,1.44,0,0,1,.77.19.81.81,0,0,1,.32.74h0a2.48,2.48,0,0,1,.68-.69,1.66,1.66,0,0,1,.89-.23,1.1,1.1,0,0,1,1.09,1.2.67.67,0,0,1-.24.57,2.06,2.06,0,0,1-.55.3l-.27.1-.28.12h0a7.11,7.11,0,0,0-.9.53,1.11,1.11,0,0,0-.41,1v3.43a1.27,1.27,0,0,1-.31.91,1.15,1.15,0,0,1-1.61,0,1.25,1.25,0,0,1-.32-.9Z"/><path class="cls-3" d="M165.63,41.1a1.28,1.28,0,0,1,.87.38,1.16,1.16,0,0,1,.38.87,1.29,1.29,0,0,1-.36.91,1.19,1.19,0,0,1-.89.38,1.18,1.18,0,0,1-.88-.39,1.23,1.23,0,0,1-.38-.9,1.16,1.16,0,0,1,.38-.86,1.19,1.19,0,0,1,.88-.37Zm-1.12,10.57v-6a1.23,1.23,0,0,1,.32-.89,1,1,0,0,1,.8-.34,1,1,0,0,1,.8.34,1.29,1.29,0,0,1,.31.91v6a1.27,1.27,0,0,1-.31.91,1,1,0,0,1-.8.33,1,1,0,0,1-.8-.33,1.21,1.21,0,0,1-.32-.9Z"/><path class="cls-3" d="M169.79,49.43a1.71,1.71,0,0,0,.73,1.24,2.51,2.51,0,0,0,1.38.4,2.07,2.07,0,0,0,.8-.15,4.25,4.25,0,0,0,.68-.31l.58-.31a1,1,0,0,1,.48-.14.82.82,0,0,1,.63.31.93.93,0,0,1,.28.66c0,.41-.3.79-.91,1.15a5.55,5.55,0,0,1-2,.68l-.37,0-.35,0a4,4,0,0,1-3-1.22,4.3,4.3,0,0,1-1.15-3.07,4.49,4.49,0,0,1,1.12-3,3.82,3.82,0,0,1,5.5-.29,4.57,4.57,0,0,1,1.33,2.27l.06.38c0,.13,0,.26,0,.38a1.1,1.1,0,0,1-.23.75,1,1,0,0,1-.75.24Zm3.51-1.49a2,2,0,0,0-.55-1.2,1.78,1.78,0,0,0-2.45,0,2,2,0,0,0-.56,1.2Z"/><path class="cls-3" d="M176.33,51.67v-6a1.28,1.28,0,0,1,.32-.89,1,1,0,0,1,.8-.34,1,1,0,0,1,.7.22.9.9,0,0,1,.33.6,2.08,2.08,0,0,1,.84-.68,3.19,3.19,0,0,1,1.32-.23,3.12,3.12,0,0,1,2.19.79,2.86,2.86,0,0,1,.87,2.23v4.28a1.32,1.32,0,0,1-.31.91,1.15,1.15,0,0,1-1.61,0,1.24,1.24,0,0,1-.32-.89V47.77a1.42,1.42,0,0,0-.43-1.14,1.46,1.46,0,0,0-1-.38,1.32,1.32,0,0,0-1.06.44,1.65,1.65,0,0,0-.37,1.1v3.88a1.27,1.27,0,0,1-.31.91,1.15,1.15,0,0,1-1.61,0,1.25,1.25,0,0,1-.32-.9Z"/><path class="cls-3" d="M185.52,51.67V46.51H185a.89.89,0,0,1-.71-.25,1,1,0,0,1-.25-.71,1,1,0,0,1,.27-.7.9.9,0,0,1,.69-.28l.5,0V43.22a1.22,1.22,0,0,1,.32-.89,1,1,0,0,1,.8-.34,1,1,0,0,1,.8.34,1.28,1.28,0,0,1,.31.9v1.32h.64a1.48,1.48,0,0,1,.76.23,1.07,1.07,0,0,1,0,1.51,1.31,1.31,0,0,1-.76.22h-.64v5.16a1.27,1.27,0,0,1-.31.91,1,1,0,0,1-.8.33,1,1,0,0,1-.8-.33,1.2,1.2,0,0,1-.32-.89Z"/><path class="cls-3" d="M195.2,46a1.07,1.07,0,0,1-.26.71.83.83,0,0,1-.66.3,1,1,0,0,1-.39-.1l-.49-.22-.31-.14-.32-.11-.24-.06-.25,0a.94.94,0,0,0-.53.15.53.53,0,0,0,0,.88,3.68,3.68,0,0,0,.63.32l.52.2c.18.06.36.14.55.22a5.36,5.36,0,0,1,1.33.82,1.77,1.77,0,0,1,.61,1.47,2.36,2.36,0,0,1-.87,1.86,3.42,3.42,0,0,1-2.32.75l-.49,0a4.42,4.42,0,0,1-.5-.1,4.32,4.32,0,0,1-1.47-.59,1.19,1.19,0,0,1-.66-1,1.54,1.54,0,0,1,0-.19.72.72,0,0,1,.09-.2,1.1,1.1,0,0,1,.33-.42.79.79,0,0,1,.52-.19,1.28,1.28,0,0,1,.5.09,2.74,2.74,0,0,1,.42.21l.09,0,.08,0a4,4,0,0,0,.55.27,1.76,1.76,0,0,0,.68.12,1.08,1.08,0,0,0,.7-.17.62.62,0,0,0,.19-.47A.46.46,0,0,0,193,50a3.76,3.76,0,0,0-.61-.32l-.52-.2-.57-.22a5.08,5.08,0,0,1-1.33-.82,1.81,1.81,0,0,1-.61-1.48,2.35,2.35,0,0,1,.86-1.88,3.18,3.18,0,0,1,2.17-.73l.45,0a2.67,2.67,0,0,1,.48.08,3.65,3.65,0,0,1,1.29.52,1.16,1.16,0,0,1,.58,1Z"/><path class="cls-3" d="M196.34,46.22a.61.61,0,0,1-.43-.11.59.59,0,0,1-.19-.29s0,0,0-.06a.13.13,0,0,1,0-.06.56.56,0,0,1,0-.2l.06-.15s0,0,0,0l0,0,2-3.69a.91.91,0,0,1,.92-.51,1,1,0,0,1,1,1.15V45H200a.68.68,0,0,1,.45.17.6.6,0,0,1,0,.86.67.67,0,0,1-.45.16h-.16V47a.79.79,0,0,1-.15.54.66.66,0,0,1-.5.17.67.67,0,0,1-.5-.17.78.78,0,0,1-.15-.53v-.78Zm2.18-3.72h0L197.28,45h1.24Z"/><path class="cls-3" d="M202.56,47.19l-.76,1.36a.61.61,0,0,1-.12.16l-.16.1-.13,0h-.11a.58.58,0,0,1-.42-.18.54.54,0,0,1-.19-.42.39.39,0,0,1,0-.18l.06-.18.76-1.36a.53.53,0,0,1,.12-.14l.16-.1.13,0h.11a.64.64,0,0,1,.44.18.59.59,0,0,1,.19.42.32.32,0,0,1,0,.16l-.06.16a0,0,0,0,1,0,0v0Z"/><path class="cls-3" d="M204,46.74l2.27-4.29H204a.65.65,0,0,1-.51-.18.73.73,0,0,1-.16-.41v0h0a.68.68,0,0,1,.15-.43.62.62,0,0,1,.52-.2h3.28a.68.68,0,0,1,.39.14.76.76,0,0,1,.21.28.65.65,0,0,1,0,.13.49.49,0,0,1,0,.12.74.74,0,0,1-.06.28c0,.09-.09.2-.15.31L205.47,47a2.67,2.67,0,0,0-.12.24,1.62,1.62,0,0,0-.1.18.86.86,0,0,1-.22.21.73.73,0,0,1-.32.06.77.77,0,0,1-.47-.14.7.7,0,0,1-.24-.29.76.76,0,0,1,0-.11s0-.06,0-.09,0,0,0-.06V47l0-.09a.37.37,0,0,0,0-.11Z"/><path class="cls-4" d="M62.31,87.29a14.09,14.09,0,0,0-28.12,0c-1.08,0-2.32.5-1.93,3.39.52,3.77,2.45,4.8,3.71,4.43a14.09,14.09,0,0,0,24.63-.13c1.23.65,3.45-.21,4-4.3C65.06,87.4,63.45,87.11,62.31,87.29Z"/><path class="cls-5" d="M43.28,95.26s3.61,3.32,9.1,0"/><path class="cls-4" d="M26.52,113.94s1.48-3,5.75-1.83c.37-3.26,2.25-10.36,9.35-12.06s0,7.92,0,7.92-.62-.55-1.58.16S35,113.94,35,113.94a13.26,13.26,0,0,1-.34,3.72c-.42.84-.46,2.93-1.22,2.93s-.08-2.86-.42-3.2-.76,2-1.44,3-1.33.19-.92-.76a7.29,7.29,0,0,0,.5-2.55c0-.11-.53-.49-1.29,1.33s-2,1.37-1.34.12,1.26-2.29,1-2.67-1.29,1.83-1.9,2.4-1.86.19-.8-1,2.36-2.36,2.28-2.93-1.68-.5-2.51.12C26.11,114.74,26.52,113.94,26.52,113.94Z"/><path class="cls-4" d="M39.78,106.68s.07,4.8,0,7.19-1.7,5.92-.92,9.31a31.88,31.88,0,0,0,1.9,6.41c.85,2,.14,4.36.78,7.22s1.13,3.42.35,4.41-2.75,3.9-1.06,4.74,7.11.85,7.61.28.85-1.21-.49-3.05-1.13-2.82-.84-3.59a34.31,34.31,0,0,0,.28-8.39,12.43,12.43,0,0,1,1-7c.92-1.48,2.33,3.32,2.4,4.66s-.14,3.36,0,5.94,1.2,4.37,1.2,5.38-.92,3.12,0,4.82,2.54,1.22,5.85,1.21,5.07,0,3.88-1.43-4.51-3.45-5.08-4.29.64-4.94.64-6.7.42-6.91.42-9.66a26.1,26.1,0,0,0-.42-4.78l.49-12.7s6.56-4.06,8.06-5.77,2.74-13.5,2.74-15.52a8.82,8.82,0,0,0,3.06-4.23c.21-1.06-.55-.84-1-.13-1,1.48-1.18,1.26-1.18,1.26.61-1.23,1.5-1.43,1.55-2.47s-.77-.95-1.23-.56a6.38,6.38,0,0,0-1.23,1.8c-.16.29-1.1,1.63-.42.32s2-3,1.32-3.5c-.34-.28-1.14-.27-1.77,1.35s-.71,1.92-.87,2a11.39,11.39,0,0,0,.5-1.7c.46-2-.87-1.81-.87-1.81-.53,0-1.09,3.24-1.19,4.13s.14-1.87,0-2.61c-.25-1.34-1.74-.34-1.48.49a17.21,17.21,0,0,1,.14,2.84c.11.78,1,1.33,1.11,2.17a21.54,21.54,0,0,1,.31,2.14c0,.29-.47,7.92-1.88,9.69S58.69,99.46,58,99.51s-11.49-.12-13.89.54S39.78,106.68,39.78,106.68Z"/><path class="cls-6" d="M38.65,119.1a3.79,3.79,0,0,1,3,.28c1.45.85,4.71,3.15,7.33,3s4.68-3,6.53-3h1.83l.3-5.33s-5.49,1.61-7.64,1.89a45.84,45.84,0,0,1-4.9-.31c-1.89-.28-5.14-1.42-5.32-1.41A22.62,22.62,0,0,0,38.65,119.1Z"/><path class="cls-7" d="M57.31,119.38H55.48c-1.85,0-3.92,2.81-6.53,3s-5.88-2.13-7.33-3a3.79,3.79,0,0,0-3-.28s.53-3,.54-3a45,45,0,0,1,5.58,1.24c2,.68,5.29,1.57,7.28.9a45.7,45.7,0,0,0,5.68-2.82Z"/><path class="cls-8" d="M46.77,73.45a9.16,9.16,0,0,1,6.42,2.24c2.75,2.56-1,4,3.58,6.63,0,0-2.27,1.21-6.14-2.32,0,0,1.39,3.83,4.15,4.92,0,0-3.28,1.25-8.54-3.3a4.13,4.13,0,0,0,2.15,3.31s-5.49.3-7.22-4,.31-6.1,2-6.44A34.4,34.4,0,0,0,46.77,73.45Z"/><circle class="cls-9" cx="43.64" cy="90.17" r="2.02"/><circle class="cls-9" cx="52.38" cy="90.17" r="2.02"/><line class="cls-10" x1="77.58" y1="123.52" x2="189.06" y2="123.52"/><rect class="cls-11" x="187.89" y="114.74" width="40.61" height="16.98" rx="3.52"/><path class="cls-6" d="M193.32,126.16l-.51,1.37a.43.43,0,0,1-.47.34.49.49,0,0,1-.3-.1.37.37,0,0,1-.14-.28l0-.14a.53.53,0,0,1,0-.11l2.45-6.56a1,1,0,0,1,.27-.42.59.59,0,0,1,.38-.15.6.6,0,0,1,.4.15.82.82,0,0,1,.26.4l2.49,6.58a1,1,0,0,1,0,.27.35.35,0,0,1-.12.28.53.53,0,0,1-.32.1.52.52,0,0,1-.29-.09.44.44,0,0,1-.18-.27l-.51-1.37Zm.28-.81h3l-1.48-4.13h0Z"/><path class="cls-6" d="M199,120.7a.44.44,0,0,1,.49-.5h1.92a3.09,3.09,0,0,1,2.92,1.88,4.57,4.57,0,0,1,.39,1.89,5,5,0,0,1-.38,2,3,3,0,0,1-1.1,1.35,3,3,0,0,1-1.75.49h-2a.47.47,0,0,1-.37-.14.45.45,0,0,1-.12-.28Zm.92.31v6h1.47a2.35,2.35,0,0,0,.71-.12,2.09,2.09,0,0,0,.76-.45,2.41,2.41,0,0,0,.62-1,4.41,4.41,0,0,0,.24-1.56,4.18,4.18,0,0,0-.17-1.22,2.58,2.58,0,0,0-.5-.91,2.19,2.19,0,0,0-.78-.57,2.56,2.56,0,0,0-1-.2Z"/><path class="cls-6" d="M205.68,120.61a.44.44,0,0,1,.14-.34.44.44,0,0,1,.32-.13.48.48,0,0,1,.33.12.45.45,0,0,1,.14.35v4.57a1.85,1.85,0,0,0,.27,1,1.63,1.63,0,0,0,.73.64,2.62,2.62,0,0,0,1.07.22,2.34,2.34,0,0,0,1-.26,1.66,1.66,0,0,0,.68-.66,1.9,1.9,0,0,0,.24-1v-4.57a.44.44,0,0,1,.13-.34.4.4,0,0,1,.31-.13.5.5,0,0,1,.34.12.48.48,0,0,1,.14.35v4.26a3.73,3.73,0,0,1-.32,1.59,2.25,2.25,0,0,1-1,1,3.28,3.28,0,0,1-1.61.37,3.8,3.8,0,0,1-1.32-.22,2.49,2.49,0,0,1-.93-.6,2.68,2.68,0,0,1-.55-.94,3.86,3.86,0,0,1-.18-1.22Z"/><path class="cls-6" d="M212.79,120.64a.44.44,0,0,1,.47-.5q.45,0,.45.54v6.25h1.92a.67.67,0,0,1,.38.1.35.35,0,0,1,.16.31c0,.19,0,.32-.14.37a.51.51,0,0,1-.25.09h-2.56a.41.41,0,0,1-.3-.13.55.55,0,0,1-.13-.43Z"/><path class="cls-6" d="M217,121.08h-1.47a.4.4,0,0,1-.3-.13.51.51,0,0,1-.13-.31.49.49,0,0,1,.13-.31.41.41,0,0,1,.32-.13h3.81a.42.42,0,0,1,.34.13.41.41,0,0,1,.12.31.47.47,0,0,1-.11.31.39.39,0,0,1-.31.13h-1.47v6.3a.45.45,0,0,1-.14.36.53.53,0,0,1-.34.13.45.45,0,0,1-.45-.49Z"/><path class="cls-6" d="M223.73,120.53a.6.6,0,0,1,.31.5.38.38,0,0,1-.12.28.52.52,0,0,1-.32.14,3,3,0,0,1-.52-.21c-.22-.1-.39-.18-.51-.22a1.1,1.1,0,0,0-.43-.08,1.17,1.17,0,0,0-.83.31,1.25,1.25,0,0,0-.39.8c0,.44.32.78.89,1,.11,0,.32.12.62.22s.56.2.77.29a3.65,3.65,0,0,1,.61.34,1.78,1.78,0,0,1,.47.48,2.12,2.12,0,0,1,.28,1.08,2.44,2.44,0,0,1-.29,1.14,2.21,2.21,0,0,1-.88.89,2.66,2.66,0,0,1-1.39.35,4.15,4.15,0,0,1-1.12-.16,2.21,2.21,0,0,1-.8-.37.51.51,0,0,1-.11-.74.39.39,0,0,1,.31-.13.61.61,0,0,1,.26.09,2.81,2.81,0,0,0,1.58.5,1.28,1.28,0,0,0,.71-.21,1.52,1.52,0,0,0,.52-.55,1.56,1.56,0,0,0,.19-.73,1.08,1.08,0,0,0-.22-.67,1.84,1.84,0,0,0-.57-.45,6.75,6.75,0,0,0-.87-.35l-.66-.23a3.81,3.81,0,0,1-.68-.41,1.48,1.48,0,0,1-.43-.53,1.84,1.84,0,0,1-.18-.79,1.74,1.74,0,0,1,.33-1,2.28,2.28,0,0,1,.86-.71,2.45,2.45,0,0,1,1.09-.25A2.75,2.75,0,0,1,223.73,120.53Z"/><path class="cls-12" d="M92.25,74.28h-3q-.42,0-.45-.27a1.38,1.38,0,0,1,.22-.54L91.75,69a.84.84,0,0,1,.33-.36.94.94,0,0,1,.39-.07.66.66,0,0,1,.53.21.74.74,0,0,1,.19.54v4.14h.48a.38.38,0,0,1,.3.13.45.45,0,0,1,.12.31.34.34,0,0,1-.12.26.51.51,0,0,1-.34.11h-.44V75.8a.5.5,0,0,1-.14.37.48.48,0,0,1-.34.13.44.44,0,0,1-.32-.13.45.45,0,0,1-.14-.35Zm0-.81V69.58h0L90,73.47Z"/><path class="cls-12" d="M95.73,75.22a.52.52,0,0,1,.38.16.53.53,0,0,1,0,.76.52.52,0,0,1-.38.16.53.53,0,0,1-.39-.16.53.53,0,0,1,0-.76A.53.53,0,0,1,95.73,75.22Z"/><path class="cls-12" d="M98.87,72a1.83,1.83,0,0,1-.73-.7,1.93,1.93,0,0,1-.27-.93,1.89,1.89,0,0,1,.23-.88,1.71,1.71,0,0,1,.65-.66,2,2,0,0,1,1-.25,2.27,2.27,0,0,1,1.08.24,1.62,1.62,0,0,1,.67.65,1.85,1.85,0,0,1,.23.9,2,2,0,0,1-.25.95,1.76,1.76,0,0,1-.73.7,1.62,1.62,0,0,1,1,.68,2.12,2.12,0,0,1,.35,1.23,2.58,2.58,0,0,1-.27,1.14,2.28,2.28,0,0,1-.8.89,2.19,2.19,0,0,1-1.23.34A2.25,2.25,0,0,1,98.58,76a2.19,2.19,0,0,1-.81-.9,2.63,2.63,0,0,1-.3-1.16,2.24,2.24,0,0,1,.37-1.21A1.72,1.72,0,0,1,98.87,72Zm-.39,2a1.76,1.76,0,0,0,.15.7,1.36,1.36,0,0,0,.45.58,1.13,1.13,0,0,0,.71.25,1.27,1.27,0,0,0,.74-.22,1.42,1.42,0,0,0,.46-.57,1.94,1.94,0,0,0,.15-.76,1.88,1.88,0,0,0-.15-.74,1.33,1.33,0,0,0-.46-.56,1.24,1.24,0,0,0-.74-.22,1.22,1.22,0,0,0-1,.47A1.73,1.73,0,0,0,98.48,74Zm.26-3.48a1.13,1.13,0,0,0,.28.82,1,1,0,0,0,.81.3,1,1,0,0,0,.78-.32,1.34,1.34,0,0,0,.15-1.36,1,1,0,0,0-.37-.4,1,1,0,0,0-.55-.15,1,1,0,0,0-1.1,1.11Z"/><path class="cls-12" d="M104.59,73.24l-1.5-2a.87.87,0,0,1-.17-.39.38.38,0,0,1,.12-.28.41.41,0,0,1,.3-.12.48.48,0,0,1,.4.21l1.39,1.85,1.37-1.83a.46.46,0,0,1,.4-.23.38.38,0,0,1,.28.12.45.45,0,0,1,.12.32.51.51,0,0,1-.13.33l-1.5,2,1.71,2.23a.88.88,0,0,1,.19.53.34.34,0,0,1-.12.26.38.38,0,0,1-.28.11.64.64,0,0,1-.5-.32l-1.54-2.14-1.56,2.16a.54.54,0,0,1-.46.23.36.36,0,0,1-.27-.11.39.39,0,0,1-.14-.3,1,1,0,0,1,.18-.44Z"/><path class="cls-12" d="M89.12,77.94a.33.33,0,0,1,.11-.25.4.4,0,0,1,.28-.1.33.33,0,0,1,.26.1.37.37,0,0,1,.1.29v.14h0a1.46,1.46,0,0,1,2.43.23,1.62,1.62,0,0,1,1.45-.78,1.75,1.75,0,0,1,.79.21,1.51,1.51,0,0,1,.57.58,1.82,1.82,0,0,1,.21.88v2.68a.37.37,0,0,1-.11.27.4.4,0,0,1-.28.1.36.36,0,0,1-.37-.37V79.29a1.18,1.18,0,0,0-.13-.58.85.85,0,0,0-.34-.36,1,1,0,0,0-.49-.12.94.94,0,0,0-1,1.06v2.63a.33.33,0,0,1-.11.26.45.45,0,0,1-.28.09.41.41,0,0,1-.26-.09.35.35,0,0,1-.11-.26V79.33a1.08,1.08,0,0,0-.28-.83,1,1,0,0,0-.7-.27,1.31,1.31,0,0,0-.5.11.85.85,0,0,0-.35.33,1.09,1.09,0,0,0-.14.57v2.68a.33.33,0,0,1-.11.27.36.36,0,0,1-.27.1.36.36,0,0,1-.37-.37Z"/><path class="cls-12" d="M96.12,79.94a2.84,2.84,0,0,1,.26-1.22,2,2,0,0,1,.73-.84,1.82,1.82,0,0,1,1-.31,2,2,0,0,1,1.07.33,2.15,2.15,0,0,1,.7.87,2.7,2.7,0,0,1,.25,1.17,2.78,2.78,0,0,1-.25,1.18,2,2,0,0,1-.7.85,2,2,0,0,1-2.15,0,2,2,0,0,1-.71-.86A2.7,2.7,0,0,1,96.12,79.94Zm.76,0a2.23,2.23,0,0,0,.31,1.17,1,1,0,0,0,1,.53,1.12,1.12,0,0,0,.71-.23,1.37,1.37,0,0,0,.42-.62,2.85,2.85,0,0,0,.15-.85,2.39,2.39,0,0,0-.15-.86,1.37,1.37,0,0,0-.42-.62,1.19,1.19,0,0,0-1.39,0,1.38,1.38,0,0,0-.43.61A2.42,2.42,0,0,0,96.88,79.94Z"/><path class="cls-12" d="M101,78a.4.4,0,0,1,.11-.29.35.35,0,0,1,.26-.1.36.36,0,0,1,.27.1.4.4,0,0,1,.11.29v.39h0a2,2,0,0,1,.44-.54,1,1,0,0,1,.58-.26.48.48,0,0,1,.3.11.35.35,0,0,1,.13.28.32.32,0,0,1-.13.29,1.48,1.48,0,0,1-.39.16,1.33,1.33,0,0,0-.33.11,1.19,1.19,0,0,0-.62,1.15V81.9a.38.38,0,0,1-.1.29.35.35,0,0,1-.26.1.37.37,0,0,1-.28-.11.41.41,0,0,1-.11-.3Z"/><path class="cls-12" d="M103.38,79.89a3.07,3.07,0,0,1,.27-1.12,2.28,2.28,0,0,1,.7-.86,1.88,1.88,0,0,1,2.13,0,2.06,2.06,0,0,1,.71.86,2.5,2.5,0,0,1,.25,1.11c0,.25-.14.37-.42.37h-2.87a1.58,1.58,0,0,0,.19.78,1.28,1.28,0,0,0,.51.47,1.6,1.6,0,0,0,.7.16,1.88,1.88,0,0,0,1.24-.48.54.54,0,0,1,.28-.14.24.24,0,0,1,.2.09.37.37,0,0,1,.07.23.45.45,0,0,1-.11.28,2.09,2.09,0,0,1-.72.47,2.42,2.42,0,0,1-1,.2,2.12,2.12,0,0,1-1-.21,1.85,1.85,0,0,1-.67-.56,2.55,2.55,0,0,1-.37-.76,2.92,2.92,0,0,1-.12-.83v0Zm.77-.24h2.53a1.58,1.58,0,0,0-.34-1,1.12,1.12,0,0,0-.89-.4,1.23,1.23,0,0,0-.93.37A1.55,1.55,0,0,0,104.15,79.65Z"/><path class="cls-12" d="M130.16,74.28h-3c-.28,0-.44-.09-.46-.27a1.56,1.56,0,0,1,.22-.54L129.65,69a.91.91,0,0,1,.34-.36.9.9,0,0,1,.39-.08.69.69,0,0,1,.52.21.78.78,0,0,1,.19.55v4.14h.48a.38.38,0,0,1,.3.13.45.45,0,0,1,.12.31.34.34,0,0,1-.12.26.5.5,0,0,1-.34.11h-.44V75.8a.46.46,0,0,1-.14.37.48.48,0,0,1-.34.13.44.44,0,0,1-.32-.13.45.45,0,0,1-.13-.35Zm0-.81V69.58h0l-2.24,3.89Z"/><path class="cls-12" d="M133.63,75.22a.55.55,0,0,1,.54.54.55.55,0,0,1-.54.54.51.51,0,0,1-.38-.16.51.51,0,0,1,0-.76A.49.49,0,0,1,133.63,75.22Z"/><path class="cls-12" d="M135.58,69.38a.42.42,0,0,1-.48-.39.52.52,0,0,1,.13-.3.45.45,0,0,1,.33-.12h3.88c.32,0,.48.09.48.26a3.25,3.25,0,0,1-.11.37l-2.94,6.69a.57.57,0,0,1-.57.41.39.39,0,0,1-.26-.09.43.43,0,0,1-.12-.28,3.29,3.29,0,0,1,.1-.37l2.73-6.15,0,0Z"/><path class="cls-12" d="M141.91,73.24l-1.5-2a.78.78,0,0,1-.17-.39.38.38,0,0,1,.12-.28.4.4,0,0,1,.29-.12.49.49,0,0,1,.41.21l1.38,1.85,1.38-1.83a.46.46,0,0,1,.39-.23.38.38,0,0,1,.29.12.44.44,0,0,1,.12.32.51.51,0,0,1-.13.33l-1.5,2,1.7,2.23a.83.83,0,0,1,.2.53.34.34,0,0,1-.12.26.39.39,0,0,1-.28.11.64.64,0,0,1-.5-.32l-1.55-2.14-1.55,2.16a.54.54,0,0,1-.46.23.38.38,0,0,1-.28-.11.43.43,0,0,1-.14-.3,1.28,1.28,0,0,1,.18-.44Z"/><path class="cls-12" d="M126.73,77.94a.33.33,0,0,1,.11-.25.4.4,0,0,1,.28-.1.34.34,0,0,1,.26.1.37.37,0,0,1,.1.29v.14h0a1.46,1.46,0,0,1,2.43.23,1.62,1.62,0,0,1,1.45-.78,1.75,1.75,0,0,1,.79.21,1.51,1.51,0,0,1,.57.58,1.79,1.79,0,0,1,.21.88v2.68a.37.37,0,0,1-.11.27.4.4,0,0,1-.28.1.36.36,0,0,1-.37-.37V79.29a1.18,1.18,0,0,0-.13-.58.85.85,0,0,0-.34-.36,1,1,0,0,0-.49-.12.94.94,0,0,0-1,1.06v2.63a.33.33,0,0,1-.11.26.45.45,0,0,1-.28.09.41.41,0,0,1-.26-.09.35.35,0,0,1-.11-.26V79.33a1.08,1.08,0,0,0-.28-.83,1,1,0,0,0-.7-.27,1.31,1.31,0,0,0-.5.11.85.85,0,0,0-.35.33,1.09,1.09,0,0,0-.14.57v2.68a.33.33,0,0,1-.11.27.36.36,0,0,1-.27.1.36.36,0,0,1-.37-.37Z"/><path class="cls-12" d="M133.73,79.94a2.84,2.84,0,0,1,.26-1.22,2,2,0,0,1,.73-.84,1.82,1.82,0,0,1,1.05-.31,2,2,0,0,1,1.07.33,2.15,2.15,0,0,1,.7.87,2.86,2.86,0,0,1,0,2.34,1.93,1.93,0,0,1-.7.86,2,2,0,0,1-2.15,0,2,2,0,0,1-.71-.86A2.7,2.7,0,0,1,133.73,79.94Zm.76,0a2.23,2.23,0,0,0,.31,1.17,1,1,0,0,0,.95.53,1.12,1.12,0,0,0,.71-.23,1.37,1.37,0,0,0,.42-.62,2.85,2.85,0,0,0,.15-.85,2.35,2.35,0,0,0-.15-.86,1.37,1.37,0,0,0-.42-.62,1.19,1.19,0,0,0-1.39,0,1.38,1.38,0,0,0-.43.61A2.42,2.42,0,0,0,134.49,79.94Z"/><path class="cls-12" d="M138.57,78a.4.4,0,0,1,.11-.29.35.35,0,0,1,.26-.1.36.36,0,0,1,.27.1.4.4,0,0,1,.11.29v.39h0a2,2,0,0,1,.44-.54.92.92,0,0,1,.58-.26.48.48,0,0,1,.3.11.35.35,0,0,1,.13.28.32.32,0,0,1-.13.29,1.48,1.48,0,0,1-.39.16,1.33,1.33,0,0,0-.33.11,1.19,1.19,0,0,0-.62,1.15V81.9a.38.38,0,0,1-.1.29.35.35,0,0,1-.26.1.37.37,0,0,1-.28-.11.41.41,0,0,1-.11-.3Z"/><path class="cls-12" d="M141,79.89a3.07,3.07,0,0,1,.27-1.12,2.28,2.28,0,0,1,.7-.86,1.88,1.88,0,0,1,2.13,0,2.06,2.06,0,0,1,.71.86,2.5,2.5,0,0,1,.25,1.11c0,.25-.14.37-.42.37h-2.87A1.58,1.58,0,0,0,142,81a1.28,1.28,0,0,0,.51.47,1.6,1.6,0,0,0,.7.16,1.88,1.88,0,0,0,1.24-.48.54.54,0,0,1,.28-.14.24.24,0,0,1,.2.09.37.37,0,0,1,.07.23.45.45,0,0,1-.11.28,2.09,2.09,0,0,1-.72.47,2.42,2.42,0,0,1-1,.2,2.12,2.12,0,0,1-1-.21,1.85,1.85,0,0,1-.67-.56,2.55,2.55,0,0,1-.37-.76,2.92,2.92,0,0,1-.12-.83v0Zm.77-.24h2.53a1.58,1.58,0,0,0-.34-1,1.12,1.12,0,0,0-.89-.4,1.23,1.23,0,0,0-.93.37A1.55,1.55,0,0,0,141.76,79.65Z"/><path class="cls-12" d="M166.92,61.63a1.19,1.19,0,0,1,.09-.36s.11-.06.25-.06H170a.35.35,0,0,1,.28.12.4.4,0,0,1,.11.3.41.41,0,0,1-.11.28.45.45,0,0,1-.31.11h-2.14l-.32,2.07a2.34,2.34,0,0,1,1-.21,1.74,1.74,0,0,1,1.06.33,2.15,2.15,0,0,1,.7.87,2.8,2.8,0,0,1,.24,1.16c0,.09,0,.17,0,.22a3.17,3.17,0,0,1-.28,1.08,2.26,2.26,0,0,1-.56.77,2.33,2.33,0,0,1-.75.43,2.72,2.72,0,0,1-.86.14,3.35,3.35,0,0,1-.9-.14,2.16,2.16,0,0,1-.83-.41,1.12,1.12,0,0,1-.43-.7.4.4,0,0,1,.1-.28.27.27,0,0,1,.23-.11.53.53,0,0,1,.4.18,2.07,2.07,0,0,0,1.39.6,1.5,1.5,0,0,0,1-.42,1.58,1.58,0,0,0,.44-1.16,2.35,2.35,0,0,0-.16-1,1.2,1.2,0,0,0-.47-.56,1.33,1.33,0,0,0-.7-.18,1,1,0,0,0-.32,0l-.46.13a2.52,2.52,0,0,1-.51.12c-.19,0-.3-.11-.32-.33a.59.59,0,0,0,0-.14Z"/><path class="cls-12" d="M172.38,67.79a.55.55,0,0,1,.54.54.49.49,0,0,1-.16.38.53.53,0,0,1-.38.17.58.58,0,0,1-.55-.55.55.55,0,0,1,.55-.54Z"/><path class="cls-12" d="M174.31,62.88a2,2,0,0,1,.33-.9,1.77,1.77,0,0,1,.73-.62,2.46,2.46,0,0,1,1-.21,1.86,1.86,0,0,1,1.62,1,2.08,2.08,0,0,1,.23,1,1.83,1.83,0,0,1-.22.89,1.94,1.94,0,0,1-.66.71,1.68,1.68,0,0,1,1,.7,2,2,0,0,1,.33,1.16,5.07,5.07,0,0,1,0,.54,2.14,2.14,0,0,1-.38.86,2,2,0,0,1-.82.64,2.86,2.86,0,0,1-1.26.25,2.31,2.31,0,0,1-.95-.2,2.13,2.13,0,0,1-.73-.55,1.93,1.93,0,0,1-.42-.75s0-.08,0-.14a1.05,1.05,0,0,1,0-.13.61.61,0,0,1,.14-.35.39.39,0,0,1,.32-.15c.22,0,.37.14.46.41a1.43,1.43,0,0,0,1.29,1.07,1.58,1.58,0,0,0,1.24-.67,1.21,1.21,0,0,0,.22-.66q0-1.53-1.29-1.53c-.4,0-.61-.12-.63-.37a.29.29,0,0,1,.13-.28,2.89,2.89,0,0,1,.52-.18,1.18,1.18,0,0,0,.68-.44,1.52,1.52,0,0,0,.23-.93,1.23,1.23,0,0,0-.16-.56,1,1,0,0,0-.39-.38,1,1,0,0,0-.51-.13,1.08,1.08,0,0,0-.75.27,1.26,1.26,0,0,0-.34.84.43.43,0,0,1-.13.33.44.44,0,0,1-.31.15.42.42,0,0,1-.31-.19A.81.81,0,0,1,174.31,62.88Z"/><path class="cls-12" d="M181.24,65.82l-1.5-2a1,1,0,0,1-.17-.4.38.38,0,0,1,.12-.28.44.44,0,0,1,.3-.11.47.47,0,0,1,.4.2l1.39,1.86,1.37-1.84a.46.46,0,0,1,.4-.22.36.36,0,0,1,.28.12.41.41,0,0,1,.12.31.48.48,0,0,1-.13.33l-1.5,2L184,68.05a.85.85,0,0,1,.19.52.36.36,0,0,1-.11.26.42.42,0,0,1-.29.11.64.64,0,0,1-.5-.32l-1.54-2.14-1.56,2.16a.55.55,0,0,1-.46.24.4.4,0,0,1-.27-.11.43.43,0,0,1-.14-.31,1,1,0,0,1,.18-.44Z"/><path class="cls-12" d="M165.77,70.52a.32.32,0,0,1,.12-.26.36.36,0,0,1,.27-.1.33.33,0,0,1,.26.1.38.38,0,0,1,.1.29v.15h0a1.46,1.46,0,0,1,2.43.22,1.82,1.82,0,0,1,.66-.6,1.73,1.73,0,0,1,.79-.17,1.53,1.53,0,0,1,.79.21,1.45,1.45,0,0,1,.57.58,1.76,1.76,0,0,1,.21.88v2.67a.34.34,0,0,1-.11.27.41.41,0,0,1-.28.11.38.38,0,0,1-.26-.11.37.37,0,0,1-.11-.27V71.87a1.16,1.16,0,0,0-.13-.58.82.82,0,0,0-.34-.37,1,1,0,0,0-.49-.12,1.07,1.07,0,0,0-.73.26,1,1,0,0,0-.29.81v2.62a.33.33,0,0,1-.11.26.4.4,0,0,1-.28.1.37.37,0,0,1-.26-.1.33.33,0,0,1-.11-.26V71.9a1.1,1.1,0,0,0-.28-.83,1,1,0,0,0-.7-.27,1.36,1.36,0,0,0-.5.12.89.89,0,0,0-.35.32,1.11,1.11,0,0,0-.14.58v2.67a.31.31,0,0,1-.11.27.37.37,0,0,1-.27.11.4.4,0,0,1-.26-.11.37.37,0,0,1-.11-.27Z"/><path class="cls-12" d="M172.77,72.51a2.84,2.84,0,0,1,.26-1.22,2.07,2.07,0,0,1,.73-.84,1.89,1.89,0,0,1,1.05-.3,1.81,1.81,0,0,1,1.07.33,2.05,2.05,0,0,1,.7.86,2.7,2.7,0,0,1,.25,1.17,2.9,2.9,0,0,1-.24,1.18,2.08,2.08,0,0,1-.71.86,1.87,1.87,0,0,1-1.07.32,1.82,1.82,0,0,1-1.08-.33,2,2,0,0,1-.71-.86A2.7,2.7,0,0,1,172.77,72.51Zm.76,0a2.23,2.23,0,0,0,.31,1.17,1,1,0,0,0,.95.53,1.12,1.12,0,0,0,.71-.23,1.32,1.32,0,0,0,.42-.62,2.8,2.8,0,0,0,.15-.85,2.63,2.63,0,0,0-.14-.86,1.54,1.54,0,0,0-.43-.62,1.08,1.08,0,0,0-.69-.23,1.19,1.19,0,0,0-.7.22,1.44,1.44,0,0,0-.43.61A2.46,2.46,0,0,0,173.53,72.51Z"/><path class="cls-12" d="M177.61,70.55a.38.38,0,0,1,.11-.28.36.36,0,0,1,.26-.11.37.37,0,0,1,.27.11.33.33,0,0,1,.11.28v.39h0a2,2,0,0,1,.44-.54.91.91,0,0,1,.58-.25.4.4,0,0,1,.3.11.33.33,0,0,1,.13.28.31.31,0,0,1-.13.28,1.2,1.2,0,0,1-.39.16,2,2,0,0,0-.33.11,1.2,1.2,0,0,0-.62,1.15v2.24a.36.36,0,0,1-.1.28.36.36,0,0,1-.26.11.38.38,0,0,1-.39-.41Z"/><path class="cls-12" d="M180,72.47a3.12,3.12,0,0,1,.27-1.13,2.28,2.28,0,0,1,.7-.86,1.91,1.91,0,0,1,2.13,0,2,2,0,0,1,.71.85,2.51,2.51,0,0,1,.26,1.11c0,.25-.15.37-.43.37H180.8a1.55,1.55,0,0,0,.19.78,1.21,1.21,0,0,0,.51.47,1.47,1.47,0,0,0,.7.16,1.88,1.88,0,0,0,1.24-.48.63.63,0,0,1,.28-.14.22.22,0,0,1,.2.1.32.32,0,0,1,.07.22.45.45,0,0,1-.11.28,2.09,2.09,0,0,1-.72.47,2.42,2.42,0,0,1-1,.21,2,2,0,0,1-1-.22,1.85,1.85,0,0,1-.67-.56,2.44,2.44,0,0,1-.37-.76,2.86,2.86,0,0,1-.12-.82v0Zm.77-.25h2.53a1.58,1.58,0,0,0-.33-1,1.16,1.16,0,0,0-.9-.4,1.24,1.24,0,0,0-.93.38A1.52,1.52,0,0,0,180.8,72.22Z"/><polygon class="cls-13" points="87.63 91.59 98.05 83.32 108.65 91.59 103.8 91.59 103.8 135.28 93.56 135.28 93.56 91.77 87.63 91.59"/><path class="cls-14" d="M108.65,153.13s-19.19,5.39-20.26-17.85c0,0,26.77-4.63,24.36,16"/><polygon class="cls-15" points="125.24 91.59 135.66 83.32 146.26 91.59 141.41 91.59 141.41 135.28 131.17 135.28 131.17 91.77 125.24 91.59"/><path class="cls-16" d="M146.26,153.13s-19.19,5.39-20.26-17.85c0,0,26.76-4.63,24.36,16"/><polygon class="cls-17" points="166.18 85.58 176.6 77.31 187.2 85.58 182.35 85.58 182.35 135.28 172.11 135.28 172.11 85.76 166.18 85.58"/><path class="cls-18" d="M187.2,153.13s-19.19,5.39-20.26-17.85c0,0,26.77-4.63,24.36,16"/><path class="cls-19" d="M94.39,141.77a.8.8,0,0,1,0-.22.32.32,0,0,1,.07-.22.29.29,0,0,1,.19-.08.31.31,0,0,1,.21.08.49.49,0,0,1,.14.22l1.28,3.71h0l1.28-3.72a.33.33,0,0,1,.32-.24.28.28,0,0,1,.2.08.29.29,0,0,1,.07.22.69.69,0,0,1,0,.16L96.58,146a.82.82,0,0,1-.13.24.28.28,0,0,1-.2.06.33.33,0,0,1-.21-.06.51.51,0,0,1-.13-.21Z"/><path class="cls-19" d="M98.85,142.07a.37.37,0,0,1-.27-.12.36.36,0,0,1,0-.52.35.35,0,0,1,.27-.11.34.34,0,0,1,.26.11.36.36,0,0,1,.11.26.4.4,0,0,1-.11.27A.38.38,0,0,1,98.85,142.07Zm-.3.8a.29.29,0,0,1,.3-.32.28.28,0,0,1,.21.08.29.29,0,0,1,.09.23V146a.3.3,0,0,1-.09.23.32.32,0,0,1-.42,0,.32.32,0,0,1-.09-.23Z"/><path class="cls-19" d="M100.13,143.11h-.27a.32.32,0,0,1-.2-.07.23.23,0,0,1-.09-.18.26.26,0,0,1,.29-.27h.27v-.82a.25.25,0,0,1,.08-.2.32.32,0,0,1,.21-.08.33.33,0,0,1,.22.08.27.27,0,0,1,.09.22v.8H101a.25.25,0,0,1,.21.07.28.28,0,0,1,.08.2.28.28,0,0,1-.07.17.26.26,0,0,1-.19.08h-.29V146a.26.26,0,0,1-.1.22.33.33,0,0,1-.22.08.28.28,0,0,1-.2-.08.28.28,0,0,1-.08-.23Z"/><path class="cls-19" d="M102,145.58a.33.33,0,0,1,.24.1.36.36,0,0,1,.11.25.38.38,0,0,1-.35.35.34.34,0,0,1-.25-.11.34.34,0,0,1,0-.48A.34.34,0,0,1,102,145.58Z"/><path class="cls-19" d="M105.43,145.18l-.32.89a.28.28,0,0,1-.31.21.26.26,0,0,1-.28-.24s0-.06,0-.09a.31.31,0,0,0,0-.08l1.58-4.21a.54.54,0,0,1,.17-.26.36.36,0,0,1,.24-.1.41.41,0,0,1,.26.09.62.62,0,0,1,.17.26l1.6,4.22c0,.08,0,.14,0,.18a.19.19,0,0,1-.08.18.32.32,0,0,1-.2.06.33.33,0,0,1-.19-.06.34.34,0,0,1-.12-.16l-.32-.89Zm.19-.52h1.89l-.94-2.65h0Z"/><path class="cls-19" d="M137.17,141.88H135a.28.28,0,0,1-.2-.08.26.26,0,0,1-.09-.18.27.27,0,0,1,.31-.26h2.67c.21,0,.31.08.31.24a.5.5,0,0,1-.11.28l-2.55,3.84h2.47a.28.28,0,0,1,.21.07.24.24,0,0,1,.07.18.29.29,0,0,1-.08.19.29.29,0,0,1-.21.08h-2.87c-.21,0-.33-.09-.34-.27a.54.54,0,0,1,.09-.25Z"/><path class="cls-19" d="M138.9,142.07a.34.34,0,0,1-.26-.12.37.37,0,1,1,.63-.26.38.38,0,0,1-.37.38Zm-.29.8a.36.36,0,0,1,.08-.24.32.32,0,0,1,.21-.08.29.29,0,0,1,.22.08.32.32,0,0,1,.08.23V146a.34.34,0,0,1-.08.23.33.33,0,0,1-.22.08.28.28,0,0,1-.2-.08.32.32,0,0,1-.09-.23Z"/><path class="cls-19" d="M140,142.87a.36.36,0,0,1,.08-.24.32.32,0,0,1,.21-.08.29.29,0,0,1,.22.08.36.36,0,0,1,.08.24V143h0a1.13,1.13,0,0,1,.43-.35,1.34,1.34,0,0,1,.56-.12,1.36,1.36,0,0,1,.63.15,1.12,1.12,0,0,1,.47.47,1.51,1.51,0,0,1,.18.77v2a.28.28,0,0,1-.09.22.35.35,0,0,1-.42,0,.29.29,0,0,1-.09-.22v-2a.81.81,0,0,0-.25-.64.84.84,0,0,0-.59-.23.8.8,0,0,0-.41.1.84.84,0,0,0-.32.3,1,1,0,0,0-.12.48v2a.32.32,0,0,1-.08.24.3.3,0,0,1-.42,0A.3.3,0,0,1,140,146Z"/><path class="cls-19" d="M146.09,142.88a.45.45,0,0,1,0,.13.21.21,0,0,1-.08.17.26.26,0,0,1-.19.08l-.21-.06-.28-.09a.89.89,0,0,0-.78.16,1.15,1.15,0,0,0-.35.48,1.8,1.8,0,0,0-.13.62,2,2,0,0,0,.21.91.86.86,0,0,0,.73.48h.1l.16,0,.14,0,.14-.06.13-.06a.56.56,0,0,1,.15,0,.26.26,0,0,1,.17.07.29.29,0,0,1,.06.19.38.38,0,0,1-.31.37,2.31,2.31,0,0,1-.64.1,1.58,1.58,0,0,1-.87-.24,1.71,1.71,0,0,1-.57-.65,2,2,0,0,1-.2-.89,2.86,2.86,0,0,1,.09-.73,1.86,1.86,0,0,1,.29-.62,1.43,1.43,0,0,1,.51-.43,1.53,1.53,0,0,1,.72-.17,1.76,1.76,0,0,1,.64.1A.61.61,0,0,1,146.09,142.88Z"/><path class="cls-19" d="M175,139a.8.8,0,0,1,0-.22.32.32,0,0,1,.07-.22.29.29,0,0,1,.19-.08.31.31,0,0,1,.21.08.49.49,0,0,1,.14.22l1.28,3.71h0l1.28-3.72a.33.33,0,0,1,.32-.24.28.28,0,0,1,.2.08.29.29,0,0,1,.07.22.69.69,0,0,1,0,.16l-1.51,4.22a.82.82,0,0,1-.13.24.28.28,0,0,1-.2.06.33.33,0,0,1-.21-.06.51.51,0,0,1-.13-.21Z"/><path class="cls-19" d="M179.47,139.25a.37.37,0,0,1-.27-.12.36.36,0,0,1,0-.52.36.36,0,0,1,.27-.12.35.35,0,0,1,.26.12.36.36,0,0,1,0,.52A.35.35,0,0,1,179.47,139.25Zm-.3.8a.29.29,0,0,1,.3-.32.28.28,0,0,1,.21.08.29.29,0,0,1,.09.23v3.11a.3.3,0,0,1-.09.23.32.32,0,0,1-.42,0,.32.32,0,0,1-.09-.23Z"/><path class="cls-19" d="M180.75,140.29h-.27a.32.32,0,0,1-.2-.07.23.23,0,0,1-.09-.18.26.26,0,0,1,.29-.27h.27V139a.25.25,0,0,1,.08-.2.32.32,0,0,1,.21-.08.33.33,0,0,1,.22.08.27.27,0,0,1,.09.22v.8h.26a.25.25,0,0,1,.21.07.28.28,0,0,1,.08.2.28.28,0,0,1-.07.17.26.26,0,0,1-.19.08h-.29v2.87a.26.26,0,0,1-.1.22.33.33,0,0,1-.22.08.28.28,0,0,1-.2-.08.28.28,0,0,1-.08-.23Z"/><path class="cls-19" d="M182.66,142.76a.33.33,0,0,1,.24.1.34.34,0,0,1,.11.25.38.38,0,0,1-.35.35.34.34,0,0,1-.25-.11.34.34,0,0,1,0-.48A.34.34,0,0,1,182.66,142.76Z"/><path class="cls-19" d="M174.73,144.86a.3.3,0,0,1,.09-.24.29.29,0,0,1,.22-.08h1.09a1.38,1.38,0,0,1,.65.15,1.21,1.21,0,0,1,.65,1,1.68,1.68,0,0,1-.07.43,1,1,0,0,1-.22.39.9.9,0,0,1-.39.26h0a1.36,1.36,0,0,1,.65.3,1.07,1.07,0,0,1,.32.47,1.31,1.31,0,0,1,.08.46,1.36,1.36,0,0,1-.18.68,1.42,1.42,0,0,1-.53.53,1.7,1.7,0,0,1-.83.2h-1.2a.29.29,0,0,1-.33-.33Zm.6.2v1.54H176a.87.87,0,0,0,.44-.11.75.75,0,0,0,.27-.29.82.82,0,0,0,.09-.38.79.79,0,0,0-.19-.54.67.67,0,0,0-.54-.22Zm0,2v1.81h.8a1.32,1.32,0,0,0,.59-.12.83.83,0,0,0,.36-.33.94.94,0,0,0,.12-.45,1,1,0,0,0-.11-.45.83.83,0,0,0-.34-.33,1.08,1.08,0,0,0-.56-.13Z"/><path class="cls-19" d="M179.13,145.06h-.62a.28.28,0,0,1-.2-.08.25.25,0,0,1-.08-.18.27.27,0,0,1,.08-.19.28.28,0,0,1,.21-.07h1c.07,0,.12,0,.14,0a.23.23,0,0,1,0,.13v4.43a.29.29,0,0,1-.09.23.31.31,0,0,1-.22.09.29.29,0,0,1-.21-.09.32.32,0,0,1-.08-.23Z"/><path class="cls-19" d="M180.76,146a1.74,1.74,0,0,1,.19-.75,1.24,1.24,0,0,1,.53-.56,1.59,1.59,0,0,1,.84-.22,1.48,1.48,0,0,1,.66.18,1.22,1.22,0,0,1,.48.45,1.2,1.2,0,0,1,.18.65,1.58,1.58,0,0,1-.37,1l-1.61,2.15h1.85a.23.23,0,0,1,.26.26.21.21,0,0,1-.07.18.25.25,0,0,1-.2.08h-2.4a.34.34,0,0,1-.2-.06.2.2,0,0,1-.1-.16.46.46,0,0,1,.08-.21l1.85-2.49a1.26,1.26,0,0,0,.25-.72.74.74,0,0,0-.23-.54.8.8,0,0,0-1-.08,1,1,0,0,0-.32.36,1.22,1.22,0,0,0-.11.5q0,.38-.3.39h0C180.85,146.38,180.76,146.26,180.76,146Z"/><path class="cls-20" d="M65.91,61.32h13.2a2.46,2.46,0,0,1,2.46,2.46V146.9a0,0,0,0,1,0,0H63.45a0,0,0,0,1,0,0V63.78a2.46,2.46,0,0,1,2.46-2.46Z"/><line class="cls-21" x1="73.62" y1="68.81" x2="81.57" y2="68.81"/><line class="cls-21" x1="78.91" y1="70.3" x2="81.57" y2="70.3"/><line class="cls-21" x1="78.91" y1="71.79" x2="81.57" y2="71.79"/><line class="cls-21" x1="78.91" y1="73.28" x2="81.57" y2="73.28"/><line class="cls-21" x1="78.91" y1="74.76" x2="81.57" y2="74.76"/><line class="cls-21" x1="76.98" y1="76.25" x2="81.57" y2="76.25"/><line class="cls-21" x1="78.91" y1="77.74" x2="81.57" y2="77.74"/><line class="cls-21" x1="78.91" y1="79.23" x2="81.57" y2="79.23"/><line class="cls-21" x1="78.91" y1="80.71" x2="81.57" y2="80.71"/><line class="cls-21" x1="78.91" y1="82.2" x2="81.57" y2="82.2"/><line class="cls-21" x1="73.62" y1="83.69" x2="81.57" y2="83.69"/><line class="cls-21" x1="78.91" y1="85.17" x2="81.57" y2="85.17"/><line class="cls-21" x1="78.91" y1="86.66" x2="81.57" y2="86.66"/><line class="cls-21" x1="78.91" y1="88.15" x2="81.57" y2="88.15"/><line class="cls-21" x1="78.91" y1="89.64" x2="81.57" y2="89.64"/><line class="cls-21" x1="76.98" y1="91.12" x2="81.57" y2="91.12"/><line class="cls-21" x1="78.91" y1="92.61" x2="81.57" y2="92.61"/><line class="cls-21" x1="78.91" y1="94.1" x2="81.57" y2="94.1"/><line class="cls-21" x1="78.91" y1="95.59" x2="81.57" y2="95.59"/><line class="cls-21" x1="78.91" y1="97.07" x2="81.57" y2="97.07"/><line class="cls-21" x1="73.62" y1="98.56" x2="81.57" y2="98.56"/><line class="cls-21" x1="78.91" y1="100.05" x2="81.57" y2="100.05"/><line class="cls-21" x1="78.91" y1="101.54" x2="81.57" y2="101.54"/><line class="cls-21" x1="78.91" y1="103.02" x2="81.57" y2="103.02"/><line class="cls-21" x1="78.91" y1="104.51" x2="81.57" y2="104.51"/><line class="cls-21" x1="76.98" y1="106" x2="81.57" y2="106"/><line class="cls-21" x1="78.91" y1="107.49" x2="81.57" y2="107.49"/><line class="cls-21" x1="78.91" y1="108.97" x2="81.57" y2="108.97"/><line class="cls-21" x1="78.91" y1="110.46" x2="81.57" y2="110.46"/><line class="cls-21" x1="78.91" y1="111.95" x2="81.57" y2="111.95"/><line class="cls-21" x1="73.62" y1="113.44" x2="81.57" y2="113.44"/><line class="cls-21" x1="78.91" y1="114.92" x2="81.57" y2="114.92"/><line class="cls-21" x1="78.91" y1="116.41" x2="81.57" y2="116.41"/><line class="cls-21" x1="78.91" y1="117.9" x2="81.57" y2="117.9"/><line class="cls-21" x1="78.91" y1="119.38" x2="81.57" y2="119.38"/><line class="cls-21" x1="76.98" y1="120.87" x2="81.57" y2="120.87"/><line class="cls-21" x1="78.91" y1="122.36" x2="81.57" y2="122.36"/><line class="cls-21" x1="78.91" y1="123.85" x2="81.57" y2="123.85"/><line class="cls-21" x1="78.91" y1="125.33" x2="81.57" y2="125.33"/><line class="cls-21" x1="78.91" y1="126.82" x2="81.57" y2="126.82"/><line class="cls-21" x1="73.62" y1="128.31" x2="81.57" y2="128.31"/><line class="cls-21" x1="78.91" y1="129.8" x2="81.57" y2="129.8"/><line class="cls-21" x1="78.91" y1="131.28" x2="81.57" y2="131.28"/><line class="cls-21" x1="78.91" y1="132.77" x2="81.57" y2="132.77"/><line class="cls-21" x1="78.91" y1="134.26" x2="81.57" y2="134.26"/><line class="cls-21" x1="76.98" y1="135.75" x2="81.57" y2="135.75"/><line class="cls-21" x1="78.91" y1="137.23" x2="81.57" y2="137.23"/><line class="cls-21" x1="78.91" y1="138.72" x2="81.57" y2="138.72"/><line class="cls-21" x1="78.91" y1="140.21" x2="81.57" y2="140.21"/><line class="cls-21" x1="78.91" y1="141.7" x2="81.57" y2="141.7"/><line class="cls-21" x1="73.62" y1="143.18" x2="81.57" y2="143.18"/></g></g></svg>