<svg xmlns="http://www.w3.org/2000/svg" xmlns:xlink="http://www.w3.org/1999/xlink" viewBox="0 0 431.33 126.21"><defs><style>.cls-1,.cls-11,.cls-12,.cls-5{fill:none;}.cls-2{fill:#ffdaa4;}.cls-3{fill:#754d25;}.cls-4{fill:#fff;}.cls-5{stroke:#f15b27;stroke-width:2.4px;stroke-dasharray:6;opacity:0.5;}.cls-12,.cls-5{stroke-linecap:round;}.cls-11,.cls-5{stroke-miterlimit:10;}.cls-6{fill:#fbc5bc;}.cls-7{fill:#f8a89d;}.cls-8{clip-path:url(#clip-path);}.cls-9{fill:#c35263;}.cls-10{fill:#f8aeaf;}.cls-11,.cls-12{stroke:#f3828f;stroke-width:0.62px;}.cls-12{stroke-linejoin:round;}.cls-13{clip-path:url(#clip-path-2);}.cls-14{fill:#fac47f;}.cls-15{fill:#f49925;}</style><clipPath id="clip-path"><path class="cls-1" d="M36.11,40.4a8.38,8.38,0,0,1-5.24,0A7.4,7.4,0,0,0,28.58,40a8,8,0,0,0-5.29,2.21c-3.18,2.78-3.51,6.35-3.78,9.21-.21,2.25-.08,4.19-1.64,5.58l0,0h31.3l0,0c-1.56-1.39-1.42-3.33-1.64-5.58-.26-2.86-.6-6.43-3.78-9.21A8,8,0,0,0,38.4,40a7.45,7.45,0,0,0-2.29.37"/></clipPath><clipPath id="clip-path-2"><path class="cls-1" d="M17.84,57.05l0,0c1.56,1.35,1.43,3.25,1.64,5.44.27,2.79,1.65,10.37,14,10.37s13.72-7.58,14-10.37c.22-2.19.08-4.09,1.64-5.45l0,0Z"/></clipPath></defs><g id="Layer_2" data-name="Layer 2"><g id="Layer_1-2" data-name="Layer 1"><path class="cls-2" d="M409.25,18.65C384.3,4.85,303.93,0,240.24,0H240C176.35,0,96,4.85,71,18.65s-22,44.57-22,44.57-3,33.31,22,44.34c24.81,11,103.89,18.54,168.42,18.65h1.38c64.53-.11,143.62-7.69,168.42-18.65,25-11,22-44.34,22-44.34S434.23,32.46,409.25,18.65Z"/><path class="cls-3" d="M107.65,45.78V37.93a1,1,0,0,1,.31-.77,1.18,1.18,0,0,1,.79-.27h2.69a2.82,2.82,0,0,1,1.86.68,2.26,2.26,0,0,1,.78,1.8,2.08,2.08,0,0,1-1.31,2v0a2.53,2.53,0,0,1,1.52.81,2.27,2.27,0,0,1,.61,1.58,2.82,2.82,0,0,1-.9,2.26,3.48,3.48,0,0,1-2.35.77h-2.88a1.22,1.22,0,0,1-.8-.28,1,1,0,0,1-.32-.77Zm2.1-5h1.09a1.13,1.13,0,0,0,.83-.28,1.1,1.1,0,0,0,.3-.82.88.88,0,0,0-.33-.74,1.27,1.27,0,0,0-.8-.25h-1.09Zm0,4.17h1.65a1.37,1.37,0,0,0,.95-.3,1.17,1.17,0,0,0,.37-.91,1,1,0,0,0-.37-.81,1.76,1.76,0,0,0-1.12-.31h-1.48Z"/><path class="cls-3" d="M122.87,40.62v5.22a2,2,0,0,1,0,.23,1.13,1.13,0,0,1-.23.59.81.81,0,0,1-.72.27.83.83,0,0,1-.64-.22,1.58,1.58,0,0,1-.33-.62,2.62,2.62,0,0,1-.86.69,2.31,2.31,0,0,1-1,.23,3.05,3.05,0,0,1-2.38-1.08,4.5,4.5,0,0,1,0-5.58A3,3,0,0,1,119,39.23a2.64,2.64,0,0,1,1.07.23,2,2,0,0,1,.84.71,1,1,0,0,1,1-.86.81.81,0,0,1,.72.28,1.2,1.2,0,0,1,.23.59,2.32,2.32,0,0,1,0,.24v.21Zm-5.17,2.52v.13s0,.09,0,.13a2.49,2.49,0,0,0,.45,1.22,1.29,1.29,0,0,0,1.14.56,1.25,1.25,0,0,0,1.1-.56,2.47,2.47,0,0,0,.44-1.22.57.57,0,0,0,0-.13v-.12a.76.76,0,0,0,0-.15v-.16a2.58,2.58,0,0,0-.45-1.2,1.24,1.24,0,0,0-1.09-.55,1.28,1.28,0,0,0-1.13.55,2.49,2.49,0,0,0-.46,1.2V43a.76.76,0,0,0,0,.15Z"/><path class="cls-3" d="M124.37,45.81V37.19a1.12,1.12,0,0,1,.28-.8,1,1,0,0,1,1.45,0,1.13,1.13,0,0,1,.28.81v2.73a3.08,3.08,0,0,1,.9-.51,3,3,0,0,1,1-.18,2.71,2.71,0,0,1,2.38,1.19,4.9,4.9,0,0,1,.87,2.61v.19a4.2,4.2,0,0,1-.9,2.61A2.89,2.89,0,0,1,128.23,47H128l-.21,0a3,3,0,0,1-.82-.3,1.53,1.53,0,0,1-.62-.59,1.1,1.1,0,0,1-.34.61,1,1,0,0,1-.67.22,1,1,0,0,1-.72-.3,1.13,1.13,0,0,1-.28-.81Zm2-2.74a1.09,1.09,0,0,0,0,.18v.17a2.7,2.7,0,0,0,.45,1.21,1.27,1.27,0,0,0,1.12.55,1.24,1.24,0,0,0,1.07-.52,2.44,2.44,0,0,0,.47-1.16,1,1,0,0,0,0-.18,1,1,0,0,0,0-.17,1.15,1.15,0,0,0,0-.18,1,1,0,0,0,0-.17,2.47,2.47,0,0,0-.47-1.18,1.24,1.24,0,0,0-1.07-.53,1.3,1.3,0,0,0-1.17.6,2.6,2.6,0,0,0-.41,1.31v.08Z"/><path class="cls-3" d="M132.25,40.69a1.25,1.25,0,0,1-.07-.23,2.16,2.16,0,0,1,0-.28.73.73,0,0,1,.22-.53,1.14,1.14,0,0,1,.5-.31l.11,0h.11a1.06,1.06,0,0,1,.62.19,1.12,1.12,0,0,1,.39.53l1.38,3.78L137,40a1.15,1.15,0,0,1,.38-.51,1.09,1.09,0,0,1,.63-.19h.11l.11,0a1.14,1.14,0,0,1,.5.31.74.74,0,0,1,.23.53,2.16,2.16,0,0,1,0,.28.85.85,0,0,1-.08.24l-3.37,8.4a1.92,1.92,0,0,1-.36.56.78.78,0,0,1-.6.24,1,1,0,0,1-.78-.28.83.83,0,0,1-.27-.59s0-.06,0-.1a.38.38,0,0,0,0-.1.67.67,0,0,1,.05-.19l.06-.2.88-2.18Z"/><path class="cls-3" d="M149.72,40.5a.66.66,0,0,1,0,.14.69.69,0,0,1,0,.13,1.23,1.23,0,0,1-.26.49.61.61,0,0,1-.48.22h-.17l-.17,0-.2-.07-.2-.07-.41-.13a1.33,1.33,0,0,0-.45-.07,1.41,1.41,0,0,0-1.27.64,2.52,2.52,0,0,0-.42,1.42v.11a2.4,2.4,0,0,0,.47,1.32,1.42,1.42,0,0,0,1.22.6l.27,0a1.72,1.72,0,0,0,.28-.08l.15,0,.16-.06.38-.15a.9.9,0,0,1,.26-.06.85.85,0,0,1,.62.26.89.89,0,0,1,.25.62.92.92,0,0,1-.44.79,3,3,0,0,1-.95.43,3.25,3.25,0,0,1-.59.12l-.49,0a3.29,3.29,0,0,1-2.61-1.14,4,4,0,0,1-1-2.72,4.08,4.08,0,0,1,1-2.72,3.26,3.26,0,0,1,2.6-1.19l.48,0a3.76,3.76,0,0,1,.55.1,2.85,2.85,0,0,1,1,.39.84.84,0,0,1,.45.76Z"/><path class="cls-3" d="M157.66,40.62v5.22a2,2,0,0,1,0,.23,1.22,1.22,0,0,1-.23.59,1.07,1.07,0,0,1-1.36.05,1.58,1.58,0,0,1-.33-.62,2.62,2.62,0,0,1-.86.69,2.31,2.31,0,0,1-1.05.23,3.05,3.05,0,0,1-2.38-1.08,4.5,4.5,0,0,1,0-5.58,3,3,0,0,1,2.36-1.12,2.64,2.64,0,0,1,1.07.23,2,2,0,0,1,.84.71,1,1,0,0,1,1-.86.82.82,0,0,1,.72.28,1.3,1.3,0,0,1,.23.59,2.32,2.32,0,0,1,0,.24v.21Zm-5.17,2.52v.13s0,.09,0,.13a2.49,2.49,0,0,0,.45,1.22,1.29,1.29,0,0,0,1.14.56,1.25,1.25,0,0,0,1.1-.56,2.58,2.58,0,0,0,.44-1.22.57.57,0,0,0,0-.13v-.12a.76.76,0,0,0,0-.15v-.16a2.58,2.58,0,0,0-.45-1.2,1.24,1.24,0,0,0-1.09-.55,1.28,1.28,0,0,0-1.13.55,2.49,2.49,0,0,0-.46,1.2V43a.76.76,0,0,0,0,.15Z"/><path class="cls-3" d="M159.15,45.81V40.42a1.14,1.14,0,0,1,.29-.8,1,1,0,0,1,.72-.31,1,1,0,0,1,.63.2.86.86,0,0,1,.3.55,1.85,1.85,0,0,1,.76-.62,2.9,2.9,0,0,1,1.18-.21,2.82,2.82,0,0,1,2,.72,2.56,2.56,0,0,1,.78,2v3.86a1.15,1.15,0,0,1-.28.82,1,1,0,0,1-1.45,0,1.13,1.13,0,0,1-.29-.81V42.3a1.29,1.29,0,0,0-.38-1,1.36,1.36,0,0,0-.93-.35,1.19,1.19,0,0,0-1,.4,1.47,1.47,0,0,0-.34,1v3.5a1.13,1.13,0,0,1-.28.82,1,1,0,0,1-1.45,0,1.13,1.13,0,0,1-.29-.81Z"/><path class="cls-3" d="M171.39,40.42a1.14,1.14,0,0,1,.29-.8,1,1,0,0,1,.72-.31,1,1,0,0,1,.66.22,1.18,1.18,0,0,1,.35.62,1.62,1.62,0,0,1,.75-.66,2.65,2.65,0,0,1,1-.26h.14a2.7,2.7,0,0,1,2.38,1.19,4.74,4.74,0,0,1,.87,2.61v.2a4.27,4.27,0,0,1-.89,2.61A2.91,2.91,0,0,1,175.25,47H175l-.26,0a3,3,0,0,1-.7-.23,2.32,2.32,0,0,1-.63-.4v2.45a1.21,1.21,0,0,1-.28.81,1,1,0,0,1-1.45,0,1.16,1.16,0,0,1-.29-.81Zm2,2.65v.18a.91.91,0,0,1,0,.17,2.7,2.7,0,0,0,.45,1.21,1.39,1.39,0,0,0,2.19,0,2.55,2.55,0,0,0,.47-1.16c0-.06,0-.11,0-.18s0-.11,0-.17,0-.11,0-.18,0-.11,0-.17a2.58,2.58,0,0,0-.47-1.18,1.26,1.26,0,0,0-1.07-.53,1.3,1.3,0,0,0-1.17.6,2.42,2.42,0,0,0-.41,1.31v.08Z"/><path class="cls-3" d="M179.75,45.81v-5.5a.89.89,0,0,1,.3-.72,1.21,1.21,0,0,1,.66-.28h.07a1.3,1.3,0,0,1,.7.18.72.72,0,0,1,.28.66h0a2.25,2.25,0,0,1,.61-.62,1.48,1.48,0,0,1,.81-.21,1,1,0,0,1,.67.27,1,1,0,0,1,.31.81.62.62,0,0,1-.21.52,2.43,2.43,0,0,1-.51.27l-.24.09-.25.11h0a5.4,5.4,0,0,0-.81.48,1,1,0,0,0-.37.85v3.09a1.15,1.15,0,0,1-.28.82.94.94,0,0,1-.72.3,1,1,0,0,1-.72-.3,1.09,1.09,0,0,1-.29-.81Z"/><path class="cls-3" d="M188.11,39.23a3.3,3.3,0,0,1,2.6,1.2,4.08,4.08,0,0,1,1,2.72,4,4,0,0,1-1,2.72,3.57,3.57,0,0,1-5.23,0,4.18,4.18,0,0,1,0-5.44,3.27,3.27,0,0,1,2.61-1.19ZM187,41.64a2.49,2.49,0,0,0-.46,1.2V43a.76.76,0,0,0,0,.15v.12a.57.57,0,0,0,0,.13,2.58,2.58,0,0,0,.44,1.22,1.45,1.45,0,0,0,2.29,0,2.61,2.61,0,0,0,.44-1.22.71.71,0,0,0,0-.14v-.12a.71.71,0,0,0,0-.14v-.17a2.49,2.49,0,0,0-.46-1.2,1.27,1.27,0,0,0-1.12-.55A1.31,1.31,0,0,0,187,41.64Z"/><path class="cls-3" d="M192.92,40.42a1.14,1.14,0,0,1,.29-.8,1,1,0,0,1,.72-.31,1,1,0,0,1,.66.22,1.18,1.18,0,0,1,.35.62,1.72,1.72,0,0,1,.75-.66,2.66,2.66,0,0,1,1-.26h.14a2.72,2.72,0,0,1,2.38,1.19A4.81,4.81,0,0,1,200.1,43v.2a4.27,4.27,0,0,1-.89,2.61A2.9,2.9,0,0,1,196.79,47h-.26l-.26,0a2.8,2.8,0,0,1-.69-.23,2.37,2.37,0,0,1-.64-.4v2.45a1.21,1.21,0,0,1-.28.81,1,1,0,0,1-1.45,0,1.16,1.16,0,0,1-.29-.81Zm2,2.65a1.09,1.09,0,0,0,0,.18v.17a2.7,2.7,0,0,0,.45,1.21,1.27,1.27,0,0,0,1.12.55,1.25,1.25,0,0,0,1.07-.52,2.55,2.55,0,0,0,.47-1.16,1,1,0,0,0,0-.18,1,1,0,0,0,0-.17,1.15,1.15,0,0,0,0-.18,1,1,0,0,0,0-.17,2.58,2.58,0,0,0-.47-1.18,1.26,1.26,0,0,0-1.07-.53,1.3,1.3,0,0,0-1.17.6,2.5,2.5,0,0,0-.41,1.31v.08Z"/><path class="cls-3" d="M202.93,43.79a1.56,1.56,0,0,0,.66,1.12,2.28,2.28,0,0,0,1.25.35,2.09,2.09,0,0,0,.72-.12c.22-.09.42-.18.61-.28l.51-.28a.91.91,0,0,1,.44-.13.77.77,0,0,1,.57.27.88.88,0,0,1,.25.6c0,.37-.27.72-.82,1a5.09,5.09,0,0,1-1.82.61L205,47h-.32a3.56,3.56,0,0,1-2.73-1.1,3.83,3.83,0,0,1-1-2.76,4.08,4.08,0,0,1,1-2.72,3.46,3.46,0,0,1,5-.26,4.2,4.2,0,0,1,1.19,2c0,.11,0,.22.05.34a2,2,0,0,1,0,.34.94.94,0,0,1-.21.67.87.87,0,0,1-.67.22Zm3.17-1.34a1.93,1.93,0,0,0-.5-1.09,1.48,1.48,0,0,0-1.11-.44,1.44,1.44,0,0,0-1.1.45,1.76,1.76,0,0,0-.5,1.08Z"/><path class="cls-3" d="M209.15,45.81v-5.5a.89.89,0,0,1,.3-.72,1.21,1.21,0,0,1,.66-.28h.07a1.3,1.3,0,0,1,.7.18.72.72,0,0,1,.28.66h0a2.25,2.25,0,0,1,.61-.62,1.48,1.48,0,0,1,.81-.21,1,1,0,0,1,.67.27,1,1,0,0,1,.31.81.62.62,0,0,1-.21.52,2.43,2.43,0,0,1-.51.27l-.24.09-.25.11h0a5.4,5.4,0,0,0-.81.48,1,1,0,0,0-.37.85v3.09a1.15,1.15,0,0,1-.28.82.94.94,0,0,1-.72.3,1,1,0,0,1-.73-.3,1.13,1.13,0,0,1-.28-.81Z"/><path class="cls-3" d="M214.16,45.81V37.19a1.08,1.08,0,0,1,.29-.8,1,1,0,0,1,1.45,0,1.17,1.17,0,0,1,.27.81v8.61a1.18,1.18,0,0,1-.27.82,1,1,0,0,1-1.45,0,1.09,1.09,0,0,1-.29-.81Z"/><path class="cls-3" d="M217.14,40.69a.77.77,0,0,1-.06-.23,1.19,1.19,0,0,1,0-.28.76.76,0,0,1,.21-.53,1.2,1.2,0,0,1,.5-.31l.11,0H218a1.06,1.06,0,0,1,.62.19A1.1,1.1,0,0,1,219,40l1.39,3.78,1.48-3.8a1.25,1.25,0,0,1,.39-.51,1.06,1.06,0,0,1,.62-.19H223l.12,0a1.27,1.27,0,0,1,.5.31.73.73,0,0,1,.22.53,1.19,1.19,0,0,1,0,.28.84.84,0,0,1-.07.24l-3.38,8.4a1.58,1.58,0,0,1-.36.56.78.78,0,0,1-.59.24,1,1,0,0,1-.78-.28.83.83,0,0,1-.27-.59.38.38,0,0,1,0-.1v-.1a1.33,1.33,0,0,1,0-.19,1.59,1.59,0,0,0,.07-.2l.88-2.18Z"/><path class="cls-3" d="M107.14,60.87V57.22a1.14,1.14,0,0,1,.29-.8,1,1,0,0,1,1.45,0,1.21,1.21,0,0,1,.28.82v3.59a1.22,1.22,0,0,0,.39,1,1.37,1.37,0,0,0,1.81,0,1.18,1.18,0,0,0,.4-1V57.22a1.16,1.16,0,0,1,.29-.8,1,1,0,0,1,1.45,0,1.21,1.21,0,0,1,.28.82v3.63a2.79,2.79,0,0,1-.86,2.15A4.23,4.23,0,0,1,108,63a2.78,2.78,0,0,1-.86-2.14Z"/><path class="cls-3" d="M115.76,62.61V58h-.44a.8.8,0,0,1-.64-.22.92.92,0,0,1-.23-.65.88.88,0,0,1,.24-.63.88.88,0,0,1,.63-.25h.44V55a1.11,1.11,0,0,1,.29-.79,1,1,0,0,1,1.45,0,1.13,1.13,0,0,1,.28.81V56.2h.57a1.24,1.24,0,0,1,.68.21.93.93,0,0,1,0,1.35,1.16,1.16,0,0,1-.68.2h-.57v4.65a1.13,1.13,0,0,1-.28.82,1,1,0,0,1-1.45,0,1.13,1.13,0,0,1-.29-.81Z"/><path class="cls-3" d="M120.75,53.09a1.16,1.16,0,0,1,.79.34,1,1,0,0,1,.34.78,1.14,1.14,0,0,1-.33.82A1.09,1.09,0,0,1,120,55a1.11,1.11,0,0,1-.35-.81,1,1,0,0,1,.35-.77,1.12,1.12,0,0,1,.79-.34Zm-1,9.52V57.22a1.14,1.14,0,0,1,.29-.8,1,1,0,0,1,1.45,0,1.21,1.21,0,0,1,.28.82v5.37a1.2,1.2,0,0,1-.28.82,1,1,0,0,1-1.45,0,1.13,1.13,0,0,1-.29-.81Z"/><path class="cls-3" d="M123.2,62.61V54a1.08,1.08,0,0,1,.29-.8.92.92,0,0,1,.72-.31.91.91,0,0,1,.72.31,1.13,1.13,0,0,1,.28.81v8.61a1.13,1.13,0,0,1-.28.82.94.94,0,0,1-.72.3,1,1,0,0,1-.72-.3,1.09,1.09,0,0,1-.29-.81Z"/><path class="cls-3" d="M127.66,53.09a1.18,1.18,0,0,1,.8.34,1.08,1.08,0,0,1,.34.78,1.14,1.14,0,0,1-.33.82,1.1,1.1,0,0,1-1.6,0,1.1,1.1,0,0,1-.34-.81,1,1,0,0,1,.34-.77,1.13,1.13,0,0,1,.79-.34Zm-1,9.52V57.22a1.13,1.13,0,0,1,.28-.8,1,1,0,0,1,.72-.31,1,1,0,0,1,.73.31,1.17,1.17,0,0,1,.28.82v5.37a1.15,1.15,0,0,1-.28.82.94.94,0,0,1-.73.3,1,1,0,0,1-.72-.3,1.13,1.13,0,0,1-.28-.81Z"/><path class="cls-3" d="M129.9,62.41,133.07,58h-2.34a.85.85,0,0,1-.64-.22.8.8,0,0,1-.27-.65.82.82,0,0,1,.27-.65,1,1,0,0,1,.64-.23h4.58l.13,0,.16,0a.51.51,0,0,1,.25.19.54.54,0,0,1,.12.38,1.27,1.27,0,0,1,0,.22c0,.06,0,.12,0,.17l-.07.1-.07.11-3.18,4.44h2.66a1,1,0,0,1,.64.25.8.8,0,0,1,.27.65.78.78,0,0,1-.27.64,1,1,0,0,1-.64.23h-4.69a1,1,0,0,1-.58-.17.54.54,0,0,1-.25-.51.59.59,0,0,1,0-.23c0-.08.05-.14.07-.2l0-.06,0,0Z"/><path class="cls-3" d="M138.85,60.59a1.5,1.5,0,0,0,.66,1.12,2.27,2.27,0,0,0,1.24.35,2.11,2.11,0,0,0,.73-.12c.21-.09.42-.18.6-.28l.52-.28a.91.91,0,0,1,.44-.13.77.77,0,0,1,.57.27.88.88,0,0,1,.25.6c0,.37-.27.72-.82,1a5.09,5.09,0,0,1-1.82.61l-.33,0h-.32a3.59,3.59,0,0,1-2.74-1.1,3.86,3.86,0,0,1-1-2.76,4.08,4.08,0,0,1,1-2.72A3.26,3.26,0,0,1,140.4,56a3.22,3.22,0,0,1,2.36.93A4.15,4.15,0,0,1,144,59c0,.11,0,.22,0,.34s0,.23,0,.34a.94.94,0,0,1-.21.67.87.87,0,0,1-.67.22ZM142,59.25a1.92,1.92,0,0,0-.49-1.09,1.61,1.61,0,0,0-2.22,0,1.75,1.75,0,0,0-.49,1.08Z"/><path class="cls-3" d="M149.2,62.61V54a1.12,1.12,0,0,1,.28-.8,1,1,0,0,1,1.45,0,1.13,1.13,0,0,1,.28.81v2.73a3,3,0,0,1,.91-.51,2.91,2.91,0,0,1,1-.18,2.71,2.71,0,0,1,2.38,1.19,4.9,4.9,0,0,1,.87,2.61V60a4.2,4.2,0,0,1-.9,2.61,2.89,2.89,0,0,1-2.42,1.17h-.2l-.21,0a3,3,0,0,1-.82-.3,1.53,1.53,0,0,1-.62-.59,1.1,1.1,0,0,1-.34.61,1.07,1.07,0,0,1-1.39-.08,1.13,1.13,0,0,1-.28-.81Zm2-2.74a1.09,1.09,0,0,0,0,.18c0,.05,0,.11,0,.17a2.58,2.58,0,0,0,.44,1.21,1.39,1.39,0,0,0,2.2,0,2.46,2.46,0,0,0,.46-1.15,1,1,0,0,0,0-.18,1,1,0,0,0,0-.17,1.15,1.15,0,0,0,0-.18,1,1,0,0,0,0-.17,2.56,2.56,0,0,0-.46-1.18,1.39,1.39,0,0,0-2.24.07,2.51,2.51,0,0,0-.42,1.31v.08Z"/><path class="cls-3" d="M158.56,53.09a1.16,1.16,0,0,1,.79.34,1,1,0,0,1,.35.78,1.14,1.14,0,0,1-.33.82,1.07,1.07,0,0,1-.81.34,1.05,1.05,0,0,1-.79-.35,1.1,1.1,0,0,1-.34-.81,1,1,0,0,1,.34-.77,1.12,1.12,0,0,1,.79-.34Zm-1,9.52V57.22a1.14,1.14,0,0,1,.29-.8,1,1,0,0,1,1.45,0,1.17,1.17,0,0,1,.28.82v5.37a1.15,1.15,0,0,1-.28.82,1,1,0,0,1-1.45,0,1.13,1.13,0,0,1-.29-.81Z"/><path class="cls-3" d="M161.53,62.61V58h-.45a.81.81,0,0,1-.64-.22.92.92,0,0,1-.23-.65.85.85,0,0,1,.87-.88h.45V55a1.11,1.11,0,0,1,.29-.79,1,1,0,0,1,1.45,0,1.17,1.17,0,0,1,.28.81V56.2h.57a1.27,1.27,0,0,1,.68.21.93.93,0,0,1,0,1.35,1.19,1.19,0,0,1-.68.2h-.57v4.65a1.18,1.18,0,0,1-.28.82,1,1,0,0,1-1.45,0,1.13,1.13,0,0,1-.29-.81Z"/><path class="cls-3" d="M167.16,60.59a1.5,1.5,0,0,0,.66,1.12,2.25,2.25,0,0,0,1.24.35,2.09,2.09,0,0,0,.72-.12,5.82,5.82,0,0,0,.61-.28l.52-.28a.88.88,0,0,1,.43-.13.77.77,0,0,1,.58.27.88.88,0,0,1,.25.6c0,.37-.28.72-.83,1a5,5,0,0,1-1.82.61l-.33,0h-.31a3.59,3.59,0,0,1-2.74-1.1,3.86,3.86,0,0,1-1-2.76,4.08,4.08,0,0,1,1-2.72,3.45,3.45,0,0,1,5-.26,4.15,4.15,0,0,1,1.2,2.05c0,.11,0,.22,0,.34s0,.23,0,.34a.94.94,0,0,1-.21.67.89.89,0,0,1-.67.22Zm3.16-1.34a1.92,1.92,0,0,0-.49-1.09,1.48,1.48,0,0,0-1.12-.44,1.45,1.45,0,0,0-1.1.45,1.75,1.75,0,0,0-.49,1.08Z"/><path class="cls-3" d="M178,62.61V58h-.45a.8.8,0,0,1-.64-.22.92.92,0,0,1-.23-.65.84.84,0,0,1,.87-.88H178v-1a2.25,2.25,0,0,1,.59-1.69,2.08,2.08,0,0,1,1.52-.59,2.37,2.37,0,0,1,1,.19.72.72,0,0,1,.43.72.91.91,0,0,1-.2.64.86.86,0,0,1-.63.21,1.18,1.18,0,0,0-.46.09c-.14.07-.21.28-.21.66v.81h.63a1.38,1.38,0,0,1,.74.21,1,1,0,0,1,0,1.35,1.29,1.29,0,0,1-.74.2H180v4.65a1.13,1.13,0,0,1-.28.82,1,1,0,0,1-1.45,0,1.13,1.13,0,0,1-.28-.81Z"/><path class="cls-3" d="M185.32,56a3.3,3.3,0,0,1,2.6,1.2,4.08,4.08,0,0,1,1,2.72,4,4,0,0,1-1,2.72,3.57,3.57,0,0,1-5.23,0,4.18,4.18,0,0,1,0-5.44A3.27,3.27,0,0,1,185.32,56Zm-1.13,2.41a2.49,2.49,0,0,0-.46,1.2v.16a.76.76,0,0,0,0,.15v.12a.57.57,0,0,0,0,.13,2.58,2.58,0,0,0,.44,1.22,1.45,1.45,0,0,0,2.29,0,2.61,2.61,0,0,0,.44-1.22.71.71,0,0,0,0-.14v-.12a.71.71,0,0,0,0-.14v-.17a2.49,2.49,0,0,0-.46-1.2,1.27,1.27,0,0,0-1.12-.55A1.31,1.31,0,0,0,184.19,58.44Z"/><path class="cls-3" d="M190.1,62.61v-5.5a.87.87,0,0,1,.31-.72,1.21,1.21,0,0,1,.66-.28h.07a1.27,1.27,0,0,1,.69.18.72.72,0,0,1,.29.66h0a2.12,2.12,0,0,1,.61-.62,1.44,1.44,0,0,1,.8-.21,1,1,0,0,1,.67.27,1,1,0,0,1,.31.81.62.62,0,0,1-.21.52,2.61,2.61,0,0,1-.5.27l-.24.09-.25.11h0a5.4,5.4,0,0,0-.81.48,1,1,0,0,0-.37.85v3.09a1.15,1.15,0,0,1-.28.82,1,1,0,0,1-1.45,0,1.13,1.13,0,0,1-.29-.81Z"/><path class="cls-3" d="M200.93,57.3c0,.05,0,.09,0,.14s0,.08,0,.13a1.37,1.37,0,0,1-.26.49.61.61,0,0,1-.48.22H200l-.17,0-.2-.07-.21-.07L199,58a1.63,1.63,0,0,0-.45-.06,1.41,1.41,0,0,0-1.27.64,2.52,2.52,0,0,0-.42,1.42v.11a2.33,2.33,0,0,0,.47,1.32,1.42,1.42,0,0,0,1.22.6l.27,0a1.72,1.72,0,0,0,.28-.08l.15,0,.15-.06.39-.15a.9.9,0,0,1,.26-.06.82.82,0,0,1,.61.26.85.85,0,0,1,.26.62.92.92,0,0,1-.44.79,3.15,3.15,0,0,1-1,.43,3.43,3.43,0,0,1-.59.12l-.49,0a3.32,3.32,0,0,1-2.62-1.14,4,4,0,0,1-1-2.72,4.08,4.08,0,0,1,1-2.72,3.26,3.26,0,0,1,2.6-1.19l.48,0a3.41,3.41,0,0,1,.54.1,3,3,0,0,1,1,.38.87.87,0,0,1,.45.77Z"/><path class="cls-3" d="M203.6,60.59a1.5,1.5,0,0,0,.66,1.12,2.27,2.27,0,0,0,1.24.35,2.11,2.11,0,0,0,.73-.12c.21-.09.42-.18.6-.28l.52-.28a.91.91,0,0,1,.44-.13.77.77,0,0,1,.57.27.88.88,0,0,1,.25.6c0,.37-.27.72-.82,1a5.09,5.09,0,0,1-1.82.61l-.33,0h-.32a3.59,3.59,0,0,1-2.74-1.1,3.86,3.86,0,0,1-1-2.76,4.08,4.08,0,0,1,1-2.72,3.26,3.26,0,0,1,2.6-1.19,3.22,3.22,0,0,1,2.36.93,4.15,4.15,0,0,1,1.2,2.05c0,.11,0,.22,0,.34s0,.23,0,.34a.94.94,0,0,1-.21.67.87.87,0,0,1-.67.22Zm3.16-1.34a1.92,1.92,0,0,0-.49-1.09,1.48,1.48,0,0,0-1.12-.44,1.43,1.43,0,0,0-1.09.45,1.71,1.71,0,0,0-.5,1.08Z"/><path class="cls-3" d="M210.51,58.4V54.3H210a.51.51,0,0,1-.42-.16.73.73,0,0,1-.14-.37h0v0a.55.55,0,0,1,.15-.38.5.5,0,0,1,.41-.18h1.16a.54.54,0,0,1,.4.18.59.59,0,0,1,.14.41V58.4a.61.61,0,0,1-.17.47.61.61,0,0,1-.44.16.59.59,0,0,1-.43-.16.6.6,0,0,1-.18-.47Z"/><path class="cls-3" d="M213.73,58.4V54.3h-.48a.48.48,0,0,1-.41-.16.59.59,0,0,1-.14-.37h0v0a.59.59,0,0,1,.14-.38.51.51,0,0,1,.41-.18h1.16a.58.58,0,0,1,.41.18.64.64,0,0,1,.14.41V58.4a.61.61,0,0,1-.18.47.59.59,0,0,1-.43.16.61.61,0,0,1-.44-.16.6.6,0,0,1-.18-.47Z"/><path class="cls-3" d="M217.34,58.58l-.68,1.22a.53.53,0,0,1-.12.14.42.42,0,0,1-.14.09l-.11,0h-.1a.55.55,0,0,1-.38-.16.52.52,0,0,1-.17-.38.41.41,0,0,1,0-.16l.06-.17.68-1.22a.45.45,0,0,1,.11-.13l.14-.08a.43.43,0,0,1,.13-.05h.09a.57.57,0,0,1,.4.16.5.5,0,0,1,.17.38.32.32,0,0,1,0,.14l-.06.14s0,0,0,0,0,0,0,0Z"/><path class="cls-3" d="M219.35,58.4V54.3h-.48a.51.51,0,0,1-.42-.16.65.65,0,0,1-.14-.37h0v0a.55.55,0,0,1,.15-.38.5.5,0,0,1,.41-.18H220a.56.56,0,0,1,.4.18.59.59,0,0,1,.14.41V58.4a.64.64,0,0,1-.17.47.61.61,0,0,1-1.05-.47Z"/><path class="cls-3" d="M223.54,53.07a1.82,1.82,0,0,1,1.12.35,1.73,1.73,0,0,1,.55.75,1.66,1.66,0,0,1,.06.21,1.27,1.27,0,0,1,0,.2,1.57,1.57,0,0,1-.16.71,1.54,1.54,0,0,1-.51.54,1.67,1.67,0,0,1,.72.59,1.43,1.43,0,0,1,.28.87,1.64,1.64,0,0,1-.59,1.26,2.11,2.11,0,0,1-1.47.53,2,2,0,0,1-1.19-.34,1.93,1.93,0,0,1-.67-.74,1,1,0,0,1-.07-.23.76.76,0,0,1,0-.21.45.45,0,0,1,.17-.36.69.69,0,0,1,.36-.18h.1a.33.33,0,0,1,.26.1.84.84,0,0,1,.18.23l.05.07,0,.07a1.5,1.5,0,0,0,.29.33.79.79,0,0,0,.52.15.76.76,0,0,0,.54-.21.75.75,0,0,0,.23-.55c0-.28-.08-.47-.22-.54a1.43,1.43,0,0,0-.48-.16h0a1.5,1.5,0,0,1-.44-.12c-.14-.06-.2-.2-.2-.43a.45.45,0,0,1,.18-.42,2.08,2.08,0,0,1,.4-.15,1.76,1.76,0,0,0,.4-.16.5.5,0,0,0,.18-.45.54.54,0,0,0-.16-.4.59.59,0,0,0-.43-.15.63.63,0,0,0-.44.13,1.27,1.27,0,0,0-.25.27l0,0,0,0a2.33,2.33,0,0,1-.19.23.42.42,0,0,1-.29.09.47.47,0,0,1-.39-.19.68.68,0,0,1-.14-.41s0,0,0-.07v-.07a1.39,1.39,0,0,1,.61-.82,2,2,0,0,1,1.16-.37Z"/><path class="cls-3" d="M257.54,45.84V38a1.11,1.11,0,0,1,.28-.75,1,1,0,0,1,.81-.33h3.58a.87.87,0,0,1,.7.31,1.06,1.06,0,0,1,.24.67v0a1.1,1.1,0,0,1-.24.64.86.86,0,0,1-.7.28h-2.57v2h2.17a1,1,0,0,1,.75.31,1,1,0,0,1,.25.66,1,1,0,0,1-.25.67.91.91,0,0,1-.75.31h-2.17v3a1,1,0,0,1-.31.81,1,1,0,0,1-1.79-.8Z"/><path class="cls-3" d="M265,36.29a1.16,1.16,0,0,1,.79.34,1,1,0,0,1,.34.78,1.14,1.14,0,0,1-.33.82,1.07,1.07,0,0,1-.8.34,1,1,0,0,1-.79-.35,1.11,1.11,0,0,1-.35-.81,1,1,0,0,1,.35-.77,1.1,1.1,0,0,1,.79-.34Zm-1,9.52V40.42a1.1,1.1,0,0,1,.29-.8,1,1,0,0,1,.72-.31.93.93,0,0,1,.72.31,1.17,1.17,0,0,1,.28.82v5.37a1.15,1.15,0,0,1-.28.82.92.92,0,0,1-.72.3,1,1,0,0,1-.72-.3,1.09,1.09,0,0,1-.29-.81Z"/><path class="cls-3" d="M267.5,45.81V40.42a1.14,1.14,0,0,1,.29-.8,1,1,0,0,1,.72-.31,1,1,0,0,1,.63.2.86.86,0,0,1,.3.55,1.85,1.85,0,0,1,.76-.62,2.9,2.9,0,0,1,1.18-.21,2.84,2.84,0,0,1,2,.72,2.56,2.56,0,0,1,.78,2v3.86a1.15,1.15,0,0,1-.28.82,1,1,0,0,1-1.45,0,1.13,1.13,0,0,1-.29-.81V42.3a1.29,1.29,0,0,0-.38-1,1.36,1.36,0,0,0-.93-.35,1.19,1.19,0,0,0-.95.4,1.47,1.47,0,0,0-.34,1v3.5a1.13,1.13,0,0,1-.28.82,1,1,0,0,1-1.45,0,1.13,1.13,0,0,1-.29-.81Z"/><path class="cls-3" d="M277.26,43.79a1.56,1.56,0,0,0,.66,1.12,2.28,2.28,0,0,0,1.25.35,2.09,2.09,0,0,0,.72-.12c.22-.09.42-.18.61-.28l.51-.28a.91.91,0,0,1,.44-.13.77.77,0,0,1,.57.27.88.88,0,0,1,.25.6c0,.37-.27.72-.82,1a5.09,5.09,0,0,1-1.82.61l-.33,0H279a3.55,3.55,0,0,1-2.73-1.1,3.83,3.83,0,0,1-1.05-2.76,4.08,4.08,0,0,1,1-2.72,3.27,3.27,0,0,1,2.61-1.19,3.21,3.21,0,0,1,2.35.93,4.07,4.07,0,0,1,1.2,2c0,.11,0,.22.05.34s0,.23,0,.34a.94.94,0,0,1-.21.67.87.87,0,0,1-.67.22Zm3.17-1.34a2,2,0,0,0-.5-1.09,1.48,1.48,0,0,0-1.11-.44,1.44,1.44,0,0,0-1.1.45,1.76,1.76,0,0,0-.5,1.08Z"/><path class="cls-3" d="M283.48,45.81v-5.5a.89.89,0,0,1,.3-.72,1.21,1.21,0,0,1,.66-.28h.07a1.33,1.33,0,0,1,.7.18.72.72,0,0,1,.28.66h0a2.25,2.25,0,0,1,.61-.62,1.48,1.48,0,0,1,.81-.21,1,1,0,0,1,.67.27,1,1,0,0,1,.31.81.62.62,0,0,1-.21.52,2.43,2.43,0,0,1-.51.27l-.24.09-.25.11h0a5.4,5.4,0,0,0-.81.48,1,1,0,0,0-.37.85v3.09a1.15,1.15,0,0,1-.28.82.94.94,0,0,1-.72.3,1,1,0,0,1-.73-.3,1.13,1.13,0,0,1-.28-.81Z"/><path class="cls-3" d="M298.4,40.5a.66.66,0,0,1,0,.14.69.69,0,0,1,0,.13,1.11,1.11,0,0,1-.26.49.58.58,0,0,1-.48.22h-.17l-.16,0-.21-.07-.2-.07-.41-.13a1.31,1.31,0,0,0-.44-.07,1.42,1.42,0,0,0-1.28.64,2.52,2.52,0,0,0-.42,1.42v.11a2.41,2.41,0,0,0,.48,1.32,1.41,1.41,0,0,0,1.22.6l.26,0a1.47,1.47,0,0,0,.28-.08l.16,0,.15-.06.38-.15a1,1,0,0,1,.26-.06.87.87,0,0,1,.87.88.91.91,0,0,1-.43.79,3.27,3.27,0,0,1-1,.43,3.54,3.54,0,0,1-.6.12l-.48,0a3.29,3.29,0,0,1-2.62-1.14,4.22,4.22,0,0,1,0-5.44,3.27,3.27,0,0,1,2.61-1.19l.47,0a3.76,3.76,0,0,1,.55.1,2.77,2.77,0,0,1,1,.39.84.84,0,0,1,.45.76Z"/><path class="cls-3" d="M302.77,39.23a3.3,3.3,0,0,1,2.6,1.2,4.2,4.2,0,0,1,0,5.44,3.58,3.58,0,0,1-5.24,0,4.2,4.2,0,0,1,0-5.44,3.26,3.26,0,0,1,2.6-1.19Zm-1.13,2.41a2.48,2.48,0,0,0-.45,1.2c0,.06,0,.11,0,.16s0,.1,0,.15v.12a.59.59,0,0,0,0,.13,2.38,2.38,0,0,0,.44,1.22,1.44,1.44,0,0,0,2.28,0,2.51,2.51,0,0,0,.44-1.22.78.78,0,0,0,0-.14v-.12s0-.09,0-.14a1,1,0,0,1,0-.17,2.58,2.58,0,0,0-.45-1.2,1.3,1.3,0,0,0-1.13-.55A1.31,1.31,0,0,0,301.64,41.64Z"/><path class="cls-3" d="M307.59,45.81V40.42a1.13,1.13,0,0,1,.28-.8,1,1,0,0,1,1.35-.11.86.86,0,0,1,.3.55,1.85,1.85,0,0,1,.76-.62,2.9,2.9,0,0,1,1.18-.21,2.81,2.81,0,0,1,2,.72,2.56,2.56,0,0,1,.78,2v3.86a1.15,1.15,0,0,1-.28.82,1,1,0,0,1-1.45,0,1.13,1.13,0,0,1-.28-.81V42.3a1.3,1.3,0,0,0-.39-1,1.36,1.36,0,0,0-.93-.35,1.19,1.19,0,0,0-.95.4,1.47,1.47,0,0,0-.34,1v3.5a1.13,1.13,0,0,1-.28.82,1,1,0,0,1-1.45,0,1.13,1.13,0,0,1-.28-.81Z"/><path class="cls-3" d="M316.21,45.81V41.16h-.45a.81.81,0,0,1-.64-.22.92.92,0,0,1-.23-.65.89.89,0,0,1,.25-.63.85.85,0,0,1,.62-.25h.45V38.19a1.11,1.11,0,0,1,.29-.79,1,1,0,0,1,1.45,0,1.17,1.17,0,0,1,.28.81V39.4h.57a1.27,1.27,0,0,1,.68.21.93.93,0,0,1,0,1.35,1.19,1.19,0,0,1-.68.2h-.57v4.65a1.18,1.18,0,0,1-.28.82,1,1,0,0,1-1.45,0,1.13,1.13,0,0,1-.29-.81Z"/><path class="cls-3" d="M320.19,45.81v-5.5a.89.89,0,0,1,.3-.72,1.21,1.21,0,0,1,.66-.28h.07a1.33,1.33,0,0,1,.7.18.72.72,0,0,1,.28.66h0a2.25,2.25,0,0,1,.61-.62,1.47,1.47,0,0,1,.8-.21,1,1,0,0,1,.68.27,1,1,0,0,1,.3.81.62.62,0,0,1-.21.52,2.34,2.34,0,0,1-.5.27l-.24.09-.25.11h0a5.4,5.4,0,0,0-.81.48,1,1,0,0,0-.37.85v3.09a1.15,1.15,0,0,1-.28.82,1,1,0,0,1-1.45,0,1.13,1.13,0,0,1-.28-.81Z"/><path class="cls-3" d="M328.54,39.23a3.3,3.3,0,0,1,2.61,1.2,4.18,4.18,0,0,1,0,5.44,3.58,3.58,0,0,1-5.24,0,4,4,0,0,1-1-2.72,4.08,4.08,0,0,1,1-2.72,3.26,3.26,0,0,1,2.6-1.19Zm-1.12,2.41a2.49,2.49,0,0,0-.46,1.2.81.81,0,0,1,0,.16v.27a.57.57,0,0,0,0,.13,2.58,2.58,0,0,0,.44,1.22,1.31,1.31,0,0,0,1.14.56,1.29,1.29,0,0,0,1.14-.56,2.52,2.52,0,0,0,.45-1.22s0-.1,0-.14v-.12a.71.71,0,0,0,0-.14v-.17a2.49,2.49,0,0,0-.46-1.2,1.28,1.28,0,0,0-1.13-.55A1.3,1.3,0,0,0,327.42,41.64Z"/><path class="cls-3" d="M333.33,45.81V37.19a1.12,1.12,0,0,1,.29-.8,1,1,0,0,1,1.45,0,1.17,1.17,0,0,1,.28.81v8.61a1.18,1.18,0,0,1-.28.82,1,1,0,0,1-1.45,0,1.13,1.13,0,0,1-.29-.81Z"/><path class="cls-3" d="M344.24,39.23a3.3,3.3,0,0,1,2.6,1.2,4.08,4.08,0,0,1,1,2.72,4,4,0,0,1-1,2.72,3.57,3.57,0,0,1-5.23,0,4.22,4.22,0,0,1,0-5.44,3.28,3.28,0,0,1,2.61-1.19Zm-1.13,2.41a2.38,2.38,0,0,0-.45,1.2c0,.06,0,.11,0,.16a.76.76,0,0,0,0,.15v.12a.59.59,0,0,0,0,.13,2.38,2.38,0,0,0,.44,1.22,1.29,1.29,0,0,0,1.14.56,1.31,1.31,0,0,0,1.14-.56,2.61,2.61,0,0,0,.44-1.22.71.71,0,0,0,0-.14V43a1,1,0,0,1,0-.17,2.49,2.49,0,0,0-.46-1.2,1.27,1.27,0,0,0-1.12-.55A1.31,1.31,0,0,0,343.11,41.64Z"/><path class="cls-3" d="M349.51,45.81V41.16h-.44a.8.8,0,0,1-.64-.22.92.92,0,0,1-.23-.65.84.84,0,0,1,.87-.88h.44v-1a2.25,2.25,0,0,1,.6-1.69,2.08,2.08,0,0,1,1.52-.59,2.29,2.29,0,0,1,1,.19A.71.71,0,0,1,353,37a.91.91,0,0,1-.2.64.86.86,0,0,1-.63.21,1.14,1.14,0,0,0-.46.09c-.14.07-.21.28-.21.66v.81h.63a1.4,1.4,0,0,1,.74.21,1,1,0,0,1,0,1.35,1.32,1.32,0,0,1-.74.2h-.63v4.65a1.13,1.13,0,0,1-.28.82,1,1,0,0,1-1.45,0,1.13,1.13,0,0,1-.29-.81Z"/><path class="cls-3" d="M358.14,45.81V41.16h-.45a.81.81,0,0,1-.64-.22.92.92,0,0,1-.23-.65.89.89,0,0,1,.25-.63.85.85,0,0,1,.62-.25h.45V38.19a1.11,1.11,0,0,1,.28-.79,1,1,0,0,1,.73-.31.91.91,0,0,1,.72.31,1.13,1.13,0,0,1,.29.81V39.4h.57a1.27,1.27,0,0,1,.68.21,1,1,0,0,1,0,1.35,1.19,1.19,0,0,1-.68.2h-.57v4.65a1.14,1.14,0,0,1-.29.82.94.94,0,0,1-.72.3,1,1,0,0,1-.73-.3,1.13,1.13,0,0,1-.28-.81Z"/><path class="cls-3" d="M362.14,45.81V37.19a1.12,1.12,0,0,1,.29-.8,1,1,0,0,1,1.45,0,1.13,1.13,0,0,1,.28.81v2.73h0a1.52,1.52,0,0,1,.55-.42,2.75,2.75,0,0,1,.69-.21l.3,0,.29,0a2.84,2.84,0,0,1,2,.72,2.56,2.56,0,0,1,.78,2v3.85a1.18,1.18,0,0,1-.28.82,1,1,0,0,1-1.45,0,1.13,1.13,0,0,1-.29-.81V42.3a1.33,1.33,0,0,0-.38-1,1.36,1.36,0,0,0-.93-.35,1.19,1.19,0,0,0-.95.4,1.47,1.47,0,0,0-.34,1v3.5a1.13,1.13,0,0,1-.28.82,1,1,0,0,1-1.45,0,1.13,1.13,0,0,1-.29-.81Z"/><path class="cls-3" d="M371.9,43.79a1.53,1.53,0,0,0,.66,1.12,2.27,2.27,0,0,0,1.24.35,2.11,2.11,0,0,0,.73-.12,5.62,5.62,0,0,0,.6-.28l.52-.28a.91.91,0,0,1,.44-.13.77.77,0,0,1,.57.27.88.88,0,0,1,.25.6c0,.37-.27.72-.82,1a5.09,5.09,0,0,1-1.82.61l-.33,0h-.32a3.55,3.55,0,0,1-2.73-1.1,3.83,3.83,0,0,1-1.05-2.76,4.08,4.08,0,0,1,1-2.72,3.26,3.26,0,0,1,2.6-1.19,3.22,3.22,0,0,1,2.36.93,4.15,4.15,0,0,1,1.2,2c0,.11,0,.22.05.34s0,.23,0,.34a.94.94,0,0,1-.21.67.87.87,0,0,1-.67.22Zm3.17-1.34a2,2,0,0,0-.5-1.09,1.48,1.48,0,0,0-1.12-.44,1.43,1.43,0,0,0-1.09.45,1.76,1.76,0,0,0-.5,1.08Z"/><path class="cls-3" d="M382.22,45.81V37.19a1.12,1.12,0,0,1,.28-.8,1,1,0,0,1,.73-.31.91.91,0,0,1,.72.31,1.13,1.13,0,0,1,.28.81v8.61a1.13,1.13,0,0,1-.28.82.94.94,0,0,1-.72.3,1,1,0,0,1-.73-.3,1.13,1.13,0,0,1-.28-.81Z"/><path class="cls-3" d="M386.68,36.29a1.18,1.18,0,0,1,.8.34,1.08,1.08,0,0,1,.34.78,1.14,1.14,0,0,1-.33.82,1.1,1.1,0,0,1-1.6,0,1.14,1.14,0,0,1-.34-.81,1.07,1.07,0,0,1,.34-.77,1.13,1.13,0,0,1,.79-.34Zm-1,9.52V40.42a1.13,1.13,0,0,1,.28-.8,1,1,0,0,1,.72-.31,1,1,0,0,1,.73.31,1.17,1.17,0,0,1,.28.82v5.37a1.15,1.15,0,0,1-.28.82.94.94,0,0,1-.73.3,1,1,0,0,1-.72-.3,1.13,1.13,0,0,1-.28-.81Z"/><path class="cls-3" d="M389.16,40.42a1.14,1.14,0,0,1,.29-.8,1,1,0,0,1,.72-.31,1,1,0,0,1,.66.22,1.18,1.18,0,0,1,.35.62,1.67,1.67,0,0,1,.75-.66,2.66,2.66,0,0,1,1-.26h.13a2.73,2.73,0,0,1,2.39,1.19,4.81,4.81,0,0,1,.86,2.61v.2a4.27,4.27,0,0,1-.89,2.61A2.9,2.9,0,0,1,393,47h-.26l-.26,0a3,3,0,0,1-.7-.23,2.32,2.32,0,0,1-.63-.4v2.45a1.21,1.21,0,0,1-.28.81,1,1,0,0,1-1.45,0,1.16,1.16,0,0,1-.29-.81Zm2,2.65v.18a.91.91,0,0,1,0,.17,2.7,2.7,0,0,0,.45,1.21,1.39,1.39,0,0,0,2.19,0,2.55,2.55,0,0,0,.47-1.16,1,1,0,0,0,0-.18,1,1,0,0,0,0-.17,1.15,1.15,0,0,0,0-.18,1,1,0,0,0,0-.17,2.58,2.58,0,0,0-.47-1.18,1.26,1.26,0,0,0-1.07-.53,1.3,1.3,0,0,0-1.17.6,2.5,2.5,0,0,0-.41,1.31v.08Z"/><path class="cls-3" d="M402.62,40.69a1,1,0,0,1-.23.63.75.75,0,0,1-.6.28,1,1,0,0,1-.35-.09L401,41.3l-.28-.12-.28-.1-.22,0a.9.9,0,0,0-.23,0,.85.85,0,0,0-.47.13.47.47,0,0,0-.21.43.42.42,0,0,0,.22.36,4.05,4.05,0,0,0,.56.3l.47.17.5.2a4.91,4.91,0,0,1,1.2.74,1.6,1.6,0,0,1,.55,1.32,2.11,2.11,0,0,1-.79,1.68,3.06,3.06,0,0,1-2.08.67l-.44,0a3.4,3.4,0,0,1-.46-.09,4,4,0,0,1-1.32-.53,1.07,1.07,0,0,1-.6-.9.55.55,0,0,1,0-.16.44.44,0,0,1,.07-.19,1.17,1.17,0,0,1,.3-.37.67.67,0,0,1,.47-.17,1.06,1.06,0,0,1,.45.08,2.64,2.64,0,0,1,.38.18l.08,0,.07,0a2.51,2.51,0,0,0,.49.25,1.68,1.68,0,0,0,.62.1,1,1,0,0,0,.63-.14.55.55,0,0,0,.17-.43.45.45,0,0,0-.22-.36,4,4,0,0,0-.55-.28l-.47-.19-.51-.19a5.17,5.17,0,0,1-1.21-.74,1.67,1.67,0,0,1-.54-1.33,2.13,2.13,0,0,1,.77-1.71,2.93,2.93,0,0,1,2-.65l.4,0a3.73,3.73,0,0,1,.44.08,3.33,3.33,0,0,1,1.15.47,1,1,0,0,1,.53.89Z"/><path class="cls-3" d="M263.92,57.42v5.22a2,2,0,0,1,0,.23,1.22,1.22,0,0,1-.23.59,1.07,1.07,0,0,1-1.36,0,1.58,1.58,0,0,1-.33-.62,2.62,2.62,0,0,1-.86.69,2.31,2.31,0,0,1-1.05.23,3.05,3.05,0,0,1-2.38-1.08,4.5,4.5,0,0,1,0-5.58A3,3,0,0,1,260.07,56a2.64,2.64,0,0,1,1.07.23A2,2,0,0,1,262,57a1,1,0,0,1,1-.86.81.81,0,0,1,.72.28,1.3,1.3,0,0,1,.23.59,2.32,2.32,0,0,1,0,.24v.21Zm-5.17,2.52v.13a.57.57,0,0,0,0,.13,2.58,2.58,0,0,0,.44,1.22,1.31,1.31,0,0,0,1.15.56,1.25,1.25,0,0,0,1.1-.56,2.58,2.58,0,0,0,.44-1.22.57.57,0,0,0,0-.13V60a.76.76,0,0,0,0-.15v-.16a2.58,2.58,0,0,0-.45-1.2,1.24,1.24,0,0,0-1.09-.55,1.28,1.28,0,0,0-1.13.55,2.49,2.49,0,0,0-.46,1.2v.16a.76.76,0,0,0,0,.15Z"/><path class="cls-3" d="M265.41,62.61V57.22a1.14,1.14,0,0,1,.29-.8,1,1,0,0,1,.72-.31,1,1,0,0,1,.63.2.8.8,0,0,1,.29.55,2,2,0,0,1,.77-.62,2.9,2.9,0,0,1,1.18-.21,2.84,2.84,0,0,1,2,.71,2.57,2.57,0,0,1,.79,2v3.86a1.15,1.15,0,0,1-.28.82,1,1,0,0,1-1.45,0,1.13,1.13,0,0,1-.29-.81V59.1a1.29,1.29,0,0,0-.38-1,1.36,1.36,0,0,0-.93-.35,1.22,1.22,0,0,0-1,.4,1.52,1.52,0,0,0-.33,1v3.5a1.13,1.13,0,0,1-.28.82,1,1,0,0,1-1.45,0,1.13,1.13,0,0,1-.29-.81Z"/><path class="cls-3" d="M280.44,54v8.62a1.18,1.18,0,0,1-.28.82,1,1,0,0,1-.73.3,1,1,0,0,1-.67-.22,1.17,1.17,0,0,1-.34-.61,1.47,1.47,0,0,1-.62.59,3,3,0,0,1-.82.3l-.21,0h-.2a2.89,2.89,0,0,1-2.42-1.17,4.2,4.2,0,0,1-.9-2.61v-.19a4.9,4.9,0,0,1,.87-2.61A2.71,2.71,0,0,1,276.5,56a3,3,0,0,1,1,.18,2.74,2.74,0,0,1,.89.52V54a1.08,1.08,0,0,1,.29-.8,1,1,0,0,1,1.45,0,1.17,1.17,0,0,1,.28.81Zm-2,5.88V59.8a2.6,2.6,0,0,0-.41-1.31,1.3,1.3,0,0,0-1.17-.6,1.24,1.24,0,0,0-1.07.53,2.47,2.47,0,0,0-.47,1.18,1,1,0,0,0,0,.17,1.15,1.15,0,0,0,0,.18,1,1,0,0,0,0,.17,1,1,0,0,0,0,.18,2.37,2.37,0,0,0,.47,1.15,1.24,1.24,0,0,0,1.07.53,1.27,1.27,0,0,0,1.12-.55,2.7,2.7,0,0,0,.45-1.21v-.17a1,1,0,0,0,0-.17Z"/><path class="cls-3" d="M286.52,62.61V58h-.44a.8.8,0,0,1-.64-.22.92.92,0,0,1-.23-.65.84.84,0,0,1,.87-.88h.44V55a1.11,1.11,0,0,1,.29-.79,1,1,0,0,1,1.45,0,1.13,1.13,0,0,1,.28.81V56.2h.57a1.24,1.24,0,0,1,.68.21.93.93,0,0,1,0,1.35,1.16,1.16,0,0,1-.68.2h-.57v4.65a1.13,1.13,0,0,1-.28.82,1,1,0,0,1-1.45,0,1.13,1.13,0,0,1-.29-.81Z"/><path class="cls-3" d="M293.85,56a3.3,3.3,0,0,1,2.6,1.2,4.08,4.08,0,0,1,1,2.72,4,4,0,0,1-1,2.72,3.57,3.57,0,0,1-5.23,0,4.22,4.22,0,0,1,0-5.44A3.28,3.28,0,0,1,293.85,56Zm-1.13,2.41a2.49,2.49,0,0,0-.46,1.2v.16a.76.76,0,0,0,0,.15v.12s0,.09,0,.13a2.49,2.49,0,0,0,.45,1.22,1.29,1.29,0,0,0,1.14.56,1.31,1.31,0,0,0,1.14-.56,2.51,2.51,0,0,0,.44-1.22.71.71,0,0,0,0-.14V59.8a1,1,0,0,1,0-.17,2.49,2.49,0,0,0-.46-1.2,1.27,1.27,0,0,0-1.12-.55A1.31,1.31,0,0,0,292.72,58.44Z"/><path class="cls-3" d="M298.66,62.61V57.22a1.14,1.14,0,0,1,.29-.8,1,1,0,0,1,.72-.31,1,1,0,0,1,.63.2.8.8,0,0,1,.29.55,2,2,0,0,1,.77-.62,2.9,2.9,0,0,1,1.18-.21,2.84,2.84,0,0,1,2,.71,2.57,2.57,0,0,1,.79,2v3.86a1.15,1.15,0,0,1-.28.82,1,1,0,0,1-1.45,0,1.13,1.13,0,0,1-.29-.81V59.1a1.29,1.29,0,0,0-.38-1,1.36,1.36,0,0,0-.93-.35,1.22,1.22,0,0,0-1,.4,1.52,1.52,0,0,0-.33,1v3.5a1.13,1.13,0,0,1-.28.82,1,1,0,0,1-1.45,0,1.13,1.13,0,0,1-.29-.81Z"/><path class="cls-3" d="M313.69,57.22v5.84a3.38,3.38,0,0,1-1.08,2.73,4.23,4.23,0,0,1-2.8.91,6,6,0,0,1-.63,0,6.43,6.43,0,0,1-.81-.16,4.58,4.58,0,0,1-1.2-.49.93.93,0,0,1-.54-.81.49.49,0,0,1,0-.12s0-.08,0-.12a1.24,1.24,0,0,1,.28-.42.88.88,0,0,1,.42-.23h.07a1.53,1.53,0,0,1,.5.1l.57.23.66.21a3.24,3.24,0,0,0,.79.09,1.81,1.81,0,0,0,1.23-.41,1.45,1.45,0,0,0,.48-1.17v-.49h0a1.91,1.91,0,0,1-.82.72,3,3,0,0,1-1.21.23,2.6,2.6,0,0,1-2.34-1.17A4.83,4.83,0,0,1,306.5,60a4.43,4.43,0,0,1,.9-2.73,2.86,2.86,0,0,1,2.42-1.2h.2l.21,0a2.46,2.46,0,0,1,.82.3,1.53,1.53,0,0,1,.62.59,1.24,1.24,0,0,1,.34-.62,1,1,0,0,1,.67-.22,1,1,0,0,1,.73.31,1.21,1.21,0,0,1,.28.82Zm-2,2.76a.92.92,0,0,0,0-.16v-.16a2.7,2.7,0,0,0-.45-1.22,1.29,1.29,0,0,0-1.12-.55,1.24,1.24,0,0,0-1.07.53,2.37,2.37,0,0,0-.47,1.15,1.1,1.1,0,0,0,0,.18,1,1,0,0,0,0,.17,2.68,2.68,0,0,0,.39,1.44,1.44,1.44,0,0,0,2.35,0,2.59,2.59,0,0,0,.41-1.3V60Z"/><path class="cls-3" d="M315.18,60.87V57.22a1.14,1.14,0,0,1,.29-.8,1,1,0,0,1,1.45,0,1.17,1.17,0,0,1,.28.82v3.59a1.19,1.19,0,0,0,.4,1,1.33,1.33,0,0,0,.9.34,1.31,1.31,0,0,0,.9-.34,1.18,1.18,0,0,0,.4-1V57.22a1.16,1.16,0,0,1,.29-.8,1,1,0,0,1,1.45,0,1.17,1.17,0,0,1,.28.82v3.63A2.79,2.79,0,0,1,321,63,4.23,4.23,0,0,1,316,63a2.78,2.78,0,0,1-.86-2.14Z"/><path class="cls-3" d="M324.94,60.59a1.56,1.56,0,0,0,.66,1.12,2.27,2.27,0,0,0,1.24.35,2.11,2.11,0,0,0,.73-.12,5.62,5.62,0,0,0,.6-.28l.52-.28a.91.91,0,0,1,.44-.13.77.77,0,0,1,.57.27.88.88,0,0,1,.25.6c0,.37-.27.72-.82,1a5.09,5.09,0,0,1-1.82.61l-.33,0h-.32a3.55,3.55,0,0,1-2.73-1.1A3.83,3.83,0,0,1,322.88,60a4.08,4.08,0,0,1,1-2.72A3.27,3.27,0,0,1,326.5,56a3.21,3.21,0,0,1,2.35.93,4.15,4.15,0,0,1,1.2,2.05c0,.11,0,.22.05.34s0,.23,0,.34a.94.94,0,0,1-.21.67.87.87,0,0,1-.67.22Zm3.16-1.34a1.92,1.92,0,0,0-.49-1.09,1.48,1.48,0,0,0-1.11-.44,1.44,1.44,0,0,0-1.1.45,1.76,1.76,0,0,0-.5,1.08Z"/><path class="cls-3" d="M342.17,57.42v5.22a1.85,1.85,0,0,1,0,.23,1.22,1.22,0,0,1-.23.59,1.07,1.07,0,0,1-1.36,0,1.46,1.46,0,0,1-.33-.62,2.62,2.62,0,0,1-.86.69,2.31,2.31,0,0,1-1.05.23A3.05,3.05,0,0,1,336,62.73a4.5,4.5,0,0,1,0-5.58A3,3,0,0,1,338.33,56a2.64,2.64,0,0,1,1.07.23,2,2,0,0,1,.84.71,1,1,0,0,1,1-.86.81.81,0,0,1,.72.28,1.3,1.3,0,0,1,.23.59,2.09,2.09,0,0,1,0,.24v.21ZM337,59.94v.13a.57.57,0,0,0,0,.13,2.58,2.58,0,0,0,.44,1.22,1.31,1.31,0,0,0,1.14.56,1.26,1.26,0,0,0,1.11-.56,2.58,2.58,0,0,0,.44-1.22s0-.09,0-.13V60a.76.76,0,0,0,0-.15v-.16a2.58,2.58,0,0,0-.45-1.2,1.4,1.4,0,0,0-2.22,0,2.49,2.49,0,0,0-.46,1.2v.16a.76.76,0,0,0,0,.15Z"/><path class="cls-3" d="M343.64,62.61V54a1.12,1.12,0,0,1,.29-.8,1,1,0,0,1,1.45,0,1.13,1.13,0,0,1,.28.81v8.61a1.13,1.13,0,0,1-.28.82,1,1,0,0,1-1.45,0,1.13,1.13,0,0,1-.29-.81Z"/><path class="cls-3" d="M347.1,62.61V54a1.12,1.12,0,0,1,.29-.8,1,1,0,0,1,1.45,0,1.17,1.17,0,0,1,.28.81v8.61a1.18,1.18,0,0,1-.28.82,1,1,0,0,1-1.45,0,1.13,1.13,0,0,1-.29-.81Z"/><path class="cls-3" d="M353.91,56a3.3,3.3,0,0,1,2.6,1.2,4.08,4.08,0,0,1,1,2.72,4,4,0,0,1-1,2.72,3.57,3.57,0,0,1-5.23,0,4.18,4.18,0,0,1,0-5.44A3.27,3.27,0,0,1,353.91,56Zm-1.13,2.41a2.49,2.49,0,0,0-.46,1.2v.16a.76.76,0,0,0,0,.15v.12s0,.09,0,.13a2.58,2.58,0,0,0,.44,1.22,1.45,1.45,0,0,0,2.29,0,2.61,2.61,0,0,0,.44-1.22.71.71,0,0,0,0-.14V59.8a1,1,0,0,1,0-.17,2.49,2.49,0,0,0-.46-1.2,1.27,1.27,0,0,0-1.12-.55A1.31,1.31,0,0,0,352.78,58.44Z"/><path class="cls-3" d="M360.16,62.71l-1.7-4.84c-.06-.15-.1-.29-.14-.41a2.33,2.33,0,0,1-.06-.35.28.28,0,0,1,0-.09v-.09a.72.72,0,0,1,.28-.58,1.08,1.08,0,0,1,.72-.24.94.94,0,0,1,.62.22,1.1,1.1,0,0,1,.34.58l1.16,3.84h0L362.57,57a1.48,1.48,0,0,1,.35-.63,1.07,1.07,0,0,1,1.35,0,1.5,1.5,0,0,1,.35.65l1.17,3.75h0L367,56.9a1.07,1.07,0,0,1,.34-.57.93.93,0,0,1,.61-.22,1,1,0,0,1,.73.26,1,1,0,0,1,.28.73,1.06,1.06,0,0,1-.06.34c0,.12-.09.25-.13.41L367,62.71a1.83,1.83,0,0,1-.44.73,1,1,0,0,1-.77.29,1.08,1.08,0,0,1-.75-.25,1.6,1.6,0,0,1-.42-.67l-1-3.27h0l-1,3.25a1.4,1.4,0,0,1-.42.69,1,1,0,0,1-.74.25,1.09,1.09,0,0,1-.78-.29,2,2,0,0,1-.44-.72Z"/><path class="cls-3" d="M375,57.49a.91.91,0,0,1-.23.63.74.74,0,0,1-.59.28.78.78,0,0,1-.35-.1l-.45-.2-.28-.12-.28-.1-.23-.05a.78.78,0,0,0-.22,0,.86.86,0,0,0-.48.13.47.47,0,0,0-.21.43.44.44,0,0,0,.23.36,3.54,3.54,0,0,0,.56.3l.47.17.49.2a5.17,5.17,0,0,1,1.21.74,1.62,1.62,0,0,1,.54,1.32,2.13,2.13,0,0,1-.78,1.68,3.09,3.09,0,0,1-2.09.67l-.44,0-.45-.09a3.85,3.85,0,0,1-1.32-.53,1.07,1.07,0,0,1-.6-.9,1.15,1.15,0,0,1,0-.16.64.64,0,0,1,.08-.19,1,1,0,0,1,.29-.37.67.67,0,0,1,.48-.17,1.25,1.25,0,0,1,.45.07l.37.19.08,0,.08,0a2.51,2.51,0,0,0,.49.25,1.66,1.66,0,0,0,.61.1,1,1,0,0,0,.63-.14.52.52,0,0,0,.17-.43.44.44,0,0,0-.21-.36,2.91,2.91,0,0,0-.56-.28l-.47-.19-.51-.19a4.91,4.91,0,0,1-1.2-.74,1.64,1.64,0,0,1-.55-1.33,2.16,2.16,0,0,1,.77-1.71,3,3,0,0,1,2-.65l.41,0a3.58,3.58,0,0,1,.43.08,3.38,3.38,0,0,1,1.16.47,1,1,0,0,1,.52.89Z"/><path class="cls-3" d="M387.27,57.42v5.22a2,2,0,0,1,0,.23,1.13,1.13,0,0,1-.23.59.81.81,0,0,1-.72.27.83.83,0,0,1-.64-.22,1.45,1.45,0,0,1-.32-.62,2.55,2.55,0,0,1-.87.69,2.31,2.31,0,0,1-1.05.23,3,3,0,0,1-2.37-1.08,4.52,4.52,0,0,1,0-5.58A3,3,0,0,1,383.42,56a2.64,2.64,0,0,1,1.07.23,2.07,2.07,0,0,1,.85.71.86.86,0,0,1,.32-.61.91.91,0,0,1,.64-.25.79.79,0,0,1,.72.28,1.2,1.2,0,0,1,.23.59,2.32,2.32,0,0,1,0,.24v.21Zm-5.17,2.52v.13a.59.59,0,0,0,0,.13,2.38,2.38,0,0,0,.44,1.22,1.29,1.29,0,0,0,1.14.56,1.25,1.25,0,0,0,1.1-.56,2.47,2.47,0,0,0,.44-1.22.57.57,0,0,0,0-.13V59.8a.81.81,0,0,1,0-.16,2.58,2.58,0,0,0-.45-1.2,1.24,1.24,0,0,0-1.09-.55,1.28,1.28,0,0,0-1.13.55,2.38,2.38,0,0,0-.45,1.2c0,.06,0,.11,0,.16a.76.76,0,0,0,0,.15Z"/><path class="cls-3" d="M257,79.41V74a1.13,1.13,0,0,1,.28-.8,1,1,0,0,1,.73-.31,1,1,0,0,1,.63.2.92.92,0,0,1,.29.56,2.42,2.42,0,0,1,.84-.62,2.38,2.38,0,0,1,1-.22,2.71,2.71,0,0,1,1.17.26,2.66,2.66,0,0,1,.92.76,3.21,3.21,0,0,1,1.29-.87l.43-.11a2,2,0,0,1,.41,0,2.83,2.83,0,0,1,2,.69,2.62,2.62,0,0,1,.77,2v3.86a1.2,1.2,0,0,1-.28.82,1,1,0,0,1-1.45,0,1.13,1.13,0,0,1-.29-.81V75.9a1.5,1.5,0,0,0-.31-1,1.05,1.05,0,0,0-.86-.39,1.06,1.06,0,0,0-.88.39,1.53,1.53,0,0,0-.31,1v3.5a1.18,1.18,0,0,1-.28.82,1,1,0,0,1-1.45,0,1.09,1.09,0,0,1-.29-.81V75.9a1.51,1.51,0,0,0-.32-1,1.19,1.19,0,0,0-1.76,0,1.65,1.65,0,0,0-.29,1v3.5a1.13,1.13,0,0,1-.28.82.94.94,0,0,1-.72.3,1,1,0,0,1-.73-.3,1.13,1.13,0,0,1-.28-.81Z"/><path class="cls-3" d="M272.62,72.83a3.3,3.3,0,0,1,2.61,1.2,4.18,4.18,0,0,1,0,5.44,3.58,3.58,0,0,1-5.24,0,4,4,0,0,1-1-2.72A4.08,4.08,0,0,1,270,74a3.26,3.26,0,0,1,2.6-1.19Zm-1.12,2.41a2.49,2.49,0,0,0-.46,1.2.81.81,0,0,1,0,.16v.27a.57.57,0,0,0,0,.13,2.58,2.58,0,0,0,.44,1.22,1.31,1.31,0,0,0,1.14.56,1.29,1.29,0,0,0,1.14-.56,2.52,2.52,0,0,0,.45-1.22s0-.1,0-.14v-.12a.71.71,0,0,0,0-.14v-.17a2.49,2.49,0,0,0-.46-1.2,1.28,1.28,0,0,0-1.13-.55A1.3,1.3,0,0,0,271.5,75.24Z"/><path class="cls-3" d="M277.41,79.41v-5.5a.89.89,0,0,1,.3-.72,1.21,1.21,0,0,1,.67-.28h.07a1.27,1.27,0,0,1,.69.18.72.72,0,0,1,.29.66h0a2,2,0,0,1,.61-.62,1.42,1.42,0,0,1,.8-.21,1,1,0,0,1,.67.27,1,1,0,0,1,.31.81.62.62,0,0,1-.21.52,2.61,2.61,0,0,1-.5.27l-.24.09-.25.11h0a5.3,5.3,0,0,0-.8.48,1,1,0,0,0-.37.85v3.09a1.2,1.2,0,0,1-.28.82,1,1,0,0,1-1.45,0,1.13,1.13,0,0,1-.29-.81Z"/><path class="cls-3" d="M284.08,77.39a1.52,1.52,0,0,0,.65,1.12,2.31,2.31,0,0,0,1.25.35,2.09,2.09,0,0,0,.72-.12c.22-.09.42-.18.61-.28l.52-.28a.88.88,0,0,1,.43-.13.74.74,0,0,1,.57.27.9.9,0,0,1,.26.6c0,.37-.28.72-.83,1a5.09,5.09,0,0,1-1.82.61l-.33,0h-.31a3.59,3.59,0,0,1-2.74-1.1,3.86,3.86,0,0,1-1-2.76A4,4,0,0,1,283,74a3.45,3.45,0,0,1,5-.26,4.15,4.15,0,0,1,1.2,2c0,.11,0,.22,0,.34a2,2,0,0,1,0,.34.94.94,0,0,1-.2.67.9.9,0,0,1-.68.22Zm3.16-1.34a1.87,1.87,0,0,0-.5-1.08,1.42,1.42,0,0,0-1.11-.45,1.45,1.45,0,0,0-1.1.45,1.81,1.81,0,0,0-.5,1.08Z"/><path class="cls-3" d="M300.2,74.1v.14l0,.13a1.2,1.2,0,0,1-.25.49.61.61,0,0,1-.49.22h-.17l-.16,0-.21-.06-.2-.08-.4-.13a1.33,1.33,0,0,0-.45-.07,1.42,1.42,0,0,0-1.28.64,2.52,2.52,0,0,0-.42,1.42v.11a2.41,2.41,0,0,0,.48,1.32,1.41,1.41,0,0,0,1.22.6l.26,0a1.29,1.29,0,0,0,.28-.08l.16,0,.15-.06.39-.15a.86.86,0,0,1,.25-.06.87.87,0,0,1,.87.88.91.91,0,0,1-.43.79,3.27,3.27,0,0,1-.95.43,3.54,3.54,0,0,1-.6.12l-.48,0a3.31,3.31,0,0,1-2.62-1.14,4.2,4.2,0,0,1,0-5.44,3.25,3.25,0,0,1,2.6-1.19l.48,0a3.89,3.89,0,0,1,.54.1,2.7,2.7,0,0,1,1,.39.84.84,0,0,1,.45.76Z"/><path class="cls-3" d="M302.23,69.89a1.14,1.14,0,0,1,.79.34,1,1,0,0,1,.35.78,1.14,1.14,0,0,1-.33.82,1.07,1.07,0,0,1-.81.34,1.05,1.05,0,0,1-.79-.35,1.1,1.1,0,0,1-.34-.81,1,1,0,0,1,.34-.77,1.12,1.12,0,0,1,.79-.34Zm-1,9.52V74a1.13,1.13,0,0,1,.28-.8,1,1,0,0,1,1.45,0,1.17,1.17,0,0,1,.28.82v5.37a1.15,1.15,0,0,1-.28.82,1,1,0,0,1-1.45,0,1.13,1.13,0,0,1-.28-.81Z"/><path class="cls-3" d="M304.68,79.41v-5.5a.89.89,0,0,1,.3-.72,1.24,1.24,0,0,1,.67-.28h.07a1.27,1.27,0,0,1,.69.18.72.72,0,0,1,.29.66h0a2.12,2.12,0,0,1,.61-.62,1.44,1.44,0,0,1,.8-.21,1,1,0,0,1,.67.27,1,1,0,0,1,.31.81.62.62,0,0,1-.21.52,2.61,2.61,0,0,1-.5.27l-.24.09-.25.11h0a5.4,5.4,0,0,0-.81.48,1,1,0,0,0-.37.85v3.09a1.15,1.15,0,0,1-.28.82,1,1,0,0,1-1.45,0,1.13,1.13,0,0,1-.29-.81Z"/><path class="cls-3" d="M315.5,74.1v.14s0,.08,0,.13a1.37,1.37,0,0,1-.26.49.61.61,0,0,1-.48.22h-.17l-.17,0-.2-.06-.21-.08-.4-.13a1.33,1.33,0,0,0-.45-.07,1.43,1.43,0,0,0-1.28.64,2.52,2.52,0,0,0-.42,1.42v.11a2.41,2.41,0,0,0,.48,1.32,1.42,1.42,0,0,0,1.22.6l.27,0a1.38,1.38,0,0,0,.27-.08l.16,0,.15-.06.39-.15a.9.9,0,0,1,.26-.06.83.83,0,0,1,.61.26.84.84,0,0,1,.25.62.91.91,0,0,1-.43.79,3.27,3.27,0,0,1-.95.43,3.35,3.35,0,0,1-.6.12l-.48,0a3.31,3.31,0,0,1-2.62-1.14,4.2,4.2,0,0,1,0-5.44,3.26,3.26,0,0,1,2.6-1.19l.48,0a3.64,3.64,0,0,1,.54.1,2.82,2.82,0,0,1,1,.39.83.83,0,0,1,.44.76Z"/><path class="cls-3" d="M316.56,77.67V74a1.13,1.13,0,0,1,.28-.8,1,1,0,0,1,1.45,0,1.17,1.17,0,0,1,.28.82v3.59a1.19,1.19,0,0,0,.4,1,1.37,1.37,0,0,0,1.81,0,1.21,1.21,0,0,0,.39-1V74a1.16,1.16,0,0,1,.29-.8,1,1,0,0,1,1.45,0,1.17,1.17,0,0,1,.28.82v3.63a2.79,2.79,0,0,1-.86,2.15,4.21,4.21,0,0,1-4.91,0,2.75,2.75,0,0,1-.86-2.14Z"/><path class="cls-3" d="M324.66,79.41V70.79A1.12,1.12,0,0,1,325,70a1,1,0,0,1,1.45,0,1.17,1.17,0,0,1,.28.81v8.61a1.18,1.18,0,0,1-.28.82,1,1,0,0,1-1.45,0,1.13,1.13,0,0,1-.29-.81Z"/><path class="cls-3" d="M335,74.22v5.22a2,2,0,0,1,0,.23,1.22,1.22,0,0,1-.23.59.83.83,0,0,1-.72.27.87.87,0,0,1-.65-.22,1.72,1.72,0,0,1-.32-.62,2.62,2.62,0,0,1-.86.69,2.32,2.32,0,0,1-1.06.23,3,3,0,0,1-2.37-1.08,4.5,4.5,0,0,1,0-5.58,3,3,0,0,1,2.35-1.12,2.65,2.65,0,0,1,1.08.23,2,2,0,0,1,.84.71.94.94,0,0,1,.32-.61,1,1,0,0,1,.65-.25.84.84,0,0,1,.72.28,1.3,1.3,0,0,1,.23.59,2.32,2.32,0,0,1,0,.24v.21Zm-5.17,2.52v.13a.57.57,0,0,0,0,.13,2.58,2.58,0,0,0,.44,1.22,1.31,1.31,0,0,0,1.15.56,1.25,1.25,0,0,0,1.1-.56A2.46,2.46,0,0,0,333,77a.59.59,0,0,0,0-.13v-.12a.76.76,0,0,0,0-.15s0-.1,0-.16a2.47,2.47,0,0,0-.44-1.2,1.24,1.24,0,0,0-1.09-.55,1.27,1.27,0,0,0-1.13.55,2.49,2.49,0,0,0-.46,1.2v.16a.76.76,0,0,0,0,.15Z"/><path class="cls-3" d="M336.5,79.41v-5.5a.87.87,0,0,1,.31-.72,1.21,1.21,0,0,1,.66-.28h.07a1.27,1.27,0,0,1,.69.18.72.72,0,0,1,.29.66h0a2.25,2.25,0,0,1,.61-.62,1.47,1.47,0,0,1,.8-.21,1,1,0,0,1,.67.27,1,1,0,0,1,.31.81.62.62,0,0,1-.21.52,2.61,2.61,0,0,1-.5.27l-.24.09-.25.11h0a5.4,5.4,0,0,0-.81.48,1,1,0,0,0-.37.85v3.09a1.15,1.15,0,0,1-.28.82,1,1,0,0,1-1.45,0,1.13,1.13,0,0,1-.29-.81Z"/><path class="cls-3" d="M345.65,79.41V74a1.13,1.13,0,0,1,.28-.8,1,1,0,0,1,.73-.31.92.92,0,0,1,.62.2.88.88,0,0,1,.3.56,2.42,2.42,0,0,1,.84-.62,2.38,2.38,0,0,1,1-.22,2.71,2.71,0,0,1,1.17.26,2.66,2.66,0,0,1,.92.76,3.73,3.73,0,0,1,.6-.52,3.45,3.45,0,0,1,.69-.35l.43-.11a2,2,0,0,1,.41,0,2.83,2.83,0,0,1,2,.69,2.62,2.62,0,0,1,.77,2v3.86a1.2,1.2,0,0,1-.28.82,1,1,0,0,1-1.45,0,1.13,1.13,0,0,1-.29-.81V75.9a1.5,1.5,0,0,0-.31-1,1.05,1.05,0,0,0-.86-.39,1.06,1.06,0,0,0-.88.39,1.53,1.53,0,0,0-.31,1v3.5a1.14,1.14,0,0,1-.29.82.94.94,0,0,1-.72.3,1,1,0,0,1-.72-.3,1.09,1.09,0,0,1-.29-.81V75.9a1.51,1.51,0,0,0-.32-1,1.19,1.19,0,0,0-1.76,0,1.65,1.65,0,0,0-.29,1v3.5a1.13,1.13,0,0,1-.28.82.94.94,0,0,1-.72.3,1,1,0,0,1-.73-.3,1.13,1.13,0,0,1-.28-.81Z"/><path class="cls-3" d="M361.24,72.83a3.32,3.32,0,0,1,2.61,1.2,4.22,4.22,0,0,1,0,5.44,3.58,3.58,0,0,1-5.24,0,4,4,0,0,1-1-2.72,4.08,4.08,0,0,1,1-2.72,3.26,3.26,0,0,1,2.6-1.19Zm-1.13,2.41a2.58,2.58,0,0,0-.45,1.2.81.81,0,0,1,0,.16v.27a.57.57,0,0,0,0,.13,2.47,2.47,0,0,0,.44,1.22,1.31,1.31,0,0,0,1.14.56,1.29,1.29,0,0,0,1.14-.56,2.41,2.41,0,0,0,.44-1.22.78.78,0,0,0,0-.14v-.12s0-.09,0-.14,0-.11,0-.17a2.38,2.38,0,0,0-.45-1.2,1.28,1.28,0,0,0-1.13-.55A1.33,1.33,0,0,0,360.11,75.24Z"/><path class="cls-3" d="M366.55,79.41V74.76h-.45a.81.81,0,0,1-.64-.22.92.92,0,0,1-.23-.65.85.85,0,0,1,.87-.88h.45V71.79a1.11,1.11,0,0,1,.28-.79,1,1,0,0,1,.73-.31.91.91,0,0,1,.72.31,1.13,1.13,0,0,1,.28.81V73h.58a1.27,1.27,0,0,1,.68.21,1,1,0,0,1,0,1.35,1.12,1.12,0,0,1-.68.2h-.58v4.65a1.13,1.13,0,0,1-.28.82.94.94,0,0,1-.72.3,1,1,0,0,1-.73-.3,1.13,1.13,0,0,1-.28-.81Z"/><path class="cls-3" d="M371.53,69.89a1.16,1.16,0,0,1,.79.34,1,1,0,0,1,.35.78,1.14,1.14,0,0,1-.33.82,1.07,1.07,0,0,1-.81.34,1.05,1.05,0,0,1-.79-.35,1.1,1.1,0,0,1-.34-.81,1,1,0,0,1,.34-.77,1.12,1.12,0,0,1,.79-.34Zm-1,9.52V74a1.14,1.14,0,0,1,.29-.8,1,1,0,0,1,1.45,0,1.17,1.17,0,0,1,.28.82v5.37a1.15,1.15,0,0,1-.28.82,1,1,0,0,1-1.45,0,1.13,1.13,0,0,1-.29-.81Z"/><path class="cls-3" d="M377.33,72.83a3.3,3.3,0,0,1,2.6,1.2,4.08,4.08,0,0,1,1,2.72,4,4,0,0,1-1,2.72,3.57,3.57,0,0,1-5.23,0,4.22,4.22,0,0,1,0-5.44,3.28,3.28,0,0,1,2.61-1.19Zm-1.13,2.41a2.38,2.38,0,0,0-.45,1.2c0,.06,0,.11,0,.16a.76.76,0,0,0,0,.15v.12a.59.59,0,0,0,0,.13,2.38,2.38,0,0,0,.44,1.22,1.29,1.29,0,0,0,1.14.56,1.31,1.31,0,0,0,1.14-.56,2.51,2.51,0,0,0,.44-1.22.71.71,0,0,0,0-.14V76.6a1,1,0,0,1,0-.17,2.49,2.49,0,0,0-.46-1.2,1.27,1.27,0,0,0-1.12-.55A1.31,1.31,0,0,0,376.2,75.24Z"/><path class="cls-3" d="M382.14,79.41V74a1.14,1.14,0,0,1,.29-.8,1,1,0,0,1,.72-.31,1,1,0,0,1,.63.2.86.86,0,0,1,.3.55,1.85,1.85,0,0,1,.76-.62,2.9,2.9,0,0,1,1.18-.21,2.82,2.82,0,0,1,2,.72,2.56,2.56,0,0,1,.78,2v3.86a1.15,1.15,0,0,1-.28.82,1,1,0,0,1-1.45,0,1.13,1.13,0,0,1-.29-.81V75.9a1.29,1.29,0,0,0-.38-1,1.36,1.36,0,0,0-.93-.35,1.19,1.19,0,0,0-.95.4,1.47,1.47,0,0,0-.34,1v3.5a1.13,1.13,0,0,1-.28.82,1,1,0,0,1-1.45,0,1.13,1.13,0,0,1-.29-.81Z"/><path class="cls-3" d="M397.7,72.83a3.3,3.3,0,0,1,2.6,1.2,4.08,4.08,0,0,1,1,2.72,4,4,0,0,1-1,2.72,3.58,3.58,0,0,1-5.24,0,4.18,4.18,0,0,1,0-5.44,3.27,3.27,0,0,1,2.61-1.19Zm-1.13,2.41a2.49,2.49,0,0,0-.46,1.2v.16a.76.76,0,0,0,0,.15v.12s0,.09,0,.13a2.49,2.49,0,0,0,.45,1.22,1.29,1.29,0,0,0,1.14.56,1.31,1.31,0,0,0,1.14-.56,2.61,2.61,0,0,0,.44-1.22.71.71,0,0,0,0-.14V76.6a1,1,0,0,1,0-.17,2.49,2.49,0,0,0-.46-1.2,1.27,1.27,0,0,0-1.12-.55A1.31,1.31,0,0,0,396.57,75.24Z"/><path class="cls-3" d="M403,79.41V74.76h-.45a.81.81,0,0,1-.64-.22.92.92,0,0,1-.23-.65.85.85,0,0,1,.87-.88H403V72a2.25,2.25,0,0,1,.59-1.69,2.08,2.08,0,0,1,1.52-.59,2.37,2.37,0,0,1,1,.19.72.72,0,0,1,.43.72.91.91,0,0,1-.2.64.86.86,0,0,1-.63.21,1.18,1.18,0,0,0-.46.09c-.14.07-.21.28-.21.66V73h.63a1.38,1.38,0,0,1,.74.21,1,1,0,0,1,0,1.35,1.22,1.22,0,0,1-.74.2H405v4.65a1.13,1.13,0,0,1-.28.82,1,1,0,0,1-1.45,0,1.13,1.13,0,0,1-.28-.81Z"/><path class="cls-3" d="M262.81,90.9a.66.66,0,0,1,0,.14.69.69,0,0,1,0,.13,1.11,1.11,0,0,1-.26.49.58.58,0,0,1-.48.22h-.17l-.17,0-.2-.07-.2-.07-.41-.14a1.63,1.63,0,0,0-.45-.06,1.41,1.41,0,0,0-1.27.64,2.52,2.52,0,0,0-.42,1.42v.11a2.41,2.41,0,0,0,.48,1.32,1.39,1.39,0,0,0,1.21.6,1.24,1.24,0,0,0,.27,0,1.47,1.47,0,0,0,.28-.08l.15,0,.16-.06.38-.15a1,1,0,0,1,.26-.06.85.85,0,0,1,.62.26.84.84,0,0,1,.25.62.91.91,0,0,1-.43.79,3.21,3.21,0,0,1-1,.43,3.25,3.25,0,0,1-.59.12l-.48,0a3.29,3.29,0,0,1-2.62-1.14,4.18,4.18,0,0,1,0-5.44,3.27,3.27,0,0,1,2.61-1.19l.47,0a3.76,3.76,0,0,1,.55.1,2.85,2.85,0,0,1,1,.39.84.84,0,0,1,.45.76Z"/><path class="cls-3" d="M263.86,96.21V87.59a1.12,1.12,0,0,1,.29-.8,1,1,0,0,1,1.45,0,1.17,1.17,0,0,1,.28.81v2.73h0a1.56,1.56,0,0,1,.56-.42,2.75,2.75,0,0,1,.69-.21l.3,0,.29,0a2.8,2.8,0,0,1,2,.72,2.57,2.57,0,0,1,.79,2v3.85a1.18,1.18,0,0,1-.28.82,1,1,0,0,1-1.45,0,1.13,1.13,0,0,1-.29-.81V92.7a1.3,1.3,0,0,0-.39-1,1.33,1.33,0,0,0-.93-.35,1.2,1.2,0,0,0-1,.4,1.52,1.52,0,0,0-.33,1v3.5a1.18,1.18,0,0,1-.28.82,1,1,0,0,1-1.45,0,1.13,1.13,0,0,1-.29-.81Z"/><path class="cls-3" d="M273.62,94.19a1.5,1.5,0,0,0,.66,1.12,2.27,2.27,0,0,0,1.24.35,2.09,2.09,0,0,0,.72-.12,5.82,5.82,0,0,0,.61-.28l.52-.28a.88.88,0,0,1,.43-.13.77.77,0,0,1,.58.27.88.88,0,0,1,.25.6c0,.37-.28.72-.83,1a5,5,0,0,1-1.82.61l-.32,0h-.32a3.59,3.59,0,0,1-2.74-1.1,3.86,3.86,0,0,1-1-2.76,4.08,4.08,0,0,1,1-2.72,3.45,3.45,0,0,1,5-.26,4.15,4.15,0,0,1,1.2,2.05c0,.11,0,.22,0,.34s0,.23,0,.34a.94.94,0,0,1-.21.67.89.89,0,0,1-.67.22Zm3.16-1.34a1.92,1.92,0,0,0-.49-1.09,1.48,1.48,0,0,0-1.12-.44,1.45,1.45,0,0,0-1.1.45,1.75,1.75,0,0,0-.49,1.08Z"/><path class="cls-3" d="M281.3,96.31l-1.7-4.84c-.06-.15-.1-.29-.14-.41a2.33,2.33,0,0,1-.06-.35.28.28,0,0,1,0-.09v-.09a.72.72,0,0,1,.28-.58,1.08,1.08,0,0,1,.72-.24.94.94,0,0,1,.62.22,1.1,1.1,0,0,1,.34.58l1.16,3.84h0l1.17-3.77a1.48,1.48,0,0,1,.35-.63,1.07,1.07,0,0,1,1.35,0,1.39,1.39,0,0,1,.34.65l1.18,3.75h0l1.16-3.85a1.07,1.07,0,0,1,.34-.57.93.93,0,0,1,.61-.22,1.05,1.05,0,0,1,.73.26,1,1,0,0,1,.28.73A1.06,1.06,0,0,1,290,91c0,.12-.09.25-.13.41l-1.73,4.86a1.83,1.83,0,0,1-.44.73,1,1,0,0,1-.77.29,1.08,1.08,0,0,1-.75-.25,1.54,1.54,0,0,1-.42-.67l-1-3.27h0l-1,3.25a1.4,1.4,0,0,1-.42.69,1.19,1.19,0,0,1-1.51,0,1.88,1.88,0,0,1-.45-.72Z"/><path class="cls-3" d="M292.08,86.69a1.18,1.18,0,0,1,.8.34,1.08,1.08,0,0,1,.34.78,1.14,1.14,0,0,1-.33.82,1.1,1.1,0,0,1-1.6,0,1.1,1.1,0,0,1-.34-.81,1,1,0,0,1,.34-.77,1.13,1.13,0,0,1,.79-.34Zm-1,9.52V90.82a1.13,1.13,0,0,1,.28-.8,1,1,0,0,1,1.45,0,1.17,1.17,0,0,1,.28.82v5.37a1.15,1.15,0,0,1-.28.82,1,1,0,0,1-1.45,0,1.13,1.13,0,0,1-.28-.81Z"/><path class="cls-3" d="M294.56,96.21V90.82a1.14,1.14,0,0,1,.29-.8,1,1,0,0,1,.72-.31,1,1,0,0,1,.63.2.8.8,0,0,1,.29.55,1.88,1.88,0,0,1,.77-.62,2.87,2.87,0,0,1,1.18-.21,2.84,2.84,0,0,1,2,.71,2.57,2.57,0,0,1,.79,2v3.86a1.2,1.2,0,0,1-.28.82,1,1,0,0,1-1.45,0,1.13,1.13,0,0,1-.29-.81V92.7a1.33,1.33,0,0,0-.38-1,1.36,1.36,0,0,0-.93-.35,1.22,1.22,0,0,0-1,.4,1.52,1.52,0,0,0-.33,1v3.5a1.18,1.18,0,0,1-.28.82,1,1,0,0,1-1.45,0,1.13,1.13,0,0,1-.29-.81Z"/><path class="cls-3" d="M309.58,90.82v5.84a3.4,3.4,0,0,1-1.07,2.73,4.24,4.24,0,0,1-2.8.91,6,6,0,0,1-.63,0,6.24,6.24,0,0,1-.82-.16,4.66,4.66,0,0,1-1.19-.49.93.93,0,0,1-.54-.81.49.49,0,0,1,0-.12l0-.12a1.11,1.11,0,0,1,.28-.41.82.82,0,0,1,.42-.24h.07a1.59,1.59,0,0,1,.5.1l.56.23.67.21a3.24,3.24,0,0,0,.79.09,1.78,1.78,0,0,0,1.22-.41,1.42,1.42,0,0,0,.49-1.17v-.49h0a2,2,0,0,1-.82.72,3,3,0,0,1-1.21.23,2.59,2.59,0,0,1-2.34-1.17,4.83,4.83,0,0,1-.77-2.68,4.43,4.43,0,0,1,.9-2.73,2.86,2.86,0,0,1,2.42-1.2h.2l.21,0a2.46,2.46,0,0,1,.82.3,1.6,1.6,0,0,1,.62.59,1.17,1.17,0,0,1,.34-.62,1,1,0,0,1,.67-.22.94.94,0,0,1,.72.31,1.17,1.17,0,0,1,.28.82Zm-2,2.76a.92.92,0,0,0,0-.16s0-.11,0-.16a2.58,2.58,0,0,0-.44-1.22,1.3,1.3,0,0,0-1.12-.55,1.24,1.24,0,0,0-1.07.53,2.37,2.37,0,0,0-.47,1.15l0,.18v.17a2.68,2.68,0,0,0,.39,1.44,1.44,1.44,0,0,0,2.35,0,2.59,2.59,0,0,0,.41-1.3v-.09Z"/><path class="cls-3" d="M311.75,92V87.9h-.48a.51.51,0,0,1-.42-.16.65.65,0,0,1-.14-.37h0v0a.55.55,0,0,1,.15-.38.5.5,0,0,1,.41-.18h1.16a.54.54,0,0,1,.4.18.64.64,0,0,1,.14.41V92a.64.64,0,0,1-.17.47.61.61,0,0,1-1.05-.47Z"/><path class="cls-3" d="M315,92V87.9h-.48a.48.48,0,0,1-.41-.16.59.59,0,0,1-.14-.37h0v0a.59.59,0,0,1,.14-.38.51.51,0,0,1,.41-.18h1.16a.54.54,0,0,1,.4.18.59.59,0,0,1,.15.41V92a.59.59,0,0,1-.62.63.59.59,0,0,1-.43-.16A.6.6,0,0,1,315,92Z"/><path class="cls-3" d="M318.58,92.18l-.69,1.22a.36.36,0,0,1-.11.14.42.42,0,0,1-.14.09l-.11,0h-.1a.55.55,0,0,1-.38-.16.52.52,0,0,1-.17-.38.41.41,0,0,1,0-.16l.06-.17.68-1.22a.45.45,0,0,1,.11-.13l.14-.08a.43.43,0,0,1,.13,0h.09a.53.53,0,0,1,.39.16.48.48,0,0,1,.18.38.32.32,0,0,1,0,.14l-.06.14a0,0,0,0,1,0,0,0,0,0,0,1,0,0Z"/><path class="cls-3" d="M320.59,92V87.9h-.48a.51.51,0,0,1-.42-.16.65.65,0,0,1-.14-.37h0v0a.55.55,0,0,1,.15-.38.5.5,0,0,1,.41-.18h1.16a.54.54,0,0,1,.4.18.64.64,0,0,1,.14.41V92a.64.64,0,0,1-.17.47.61.61,0,0,1-1.05-.47Z"/><path class="cls-3" d="M324.78,86.67a1.82,1.82,0,0,1,1.12.35,1.73,1.73,0,0,1,.55.75.83.83,0,0,1,.06.21,1.27,1.27,0,0,1,0,.2,1.46,1.46,0,0,1-.17.71,1.42,1.42,0,0,1-.5.54,1.67,1.67,0,0,1,.72.59,1.43,1.43,0,0,1,.28.87,1.64,1.64,0,0,1-.59,1.26,2.11,2.11,0,0,1-1.47.53,2,2,0,0,1-1.19-.34,1.93,1.93,0,0,1-.67-.74,1,1,0,0,1-.07-.23.76.76,0,0,1,0-.21.45.45,0,0,1,.17-.36.69.69,0,0,1,.36-.18h.1a.33.33,0,0,1,.26.1,1,1,0,0,1,.18.22A.56.56,0,0,0,324,91l.05.07a1.5,1.5,0,0,0,.29.33.79.79,0,0,0,.52.15.76.76,0,0,0,.54-.21.75.75,0,0,0,.23-.55c0-.28-.08-.47-.22-.54a1.51,1.51,0,0,0-.48-.16h-.05a1.5,1.5,0,0,1-.44-.12c-.14-.06-.2-.2-.2-.43a.45.45,0,0,1,.18-.42,2.08,2.08,0,0,1,.4-.15,1.42,1.42,0,0,0,.4-.17.47.47,0,0,0,.18-.44.58.58,0,0,0-.16-.4.59.59,0,0,0-.43-.15.63.63,0,0,0-.44.13,1.27,1.27,0,0,0-.25.27l0,0s0,0,0,0a1.44,1.44,0,0,1-.19.22.39.39,0,0,1-.29.1.47.47,0,0,1-.39-.19A.68.68,0,0,1,323,88s0,0,0-.06v-.07a1.36,1.36,0,0,1,.61-.82,2,2,0,0,1,1.16-.37Z"/><circle class="cls-4" cx="39.97" cy="63.92" r="38.77"/><circle class="cls-5" cx="39.97" cy="63.92" r="38.77"/><path class="cls-6" d="M49.86,57.05a2.63,2.63,0,0,0-.69-1.51h0s0,0-.05,0h0c-.86-.91-.67-2.52-.83-4.57-.25-3.23-.6-7.65-4-11.2-3.71-3.86-7.37-3.22-9.23-2.5a4.2,4.2,0,0,1-3,0,7.91,7.91,0,0,0-2.86-.54,8.72,8.72,0,0,0-6.37,3c-3.41,3.55-3.76,8-4,11.2-.16,2.05,0,3.66-.83,4.57h0l0,0h0a2.55,2.55,0,0,0-.68,1.51Z"/><path class="cls-6" d="M49.86,57.05a2.54,2.54,0,0,1-.69,1.48h0l-.05,0h0c-.86.88-.67,2.46-.83,4.46C48,66.2,45.78,76.12,33.55,76.12S19,66.2,18.77,63.05c-.16-2,0-3.58-.83-4.46h0l0,0h0a2.47,2.47,0,0,1-.68-1.48Z"/><path class="cls-7" d="M49.14,57.05l0,0c-1.56-1.39-1.43-3.33-1.64-5.58-.26-2.86-.6-6.43-3.78-9.21A8,8,0,0,0,38.4,40a7.45,7.45,0,0,0-2.29.37,8.58,8.58,0,0,1-5.24,0A7.38,7.38,0,0,0,28.59,40a8,8,0,0,0-5.3,2.21c-3.18,2.78-3.51,6.35-3.78,9.21-.21,2.25-.08,4.19-1.64,5.58l0,0Z"/><path class="cls-7" d="M49.14,57.05l0,0c-1.56,1.36-1.43,3.26-1.64,5.45-.26,2.79-1.65,10.37-14,10.37s-13.71-7.58-14-10.37c-.21-2.19-.08-4.09-1.64-5.44l0,0Z"/><g class="cls-8"><path class="cls-4" d="M33.43,39.28v2a1.48,1.48,0,0,1-.64,1.21,1.68,1.68,0,0,1-1.05.3l-1.38-.07a1.83,1.83,0,0,1-1.06-.39,1.67,1.67,0,0,1-.68-1.41,2.72,2.72,0,0,1,1.21-2.33c1.59-.91,3.32-1.31,3.6.71"/><path class="cls-4" d="M28.49,38.73v2a1.51,1.51,0,0,1-.64,1.21,1.67,1.67,0,0,1-1.05.29l-1.38-.07a1.9,1.9,0,0,1-1.06-.38,1.69,1.69,0,0,1-.68-1.42A2.74,2.74,0,0,1,24.89,38c1.59-.91,3.32-1.3,3.6.72"/><path class="cls-4" d="M33.55,39.28v2a1.48,1.48,0,0,0,.64,1.21,1.68,1.68,0,0,0,1.05.3l1.38-.07a1.83,1.83,0,0,0,1.06-.39,1.67,1.67,0,0,0,.68-1.41,2.72,2.72,0,0,0-1.21-2.33c-1.59-.91-3.32-1.31-3.6.71"/><path class="cls-4" d="M38.49,38.45v2a1.51,1.51,0,0,0,.64,1.21,1.75,1.75,0,0,0,1,.3l1.38-.07a1.91,1.91,0,0,0,1.06-.39,1.69,1.69,0,0,0,.68-1.42,2.74,2.74,0,0,0-1.21-2.33c-1.59-.91-3.32-1.3-3.6.72"/></g><path class="cls-9" d="M43,63.42c1.8,0,3.07-5.2,2.45-6.89-1.37-3.72-3.83-9.08-6.6-9-4.24.12-4,5.09-4,5.09s.39,2.52-1.51,2.52h-.2c-1.9,0-1.51-2.52-1.51-2.52s.25-5-4-5.09c-2.77-.09-5.23,5.27-6.6,9-.62,1.69.65,6.89,2.45,6.89Z"/><path class="cls-10" d="M33.38,59.94c-2.76-1.8-7.29-.48-9.57.37-.9.34-1.42.93-1.37,1.54a10.4,10.4,0,0,0,6,8.85,11.33,11.33,0,0,0,4.52,1,11.81,11.81,0,0,0,4.59-.84,11.09,11.09,0,0,0,6.63-8.59c.12-.67-.4-1.34-1.38-1.73-2.25-.92-6.54-2.25-9.38-.56"/><path class="cls-11" d="M33.38,59.94c-2.76-1.8-7.29-.48-9.57.37-.9.34-1.42.93-1.37,1.54a10.4,10.4,0,0,0,6,8.85,11.33,11.33,0,0,0,4.52,1,11.81,11.81,0,0,0,4.59-.84,11.09,11.09,0,0,0,6.63-8.59c.12-.67-.4-1.34-1.38-1.73C40.51,59.58,36.22,58.25,33.38,59.94Z"/><line class="cls-12" x1="33.38" y1="59.94" x2="33.38" y2="67.17"/><g class="cls-13"><path class="cls-4" d="M33.06,72.13v-2A1.48,1.48,0,0,1,33.7,69a1.65,1.65,0,0,1,1-.3l1.38.07a2,2,0,0,1,1.07.38,1.69,1.69,0,0,1,.68,1.42,2.72,2.72,0,0,1-1.22,2.33c-1.59.91-3.32,1.3-3.6-.72"/><path class="cls-4" d="M38,71.58v-2a1.48,1.48,0,0,1,.64-1.21,1.72,1.72,0,0,1,1-.3l1.38.07a2,2,0,0,1,1.07.39A1.68,1.68,0,0,1,42.82,70a2.7,2.7,0,0,1-1.22,2.32c-1.59.92-3.32,1.31-3.6-.71"/><path class="cls-4" d="M43.15,70.19v-2a1.48,1.48,0,0,1,.64-1.2,1.7,1.7,0,0,1,1.05-.3l1.38.07a1.83,1.83,0,0,1,1.06.39A1.65,1.65,0,0,1,48,68.57a2.74,2.74,0,0,1-1.22,2.33c-1.59.91-3.32,1.31-3.6-.71"/><path class="cls-4" d="M32.94,72.13v-2A1.48,1.48,0,0,0,32.3,69a1.62,1.62,0,0,0-1-.3l-1.37.07a1.93,1.93,0,0,0-1.07.38,1.69,1.69,0,0,0-.68,1.42,2.72,2.72,0,0,0,1.22,2.33c1.59.91,3.31,1.3,3.59-.72"/><path class="cls-4" d="M28,71.86v-2a1.48,1.48,0,0,0-.64-1.2,1.68,1.68,0,0,0-1.05-.3l-1.37.07a1.86,1.86,0,0,0-1.07.39,1.67,1.67,0,0,0-.68,1.41,2.71,2.71,0,0,0,1.22,2.33c1.59.91,3.32,1.3,3.59-.71"/><path class="cls-4" d="M23,70.05v-2a1.48,1.48,0,0,0-.64-1.21,1.68,1.68,0,0,0-1.05-.3l-1.37.07a1.94,1.94,0,0,0-1.07.39,1.67,1.67,0,0,0-.68,1.41,2.71,2.71,0,0,0,1.22,2.33c1.59.92,3.32,1.31,3.59-.71"/></g><path class="cls-14" d="M51.4,72.14c-8.28,0-15,2-15,4.44v6.9C36.4,81,43.12,79,51.4,79Z"/><path class="cls-15" d="M41.72,76.53l6.55,4.78c.49.35,1.1-.08,1.1-.78V79.06h1c8.28,0,12.42,2,12.42,4.47v-7c0-2.47-4.14-4.47-12.42-4.47l-1,0V70.69c0-.7-.61-1.14-1.1-.78l-6.55,4.77a1.23,1.23,0,0,0,0,1.85"/><path class="cls-14" d="M47.74,88.86c8.29,0,15-2,15-4.48V77.44c0,2.47-6.71,4.47-15,4.47Z"/><path class="cls-15" d="M57.42,84.42l-6.55-4.77c-.49-.36-1.1.07-1.1.77V81.9h-1c-8.28,0-12.42-2-12.42-4.48v7c0,2.47,4.14,4.47,12.42,4.47v0h1v1.48c0,.7.61,1.13,1.1.78l6.55-4.78a1.21,1.21,0,0,0,0-1.85"/></g></g></svg>