<svg xmlns="http://www.w3.org/2000/svg" xmlns:xlink="http://www.w3.org/1999/xlink" viewBox="0 0 403.91 109.57"><defs><style>.cls-1,.cls-6,.cls-9{fill:none;}.cls-2{fill:#f1f1ad;}.cls-3{fill:#754d24;}.cls-4{fill:#fff;}.cls-5{opacity:0.5;}.cls-6{stroke:#3bb44a;stroke-width:2.4px;stroke-dasharray:6.09 6.09;}.cls-6,.cls-9{stroke-linecap:round;}.cls-10,.cls-6,.cls-9{stroke-miterlimit:10;}.cls-7{clip-path:url(#clip-path);}.cls-8{fill:#fac5bb;}.cls-9{stroke:#f7a79c;stroke-width:0.82px;}.cls-10{fill:#f39725;stroke:#eb4e27;}</style><clipPath id="clip-path" transform="translate(0)"><path class="cls-1" d="M29.43,22.35A32.09,32.09,0,1,0,40,20.56a32.12,32.12,0,0,0-10.55,1.79"/></clipPath></defs><title>Asset 3</title><g id="Layer_2" data-name="Layer 2"><g id="Layer_1-2" data-name="Layer 1"><path class="cls-2" d="M383.57,16.19c-23-12-97-16.18-155.62-16.19h-.18C169.12,0,95.12,4.21,72.15,16.19S51.91,54.88,51.91,54.88,49.15,83.8,72.15,93.38c22.84,9.51,95.66,16.09,155.08,16.19h1.27c59.42-.09,132.24-6.67,155.08-16.19,23-9.58,20.23-38.49,20.23-38.49S406.57,28.18,383.57,16.19Z" transform="translate(0)"/><path class="cls-3" d="M107.52,31.14V23.27a1.11,1.11,0,0,1,.29-.75,1,1,0,0,1,.8-.33h3.58a.87.87,0,0,1,.7.31,1,1,0,0,1,.24.66v0a1.06,1.06,0,0,1-.24.64.84.84,0,0,1-.69.29h-2.58v2h2.17a1,1,0,0,1,1,1,1,1,0,0,1-.25.67.92.92,0,0,1-.76.31h-2.17v3a1.07,1.07,0,0,1-1.8.81,1,1,0,0,1-.3-.8Z" transform="translate(0)"/><path class="cls-3" d="M114,31.11v-5.5a.88.88,0,0,1,.3-.72,1.15,1.15,0,0,1,.66-.28H115a1.31,1.31,0,0,1,.69.17.72.72,0,0,1,.29.66h0a2.18,2.18,0,0,1,.61-.62,1.47,1.47,0,0,1,.8-.21,1,1,0,0,1,.67.27,1,1,0,0,1,.31.81.6.6,0,0,1-.21.51,2,2,0,0,1-.5.27l-.24.09-.25.1h0a5.35,5.35,0,0,0-.8.48A1,1,0,0,0,116,28v3.09a1.16,1.16,0,0,1-.28.82,1,1,0,0,1-1.45,0,1.12,1.12,0,0,1-.29-.81Z" transform="translate(0)"/><path class="cls-3" d="M122.36,24.53a3.3,3.3,0,0,1,2.6,1.2,4.07,4.07,0,0,1,1,2.72,4,4,0,0,1-1,2.72,3.56,3.56,0,0,1-5.24,0,4,4,0,0,1-1-2.72,4.08,4.08,0,0,1,1-2.72,3.26,3.26,0,0,1,2.6-1.18Zm-1.13,2.41a2.52,2.52,0,0,0-.45,1.2c0,.06,0,.11,0,.16s0,.1,0,.15v.12a.64.64,0,0,0,0,.13,2.48,2.48,0,0,0,.44,1.22,1.44,1.44,0,0,0,2.28,0,2.5,2.5,0,0,0,.44-1.22.65.65,0,0,0,0-.13v-.12s0-.1,0-.15,0-.11,0-.16a2.55,2.55,0,0,0-.46-1.21,1.29,1.29,0,0,0-1.13-.55A1.32,1.32,0,0,0,121.23,26.94Z" transform="translate(0)"/><path class="cls-3" d="M127.17,31.11V25.72a1.13,1.13,0,0,1,.29-.8.94.94,0,0,1,.72-.31,1,1,0,0,1,.63.2.86.86,0,0,1,.29.56,2.52,2.52,0,0,1,.84-.62,2.46,2.46,0,0,1,1-.22,2.56,2.56,0,0,1,2.09,1,3.26,3.26,0,0,1,.6-.52,3.14,3.14,0,0,1,.69-.35l.43-.11a2.05,2.05,0,0,1,.41,0,2.85,2.85,0,0,1,2,.69,2.6,2.6,0,0,1,.76,2v3.86a1.16,1.16,0,0,1-.28.82,1,1,0,0,1-1.45,0,1.12,1.12,0,0,1-.29-.81V27.6a1.51,1.51,0,0,0-.32-1,1.05,1.05,0,0,0-.86-.38,1.07,1.07,0,0,0-.87.38,1.52,1.52,0,0,0-.32,1v3.5a1.16,1.16,0,0,1-.28.82,1,1,0,0,1-1.45,0,1.12,1.12,0,0,1-.29-.81V27.6a1.51,1.51,0,0,0-.31-1,1.2,1.2,0,0,0-1.76,0,1.63,1.63,0,0,0-.29,1v3.5a1.16,1.16,0,0,1-.28.82,1,1,0,0,1-1.45,0,1.12,1.12,0,0,1-.29-.81Z" transform="translate(0)"/><path class="cls-3" d="M143.55,25.72a1.13,1.13,0,0,1,.29-.8.94.94,0,0,1,.72-.31,1,1,0,0,1,.67.22,1.17,1.17,0,0,1,.34.62,1.73,1.73,0,0,1,.76-.66,2.7,2.7,0,0,1,1-.26h.14a2.7,2.7,0,0,1,2.38,1.19,4.87,4.87,0,0,1,.87,2.62v.2a4.21,4.21,0,0,1-.9,2.61,2.88,2.88,0,0,1-2.42,1.18h-.25l-.27,0a3.21,3.21,0,0,1-.69-.22,2.64,2.64,0,0,1-.64-.41v2.45a1.16,1.16,0,0,1-.28.81,1,1,0,0,1-1.45,0,1.15,1.15,0,0,1-.29-.81Zm2,2.64c0,.07,0,.13,0,.18s0,.11,0,.17a2.59,2.59,0,0,0,.45,1.21,1.38,1.38,0,0,0,2.19,0,2.49,2.49,0,0,0,.47-1.16c0-.06,0-.11,0-.17s0-.12,0-.17,0-.11,0-.17,0-.12,0-.17a2.56,2.56,0,0,0-.47-1.18,1.25,1.25,0,0,0-1.07-.53A1.3,1.3,0,0,0,146,27a2.55,2.55,0,0,0-.41,1.31v.08Z" transform="translate(0)"/><path class="cls-3" d="M152.92,21.59a1.17,1.17,0,0,1,.79.34,1,1,0,0,1,.34.78,1.14,1.14,0,0,1-.33.82,1.09,1.09,0,0,1-1.6,0,1.12,1.12,0,0,1-.34-.81,1,1,0,0,1,.34-.77,1.09,1.09,0,0,1,.79-.34Zm-1,9.52V25.72a1.13,1.13,0,0,1,.29-.8,1,1,0,0,1,1.45,0,1.16,1.16,0,0,1,.28.81v5.37a1.15,1.15,0,0,1-.28.82,1,1,0,0,1-1.45,0,1.12,1.12,0,0,1-.29-.81Z" transform="translate(0)"/><path class="cls-3" d="M161.18,25.81s0,.09,0,.13,0,.09,0,.13a1.24,1.24,0,0,1-.26.49.6.6,0,0,1-.48.22h-.17l-.17,0-.2-.06-.2-.08-.41-.13a1.55,1.55,0,0,0-.45-.06,1.42,1.42,0,0,0-1.27.64,2.52,2.52,0,0,0-.42,1.42v.11a2.44,2.44,0,0,0,.48,1.32,1.42,1.42,0,0,0,1.22.6l.27,0,.28-.08.15,0,.15-.06.38-.15a.86.86,0,0,1,.26-.06.82.82,0,0,1,.62.26.86.86,0,0,1,.25.62.91.91,0,0,1-.43.78,3.15,3.15,0,0,1-1,.43,4.29,4.29,0,0,1-.6.12l-.48,0a3.29,3.29,0,0,1-2.62-1.15,4,4,0,0,1-1-2.72,4.08,4.08,0,0,1,1-2.72,3.26,3.26,0,0,1,2.6-1.18l.48,0a4.09,4.09,0,0,1,.55.1,3.09,3.09,0,0,1,1,.39.85.85,0,0,1,.45.76Z" transform="translate(0)"/><path class="cls-3" d="M162.23,31.11V22.49a1.12,1.12,0,0,1,.29-.8,1,1,0,0,1,1.45,0,1.16,1.16,0,0,1,.28.81v4.68L166.45,25a1.6,1.6,0,0,1,.48-.32,1.17,1.17,0,0,1,.43-.1.76.76,0,0,1,.6.27,1,1,0,0,1,.25.6v0a1.07,1.07,0,0,1,0,.27.87.87,0,0,1-.12.26l-.11.13-.13.13L166,27.91l2.37,2.78a.83.83,0,0,1,.15.23,1.7,1.7,0,0,1,.08.23s0,.07,0,.11a.85.85,0,0,1,0,.11.91.91,0,0,1-.27.67.92.92,0,0,1-.68.27.85.85,0,0,1-.34-.07A1.33,1.33,0,0,1,167,32l-.15-.15-.16-.18-2.46-3.05h0v2.45a1.16,1.16,0,0,1-.28.82,1,1,0,0,1-1.45,0,1.12,1.12,0,0,1-.29-.81Z" transform="translate(0)"/><path class="cls-3" d="M170.56,21.59a1.16,1.16,0,0,1,.79.34,1,1,0,0,1,.34.78,1.14,1.14,0,0,1-.33.82,1.09,1.09,0,0,1-1.6,0,1.13,1.13,0,0,1-.34-.81,1,1,0,0,1,.34-.77,1.09,1.09,0,0,1,.79-.34Zm-1,9.52V25.72a1.13,1.13,0,0,1,.29-.8,1,1,0,0,1,1.45,0,1.17,1.17,0,0,1,.28.81v5.37a1.16,1.16,0,0,1-.28.82,1,1,0,0,1-1.45,0,1.12,1.12,0,0,1-.29-.81Z" transform="translate(0)"/><path class="cls-3" d="M173,31.11V25.72a1.13,1.13,0,0,1,.29-.8.94.94,0,0,1,.72-.31,1,1,0,0,1,.63.2.85.85,0,0,1,.29.55,1.85,1.85,0,0,1,.76-.62,2.91,2.91,0,0,1,1.18-.21,2.82,2.82,0,0,1,2,.71,2.58,2.58,0,0,1,.78,2v3.86a1.16,1.16,0,0,1-.28.82,1,1,0,0,1-1.45,0,1.12,1.12,0,0,1-.29-.81V27.6a1.31,1.31,0,0,0-.38-1,1.35,1.35,0,0,0-.93-.34,1.17,1.17,0,0,0-1,.4,1.48,1.48,0,0,0-.34,1v3.5a1.16,1.16,0,0,1-.28.82,1,1,0,0,1-1.45,0,1.12,1.12,0,0,1-.29-.81Z" transform="translate(0)"/><path class="cls-3" d="M188.06,25.72v5.84A3.37,3.37,0,0,1,187,34.29a4.2,4.2,0,0,1-2.8.91,5.39,5.39,0,0,1-.63,0,6.22,6.22,0,0,1-.81-.16,4.63,4.63,0,0,1-1.2-.48.93.93,0,0,1-.54-.82.58.58,0,0,1,0-.12l0-.12a1.1,1.1,0,0,1,.28-.41.82.82,0,0,1,.42-.23h.07a1.39,1.39,0,0,1,.5.1l.57.22c.2.08.43.14.66.21a3,3,0,0,0,.79.1,1.82,1.82,0,0,0,1.22-.41,1.45,1.45,0,0,0,.48-1.17v-.49h0a1.92,1.92,0,0,1-.82.71,2.85,2.85,0,0,1-1.21.24,2.6,2.6,0,0,1-2.35-1.18,4.83,4.83,0,0,1-.76-2.68,4.44,4.44,0,0,1,.9-2.73,2.87,2.87,0,0,1,2.42-1.2h.2l.2,0a2.79,2.79,0,0,1,.83.3,1.6,1.6,0,0,1,.62.59,1.17,1.17,0,0,1,.34-.62,1,1,0,0,1,.67-.22.94.94,0,0,1,.73.31,1.17,1.17,0,0,1,.28.81Zm-2,2.76s0-.1,0-.15,0-.11,0-.17a2.61,2.61,0,0,0-.45-1.21,1.38,1.38,0,0,0-2.19,0,2.5,2.5,0,0,0-.47,1.16c0,.06,0,.11,0,.17s0,.12,0,.17a2.64,2.64,0,0,0,.39,1.44,1.43,1.43,0,0,0,2.34,0,2.55,2.55,0,0,0,.41-1.31v-.08Z" transform="translate(0)"/><path class="cls-3" d="M193.66,29.37V25.72a1.13,1.13,0,0,1,.29-.8,1,1,0,0,1,1.45,0,1.17,1.17,0,0,1,.28.81v3.59a1.21,1.21,0,0,0,.4,1,1.38,1.38,0,0,0,1.81,0,1.2,1.2,0,0,0,.4-1V25.72a1.13,1.13,0,0,1,.29-.8,1,1,0,0,1,1.45,0,1.16,1.16,0,0,1,.28.81v3.63a2.78,2.78,0,0,1-.86,2.15,4.2,4.2,0,0,1-4.91,0,2.76,2.76,0,0,1-.86-2.14Z" transform="translate(0)"/><path class="cls-3" d="M201.79,25.72a1.13,1.13,0,0,1,.29-.8.94.94,0,0,1,.72-.31,1,1,0,0,1,.67.22,1.17,1.17,0,0,1,.34.62,1.73,1.73,0,0,1,.76-.66,2.71,2.71,0,0,1,1-.26h.14a2.7,2.7,0,0,1,2.38,1.19,4.88,4.88,0,0,1,.87,2.62v.2a4.21,4.21,0,0,1-.9,2.61,2.89,2.89,0,0,1-2.42,1.18h-.25l-.27,0a3.22,3.22,0,0,1-.69-.22,2.63,2.63,0,0,1-.64-.41v2.45a1.16,1.16,0,0,1-.28.81,1,1,0,0,1-1.45,0,1.15,1.15,0,0,1-.29-.81Zm2,2.64c0,.07,0,.13,0,.18s0,.11,0,.17a2.6,2.6,0,0,0,.45,1.21,1.27,1.27,0,0,0,1.12.55,1.25,1.25,0,0,0,1.07-.53,2.47,2.47,0,0,0,.47-1.16c0-.06,0-.11,0-.17s0-.12,0-.17,0-.11,0-.17,0-.12,0-.17a2.54,2.54,0,0,0-.47-1.18,1.25,1.25,0,0,0-1.07-.53,1.3,1.3,0,0,0-1.17.59,2.55,2.55,0,0,0-.41,1.31v.08Z" transform="translate(0)"/><path class="cls-3" d="M107.61,47.91V43.26h-.45a.8.8,0,0,1-.64-.22.88.88,0,0,1-.23-.64.87.87,0,0,1,.24-.63.83.83,0,0,1,.62-.25h.45v-1a2.28,2.28,0,0,1,.59-1.69,2.07,2.07,0,0,1,1.52-.59,2.4,2.4,0,0,1,1,.19.71.71,0,0,1,.43.72.9.9,0,0,1-.2.64.84.84,0,0,1-.62.21,1.16,1.16,0,0,0-.46.09q-.21.09-.21.65v.81h.63a1.36,1.36,0,0,1,.74.21.94.94,0,0,1,0,1.35,1.25,1.25,0,0,1-.74.2h-.63v4.65a1.15,1.15,0,0,1-.28.82,1,1,0,0,1-1.45,0,1.12,1.12,0,0,1-.29-.81Z" transform="translate(0)"/><path class="cls-3" d="M115,41.33a3.3,3.3,0,0,1,2.6,1.2,4.08,4.08,0,0,1,1,2.72,4,4,0,0,1-1,2.72,3.56,3.56,0,0,1-5.24,0,4,4,0,0,1-1-2.72,4.08,4.08,0,0,1,1-2.72,3.26,3.26,0,0,1,2.6-1.18Zm-1.13,2.41a2.5,2.5,0,0,0-.46,1.2c0,.06,0,.11,0,.16s0,.1,0,.15v.12a.66.66,0,0,0,0,.13,2.49,2.49,0,0,0,.44,1.22,1.44,1.44,0,0,0,2.28,0,2.52,2.52,0,0,0,.44-1.22.73.73,0,0,0,0-.13v-.12s0-.1,0-.15,0-.11,0-.16a2.55,2.55,0,0,0-.46-1.21,1.29,1.29,0,0,0-1.13-.55A1.32,1.32,0,0,0,113.83,43.74Z" transform="translate(0)"/><path class="cls-3" d="M123.09,41.33a3.3,3.3,0,0,1,2.6,1.2,4.08,4.08,0,0,1,1,2.72,4,4,0,0,1-1,2.72,3.56,3.56,0,0,1-5.24,0,4,4,0,0,1-1-2.72,4.08,4.08,0,0,1,1-2.72,3.26,3.26,0,0,1,2.6-1.18ZM122,43.74a2.53,2.53,0,0,0-.46,1.2q0,.08,0,.16a1.26,1.26,0,0,0,0,.15v.12a.72.72,0,0,0,0,.13,2.49,2.49,0,0,0,.44,1.22,1.44,1.44,0,0,0,2.28,0,2.5,2.5,0,0,0,.44-1.22.65.65,0,0,0,0-.13v-.12s0-.1,0-.15a1.43,1.43,0,0,1,0-.16,2.54,2.54,0,0,0-.46-1.21,1.29,1.29,0,0,0-1.13-.55A1.33,1.33,0,0,0,122,43.74Z" transform="translate(0)"/><path class="cls-3" d="M134.8,39.29v8.62a1.16,1.16,0,0,1-.28.82,1,1,0,0,1-.73.3,1,1,0,0,1-.67-.22,1.17,1.17,0,0,1-.34-.61,1.55,1.55,0,0,1-.62.59,2.92,2.92,0,0,1-.83.29l-.2,0h-.2a2.89,2.89,0,0,1-2.42-1.18,4.2,4.2,0,0,1-.9-2.6v-.2a4.87,4.87,0,0,1,.87-2.61,2.7,2.7,0,0,1,2.38-1.18,3.07,3.07,0,0,1,1,.18,2.62,2.62,0,0,1,.89.52V39.29a1.12,1.12,0,0,1,.29-.8,1,1,0,0,1,1.45,0,1.16,1.16,0,0,1,.28.81Zm-2,5.88V45.1a2.55,2.55,0,0,0-.41-1.31,1.3,1.3,0,0,0-1.17-.59,1.25,1.25,0,0,0-1.07.53,2.56,2.56,0,0,0-.47,1.18c0,.06,0,.11,0,.17s0,.12,0,.17,0,.11,0,.17,0,.12,0,.17a2.49,2.49,0,0,0,.47,1.16,1.25,1.25,0,0,0,1.07.53,1.27,1.27,0,0,0,1.12-.55,2.6,2.6,0,0,0,.45-1.21c0-.06,0-.11,0-.17s0-.11,0-.17Z" transform="translate(0)"/><path class="cls-3" d="M140.89,47.91V43.26h-.45a.8.8,0,0,1-.64-.22.89.89,0,0,1-.23-.64.87.87,0,0,1,.25-.63.83.83,0,0,1,.62-.25h.45V40.3a1.12,1.12,0,0,1,.29-.8,1,1,0,0,1,1.45,0,1.16,1.16,0,0,1,.28.81V41.5h.57a1.27,1.27,0,0,1,.68.21.94.94,0,0,1,0,1.35,1.15,1.15,0,0,1-.68.2h-.57v4.65a1.16,1.16,0,0,1-.28.82,1,1,0,0,1-1.45,0,1.12,1.12,0,0,1-.29-.81Z" transform="translate(0)"/><path class="cls-3" d="M148.21,41.33a3.3,3.3,0,0,1,2.6,1.2,4.08,4.08,0,0,1,1,2.72,4,4,0,0,1-1,2.72,3.56,3.56,0,0,1-5.24,0,4,4,0,0,1-1-2.72,4.08,4.08,0,0,1,1-2.72,3.26,3.26,0,0,1,2.6-1.18Zm-1.13,2.41a2.5,2.5,0,0,0-.46,1.2c0,.06,0,.11,0,.16s0,.1,0,.15v.12a.66.66,0,0,0,0,.13,2.49,2.49,0,0,0,.44,1.22,1.44,1.44,0,0,0,2.28,0,2.52,2.52,0,0,0,.44-1.22.73.73,0,0,0,0-.13v-.12s0-.1,0-.15,0-.11,0-.16a2.55,2.55,0,0,0-.46-1.21,1.29,1.29,0,0,0-1.13-.55A1.32,1.32,0,0,0,147.08,43.74Z" transform="translate(0)"/><path class="cls-3" d="M157.13,42.52a1.13,1.13,0,0,1,.29-.8.94.94,0,0,1,.72-.31,1,1,0,0,1,.66.22,1.18,1.18,0,0,1,.34.62,1.72,1.72,0,0,1,.76-.66,2.7,2.7,0,0,1,1-.26h.14a2.7,2.7,0,0,1,2.38,1.19,4.88,4.88,0,0,1,.87,2.62v.2a4.21,4.21,0,0,1-.9,2.61A2.88,2.88,0,0,1,161,49.12h-.25l-.27,0a3.19,3.19,0,0,1-.69-.22,2.62,2.62,0,0,1-.64-.41v2.45a1.16,1.16,0,0,1-.28.81,1,1,0,0,1-1.45,0,1.14,1.14,0,0,1-.29-.81Zm2,2.64c0,.07,0,.13,0,.18s0,.11,0,.17a2.6,2.6,0,0,0,.45,1.21,1.27,1.27,0,0,0,1.12.55,1.25,1.25,0,0,0,1.07-.53,2.47,2.47,0,0,0,.47-1.16c0-.06,0-.11,0-.17s0-.12,0-.17,0-.11,0-.17,0-.12,0-.17a2.54,2.54,0,0,0-.47-1.18,1.25,1.25,0,0,0-1.07-.53,1.3,1.3,0,0,0-1.17.59,2.55,2.55,0,0,0-.41,1.31v.08Z" transform="translate(0)"/><path class="cls-3" d="M165.49,47.91V39.29a1.12,1.12,0,0,1,.29-.8,1,1,0,0,1,1.45,0,1.16,1.16,0,0,1,.28.81v8.61a1.16,1.16,0,0,1-.28.82,1,1,0,0,1-1.45,0,1.12,1.12,0,0,1-.29-.81Z" transform="translate(0)"/><path class="cls-3" d="M175.86,42.72v5.22a2.06,2.06,0,0,1,0,.24,1.29,1.29,0,0,1-.23.59.83.83,0,0,1-.72.27.84.84,0,0,1-.64-.22,1.46,1.46,0,0,1-.32-.62,2.68,2.68,0,0,1-.87.69,2.38,2.38,0,0,1-1.05.23A3,3,0,0,1,169.64,48a4.06,4.06,0,0,1-1-2.78,4.11,4.11,0,0,1,1-2.79A3,3,0,0,1,172,41.33a2.61,2.61,0,0,1,1.07.23,2,2,0,0,1,.85.71.92.92,0,0,1,.32-.61,1,1,0,0,1,.64-.24.82.82,0,0,1,.72.27,1.34,1.34,0,0,1,.23.6,2.08,2.08,0,0,1,0,.24v.21Zm-5.17,2.52v.13a.73.73,0,0,0,0,.13,2.49,2.49,0,0,0,.44,1.22,1.3,1.3,0,0,0,1.14.56,1.25,1.25,0,0,0,1.11-.56,2.52,2.52,0,0,0,.43-1.22.64.64,0,0,0,0-.13v-.12s0-.1,0-.15,0-.11,0-.16a2.56,2.56,0,0,0-.45-1.2,1.25,1.25,0,0,0-1.09-.55,1.29,1.29,0,0,0-1.13.55,2.51,2.51,0,0,0-.46,1.2c0,.06,0,.11,0,.16s0,.1,0,.15Z" transform="translate(0)"/><path class="cls-3" d="M183.14,42.61s0,.09,0,.13,0,.09,0,.13a1.25,1.25,0,0,1-.26.49.6.6,0,0,1-.48.22h-.17l-.17,0-.2-.06-.2-.08-.41-.13a1.55,1.55,0,0,0-.45-.06,1.42,1.42,0,0,0-1.27.64,2.52,2.52,0,0,0-.42,1.42v.11a2.43,2.43,0,0,0,.48,1.32,1.42,1.42,0,0,0,1.22.6l.27,0,.28-.08.15,0,.15-.06.38-.15a.86.86,0,0,1,.26-.06.83.83,0,0,1,.62.26.86.86,0,0,1,.25.62.9.9,0,0,1-.43.78,3.14,3.14,0,0,1-1,.43,4.26,4.26,0,0,1-.6.12l-.48,0A3.29,3.29,0,0,1,178.06,48a4,4,0,0,1-1-2.72,4.08,4.08,0,0,1,1-2.72,3.26,3.26,0,0,1,2.6-1.18l.48,0a4,4,0,0,1,.54.1,3.08,3.08,0,0,1,1,.39.85.85,0,0,1,.45.76Z" transform="translate(0)"/><path class="cls-3" d="M185.17,38.39a1.17,1.17,0,0,1,.79.34,1,1,0,0,1,.34.78,1.14,1.14,0,0,1-.33.82,1.09,1.09,0,0,1-1.6,0,1.12,1.12,0,0,1-.34-.81,1,1,0,0,1,.34-.77,1.09,1.09,0,0,1,.79-.34Zm-1,9.52V42.52a1.13,1.13,0,0,1,.29-.8,1,1,0,0,1,1.45,0,1.16,1.16,0,0,1,.28.81v5.37a1.16,1.16,0,0,1-.28.82,1,1,0,0,1-1.45,0,1.12,1.12,0,0,1-.29-.81Z" transform="translate(0)"/><path class="cls-3" d="M187.65,47.91V42.52a1.13,1.13,0,0,1,.29-.8.94.94,0,0,1,.72-.31,1,1,0,0,1,.63.2.85.85,0,0,1,.29.55,1.87,1.87,0,0,1,.76-.62,2.91,2.91,0,0,1,1.18-.21,2.82,2.82,0,0,1,2,.71,2.58,2.58,0,0,1,.78,2v3.86a1.16,1.16,0,0,1-.28.82,1,1,0,0,1-1.45,0,1.12,1.12,0,0,1-.29-.81V44.4a1.31,1.31,0,0,0-.38-1A1.35,1.35,0,0,0,191,43a1.18,1.18,0,0,0-1,.4,1.48,1.48,0,0,0-.34,1v3.5a1.15,1.15,0,0,1-.28.82,1,1,0,0,1-1.45,0,1.12,1.12,0,0,1-.29-.81Z" transform="translate(0)"/><path class="cls-3" d="M202.67,42.52v5.84a3.37,3.37,0,0,1-1.08,2.73,4.19,4.19,0,0,1-2.8.91,5.39,5.39,0,0,1-.63,0,6.22,6.22,0,0,1-.81-.16,4.63,4.63,0,0,1-1.2-.48.93.93,0,0,1-.54-.82.58.58,0,0,1,0-.12l0-.12a1.1,1.1,0,0,1,.28-.41.82.82,0,0,1,.42-.23h.07a1.39,1.39,0,0,1,.5.1l.57.22c.21.08.43.14.66.21a3,3,0,0,0,.79.1,1.82,1.82,0,0,0,1.22-.41,1.45,1.45,0,0,0,.48-1.17v-.49h0a1.92,1.92,0,0,1-.82.71,2.85,2.85,0,0,1-1.21.24,2.6,2.6,0,0,1-2.35-1.18,4.83,4.83,0,0,1-.76-2.68,4.44,4.44,0,0,1,.9-2.73,2.87,2.87,0,0,1,2.42-1.2h.2l.2,0a2.79,2.79,0,0,1,.83.3,1.6,1.6,0,0,1,.62.59,1.17,1.17,0,0,1,.34-.62,1,1,0,0,1,.66-.22.94.94,0,0,1,.73.31,1.17,1.17,0,0,1,.28.81Zm-2,2.76s0-.1,0-.15,0-.11,0-.17a2.61,2.61,0,0,0-.45-1.21,1.38,1.38,0,0,0-2.19,0,2.5,2.5,0,0,0-.47,1.16c0,.06,0,.11,0,.17s0,.12,0,.17a2.64,2.64,0,0,0,.39,1.44,1.43,1.43,0,0,0,2.34,0,2.55,2.55,0,0,0,.41-1.31v-.08Z" transform="translate(0)"/><path class="cls-3" d="M209.25,38.39a1.17,1.17,0,0,1,.79.34,1,1,0,0,1,.34.78,1.14,1.14,0,0,1-.33.82,1.09,1.09,0,0,1-1.6,0,1.13,1.13,0,0,1-.34-.81,1,1,0,0,1,.34-.77,1.09,1.09,0,0,1,.79-.34Zm-1,9.52V42.52a1.13,1.13,0,0,1,.29-.8,1,1,0,0,1,1.45,0,1.16,1.16,0,0,1,.28.81v5.37a1.16,1.16,0,0,1-.28.82,1,1,0,0,1-1.45,0,1.12,1.12,0,0,1-.29-.81Z" transform="translate(0)"/><path class="cls-3" d="M212.22,47.91V43.26h-.45a.8.8,0,0,1-.64-.22.89.89,0,0,1-.23-.64.87.87,0,0,1,.25-.63.83.83,0,0,1,.62-.25h.45V40.3a1.12,1.12,0,0,1,.29-.8,1,1,0,0,1,1.45,0,1.16,1.16,0,0,1,.28.81V41.5h.57a1.27,1.27,0,0,1,.68.21.94.94,0,0,1,0,1.35,1.15,1.15,0,0,1-.68.2h-.57v4.65a1.16,1.16,0,0,1-.28.82,1,1,0,0,1-1.45,0,1.12,1.12,0,0,1-.29-.81Z" transform="translate(0)"/><path class="cls-3" d="M223.64,41.33a3.3,3.3,0,0,1,2.6,1.2,4.07,4.07,0,0,1,1,2.72,4,4,0,0,1-1,2.72A3.56,3.56,0,0,1,221,48a4,4,0,0,1-1-2.72,4.07,4.07,0,0,1,1-2.72,3.26,3.26,0,0,1,2.6-1.18Zm-1.13,2.41a2.52,2.52,0,0,0-.46,1.2c0,.06,0,.11,0,.16s0,.1,0,.15v.12a.72.72,0,0,0,0,.13,2.5,2.5,0,0,0,.44,1.22,1.44,1.44,0,0,0,2.28,0,2.49,2.49,0,0,0,.44-1.22.66.66,0,0,0,0-.13v-.12s0-.1,0-.15,0-.11,0-.16a2.54,2.54,0,0,0-.46-1.21,1.29,1.29,0,0,0-1.13-.55A1.33,1.33,0,0,0,222.51,43.74Z" transform="translate(0)"/><path class="cls-3" d="M228.46,47.91V42.52a1.13,1.13,0,0,1,.29-.8.94.94,0,0,1,.72-.31,1,1,0,0,1,.63.2.85.85,0,0,1,.29.55,1.87,1.87,0,0,1,.76-.62,2.91,2.91,0,0,1,1.18-.21,2.82,2.82,0,0,1,2,.71,2.58,2.58,0,0,1,.78,2v3.86a1.16,1.16,0,0,1-.28.82,1,1,0,0,1-1.45,0,1.12,1.12,0,0,1-.29-.81V44.4a1.31,1.31,0,0,0-.39-1,1.35,1.35,0,0,0-.93-.34,1.18,1.18,0,0,0-1,.4,1.48,1.48,0,0,0-.34,1v3.5a1.15,1.15,0,0,1-.28.82,1,1,0,0,1-1.45,0,1.12,1.12,0,0,1-.29-.81Z" transform="translate(0)"/><path class="cls-3" d="M107.64,64.71V60.06h-.45a.81.81,0,0,1-.64-.22.89.89,0,0,1-.23-.64.87.87,0,0,1,.25-.63.83.83,0,0,1,.62-.25h.45V57.1a1.13,1.13,0,0,1,.29-.8,1,1,0,0,1,1.45,0,1.16,1.16,0,0,1,.28.81V58.3h.57a1.27,1.27,0,0,1,.68.21.94.94,0,0,1,0,1.35,1.16,1.16,0,0,1-.68.2h-.57v4.65a1.15,1.15,0,0,1-.28.82,1,1,0,0,1-1.45,0,1.12,1.12,0,0,1-.29-.8Z" transform="translate(0)"/><path class="cls-3" d="M111.64,64.71V56.09a1.13,1.13,0,0,1,.29-.8,1,1,0,0,1,1.45,0,1.17,1.17,0,0,1,.28.81v2.73h0a1.6,1.6,0,0,1,.55-.42,2.53,2.53,0,0,1,.69-.21l.3,0h.29a2.82,2.82,0,0,1,2,.71,2.57,2.57,0,0,1,.78,2v3.85a1.15,1.15,0,0,1-.28.82,1,1,0,0,1-1.45,0,1.12,1.12,0,0,1-.29-.8V61.2a1.31,1.31,0,0,0-.38-1,1.35,1.35,0,0,0-.93-.34,1.17,1.17,0,0,0-1,.4,1.48,1.48,0,0,0-.34,1v3.5a1.16,1.16,0,0,1-.28.82,1,1,0,0,1-1.45,0,1.12,1.12,0,0,1-.29-.8Z" transform="translate(0)"/><path class="cls-3" d="M121.4,62.7a1.52,1.52,0,0,0,.66,1.11,2.23,2.23,0,0,0,1.25.36A2,2,0,0,0,124,64a5,5,0,0,0,.61-.28l.52-.28a.94.94,0,0,1,.43-.13.76.76,0,0,1,.57.27.86.86,0,0,1,.25.6q0,.56-.83,1a5,5,0,0,1-1.82.62l-.33,0h-.32a3.6,3.6,0,0,1-2.74-1.1,3.86,3.86,0,0,1-1-2.76,4.08,4.08,0,0,1,1-2.72,3.27,3.27,0,0,1,2.6-1.18,3.23,3.23,0,0,1,2.36.93,4.13,4.13,0,0,1,1.2,2c0,.11,0,.23,0,.34a2.72,2.72,0,0,1,0,.34,1,1,0,0,1-.21.67.88.88,0,0,1-.67.22Zm3.16-1.34a1.91,1.91,0,0,0-.5-1.09,1.6,1.6,0,0,0-2.21,0,1.8,1.8,0,0,0-.5,1.08Z" transform="translate(0)"/><path class="cls-3" d="M131.75,64.71V59.32a1.12,1.12,0,0,1,.29-.8.94.94,0,0,1,.72-.31,1,1,0,0,1,.63.2.86.86,0,0,1,.29.56,2.54,2.54,0,0,1,.84-.62,2.47,2.47,0,0,1,1-.22,2.56,2.56,0,0,1,2.09,1,3.3,3.3,0,0,1,1.29-.87l.43-.11a2.11,2.11,0,0,1,.41,0,2.85,2.85,0,0,1,2,.69,2.61,2.61,0,0,1,.76,2v3.86a1.16,1.16,0,0,1-.28.82,1,1,0,0,1-1.45,0,1.12,1.12,0,0,1-.29-.8V61.2a1.51,1.51,0,0,0-.31-1,1.05,1.05,0,0,0-.86-.38,1.07,1.07,0,0,0-.87.38,1.54,1.54,0,0,0-.31,1v3.5a1.16,1.16,0,0,1-.28.82,1,1,0,0,1-1.45,0,1.12,1.12,0,0,1-.29-.8V61.2a1.51,1.51,0,0,0-.32-1,1.2,1.2,0,0,0-1.76,0,1.63,1.63,0,0,0-.29,1v3.5a1.15,1.15,0,0,1-.28.82,1,1,0,0,1-1.45,0,1.12,1.12,0,0,1-.29-.81Z" transform="translate(0)"/><path class="cls-3" d="M147.34,58.13a3.31,3.31,0,0,1,2.6,1.2,4.08,4.08,0,0,1,1,2.72,4,4,0,0,1-1,2.72,3.56,3.56,0,0,1-5.24,0,4,4,0,0,1-1-2.72,4.08,4.08,0,0,1,1-2.72,3.26,3.26,0,0,1,2.6-1.18Zm-1.13,2.41a2.53,2.53,0,0,0-.46,1.2c0,.06,0,.11,0,.16a1.31,1.31,0,0,0,0,.15v.12a.73.73,0,0,0,0,.13,2.49,2.49,0,0,0,.44,1.22,1.44,1.44,0,0,0,2.28,0,2.5,2.5,0,0,0,.44-1.22.64.64,0,0,0,0-.13V62s0-.1,0-.15a1.4,1.4,0,0,1,0-.16,2.53,2.53,0,0,0-.45-1.21,1.29,1.29,0,0,0-1.13-.55A1.33,1.33,0,0,0,146.21,60.54Z" transform="translate(0)"/><path class="cls-3" d="M152.16,63V59.32a1.12,1.12,0,0,1,.29-.8,1,1,0,0,1,1.45,0,1.16,1.16,0,0,1,.28.81v3.59a1.22,1.22,0,0,0,.4,1,1.38,1.38,0,0,0,1.81,0,1.2,1.2,0,0,0,.4-1V59.33a1.13,1.13,0,0,1,.29-.8,1,1,0,0,1,1.45,0,1.16,1.16,0,0,1,.28.81V63a2.78,2.78,0,0,1-.86,2.15,4.21,4.21,0,0,1-4.91,0,2.76,2.76,0,0,1-.86-2.14Z" transform="translate(0)"/><path class="cls-3" d="M160.78,64.71V60.06h-.45a.81.81,0,0,1-.64-.22.88.88,0,0,1-.23-.64.87.87,0,0,1,.24-.63.83.83,0,0,1,.62-.25h.45V57.1a1.13,1.13,0,0,1,.29-.8,1,1,0,0,1,1.45,0,1.16,1.16,0,0,1,.28.81V58.3h.57a1.27,1.27,0,0,1,.68.21.94.94,0,0,1,0,1.35,1.16,1.16,0,0,1-.68.2h-.57v4.65a1.15,1.15,0,0,1-.28.82,1,1,0,0,1-1.45,0,1.12,1.12,0,0,1-.29-.8Z" transform="translate(0)"/><path class="cls-3" d="M164.79,64.71V56.09a1.12,1.12,0,0,1,.29-.8,1,1,0,0,1,1.45,0,1.16,1.16,0,0,1,.28.81v2.73h0a1.61,1.61,0,0,1,.55-.42,2.54,2.54,0,0,1,.69-.21l.3,0h.29a2.83,2.83,0,0,1,2,.71,2.57,2.57,0,0,1,.78,2v3.85a1.15,1.15,0,0,1-.28.82,1,1,0,0,1-1.45,0,1.12,1.12,0,0,1-.29-.8V61.2a1.31,1.31,0,0,0-.38-1,1.35,1.35,0,0,0-.93-.34,1.17,1.17,0,0,0-1,.4,1.48,1.48,0,0,0-.34,1v3.5a1.16,1.16,0,0,1-.28.82,1,1,0,0,1-1.45,0,1.12,1.12,0,0,1-.29-.8Z" transform="translate(0)"/><path class="cls-3" d="M178.46,64.81,176.76,60c-.06-.15-.1-.29-.13-.41a2,2,0,0,1-.06-.35.27.27,0,0,1,0-.09V59a.72.72,0,0,1,.29-.58,1.09,1.09,0,0,1,.72-.24.91.91,0,0,1,.62.22,1,1,0,0,1,.34.58l1.16,3.84h0l1.18-3.77a1.43,1.43,0,0,1,.35-.63,1.08,1.08,0,0,1,1.35,0,1.47,1.47,0,0,1,.34.64l1.18,3.75h0L185.28,59a1,1,0,0,1,.34-.57.91.91,0,0,1,.62-.22,1,1,0,0,1,.73.26.94.94,0,0,1,.28.72,1,1,0,0,1-.06.34c0,.12-.09.25-.13.41l-1.72,4.85a1.9,1.9,0,0,1-.44.74,1,1,0,0,1-.78.29,1.09,1.09,0,0,1-.74-.25,1.47,1.47,0,0,1-.42-.68l-1-3.26h0l-1,3.25a1.47,1.47,0,0,1-.42.69,1.09,1.09,0,0,1-.74.25,1,1,0,0,1-.78-.29,1.9,1.9,0,0,1-.44-.72Z" transform="translate(0)"/><path class="cls-3" d="M189.24,55.19a1.17,1.17,0,0,1,.79.34,1,1,0,0,1,.34.78,1.14,1.14,0,0,1-.33.82,1.09,1.09,0,0,1-1.6,0,1.12,1.12,0,0,1-.34-.81,1,1,0,0,1,.34-.77,1.1,1.1,0,0,1,.79-.34Zm-1,9.52V59.32a1.12,1.12,0,0,1,.29-.8,1,1,0,0,1,1.45,0,1.16,1.16,0,0,1,.28.81v5.37a1.16,1.16,0,0,1-.28.82,1,1,0,0,1-1.45,0,1.12,1.12,0,0,1-.29-.81Z" transform="translate(0)"/><path class="cls-3" d="M192.21,64.71V60.06h-.45a.81.81,0,0,1-.64-.22.89.89,0,0,1-.23-.64.87.87,0,0,1,.25-.63.83.83,0,0,1,.62-.25h.45V57.1a1.13,1.13,0,0,1,.29-.8,1,1,0,0,1,1.45,0,1.16,1.16,0,0,1,.28.81V58.3h.57a1.27,1.27,0,0,1,.68.21.94.94,0,0,1,0,1.35,1.16,1.16,0,0,1-.68.2h-.57v4.65a1.16,1.16,0,0,1-.28.82,1,1,0,0,1-1.45,0,1.12,1.12,0,0,1-.29-.8Z" transform="translate(0)"/><path class="cls-3" d="M196.22,64.71V56.09a1.13,1.13,0,0,1,.29-.8,1,1,0,0,1,1.45,0,1.17,1.17,0,0,1,.28.81v2.73h0a1.6,1.6,0,0,1,.55-.42,2.53,2.53,0,0,1,.69-.21l.3,0h.29a2.82,2.82,0,0,1,2,.71,2.57,2.57,0,0,1,.78,2v3.85a1.16,1.16,0,0,1-.28.82,1,1,0,0,1-1.45,0,1.11,1.11,0,0,1-.29-.8V61.2a1.31,1.31,0,0,0-.38-1,1.35,1.35,0,0,0-.93-.34,1.17,1.17,0,0,0-1,.4,1.48,1.48,0,0,0-.34,1v3.5a1.16,1.16,0,0,1-.28.82,1,1,0,0,1-1.45,0,1.12,1.12,0,0,1-.29-.8Z" transform="translate(0)"/><path class="cls-3" d="M215.34,59.52v5.22a2.29,2.29,0,0,1,0,.24,1.29,1.29,0,0,1-.23.59.83.83,0,0,1-.72.27.85.85,0,0,1-.64-.22,1.48,1.48,0,0,1-.32-.62,2.69,2.69,0,0,1-.87.69,2.38,2.38,0,0,1-1,.23,3,3,0,0,1-2.37-1.09,4.05,4.05,0,0,1-1-2.78,4.11,4.11,0,0,1,1-2.79,3,3,0,0,1,2.36-1.12,2.61,2.61,0,0,1,1.07.23,2,2,0,0,1,.85.71.92.92,0,0,1,.32-.61,1,1,0,0,1,.64-.24.82.82,0,0,1,.72.27,1.35,1.35,0,0,1,.23.6,2.29,2.29,0,0,1,0,.24v.21ZM210.17,62v.13a.73.73,0,0,0,0,.13,2.5,2.5,0,0,0,.44,1.22,1.29,1.29,0,0,0,1.14.56,1.25,1.25,0,0,0,1.11-.56,2.53,2.53,0,0,0,.43-1.22.66.66,0,0,0,0-.13v-.12s0-.1,0-.15,0-.11,0-.16a2.56,2.56,0,0,0-.45-1.2,1.25,1.25,0,0,0-1.09-.55,1.29,1.29,0,0,0-1.13.55,2.52,2.52,0,0,0-.46,1.2c0,.06,0,.11,0,.16s0,.1,0,.15Z" transform="translate(0)"/><path class="cls-3" d="M221.4,64.71V60.06H221a.81.81,0,0,1-.64-.22.88.88,0,0,1-.23-.64.87.87,0,0,1,.25-.63.83.83,0,0,1,.62-.25h.45v-1a2.28,2.28,0,0,1,.59-1.69,2.07,2.07,0,0,1,1.52-.59,2.4,2.4,0,0,1,1,.19.71.71,0,0,1,.43.72.89.89,0,0,1-.2.64.83.83,0,0,1-.62.21,1.15,1.15,0,0,0-.46.09q-.21.09-.21.65v.81H224a1.37,1.37,0,0,1,.74.21.94.94,0,0,1,0,1.35,1.26,1.26,0,0,1-.74.2h-.63v4.65a1.15,1.15,0,0,1-.28.82,1,1,0,0,1-1.45,0,1.12,1.12,0,0,1-.29-.8Z" transform="translate(0)"/><path class="cls-3" d="M226.41,55.19a1.17,1.17,0,0,1,.79.34,1,1,0,0,1,.34.78,1.14,1.14,0,0,1-.33.82,1.09,1.09,0,0,1-1.6,0,1.12,1.12,0,0,1-.34-.81,1.05,1.05,0,0,1,.34-.77,1.1,1.1,0,0,1,.79-.34Zm-1,9.52V59.32a1.12,1.12,0,0,1,.29-.8,1,1,0,0,1,1.45,0,1.16,1.16,0,0,1,.28.81v5.37a1.16,1.16,0,0,1-.28.82,1,1,0,0,1-1.45,0,1.12,1.12,0,0,1-.29-.81Z" transform="translate(0)"/><path class="cls-3" d="M228.89,64.71V59.32a1.12,1.12,0,0,1,.29-.8.94.94,0,0,1,.72-.31,1,1,0,0,1,.63.2.86.86,0,0,1,.29.55,1.86,1.86,0,0,1,.76-.62,2.9,2.9,0,0,1,1.18-.21,2.82,2.82,0,0,1,2,.72,2.58,2.58,0,0,1,.78,2v3.86a1.16,1.16,0,0,1-.28.82,1,1,0,0,1-1.45,0,1.12,1.12,0,0,1-.29-.8V61.2a1.31,1.31,0,0,0-.39-1,1.35,1.35,0,0,0-.93-.34,1.17,1.17,0,0,0-1,.4,1.48,1.48,0,0,0-.34,1v3.5a1.15,1.15,0,0,1-.28.82,1,1,0,0,1-1.45,0,1.12,1.12,0,0,1-.29-.81Z" transform="translate(0)"/><path class="cls-3" d="M238.65,62.7a1.52,1.52,0,0,0,.66,1.11,2.23,2.23,0,0,0,1.25.36,2,2,0,0,0,.72-.13,4.93,4.93,0,0,0,.61-.28l.52-.28a.94.94,0,0,1,.43-.13.76.76,0,0,1,.57.27.86.86,0,0,1,.25.6q0,.56-.83,1a5,5,0,0,1-1.82.62l-.33,0h-.32a3.6,3.6,0,0,1-2.74-1.1,3.86,3.86,0,0,1-1-2.76,4.07,4.07,0,0,1,1-2.72,3.46,3.46,0,0,1,5-.25,4.13,4.13,0,0,1,1.2,2c0,.11,0,.23,0,.34a2.92,2.92,0,0,1,0,.34,1,1,0,0,1-.21.67.88.88,0,0,1-.67.22Zm3.16-1.34a1.91,1.91,0,0,0-.5-1.09,1.6,1.6,0,0,0-2.21,0,1.79,1.79,0,0,0-.5,1.08Z" transform="translate(0)"/><path class="cls-3" d="M107.15,76.12a1.12,1.12,0,0,1,.29-.8.94.94,0,0,1,.72-.31,1,1,0,0,1,.67.22,1.17,1.17,0,0,1,.34.62,1.73,1.73,0,0,1,.76-.67,2.72,2.72,0,0,1,1-.26h.14a2.7,2.7,0,0,1,2.38,1.19,4.88,4.88,0,0,1,.87,2.62v.2a4.21,4.21,0,0,1-.9,2.61A2.88,2.88,0,0,1,111,82.72h-.25l-.27,0a3.26,3.26,0,0,1-.69-.22,2.64,2.64,0,0,1-.64-.41v2.45a1.16,1.16,0,0,1-.28.81,1,1,0,0,1-1.45,0,1.14,1.14,0,0,1-.29-.81Zm2,2.64a1.75,1.75,0,0,0,0,.18c0,.06,0,.11,0,.17a2.61,2.61,0,0,0,.45,1.21,1.27,1.27,0,0,0,1.12.55,1.25,1.25,0,0,0,1.07-.52,2.48,2.48,0,0,0,.47-1.16c0-.06,0-.11,0-.17s0-.12,0-.17,0-.11,0-.18,0-.12,0-.17a2.53,2.53,0,0,0-.47-1.18,1.25,1.25,0,0,0-1.07-.53,1.3,1.3,0,0,0-1.17.59,2.55,2.55,0,0,0-.41,1.31v.08Z" transform="translate(0)"/><path class="cls-3" d="M116.51,72a1.17,1.17,0,0,1,.79.34,1,1,0,0,1,.34.78,1.14,1.14,0,0,1-.33.82,1.09,1.09,0,0,1-1.6,0,1.13,1.13,0,0,1-.34-.81,1.05,1.05,0,0,1,.34-.77,1.1,1.1,0,0,1,.79-.34Zm-1,9.52V76.12a1.12,1.12,0,0,1,.29-.8,1,1,0,0,1,1.45,0,1.16,1.16,0,0,1,.28.81v5.37a1.16,1.16,0,0,1-.28.82,1,1,0,0,1-1.45,0,1.12,1.12,0,0,1-.29-.81Z" transform="translate(0)"/><path class="cls-3" d="M119,81.51V76.12a1.12,1.12,0,0,1,.29-.8A.94.94,0,0,1,120,75a1,1,0,0,1,.63.2.85.85,0,0,1,.29.55,1.85,1.85,0,0,1,.76-.62,2.89,2.89,0,0,1,1.18-.21,2.82,2.82,0,0,1,2,.72,2.58,2.58,0,0,1,.78,2v3.86a1.16,1.16,0,0,1-.28.82,1,1,0,0,1-1.45,0,1.12,1.12,0,0,1-.29-.8V78a1.31,1.31,0,0,0-.38-1,1.35,1.35,0,0,0-.93-.34,1.17,1.17,0,0,0-1,.4,1.48,1.48,0,0,0-.34,1v3.5a1.16,1.16,0,0,1-.28.82,1,1,0,0,1-.73.3,1,1,0,0,1-.72-.3,1.12,1.12,0,0,1-.29-.81Z" transform="translate(0)"/><path class="cls-3" d="M132.91,76.21a1.14,1.14,0,0,1,0,.13s0,.09,0,.13a1.26,1.26,0,0,1-.26.49.61.61,0,0,1-.48.22H132l-.17,0-.2-.06-.2-.08-.41-.13a1.56,1.56,0,0,0-.45-.06,1.42,1.42,0,0,0-1.27.64,2.53,2.53,0,0,0-.42,1.42V79a2.44,2.44,0,0,0,.48,1.32,1.42,1.42,0,0,0,1.22.59l.27,0,.28-.08.15,0,.15-.06.38-.15a.87.87,0,0,1,.26-.06.83.83,0,0,1,.62.26.86.86,0,0,1,.25.62.9.9,0,0,1-.43.78,3.15,3.15,0,0,1-1,.43,4.24,4.24,0,0,1-.59.12l-.48,0a3.29,3.29,0,0,1-2.62-1.15,4,4,0,0,1-1-2.72,4.08,4.08,0,0,1,1-2.72,3.26,3.26,0,0,1,2.6-1.18l.48,0a4.05,4.05,0,0,1,.55.1,3.08,3.08,0,0,1,1,.38.85.85,0,0,1,.45.76Z" transform="translate(0)"/><path class="cls-3" d="M135.58,79.5a1.52,1.52,0,0,0,.66,1.11,2.23,2.23,0,0,0,1.25.36,2,2,0,0,0,.72-.13,5,5,0,0,0,.61-.28l.52-.28a.94.94,0,0,1,.43-.13.76.76,0,0,1,.57.27.86.86,0,0,1,.25.6q0,.56-.83,1a5,5,0,0,1-1.82.62l-.33,0h-.32a3.6,3.6,0,0,1-2.74-1.1,3.86,3.86,0,0,1-1-2.76,4.08,4.08,0,0,1,1-2.72,3.27,3.27,0,0,1,2.6-1.18,3.23,3.23,0,0,1,2.36.93,4.13,4.13,0,0,1,1.2,2c0,.11,0,.23,0,.34a2.72,2.72,0,0,1,0,.34,1,1,0,0,1-.21.67.88.88,0,0,1-.67.22Zm3.16-1.34a1.91,1.91,0,0,0-.5-1.09,1.6,1.6,0,0,0-2.21,0,1.8,1.8,0,0,0-.5,1.08Z" transform="translate(0)"/><path class="cls-3" d="M141.8,81.51V76a.88.88,0,0,1,.3-.71,1.15,1.15,0,0,1,.66-.28h.07a1.3,1.3,0,0,1,.69.18.71.71,0,0,1,.29.67h0a2.17,2.17,0,0,1,.61-.62,1.46,1.46,0,0,1,.8-.21,1,1,0,0,1,.67.27,1,1,0,0,1,.31.81.6.6,0,0,1-.21.51,2,2,0,0,1-.5.27l-.24.09-.25.11h0a5.43,5.43,0,0,0-.8.48,1,1,0,0,0-.37.86v3.08a1.16,1.16,0,0,1-.28.82,1,1,0,0,1-1.45,0,1.12,1.12,0,0,1-.29-.81Z" transform="translate(0)"/><path class="cls-3" d="M157.83,76.12V82a3.37,3.37,0,0,1-1.08,2.73,4.19,4.19,0,0,1-2.8.91,5.2,5.2,0,0,1-.63,0,5.91,5.91,0,0,1-.81-.16,4.6,4.6,0,0,1-1.2-.48.93.93,0,0,1-.54-.82.59.59,0,0,1,0-.12l0-.12a1.1,1.1,0,0,1,.28-.41.83.83,0,0,1,.42-.23h.07a1.39,1.39,0,0,1,.5.1l.57.22.66.21a3,3,0,0,0,.79.1,1.82,1.82,0,0,0,1.22-.41,1.45,1.45,0,0,0,.48-1.17v-.49h0a1.93,1.93,0,0,1-.82.71,2.85,2.85,0,0,1-1.21.24,2.6,2.6,0,0,1-2.35-1.18,4.83,4.83,0,0,1-.76-2.68,4.44,4.44,0,0,1,.9-2.73,2.87,2.87,0,0,1,2.42-1.2h.2l.2,0a2.79,2.79,0,0,1,.83.3,1.61,1.61,0,0,1,.62.6,1.17,1.17,0,0,1,.34-.62,1,1,0,0,1,.67-.22.94.94,0,0,1,.73.31,1.16,1.16,0,0,1,.28.81Zm-2,2.76s0-.1,0-.15,0-.11,0-.17a2.61,2.61,0,0,0-.45-1.21,1.27,1.27,0,0,0-1.12-.55,1.25,1.25,0,0,0-1.07.53,2.49,2.49,0,0,0-.47,1.15c0,.06,0,.12,0,.18s0,.12,0,.17a2.64,2.64,0,0,0,.39,1.43,1.43,1.43,0,0,0,2.34,0,2.55,2.55,0,0,0,.41-1.31v-.08Z" transform="translate(0)"/><path class="cls-3" d="M159.3,81.51V76a.88.88,0,0,1,.3-.71,1.15,1.15,0,0,1,.67-.28h.07a1.3,1.3,0,0,1,.69.18.71.71,0,0,1,.29.67h0a2.15,2.15,0,0,1,.61-.62,1.46,1.46,0,0,1,.8-.21,1,1,0,0,1,.67.27,1,1,0,0,1,.31.81.6.6,0,0,1-.21.51,2,2,0,0,1-.5.27l-.24.09-.25.11h0a5.48,5.48,0,0,0-.8.48,1,1,0,0,0-.37.86v3.08a1.16,1.16,0,0,1-.28.82,1,1,0,0,1-1.45,0,1.12,1.12,0,0,1-.29-.81Z" transform="translate(0)"/><path class="cls-3" d="M171.23,76.32v5.22a2.29,2.29,0,0,1,0,.24,1.29,1.29,0,0,1-.23.59.83.83,0,0,1-.72.27.85.85,0,0,1-.64-.22,1.49,1.49,0,0,1-.32-.62,2.69,2.69,0,0,1-.87.69,2.39,2.39,0,0,1-1.05.23A3,3,0,0,1,165,81.63a4.06,4.06,0,0,1-1-2.78,4.11,4.11,0,0,1,1-2.79,3,3,0,0,1,2.36-1.12,2.62,2.62,0,0,1,1.07.23,2,2,0,0,1,.85.71.93.93,0,0,1,.32-.61,1,1,0,0,1,.64-.24.82.82,0,0,1,.72.27,1.34,1.34,0,0,1,.23.6,2.29,2.29,0,0,1,0,.24v.21Zm-5.17,2.52V79a.66.66,0,0,0,0,.13,2.48,2.48,0,0,0,.44,1.22,1.3,1.3,0,0,0,1.14.56,1.25,1.25,0,0,0,1.11-.56,2.52,2.52,0,0,0,.43-1.22.65.65,0,0,0,0-.13v-.12s0-.1,0-.15a1.44,1.44,0,0,1,0-.16,2.56,2.56,0,0,0-.45-1.2,1.25,1.25,0,0,0-1.09-.55,1.29,1.29,0,0,0-1.13.55,2.5,2.5,0,0,0-.46,1.2c0,.06,0,.11,0,.16s0,.1,0,.15Z" transform="translate(0)"/><path class="cls-3" d="M177.79,76.39a1,1,0,0,1-.23.64.75.75,0,0,1-.6.27.93.93,0,0,1-.35-.09l-.45-.2-.28-.12-.28-.1-.22,0-.22,0a.88.88,0,0,0-.48.13.47.47,0,0,0-.21.43.44.44,0,0,0,.22.36,3,3,0,0,0,.56.29l.47.18.5.2a4.86,4.86,0,0,1,1.2.74,1.63,1.63,0,0,1,.55,1.32,2.12,2.12,0,0,1-.78,1.68,3.1,3.1,0,0,1-2.09.67l-.44,0-.46-.08a4,4,0,0,1-1.32-.53,1.07,1.07,0,0,1-.6-.9.85.85,0,0,1,0-.17.52.52,0,0,1,.08-.18,1.14,1.14,0,0,1,.29-.38.7.7,0,0,1,.48-.17,1.21,1.21,0,0,1,.45.08,2.39,2.39,0,0,1,.38.19l.08,0,.08,0a3.06,3.06,0,0,0,.49.25,1.69,1.69,0,0,0,.62.1,1,1,0,0,0,.63-.15.54.54,0,0,0,.17-.43.42.42,0,0,0-.22-.36,3.19,3.19,0,0,0-.55-.29l-.47-.18-.51-.2a4.67,4.67,0,0,1-1.2-.74,1.64,1.64,0,0,1-.55-1.33,2.12,2.12,0,0,1,.77-1.7,2.93,2.93,0,0,1,2-.65l.41,0a3.16,3.16,0,0,1,.43.08,3.27,3.27,0,0,1,1.16.47,1,1,0,0,1,.52.89Z" transform="translate(0)"/><path class="cls-3" d="M179,76.12a1.12,1.12,0,0,1,.29-.8A.94.94,0,0,1,180,75a1,1,0,0,1,.67.22,1.17,1.17,0,0,1,.34.62,1.72,1.72,0,0,1,.76-.67,2.72,2.72,0,0,1,1-.26H183a2.7,2.7,0,0,1,2.38,1.19,4.88,4.88,0,0,1,.87,2.62v.2a4.21,4.21,0,0,1-.9,2.61,2.88,2.88,0,0,1-2.42,1.18h-.25l-.27,0a3.27,3.27,0,0,1-.69-.22,2.65,2.65,0,0,1-.64-.41v2.45a1.16,1.16,0,0,1-.28.81,1,1,0,0,1-1.45,0,1.14,1.14,0,0,1-.29-.81Zm2,2.64c0,.07,0,.13,0,.18s0,.11,0,.17a2.6,2.6,0,0,0,.45,1.21,1.38,1.38,0,0,0,2.19,0,2.5,2.5,0,0,0,.47-1.16c0-.06,0-.11,0-.17s0-.12,0-.17,0-.11,0-.18,0-.12,0-.17a2.55,2.55,0,0,0-.47-1.18,1.25,1.25,0,0,0-1.07-.53,1.3,1.3,0,0,0-1.17.59,2.55,2.55,0,0,0-.41,1.31v.08Z" transform="translate(0)"/><path class="cls-3" d="M187.76,77.47a1.7,1.7,0,0,1-.59-1.33,1.47,1.47,0,0,1,.24-.85,1.74,1.74,0,0,1,.63-.56,1.64,1.64,0,0,1-.45-.5,1.3,1.3,0,0,1-.17-.67,1.4,1.4,0,0,1,.52-1.14,1.9,1.9,0,0,1,1.25-.42,1.94,1.94,0,0,1,1.24.42,1.38,1.38,0,0,1,.53,1.15,1.42,1.42,0,0,1-.16.66,1.26,1.26,0,0,1-.46.51,1.51,1.51,0,0,1,.87,1.41,1.68,1.68,0,0,1-.6,1.35,2.14,2.14,0,0,1-1.42.5A2.08,2.08,0,0,1,187.76,77.47Zm.88-2a.88.88,0,0,0-.2.58.94.94,0,0,0,.18.56.73.73,0,0,0,1.11,0,.9.9,0,0,0,.2-.57.85.85,0,0,0-.2-.6.71.71,0,0,0-.54-.22A.69.69,0,0,0,188.64,75.47Zm.11-2.23a.67.67,0,0,0-.15.44.65.65,0,0,0,.15.45.55.55,0,0,0,.43.17.56.56,0,0,0,.44-.17.64.64,0,0,0,.16-.45.66.66,0,0,0-.16-.45.55.55,0,0,0-.44-.18A.56.56,0,0,0,188.75,73.24Z" transform="translate(0)"/><path class="cls-3" d="M193.36,77.48l-.69,1.22a.42.42,0,0,1-.11.14l-.14.09-.12,0h-.1a.53.53,0,0,1-.38-.16.51.51,0,0,1-.16-.38.48.48,0,0,1,0-.16l.06-.16.68-1.22a.4.4,0,0,1,.11-.13l.14-.09.12,0h.1a.56.56,0,0,1,.39.16.5.5,0,0,1,.17.38.39.39,0,0,1,0,.15l-.06.14v0Z" transform="translate(0)"/><path class="cls-3" d="M195.37,77.3V73.2h-.48a.48.48,0,0,1-.42-.16.62.62,0,0,1-.14-.37h0a.59.59,0,0,1,.15-.39.51.51,0,0,1,.41-.17H196a.53.53,0,0,1,.4.18.61.61,0,0,1,.14.41V77.3a.63.63,0,0,1-1,.47.6.6,0,0,1-.17-.46Z" transform="translate(0)"/><path class="cls-3" d="M201,76.81a.83.83,0,0,1,.45.13.46.46,0,0,1,.18.41.47.47,0,0,1-.17.4.69.69,0,0,1-.41.13h-2.73a.78.78,0,0,1-.45-.13.46.46,0,0,1-.18-.4.45.45,0,0,1,0-.2l.09-.16,0,0,0,0,.32-.37.33-.36,0,0,0,0,.69-.8q.34-.4.65-.85a2.16,2.16,0,0,0,.2-.35,1,1,0,0,0,.09-.41.64.64,0,0,0-.17-.44.62.62,0,0,0-.91,0,1.76,1.76,0,0,0-.21.45v0a.06.06,0,0,0,0,0,2,2,0,0,1-.18.42.41.41,0,0,1-.38.18.55.55,0,0,1-.44-.18.63.63,0,0,1-.15-.42,1.72,1.72,0,0,1,.58-1.31,1.91,1.91,0,0,1,1.33-.54,1.89,1.89,0,0,1,1.28.46,1.55,1.55,0,0,1,.53,1.24,2.08,2.08,0,0,1-.38,1.16,10.53,10.53,0,0,1-.82,1.09l-.4.46-.36.42Z" transform="translate(0)"/><path class="cls-3" d="M282.87,64.33V56.48a1,1,0,0,1,.32-.76,1.17,1.17,0,0,1,.79-.27h2.69a2.8,2.8,0,0,1,1.86.69,2.51,2.51,0,0,1,.46,3,2.29,2.29,0,0,1-1,.83h0a2.53,2.53,0,0,1,1.51.81,2.27,2.27,0,0,1,.62,1.58,2.81,2.81,0,0,1-.9,2.25,3.49,3.49,0,0,1-2.35.77H284a1.17,1.17,0,0,1-.8-.28,1,1,0,0,1-.32-.77Zm2.1-5h1.09a1.1,1.1,0,0,0,.83-.28,1.07,1.07,0,0,0,.31-.81.87.87,0,0,0-.34-.74,1.29,1.29,0,0,0-.8-.25H285Zm0,4.17h1.65a1.35,1.35,0,0,0,.95-.3,1.13,1.13,0,0,0,.37-.91,1,1,0,0,0-.37-.8,1.7,1.7,0,0,0-1.11-.31H285Z" transform="translate(0)"/><path class="cls-3" d="M298.08,59.17v5.22a2.29,2.29,0,0,1,0,.24,1.29,1.29,0,0,1-.23.59.83.83,0,0,1-.72.27.84.84,0,0,1-.64-.22,1.47,1.47,0,0,1-.32-.62,2.69,2.69,0,0,1-.87.69,2.38,2.38,0,0,1-1,.23,3,3,0,0,1-2.37-1.09,4.05,4.05,0,0,1-1-2.78,4.11,4.11,0,0,1,1-2.79,3,3,0,0,1,2.36-1.12,2.6,2.6,0,0,1,1.07.23,2,2,0,0,1,.85.71.91.91,0,0,1,.32-.61,1,1,0,0,1,.64-.24.82.82,0,0,1,.72.27,1.34,1.34,0,0,1,.23.6,2.29,2.29,0,0,1,0,.24v.21Zm-5.17,2.52v.13a.73.73,0,0,0,0,.13,2.49,2.49,0,0,0,.44,1.22,1.29,1.29,0,0,0,1.14.56,1.25,1.25,0,0,0,1.11-.56,2.54,2.54,0,0,0,.43-1.22.73.73,0,0,0,0-.13V61.7s0-.1,0-.15,0-.11,0-.16a2.57,2.57,0,0,0-.45-1.2,1.25,1.25,0,0,0-1.09-.55,1.29,1.29,0,0,0-1.13.55,2.53,2.53,0,0,0-.45,1.2c0,.06,0,.11,0,.16a1.29,1.29,0,0,0,0,.15Z" transform="translate(0)"/><path class="cls-3" d="M299.58,64.36V55.74a1.12,1.12,0,0,1,.29-.8,1,1,0,0,1,1.45,0,1.17,1.17,0,0,1,.28.81v2.73a3,3,0,0,1,.9-.51,3,3,0,0,1,1-.17A2.71,2.71,0,0,1,305.9,59a4.86,4.86,0,0,1,.87,2.61v.2a4.2,4.2,0,0,1-.9,2.6,2.88,2.88,0,0,1-2.42,1.18h-.2l-.2,0a2.93,2.93,0,0,1-.83-.29,1.57,1.57,0,0,1-.62-.59,1.17,1.17,0,0,1-.34.61,1,1,0,0,1-.67.22,1,1,0,0,1-.72-.3,1.12,1.12,0,0,1-.29-.8Zm2-2.74a1.74,1.74,0,0,0,0,.18c0,.06,0,.11,0,.17a2.61,2.61,0,0,0,.45,1.21,1.27,1.27,0,0,0,1.12.55,1.25,1.25,0,0,0,1.07-.52,2.48,2.48,0,0,0,.47-1.16c0-.06,0-.11,0-.17s0-.12,0-.17,0-.11,0-.18,0-.12,0-.17a2.53,2.53,0,0,0-.47-1.18,1.25,1.25,0,0,0-1.07-.53,1.3,1.3,0,0,0-1.17.59,2.55,2.55,0,0,0-.41,1.31v.08Z" transform="translate(0)"/><path class="cls-3" d="M307.46,59.24a1,1,0,0,1-.06-.22,1.75,1.75,0,0,1,0-.28.74.74,0,0,1,.22-.53,1.14,1.14,0,0,1,.5-.31l.11,0h.11a1,1,0,0,1,.62.19,1.11,1.11,0,0,1,.39.53l1.38,3.78,1.48-3.79a1.13,1.13,0,0,1,.38-.51,1,1,0,0,1,.62-.19h.11l.11,0a1.2,1.2,0,0,1,.5.31.73.73,0,0,1,.22.53,1.75,1.75,0,0,1,0,.28.84.84,0,0,1-.08.24l-3.37,8.4a1.67,1.67,0,0,1-.36.56.79.79,0,0,1-.59.24,1,1,0,0,1-.78-.27.84.84,0,0,1-.27-.59.76.76,0,0,1,0-.1.74.74,0,0,0,0-.1,1,1,0,0,1,0-.2l.06-.2.88-2.18Z" transform="translate(0)"/><path class="cls-3" d="M320.13,54.84a1.17,1.17,0,0,1,.79.34,1,1,0,0,1,.34.78,1.14,1.14,0,0,1-.33.82,1.09,1.09,0,0,1-1.6,0A1.13,1.13,0,0,1,319,56a1.05,1.05,0,0,1,.34-.77,1.1,1.1,0,0,1,.79-.34Zm-1,9.52V59a1.12,1.12,0,0,1,.29-.8,1,1,0,0,1,1.45,0,1.16,1.16,0,0,1,.28.81v5.37a1.16,1.16,0,0,1-.28.82,1,1,0,0,1-1.45,0,1.12,1.12,0,0,1-.29-.81Z" transform="translate(0)"/><path class="cls-3" d="M327.68,59.24a1,1,0,0,1-.23.64.75.75,0,0,1-.59.27.92.92,0,0,1-.35-.09l-.45-.2-.28-.12-.28-.1-.22,0-.22,0a.87.87,0,0,0-.48.13.47.47,0,0,0-.21.43.44.44,0,0,0,.22.36,3,3,0,0,0,.56.29l.47.18.5.2a4.85,4.85,0,0,1,1.2.74,1.62,1.62,0,0,1,.55,1.32,2.12,2.12,0,0,1-.78,1.68,3.09,3.09,0,0,1-2.09.67l-.44,0-.46-.08a4,4,0,0,1-1.32-.53,1.07,1.07,0,0,1-.59-.9.78.78,0,0,1,0-.17.52.52,0,0,1,.08-.18,1.12,1.12,0,0,1,.29-.38.7.7,0,0,1,.48-.17,1.21,1.21,0,0,1,.45.08,2.4,2.4,0,0,1,.38.19l.08,0,.08,0a2.94,2.94,0,0,0,.49.25,1.68,1.68,0,0,0,.62.1,1,1,0,0,0,.63-.15.54.54,0,0,0,.17-.43.42.42,0,0,0-.22-.36,3.23,3.23,0,0,0-.55-.29l-.47-.18-.51-.2a4.68,4.68,0,0,1-1.21-.74,1.65,1.65,0,0,1-.54-1.33,2.12,2.12,0,0,1,.77-1.7,2.93,2.93,0,0,1,2-.65l.41,0a3.15,3.15,0,0,1,.43.08,3.26,3.26,0,0,1,1.16.47,1,1,0,0,1,.53.89Z" transform="translate(0)"/><path class="cls-3" d="M339.91,59.17v5.22a2.29,2.29,0,0,1,0,.24,1.29,1.29,0,0,1-.23.59.83.83,0,0,1-.72.27.85.85,0,0,1-.64-.22,1.49,1.49,0,0,1-.32-.62,2.68,2.68,0,0,1-.87.69,2.38,2.38,0,0,1-1.05.23,3,3,0,0,1-2.37-1.09,4.06,4.06,0,0,1-1-2.78,4.11,4.11,0,0,1,1-2.79,3,3,0,0,1,2.36-1.12,2.62,2.62,0,0,1,1.07.23,2,2,0,0,1,.85.71.93.93,0,0,1,.32-.61,1,1,0,0,1,.64-.24.82.82,0,0,1,.72.27,1.34,1.34,0,0,1,.23.6,2.29,2.29,0,0,1,0,.24v.21Zm-5.17,2.52v.13a.66.66,0,0,0,0,.13,2.49,2.49,0,0,0,.44,1.22,1.3,1.3,0,0,0,1.14.56,1.25,1.25,0,0,0,1.11-.56,2.53,2.53,0,0,0,.43-1.22.66.66,0,0,0,0-.13V61.7s0-.1,0-.15a1.42,1.42,0,0,1,0-.16,2.56,2.56,0,0,0-.45-1.2,1.25,1.25,0,0,0-1.09-.55,1.29,1.29,0,0,0-1.13.55,2.5,2.5,0,0,0-.46,1.2c0,.06,0,.11,0,.16s0,.1,0,.15Z" transform="translate(0)"/><path class="cls-3" d="M346,64.36V59.71h-.45a.8.8,0,0,1-.64-.22.88.88,0,0,1-.23-.64.87.87,0,0,1,.25-.63.83.83,0,0,1,.62-.25H346v-1a2.28,2.28,0,0,1,.59-1.69,2.07,2.07,0,0,1,1.52-.59,2.4,2.4,0,0,1,1,.19.71.71,0,0,1,.43.72.89.89,0,0,1-.2.64.83.83,0,0,1-.62.21,1.14,1.14,0,0,0-.46.09q-.21.09-.21.65v.81h.63a1.36,1.36,0,0,1,.73.21.94.94,0,0,1,0,1.35,1.25,1.25,0,0,1-.73.2H348v4.65a1.16,1.16,0,0,1-.28.82,1,1,0,0,1-1.45,0,1.12,1.12,0,0,1-.29-.8Z" transform="translate(0)"/><path class="cls-3" d="M356.9,59.17v5.22a2.29,2.29,0,0,1,0,.24,1.29,1.29,0,0,1-.23.59.83.83,0,0,1-.72.27.84.84,0,0,1-.64-.22,1.47,1.47,0,0,1-.32-.62,2.69,2.69,0,0,1-.87.69,2.38,2.38,0,0,1-1,.23,3,3,0,0,1-2.37-1.09,4.05,4.05,0,0,1-1-2.78,4.11,4.11,0,0,1,1-2.79A3,3,0,0,1,353,57.78a2.6,2.6,0,0,1,1.07.23,2,2,0,0,1,.85.71.91.91,0,0,1,.32-.61,1,1,0,0,1,.64-.24.82.82,0,0,1,.72.27,1.34,1.34,0,0,1,.23.6,2.29,2.29,0,0,1,0,.24v.21Zm-5.17,2.52v.13a.73.73,0,0,0,0,.13,2.49,2.49,0,0,0,.44,1.22,1.29,1.29,0,0,0,1.14.56,1.25,1.25,0,0,0,1.11-.56,2.54,2.54,0,0,0,.43-1.22.73.73,0,0,0,0-.13V61.7s0-.1,0-.15,0-.11,0-.16a2.57,2.57,0,0,0-.45-1.2,1.25,1.25,0,0,0-1.09-.55,1.29,1.29,0,0,0-1.13.55,2.53,2.53,0,0,0-.45,1.2c0,.06,0,.11,0,.16a1.29,1.29,0,0,0,0,.15Z" transform="translate(0)"/><path class="cls-3" d="M363.46,59.24a1,1,0,0,1-.23.64.75.75,0,0,1-.59.27.92.92,0,0,1-.35-.09l-.45-.2-.28-.12-.28-.1-.22,0-.22,0a.87.87,0,0,0-.48.13.47.47,0,0,0-.21.43.44.44,0,0,0,.22.36,3,3,0,0,0,.56.29l.47.18.5.2a4.85,4.85,0,0,1,1.2.74,1.62,1.62,0,0,1,.55,1.32,2.12,2.12,0,0,1-.78,1.68,3.09,3.09,0,0,1-2.09.67l-.44,0-.46-.08a4,4,0,0,1-1.32-.53A1.07,1.07,0,0,1,358,64a.78.78,0,0,1,0-.17.52.52,0,0,1,.08-.18,1.12,1.12,0,0,1,.29-.38.7.7,0,0,1,.48-.17,1.21,1.21,0,0,1,.45.08,2.4,2.4,0,0,1,.38.19l.08,0,.08,0a2.94,2.94,0,0,0,.49.25,1.68,1.68,0,0,0,.62.1,1,1,0,0,0,.63-.15.54.54,0,0,0,.17-.43.42.42,0,0,0-.22-.36,3.23,3.23,0,0,0-.55-.29l-.47-.18-.51-.2a4.68,4.68,0,0,1-1.21-.74,1.65,1.65,0,0,1-.54-1.33,2.12,2.12,0,0,1,.77-1.7,2.93,2.93,0,0,1,2-.65l.41,0a3.15,3.15,0,0,1,.43.08,3.26,3.26,0,0,1,1.16.47,1,1,0,0,1,.53.89Z" transform="translate(0)"/><path class="cls-3" d="M365.2,64.36V59.71h-.45a.81.81,0,0,1-.64-.22.88.88,0,0,1-.23-.64.87.87,0,0,1,.24-.63.83.83,0,0,1,.62-.25h.45v-1.2a1.13,1.13,0,0,1,.29-.8,1,1,0,0,1,1.45,0,1.16,1.16,0,0,1,.28.81v1.19h.57a1.27,1.27,0,0,1,.68.21.94.94,0,0,1,0,1.35,1.16,1.16,0,0,1-.68.2h-.57v4.65a1.15,1.15,0,0,1-.28.82,1,1,0,0,1-1.45,0,1.12,1.12,0,0,1-.29-.8Z" transform="translate(0)"/><path class="cls-3" d="M282.47,81.16v-5.5a.88.88,0,0,1,.3-.71,1.16,1.16,0,0,1,.67-.28h.07a1.3,1.3,0,0,1,.69.18.71.71,0,0,1,.29.66h0a2.17,2.17,0,0,1,.61-.62,1.46,1.46,0,0,1,.8-.21,1,1,0,0,1,.67.27,1,1,0,0,1,.31.81.61.61,0,0,1-.21.51,2,2,0,0,1-.5.27l-.24.09-.25.11h0a5.54,5.54,0,0,0-.8.48,1,1,0,0,0-.37.86v3.09a1.16,1.16,0,0,1-.28.82,1,1,0,0,1-1.45,0,1.12,1.12,0,0,1-.29-.81Z" transform="translate(0)"/><path class="cls-3" d="M289.13,79.14a1.52,1.52,0,0,0,.66,1.11,2.23,2.23,0,0,0,1.25.36,2,2,0,0,0,.72-.13,5,5,0,0,0,.61-.28l.52-.28a.94.94,0,0,1,.43-.13.76.76,0,0,1,.57.27.86.86,0,0,1,.25.6q0,.56-.83,1a5,5,0,0,1-1.82.62l-.33,0h-.31a3.6,3.6,0,0,1-2.74-1.1,3.86,3.86,0,0,1-1-2.76,4.08,4.08,0,0,1,1-2.72,3.46,3.46,0,0,1,5-.25,4.13,4.13,0,0,1,1.2,2c0,.11,0,.23,0,.34a2.74,2.74,0,0,1,0,.34,1,1,0,0,1-.21.67.88.88,0,0,1-.67.22Zm3.16-1.34a1.9,1.9,0,0,0-.5-1.08,1.6,1.6,0,0,0-2.21,0,1.8,1.8,0,0,0-.5,1.08Z" transform="translate(0)"/><path class="cls-3" d="M302.27,76v5.22a2.07,2.07,0,0,1,0,.24A1.29,1.29,0,0,1,302,82a.83.83,0,0,1-.72.27.84.84,0,0,1-.64-.22,1.47,1.47,0,0,1-.32-.62,2.69,2.69,0,0,1-.87.69,2.39,2.39,0,0,1-1.05.23A3,3,0,0,1,296,81.28a4.06,4.06,0,0,1-1-2.78,4.11,4.11,0,0,1,1-2.79,3,3,0,0,1,2.36-1.12,2.61,2.61,0,0,1,1.07.23,2,2,0,0,1,.85.71.92.92,0,0,1,.32-.61,1,1,0,0,1,.64-.24.82.82,0,0,1,.72.27,1.34,1.34,0,0,1,.23.6,2.07,2.07,0,0,1,0,.24V76Zm-5.17,2.52v.13a.74.74,0,0,0,0,.13,2.49,2.49,0,0,0,.44,1.22,1.3,1.3,0,0,0,1.14.56A1.25,1.25,0,0,0,299.8,80a2.52,2.52,0,0,0,.43-1.22.65.65,0,0,0,0-.13V78.5s0-.1,0-.15,0-.11,0-.16a2.56,2.56,0,0,0-.45-1.2,1.25,1.25,0,0,0-1.09-.55,1.29,1.29,0,0,0-1.13.55,2.51,2.51,0,0,0-.45,1.2c0,.06,0,.11,0,.16s0,.1,0,.15Z" transform="translate(0)"/><path class="cls-3" d="M309.55,75.85s0,.09,0,.13,0,.09,0,.13a1.25,1.25,0,0,1-.26.49.6.6,0,0,1-.48.22h-.17l-.17,0-.2-.06-.2-.08-.41-.13a1.55,1.55,0,0,0-.45-.06,1.42,1.42,0,0,0-1.27.64,2.52,2.52,0,0,0-.42,1.42v.11a2.43,2.43,0,0,0,.48,1.32,1.42,1.42,0,0,0,1.22.59l.27,0,.28-.08.15,0,.15-.06.38-.15a.87.87,0,0,1,.26-.06.83.83,0,0,1,.62.26.86.86,0,0,1,.25.62.9.9,0,0,1-.43.78,3.14,3.14,0,0,1-1,.43,4.25,4.25,0,0,1-.6.12l-.48,0a3.29,3.29,0,0,1-2.62-1.15,4,4,0,0,1-1-2.72,4.08,4.08,0,0,1,1-2.72,3.26,3.26,0,0,1,2.6-1.18l.48,0a4.07,4.07,0,0,1,.54.1,3.08,3.08,0,0,1,1,.38.85.85,0,0,1,.45.76Z" transform="translate(0)"/><path class="cls-3" d="M310.6,81.16V72.54a1.13,1.13,0,0,1,.29-.8,1,1,0,0,1,1.45,0,1.16,1.16,0,0,1,.28.81v2.73h0a1.59,1.59,0,0,1,.55-.42,2.52,2.52,0,0,1,.69-.21l.3,0h.29a2.82,2.82,0,0,1,2,.71,2.57,2.57,0,0,1,.79,2v3.85A1.16,1.16,0,0,1,317,82a1,1,0,0,1-1.45,0,1.12,1.12,0,0,1-.29-.8V77.65a1.31,1.31,0,0,0-.38-1,1.35,1.35,0,0,0-.93-.34,1.18,1.18,0,0,0-1,.4,1.48,1.48,0,0,0-.34,1v3.5a1.15,1.15,0,0,1-.28.82,1,1,0,0,1-1.45,0,1.12,1.12,0,0,1-.29-.8Z" transform="translate(0)"/><path class="cls-3" d="M320.35,79.14a1.52,1.52,0,0,0,.66,1.11,2.23,2.23,0,0,0,1.25.36,2,2,0,0,0,.72-.13,4.91,4.91,0,0,0,.61-.28l.52-.28a.94.94,0,0,1,.43-.13.76.76,0,0,1,.57.27.86.86,0,0,1,.25.6q0,.56-.83,1a5,5,0,0,1-1.82.62l-.33,0h-.31a3.6,3.6,0,0,1-2.74-1.1,3.86,3.86,0,0,1-1-2.76,4.08,4.08,0,0,1,1-2.72,3.46,3.46,0,0,1,5-.25,4.13,4.13,0,0,1,1.2,2c0,.11,0,.23,0,.34a2.92,2.92,0,0,1,0,.34.94.94,0,0,1-.21.67.88.88,0,0,1-.67.22Zm3.16-1.34a1.89,1.89,0,0,0-.5-1.08,1.6,1.6,0,0,0-2.21,0,1.8,1.8,0,0,0-.5,1.08Z" transform="translate(0)"/><path class="cls-3" d="M326.57,81.16v-5.5a.88.88,0,0,1,.3-.71,1.15,1.15,0,0,1,.67-.28h.07a1.3,1.3,0,0,1,.69.18.71.71,0,0,1,.29.66h0a2.2,2.2,0,0,1,.61-.62,1.46,1.46,0,0,1,.8-.21,1,1,0,0,1,.67.27,1,1,0,0,1,.31.81.61.61,0,0,1-.21.51,2,2,0,0,1-.5.27l-.24.09-.25.11h0a5.49,5.49,0,0,0-.8.48,1,1,0,0,0-.37.86v3.09a1.16,1.16,0,0,1-.28.82,1,1,0,0,1-1.45,0,1.12,1.12,0,0,1-.29-.81Z" transform="translate(0)"/><path class="cls-3" d="M331.95,77.11a1.7,1.7,0,0,1-.59-1.33,1.46,1.46,0,0,1,.25-.85,1.72,1.72,0,0,1,.63-.56,1.68,1.68,0,0,1-.45-.5,1.3,1.3,0,0,1-.17-.67,1.4,1.4,0,0,1,.52-1.14,1.9,1.9,0,0,1,1.25-.42,2,2,0,0,1,1.24.42,1.39,1.39,0,0,1,.53,1.15,1.44,1.44,0,0,1-.16.66,1.27,1.27,0,0,1-.46.51,1.53,1.53,0,0,1,.64.57,1.56,1.56,0,0,1,.23.84,1.68,1.68,0,0,1-.6,1.35,2.13,2.13,0,0,1-1.42.5A2.09,2.09,0,0,1,331.95,77.11Zm.88-2a.88.88,0,0,0-.2.58,1,1,0,0,0,.18.56.73.73,0,0,0,1.11,0,.91.91,0,0,0,.2-.57.85.85,0,0,0-.2-.6.7.7,0,0,0-.54-.22A.69.69,0,0,0,332.83,75.12Zm.11-2.23a.66.66,0,0,0-.15.44.64.64,0,0,0,.15.45.55.55,0,0,0,.43.17.56.56,0,0,0,.44-.17.64.64,0,0,0,.16-.45.67.67,0,0,0-.16-.45.55.55,0,0,0-.44-.18A.56.56,0,0,0,332.94,72.89Z" transform="translate(0)"/><path class="cls-3" d="M337.55,77.13l-.69,1.22a.45.45,0,0,1-.11.14l-.14.09-.11,0h-.1a.53.53,0,0,1-.38-.16.51.51,0,0,1-.16-.38.5.5,0,0,1,0-.16l.06-.16.68-1.22a.4.4,0,0,1,.11-.13l.14-.09.12,0h.1a.57.57,0,0,1,.39.16.5.5,0,0,1,.17.38.41.41,0,0,1,0,.15l-.06.14v0Z" transform="translate(0)"/><path class="cls-3" d="M339.56,76.95v-4.1h-.48a.47.47,0,0,1-.42-.16.63.63,0,0,1-.14-.37h0a.59.59,0,0,1,.15-.39.5.5,0,0,1,.41-.18h1.16a.53.53,0,0,1,.4.18.61.61,0,0,1,.14.41v4.64a.63.63,0,0,1-1,.47.6.6,0,0,1-.18-.47Z" transform="translate(0)"/><path class="cls-3" d="M345.22,76.46a.82.82,0,0,1,.45.13.55.55,0,0,1,0,.82.68.68,0,0,1-.41.13h-2.73a.77.77,0,0,1-.45-.13.45.45,0,0,1-.18-.4.43.43,0,0,1,0-.2l.09-.16,0,0,0,0,.32-.37.33-.36,0,0,0,0,.69-.8q.34-.4.65-.85a2.23,2.23,0,0,0,.2-.35,1,1,0,0,0,.09-.41.64.64,0,0,0-.17-.44.54.54,0,0,0-.42-.19.53.53,0,0,0-.49.21,1.75,1.75,0,0,0-.21.45v0a.08.08,0,0,0,0,0,2,2,0,0,1-.18.42.4.4,0,0,1-.38.18.55.55,0,0,1-.45-.18.62.62,0,0,1-.15-.42,1.72,1.72,0,0,1,.58-1.31,1.91,1.91,0,0,1,1.33-.54,1.89,1.89,0,0,1,1.28.46,1.56,1.56,0,0,1,.53,1.24,2.08,2.08,0,0,1-.38,1.16,10.59,10.59,0,0,1-.83,1.09l-.4.46-.36.42Z" transform="translate(0)"/><circle class="cls-4" cx="39.97" cy="52.69" r="38.77"/><g class="cls-5"><circle class="cls-6" cx="39.97" cy="52.69" r="38.77"/></g><g class="cls-7"><path class="cls-8" d="M86.21,59.83C77,56,74.62,53.08,71.57,49.43a48,48,0,0,0-5.37-5.67c-7.39-6.53-12.43-7.2-12.75-7.23l-1-.14c-.76-.1-1.54-.21-2.3-.36L49,35.81c-.52-.1-1-.2-1.72-.34l-.48-.14a10.31,10.31,0,0,0-5.27-.08c-.88.19-2.33.51-2.75,2l-1.73-.07a11.77,11.77,0,0,0-3.69.33,2.87,2.87,0,0,0-2.21,2.19A6.44,6.44,0,0,0,26,45.44c-.1,2.26.43,5.47.49,8.68,0,2.58.83,2.6,3,2.85l2.25-.59c-2.33,0-1.59.63-1,.42a1.91,1.91,0,0,0,.9-.61,7.45,7.45,0,0,0,1.51-2.35,10.06,10.06,0,0,0,.3-2.5v0a2.92,2.92,0,0,0,.38-1c.06-.32.14-.64.21-1l0-.17.29.08a.93.93,0,0,1,.61.55,16.81,16.81,0,0,0,2.54,3.68,2.94,2.94,0,0,0,2.05,1.12,2.39,2.39,0,0,0,.88-.14,4,4,0,0,0,1.31-.8,8.06,8.06,0,0,0,1.35.78l0,0a.92.92,0,0,0,.2.07l0,.11,0,.07a1.24,1.24,0,0,0-.22.49,9.81,9.81,0,0,0,.26,4c0,.09,0,.17.07.25l-.26,0c-.45.08-.92.16-1.37.29l-.07,0a32.59,32.59,0,0,0-4.52,1.52c0-.13-1.66,1.26-1.69,1.14a12.43,12.43,0,0,0-2.45-4,2.58,2.58,0,0,0-2.25-.49,3.25,3.25,0,0,0-1.43.55l-.29.29c-1.8,2,.89,4.13.83,6.76a3.74,3.74,0,0,0,.28,1.84l0,0a6.16,6.16,0,0,0,2.52,2.93A20.67,20.67,0,0,0,38,72.09c2.25.47,4.68,1,7.15,1.23A39.59,39.59,0,0,0,59,72.59l.11,0a1.55,1.55,0,0,1,.25-.05,15.72,15.72,0,0,0,2.45.91c.51.16,1,.32,1.52.51,1.55.59,3.13,1.18,4.65,1.74l2,.73" transform="translate(0)"/><path class="cls-9" d="M31.55,47a7.47,7.47,0,0,0,3,1.78,1.32,1.32,0,0,1,.88.76,16.48,16.48,0,0,0,2.48,3.6c1,1.09,2.23,1.52,3.85,0" transform="translate(0)"/><path class="cls-9" d="M31.58,39.83a2.45,2.45,0,0,1,2-2,11.28,11.28,0,0,1,3.56-.31c2.86.11,5.71.27,8.57.39.87,0,1.74,0,2.6,0" transform="translate(0)"/><path class="cls-9" d="M35.32,49.12a22,22,0,0,0,2.88,0c.27-.05.31.25.43.42,1.32,1.74,2.64,3.47,4.7,4.42.1,0,.19.11.3,0" transform="translate(0)"/><path class="cls-9" d="M34.13,64.15a4.84,4.84,0,0,1,2.13-2A25.31,25.31,0,0,1,42,60.06c.64-.18,1.3-.27,2-.4" transform="translate(0)"/><path class="cls-9" d="M39.19,37.48c.27-1.37,1.43-1.69,2.5-1.92a10,10,0,0,1,5.07.07l.49.15c1.14.24,1.85.36,2.85.56s2.22.34,3.34.51c0,0,5.06.53,12.53,7.13s6.48,10.39,20.12,16.14" transform="translate(0)"/><path class="cls-9" d="M43.3,52.83c.39.47.29,1.09.54,1.61.12.23-.21.43-.26.72A9.57,9.57,0,0,0,43.84,59c.22.91.81,1.63,1.1,2.5" transform="translate(0)"/><path class="cls-9" d="M35.56,62.44a6,6,0,0,1-.43-1,14.45,14.45,0,0,0-1.26-2.14,7.85,7.85,0,0,0-1.14-1.39c-.59-.4-3.51.43-3.51.43-1.71,1.91-.12,4.21.89,7.06a18.54,18.54,0,0,0,.41,2A5.58,5.58,0,0,0,33,69.88,20.36,20.36,0,0,0,38.1,71.6c2.35.5,4.72,1,7.11,1.22a39.48,39.48,0,0,0,13.72-.73c.2,0,.46-.14.62-.06a40.79,40.79,0,0,0,4,1.41c2.19.85,4.41,1.64,6.61,2.46" transform="translate(0)"/><path class="cls-9" d="M69.17,50.61a45.72,45.72,0,0,0-3.69,4.09" transform="translate(0)"/><path class="cls-9" d="M33.13,51.32a9.75,9.75,0,0,1,.06,2.51,3.35,3.35,0,0,1-2,2.38,10.52,10.52,0,0,1-2.21.36c-2.27-.26-2.66-2-2.6-4.05.07-2.34-.07-4.81,0-7.17a6.05,6.05,0,0,1,5.81-5.48c1.79-.06,3.59-.07,5.38-.12,2.18-.06,4.36,0,6.54,0" transform="translate(0)"/><path class="cls-9" d="M37.65,39.88a5.83,5.83,0,0,0-.58,3.3" transform="translate(0)"/><path class="cls-9" d="M32.3,64.07a11.09,11.09,0,0,1,1.94-1c.2-.07.39-.15.58,0" transform="translate(0)"/><path class="cls-9" d="M33.81,48.71c-.1.47-.21.93-.3,1.4-.24,1.15-.6,1.42-1.79,1.27l-.3,0" transform="translate(0)"/><path class="cls-9" d="M36.15,39.9a4.88,4.88,0,0,0-.57,2.29" transform="translate(0)"/><path class="cls-9" d="M59.68,72c.49-.38,1.14-.32,1.67-.58" transform="translate(0)"/><path class="cls-9" d="M43.93,54.63a2.12,2.12,0,0,1,.55,1" transform="translate(0)"/><path class="cls-9" d="M45.17,35.38a4.6,4.6,0,0,0-1,1.07" transform="translate(0)"/><path class="cls-9" d="M50.52,38.15l1.05.14" transform="translate(0)"/><circle class="cls-10" cx="30.8" cy="57.13" r="2.06"/></g></g></g></svg>