<svg xmlns="http://www.w3.org/2000/svg" viewBox="0 0 446.86 116.54"><defs><style>.cls-1,.cls-4{fill:#ffe6ce;}.cls-1,.cls-2{fill-rule:evenodd;}.cls-2,.cls-5{fill:none;stroke:#fff;stroke-miterlimit:10;}.cls-2{stroke-width:2.73px;}.cls-3{fill:#c19271;}.cls-5{stroke-width:2.4px;}.cls-6{fill:#f8cdb2;}.cls-7{fill:#7bc8be;}.cls-8{fill:#ffe24c;}.cls-9{fill:#fff;}.cls-10{fill:#00a0b9;}.cls-11{fill:#e59a36;}.cls-12{fill:#dd8760;}.cls-13{fill:#8e6327;}</style></defs><g id="Layer_2" data-name="Layer 2"><g id="Layer_1-2" data-name="Layer 1"><path class="cls-1" d="M319.4,86.92,324,87h3.66l17,.13,30.2.13,3.06-.06,6.21-.31,5.8-.54c5.07-.79,10-1.44,13.85-3.23a12.8,12.8,0,0,0,3.86-2.3c3.07-3.24,3.09-9.4,4.14-14.4.53-2.56.41-5.34.91-8a13.27,13.27,0,0,0,0-4.22c-.29-1.57,0-3.14-.28-4.59-.1-.95-.21-1.91-.32-2.86A33.34,33.34,0,0,0,410.32,40c-1.1-2.41-2.36-3.4-4.05-5.19a20.64,20.64,0,0,0-9.91-6c-5.68-1.51-14-1.08-21.36-1.08l-7.36,0-8.24-.1-16.59-.1L331,27.6l-5.56.09c-9.95-.05-20.35,0-30.19,0l-21,0-23.46-.1-47.26-.1-33.66.1L153,27.7,125.47,28l-9.75.1L89,28.61,72.77,29c-14.07.72-28.14,1-40.46,2.06-6.67.6-14.68,1.19-18,2.77C6.87,37.35,5.77,42.28,3,47.19l-1,4.15c-.19,1.4-.37,2.79-.56,4.19v2.76l.9,6Q3.13,66.64,4,69l3.4,4.79c2.31,3.13,2.56,6.39,9,8.26l5.21,1.08c3.36.67,7.53,1.36,11.67,1.76,10.13,1,21.83.89,33.32,1.45l16.33.3,16.88.13L150,87h10.43l48.39.13,86,.13,8.72-.06,15.88-.28"/><path class="cls-2" d="M319.4,86.92,324,87h3.66l17,.13,30.2.13,3.06-.06,6.21-.31,5.8-.54c5.07-.79,10-1.44,13.85-3.23a12.8,12.8,0,0,0,3.86-2.3c3.07-3.24,3.09-9.4,4.14-14.4.53-2.56.41-5.34.91-8a13.27,13.27,0,0,0,0-4.22c-.29-1.57,0-3.14-.28-4.59-.1-.95-.21-1.91-.32-2.86A33.34,33.34,0,0,0,410.32,40c-1.1-2.41-2.36-3.4-4.05-5.19a20.64,20.64,0,0,0-9.91-6c-5.68-1.51-14-1.08-21.36-1.08l-7.36,0-8.24-.1-16.59-.1L331,27.6l-5.56.09c-9.95-.05-20.35,0-30.19,0l-21,0-23.46-.1-47.26-.1-33.66.1L153,27.7,125.47,28l-9.75.1L89,28.61,72.77,29c-14.07.72-28.14,1-40.46,2.06-6.67.6-14.68,1.19-18,2.77C6.87,37.35,5.77,42.28,3,47.19l-1,4.15c-.19,1.4-.37,2.79-.56,4.19v2.76l.9,6Q3.13,66.64,4,69l3.4,4.79c2.31,3.13,2.56,6.39,9,8.26l5.21,1.08c3.36.67,7.53,1.36,11.67,1.76,10.13,1,21.83.89,33.32,1.45l16.33.3,16.88.13L150,87h10.43l48.39.13,86,.13,8.72-.06,15.88-.28"/><path class="cls-3" d="M111.69,70V46.51a3.31,3.31,0,0,1,.86-2.24,3,3,0,0,1,2.4-1l10.7,0a2.58,2.58,0,0,1,2.09.94,3.09,3.09,0,0,1,.71,2v.13a3.13,3.13,0,0,1-.73,1.9,2.5,2.5,0,0,1-2.07.86L118,49v6.11h6.48a2.85,2.85,0,0,1,3,2.88,3.1,3.1,0,0,1-.75,2,2.76,2.76,0,0,1-2.26.92H118V70a3.14,3.14,0,1,1-6.27,0Z"/><path class="cls-3" d="M133,41.49a3.5,3.5,0,0,1,2.36,1,3.1,3.1,0,0,1,1,2.32,3.4,3.4,0,0,1-1,2.45,3.26,3.26,0,0,1-4.76,0,3.39,3.39,0,0,1-1-2.43,3.16,3.16,0,0,1,1-2.3,3.3,3.3,0,0,1,2.36-1Zm-3,28.42V53.83a3.39,3.39,0,0,1,.86-2.39,3,3,0,0,1,4.33,0,3.53,3.53,0,0,1,.83,2.43v16a3.48,3.48,0,0,1-.83,2.45,3.05,3.05,0,0,1-4.33,0A3.34,3.34,0,0,1,130,70Z"/><path class="cls-3" d="M139.28,69.91V53.49a2.62,2.62,0,0,1,.9-2.13,3.43,3.43,0,0,1,2-.84h.21a3.93,3.93,0,0,1,2.07.52,2.14,2.14,0,0,1,.85,2l.09,0a6.35,6.35,0,0,1,1.81-1.84,4.39,4.39,0,0,1,2.41-.63,3,3,0,0,1,2.93,3.23,1.79,1.79,0,0,1-.63,1.52,5.56,5.56,0,0,1-1.51.82l-.71.27-.75.32s-.05,0-.06,0l-.06,0a16.25,16.25,0,0,0-2.41,1.42,2.94,2.94,0,0,0-1.11,2.56v9.21a3.48,3.48,0,0,1-.83,2.45,3.05,3.05,0,0,1-4.33,0,3.34,3.34,0,0,1-.86-2.4Z"/><path class="cls-3" d="M168.42,54.62a2.85,2.85,0,0,1-.69,1.9,2.22,2.22,0,0,1-1.77.81,2.79,2.79,0,0,1-1.05-.27l-1.34-.6c-.28-.11-.56-.23-.83-.36a7.13,7.13,0,0,0-.84-.31c-.22-.06-.45-.11-.67-.15a3.71,3.71,0,0,0-.67-.06,2.56,2.56,0,0,0-1.42.4,1.39,1.39,0,0,0-.63,1.27,1.34,1.34,0,0,0,.67,1.09,10,10,0,0,0,1.68.88l1.4.52c.48.18,1,.38,1.48.61a14.11,14.11,0,0,1,3.6,2.19A4.87,4.87,0,0,1,169,66.49a6.32,6.32,0,0,1-2.35,5,9.21,9.21,0,0,1-6.22,2,10.15,10.15,0,0,1-1.32-.08,14.08,14.08,0,0,1-5.31-1.84A3.19,3.19,0,0,1,152,68.92a2.67,2.67,0,0,1,.06-.51,1.83,1.83,0,0,1,.23-.54,3.47,3.47,0,0,1,.88-1.13,2.14,2.14,0,0,1,1.42-.5,3.73,3.73,0,0,1,1.34.23,7,7,0,0,1,1.13.56l.23.11a.94.94,0,0,0,.23.1A9.07,9.07,0,0,0,159,68a5.21,5.21,0,0,0,1.84.31,3,3,0,0,0,1.88-.44,1.59,1.59,0,0,0,.51-1.28,1.28,1.28,0,0,0-.65-1.06,9.59,9.59,0,0,0-1.65-.86l-1.4-.54L158,63.52a13.9,13.9,0,0,1-3.6-2.21,5,5,0,0,1-1.63-4,6.35,6.35,0,0,1,2.3-5.08,8.81,8.81,0,0,1,5.86-1.94c.39,0,.79,0,1.21.06a10.79,10.79,0,0,1,1.3.23,9.72,9.72,0,0,1,3.44,1.4,3.07,3.07,0,0,1,1.57,2.66Z"/><path class="cls-3" d="M172.56,69.92V56h-1.34a2.4,2.4,0,0,1-1.9-.67,2.91,2.91,0,0,1,0-3.81,2.49,2.49,0,0,1,1.86-.75l1.34,0V47.18a3.39,3.39,0,0,1,.86-2.39,3,3,0,0,1,4.33,0,3.51,3.51,0,0,1,.83,2.43v3.55h1.72a3.83,3.83,0,0,1,2,.62,2.81,2.81,0,0,1,0,4,3.42,3.42,0,0,1-2,.6h-1.72V69.92a3.49,3.49,0,0,1-.83,2.45,3.08,3.08,0,0,1-4.33,0,3.37,3.37,0,0,1-.86-2.41Z"/><path class="cls-3" d="M209.81,54.62a2.85,2.85,0,0,1-.69,1.9,2.22,2.22,0,0,1-1.77.81,2.79,2.79,0,0,1-1-.27l-1.34-.6c-.28-.11-.55-.23-.83-.36a7.13,7.13,0,0,0-.84-.31c-.22-.06-.45-.11-.67-.15a3.71,3.71,0,0,0-.67-.06,2.56,2.56,0,0,0-1.42.4,1.39,1.39,0,0,0-.63,1.27,1.34,1.34,0,0,0,.67,1.09,10.25,10.25,0,0,0,1.67.88l1.41.52c.48.18,1,.38,1.48.61a14.11,14.11,0,0,1,3.6,2.19,4.87,4.87,0,0,1,1.63,3.95,6.35,6.35,0,0,1-2.35,5,9.21,9.21,0,0,1-6.22,2,10.15,10.15,0,0,1-1.32-.08,12.51,12.51,0,0,1-1.36-.25,12,12,0,0,1-4-1.59,3.19,3.19,0,0,1-1.78-2.67,2.67,2.67,0,0,1,.06-.51,1.83,1.83,0,0,1,.23-.54,3.47,3.47,0,0,1,.88-1.13,2.14,2.14,0,0,1,1.42-.5,3.69,3.69,0,0,1,1.34.23,7,7,0,0,1,1.13.56l.23.11a.94.94,0,0,0,.23.1,9.07,9.07,0,0,0,1.46.74,5.21,5.21,0,0,0,1.84.31,3,3,0,0,0,1.88-.44,1.59,1.59,0,0,0,.51-1.28,1.28,1.28,0,0,0-.65-1.06,9.59,9.59,0,0,0-1.65-.86l-1.4-.54-1.53-.59a13.9,13.9,0,0,1-3.6-2.21,5,5,0,0,1-1.63-4,6.35,6.35,0,0,1,2.3-5.08,8.81,8.81,0,0,1,5.86-1.94c.39,0,.79,0,1.21.06a10.79,10.79,0,0,1,1.3.23,9.72,9.72,0,0,1,3.44,1.4,3.07,3.07,0,0,1,1.57,2.66Z"/><path class="cls-3" d="M214,69.92V56h-1.34a2.4,2.4,0,0,1-1.9-.67,2.91,2.91,0,0,1,0-3.81,2.49,2.49,0,0,1,1.86-.75l1.34,0V47.18a3.39,3.39,0,0,1,.86-2.39,3,3,0,0,1,4.33,0,3.51,3.51,0,0,1,.83,2.43v3.55h1.72a3.83,3.83,0,0,1,2,.62,2.81,2.81,0,0,1,0,4,3.42,3.42,0,0,1-2,.6H220V69.92a3.49,3.49,0,0,1-.83,2.45,3.08,3.08,0,0,1-4.33,0A3.37,3.37,0,0,1,214,70Z"/><path class="cls-3" d="M229.71,63.9a4.55,4.55,0,0,0,2,3.32,6.62,6.62,0,0,0,3.72,1.07,6,6,0,0,0,2.15-.38,15.34,15.34,0,0,0,1.82-.83c.56-.31,1.07-.59,1.55-.84a2.8,2.8,0,0,1,1.29-.38,2.31,2.31,0,0,1,1.72.82,2.56,2.56,0,0,1,.75,1.78c0,1.11-.82,2.14-2.47,3.09a14.87,14.87,0,0,1-5.43,1.84l-1,.08c-.32,0-.64,0-.94,0a10.75,10.75,0,0,1-8.18-3.28A11.5,11.5,0,0,1,223.57,62a12.18,12.18,0,0,1,3-8.14,10.34,10.34,0,0,1,14.82-.76A12.35,12.35,0,0,1,245,59.19q.09.5.15,1a9,9,0,0,1,.06,1,2.85,2.85,0,0,1-.62,2,2.64,2.64,0,0,1-2,.67Zm9.45-4a5.72,5.72,0,0,0-1.48-3.25,4.81,4.81,0,0,0-6.61,0,5.41,5.41,0,0,0-1.48,3.24Z"/><path class="cls-3" d="M247.31,53.83a3.39,3.39,0,0,1,.86-2.39,2.83,2.83,0,0,1,2.15-.92,2.91,2.91,0,0,1,2,.65,3.43,3.43,0,0,1,1,1.86,5.22,5.22,0,0,1,2.26-2,8.17,8.17,0,0,1,3-.77h.42a8.08,8.08,0,0,1,7.11,3.54,14.51,14.51,0,0,1,2.59,7.81v.59A12.61,12.61,0,0,1,266.09,70a8.64,8.64,0,0,1-7.24,3.51,6.28,6.28,0,0,1-.75,0l-.79-.12a9.43,9.43,0,0,1-2.07-.67,8,8,0,0,1-1.91-1.21v7.31a3.46,3.46,0,0,1-.83,2.43,3,3,0,0,1-4.33,0,3.44,3.44,0,0,1-.86-2.43Zm6,7.89a4.68,4.68,0,0,0,0,.55c0,.17,0,.33,0,.5a7.81,7.81,0,0,0,1.33,3.62A3.8,3.8,0,0,0,258.06,68a3.75,3.75,0,0,0,3.2-1.57,7.55,7.55,0,0,0,1.4-3.45,4.35,4.35,0,0,0,.06-.52,4.7,4.7,0,0,0,0-.52,4.78,4.78,0,0,0,0-.53,4.35,4.35,0,0,0-.06-.52,7.68,7.68,0,0,0-1.4-3.51,3.74,3.74,0,0,0-3.2-1.59,3.86,3.86,0,0,0-3.49,1.78,7.6,7.6,0,0,0-1.24,3.91v.2Z"/><path class="cls-3" d="M286.45,54.62a2.85,2.85,0,0,1-.69,1.9,2.24,2.24,0,0,1-1.78.81,2.79,2.79,0,0,1-1.05-.27l-1.33-.6q-.42-.16-.84-.36a7.13,7.13,0,0,0-.84-.31q-.33-.09-.66-.15a3.88,3.88,0,0,0-.67-.06,2.59,2.59,0,0,0-1.43.4,1.4,1.4,0,0,0-.62,1.27,1.31,1.31,0,0,0,.67,1.09,9.48,9.48,0,0,0,1.67.88l1.4.52c.49.18,1,.38,1.48.61a14.11,14.11,0,0,1,3.6,2.19A4.84,4.84,0,0,1,287,66.49a6.34,6.34,0,0,1-2.34,5,9.23,9.23,0,0,1-6.23,2,10.15,10.15,0,0,1-1.32-.08,12.51,12.51,0,0,1-1.36-.25,12.05,12.05,0,0,1-3.95-1.59A3.19,3.19,0,0,1,270,68.92a2.67,2.67,0,0,1,.06-.51,1.6,1.6,0,0,1,.23-.54,3.34,3.34,0,0,1,.88-1.13,2.12,2.12,0,0,1,1.42-.5,3.73,3.73,0,0,1,1.34.23,6.89,6.89,0,0,1,1.12.56,1.33,1.33,0,0,1,.24.11.74.74,0,0,0,.22.1A9.18,9.18,0,0,0,277,68a5.17,5.17,0,0,0,1.84.31,3,3,0,0,0,1.88-.44,1.62,1.62,0,0,0,.5-1.28,1.28,1.28,0,0,0-.65-1.06,9.59,9.59,0,0,0-1.65-.86c-.42-.17-.88-.35-1.4-.54L276,63.52a13.84,13.84,0,0,1-3.59-2.21,4.92,4.92,0,0,1-1.63-4,6.32,6.32,0,0,1,2.3-5.08,8.77,8.77,0,0,1,5.85-1.94c.39,0,.8,0,1.21.06a10.79,10.79,0,0,1,1.3.23,9.84,9.84,0,0,1,3.45,1.4,3.09,3.09,0,0,1,1.57,2.66Z"/><circle class="cls-4" cx="390.86" cy="60.54" r="54.8"/><circle class="cls-5" cx="390.86" cy="60.54" r="54.8"/><path class="cls-6" d="M420,40l2.3-2.29a5.45,5.45,0,0,1,3.28-5.25c4.06-1.84,8.87,4.55,6.55,9.18a4.89,4.89,0,0,1-5.9,2.63l-3.28,2.29Z"/><path class="cls-6" d="M368.82,40l-2.29-2.29a5.47,5.47,0,0,0-3.28-5.25c-4.06-1.84-8.88,4.55-6.56,9.18a4.89,4.89,0,0,0,5.9,2.63l3.28,2.29Z"/><polygon class="cls-6" points="407.83 100 407.08 104.92 398.54 104.92 398.47 99.89 407.83 100"/><path class="cls-7" d="M407.07,103.6s6.72,3.72,5.19,5.91-12.84.87-13.93-.44.32-4.81.32-4.81Z"/><polygon class="cls-6" points="375.78 100 376.54 104.92 385.08 104.92 385.15 99.89 375.78 100"/><path class="cls-7" d="M376.55,103.6s-6.72,3.72-5.19,5.91,12.84.87,13.93-.44-.33-4.81-.33-4.81Z"/><path class="cls-8" d="M409.79,75.74s0,17.37-1.31,24.26H397.67s-1-14.43-5.24-14.43-6,14.76-6,14.76h-12l1.23-25.25Z"/><path class="cls-7" d="M404.23,46.56l16.06-7.87,4.59,7.54L408.82,60l2.95,16.72s-19.34,3.94-38,0l3.95-17.37-15.1-12.13,5.9-8.2,15.41,7.54Z"/><path class="cls-9" d="M404,44.25c3.14,4.4,7.26,19.83-10.86,19.7s-12.26-16.09-10-19.09Z"/><path class="cls-10" d="M393.33,64.49h-.23c-6.29,0-10.41-2-12.25-5.68-2.52-5.14.26-12.2,1.84-14.28a.57.57,0,0,1,.42-.22l20.84-.6a.58.58,0,0,1,.45.22c2.18,3.06,4.23,9.87,1.68,14.77C404.08,62.55,399.79,64.49,393.33,64.49Zm-9.92-19.1c-1.44,2.1-3.79,8.45-1.58,12.94,1.63,3.33,5.43,5,11.28,5.08,6.14.05,10.19-1.71,12-5.21,2.34-4.52.29-10.78-1.44-13.4Z"/><path class="cls-11" d="M397.73,1.05s-6.55-2.79-16.75.73c-13.4,4.62-16.62,18.84-12,29.37,3.9,8.92,8.83,10.21,8.83,10.21s30.58.28,33.81-1.15c6.93-3.07,9.84-17.43,5.25-26.31S397.73,1.05,397.73,1.05Z"/><path class="cls-6" d="M395.77,5.2c10.51.78,16.32,6.41,19.13,14.71a16.85,16.85,0,0,1-1.62,14.5s4.9,12.87-19.66,12.81S375.29,33,375.29,33a15.83,15.83,0,0,1-.05-15.48C380.41,8.1,390.79,4.82,395.77,5.2Z"/><path class="cls-6" d="M374.85,26c-3.57-1.1-6.44,1.31-5.72,5.36.58,3.3,6.18,5.52,6.18,5.52l1.73-4.6Z"/><path class="cls-6" d="M414.33,25.75c3.55-1.16,6.46,1.22,5.8,5.27-.54,3.31-6.1,5.61-6.1,5.61l-1.8-4.57Z"/><path class="cls-12" d="M396.46,34.08a.4.4,0,0,1-.39-.3c-.12-.43-.61-1.64-1.3-1.64h0c-.76,0-1.42,1-1.61,1.39a.41.41,0,0,1-.73-.37c0-.07.92-1.81,2.33-1.83h0c1.46,0,2.06,2.15,2.08,2.24a.41.41,0,0,1-.29.5Z"/><path class="cls-13" d="M404.44,28.92a2,2,0,0,0-2-.91c-1.51.15-2.24,1.72-2.19,3.2s.78,2.77,2.27,2.8h0a2.13,2.13,0,0,0,1.87-1.23A4,4,0,0,0,404.44,28.92Z"/><path class="cls-13" d="M386.58,28.38c-1.51.15-2.25,1.72-2.19,3.2s.78,2.77,2.27,2.8h0a2.14,2.14,0,0,0,1.87-1.23,4,4,0,0,0,0-3.86A2,2,0,0,0,386.58,28.38Z"/><path class="cls-12" d="M394.28,40.74c-3.51,0-4.74-3.79-4.75-3.83a.41.41,0,0,1,.78-.24c0,.13,1.07,3.26,4,3.26h.1c3.28-.09,4.2-3.52,4.21-3.55a.41.41,0,1,1,.79.2s-1.09,4.06-5,4.16Z"/><path class="cls-11" d="M395.47,1.07A19.45,19.45,0,0,1,410.59,4c8.65,5.68,9.3,12.62,8.4,12.92s-6.53-5.08-6.53-5.08,7.75,7.79,3.59,16.58c-.31.66-1.26-6.63-2.47-7.53-4-2.94-11.09-9.89-11.09-9.89s2,4.22.48,5-13-6.4-13-6.4S383.09,22,380.37,22s-2.74-3.3-2.74-3.3L375,24.17l-.56,5.59a14.58,14.58,0,0,1-2.33-9.2C372.62,15.43,379.61-.33,395.47,1.07Z"/></g></g></svg>