<svg xmlns="http://www.w3.org/2000/svg" xmlns:xlink="http://www.w3.org/1999/xlink" viewBox="0 0 269.93 109.57"><defs><style>.cls-1,.cls-7{fill:none;}.cls-2{isolation:isolate;}.cls-3{fill:#f1f1ad;}.cls-4{fill:#754d24;}.cls-5{fill:#fff;}.cls-6{opacity:0.5;}.cls-7{stroke:#3bb44a;stroke-linecap:round;stroke-miterlimit:10;stroke-width:2.4px;stroke-dasharray:6.09 6.09;}.cls-8{clip-path:url(#clip-path);}.cls-9{fill:#fac5bb;}.cls-10{fill:#ec1c24;}.cls-11{mix-blend-mode:multiply;fill:url(#radial-gradient);}.cls-12{fill:#c96b65;}</style><clipPath id="clip-path" transform="translate(0)"><path class="cls-1" d="M28.22,22.57a32.09,32.09,0,1,0,10.55-1.79,32.12,32.12,0,0,0-10.55,1.79"/></clipPath><radialGradient id="radial-gradient" cx="314.37" cy="-2368.52" r="8.61" gradientTransform="matrix(0.61, -0.8, 1.16, 0.89, 2589.48, 2387.98)" gradientUnits="userSpaceOnUse"><stop offset="0" stop-color="#fff"/><stop offset="1" stop-color="#c09883"/></radialGradient></defs><title>Asset 4</title><g class="cls-2"><g id="Layer_2" data-name="Layer 2"><g id="Layer_1-2" data-name="Layer 1"><path class="cls-3" d="M257.33,16.19C243.1,4.21,197.26,0,160.93,0h-.11C124.48,0,78.64,4.21,64.41,16.19S51.87,54.88,51.87,54.88,50.16,83.8,64.41,93.38s59.26,16.09,96.07,16.19h.79c36.81-.09,81.92-6.67,96.07-16.19s12.53-38.49,12.53-38.49S271.58,28.18,257.33,16.19Z" transform="translate(0)"/><path class="cls-4" d="M97.94,31.14v-7H96.41a.8.8,0,0,1-.71-.27,1.1,1.1,0,0,1-.23-.64v0a1,1,0,0,1,.24-.67.85.85,0,0,1,.69-.3h5.15a.9.9,0,0,1,.7.31,1,1,0,0,1,.25.67v0a1.08,1.08,0,0,1-.24.64.85.85,0,0,1-.71.29H100v7a1.08,1.08,0,0,1-1.8.81,1,1,0,0,1-.3-.8Z" transform="translate(0)"/><path class="cls-4" d="M106.59,24.53a3.3,3.3,0,0,1,2.6,1.2,4.08,4.08,0,0,1,1,2.72,4,4,0,0,1-1,2.72,3.56,3.56,0,0,1-5.24,0,4,4,0,0,1-1-2.72,4.08,4.08,0,0,1,1-2.72,3.26,3.26,0,0,1,2.6-1.18Zm-1.13,2.41a2.52,2.52,0,0,0-.46,1.2c0,.06,0,.11,0,.16s0,.1,0,.15v.12a.65.65,0,0,0,0,.13,2.48,2.48,0,0,0,.44,1.22,1.44,1.44,0,0,0,2.28,0,2.5,2.5,0,0,0,.44-1.22.65.65,0,0,0,0-.13v-.12s0-.1,0-.15,0-.11,0-.16a2.55,2.55,0,0,0-.46-1.21,1.29,1.29,0,0,0-1.13-.55A1.32,1.32,0,0,0,105.46,26.94Z" transform="translate(0)"/><path class="cls-4" d="M118.3,22.49v8.62a1.15,1.15,0,0,1-.28.82,1,1,0,0,1-.73.3,1,1,0,0,1-.67-.22,1.17,1.17,0,0,1-.34-.61,1.54,1.54,0,0,1-.62.59,2.92,2.92,0,0,1-.83.29l-.2,0h-.2A2.89,2.89,0,0,1,112,31.14a4.2,4.2,0,0,1-.9-2.6v-.2a4.86,4.86,0,0,1,.87-2.61,2.7,2.7,0,0,1,2.38-1.18,3.06,3.06,0,0,1,1,.18,2.61,2.61,0,0,1,.89.52V22.49a1.12,1.12,0,0,1,.29-.8,1,1,0,0,1,1.45,0,1.16,1.16,0,0,1,.28.81Zm-2,5.88V28.3a2.55,2.55,0,0,0-.41-1.31,1.3,1.3,0,0,0-1.17-.59,1.25,1.25,0,0,0-1.07.53,2.54,2.54,0,0,0-.47,1.18c0,.06,0,.11,0,.17s0,.12,0,.17,0,.11,0,.17,0,.12,0,.17a2.47,2.47,0,0,0,.47,1.16,1.25,1.25,0,0,0,1.07.53,1.27,1.27,0,0,0,1.12-.55,2.6,2.6,0,0,0,.45-1.21,1.64,1.64,0,0,1,0-.17c0-.06,0-.11,0-.17Z" transform="translate(0)"/><path class="cls-4" d="M126.68,22.49v8.62a1.16,1.16,0,0,1-.28.82,1,1,0,0,1-.73.3A1,1,0,0,1,125,32a1.16,1.16,0,0,1-.34-.61A1.57,1.57,0,0,1,124,32a2.92,2.92,0,0,1-.83.29l-.2,0h-.2a2.89,2.89,0,0,1-2.42-1.18,4.2,4.2,0,0,1-.9-2.6v-.2a4.86,4.86,0,0,1,.87-2.61,2.7,2.7,0,0,1,2.38-1.18,3.07,3.07,0,0,1,1,.18,2.64,2.64,0,0,1,.89.52V22.49a1.12,1.12,0,0,1,.29-.8,1,1,0,0,1,1.45,0,1.16,1.16,0,0,1,.28.81Zm-2,5.88V28.3a2.56,2.56,0,0,0-.41-1.31,1.3,1.3,0,0,0-1.17-.59,1.25,1.25,0,0,0-1.07.53,2.54,2.54,0,0,0-.47,1.18,1.63,1.63,0,0,0,0,.17c0,.06,0,.12,0,.17s0,.11,0,.17a1.6,1.6,0,0,0,0,.17A2.47,2.47,0,0,0,122,30a1.25,1.25,0,0,0,1.07.53,1.27,1.27,0,0,0,1.12-.55,2.6,2.6,0,0,0,.45-1.21c0-.06,0-.11,0-.17s0-.11,0-.17Z" transform="translate(0)"/><path class="cls-4" d="M128.15,31.11V22.49a1.12,1.12,0,0,1,.29-.8,1,1,0,0,1,1.45,0,1.16,1.16,0,0,1,.28.81v8.61a1.16,1.16,0,0,1-.28.82,1,1,0,0,1-1.45,0,1.12,1.12,0,0,1-.29-.81Z" transform="translate(0)"/><path class="cls-4" d="M133.26,29.1a1.51,1.51,0,0,0,.66,1.11,2.22,2.22,0,0,0,1.25.36,2,2,0,0,0,.72-.13,5,5,0,0,0,.61-.28l.52-.28a.94.94,0,0,1,.43-.13A.76.76,0,0,1,138,30a.86.86,0,0,1,.25.59q0,.56-.83,1a5,5,0,0,1-1.82.62l-.33,0H135a3.6,3.6,0,0,1-2.74-1.1,3.86,3.86,0,0,1-1-2.76,4.08,4.08,0,0,1,1-2.72,3.26,3.26,0,0,1,2.6-1.18,3.23,3.23,0,0,1,2.36.93,4.12,4.12,0,0,1,1.2,2c0,.11,0,.23,0,.34a2.74,2.74,0,0,1,0,.34,1,1,0,0,1-.21.67.89.89,0,0,1-.67.22Zm3.16-1.34a1.92,1.92,0,0,0-.5-1.08,1.6,1.6,0,0,0-2.21,0,1.8,1.8,0,0,0-.5,1.08Z" transform="translate(0)"/><path class="cls-4" d="M139.48,31.11v-5.5a.88.88,0,0,1,.3-.72,1.15,1.15,0,0,1,.66-.28h.07a1.31,1.31,0,0,1,.69.17.72.72,0,0,1,.29.67h0a2.15,2.15,0,0,1,.61-.62,1.46,1.46,0,0,1,.8-.21,1,1,0,0,1,.67.27,1,1,0,0,1,.31.81.6.6,0,0,1-.21.51,2,2,0,0,1-.5.27l-.24.09-.25.1h0a5.39,5.39,0,0,0-.8.48,1,1,0,0,0-.37.86v3.09a1.15,1.15,0,0,1-.28.82,1,1,0,0,1-1.45,0,1.12,1.12,0,0,1-.29-.81Z" transform="translate(0)"/><path class="cls-4" d="M154.4,25.81s0,.09,0,.13,0,.09,0,.13a1.24,1.24,0,0,1-.26.49.6.6,0,0,1-.48.22h-.17l-.17,0-.2-.06-.2-.08-.41-.13a1.55,1.55,0,0,0-.45-.06,1.42,1.42,0,0,0-1.27.64,2.52,2.52,0,0,0-.42,1.42v.11a2.44,2.44,0,0,0,.48,1.32,1.42,1.42,0,0,0,1.22.6l.27,0,.28-.08.15,0,.15-.06.38-.15a.86.86,0,0,1,.26-.06.82.82,0,0,1,.62.26.86.86,0,0,1,.25.62.91.91,0,0,1-.43.78,3.15,3.15,0,0,1-1,.43,4.29,4.29,0,0,1-.6.12l-.48,0a3.3,3.3,0,0,1-2.62-1.15,4,4,0,0,1-1-2.72,4.08,4.08,0,0,1,1-2.72,3.26,3.26,0,0,1,2.6-1.18l.48,0a4.11,4.11,0,0,1,.55.1,3.09,3.09,0,0,1,1,.39.85.85,0,0,1,.45.76Z" transform="translate(0)"/><path class="cls-4" d="M162.34,25.92v5.22a2.31,2.31,0,0,1,0,.24,1.3,1.3,0,0,1-.23.59.83.83,0,0,1-.72.27.85.85,0,0,1-.64-.22,1.48,1.48,0,0,1-.32-.62,2.67,2.67,0,0,1-.87.69,2.37,2.37,0,0,1-1.05.23,3,3,0,0,1-2.37-1.09,4.06,4.06,0,0,1-1-2.78,4.11,4.11,0,0,1,1-2.79,3,3,0,0,1,2.36-1.12,2.62,2.62,0,0,1,1.07.23,2,2,0,0,1,.85.71.92.92,0,0,1,.32-.61,1,1,0,0,1,.64-.24.82.82,0,0,1,.72.27,1.34,1.34,0,0,1,.23.6,2.32,2.32,0,0,1,0,.24v.21Zm-5.17,2.52v.13a.65.65,0,0,0,0,.13,2.49,2.49,0,0,0,.44,1.22,1.29,1.29,0,0,0,1.14.56,1.25,1.25,0,0,0,1.11-.56,2.53,2.53,0,0,0,.43-1.22.65.65,0,0,0,0-.13v-.12s0-.1,0-.15a1.43,1.43,0,0,1,0-.16,2.56,2.56,0,0,0-.45-1.2,1.25,1.25,0,0,0-1.09-.55,1.29,1.29,0,0,0-1.13.55,2.5,2.5,0,0,0-.46,1.2c0,.06,0,.11,0,.16s0,.1,0,.15Z" transform="translate(0)"/><path class="cls-4" d="M163.84,31.11V25.72a1.13,1.13,0,0,1,.29-.8.94.94,0,0,1,.72-.31,1,1,0,0,1,.63.2.85.85,0,0,1,.29.55,1.87,1.87,0,0,1,.76-.62,2.91,2.91,0,0,1,1.18-.21,2.82,2.82,0,0,1,2,.71,2.58,2.58,0,0,1,.78,2v3.86a1.16,1.16,0,0,1-.28.82,1,1,0,0,1-1.45,0,1.12,1.12,0,0,1-.29-.81V27.6a1.31,1.31,0,0,0-.38-1,1.35,1.35,0,0,0-.93-.34,1.18,1.18,0,0,0-1,.4,1.48,1.48,0,0,0-.34,1v3.5a1.15,1.15,0,0,1-.28.82,1,1,0,0,1-1.45,0,1.12,1.12,0,0,1-.29-.81Z" transform="translate(0)"/><path class="cls-4" d="M176.07,29.37V25.72a1.13,1.13,0,0,1,.29-.8,1,1,0,0,1,1.45,0,1.17,1.17,0,0,1,.28.81v3.59a1.21,1.21,0,0,0,.4,1,1.38,1.38,0,0,0,1.81,0,1.19,1.19,0,0,0,.4-1V25.72a1.13,1.13,0,0,1,.29-.8,1,1,0,0,1,1.45,0,1.17,1.17,0,0,1,.28.81v3.63a2.78,2.78,0,0,1-.86,2.15,4.2,4.2,0,0,1-4.91,0,2.76,2.76,0,0,1-.86-2.14Z" transform="translate(0)"/><path class="cls-4" d="M189.28,26a1,1,0,0,1-.23.64.74.74,0,0,1-.59.27.92.92,0,0,1-.35-.09l-.45-.2-.28-.12-.28-.11-.22,0-.22,0a.87.87,0,0,0-.48.13.47.47,0,0,0-.21.43.44.44,0,0,0,.22.36,3.14,3.14,0,0,0,.56.29l.47.17.5.2a4.78,4.78,0,0,1,1.2.74,1.62,1.62,0,0,1,.55,1.32,2.12,2.12,0,0,1-.78,1.68,3.1,3.1,0,0,1-2.09.67l-.44,0-.46-.08a4,4,0,0,1-1.32-.53,1.07,1.07,0,0,1-.59-.9.78.78,0,0,1,0-.17.53.53,0,0,1,.08-.18,1.12,1.12,0,0,1,.29-.38.71.71,0,0,1,.48-.17,1.23,1.23,0,0,1,.45.08,2.4,2.4,0,0,1,.38.19l.08,0,.08,0a2.87,2.87,0,0,0,.49.25,1.66,1.66,0,0,0,.62.11,1,1,0,0,0,.63-.15.54.54,0,0,0,.17-.43.43.43,0,0,0-.22-.36,3.15,3.15,0,0,0-.55-.29l-.47-.18-.51-.2a4.7,4.7,0,0,1-1.21-.74A1.65,1.65,0,0,1,184,26.9a2.12,2.12,0,0,1,.77-1.7,2.93,2.93,0,0,1,2-.65l.41,0a3,3,0,0,1,.43.08,3.26,3.26,0,0,1,1.16.47,1,1,0,0,1,.53.89Z" transform="translate(0)"/><path class="cls-4" d="M192.14,29.1a1.51,1.51,0,0,0,.66,1.11,2.22,2.22,0,0,0,1.25.36,2,2,0,0,0,.72-.13,5,5,0,0,0,.61-.28l.52-.28a.94.94,0,0,1,.43-.13.76.76,0,0,1,.57.27.86.86,0,0,1,.25.59q0,.56-.83,1a5,5,0,0,1-1.82.62l-.33,0h-.32a3.6,3.6,0,0,1-2.74-1.1,3.86,3.86,0,0,1-1-2.76,4.08,4.08,0,0,1,1-2.72,3.26,3.26,0,0,1,2.6-1.18,3.23,3.23,0,0,1,2.36.93,4.12,4.12,0,0,1,1.2,2c0,.11,0,.23,0,.34a2.73,2.73,0,0,1,0,.34,1,1,0,0,1-.21.67.89.89,0,0,1-.67.22Zm3.16-1.34a1.92,1.92,0,0,0-.5-1.08,1.6,1.6,0,0,0-2.21,0,1.8,1.8,0,0,0-.5,1.08Z" transform="translate(0)"/><path class="cls-4" d="M203,31.11V26.46h-.45a.8.8,0,0,1-.64-.22.88.88,0,0,1-.23-.64.87.87,0,0,1,.25-.63.83.83,0,0,1,.62-.25H203v-1.2a1.12,1.12,0,0,1,.29-.8,1,1,0,0,1,1.45,0,1.16,1.16,0,0,1,.28.81V24.7h.57a1.27,1.27,0,0,1,.68.21.94.94,0,0,1,0,1.35,1.15,1.15,0,0,1-.68.2H205v4.65a1.16,1.16,0,0,1-.28.82,1,1,0,0,1-1.45,0,1.12,1.12,0,0,1-.29-.81Z" transform="translate(0)"/><path class="cls-4" d="M213.87,25.92v5.22a2.31,2.31,0,0,1,0,.24,1.3,1.3,0,0,1-.23.59.83.83,0,0,1-.72.27.85.85,0,0,1-.64-.22,1.47,1.47,0,0,1-.32-.62,2.67,2.67,0,0,1-.87.69,2.37,2.37,0,0,1-1,.23,3,3,0,0,1-2.37-1.09,4.05,4.05,0,0,1-1-2.78,4.11,4.11,0,0,1,1-2.79A3,3,0,0,1,210,24.53a2.61,2.61,0,0,1,1.07.23,2,2,0,0,1,.85.71.91.91,0,0,1,.32-.61,1,1,0,0,1,.64-.24.82.82,0,0,1,.72.27,1.34,1.34,0,0,1,.23.6,2.32,2.32,0,0,1,0,.24v.21Zm-5.17,2.52v.13a.72.72,0,0,0,0,.13,2.5,2.5,0,0,0,.44,1.22,1.29,1.29,0,0,0,1.14.56,1.25,1.25,0,0,0,1.11-.56,2.53,2.53,0,0,0,.43-1.22.65.65,0,0,0,0-.13v-.12s0-.1,0-.15,0-.11,0-.16a2.56,2.56,0,0,0-.45-1.2,1.25,1.25,0,0,0-1.09-.55,1.29,1.29,0,0,0-1.13.55,2.52,2.52,0,0,0-.46,1.2c0,.06,0,.11,0,.16s0,.1,0,.15Z" transform="translate(0)"/><path class="cls-4" d="M215.37,31.11V22.49a1.12,1.12,0,0,1,.29-.8,1,1,0,0,1,1.45,0,1.16,1.16,0,0,1,.28.81v2.73a2.9,2.9,0,0,1,.9-.51,3,3,0,0,1,1-.18,2.7,2.7,0,0,1,2.38,1.18,4.86,4.86,0,0,1,.87,2.61v.2a4.2,4.2,0,0,1-.9,2.6,2.89,2.89,0,0,1-2.42,1.18H219l-.2,0A2.9,2.9,0,0,1,218,32a1.55,1.55,0,0,1-.62-.59A1.17,1.17,0,0,1,217,32a1,1,0,0,1-.66.22,1,1,0,0,1-.72-.3,1.12,1.12,0,0,1-.29-.81Zm2-2.74c0,.07,0,.13,0,.18s0,.11,0,.17a2.6,2.6,0,0,0,.45,1.21,1.27,1.27,0,0,0,1.12.55A1.25,1.25,0,0,0,220,30a2.47,2.47,0,0,0,.47-1.16c0-.06,0-.11,0-.17s0-.12,0-.17,0-.11,0-.17,0-.12,0-.17a2.54,2.54,0,0,0-.47-1.18,1.25,1.25,0,0,0-1.07-.53,1.3,1.3,0,0,0-1.17.59,2.55,2.55,0,0,0-.41,1.31v.08Z" transform="translate(0)"/><path class="cls-4" d="M223.73,31.11V22.49a1.12,1.12,0,0,1,.29-.8,1,1,0,0,1,1.45,0,1.16,1.16,0,0,1,.28.81v8.61a1.16,1.16,0,0,1-.28.82,1,1,0,0,1-1.45,0,1.12,1.12,0,0,1-.29-.81Z" transform="translate(0)"/><path class="cls-4" d="M228.84,29.1a1.51,1.51,0,0,0,.66,1.11,2.22,2.22,0,0,0,1.25.36,2,2,0,0,0,.72-.13,4.93,4.93,0,0,0,.61-.28l.52-.28a.94.94,0,0,1,.43-.13.76.76,0,0,1,.57.27.86.86,0,0,1,.25.59q0,.56-.83,1a5,5,0,0,1-1.82.62l-.33,0h-.32a3.6,3.6,0,0,1-2.74-1.1,3.86,3.86,0,0,1-1-2.76,4.07,4.07,0,0,1,1-2.72,3.46,3.46,0,0,1,5-.25,4.12,4.12,0,0,1,1.2,2q0,.17,0,.34a2.92,2.92,0,0,1,0,.34,1,1,0,0,1-.21.67.89.89,0,0,1-.67.22ZM232,27.75a1.91,1.91,0,0,0-.5-1.08,1.61,1.61,0,0,0-2.21,0,1.79,1.79,0,0,0-.5,1.08Z" transform="translate(0)"/><path class="cls-4" d="M96.2,48.17V44.52a1.13,1.13,0,0,1,.29-.8,1,1,0,0,1,1.45,0,1.16,1.16,0,0,1,.28.81v3.59a1.21,1.21,0,0,0,.4,1,1.38,1.38,0,0,0,1.81,0,1.19,1.19,0,0,0,.4-1V44.52a1.13,1.13,0,0,1,.29-.8,1,1,0,0,1,1.45,0,1.17,1.17,0,0,1,.28.81v3.63a2.78,2.78,0,0,1-.86,2.15,4.2,4.2,0,0,1-4.91,0,2.76,2.76,0,0,1-.86-2.14Z" transform="translate(0)"/><path class="cls-4" d="M104.83,49.91V45.26h-.45a.8.8,0,0,1-.64-.22.89.89,0,0,1-.23-.64.87.87,0,0,1,.25-.63.83.83,0,0,1,.62-.25h.45v-1.2a1.12,1.12,0,0,1,.29-.8,1,1,0,0,1,1.45,0,1.16,1.16,0,0,1,.28.81V43.5h.57a1.27,1.27,0,0,1,.68.21.94.94,0,0,1,0,1.35,1.15,1.15,0,0,1-.68.2h-.57v4.65a1.16,1.16,0,0,1-.28.82,1,1,0,0,1-1.45,0,1.12,1.12,0,0,1-.29-.81Z" transform="translate(0)"/><path class="cls-4" d="M110.46,47.9a1.52,1.52,0,0,0,.66,1.11,2.23,2.23,0,0,0,1.25.36,2,2,0,0,0,.72-.13,4.94,4.94,0,0,0,.61-.28l.52-.28a.94.94,0,0,1,.43-.13.76.76,0,0,1,.57.27.86.86,0,0,1,.25.59q0,.56-.83,1a5,5,0,0,1-1.82.62l-.33,0h-.31a3.6,3.6,0,0,1-2.74-1.1,3.86,3.86,0,0,1-1-2.76,4.08,4.08,0,0,1,1-2.72,3.46,3.46,0,0,1,5-.25,4.13,4.13,0,0,1,1.2,2c0,.11,0,.23,0,.34a2.92,2.92,0,0,1,0,.34.94.94,0,0,1-.21.67.89.89,0,0,1-.67.22Zm3.16-1.34a1.9,1.9,0,0,0-.5-1.09,1.61,1.61,0,0,0-2.21,0,1.8,1.8,0,0,0-.5,1.08Z" transform="translate(0)"/><path class="cls-4" d="M116.7,49.91V44.52a1.13,1.13,0,0,1,.29-.8.94.94,0,0,1,.72-.31,1,1,0,0,1,.63.2.85.85,0,0,1,.29.55,1.88,1.88,0,0,1,.76-.62,2.91,2.91,0,0,1,1.18-.21,2.81,2.81,0,0,1,2,.71,2.58,2.58,0,0,1,.79,2v3.86a1.16,1.16,0,0,1-.28.82,1,1,0,0,1-1.45,0,1.12,1.12,0,0,1-.29-.81V46.4a1.31,1.31,0,0,0-.38-1A1.35,1.35,0,0,0,120,45a1.18,1.18,0,0,0-1,.4,1.49,1.49,0,0,0-.34,1v3.5a1.16,1.16,0,0,1-.28.82,1,1,0,0,1-1.45,0,1.12,1.12,0,0,1-.29-.81Z" transform="translate(0)"/><path class="cls-4" d="M129.9,44.79a1,1,0,0,1-.23.64.74.74,0,0,1-.59.27.92.92,0,0,1-.35-.09l-.45-.2-.28-.12-.28-.11-.22,0-.22,0a.87.87,0,0,0-.48.13.47.47,0,0,0-.21.43.44.44,0,0,0,.22.36,3.14,3.14,0,0,0,.56.29l.47.17.5.2a4.79,4.79,0,0,1,1.2.74,1.62,1.62,0,0,1,.55,1.32,2.13,2.13,0,0,1-.78,1.68,3.1,3.1,0,0,1-2.09.67l-.44,0-.46-.08a4,4,0,0,1-1.32-.53,1.07,1.07,0,0,1-.59-.9.77.77,0,0,1,0-.17.53.53,0,0,1,.08-.18,1.12,1.12,0,0,1,.29-.38.71.71,0,0,1,.48-.17,1.23,1.23,0,0,1,.45.08,2.39,2.39,0,0,1,.38.19l.08,0,.08,0a2.87,2.87,0,0,0,.49.25,1.66,1.66,0,0,0,.62.11,1,1,0,0,0,.63-.15.54.54,0,0,0,.17-.43.43.43,0,0,0-.22-.36,3.15,3.15,0,0,0-.55-.29l-.47-.18-.51-.2A4.71,4.71,0,0,1,125.2,47a1.65,1.65,0,0,1-.54-1.33,2.12,2.12,0,0,1,.77-1.7,2.93,2.93,0,0,1,2-.65l.41,0a3,3,0,0,1,.43.08,3.26,3.26,0,0,1,1.16.47,1,1,0,0,1,.53.89Z" transform="translate(0)"/><path class="cls-4" d="M132.13,40.39a1.16,1.16,0,0,1,.79.34,1,1,0,0,1,.34.78,1.14,1.14,0,0,1-.33.82,1.09,1.09,0,0,1-1.6,0,1.13,1.13,0,0,1-.34-.81,1,1,0,0,1,.34-.77,1.09,1.09,0,0,1,.79-.34Zm-1,9.52V44.52a1.13,1.13,0,0,1,.29-.8,1,1,0,0,1,1.45,0,1.16,1.16,0,0,1,.28.81v5.37a1.16,1.16,0,0,1-.28.82,1,1,0,0,1-1.45,0,1.12,1.12,0,0,1-.29-.81Z" transform="translate(0)"/><path class="cls-4" d="M134.58,49.91V41.29a1.12,1.12,0,0,1,.29-.8,1,1,0,0,1,1.45,0,1.16,1.16,0,0,1,.28.81v8.61a1.16,1.16,0,0,1-.28.82,1,1,0,0,1-1.45,0,1.12,1.12,0,0,1-.29-.81Z" transform="translate(0)"/><path class="cls-4" d="M143.13,44.79a1,1,0,0,1-.23.64.74.74,0,0,1-.6.27.93.93,0,0,1-.35-.09l-.45-.2-.28-.12-.28-.11-.22,0-.22,0a.87.87,0,0,0-.48.13.47.47,0,0,0-.21.43A.44.44,0,0,0,140,46a3.12,3.12,0,0,0,.56.29l.47.17.5.2a4.81,4.81,0,0,1,1.2.74,1.63,1.63,0,0,1,.55,1.32,2.13,2.13,0,0,1-.78,1.68,3.1,3.1,0,0,1-2.09.67l-.44,0-.46-.08a4,4,0,0,1-1.32-.53,1.07,1.07,0,0,1-.6-.9.85.85,0,0,1,0-.17.52.52,0,0,1,.08-.18,1.14,1.14,0,0,1,.29-.38.71.71,0,0,1,.48-.17,1.23,1.23,0,0,1,.45.08,2.4,2.4,0,0,1,.38.19l.08,0,.08,0a3,3,0,0,0,.49.25,1.67,1.67,0,0,0,.62.11,1,1,0,0,0,.63-.15.54.54,0,0,0,.17-.43.43.43,0,0,0-.22-.36,3.12,3.12,0,0,0-.55-.29l-.47-.18-.51-.2a4.7,4.7,0,0,1-1.2-.74,1.65,1.65,0,0,1-.55-1.33,2.12,2.12,0,0,1,.77-1.7,2.93,2.93,0,0,1,2-.65l.41,0a3,3,0,0,1,.43.08,3.27,3.27,0,0,1,1.16.47,1,1,0,0,1,.52.89Z" transform="translate(0)"/><path class="cls-4" d="M146.59,50.25l-1.18,2.1a.74.74,0,0,1-.19.24,1.12,1.12,0,0,1-.25.15l-.2.06-.17,0a.91.91,0,0,1-.66-.27.88.88,0,0,1-.28-.65.83.83,0,0,1,0-.28l.1-.28,1.16-2.1a.71.71,0,0,1,.19-.22,1.24,1.24,0,0,1,.25-.15l.21-.08.17,0a1,1,0,0,1,.67.27.86.86,0,0,1,.29.65.7.7,0,0,1,0,.25l-.11.24a.1.1,0,0,1,0,0l0,0Z" transform="translate(0)"/><path class="cls-4" d="M154.21,47.9a1.51,1.51,0,0,0,.66,1.11,2.22,2.22,0,0,0,1.25.36,2,2,0,0,0,.72-.13,5,5,0,0,0,.61-.28l.52-.28a.94.94,0,0,1,.43-.13.76.76,0,0,1,.57.27.86.86,0,0,1,.25.59q0,.56-.83,1a5,5,0,0,1-1.82.62l-.33,0h-.32a3.6,3.6,0,0,1-2.74-1.1,3.86,3.86,0,0,1-1-2.76,4.08,4.08,0,0,1,1-2.72,3.26,3.26,0,0,1,2.6-1.18,3.23,3.23,0,0,1,2.36.93,4.12,4.12,0,0,1,1.2,2c0,.11,0,.23,0,.34a2.74,2.74,0,0,1,0,.34,1,1,0,0,1-.21.67.89.89,0,0,1-.67.22Zm3.16-1.34a1.91,1.91,0,0,0-.5-1.09,1.6,1.6,0,0,0-2.21,0,1.8,1.8,0,0,0-.5,1.08Z" transform="translate(0)"/><path class="cls-4" d="M160.66,50a1,1,0,0,1,.32-.76,1.09,1.09,0,0,1,1.86.77,1,1,0,0,1-.32.76,1.1,1.1,0,0,1-1.54,0,1,1,0,0,1-.32-.76Z" transform="translate(0)"/><path class="cls-4" d="M171.44,44.52v5.84a3.37,3.37,0,0,1-1.08,2.73,4.19,4.19,0,0,1-2.8.91,5.42,5.42,0,0,1-.63,0,6.21,6.21,0,0,1-.81-.16,4.63,4.63,0,0,1-1.2-.48.93.93,0,0,1-.54-.82.52.52,0,0,1,0-.12l0-.12a1.11,1.11,0,0,1,.28-.41.81.81,0,0,1,.42-.23h.07a1.4,1.4,0,0,1,.5.1l.57.22c.2.08.43.14.66.21a3,3,0,0,0,.79.1,1.82,1.82,0,0,0,1.22-.41,1.45,1.45,0,0,0,.48-1.17v-.49h0a1.92,1.92,0,0,1-.82.71,2.86,2.86,0,0,1-1.21.24A2.6,2.6,0,0,1,165,49.94a4.82,4.82,0,0,1-.76-2.68,4.44,4.44,0,0,1,.9-2.73,2.87,2.87,0,0,1,2.42-1.2h.2l.2,0a2.79,2.79,0,0,1,.83.3,1.59,1.59,0,0,1,.62.59,1.18,1.18,0,0,1,.34-.62,1,1,0,0,1,.66-.22.94.94,0,0,1,.73.31,1.16,1.16,0,0,1,.28.81Zm-2,2.76s0-.1,0-.15a1.6,1.6,0,0,1,0-.17,2.61,2.61,0,0,0-.45-1.21,1.27,1.27,0,0,0-1.12-.55,1.25,1.25,0,0,0-1.07.52,2.48,2.48,0,0,0-.47,1.16c0,.06,0,.11,0,.17s0,.12,0,.17a2.64,2.64,0,0,0,.39,1.44,1.43,1.43,0,0,0,2.35,0,2.55,2.55,0,0,0,.41-1.31v-.08Z" transform="translate(0)"/><path class="cls-4" d="M173.15,50a1,1,0,0,1,.32-.76,1.09,1.09,0,0,1,1.86.77,1,1,0,0,1-.32.76,1.1,1.1,0,0,1-1.54,0,1,1,0,0,1-.32-.76Z" transform="translate(0)"/><path class="cls-4" d="M179.25,50.25l-1.18,2.1a.72.72,0,0,1-.19.24,1.06,1.06,0,0,1-.24.15l-.2.06-.17,0a.91.91,0,0,1-.66-.27.88.88,0,0,1-.23-.93l.11-.28,1.16-2.1a.69.69,0,0,1,.19-.22,1.18,1.18,0,0,1,.24-.15l.21-.08.17,0a1,1,0,0,1,.67.27.86.86,0,0,1,.29.65.68.68,0,0,1,0,.25c0,.08-.07.16-.1.24v0l0,0Z" transform="translate(0)"/><path class="cls-4" d="M192.13,44.72v5.22a2.31,2.31,0,0,1,0,.24,1.3,1.3,0,0,1-.23.59.83.83,0,0,1-.72.27.85.85,0,0,1-.64-.22,1.49,1.49,0,0,1-.32-.62,2.67,2.67,0,0,1-.87.69,2.37,2.37,0,0,1-1.05.23A3,3,0,0,1,185.91,50a4.06,4.06,0,0,1-1-2.78,4.11,4.11,0,0,1,1-2.79,3,3,0,0,1,2.36-1.12,2.62,2.62,0,0,1,1.07.23,2,2,0,0,1,.85.71.92.92,0,0,1,.32-.61,1,1,0,0,1,.64-.24.82.82,0,0,1,.72.27,1.34,1.34,0,0,1,.23.6,2.32,2.32,0,0,1,0,.24v.21ZM187,47.24v.13a.65.65,0,0,0,0,.13,2.49,2.49,0,0,0,.44,1.22,1.29,1.29,0,0,0,1.14.56,1.25,1.25,0,0,0,1.11-.56,2.53,2.53,0,0,0,.43-1.22.64.64,0,0,0,0-.13v-.12s0-.1,0-.15a1.43,1.43,0,0,1,0-.16,2.56,2.56,0,0,0-.45-1.2,1.25,1.25,0,0,0-1.09-.55,1.29,1.29,0,0,0-1.13.55,2.5,2.5,0,0,0-.46,1.2c0,.06,0,.11,0,.16s0,.1,0,.15Z" transform="translate(0)"/><path class="cls-4" d="M202.8,44.79a1,1,0,0,1-.23.64.74.74,0,0,1-.6.27.92.92,0,0,1-.35-.09l-.45-.2-.28-.12-.28-.11-.22,0-.22,0a.87.87,0,0,0-.48.13.47.47,0,0,0-.21.43.44.44,0,0,0,.22.36,3.15,3.15,0,0,0,.56.29l.47.17.5.2a4.82,4.82,0,0,1,1.21.74,1.62,1.62,0,0,1,.54,1.32,2.13,2.13,0,0,1-.78,1.68,3.1,3.1,0,0,1-2.09.67l-.44,0-.46-.08a4,4,0,0,1-1.32-.53,1.07,1.07,0,0,1-.59-.9.84.84,0,0,1,0-.17.53.53,0,0,1,.08-.18,1.13,1.13,0,0,1,.29-.38.71.71,0,0,1,.48-.17,1.23,1.23,0,0,1,.45.08,2.4,2.4,0,0,1,.38.19l.08,0,.08,0a2.94,2.94,0,0,0,.49.25,1.66,1.66,0,0,0,.62.11,1,1,0,0,0,.63-.15.54.54,0,0,0,.17-.43.43.43,0,0,0-.22-.36,3.12,3.12,0,0,0-.55-.29l-.47-.18-.51-.2a4.7,4.7,0,0,1-1.2-.74,1.65,1.65,0,0,1-.55-1.33,2.12,2.12,0,0,1,.77-1.7,2.93,2.93,0,0,1,2-.65l.41,0a3,3,0,0,1,.43.08,3.25,3.25,0,0,1,1.15.47,1,1,0,0,1,.53.89Z" transform="translate(0)"/><path class="cls-4" d="M204,44.52a1.13,1.13,0,0,1,.29-.8.94.94,0,0,1,.72-.31,1,1,0,0,1,.67.22,1.17,1.17,0,0,1,.34.62,1.73,1.73,0,0,1,.76-.67,2.71,2.71,0,0,1,1-.26H208a2.7,2.7,0,0,1,2.38,1.19,4.88,4.88,0,0,1,.87,2.62v.2a4.22,4.22,0,0,1-.9,2.61,2.88,2.88,0,0,1-2.42,1.18h-.25l-.27,0a3.22,3.22,0,0,1-.69-.22,2.64,2.64,0,0,1-.64-.41v2.45a1.16,1.16,0,0,1-.28.81,1,1,0,0,1-1.45,0,1.15,1.15,0,0,1-.29-.81Zm2,2.64c0,.07,0,.13,0,.18s0,.11,0,.17a2.6,2.6,0,0,0,.45,1.21,1.27,1.27,0,0,0,1.12.55,1.25,1.25,0,0,0,1.07-.53,2.47,2.47,0,0,0,.47-1.16c0-.06,0-.11,0-.17s0-.12,0-.17,0-.11,0-.17,0-.12,0-.17a2.54,2.54,0,0,0-.47-1.18,1.25,1.25,0,0,0-1.07-.53,1.3,1.3,0,0,0-1.17.59,2.55,2.55,0,0,0-.41,1.31v.08Z" transform="translate(0)"/><path class="cls-4" d="M215.75,43.33a3.3,3.3,0,0,1,2.6,1.2,4.08,4.08,0,0,1,1,2.72,4,4,0,0,1-1,2.72,3.56,3.56,0,0,1-5.24,0,4,4,0,0,1-1-2.72,4.08,4.08,0,0,1,1-2.72,3.26,3.26,0,0,1,2.6-1.18Zm-1.13,2.41a2.52,2.52,0,0,0-.46,1.2c0,.06,0,.11,0,.16s0,.1,0,.15v.12a.72.72,0,0,0,0,.13,2.5,2.5,0,0,0,.44,1.22,1.44,1.44,0,0,0,2.28,0,2.49,2.49,0,0,0,.44-1.22.66.66,0,0,0,0-.13v-.12s0-.1,0-.15,0-.11,0-.16a2.54,2.54,0,0,0-.46-1.21,1.29,1.29,0,0,0-1.13-.55A1.33,1.33,0,0,0,214.62,45.74Z" transform="translate(0)"/><path class="cls-4" d="M223.88,43.33a3.3,3.3,0,0,1,2.6,1.2,4.08,4.08,0,0,1,1,2.72,4,4,0,0,1-1,2.72,3.56,3.56,0,0,1-5.24,0,4,4,0,0,1-1-2.72,4.08,4.08,0,0,1,1-2.72,3.26,3.26,0,0,1,2.6-1.18Zm-1.13,2.41a2.52,2.52,0,0,0-.46,1.2c0,.06,0,.11,0,.16s0,.1,0,.15v.12a.72.72,0,0,0,0,.13,2.5,2.5,0,0,0,.44,1.22,1.44,1.44,0,0,0,2.28,0,2.49,2.49,0,0,0,.44-1.22.66.66,0,0,0,0-.13v-.12s0-.1,0-.15,0-.11,0-.16a2.54,2.54,0,0,0-.46-1.21,1.29,1.29,0,0,0-1.13-.55A1.33,1.33,0,0,0,222.75,45.74Z" transform="translate(0)"/><path class="cls-4" d="M228.7,49.91V44.52a1.13,1.13,0,0,1,.29-.8.94.94,0,0,1,.72-.31,1,1,0,0,1,.63.2.85.85,0,0,1,.29.55,1.87,1.87,0,0,1,.76-.62,2.91,2.91,0,0,1,1.18-.21,2.82,2.82,0,0,1,2,.71,2.58,2.58,0,0,1,.78,2v3.86a1.16,1.16,0,0,1-.28.82,1,1,0,0,1-1.45,0,1.12,1.12,0,0,1-.29-.81V46.4a1.31,1.31,0,0,0-.39-1A1.35,1.35,0,0,0,232,45a1.18,1.18,0,0,0-1,.4,1.48,1.48,0,0,0-.34,1v3.5a1.15,1.15,0,0,1-.28.82,1,1,0,0,1-1.45,0,1.12,1.12,0,0,1-.29-.81Z" transform="translate(0)"/><path class="cls-4" d="M239,50.25l-1.18,2.1a.73.73,0,0,1-.19.24,1.09,1.09,0,0,1-.25.15l-.2.06-.17,0a.91.91,0,0,1-.66-.27.88.88,0,0,1-.28-.65.85.85,0,0,1,0-.28l.11-.28,1.16-2.1a.69.69,0,0,1,.19-.22,1.21,1.21,0,0,1,.25-.15l.21-.08.17,0a1,1,0,0,1,.67.27.86.86,0,0,1,.29.65.7.7,0,0,1,0,.25l-.1.24v0l0,0Z" transform="translate(0)"/><path class="cls-4" d="M96.69,68.71V64.06h-.45a.8.8,0,0,1-.64-.22.88.88,0,0,1-.23-.64.86.86,0,0,1,.25-.63.83.83,0,0,1,.62-.25h.45V61.1a1.13,1.13,0,0,1,.29-.8,1,1,0,0,1,1.45,0,1.16,1.16,0,0,1,.28.81V62.3h.57a1.27,1.27,0,0,1,.68.21.94.94,0,0,1,0,1.35,1.16,1.16,0,0,1-.68.2h-.57v4.65a1.15,1.15,0,0,1-.28.82,1,1,0,0,1-1.45,0,1.12,1.12,0,0,1-.29-.8Z" transform="translate(0)"/><path class="cls-4" d="M104,62.13a3.3,3.3,0,0,1,2.6,1.2,4.08,4.08,0,0,1,1,2.72,4,4,0,0,1-1,2.72,3.56,3.56,0,0,1-5.24,0,4,4,0,0,1-1-2.72,4.08,4.08,0,0,1,1-2.72,3.26,3.26,0,0,1,2.6-1.18Zm-1.13,2.41a2.52,2.52,0,0,0-.45,1.2c0,.06,0,.11,0,.16s0,.1,0,.15v.12a.65.65,0,0,0,0,.13,2.48,2.48,0,0,0,.44,1.22,1.44,1.44,0,0,0,2.28,0,2.5,2.5,0,0,0,.44-1.22.64.64,0,0,0,0-.13V66s0-.1,0-.15,0-.1,0-.16a2.54,2.54,0,0,0-.45-1.21A1.29,1.29,0,0,0,104,64,1.32,1.32,0,0,0,102.89,64.54Z" transform="translate(0)"/><path class="cls-4" d="M119.82,60.09v8.62a1.15,1.15,0,0,1-.28.82,1,1,0,0,1-.73.3,1,1,0,0,1-.67-.22,1.17,1.17,0,0,1-.34-.61,1.55,1.55,0,0,1-.62.59,3,3,0,0,1-.83.29l-.2,0H116a2.88,2.88,0,0,1-2.42-1.18,4.2,4.2,0,0,1-.9-2.6v-.2a4.87,4.87,0,0,1,.87-2.61,2.7,2.7,0,0,1,2.38-1.18,3.08,3.08,0,0,1,1,.17,2.63,2.63,0,0,1,.89.53V60.09a1.12,1.12,0,0,1,.29-.8,1,1,0,0,1,1.45,0,1.16,1.16,0,0,1,.28.81Zm-2,5.88V65.9a2.55,2.55,0,0,0-.41-1.31,1.3,1.3,0,0,0-1.17-.59,1.25,1.25,0,0,0-1.07.53,2.53,2.53,0,0,0-.47,1.18c0,.06,0,.11,0,.17s0,.12,0,.18,0,.11,0,.17,0,.12,0,.17a2.48,2.48,0,0,0,.47,1.16,1.25,1.25,0,0,0,1.07.52,1.27,1.27,0,0,0,1.12-.55,2.6,2.6,0,0,0,.45-1.21,1.6,1.6,0,0,1,0-.17c0-.06,0-.11,0-.17Z" transform="translate(0)"/><path class="cls-4" d="M121.29,68.71v-5.5a.88.88,0,0,1,.3-.71,1.15,1.15,0,0,1,.67-.28h.07a1.3,1.3,0,0,1,.69.18.71.71,0,0,1,.29.67h0a2.15,2.15,0,0,1,.61-.62,1.46,1.46,0,0,1,.8-.21,1,1,0,0,1,.67.27,1,1,0,0,1,.31.81.6.6,0,0,1-.21.51,2,2,0,0,1-.5.27l-.24.09-.25.11h0a5.48,5.48,0,0,0-.8.48,1,1,0,0,0-.37.86v3.08a1.16,1.16,0,0,1-.28.82,1,1,0,0,1-1.45,0,1.12,1.12,0,0,1-.29-.81Z" transform="translate(0)"/><path class="cls-4" d="M129.65,62.13a3.31,3.31,0,0,1,2.6,1.2,4.08,4.08,0,0,1,1,2.72,4,4,0,0,1-1,2.72,3.56,3.56,0,0,1-5.24,0,4,4,0,0,1-1-2.72,4.08,4.08,0,0,1,1-2.72,3.27,3.27,0,0,1,2.6-1.18Zm-1.13,2.41a2.51,2.51,0,0,0-.46,1.2c0,.06,0,.11,0,.16s0,.1,0,.15v.12a.74.74,0,0,0,0,.13,2.49,2.49,0,0,0,.44,1.22,1.44,1.44,0,0,0,2.28,0,2.52,2.52,0,0,0,.44-1.22.72.72,0,0,0,0-.13V66s0-.1,0-.15,0-.1,0-.16a2.53,2.53,0,0,0-.46-1.21,1.29,1.29,0,0,0-1.13-.55A1.32,1.32,0,0,0,128.52,64.54Z" transform="translate(0)"/><path class="cls-4" d="M134.46,63.32a1.12,1.12,0,0,1,.29-.8.94.94,0,0,1,.72-.31,1,1,0,0,1,.67.22,1.17,1.17,0,0,1,.34.62,1.72,1.72,0,0,1,.76-.67,2.72,2.72,0,0,1,1-.26h.14a2.7,2.7,0,0,1,2.38,1.19,4.88,4.88,0,0,1,.87,2.62v.2a4.21,4.21,0,0,1-.9,2.61,2.88,2.88,0,0,1-2.42,1.18h-.25l-.27,0a3.27,3.27,0,0,1-.69-.22,2.64,2.64,0,0,1-.64-.41v2.45a1.16,1.16,0,0,1-.28.81,1,1,0,0,1-1.45,0,1.14,1.14,0,0,1-.29-.81Zm2,2.64c0,.07,0,.13,0,.18s0,.11,0,.17a2.59,2.59,0,0,0,.45,1.21,1.38,1.38,0,0,0,2.19,0,2.5,2.5,0,0,0,.47-1.16c0-.06,0-.11,0-.17s0-.12,0-.17,0-.11,0-.18,0-.12,0-.17a2.55,2.55,0,0,0-.47-1.18,1.25,1.25,0,0,0-1.07-.53,1.3,1.3,0,0,0-1.17.59,2.55,2.55,0,0,0-.41,1.31V66Z" transform="translate(0)"/><path class="cls-4" d="M150.27,62.13a3.31,3.31,0,0,1,2.6,1.2,4.08,4.08,0,0,1,1,2.72,4,4,0,0,1-1,2.72,3.56,3.56,0,0,1-5.24,0,4,4,0,0,1-1-2.72,4.08,4.08,0,0,1,1-2.72,3.26,3.26,0,0,1,2.6-1.18Zm-1.13,2.41a2.5,2.5,0,0,0-.46,1.2c0,.06,0,.11,0,.16s0,.1,0,.15v.12a.66.66,0,0,0,0,.13,2.48,2.48,0,0,0,.44,1.22,1.44,1.44,0,0,0,2.28,0,2.52,2.52,0,0,0,.44-1.22.72.72,0,0,0,0-.13V66s0-.1,0-.15,0-.1,0-.16a2.54,2.54,0,0,0-.46-1.21,1.29,1.29,0,0,0-1.13-.55A1.32,1.32,0,0,0,149.14,64.54Z" transform="translate(0)"/><path class="cls-4" d="M155.55,68.71V64.06h-.45a.8.8,0,0,1-.64-.22.88.88,0,0,1-.23-.64.86.86,0,0,1,.25-.63.83.83,0,0,1,.62-.25h.45v-1a2.28,2.28,0,0,1,.6-1.69,2.07,2.07,0,0,1,1.52-.59,2.39,2.39,0,0,1,1,.19.71.71,0,0,1,.43.72.89.89,0,0,1-.2.64.83.83,0,0,1-.62.21,1.15,1.15,0,0,0-.46.09q-.21.09-.21.65v.81h.63a1.36,1.36,0,0,1,.73.21.94.94,0,0,1,0,1.35,1.25,1.25,0,0,1-.73.2h-.63v4.65a1.15,1.15,0,0,1-.28.82,1,1,0,0,1-1.45,0,1.12,1.12,0,0,1-.29-.8Z" transform="translate(0)"/><path class="cls-4" d="M160,68.71V64.06h-.45a.8.8,0,0,1-.64-.22.88.88,0,0,1-.23-.64.87.87,0,0,1,.25-.63.83.83,0,0,1,.62-.25H160v-1a2.28,2.28,0,0,1,.59-1.69,2.07,2.07,0,0,1,1.52-.59,2.39,2.39,0,0,1,1,.19.71.71,0,0,1,.43.72.89.89,0,0,1-.2.64.83.83,0,0,1-.62.21,1.14,1.14,0,0,0-.46.09q-.21.09-.21.65v.81h.63a1.36,1.36,0,0,1,.73.21.94.94,0,0,1,0,1.35,1.25,1.25,0,0,1-.73.2h-.63v4.65a1.16,1.16,0,0,1-.28.82,1,1,0,0,1-1.45,0,1.12,1.12,0,0,1-.29-.8Z" transform="translate(0)"/><path class="cls-4" d="M168.64,68.71V64.06h-.45a.8.8,0,0,1-.64-.22.88.88,0,0,1-.23-.64.87.87,0,0,1,.25-.63.83.83,0,0,1,.62-.25h.45v-1a2.28,2.28,0,0,1,.59-1.69,2.07,2.07,0,0,1,1.52-.59,2.39,2.39,0,0,1,1,.19.71.71,0,0,1,.43.72.89.89,0,0,1-.2.64.83.83,0,0,1-.62.21,1.14,1.14,0,0,0-.46.09q-.21.09-.21.65v.81h.63a1.36,1.36,0,0,1,.73.21.94.94,0,0,1,0,1.35,1.25,1.25,0,0,1-.73.2h-.63v4.65a1.16,1.16,0,0,1-.28.82,1,1,0,0,1-1.45,0,1.12,1.12,0,0,1-.29-.8Z" transform="translate(0)"/><path class="cls-4" d="M176,62.13a3.31,3.31,0,0,1,2.6,1.2,4.08,4.08,0,0,1,1,2.72,4,4,0,0,1-1,2.72,3.56,3.56,0,0,1-5.24,0,4,4,0,0,1-1-2.72,4.08,4.08,0,0,1,1-2.72,3.26,3.26,0,0,1,2.6-1.18Zm-1.13,2.41a2.53,2.53,0,0,0-.46,1.2c0,.06,0,.11,0,.16a1.29,1.29,0,0,0,0,.15v.12a.73.73,0,0,0,0,.13,2.49,2.49,0,0,0,.44,1.22,1.44,1.44,0,0,0,2.28,0,2.5,2.5,0,0,0,.44-1.22.64.64,0,0,0,0-.13V66s0-.1,0-.15a1.41,1.41,0,0,1,0-.16,2.53,2.53,0,0,0-.46-1.21A1.29,1.29,0,0,0,176,64,1.33,1.33,0,0,0,174.86,64.54Z" transform="translate(0)"/><path class="cls-4" d="M184.12,62.13a3.31,3.31,0,0,1,2.6,1.2,4.08,4.08,0,0,1,1,2.72,4,4,0,0,1-1,2.72,3.56,3.56,0,0,1-5.24,0,4,4,0,0,1-1-2.72,4.08,4.08,0,0,1,1-2.72,3.26,3.26,0,0,1,2.6-1.18ZM183,64.54a2.5,2.5,0,0,0-.46,1.2c0,.06,0,.11,0,.16s0,.1,0,.15v.12a.66.66,0,0,0,0,.13,2.49,2.49,0,0,0,.44,1.22,1.44,1.44,0,0,0,2.28,0,2.52,2.52,0,0,0,.44-1.22.73.73,0,0,0,0-.13V66s0-.1,0-.15,0-.1,0-.16a2.54,2.54,0,0,0-.46-1.21,1.29,1.29,0,0,0-1.13-.55A1.32,1.32,0,0,0,183,64.54Z" transform="translate(0)"/><path class="cls-4" d="M195.83,60.09v8.62a1.16,1.16,0,0,1-.28.82,1,1,0,0,1-.73.3,1,1,0,0,1-.66-.22,1.16,1.16,0,0,1-.34-.61,1.57,1.57,0,0,1-.62.59,3,3,0,0,1-.83.29l-.2,0H192a2.89,2.89,0,0,1-2.42-1.18,4.2,4.2,0,0,1-.9-2.6v-.2a4.86,4.86,0,0,1,.87-2.61,2.7,2.7,0,0,1,2.38-1.18,3.09,3.09,0,0,1,1,.17,2.66,2.66,0,0,1,.89.53V60.09a1.12,1.12,0,0,1,.29-.8,1,1,0,0,1,1.45,0,1.17,1.17,0,0,1,.28.81Zm-2,5.88V65.9a2.56,2.56,0,0,0-.41-1.31,1.3,1.3,0,0,0-1.17-.59,1.25,1.25,0,0,0-1.07.53,2.53,2.53,0,0,0-.47,1.18,1.63,1.63,0,0,0,0,.17c0,.06,0,.12,0,.18s0,.11,0,.17a1.63,1.63,0,0,0,0,.17,2.48,2.48,0,0,0,.47,1.16,1.38,1.38,0,0,0,2.19,0,2.61,2.61,0,0,0,.45-1.21c0-.06,0-.11,0-.17s0-.11,0-.17Z" transform="translate(0)"/><path class="cls-4" d="M97.18,78a1.17,1.17,0,0,1,.79.34,1,1,0,0,1,.34.78,1.14,1.14,0,0,1-.33.82,1.09,1.09,0,0,1-1.6,0,1.12,1.12,0,0,1-.34-.81,1.05,1.05,0,0,1,.34-.77,1.1,1.1,0,0,1,.79-.34Zm-1,9.52V82.12a1.12,1.12,0,0,1,.29-.8,1,1,0,0,1,1.45,0,1.16,1.16,0,0,1,.28.81v5.37a1.16,1.16,0,0,1-.28.82,1,1,0,0,1-1.45,0,1.12,1.12,0,0,1-.29-.81Z" transform="translate(0)"/><path class="cls-4" d="M99.66,87.51V82.12a1.12,1.12,0,0,1,.29-.8.94.94,0,0,1,.72-.31,1,1,0,0,1,.63.2.85.85,0,0,1,.29.55,1.86,1.86,0,0,1,.76-.62,2.89,2.89,0,0,1,1.18-.21,2.82,2.82,0,0,1,2,.72,2.57,2.57,0,0,1,.78,2v3.86a1.16,1.16,0,0,1-.28.82,1,1,0,0,1-1.45,0,1.12,1.12,0,0,1-.29-.8V84a1.31,1.31,0,0,0-.38-1,1.35,1.35,0,0,0-.93-.34,1.17,1.17,0,0,0-1,.4,1.48,1.48,0,0,0-.34,1v3.5a1.16,1.16,0,0,1-.28.82,1,1,0,0,1-1.45,0,1.12,1.12,0,0,1-.29-.81Z" transform="translate(0)"/><path class="cls-4" d="M108.29,87.51V82.86h-.45a.8.8,0,0,1-.64-.22A.88.88,0,0,1,107,82a.86.86,0,0,1,.25-.63.83.83,0,0,1,.62-.25h.45V79.9a1.13,1.13,0,0,1,.29-.8,1,1,0,0,1,1.45,0,1.16,1.16,0,0,1,.28.81V81.1h.57a1.27,1.27,0,0,1,.68.21.94.94,0,0,1,0,1.35,1.16,1.16,0,0,1-.68.2h-.57v4.65a1.15,1.15,0,0,1-.28.82,1,1,0,0,1-1.45,0,1.12,1.12,0,0,1-.29-.8Z" transform="translate(0)"/><path class="cls-4" d="M115.61,80.93a3.3,3.3,0,0,1,2.6,1.2,4.08,4.08,0,0,1,1,2.72,4,4,0,0,1-1,2.72,3.56,3.56,0,0,1-5.24,0,4,4,0,0,1-1-2.72,4.08,4.08,0,0,1,1-2.72,3.26,3.26,0,0,1,2.6-1.18Zm-1.13,2.41a2.52,2.52,0,0,0-.45,1.2c0,.06,0,.11,0,.16s0,.1,0,.15V85a.65.65,0,0,0,0,.13,2.48,2.48,0,0,0,.44,1.22,1.44,1.44,0,0,0,2.28,0,2.5,2.5,0,0,0,.44-1.22.64.64,0,0,0,0-.13v-.12s0-.1,0-.15,0-.1,0-.16a2.54,2.54,0,0,0-.45-1.21,1.29,1.29,0,0,0-1.13-.55A1.32,1.32,0,0,0,114.48,83.34Z" transform="translate(0)"/><path class="cls-4" d="M125,87.51V82.86h-.45a.81.81,0,0,1-.64-.22.89.89,0,0,1-.23-.64.87.87,0,0,1,.25-.63.83.83,0,0,1,.62-.25H125V79.9a1.13,1.13,0,0,1,.29-.8,1,1,0,0,1,1.45,0,1.16,1.16,0,0,1,.28.81V81.1h.57a1.27,1.27,0,0,1,.68.21.94.94,0,0,1,0,1.35,1.16,1.16,0,0,1-.68.2H127v4.65a1.16,1.16,0,0,1-.28.82,1,1,0,0,1-1.45,0,1.12,1.12,0,0,1-.29-.8Z" transform="translate(0)"/><path class="cls-4" d="M129,87.51V78.89a1.12,1.12,0,0,1,.29-.8,1,1,0,0,1,1.45,0,1.17,1.17,0,0,1,.28.81v2.73h0a1.6,1.6,0,0,1,.55-.42,2.54,2.54,0,0,1,.69-.21l.3,0h.29a2.82,2.82,0,0,1,2,.71,2.57,2.57,0,0,1,.78,2v3.85a1.15,1.15,0,0,1-.28.82,1,1,0,0,1-1.45,0,1.12,1.12,0,0,1-.29-.8V84a1.31,1.31,0,0,0-.38-1,1.35,1.35,0,0,0-.93-.34,1.17,1.17,0,0,0-1,.4,1.48,1.48,0,0,0-.34,1v3.5a1.16,1.16,0,0,1-.28.82,1,1,0,0,1-1.45,0,1.12,1.12,0,0,1-.29-.8Z" transform="translate(0)"/><path class="cls-4" d="M138.78,85.49a1.52,1.52,0,0,0,.66,1.11,2.23,2.23,0,0,0,1.25.36,2,2,0,0,0,.72-.13,5,5,0,0,0,.61-.28l.52-.28a.94.94,0,0,1,.43-.13.76.76,0,0,1,.57.27.86.86,0,0,1,.25.6q0,.56-.83,1a5,5,0,0,1-1.82.62l-.33,0h-.32a3.6,3.6,0,0,1-2.74-1.1,3.86,3.86,0,0,1-1-2.76,4.08,4.08,0,0,1,1-2.72,3.27,3.27,0,0,1,2.6-1.18,3.23,3.23,0,0,1,2.36.93,4.13,4.13,0,0,1,1.2,2c0,.11,0,.23,0,.34a2.72,2.72,0,0,1,0,.34,1,1,0,0,1-.21.67.88.88,0,0,1-.67.22Zm3.16-1.34a1.91,1.91,0,0,0-.5-1.08,1.6,1.6,0,0,0-2.21,0,1.8,1.8,0,0,0-.5,1.08Z" transform="translate(0)"/><path class="cls-4" d="M149.12,87.51V82.12a1.12,1.12,0,0,1,.29-.8.94.94,0,0,1,.72-.31,1,1,0,0,1,.63.2.86.86,0,0,1,.29.56,2.54,2.54,0,0,1,.84-.62,2.47,2.47,0,0,1,1-.22A2.56,2.56,0,0,1,155,82a3.31,3.31,0,0,1,1.29-.87l.43-.11a2.12,2.12,0,0,1,.41,0,2.85,2.85,0,0,1,2,.69,2.6,2.6,0,0,1,.76,2v3.86a1.16,1.16,0,0,1-.28.82,1,1,0,0,1-1.45,0,1.12,1.12,0,0,1-.29-.8V84a1.51,1.51,0,0,0-.31-1,1.06,1.06,0,0,0-.86-.38,1.07,1.07,0,0,0-.87.38,1.53,1.53,0,0,0-.31,1v3.5a1.15,1.15,0,0,1-.28.82,1,1,0,0,1-1.45,0,1.12,1.12,0,0,1-.29-.8V84a1.5,1.5,0,0,0-.32-1,1.2,1.2,0,0,0-1.76,0,1.63,1.63,0,0,0-.29,1v3.5a1.16,1.16,0,0,1-.28.82,1,1,0,0,1-1.45,0,1.12,1.12,0,0,1-.29-.81Z" transform="translate(0)"/><path class="cls-4" d="M164.72,80.93a3.3,3.3,0,0,1,2.6,1.2,4.08,4.08,0,0,1,1,2.72,4,4,0,0,1-1,2.72,3.56,3.56,0,0,1-5.24,0,4,4,0,0,1-1-2.72,4.08,4.08,0,0,1,1-2.72,3.26,3.26,0,0,1,2.6-1.18Zm-1.13,2.41a2.52,2.52,0,0,0-.46,1.2c0,.06,0,.11,0,.16s0,.1,0,.15V85a.65.65,0,0,0,0,.13,2.48,2.48,0,0,0,.44,1.22,1.44,1.44,0,0,0,2.28,0,2.5,2.5,0,0,0,.44-1.22.65.65,0,0,0,0-.13v-.12s0-.1,0-.15,0-.1,0-.16a2.54,2.54,0,0,0-.46-1.21,1.29,1.29,0,0,0-1.13-.55A1.32,1.32,0,0,0,163.59,83.34Z" transform="translate(0)"/><path class="cls-4" d="M169.54,85.77V82.12a1.12,1.12,0,0,1,.29-.8,1,1,0,0,1,1.45,0,1.17,1.17,0,0,1,.28.81v3.59a1.22,1.22,0,0,0,.4,1,1.38,1.38,0,0,0,1.81,0,1.2,1.2,0,0,0,.4-1V82.12a1.13,1.13,0,0,1,.29-.8,1,1,0,0,1,1.45,0,1.16,1.16,0,0,1,.28.81v3.63a2.78,2.78,0,0,1-.86,2.15,4.21,4.21,0,0,1-4.91,0,2.76,2.76,0,0,1-.86-2.14Z" transform="translate(0)"/><path class="cls-4" d="M178.16,87.51V82.86h-.45a.8.8,0,0,1-.64-.22.88.88,0,0,1-.23-.64.86.86,0,0,1,.25-.63.83.83,0,0,1,.62-.25h.45V79.9a1.13,1.13,0,0,1,.29-.8,1,1,0,0,1,1.45,0,1.16,1.16,0,0,1,.28.81V81.1h.57a1.27,1.27,0,0,1,.68.21.94.94,0,0,1,0,1.35,1.16,1.16,0,0,1-.68.2h-.57v4.65a1.15,1.15,0,0,1-.28.82,1,1,0,0,1-1.45,0,1.12,1.12,0,0,1-.29-.8Z" transform="translate(0)"/><path class="cls-4" d="M182.16,87.51V78.89a1.12,1.12,0,0,1,.29-.8,1,1,0,0,1,1.45,0,1.16,1.16,0,0,1,.28.81v2.73h0a1.6,1.6,0,0,1,.55-.42,2.52,2.52,0,0,1,.69-.21l.3,0H186a2.82,2.82,0,0,1,2,.71,2.57,2.57,0,0,1,.78,2v3.85a1.16,1.16,0,0,1-.28.82,1,1,0,0,1-1.45,0,1.12,1.12,0,0,1-.29-.8V84a1.31,1.31,0,0,0-.38-1,1.35,1.35,0,0,0-.93-.34,1.17,1.17,0,0,0-1,.4,1.48,1.48,0,0,0-.34,1v3.5a1.15,1.15,0,0,1-.28.82,1,1,0,0,1-1.45,0,1.12,1.12,0,0,1-.29-.8Z" transform="translate(0)"/><path class="cls-4" d="M190.64,83.46a1.7,1.7,0,0,1-.59-1.33,1.47,1.47,0,0,1,.25-.85,1.74,1.74,0,0,1,.63-.56,1.68,1.68,0,0,1-.45-.5,1.3,1.3,0,0,1-.17-.67,1.4,1.4,0,0,1,.52-1.14,1.9,1.9,0,0,1,1.24-.42,1.94,1.94,0,0,1,1.24.42,1.38,1.38,0,0,1,.53,1.15,1.44,1.44,0,0,1-.16.66,1.25,1.25,0,0,1-.46.51,1.51,1.51,0,0,1,.87,1.41,1.68,1.68,0,0,1-.6,1.35,2.14,2.14,0,0,1-1.42.5A2.08,2.08,0,0,1,190.64,83.46Zm.88-2a.88.88,0,0,0-.2.58.93.93,0,0,0,.18.56.73.73,0,0,0,1.11,0,.9.9,0,0,0,.2-.57.84.84,0,0,0-.21-.6.7.7,0,0,0-.54-.22A.69.69,0,0,0,191.52,81.47Zm.11-2.23a.66.66,0,0,0-.15.44.64.64,0,0,0,.16.45.55.55,0,0,0,.43.17.56.56,0,0,0,.44-.17.64.64,0,0,0,.16-.45.66.66,0,0,0-.16-.45.55.55,0,0,0-.44-.18A.56.56,0,0,0,191.63,79.24Z" transform="translate(0)"/><path class="cls-4" d="M196.24,83.48l-.69,1.22a.43.43,0,0,1-.11.14l-.14.09-.11,0h-.1a.53.53,0,0,1-.38-.16.51.51,0,0,1-.16-.38.51.51,0,0,1,0-.16l.06-.16.68-1.22a.38.38,0,0,1,.11-.13l.14-.09.12,0h.1a.56.56,0,0,1,.39.16.5.5,0,0,1,.17.38.41.41,0,0,1,0,.15l-.06.14v0Z" transform="translate(0)"/><path class="cls-4" d="M198.24,83.3V79.2h-.48a.48.48,0,0,1-.42-.16.64.64,0,0,1-.14-.37h0a.59.59,0,0,1,.15-.39.51.51,0,0,1,.41-.17h1.16a.53.53,0,0,1,.4.18.61.61,0,0,1,.14.41V83.3a.63.63,0,0,1-1,.47.6.6,0,0,1-.17-.46Z" transform="translate(0)"/><path class="cls-4" d="M203.91,82.81a.83.83,0,0,1,.45.13.46.46,0,0,1,.18.41.47.47,0,0,1-.17.4.69.69,0,0,1-.41.13h-2.73a.78.78,0,0,1-.45-.13.46.46,0,0,1-.18-.4.45.45,0,0,1,0-.2l.09-.16,0,0,0,0,.32-.37.33-.36,0,0,0,0,.69-.8a10.56,10.56,0,0,0,.65-.85,2.17,2.17,0,0,0,.2-.35,1,1,0,0,0,.09-.41.64.64,0,0,0-.17-.44.62.62,0,0,0-.91,0,1.75,1.75,0,0,0-.21.45v0a.12.12,0,0,0,0,0,2,2,0,0,1-.18.42.4.4,0,0,1-.38.18.54.54,0,0,1-.44-.18.62.62,0,0,1-.15-.42,1.72,1.72,0,0,1,.58-1.31,1.91,1.91,0,0,1,1.33-.54,1.89,1.89,0,0,1,1.28.46,1.56,1.56,0,0,1,.53,1.24,2.07,2.07,0,0,1-.38,1.16,10.41,10.41,0,0,1-.82,1.09l-.4.46-.36.42Z" transform="translate(0)"/><circle class="cls-5" cx="39.97" cy="52.69" r="38.77"/><g class="cls-6"><circle class="cls-7" cx="39.97" cy="52.69" r="38.77"/></g><g class="cls-8"><path class="cls-9" d="M91.51,16.38a98.49,98.49,0,0,1,2.71,11.19c.9,5.27,1,10.56-.56,15.62C91.23,51,84.94,57.12,77.81,61.1s-15.13,6.1-23,8.18C51.89,63.89,48,55.4,45.62,49.62c4.78-2.84,26.14-10.08,26.9-13.53.19-.89.42-3.1.66-5.93.41-4.79.8-11.38,1-16.38C84.83,14.58,82.34,14.85,91.51,16.38Z" transform="translate(0)"/><path class="cls-9" d="M51.34,48.29c-7-4.51-11.26-4.72-13.8.13a28.12,28.12,0,0,0-6.63,1c-2.77.81-5.36,2.23-6.24,4.67a4.81,4.81,0,0,0,2.1,5.07c-1.46,2.67.59,6.68,3.72,7.27a5.26,5.26,0,0,0,1.28,5.33,5.48,5.48,0,0,0,5.4,1.37c-1,3.07,1.5,5.6,5.69,4.69,6.4-1.4,10.24-5,13.74-9.63C54.49,63.26,56.17,51.4,51.34,48.29Z" transform="translate(0)"/><path class="cls-10" d="M29,47s-4,2.38-8,.82c-6.6-2.58-8.77-12.15-5.81-15.28,2.55-2.69,10.28-3,15.15,2.24a7.8,7.8,0,0,1,1.35,8.82l5.82,4.91-.64.07a22.09,22.09,0,0,0-4.93.69C30.6,48.26,29,47,29,47Z" transform="translate(0)"/><path class="cls-11" d="M29.42,45a6.65,6.65,0,0,1-5.48,2.4,9.48,9.48,0,0,1-7.86-5.31c-1.4-3.2-2-7.18-.31-9.06s6.17-1.93,8.45-1.09,5,1.75,6.67,5.06S30.62,43.43,29.42,45Z" transform="translate(0)"/><path class="cls-10" d="M47.58,57.11,62.7,70.06l-2,2.48L42.19,58l.46-1.09a8.45,8.45,0,0,0,4.26.62" transform="translate(0)"/><path class="cls-12" d="M30.49,66.44A36.88,36.88,0,0,0,37.67,64a8.14,8.14,0,0,0,2.82-2.11,3.07,3.07,0,0,0,.62-1.4,1.79,1.79,0,0,0-.38-1.3,4.13,4.13,0,0,0-2.87-1.34,13.76,13.76,0,0,0-3.6.3c-1.24.21-2.5.47-3.78.65a15.61,15.61,0,0,1-1.95.16,3,3,0,0,1-1.88-.47,3.07,3.07,0,0,0,1.84.05c.62-.11,1.23-.28,1.83-.46,1.22-.35,2.44-.74,3.69-1.06a12.8,12.8,0,0,1,4-.54,7.51,7.51,0,0,1,2.05.49,4.08,4.08,0,0,1,1.8,1.38,3.19,3.19,0,0,1,.6,2.31,4.09,4.09,0,0,1-1,2A8.52,8.52,0,0,1,38.09,65,23.82,23.82,0,0,1,30.49,66.44Z" transform="translate(0)"/><path class="cls-12" d="M37.15,73.07a29.67,29.67,0,0,0,3.64-2.3,8.74,8.74,0,0,0,3-2.82,4.32,4.32,0,0,0,.36-3.57,3.32,3.32,0,0,0-2.72-2.28.07.07,0,0,1-.07-.08.08.08,0,0,1,0-.06,3.22,3.22,0,0,1,4.1,1.9,4.93,4.93,0,0,1-.82,4.68,9.55,9.55,0,0,1-3.55,2.75A29.88,29.88,0,0,1,37.2,73.2a.07.07,0,0,1-.09,0A.08.08,0,0,1,37.15,73.07Z" transform="translate(0)"/><path class="cls-12" d="M42.86,77.83c.58-.41,1.23-.71,1.8-1.07a12.22,12.22,0,0,0,1.61-1.18c.25-.22.5-.44.73-.68a5.45,5.45,0,0,0,.63-.67,5.87,5.87,0,0,0,.7-1.67,7.89,7.89,0,0,0,.26-1.85,3.27,3.27,0,0,0-.11-.81,2.44,2.44,0,0,0-.36-.74,4.72,4.72,0,0,0-3.27-1.8,4,4,0,0,1,4.22,1,3.73,3.73,0,0,1,.67,1.05A3.81,3.81,0,0,1,50,70.67a6.89,6.89,0,0,1-.3,2.26,4.7,4.7,0,0,1-1.91,2.86c-.29.22-.59.42-.89.62a8.59,8.59,0,0,1-2,.92C44.23,77.56,43.55,77.67,42.86,77.83Z" transform="translate(0)"/><path class="cls-9" d="M50,56.37a6.61,6.61,0,0,1-7.1.25c-.49,1.2-.83,2.67-1.85,3.59-2.2,2-3.73.65-3.73.65A3.92,3.92,0,0,1,36,58a17.43,17.43,0,0,1,1.2-8.36" transform="translate(0)"/><path class="cls-12" d="M50,56.37a6.49,6.49,0,0,1-7.41.75l.85-.28c-.21.61-.41,1.28-.68,2a5,5,0,0,1-1.27,1.94,4.88,4.88,0,0,1-2.06,1.17,3,3,0,0,1-2.56-.53l0,0a3.24,3.24,0,0,1-1.08-1.47,6.32,6.32,0,0,1-.35-1.59,15.39,15.39,0,0,1,0-3,14.74,14.74,0,0,1,1.78-5.68,22.1,22.1,0,0,0-.77,5.74,19.63,19.63,0,0,0,.22,2.82,3.18,3.18,0,0,0,1,2.11l0,0a1.57,1.57,0,0,0,.6.23,1.94,1.94,0,0,0,.73,0,3.51,3.51,0,0,0,1.47-.82,4.35,4.35,0,0,0,1-1.43c.28-.57.49-1.22.79-1.87l.3-.65.55.37A6.75,6.75,0,0,0,50,56.37Z" transform="translate(0)"/><path class="cls-12" d="M50,56.37a6.49,6.49,0,0,1-7.41.75l.85-.28c-.21.61-.41,1.28-.68,2a5,5,0,0,1-1.27,1.94,4.88,4.88,0,0,1-2.07,1.17,3,3,0,0,1-2.56-.53l0,0a3.57,3.57,0,0,1-1.3-2.19A12.06,12.06,0,0,1,35.34,57a20.26,20.26,0,0,1,.41-4.33,14.18,14.18,0,0,1,1.51-4.07,8.65,8.65,0,0,1,2.93-3.11,9.51,9.51,0,0,0-2.43,3.37,14.94,14.94,0,0,0-1.07,4,20.33,20.33,0,0,0-.14,4.12c.06,1.35.34,2.79,1.13,3.35l0,0a1.57,1.57,0,0,0,.6.23,1.94,1.94,0,0,0,.73,0,3.51,3.51,0,0,0,1.47-.82,4.35,4.35,0,0,0,1-1.43c.28-.57.49-1.22.79-1.87l.3-.65.55.37A6.75,6.75,0,0,0,50,56.37Z" transform="translate(0)"/></g></g></g></g></svg>