<svg xmlns="http://www.w3.org/2000/svg" xmlns:xlink="http://www.w3.org/1999/xlink" viewBox="0 0 431.33 126.21"><defs><style>.cls-1,.cls-11,.cls-12,.cls-5{fill:none;}.cls-2{fill:#ffdaa4;}.cls-3{fill:#754d25;}.cls-4{fill:#fff;}.cls-5{stroke:#f15b27;stroke-width:2.4px;stroke-dasharray:6;opacity:0.5;}.cls-12,.cls-5{stroke-linecap:round;}.cls-11,.cls-5{stroke-miterlimit:10;}.cls-6{fill:#fbc5bc;}.cls-7{fill:#f8a89d;}.cls-8{clip-path:url(#clip-path);}.cls-9{fill:#c35263;}.cls-10{fill:#f8aeaf;}.cls-11,.cls-12{stroke:#f3828f;stroke-width:0.62px;}.cls-12{stroke-linejoin:round;}.cls-13{clip-path:url(#clip-path-2);}.cls-14{fill:#fac47f;}.cls-15{fill:#f49925;}</style><clipPath id="clip-path"><path class="cls-1" d="M36.11,40.4a8.38,8.38,0,0,1-5.24,0A7.4,7.4,0,0,0,28.58,40a8,8,0,0,0-5.29,2.21c-3.18,2.78-3.51,6.35-3.78,9.21-.21,2.25-.08,4.19-1.64,5.58l0,0h31.3l0,0c-1.56-1.39-1.42-3.33-1.64-5.58-.26-2.86-.6-6.43-3.78-9.21A8,8,0,0,0,38.4,40a7.45,7.45,0,0,0-2.29.37"/></clipPath><clipPath id="clip-path-2"><path class="cls-1" d="M17.84,57.05l0,0c1.56,1.35,1.43,3.25,1.64,5.44.27,2.79,1.65,10.37,14,10.37s13.72-7.58,14-10.37c.22-2.19.08-4.09,1.64-5.45l0,0Z"/></clipPath></defs><g id="Layer_2" data-name="Layer 2"><g id="Layer_1-2" data-name="Layer 1"><path class="cls-2" d="M409.25,18.65C384.3,4.85,303.93,0,240.24,0H240C176.35,0,96,4.85,71,18.65s-22,44.57-22,44.57-3,33.31,22,44.34c24.81,11,103.89,18.54,168.42,18.65h1.38c64.53-.11,143.62-7.69,168.42-18.65,25-11,22-44.34,22-44.34S434.23,32.46,409.25,18.65Z"/><path class="cls-3" d="M117.25,58.93v-7h-1.53a.79.79,0,0,1-.7-.27,1.09,1.09,0,0,1-.23-.64v0a1.06,1.06,0,0,1,.24-.67.83.83,0,0,1,.69-.3h5.16a.92.92,0,0,1,.7.31,1.07,1.07,0,0,1,.25.67v0a1.1,1.1,0,0,1-.24.64.85.85,0,0,1-.71.28h-1.53v7a1.06,1.06,0,0,1-.3.81,1.05,1.05,0,0,1-1.8-.8Z"/><path class="cls-3" d="M122.58,58.9V50.28a1.12,1.12,0,0,1,.29-.8,1,1,0,0,1,1.45,0,1.13,1.13,0,0,1,.28.81V53h0a1.52,1.52,0,0,1,.55-.42,2.75,2.75,0,0,1,.69-.21l.3,0,.29,0a2.84,2.84,0,0,1,2,.72,2.56,2.56,0,0,1,.78,2V58.9a1.13,1.13,0,0,1-.28.82,1,1,0,0,1-1.45,0,1.13,1.13,0,0,1-.29-.81V55.39a1.29,1.29,0,0,0-.38-1,1.36,1.36,0,0,0-.93-.35,1.19,1.19,0,0,0-1,.4,1.47,1.47,0,0,0-.34,1v3.5a1.13,1.13,0,0,1-.28.82,1,1,0,0,1-1.45,0,1.13,1.13,0,0,1-.29-.81Z"/><path class="cls-3" d="M132.34,56.88A1.56,1.56,0,0,0,133,58a2.28,2.28,0,0,0,1.25.35,2.09,2.09,0,0,0,.72-.12c.22-.09.42-.18.61-.28l.51-.28a.91.91,0,0,1,.44-.13.77.77,0,0,1,.57.27.88.88,0,0,1,.25.6c0,.37-.27.72-.82,1a5.09,5.09,0,0,1-1.82.61l-.33,0h-.32a3.55,3.55,0,0,1-2.73-1.1,3.83,3.83,0,0,1-1.05-2.76,4.08,4.08,0,0,1,1-2.72,3.27,3.27,0,0,1,2.61-1.19,3.2,3.2,0,0,1,2.35.93,4.07,4.07,0,0,1,1.2,2.05c0,.11,0,.22.05.34s0,.23,0,.34a.94.94,0,0,1-.21.67.87.87,0,0,1-.67.22Zm3.17-1.34a1.94,1.94,0,0,0-.5-1.08,1.58,1.58,0,0,0-2.21,0,1.76,1.76,0,0,0-.5,1.08Z"/><path class="cls-3" d="M143.18,58.9V54.25h-.45a.81.81,0,0,1-.64-.22.92.92,0,0,1-.23-.65.85.85,0,0,1,.87-.88h.45V51.28a1.11,1.11,0,0,1,.28-.79,1,1,0,0,1,.73-.31.91.91,0,0,1,.72.31,1.13,1.13,0,0,1,.28.81v1.19h.58a1.3,1.3,0,0,1,.68.21,1,1,0,0,1,0,1.35,1.14,1.14,0,0,1-.68.2h-.58V58.9a1.13,1.13,0,0,1-.28.82.94.94,0,0,1-.72.3,1,1,0,0,1-.73-.3,1.13,1.13,0,0,1-.28-.81Z"/><path class="cls-3" d="M150.5,52.32a3.3,3.3,0,0,1,2.6,1.2,4.2,4.2,0,0,1,0,5.44,3.58,3.58,0,0,1-5.24,0,4.2,4.2,0,0,1,0-5.44,3.26,3.26,0,0,1,2.6-1.19Zm-1.13,2.41a2.48,2.48,0,0,0-.45,1.2.81.81,0,0,1,0,.16s0,.1,0,.15v.12a.59.59,0,0,0,0,.13,2.38,2.38,0,0,0,.44,1.22,1.44,1.44,0,0,0,2.28,0,2.51,2.51,0,0,0,.44-1.22.71.71,0,0,0,0-.14v-.26a1,1,0,0,1,0-.17,2.58,2.58,0,0,0-.45-1.2,1.3,1.3,0,0,0-1.13-.55A1.31,1.31,0,0,0,149.37,54.73Z"/><path class="cls-3" d="M162.2,50.28V58.9a1.13,1.13,0,0,1-.28.82.94.94,0,0,1-.72.3,1,1,0,0,1-.67-.22,1.1,1.1,0,0,1-.34-.61,1.53,1.53,0,0,1-.62.59,3.11,3.11,0,0,1-.82.3l-.21,0h-.2a2.87,2.87,0,0,1-2.42-1.17,4.2,4.2,0,0,1-.9-2.61v-.19a4.9,4.9,0,0,1,.87-2.61,2.7,2.7,0,0,1,2.38-1.19,3,3,0,0,1,1,.18,2.74,2.74,0,0,1,.89.52V50.28a1.12,1.12,0,0,1,.28-.8,1,1,0,0,1,.73-.31.91.91,0,0,1,.72.31,1.13,1.13,0,0,1,.28.81Zm-2,5.88v-.07a2.51,2.51,0,0,0-.42-1.31,1.39,1.39,0,0,0-2.24-.07,2.56,2.56,0,0,0-.46,1.18l0,.17v.36l0,.17a2.49,2.49,0,0,0,.46,1.16,1.26,1.26,0,0,0,1.07.52,1.28,1.28,0,0,0,1.13-.55,2.58,2.58,0,0,0,.44-1.21.91.91,0,0,1,0-.17c0-.06,0-.11,0-.17Z"/><path class="cls-3" d="M170.59,50.28V58.9a1.13,1.13,0,0,1-.28.82,1,1,0,0,1-.73.3.92.92,0,0,1-.66-.22,1.11,1.11,0,0,1-.35-.61,1.51,1.51,0,0,1-.61.59,3.06,3.06,0,0,1-.83.3l-.2,0h-.2a2.91,2.91,0,0,1-2.43-1.17,4.25,4.25,0,0,1-.89-2.61v-.19a4.74,4.74,0,0,1,.87-2.61,2.7,2.7,0,0,1,2.38-1.19,3,3,0,0,1,1,.18,2.64,2.64,0,0,1,.89.52V50.28a1.12,1.12,0,0,1,.29-.8,1,1,0,0,1,1.45,0,1.13,1.13,0,0,1,.28.81Zm-2,5.88v-.07a2.5,2.5,0,0,0-.41-1.31,1.3,1.3,0,0,0-1.17-.6,1.26,1.26,0,0,0-1.07.53,2.58,2.58,0,0,0-.47,1.18,1,1,0,0,0,0,.17c0,.07,0,.12,0,.18s0,.11,0,.18a1,1,0,0,0,0,.17,2.51,2.51,0,0,0,.47,1.16,1.39,1.39,0,0,0,2.19,0,2.7,2.7,0,0,0,.45-1.21.91.91,0,0,1,0-.17v-.17Z"/><path class="cls-3" d="M172.06,58.9V50.28a1.12,1.12,0,0,1,.29-.8,1,1,0,0,1,1.45,0,1.17,1.17,0,0,1,.28.81V58.9a1.18,1.18,0,0,1-.28.82,1,1,0,0,1-1.45,0,1.13,1.13,0,0,1-.29-.81Z"/><path class="cls-3" d="M177.17,56.88a1.5,1.5,0,0,0,.66,1.12,2.27,2.27,0,0,0,1.24.35,2.09,2.09,0,0,0,.72-.12,5.82,5.82,0,0,0,.61-.28l.52-.28a.88.88,0,0,1,.43-.13.77.77,0,0,1,.58.27.88.88,0,0,1,.25.6c0,.37-.27.72-.83,1a5,5,0,0,1-1.82.61l-.32,0h-.32a3.59,3.59,0,0,1-2.74-1.1,3.86,3.86,0,0,1-1-2.76,4.08,4.08,0,0,1,1-2.72,3.26,3.26,0,0,1,2.6-1.19,3.22,3.22,0,0,1,2.36.93,4.15,4.15,0,0,1,1.2,2.05c0,.11,0,.22.05.34s0,.23,0,.34a.94.94,0,0,1-.21.67.89.89,0,0,1-.67.22Zm3.16-1.34a1.86,1.86,0,0,0-.49-1.08,1.59,1.59,0,0,0-2.22,0,1.75,1.75,0,0,0-.49,1.08Z"/><path class="cls-3" d="M183.38,58.9V53.4a.9.9,0,0,1,.31-.72,1.21,1.21,0,0,1,.66-.28h.07a1.27,1.27,0,0,1,.69.18.7.7,0,0,1,.29.66h0a2.25,2.25,0,0,1,.61-.62,1.47,1.47,0,0,1,.8-.21,1,1,0,0,1,.67.27,1,1,0,0,1,.31.81.62.62,0,0,1-.21.52,2.61,2.61,0,0,1-.5.27l-.24.09-.25.11h0a5.4,5.4,0,0,0-.81.48,1,1,0,0,0-.37.85V58.9a1.15,1.15,0,0,1-.28.82,1,1,0,0,1-1.45,0,1.13,1.13,0,0,1-.29-.81Z"/><path class="cls-3" d="M192.53,58.9V50.28a1.12,1.12,0,0,1,.28-.8.94.94,0,0,1,.72-.31.92.92,0,0,1,.73.31,1.13,1.13,0,0,1,.28.81V53h0a1.52,1.52,0,0,1,.55-.42,2.71,2.71,0,0,1,.7-.21l.3,0,.29,0a2.8,2.8,0,0,1,2,.72,2.56,2.56,0,0,1,.78,2V58.9a1.13,1.13,0,0,1-.28.82.94.94,0,0,1-.72.3,1,1,0,0,1-.73-.3,1.13,1.13,0,0,1-.28-.81V55.39a1.3,1.3,0,0,0-.39-1,1.36,1.36,0,0,0-.93-.35,1.19,1.19,0,0,0-1,.4,1.52,1.52,0,0,0-.34,1v3.5a1.13,1.13,0,0,1-.28.82.94.94,0,0,1-.73.3,1,1,0,0,1-.72-.3,1.13,1.13,0,0,1-.28-.81Z"/><path class="cls-3" d="M207.55,53.71v5.22a2,2,0,0,1,0,.23,1.13,1.13,0,0,1-.23.59.81.81,0,0,1-.72.27.83.83,0,0,1-.64-.22,1.45,1.45,0,0,1-.32-.62,2.65,2.65,0,0,1-.87.69,2.31,2.31,0,0,1-1.05.23A3,3,0,0,1,201.33,59a4.52,4.52,0,0,1,0-5.58,3,3,0,0,1,2.36-1.12,2.64,2.64,0,0,1,1.07.23,2.07,2.07,0,0,1,.85.71.86.86,0,0,1,.32-.61.92.92,0,0,1,.64-.25.81.81,0,0,1,.72.28,1.2,1.2,0,0,1,.23.59,2.32,2.32,0,0,1,0,.24v.21Zm-5.17,2.52v.13a.59.59,0,0,0,0,.13,2.38,2.38,0,0,0,.44,1.22,1.29,1.29,0,0,0,1.14.56,1.25,1.25,0,0,0,1.1-.56,2.47,2.47,0,0,0,.44-1.22.57.57,0,0,0,0-.13v-.27a.81.81,0,0,1,0-.16,2.58,2.58,0,0,0-.45-1.2,1.24,1.24,0,0,0-1.09-.55,1.28,1.28,0,0,0-1.13.55,2.38,2.38,0,0,0-.45,1.2c0,.06,0,.11,0,.16a.76.76,0,0,0,0,.15Z"/><path class="cls-3" d="M214.11,53.78a.91.91,0,0,1-.23.63.72.72,0,0,1-.59.28.9.9,0,0,1-.35-.09l-.45-.21-.28-.12-.28-.1-.22-.05-.23,0a.83.83,0,0,0-.47.13.47.47,0,0,0-.21.43A.42.42,0,0,0,211,55a3.21,3.21,0,0,0,.56.3l.47.17.5.2a4.91,4.91,0,0,1,1.2.74,1.63,1.63,0,0,1,.55,1.32,2.14,2.14,0,0,1-.79,1.68,3.08,3.08,0,0,1-2.08.67l-.44,0a3.4,3.4,0,0,1-.46-.09,3.85,3.85,0,0,1-1.32-.53,1.07,1.07,0,0,1-.6-.9,1.15,1.15,0,0,1,0-.16.64.64,0,0,1,.08-.19,1.13,1.13,0,0,1,.29-.37.67.67,0,0,1,.48-.17,1.06,1.06,0,0,1,.45.08,3.26,3.26,0,0,1,.38.18l.07,0,.08,0a2.51,2.51,0,0,0,.49.25,1.68,1.68,0,0,0,.62.1,1,1,0,0,0,.63-.14.54.54,0,0,0,.16-.43.44.44,0,0,0-.21-.36,3.63,3.63,0,0,0-.56-.28l-.46-.19-.52-.19a4.91,4.91,0,0,1-1.2-.74,1.68,1.68,0,0,1-.55-1.33,2.16,2.16,0,0,1,.77-1.71,3,3,0,0,1,2-.65l.41,0a3.49,3.49,0,0,1,.43.07,3.38,3.38,0,0,1,1.16.47,1,1,0,0,1,.52.89Z"/><path class="cls-3" d="M224.53,53.78a1,1,0,0,1-.23.63.72.72,0,0,1-.6.28,1,1,0,0,1-.35-.09l-.44-.21a2.36,2.36,0,0,1-.28-.12l-.28-.1-.23-.05-.22,0a.86.86,0,0,0-.48.13.47.47,0,0,0-.21.43.44.44,0,0,0,.23.36,2.61,2.61,0,0,0,.56.3l.47.17.49.2a5.17,5.17,0,0,1,1.21.74,1.62,1.62,0,0,1,.54,1.32,2.13,2.13,0,0,1-.78,1.68,3.09,3.09,0,0,1-2.09.67l-.44,0A3.26,3.26,0,0,1,221,60a4,4,0,0,1-1.33-.53,1.08,1.08,0,0,1-.59-.9,1.15,1.15,0,0,1,0-.16.46.46,0,0,1,.08-.19,1,1,0,0,1,.29-.37.67.67,0,0,1,.48-.17,1,1,0,0,1,.44.08,2.22,2.22,0,0,1,.38.18l.08,0,.08,0a2.25,2.25,0,0,0,.49.25,1.63,1.63,0,0,0,.61.1,1,1,0,0,0,.63-.14.55.55,0,0,0,.17-.43.42.42,0,0,0-.22-.36,3.48,3.48,0,0,0-.55-.28l-.47-.19-.51-.19a4.91,4.91,0,0,1-1.2-.74,1.64,1.64,0,0,1-.55-1.33,2.16,2.16,0,0,1,.77-1.71,3,3,0,0,1,2-.65l.41,0a3.49,3.49,0,0,1,.43.07,3.25,3.25,0,0,1,1.15.47,1,1,0,0,1,.53.89Z"/><path class="cls-3" d="M226.27,58.9V54.25h-.45a.8.8,0,0,1-.64-.22.92.92,0,0,1-.23-.65.84.84,0,0,1,.87-.88h.45V51.28a1.11,1.11,0,0,1,.28-.79,1,1,0,0,1,1.45,0,1.13,1.13,0,0,1,.28.81v1.19h.58a1.24,1.24,0,0,1,.67.21.93.93,0,0,1,0,1.35,1.09,1.09,0,0,1-.67.2h-.58V58.9a1.13,1.13,0,0,1-.28.82,1,1,0,0,1-1.45,0,1.13,1.13,0,0,1-.28-.81Z"/><path class="cls-3" d="M230.24,58.9V53.4a.89.89,0,0,1,.3-.72,1.24,1.24,0,0,1,.67-.28h.07a1.27,1.27,0,0,1,.69.18.72.72,0,0,1,.29.66h0a2,2,0,0,1,.61-.62,1.42,1.42,0,0,1,.8-.21,1,1,0,0,1,.67.27,1,1,0,0,1,.31.81.62.62,0,0,1-.21.52,2.61,2.61,0,0,1-.5.27l-.24.09-.25.11h0a5.3,5.3,0,0,0-.8.48,1,1,0,0,0-.37.85V58.9a1.15,1.15,0,0,1-.28.82,1,1,0,0,1-1.45,0,1.13,1.13,0,0,1-.29-.81Z"/><path class="cls-3" d="M238.6,52.32a3.3,3.3,0,0,1,2.6,1.2,4.2,4.2,0,0,1,0,5.44A3.58,3.58,0,0,1,236,59a4.2,4.2,0,0,1,0-5.44,3.26,3.26,0,0,1,2.6-1.19Zm-1.13,2.41a2.48,2.48,0,0,0-.45,1.2c0,.06,0,.11,0,.16a.76.76,0,0,0,0,.15v.12a.59.59,0,0,0,0,.13,2.47,2.47,0,0,0,.44,1.22,1.44,1.44,0,0,0,2.28,0,2.51,2.51,0,0,0,.44-1.22.78.78,0,0,0,0-.14v-.12s0-.09,0-.14a1,1,0,0,1,0-.17,2.58,2.58,0,0,0-.45-1.2,1.3,1.3,0,0,0-1.13-.55A1.31,1.31,0,0,0,237.47,54.73Z"/><path class="cls-3" d="M243.42,58.9V53.51a1.13,1.13,0,0,1,.28-.8,1,1,0,0,1,.72-.31,1,1,0,0,1,.63.2.86.86,0,0,1,.3.55,1.85,1.85,0,0,1,.76-.62,2.9,2.9,0,0,1,1.18-.21,2.81,2.81,0,0,1,2,.72,2.56,2.56,0,0,1,.78,2V58.9a1.15,1.15,0,0,1-.28.82,1,1,0,0,1-1.45,0,1.13,1.13,0,0,1-.28-.81V55.39a1.3,1.3,0,0,0-.39-1,1.36,1.36,0,0,0-.93-.35,1.19,1.19,0,0,0-.95.4,1.47,1.47,0,0,0-.34,1v3.5a1.13,1.13,0,0,1-.28.82.94.94,0,0,1-.73.3,1,1,0,0,1-.72-.3,1.13,1.13,0,0,1-.28-.81Z"/><path class="cls-3" d="M258.44,53.51v5.84a3.38,3.38,0,0,1-1.08,2.73,4.23,4.23,0,0,1-2.8.91,6,6,0,0,1-.63-.05,6.43,6.43,0,0,1-.81-.16,4.58,4.58,0,0,1-1.2-.49.93.93,0,0,1-.54-.81.5.5,0,0,1,0-.12.6.6,0,0,0,0-.12,1.11,1.11,0,0,1,.28-.41.86.86,0,0,1,.42-.24h.07a1.53,1.53,0,0,1,.5.1l.57.23.66.21a3.24,3.24,0,0,0,.79.09,1.79,1.79,0,0,0,1.23-.41,1.45,1.45,0,0,0,.48-1.17v-.49h0a1.88,1.88,0,0,1-.81.72,3.05,3.05,0,0,1-1.22.23A2.6,2.6,0,0,1,252,58.93a4.82,4.82,0,0,1-.76-2.68,4.42,4.42,0,0,1,.89-2.73,2.87,2.87,0,0,1,2.42-1.2h.21l.2,0a2.59,2.59,0,0,1,.83.3,1.57,1.57,0,0,1,.61.59,1.24,1.24,0,0,1,.34-.62,1,1,0,0,1,.67-.22,1,1,0,0,1,.73.31,1.21,1.21,0,0,1,.28.82Zm-2,2.76v-.16a.86.86,0,0,1,0-.16,2.7,2.7,0,0,0-.45-1.22,1.29,1.29,0,0,0-1.12-.55,1.26,1.26,0,0,0-1.07.53,2.47,2.47,0,0,0-.47,1.15,1.1,1.1,0,0,0,0,.18,1,1,0,0,0,0,.17,2.6,2.6,0,0,0,.4,1.44,1.29,1.29,0,0,0,1.17.62,1.3,1.3,0,0,0,1.17-.6,2.5,2.5,0,0,0,.41-1.3v-.09Z"/><path class="cls-3" d="M261.56,56.88a1.5,1.5,0,0,0,.66,1.12,2.27,2.27,0,0,0,1.24.35,2,2,0,0,0,.72-.12,5.82,5.82,0,0,0,.61-.28l.52-.28a.88.88,0,0,1,.44-.13.77.77,0,0,1,.57.27.88.88,0,0,1,.25.6c0,.37-.27.72-.82,1a5.15,5.15,0,0,1-1.82.61l-.33,0h-.32a3.59,3.59,0,0,1-2.74-1.1,3.86,3.86,0,0,1-1-2.76,4.08,4.08,0,0,1,1-2.72,3.26,3.26,0,0,1,2.6-1.19,3.22,3.22,0,0,1,2.36.93,4.15,4.15,0,0,1,1.2,2.05c0,.11,0,.22.05.34s0,.23,0,.34a.94.94,0,0,1-.21.67.87.87,0,0,1-.67.22Zm3.16-1.34a1.86,1.86,0,0,0-.49-1.08,1.45,1.45,0,0,0-1.12-.45,1.47,1.47,0,0,0-1.1.45,1.75,1.75,0,0,0-.49,1.08Z"/><path class="cls-3" d="M267.78,58.9V53.4a.89.89,0,0,1,.3-.72,1.21,1.21,0,0,1,.66-.28h.07a1.27,1.27,0,0,1,.69.18.7.7,0,0,1,.29.66h0a2.25,2.25,0,0,1,.61-.62,1.47,1.47,0,0,1,.8-.21,1,1,0,0,1,.68.27,1,1,0,0,1,.3.81A.62.62,0,0,1,272,54a2.34,2.34,0,0,1-.5.27l-.24.09-.25.11h0a5.4,5.4,0,0,0-.81.48,1,1,0,0,0-.37.85V58.9a1.15,1.15,0,0,1-.28.82.94.94,0,0,1-.73.3,1,1,0,0,1-.72-.3,1.13,1.13,0,0,1-.28-.81Z"/><path class="cls-3" d="M277.9,49.38a1.16,1.16,0,0,1,.79.34,1,1,0,0,1,.34.78,1.14,1.14,0,0,1-.33.82,1.07,1.07,0,0,1-.8.34,1,1,0,0,1-.79-.35,1.11,1.11,0,0,1-.35-.81,1,1,0,0,1,.35-.77,1.1,1.1,0,0,1,.79-.34Zm-1,4.13a1.14,1.14,0,0,1,.29-.8,1,1,0,0,1,1.45,0,1.21,1.21,0,0,1,.28.81v8.33a1.21,1.21,0,0,1-.28.82,1,1,0,0,1-1.45,0,1.17,1.17,0,0,1-.29-.82Z"/><path class="cls-3" d="M287.26,53.71v5.22a1.85,1.85,0,0,1,0,.23,1.33,1.33,0,0,1-.23.59.83.83,0,0,1-.72.27.85.85,0,0,1-.65-.22,1.57,1.57,0,0,1-.32-.62,2.55,2.55,0,0,1-.87.69,2.25,2.25,0,0,1-1,.23A3,3,0,0,1,281,59a4.08,4.08,0,0,1-1-2.79,4.16,4.16,0,0,1,1-2.79,3,3,0,0,1,2.36-1.12,2.6,2.6,0,0,1,1.07.23,2,2,0,0,1,.85.71,1,1,0,0,1,1-.86.84.84,0,0,1,.72.28,1.43,1.43,0,0,1,.23.59,2.09,2.09,0,0,1,0,.24v.21Zm-5.16,2.52v.13a.57.57,0,0,0,0,.13,2.58,2.58,0,0,0,.44,1.22,1.31,1.31,0,0,0,1.14.56,1.26,1.26,0,0,0,1.11-.56,2.46,2.46,0,0,0,.43-1.22.59.59,0,0,0,0-.13v-.12a.76.76,0,0,0,0-.15c0-.05,0-.1,0-.16a2.47,2.47,0,0,0-.44-1.2,1.4,1.4,0,0,0-2.22,0,2.49,2.49,0,0,0-.46,1.2.81.81,0,0,1,0,.16v.15Z"/><path class="cls-3" d="M290.2,59l-1.7-4.84c-.06-.15-.1-.29-.14-.41a2.33,2.33,0,0,1-.06-.35.29.29,0,0,1,0-.09v-.09a.73.73,0,0,1,.29-.58,1.08,1.08,0,0,1,.72-.24.94.94,0,0,1,.62.22,1.1,1.1,0,0,1,.34.58L291.41,57h0l1.18-3.77a1.48,1.48,0,0,1,.35-.63,1.07,1.07,0,0,1,1.35,0,1.5,1.5,0,0,1,.35.65L295.83,57h0L297,53.19a1.11,1.11,0,0,1,.34-.57.91.91,0,0,1,.61-.22,1.05,1.05,0,0,1,.73.26,1,1,0,0,1,.28.73,1.06,1.06,0,0,1-.06.34c0,.12-.09.25-.14.41L297.06,59a1.83,1.83,0,0,1-.44.73,1.06,1.06,0,0,1-.78.29,1.07,1.07,0,0,1-.74-.25,1.54,1.54,0,0,1-.42-.67l-1-3.27h0l-1,3.25a1.4,1.4,0,0,1-.42.69,1,1,0,0,1-.74.25,1.06,1.06,0,0,1-.78-.29,2,2,0,0,1-.44-.72Z"/><path class="cls-3" d="M309.17,53.78a.91.91,0,0,1-.23.63.72.72,0,0,1-.59.28.9.9,0,0,1-.35-.09l-.45-.21-.28-.12-.28-.1-.23-.05-.22,0a.81.81,0,0,0-.47.13.46.46,0,0,0-.22.43.44.44,0,0,0,.23.36,3.21,3.21,0,0,0,.56.3l.47.17.49.2a5.17,5.17,0,0,1,1.21.74,1.62,1.62,0,0,1,.54,1.32,2.13,2.13,0,0,1-.78,1.68,3.08,3.08,0,0,1-2.08.67l-.45,0a3.58,3.58,0,0,1-.45-.09,3.85,3.85,0,0,1-1.32-.53,1.07,1.07,0,0,1-.6-.9,1.15,1.15,0,0,1,0-.16.64.64,0,0,1,.08-.19,1,1,0,0,1,.29-.37.67.67,0,0,1,.48-.17,1.06,1.06,0,0,1,.45.08,2.53,2.53,0,0,1,.37.18l.08,0,.08,0a2.51,2.51,0,0,0,.49.25,1.66,1.66,0,0,0,.61.1,1,1,0,0,0,.63-.14.52.52,0,0,0,.17-.43.44.44,0,0,0-.21-.36,3.63,3.63,0,0,0-.56-.28l-.47-.19-.51-.19a4.91,4.91,0,0,1-1.2-.74,1.64,1.64,0,0,1-.55-1.33,2.16,2.16,0,0,1,.77-1.71,3,3,0,0,1,2-.65l.41,0a3.49,3.49,0,0,1,.43.07,3.38,3.38,0,0,1,1.16.47,1,1,0,0,1,.52.89Z"/><path class="cls-3" d="M310.91,58.9V54.25h-.45a.81.81,0,0,1-.64-.22.92.92,0,0,1-.23-.65.85.85,0,0,1,.87-.88h.45V51.28a1.11,1.11,0,0,1,.28-.79,1,1,0,0,1,.73-.31.91.91,0,0,1,.72.31,1.13,1.13,0,0,1,.28.81v1.19h.58a1.27,1.27,0,0,1,.68.21,1,1,0,0,1,0,1.35,1.12,1.12,0,0,1-.68.2h-.58V58.9a1.13,1.13,0,0,1-.28.82.94.94,0,0,1-.72.3,1,1,0,0,1-.73-.3,1.13,1.13,0,0,1-.28-.81Z"/><path class="cls-3" d="M314.88,58.9V53.4a.93.93,0,0,1,.3-.72,1.27,1.27,0,0,1,.67-.28h.07a1.27,1.27,0,0,1,.69.18.72.72,0,0,1,.29.66h0a2.12,2.12,0,0,1,.61-.62,1.44,1.44,0,0,1,.8-.21,1,1,0,0,1,.67.27,1,1,0,0,1,.31.81.62.62,0,0,1-.21.52,2.61,2.61,0,0,1-.5.27l-.24.09-.25.11h0a5.4,5.4,0,0,0-.81.48,1,1,0,0,0-.37.85V58.9a1.15,1.15,0,0,1-.28.82,1,1,0,0,1-1.45,0,1.13,1.13,0,0,1-.29-.81Z"/><path class="cls-3" d="M321.55,56.88a1.5,1.5,0,0,0,.66,1.12,2.27,2.27,0,0,0,1.24.35,2.09,2.09,0,0,0,.72-.12c.22-.09.42-.18.61-.28l.52-.28a.88.88,0,0,1,.43-.13.77.77,0,0,1,.58.27.88.88,0,0,1,.25.6c0,.37-.28.72-.83,1a5,5,0,0,1-1.81.61l-.34,0h-.31a3.59,3.59,0,0,1-2.74-1.1,3.86,3.86,0,0,1-1-2.76,4.08,4.08,0,0,1,1-2.72,3.45,3.45,0,0,1,5-.26,4.15,4.15,0,0,1,1.2,2.05c0,.11,0,.22,0,.34s0,.23,0,.34a.94.94,0,0,1-.21.67.89.89,0,0,1-.67.22Zm3.16-1.34a1.86,1.86,0,0,0-.49-1.08,1.59,1.59,0,0,0-2.22,0,1.75,1.75,0,0,0-.49,1.08Z"/><path class="cls-3" d="M327.79,58.9V53.51a1.14,1.14,0,0,1,.29-.8,1,1,0,0,1,.72-.31,1,1,0,0,1,.63.2.8.8,0,0,1,.29.55,1.88,1.88,0,0,1,.77-.62,2.87,2.87,0,0,1,1.18-.21,2.8,2.8,0,0,1,2,.72,2.53,2.53,0,0,1,.79,2V58.9a1.2,1.2,0,0,1-.28.82,1,1,0,0,1-1.45,0,1.13,1.13,0,0,1-.29-.81V55.39a1.33,1.33,0,0,0-.38-1,1.36,1.36,0,0,0-.93-.35,1.21,1.21,0,0,0-1,.4,1.52,1.52,0,0,0-.33,1v3.5a1.13,1.13,0,0,1-.28.82,1,1,0,0,1-1.45,0,1.13,1.13,0,0,1-.29-.81Z"/><path class="cls-3" d="M342.81,53.51v5.84a3.4,3.4,0,0,1-1.07,2.73,4.24,4.24,0,0,1-2.8.91,6,6,0,0,1-.63-.05,6.24,6.24,0,0,1-.82-.16,4.66,4.66,0,0,1-1.19-.49.93.93,0,0,1-.54-.81.49.49,0,0,1,0-.12s0-.08,0-.12a1.11,1.11,0,0,1,.28-.41.82.82,0,0,1,.42-.24h.07a1.59,1.59,0,0,1,.5.1l.56.23.67.21a3.24,3.24,0,0,0,.79.09,1.83,1.83,0,0,0,1.23-.41,1.45,1.45,0,0,0,.48-1.17v-.49h0a1.91,1.91,0,0,1-.82.72,3,3,0,0,1-1.21.23,2.58,2.58,0,0,1-2.34-1.17,4.83,4.83,0,0,1-.77-2.68,4.43,4.43,0,0,1,.9-2.73,2.86,2.86,0,0,1,2.42-1.2h.2l.21,0a2.46,2.46,0,0,1,.82.3,1.6,1.6,0,0,1,.62.59,1.17,1.17,0,0,1,.34-.62,1,1,0,0,1,.67-.22.94.94,0,0,1,.72.31,1.17,1.17,0,0,1,.28.82Zm-2,2.76a.92.92,0,0,0,0-.16s0-.11,0-.16a2.58,2.58,0,0,0-.44-1.22,1.3,1.3,0,0,0-1.12-.55,1.24,1.24,0,0,0-1.07.53,2.37,2.37,0,0,0-.47,1.15,1.1,1.1,0,0,0,0,.18,1,1,0,0,0,0,.17,2.68,2.68,0,0,0,.39,1.44,1.44,1.44,0,0,0,2.35,0,2.59,2.59,0,0,0,.41-1.3v-.09Z"/><path class="cls-3" d="M344.8,58.9V54.25h-.45a.78.78,0,0,1-.63-.22,1,1,0,0,1,0-1.28.85.85,0,0,1,.62-.25h.45V51.28a1.11,1.11,0,0,1,.29-.79,1,1,0,0,1,1.45,0,1.17,1.17,0,0,1,.28.81v1.19h.57a1.27,1.27,0,0,1,.68.21.93.93,0,0,1,0,1.35,1.12,1.12,0,0,1-.68.2h-.57V58.9a1.18,1.18,0,0,1-.28.82,1,1,0,0,1-1.45,0,1.13,1.13,0,0,1-.29-.81Z"/><path class="cls-3" d="M348.81,58.9V50.28a1.12,1.12,0,0,1,.28-.8,1,1,0,0,1,1.45,0,1.13,1.13,0,0,1,.28.81V53h0a1.52,1.52,0,0,1,.55-.42,2.71,2.71,0,0,1,.7-.21l.3,0,.28,0a2.81,2.81,0,0,1,2,.72,2.56,2.56,0,0,1,.78,2V58.9a1.13,1.13,0,0,1-.28.82,1,1,0,0,1-1.45,0,1.13,1.13,0,0,1-.28-.81V55.39a1.3,1.3,0,0,0-.39-1,1.36,1.36,0,0,0-.93-.35,1.19,1.19,0,0,0-.95.4,1.47,1.47,0,0,0-.34,1v3.5a1.13,1.13,0,0,1-.28.82,1,1,0,0,1-1.45,0,1.13,1.13,0,0,1-.28-.81Z"/><path class="cls-3" d="M122.4,70.51v5.22a1.85,1.85,0,0,1,0,.23,1.33,1.33,0,0,1-.23.59.83.83,0,0,1-.72.27.85.85,0,0,1-.65-.22,1.45,1.45,0,0,1-.32-.62,2.55,2.55,0,0,1-.87.69,2.31,2.31,0,0,1-1,.23,3,3,0,0,1-2.37-1.08,4.52,4.52,0,0,1,0-5.58,3,3,0,0,1,2.36-1.12,2.64,2.64,0,0,1,1.07.23,2,2,0,0,1,.85.71.9.9,0,0,1,.32-.61.93.93,0,0,1,.65-.25.81.81,0,0,1,.72.28,1.43,1.43,0,0,1,.23.59,2.09,2.09,0,0,1,0,.24v.21ZM117.24,73v.13a.57.57,0,0,0,0,.13,2.47,2.47,0,0,0,.44,1.22,1.31,1.31,0,0,0,1.14.56,1.26,1.26,0,0,0,1.11-.56,2.56,2.56,0,0,0,.43-1.22.59.59,0,0,0,0-.13V73c0-.05,0-.1,0-.15a.81.81,0,0,1,0-.16,2.38,2.38,0,0,0-.45-1.2,1.23,1.23,0,0,0-1.09-.55,1.27,1.27,0,0,0-1.12.55,2.49,2.49,0,0,0-.46,1.2.81.81,0,0,1,0,.16V73Z"/><path class="cls-3" d="M123.9,75.7V70.31a1.14,1.14,0,0,1,.29-.8,1,1,0,0,1,.72-.31,1,1,0,0,1,.63.2.85.85,0,0,1,.29.55,1.92,1.92,0,0,1,.76-.62,3,3,0,0,1,1.19-.21,2.84,2.84,0,0,1,2,.71,2.61,2.61,0,0,1,.79,2V75.7a1.2,1.2,0,0,1-.28.82,1,1,0,0,1-1.45,0,1.13,1.13,0,0,1-.29-.81V72.19a1.3,1.3,0,0,0-.39-1,1.33,1.33,0,0,0-.93-.35,1.2,1.2,0,0,0-1,.4,1.52,1.52,0,0,0-.33,1v3.5a1.18,1.18,0,0,1-.28.82,1,1,0,0,1-1.45,0,1.13,1.13,0,0,1-.29-.81Z"/><path class="cls-3" d="M138.92,67.08V75.7a1.13,1.13,0,0,1-.28.82.94.94,0,0,1-.73.3.92.92,0,0,1-.66-.22,1,1,0,0,1-.34-.61,1.53,1.53,0,0,1-.62.59,3.06,3.06,0,0,1-.83.3l-.2,0h-.2a2.87,2.87,0,0,1-2.42-1.17,4.2,4.2,0,0,1-.9-2.61v-.19a4.9,4.9,0,0,1,.87-2.61A2.7,2.7,0,0,1,135,69.13a3,3,0,0,1,1,.18,2.85,2.85,0,0,1,.89.52V67.08a1.12,1.12,0,0,1,.28-.8,1,1,0,0,1,1.45,0,1.13,1.13,0,0,1,.28.81Zm-2,5.88v-.07a2.51,2.51,0,0,0-.42-1.31,1.39,1.39,0,0,0-2.24-.07,2.69,2.69,0,0,0-.47,1.18c0,.06,0,.11,0,.17v.35c0,.07,0,.12,0,.18a2.58,2.58,0,0,0,.47,1.15,1.38,1.38,0,0,0,2.19,0,2.59,2.59,0,0,0,.45-1.21.91.91,0,0,1,0-.17c0-.06,0-.11,0-.17Z"/><path class="cls-3" d="M150.3,70.39v.14s0,.08,0,.13a1.37,1.37,0,0,1-.26.49.61.61,0,0,1-.49.22h-.16l-.17,0-.2-.07-.21-.07-.4-.14a1.63,1.63,0,0,0-.45-.06,1.42,1.42,0,0,0-1.28.64,2.52,2.52,0,0,0-.42,1.42v.11a2.41,2.41,0,0,0,.48,1.32,1.42,1.42,0,0,0,1.22.6l.26,0a1.29,1.29,0,0,0,.28-.08l.16,0,.15-.06.39-.15a.85.85,0,0,1,1.12.82.91.91,0,0,1-.43.79,3.27,3.27,0,0,1-1,.43,3.54,3.54,0,0,1-.6.12l-.48,0a3.31,3.31,0,0,1-2.62-1.14,4.2,4.2,0,0,1,0-5.44,3.26,3.26,0,0,1,2.6-1.19l.48,0a3.89,3.89,0,0,1,.54.1,2.82,2.82,0,0,1,1,.39.85.85,0,0,1,.44.76Z"/><path class="cls-3" d="M158.24,70.51v5.22a1.85,1.85,0,0,1,0,.23,1.33,1.33,0,0,1-.23.59.83.83,0,0,1-.72.27.85.85,0,0,1-.65-.22,1.45,1.45,0,0,1-.32-.62,2.55,2.55,0,0,1-.87.69,2.31,2.31,0,0,1-1.05.23A3,3,0,0,1,152,75.82a4.52,4.52,0,0,1,0-5.58,3,3,0,0,1,2.36-1.12,2.64,2.64,0,0,1,1.07.23,2.07,2.07,0,0,1,.85.71.9.9,0,0,1,.32-.61.93.93,0,0,1,.65-.25.81.81,0,0,1,.72.28,1.43,1.43,0,0,1,.23.59,2.09,2.09,0,0,1,0,.24v.21ZM153.08,73v.13a.57.57,0,0,0,0,.13,2.47,2.47,0,0,0,.44,1.22,1.31,1.31,0,0,0,1.14.56,1.26,1.26,0,0,0,1.11-.56,2.56,2.56,0,0,0,.43-1.22.59.59,0,0,0,0-.13V73c0-.05,0-.1,0-.15a.81.81,0,0,1,0-.16,2.48,2.48,0,0,0-.45-1.2,1.23,1.23,0,0,0-1.09-.55,1.3,1.3,0,0,0-1.13.55,2.58,2.58,0,0,0-.45,1.2.81.81,0,0,1,0,.16V73Z"/><path class="cls-3" d="M159.74,75.7V70.31a1.1,1.1,0,0,1,.29-.8,1,1,0,0,1,.72-.31,1,1,0,0,1,.63.2.85.85,0,0,1,.29.55,1.92,1.92,0,0,1,.76-.62,3,3,0,0,1,1.19-.21,2.84,2.84,0,0,1,2,.71,2.61,2.61,0,0,1,.79,2V75.7a1.2,1.2,0,0,1-.28.82,1,1,0,0,1-1.45,0,1.13,1.13,0,0,1-.29-.81V72.19a1.3,1.3,0,0,0-.39-1,1.33,1.33,0,0,0-.93-.35,1.2,1.2,0,0,0-.95.4,1.52,1.52,0,0,0-.34,1v3.5a1.18,1.18,0,0,1-.27.82,1,1,0,0,1-1.45,0,1.09,1.09,0,0,1-.29-.81Z"/><path class="cls-3" d="M177.76,70.39s0,.09,0,.14a.69.69,0,0,1,0,.13,1.23,1.23,0,0,1-.26.49.61.61,0,0,1-.48.22h-.17l-.17,0-.2-.07-.2-.07-.41-.14a1.63,1.63,0,0,0-.45-.06,1.41,1.41,0,0,0-1.27.64A2.52,2.52,0,0,0,173.7,73v.11a2.4,2.4,0,0,0,.47,1.32,1.42,1.42,0,0,0,1.22.6l.27,0a1.72,1.72,0,0,0,.28-.08l.15,0,.16-.06.38-.15a.9.9,0,0,1,.26-.06.82.82,0,0,1,.61.26.85.85,0,0,1,.26.62.92.92,0,0,1-.44.79,3.15,3.15,0,0,1-.95.43,3.25,3.25,0,0,1-.59.12l-.49,0a3.32,3.32,0,0,1-2.62-1.14,4,4,0,0,1-1-2.72,4.08,4.08,0,0,1,1-2.72,3.26,3.26,0,0,1,2.6-1.19l.48,0a3.76,3.76,0,0,1,.55.1,2.85,2.85,0,0,1,1,.39.84.84,0,0,1,.45.76Z"/><path class="cls-3" d="M178.81,75.7V67.08a1.12,1.12,0,0,1,.28-.8,1,1,0,0,1,.73-.31.91.91,0,0,1,.72.31,1.13,1.13,0,0,1,.28.81v2.73h0a1.52,1.52,0,0,1,.55-.42,2.71,2.71,0,0,1,.7-.21l.3,0,.29,0a2.8,2.8,0,0,1,2,.72,2.56,2.56,0,0,1,.78,2V75.7a1.13,1.13,0,0,1-.28.82.94.94,0,0,1-.72.3,1,1,0,0,1-.73-.3,1.13,1.13,0,0,1-.28-.81V72.19a1.3,1.3,0,0,0-.39-1,1.33,1.33,0,0,0-.93-.35,1.19,1.19,0,0,0-1,.4,1.52,1.52,0,0,0-.34,1v3.5a1.13,1.13,0,0,1-.28.82.94.94,0,0,1-.72.3,1,1,0,0,1-.73-.3,1.13,1.13,0,0,1-.28-.81Z"/><path class="cls-3" d="M188.57,73.68a1.52,1.52,0,0,0,.65,1.12,2.31,2.31,0,0,0,1.25.35,2.09,2.09,0,0,0,.72-.12c.22-.09.42-.18.61-.28l.52-.28a.88.88,0,0,1,.43-.13.77.77,0,0,1,.58.27.93.93,0,0,1,.25.6c0,.37-.28.72-.83,1a5.09,5.09,0,0,1-1.82.61l-.33,0h-.31a3.59,3.59,0,0,1-2.74-1.1,3.82,3.82,0,0,1-1-2.76,4.07,4.07,0,0,1,1-2.72,3.29,3.29,0,0,1,2.61-1.19,3.23,3.23,0,0,1,2.36.93,4.05,4.05,0,0,1,1.19,2c0,.11,0,.22.05.34a2,2,0,0,1,0,.34,1,1,0,0,1-.21.67.9.9,0,0,1-.68.22Zm3.16-1.34a1.93,1.93,0,0,0-.5-1.09,1.59,1.59,0,0,0-2.21,0,1.81,1.81,0,0,0-.5,1.08Z"/><path class="cls-3" d="M196.25,75.8,194.54,71c0-.15-.1-.29-.13-.41a2.33,2.33,0,0,1-.06-.35.29.29,0,0,1,0-.09V70a.73.73,0,0,1,.29-.58,1.08,1.08,0,0,1,.72-.24,1,1,0,0,1,.62.22,1,1,0,0,1,.33.58l1.17,3.84h0l1.18-3.77a1.38,1.38,0,0,1,.35-.63,1.07,1.07,0,0,1,1.35,0,1.49,1.49,0,0,1,.34.65l1.18,3.75h0L203.07,70a1.07,1.07,0,0,1,.34-.57.91.91,0,0,1,.61-.22,1.05,1.05,0,0,1,.73.26,1,1,0,0,1,.28.73,1.06,1.06,0,0,1-.06.34c-.05.12-.09.25-.14.41l-1.72,4.86a1.83,1.83,0,0,1-.44.73,1.21,1.21,0,0,1-1.52,0,1.38,1.38,0,0,1-.42-.67l-1-3.27h0l-1,3.25a1.4,1.4,0,0,1-.42.69,1.21,1.21,0,0,1-1.52,0,1.86,1.86,0,0,1-.44-.72Z"/><path class="cls-3" d="M211.59,75.8,209.89,71c-.06-.15-.1-.29-.14-.41a2.33,2.33,0,0,1-.06-.35.28.28,0,0,1,0-.09V70a.72.72,0,0,1,.28-.58,1.12,1.12,0,0,1,.72-.24.94.94,0,0,1,.62.22,1.1,1.1,0,0,1,.34.58l1.16,3.84h0L214,70.07a1.48,1.48,0,0,1,.35-.63.92.92,0,0,1,.67-.24.89.89,0,0,1,.68.24,1.5,1.5,0,0,1,.35.65l1.17,3.75h0L218.41,70a1.07,1.07,0,0,1,.34-.57.93.93,0,0,1,.61-.22,1,1,0,0,1,.73.26,1,1,0,0,1,.28.73,1.06,1.06,0,0,1-.06.34c0,.12-.09.25-.13.41l-1.73,4.86a1.83,1.83,0,0,1-.44.73,1,1,0,0,1-.77.29,1,1,0,0,1-.74-.25,1.38,1.38,0,0,1-.42-.67l-1-3.27h0l-1,3.25a1.4,1.4,0,0,1-.42.69,1,1,0,0,1-.74.25,1,1,0,0,1-.77-.29,1.88,1.88,0,0,1-.45-.72Z"/><path class="cls-3" d="M222.37,66.18a1.18,1.18,0,0,1,.8.34,1.08,1.08,0,0,1,.34.78,1.14,1.14,0,0,1-.33.82,1.1,1.1,0,0,1-1.6,0,1.1,1.1,0,0,1-.34-.81,1,1,0,0,1,.34-.77,1.13,1.13,0,0,1,.79-.34Zm-1,9.52V70.31a1.13,1.13,0,0,1,.28-.8,1,1,0,0,1,1.45,0,1.17,1.17,0,0,1,.28.82V75.7a1.15,1.15,0,0,1-.28.82,1,1,0,0,1-1.45,0,1.13,1.13,0,0,1-.28-.81Z"/><path class="cls-3" d="M225.34,75.7V71.05h-.44a.79.79,0,0,1-.64-.22,1,1,0,0,1,0-1.28.86.86,0,0,1,.63-.25h.44V68.08a1.11,1.11,0,0,1,.29-.79,1,1,0,0,1,1.45,0,1.17,1.17,0,0,1,.28.81v1.19h.57a1.27,1.27,0,0,1,.68.21.93.93,0,0,1,0,1.35,1.19,1.19,0,0,1-.68.2h-.57V75.7a1.18,1.18,0,0,1-.28.82,1,1,0,0,1-1.45,0,1.13,1.13,0,0,1-.29-.81Z"/><path class="cls-3" d="M229.35,75.7V67.08a1.12,1.12,0,0,1,.28-.8,1,1,0,0,1,.72-.31.92.92,0,0,1,.73.31,1.13,1.13,0,0,1,.28.81v2.73h0a1.52,1.52,0,0,1,.55-.42,2.71,2.71,0,0,1,.7-.21l.3,0,.29,0a2.8,2.8,0,0,1,2,.72,2.56,2.56,0,0,1,.78,2V75.7a1.13,1.13,0,0,1-.28.82.94.94,0,0,1-.72.3,1,1,0,0,1-.73-.3,1.13,1.13,0,0,1-.28-.81V72.19a1.3,1.3,0,0,0-.39-1,1.34,1.34,0,0,0-.93-.35,1.19,1.19,0,0,0-1,.4,1.52,1.52,0,0,0-.34,1v3.5a1.13,1.13,0,0,1-.28.82.94.94,0,0,1-.73.3,1,1,0,0,1-.72-.3,1.13,1.13,0,0,1-.28-.81Z"/><path class="cls-3" d="M248.47,70.51v5.22a1.85,1.85,0,0,1,0,.23,1.33,1.33,0,0,1-.23.59,1.08,1.08,0,0,1-1.37,0,1.45,1.45,0,0,1-.32-.62,2.55,2.55,0,0,1-.87.69,2.31,2.31,0,0,1-1,.23,3,3,0,0,1-2.37-1.08,4.52,4.52,0,0,1,0-5.58,3,3,0,0,1,2.36-1.12,2.64,2.64,0,0,1,1.07.23,2.07,2.07,0,0,1,.85.71.9.9,0,0,1,.32-.61.92.92,0,0,1,.64-.25.82.82,0,0,1,.73.28,1.43,1.43,0,0,1,.23.59,2.09,2.09,0,0,1,0,.24v.21ZM243.3,73v.13a.59.59,0,0,0,0,.13,2.47,2.47,0,0,0,.44,1.22,1.31,1.31,0,0,0,1.14.56,1.27,1.27,0,0,0,1.11-.56,2.56,2.56,0,0,0,.43-1.22.57.57,0,0,0,0-.13v-.27a.81.81,0,0,1,0-.16,2.48,2.48,0,0,0-.45-1.2A1.23,1.23,0,0,0,244.9,71a1.3,1.3,0,0,0-1.13.55,2.48,2.48,0,0,0-.45,1.2.81.81,0,0,1,0,.16s0,.1,0,.15Z"/><path class="cls-3" d="M259.85,70.39a.66.66,0,0,1,0,.14.69.69,0,0,1,0,.13,1.2,1.2,0,0,1-.25.49.61.61,0,0,1-.49.22h-.17l-.16,0-.21-.07-.2-.07-.41-.14a1.61,1.61,0,0,0-.44-.06,1.42,1.42,0,0,0-1.28.64,2.52,2.52,0,0,0-.42,1.42v.11a2.41,2.41,0,0,0,.48,1.32,1.41,1.41,0,0,0,1.22.6l.26,0A1.47,1.47,0,0,0,258,75l.16,0,.15-.06.38-.15a1,1,0,0,1,.26-.06.87.87,0,0,1,.87.88.91.91,0,0,1-.43.79,3.27,3.27,0,0,1-.95.43,3.54,3.54,0,0,1-.6.12l-.48,0a3.31,3.31,0,0,1-2.62-1.14,4.22,4.22,0,0,1,0-5.44,3.28,3.28,0,0,1,2.61-1.19l.47,0a3.76,3.76,0,0,1,.55.1,2.85,2.85,0,0,1,1,.39.84.84,0,0,1,.45.76Z"/><path class="cls-3" d="M260.87,75.7V67.08a1.12,1.12,0,0,1,.29-.8,1,1,0,0,1,1.45,0,1.13,1.13,0,0,1,.28.81V75.7a1.13,1.13,0,0,1-.28.82,1,1,0,0,1-1.45,0,1.13,1.13,0,0,1-.29-.81Z"/><path class="cls-3" d="M267.68,69.12a3.3,3.3,0,0,1,2.6,1.2,4.08,4.08,0,0,1,1,2.72,4,4,0,0,1-1,2.72,3.58,3.58,0,0,1-5.24,0,4.22,4.22,0,0,1,0-5.44,3.28,3.28,0,0,1,2.61-1.19Zm-1.13,2.41a2.49,2.49,0,0,0-.46,1.2v.16a.76.76,0,0,0,0,.15v.12s0,.09,0,.13a2.49,2.49,0,0,0,.45,1.22,1.29,1.29,0,0,0,1.14.56,1.31,1.31,0,0,0,1.14-.56,2.51,2.51,0,0,0,.44-1.22.71.71,0,0,0,0-.14v-.26a1,1,0,0,1,0-.17,2.49,2.49,0,0,0-.46-1.2,1.27,1.27,0,0,0-1.12-.55A1.31,1.31,0,0,0,266.55,71.53Z"/><path class="cls-3" d="M277.56,70.58a.91.91,0,0,1-.23.63.72.72,0,0,1-.59.28.9.9,0,0,1-.35-.09l-.45-.21-.28-.12-.28-.1-.23,0a.82.82,0,0,0-.22,0,.86.86,0,0,0-.48.13.47.47,0,0,0-.21.43.44.44,0,0,0,.23.36,3.54,3.54,0,0,0,.56.3l.47.17.49.2a5.17,5.17,0,0,1,1.21.74,1.62,1.62,0,0,1,.54,1.32,2.13,2.13,0,0,1-.78,1.68,3.09,3.09,0,0,1-2.09.67l-.44,0a3.58,3.58,0,0,1-.45-.09,3.85,3.85,0,0,1-1.32-.53,1.07,1.07,0,0,1-.6-.9,1.15,1.15,0,0,1,0-.16.46.46,0,0,1,.08-.19,1,1,0,0,1,.29-.37.67.67,0,0,1,.48-.17,1.29,1.29,0,0,1,.45.07l.37.19a.2.2,0,0,1,.08,0l.08,0a2.51,2.51,0,0,0,.49.25,1.66,1.66,0,0,0,.61.1,1,1,0,0,0,.63-.14.55.55,0,0,0,.17-.43.42.42,0,0,0-.22-.36,3.48,3.48,0,0,0-.55-.28l-.47-.19-.51-.19a4.91,4.91,0,0,1-1.2-.74,1.64,1.64,0,0,1-.55-1.33,2.16,2.16,0,0,1,.77-1.71,3,3,0,0,1,2-.65l.41,0a3.58,3.58,0,0,1,.43.08,3.38,3.38,0,0,1,1.16.47,1,1,0,0,1,.52.89Z"/><path class="cls-3" d="M280.43,73.68a1.56,1.56,0,0,0,.66,1.12,2.27,2.27,0,0,0,1.24.35,2.11,2.11,0,0,0,.73-.12c.22-.09.42-.18.61-.28l.51-.28a.91.91,0,0,1,.44-.13.77.77,0,0,1,.57.27.88.88,0,0,1,.25.6c0,.37-.27.72-.82,1a5.09,5.09,0,0,1-1.82.61l-.33,0h-.32a3.55,3.55,0,0,1-2.73-1.1A3.83,3.83,0,0,1,278.37,73a4.08,4.08,0,0,1,1-2.72A3.27,3.27,0,0,1,282,69.13a3.2,3.2,0,0,1,2.35.93,4.07,4.07,0,0,1,1.2,2c0,.11,0,.22,0,.34s0,.23,0,.34a.94.94,0,0,1-.21.67.87.87,0,0,1-.67.22Zm3.17-1.34a2,2,0,0,0-.5-1.09,1.48,1.48,0,0,0-1.11-.44,1.44,1.44,0,0,0-1.1.45,1.76,1.76,0,0,0-.5,1.08Z"/><path class="cls-3" d="M293.56,67.08V75.7a1.13,1.13,0,0,1-.28.82.94.94,0,0,1-.72.3,1,1,0,0,1-.67-.22,1.1,1.1,0,0,1-.34-.61,1.53,1.53,0,0,1-.62.59,3,3,0,0,1-.82.3l-.21,0h-.2a2.89,2.89,0,0,1-2.42-1.17,4.2,4.2,0,0,1-.9-2.61v-.19a4.9,4.9,0,0,1,.87-2.61,2.7,2.7,0,0,1,2.38-1.19,3,3,0,0,1,1,.18,2.74,2.74,0,0,1,.89.52V67.08a1.12,1.12,0,0,1,.28-.8,1,1,0,0,1,.73-.31.91.91,0,0,1,.72.31,1.13,1.13,0,0,1,.28.81Zm-2,5.88v-.07a2.6,2.6,0,0,0-.41-1.31A1.3,1.3,0,0,0,290,71a1.24,1.24,0,0,0-1.07.53,2.47,2.47,0,0,0-.47,1.18,1,1,0,0,0,0,.17,1.15,1.15,0,0,0,0,.18,1,1,0,0,0,0,.17,1,1,0,0,0,0,.18,2.37,2.37,0,0,0,.47,1.15,1.22,1.22,0,0,0,1.07.53,1.28,1.28,0,0,0,1.12-.55,2.58,2.58,0,0,0,.44-1.21c0-.06,0-.12,0-.17a1,1,0,0,0,0-.17Z"/><path class="cls-3" d="M299.16,75.7V70.31a1.14,1.14,0,0,1,.29-.8,1,1,0,0,1,.72-.31,1,1,0,0,1,.63.2.83.83,0,0,1,.29.56,2.62,2.62,0,0,1,.84-.62,2.43,2.43,0,0,1,1-.22,2.63,2.63,0,0,1,1.16.26,2.6,2.6,0,0,1,.93.76,3.27,3.27,0,0,1,1.28-.87l.44-.11a1.87,1.87,0,0,1,.4,0,2.86,2.86,0,0,1,2,.69,2.61,2.61,0,0,1,.76,2V75.7a1.15,1.15,0,0,1-.28.82.94.94,0,0,1-.73.3,1,1,0,0,1-.72-.3,1.13,1.13,0,0,1-.28-.81V72.19a1.51,1.51,0,0,0-.32-1,1,1,0,0,0-.86-.39,1.06,1.06,0,0,0-.87.39,1.54,1.54,0,0,0-.32,1v3.5a1.13,1.13,0,0,1-.28.82,1,1,0,0,1-1.45,0,1.13,1.13,0,0,1-.28-.81V72.19a1.51,1.51,0,0,0-.32-1,1.05,1.05,0,0,0-.86-.39,1,1,0,0,0-.9.39,1.58,1.58,0,0,0-.29,1v3.5a1.13,1.13,0,0,1-.28.82,1,1,0,0,1-1.45,0,1.13,1.13,0,0,1-.29-.81Z"/><path class="cls-3" d="M314.76,69.12a3.3,3.3,0,0,1,2.6,1.2,4.08,4.08,0,0,1,1,2.72,4,4,0,0,1-1,2.72,3.58,3.58,0,0,1-5.24,0,4.2,4.2,0,0,1,0-5.44,3.25,3.25,0,0,1,2.6-1.19Zm-1.13,2.41a2.38,2.38,0,0,0-.45,1.2c0,.06,0,.11,0,.16s0,.1,0,.15v.12a.59.59,0,0,0,0,.13,2.38,2.38,0,0,0,.44,1.22,1.29,1.29,0,0,0,1.14.56,1.31,1.31,0,0,0,1.14-.56,2.51,2.51,0,0,0,.44-1.22.71.71,0,0,0,0-.14v-.26a1,1,0,0,1,0-.17,2.58,2.58,0,0,0-.45-1.2,1.3,1.3,0,0,0-1.13-.55A1.31,1.31,0,0,0,313.63,71.53Z"/><path class="cls-3" d="M319.58,74V70.31a1.13,1.13,0,0,1,.28-.8,1,1,0,0,1,1.45,0,1.17,1.17,0,0,1,.28.82v3.59a1.19,1.19,0,0,0,.4,1,1.37,1.37,0,0,0,1.81,0,1.21,1.21,0,0,0,.4-1V70.31a1.15,1.15,0,0,1,.28-.8,1,1,0,0,1,1.45,0,1.17,1.17,0,0,1,.28.82V74a2.79,2.79,0,0,1-.86,2.15,4.21,4.21,0,0,1-4.91,0,2.75,2.75,0,0,1-.86-2.14Z"/><path class="cls-3" d="M328.2,75.7V71.05h-.45a.81.81,0,0,1-.64-.22.92.92,0,0,1-.23-.65.89.89,0,0,1,.25-.63.85.85,0,0,1,.62-.25h.45V68.08a1.07,1.07,0,0,1,.29-.79.92.92,0,0,1,.72-.31.91.91,0,0,1,.72.31,1.13,1.13,0,0,1,.29.81v1.19h.57a1.27,1.27,0,0,1,.68.21,1,1,0,0,1,0,1.35,1.19,1.19,0,0,1-.68.2h-.57V75.7a1.14,1.14,0,0,1-.29.82.94.94,0,0,1-.72.3,1,1,0,0,1-.72-.3,1.09,1.09,0,0,1-.29-.81Z"/><path class="cls-3" d="M332.2,75.7V67.08a1.12,1.12,0,0,1,.29-.8,1,1,0,0,1,1.45,0,1.13,1.13,0,0,1,.28.81v2.73h0a1.52,1.52,0,0,1,.55-.42,2.75,2.75,0,0,1,.69-.21l.3,0,.29,0a2.84,2.84,0,0,1,2,.72,2.56,2.56,0,0,1,.78,2V75.7a1.13,1.13,0,0,1-.28.82,1,1,0,0,1-1.45,0,1.13,1.13,0,0,1-.29-.81V72.19a1.33,1.33,0,0,0-.38-1,1.36,1.36,0,0,0-.93-.35,1.19,1.19,0,0,0-.95.4,1.47,1.47,0,0,0-.34,1v3.5a1.13,1.13,0,0,1-.28.82,1,1,0,0,1-1.45,0,1.13,1.13,0,0,1-.29-.81Z"/><path class="cls-3" d="M341,71.49v-4.1h-.48a.48.48,0,0,1-.41-.16.59.59,0,0,1-.14-.37h0v0a.59.59,0,0,1,.14-.38.51.51,0,0,1,.41-.18h1.16a.54.54,0,0,1,.4.18.59.59,0,0,1,.15.41v4.64a.61.61,0,0,1-.18.47.59.59,0,0,1-.43.16.61.61,0,0,1-.44-.16.6.6,0,0,1-.18-.47Z"/><path class="cls-3" d="M345.2,66.16a1.77,1.77,0,0,1,1.11.35,1.66,1.66,0,0,1,.55.75.83.83,0,0,1,.06.21,1.23,1.23,0,0,1,0,.2,1.58,1.58,0,0,1-.17.71,1.51,1.51,0,0,1-.5.54,1.79,1.79,0,0,1,.72.59,1.49,1.49,0,0,1,.27.87,1.61,1.61,0,0,1-.59,1.26,2.07,2.07,0,0,1-1.46.53,2,2,0,0,1-1.2-.34,1.82,1.82,0,0,1-.66-.74,1,1,0,0,1-.08-.23,1.49,1.49,0,0,1,0-.21.42.42,0,0,1,.17-.36.69.69,0,0,1,.36-.18h.1a.34.34,0,0,1,.26.1,2.13,2.13,0,0,1,.18.22.22.22,0,0,0,.05.08.18.18,0,0,0,.05.07,1.44,1.44,0,0,0,.28.33.81.81,0,0,0,.52.15.79.79,0,0,0,.55-.21.74.74,0,0,0,.22-.55c0-.28-.07-.47-.22-.54a1.45,1.45,0,0,0-.47-.16h0s0,0,0,0a1.57,1.57,0,0,1-.45-.12c-.13-.06-.2-.2-.2-.43a.45.45,0,0,1,.18-.42,2.37,2.37,0,0,1,.4-.15,1.31,1.31,0,0,0,.4-.17.47.47,0,0,0,.18-.44.57.57,0,0,0-.15-.4.62.62,0,0,0-.44-.15.64.64,0,0,0-.44.13,1.6,1.6,0,0,0-.25.27l0,0,0,0a1,1,0,0,1-.19.22.37.37,0,0,1-.28.1.44.44,0,0,1-.39-.19.68.68,0,0,1-.14-.42v-.06a.15.15,0,0,0,0-.07,1.29,1.29,0,0,1,.61-.82,2,2,0,0,1,1.16-.37Z"/><circle class="cls-4" cx="39.97" cy="63.92" r="38.77"/><circle class="cls-5" cx="39.97" cy="63.92" r="38.77"/><path class="cls-6" d="M49.86,57.05a2.63,2.63,0,0,0-.69-1.51h0s0,0-.05,0h0c-.86-.91-.67-2.52-.83-4.57-.25-3.23-.6-7.65-4-11.2-3.71-3.86-7.37-3.22-9.23-2.5a4.2,4.2,0,0,1-3,0,7.91,7.91,0,0,0-2.86-.54,8.72,8.72,0,0,0-6.37,3c-3.41,3.55-3.76,8-4,11.2-.16,2.05,0,3.66-.83,4.57h0l0,0h0a2.55,2.55,0,0,0-.68,1.51Z"/><path class="cls-6" d="M49.86,57.05a2.54,2.54,0,0,1-.69,1.48h0l-.05,0h0c-.86.88-.67,2.46-.83,4.46C48,66.2,45.78,76.12,33.55,76.12S19,66.2,18.77,63.05c-.16-2,0-3.58-.83-4.46h0l0,0h0a2.47,2.47,0,0,1-.68-1.48Z"/><path class="cls-7" d="M49.14,57.05l0,0c-1.56-1.39-1.43-3.33-1.64-5.58-.26-2.86-.6-6.43-3.78-9.21A8,8,0,0,0,38.4,40a7.45,7.45,0,0,0-2.29.37,8.58,8.58,0,0,1-5.24,0A7.38,7.38,0,0,0,28.59,40a8,8,0,0,0-5.3,2.21c-3.18,2.78-3.51,6.35-3.78,9.21-.21,2.25-.08,4.19-1.64,5.58l0,0Z"/><path class="cls-7" d="M49.14,57.05l0,0c-1.56,1.36-1.43,3.26-1.64,5.45-.26,2.79-1.65,10.37-14,10.37s-13.71-7.58-14-10.37c-.21-2.19-.08-4.09-1.64-5.44l0,0Z"/><g class="cls-8"><path class="cls-4" d="M33.43,39.28v2a1.48,1.48,0,0,1-.64,1.21,1.68,1.68,0,0,1-1.05.3l-1.38-.07a1.83,1.83,0,0,1-1.06-.39,1.67,1.67,0,0,1-.68-1.41,2.72,2.72,0,0,1,1.21-2.33c1.59-.91,3.32-1.31,3.6.71"/><path class="cls-4" d="M28.49,38.73v2a1.51,1.51,0,0,1-.64,1.21,1.67,1.67,0,0,1-1.05.29l-1.38-.07a1.9,1.9,0,0,1-1.06-.38,1.69,1.69,0,0,1-.68-1.42A2.74,2.74,0,0,1,24.89,38c1.59-.91,3.32-1.3,3.6.72"/><path class="cls-4" d="M33.55,39.28v2a1.48,1.48,0,0,0,.64,1.21,1.68,1.68,0,0,0,1.05.3l1.38-.07a1.83,1.83,0,0,0,1.06-.39,1.67,1.67,0,0,0,.68-1.41,2.72,2.72,0,0,0-1.21-2.33c-1.59-.91-3.32-1.31-3.6.71"/><path class="cls-4" d="M38.49,38.45v2a1.51,1.51,0,0,0,.64,1.21,1.75,1.75,0,0,0,1,.3l1.38-.07a1.91,1.91,0,0,0,1.06-.39,1.69,1.69,0,0,0,.68-1.42,2.74,2.74,0,0,0-1.21-2.33c-1.59-.91-3.32-1.3-3.6.72"/></g><path class="cls-9" d="M43,63.42c1.8,0,3.07-5.2,2.45-6.89-1.37-3.72-3.83-9.08-6.6-9-4.24.12-4,5.09-4,5.09s.39,2.52-1.51,2.52h-.2c-1.9,0-1.51-2.52-1.51-2.52s.25-5-4-5.09c-2.77-.09-5.23,5.27-6.6,9-.62,1.69.65,6.89,2.45,6.89Z"/><path class="cls-10" d="M33.38,59.94c-2.76-1.8-7.29-.48-9.57.37-.9.34-1.42.93-1.37,1.54a10.4,10.4,0,0,0,6,8.85,11.33,11.33,0,0,0,4.52,1,11.81,11.81,0,0,0,4.59-.84,11.09,11.09,0,0,0,6.63-8.59c.12-.67-.4-1.34-1.38-1.73-2.25-.92-6.54-2.25-9.38-.56"/><path class="cls-11" d="M33.38,59.94c-2.76-1.8-7.29-.48-9.57.37-.9.34-1.42.93-1.37,1.54a10.4,10.4,0,0,0,6,8.85,11.33,11.33,0,0,0,4.52,1,11.81,11.81,0,0,0,4.59-.84,11.09,11.09,0,0,0,6.63-8.59c.12-.67-.4-1.34-1.38-1.73C40.51,59.58,36.22,58.25,33.38,59.94Z"/><line class="cls-12" x1="33.38" y1="59.94" x2="33.38" y2="67.17"/><g class="cls-13"><path class="cls-4" d="M33.06,72.13v-2A1.48,1.48,0,0,1,33.7,69a1.65,1.65,0,0,1,1-.3l1.38.07a2,2,0,0,1,1.07.38,1.69,1.69,0,0,1,.68,1.42,2.72,2.72,0,0,1-1.22,2.33c-1.59.91-3.32,1.3-3.6-.72"/><path class="cls-4" d="M38,71.58v-2a1.48,1.48,0,0,1,.64-1.21,1.72,1.72,0,0,1,1-.3l1.38.07a2,2,0,0,1,1.07.39A1.68,1.68,0,0,1,42.82,70a2.7,2.7,0,0,1-1.22,2.32c-1.59.92-3.32,1.31-3.6-.71"/><path class="cls-4" d="M43.15,70.19v-2a1.48,1.48,0,0,1,.64-1.2,1.7,1.7,0,0,1,1.05-.3l1.38.07a1.83,1.83,0,0,1,1.06.39A1.65,1.65,0,0,1,48,68.57a2.74,2.74,0,0,1-1.22,2.33c-1.59.91-3.32,1.31-3.6-.71"/><path class="cls-4" d="M32.94,72.13v-2A1.48,1.48,0,0,0,32.3,69a1.62,1.62,0,0,0-1-.3l-1.37.07a1.93,1.93,0,0,0-1.07.38,1.69,1.69,0,0,0-.68,1.42,2.72,2.72,0,0,0,1.22,2.33c1.59.91,3.31,1.3,3.59-.72"/><path class="cls-4" d="M28,71.86v-2a1.48,1.48,0,0,0-.64-1.2,1.68,1.68,0,0,0-1.05-.3l-1.37.07a1.86,1.86,0,0,0-1.07.39,1.67,1.67,0,0,0-.68,1.41,2.71,2.71,0,0,0,1.22,2.33c1.59.91,3.32,1.3,3.59-.71"/><path class="cls-4" d="M23,70.05v-2a1.48,1.48,0,0,0-.64-1.21,1.68,1.68,0,0,0-1.05-.3l-1.37.07a1.94,1.94,0,0,0-1.07.39,1.67,1.67,0,0,0-.68,1.41,2.71,2.71,0,0,0,1.22,2.33c1.59.92,3.32,1.31,3.59-.71"/></g><path class="cls-14" d="M51.4,72.14c-8.28,0-15,2-15,4.44v6.9C36.4,81,43.12,79,51.4,79Z"/><path class="cls-15" d="M41.72,76.53l6.55,4.78c.49.35,1.1-.08,1.1-.78V79.06h1c8.28,0,12.42,2,12.42,4.47v-7c0-2.47-4.14-4.47-12.42-4.47l-1,0V70.69c0-.7-.61-1.14-1.1-.78l-6.55,4.77a1.23,1.23,0,0,0,0,1.85"/><path class="cls-14" d="M47.74,88.86c8.29,0,15-2,15-4.48V77.44c0,2.47-6.71,4.47-15,4.47Z"/><path class="cls-15" d="M57.42,84.42l-6.55-4.77c-.49-.36-1.1.07-1.1.77V81.9h-1c-8.28,0-12.42-2-12.42-4.48v7c0,2.47,4.14,4.47,12.42,4.47v0h1v1.48c0,.7.61,1.13,1.1.78l6.55-4.78a1.21,1.21,0,0,0,0-1.85"/></g></g></svg>