<svg xmlns="http://www.w3.org/2000/svg" viewBox="0 0 444.3 140.91"><defs><style>.cls-1,.cls-3{fill:#e8eac4;}.cls-1{fill-rule:evenodd;}.cls-2{fill:#aba084;}.cls-4{fill:#fcd7d0;}.cls-5{fill:#7bc8be;}.cls-6{fill:#fabbad;}.cls-7{fill:#f8cdb2;}.cls-8{fill:#e59a36;}.cls-9{fill:#f16564;opacity:0.3;}.cls-10{fill:#dd8760;}.cls-11{fill:#8e6327;}.cls-12{fill:#ffe24c;}</style></defs><g id="Layer_2" data-name="Layer 2"><g id="Layer_1-2" data-name="Layer 1"><path class="cls-1" d="M323.48,95.43l4.67.08h3.72l17.28.13,30.71.14,3.12-.07,6.31-.31,5.91-.55c5.15-.81,10.16-1.46,14.08-3.29a12.74,12.74,0,0,0,3.92-2.33c3.13-3.3,3.15-9.57,4.21-14.65.54-2.6.42-5.43.93-8.13a13.42,13.42,0,0,0,0-4.29c-.29-1.59,0-3.19-.28-4.67-.11-1-.22-1.94-.32-2.91A33.6,33.6,0,0,0,416,47.72c-1.12-2.46-2.4-3.46-4.12-5.29a21,21,0,0,0-10.08-6.1c-5.78-1.54-14.22-1.1-21.73-1.1l-7.48,0-8.38-.11L347.29,35l-12,.1-5.65.1c-10.12-.06-20.7,0-30.71,0l-21.33,0-23.86-.11L205.65,35l-34.24.1-17.17.11-28,.27-9.92.1-27.2.55-16.49.41c-14.3.73-28.61,1-41.15,2.1-6.78.6-14.93,1.2-18.33,2.81C5.6,45,4.48,50,1.61,55c-.34,1.41-.69,2.82-1,4.22S.19,62.08,0,63.5v2.81c.31,2,.62,4.09.92,6.14q.87,2.35,1.73,4.7C3.8,78.78,5,80.4,6.11,82c2.35,3.19,2.6,6.51,9.11,8.41l5.3,1.1c3.42.67,7.66,1.38,11.87,1.78,10.3,1,22.2.91,33.89,1.48l16.6.3,17.18.14,51.07.28h10.6l49.23.13,87.49.14,8.88-.07,16.15-.28"/><path class="cls-2" d="M58.11,47.7l1.63.14a15.82,15.82,0,0,1,2,.36,10.73,10.73,0,0,1,3.13,1.3,2.7,2.7,0,0,1,1.42,2.42,3.33,3.33,0,0,1-.75,2.15,2.47,2.47,0,0,1-2,.94,4.12,4.12,0,0,1-.6,0,3.87,3.87,0,0,1-.61-.12,6.37,6.37,0,0,0-.61-.23L61,54.39A12.2,12.2,0,0,0,59.63,54a6.56,6.56,0,0,0-1.69-.19,4.21,4.21,0,0,0-2.38.69,2.28,2.28,0,0,0-1.05,2,1.86,1.86,0,0,0,1.09,1.69,12.43,12.43,0,0,0,2.72,1.07c.5.17,1,.33,1.54.48l1.63.48a15.26,15.26,0,0,1,4.81,2.74q2.17,1.82,2.18,5.87a8.64,8.64,0,0,1-3.18,7.07,11.54,11.54,0,0,1-7.53,2.59c-.55,0-1.21,0-2-.08s-1.52-.16-2.3-.3a13.14,13.14,0,0,1-4.06-1.36,3.22,3.22,0,0,1-1.08-5,2.54,2.54,0,0,1,2.05-.88,5,5,0,0,1,1.54.25l1.67.55c.59.22,1.2.41,1.84.58a7.71,7.71,0,0,0,2,.25,4.5,4.5,0,0,0,3.18-1A3.41,3.41,0,0,0,61.7,68.9a2.25,2.25,0,0,0-1.33-2.12,17.73,17.73,0,0,0-3.26-1.23l-1.18-.33c-.39-.11-.79-.24-1.21-.38a15.9,15.9,0,0,1-4.81-2.38q-2.17-1.59-2.17-5.23a8.52,8.52,0,0,1,3.09-6.94,11.11,11.11,0,0,1,7.28-2.55Z"/><path class="cls-2" d="M72.45,74.87V61H71.11a2.37,2.37,0,0,1-1.9-.67,2.63,2.63,0,0,1-.69-1.92,2.58,2.58,0,0,1,.73-1.88,2.49,2.49,0,0,1,1.86-.75l1.34,0v-3.6a3.3,3.3,0,0,1,.86-2.38,3,3,0,0,1,4.32,0,3.44,3.44,0,0,1,.84,2.42v3.56h1.71a3.69,3.69,0,0,1,2,.62,2.8,2.8,0,0,1,0,4,3.45,3.45,0,0,1-2,.6H78.47V74.87a3.44,3.44,0,0,1-.84,2.45,3,3,0,0,1-4.32,0,3.3,3.3,0,0,1-.86-2.4Z"/><path class="cls-2" d="M103.93,59.37V75a5.85,5.85,0,0,1,0,.71,3.86,3.86,0,0,1-.69,1.76,3.21,3.21,0,0,1-4.08.13,4.39,4.39,0,0,1-1-1.84,8,8,0,0,1-2.59,2.07,7.09,7.09,0,0,1-3.14.69,9,9,0,0,1-7.08-3.25,12.08,12.08,0,0,1-2.87-8.31,12.29,12.29,0,0,1,2.91-8.34,9,9,0,0,1,7-3.35,7.83,7.83,0,0,1,3.2.68A6,6,0,0,1,98.16,58a2.71,2.71,0,0,1,1-1.83,2.88,2.88,0,0,1,1.93-.73,2.47,2.47,0,0,1,2.15.82,4.07,4.07,0,0,1,.69,1.78,6,6,0,0,1,0,.71v.59ZM88.5,66.89v.4a2.87,2.87,0,0,0,0,.39,7.48,7.48,0,0,0,1.32,3.64A3.86,3.86,0,0,0,93.27,73a3.71,3.71,0,0,0,3.3-1.67,7.56,7.56,0,0,0,1.3-3.64,1.84,1.84,0,0,0,0-.39v-.36c0-.14,0-.29,0-.44a3.7,3.7,0,0,1,0-.48,7.63,7.63,0,0,0-1.34-3.59,3.72,3.72,0,0,0-3.26-1.64,3.87,3.87,0,0,0-3.37,1.64A7.55,7.55,0,0,0,88.54,66a3.7,3.7,0,0,1,0,.48c0,.15,0,.3,0,.44Z"/><path class="cls-2" d="M107.27,74.87V58.45a2.65,2.65,0,0,1,.9-2.14,3.5,3.5,0,0,1,2-.84h.21a3.88,3.88,0,0,1,2.07.53,2.13,2.13,0,0,1,.85,2l.09,0a6.51,6.51,0,0,1,1.82-1.84,4.33,4.33,0,0,1,2.4-.63,3,3,0,0,1,2.93,3.23,1.8,1.8,0,0,1-.63,1.53,6.27,6.27,0,0,1-1.5.82l-.72.27-.75.31-.06,0s0,0-.06,0a16.29,16.29,0,0,0-2.41,1.43,2.92,2.92,0,0,0-1.11,2.55v9.22a3.45,3.45,0,0,1-.83,2.45,3.05,3.05,0,0,1-4.33,0,3.35,3.35,0,0,1-.86-2.41Z"/><path class="cls-2" d="M122.74,74.87V61h-1.33a2.39,2.39,0,0,1-1.91-.67,2.9,2.9,0,0,1,0-3.8,2.5,2.5,0,0,1,1.87-.75l1.33,0v-3.6a3.34,3.34,0,0,1,.86-2.38,3,3,0,0,1,4.33,0,3.44,3.44,0,0,1,.83,2.42v3.56h1.72a3.72,3.72,0,0,1,2,.62,2.83,2.83,0,0,1,0,4,3.47,3.47,0,0,1-2,.6h-1.72V74.87a3.43,3.43,0,0,1-.83,2.45,3.05,3.05,0,0,1-4.33,0,3.34,3.34,0,0,1-.86-2.4Z"/><path class="cls-2" d="M148.79,59.57a2.83,2.83,0,0,1-.69,1.9,2.2,2.2,0,0,1-1.78.82,2.75,2.75,0,0,1-1-.27c-.42-.18-.87-.38-1.34-.61l-.84-.35a6.45,6.45,0,0,0-.83-.32l-.67-.14a3.05,3.05,0,0,0-.67-.07,2.64,2.64,0,0,0-1.42.4,1.4,1.4,0,0,0-.63,1.28,1.3,1.3,0,0,0,.67,1.08,9.18,9.18,0,0,0,1.67.88l1.4.52c.49.19,1,.39,1.49.61a14.45,14.45,0,0,1,3.59,2.19,4.86,4.86,0,0,1,1.63,4,6.32,6.32,0,0,1-2.34,5,9.22,9.22,0,0,1-6.23,2,11.16,11.16,0,0,1-2.67-.33,12,12,0,0,1-4-1.59,3.21,3.21,0,0,1-1.78-2.68,2.49,2.49,0,0,1,.06-.5,1.45,1.45,0,0,1,.23-.54,3.37,3.37,0,0,1,.88-1.13,2.07,2.07,0,0,1,1.42-.5,3.52,3.52,0,0,1,1.34.23,7,7,0,0,1,1.13.56l.23.1a.82.82,0,0,0,.23.11,8.65,8.65,0,0,0,1.46.73,5,5,0,0,0,1.84.31,2.89,2.89,0,0,0,1.88-.44,1.57,1.57,0,0,0,.5-1.27,1.28,1.28,0,0,0-.64-1.07,10.15,10.15,0,0,0-1.66-.85l-1.4-.55-1.52-.58a14.21,14.21,0,0,1-3.6-2.22,4.93,4.93,0,0,1-1.63-4,6.35,6.35,0,0,1,2.3-5.08,8.73,8.73,0,0,1,5.85-1.94c.39,0,.8,0,1.22.06a8.76,8.76,0,0,1,1.29.23,9.69,9.69,0,0,1,3.45,1.4,3.06,3.06,0,0,1,1.57,2.65Z"/><path class="cls-2" d="M162.59,74.87V58.45a2.65,2.65,0,0,1,.9-2.14,3.47,3.47,0,0,1,2-.84h.21a3.88,3.88,0,0,1,2.07.53,2.14,2.14,0,0,1,.86,2l.08,0a6.51,6.51,0,0,1,1.82-1.84,4.33,4.33,0,0,1,2.4-.63,3,3,0,0,1,2,.8,3.05,3.05,0,0,1,.92,2.43,1.8,1.8,0,0,1-.63,1.53,6.27,6.27,0,0,1-1.5.82l-.71.27-.76.31-.06,0s0,0-.06,0a16.29,16.29,0,0,0-2.41,1.43,2.94,2.94,0,0,0-1.1,2.55v9.22a3.45,3.45,0,0,1-.84,2.45,3.05,3.05,0,0,1-4.33,0,3.35,3.35,0,0,1-.85-2.41Z"/><path class="cls-2" d="M176.59,69.67V58.78a3.36,3.36,0,0,1,.86-2.38,3,3,0,0,1,4.33,0,3.49,3.49,0,0,1,.83,2.43V69.56a3.63,3.63,0,0,0,1.19,2.93,4.15,4.15,0,0,0,5.4,0,3.59,3.59,0,0,0,1.19-2.89V58.79a3.32,3.32,0,0,1,.86-2.39,2.8,2.8,0,0,1,2.15-.93,2.77,2.77,0,0,1,2.17.93,3.45,3.45,0,0,1,.84,2.43V69.67a8.31,8.31,0,0,1-2.57,6.43c-1.72,1.58-4.16,2.37-7.34,2.37s-5.62-.79-7.34-2.37a8.24,8.24,0,0,1-2.57-6.38Z"/><path class="cls-2" d="M199.84,74.87V58.78a3.32,3.32,0,0,1,.86-2.38,2.79,2.79,0,0,1,2.15-.93,2.88,2.88,0,0,1,1.88.59,2.55,2.55,0,0,1,.88,1.63,5.5,5.5,0,0,1,2.28-1.84,8.61,8.61,0,0,1,3.53-.63,8.42,8.42,0,0,1,5.89,2.14,7.7,7.7,0,0,1,2.35,6V74.87a3.45,3.45,0,0,1-.84,2.45,3.05,3.05,0,0,1-4.33,0,3.34,3.34,0,0,1-.86-2.4V64.38a3.9,3.9,0,0,0-1.14-3.07,4,4,0,0,0-2.79-1,3.53,3.53,0,0,0-2.84,1.19,4.43,4.43,0,0,0-1,3V74.87a3.44,3.44,0,0,1-.84,2.45,3,3,0,0,1-4.32,0,3.31,3.31,0,0,1-.86-2.41Z"/><path class="cls-2" d="M223.08,74.87V58.78a3.36,3.36,0,0,1,.86-2.38,2.8,2.8,0,0,1,2.15-.93,2.86,2.86,0,0,1,1.88.59,2.5,2.5,0,0,1,.88,1.63,5.63,5.63,0,0,1,2.28-1.84,8.64,8.64,0,0,1,3.53-.63,8.44,8.44,0,0,1,5.9,2.14,7.69,7.69,0,0,1,2.34,6V74.87a3.45,3.45,0,0,1-.84,2.45,2.81,2.81,0,0,1-2.17.9,2.85,2.85,0,0,1-2.15-.9,3.34,3.34,0,0,1-.86-2.4V64.38a3.88,3.88,0,0,0-1.15-3.07,4,4,0,0,0-2.78-1,3.51,3.51,0,0,0-2.84,1.19,4.44,4.44,0,0,0-1,3V74.87a3.43,3.43,0,0,1-.83,2.45,3.05,3.05,0,0,1-4.33,0,3.35,3.35,0,0,1-.86-2.41Z"/><path class="cls-2" d="M249.26,46.44a3.48,3.48,0,0,1,2.36,1,3.11,3.11,0,0,1,1,2.32,3.41,3.41,0,0,1-1,2.44,3.25,3.25,0,0,1-4.77,0,3.34,3.34,0,0,1-1-2.42,3.15,3.15,0,0,1,1-2.3,3.29,3.29,0,0,1,2.37-1Zm-3,28.43V58.78a3.35,3.35,0,0,1,.85-2.38,3,3,0,0,1,4.33,0,3.45,3.45,0,0,1,.84,2.43v16a3.45,3.45,0,0,1-.84,2.45,3.05,3.05,0,0,1-4.33,0,3.35,3.35,0,0,1-.85-2.41Z"/><path class="cls-2" d="M255.61,74.87V58.78a3.36,3.36,0,0,1,.86-2.38,2.8,2.8,0,0,1,2.15-.93,2.86,2.86,0,0,1,1.88.59,2.5,2.5,0,0,1,.88,1.63,5.57,5.57,0,0,1,2.28-1.84,8.61,8.61,0,0,1,3.53-.63,8.44,8.44,0,0,1,5.9,2.14,7.69,7.69,0,0,1,2.34,6V74.87a3.45,3.45,0,0,1-.84,2.45,2.83,2.83,0,0,1-2.17.9,2.87,2.87,0,0,1-2.16-.9,3.34,3.34,0,0,1-.85-2.4V64.38a3.91,3.91,0,0,0-1.15-3.07,4,4,0,0,0-2.78-1,3.53,3.53,0,0,0-2.85,1.19,4.48,4.48,0,0,0-1,3V74.87a3.44,3.44,0,0,1-.84,2.45,2.81,2.81,0,0,1-2.17.9,2.85,2.85,0,0,1-2.15-.9,3.35,3.35,0,0,1-.86-2.41Z"/><path class="cls-2" d="M299.43,58.78V76.21c0,3.63-1.08,6.34-3.22,8.16a12.55,12.55,0,0,1-8.37,2.71,17.49,17.49,0,0,1-1.88-.14,18.8,18.8,0,0,1-2.42-.48A14.06,14.06,0,0,1,280,85a2.78,2.78,0,0,1-1.61-2.44,1.63,1.63,0,0,1,0-.36,3.59,3.59,0,0,1,.08-.35,3.29,3.29,0,0,1,.84-1.24,2.53,2.53,0,0,1,1.25-.69h.21a4.07,4.07,0,0,1,1.48.3c.52.19,1.08.41,1.7.66s1.27.44,2,.63a8.72,8.72,0,0,0,2.36.29A5.44,5.44,0,0,0,292,80.58a4.34,4.34,0,0,0,1.45-3.49V75.63h-.09a5.78,5.78,0,0,1-2.44,2.13,8.59,8.59,0,0,1-3.62.71,7.75,7.75,0,0,1-7-3.52A14.37,14.37,0,0,1,278,67a13.3,13.3,0,0,1,2.67-8.15,8.59,8.59,0,0,1,7.24-3.58l.6,0,.61.07a8,8,0,0,1,2.47.9A4.82,4.82,0,0,1,293.41,58a3.51,3.51,0,0,1,1-1.86,2.91,2.91,0,0,1,2-.65,2.79,2.79,0,0,1,2.17.93,3.45,3.45,0,0,1,.84,2.43Zm-6,8.23a3.93,3.93,0,0,0,0-.46c0-.16,0-.33,0-.5A7.77,7.77,0,0,0,292,62.44a3.81,3.81,0,0,0-3.35-1.66,3.76,3.76,0,0,0-3.2,1.57,7.55,7.55,0,0,0-1.4,3.45,4.35,4.35,0,0,0-.06.52,4.88,4.88,0,0,0,0,.53,7.88,7.88,0,0,0,1.17,4.28,4.28,4.28,0,0,0,7,.09,7.65,7.65,0,0,0,1.24-3.91V67Z"/><circle class="cls-3" cx="389.49" cy="68.54" r="54.8"/><path class="cls-4" d="M376.13,111.74a11.19,11.19,0,0,0-2.5,7.32,61.81,61.81,0,0,0,1.25,10.58s8.29,5.43,7.84,1.18,3.08-13.71,3.08-13.71Z"/><path class="cls-5" d="M390.63,138.34c-.94,2.18-5.13,3.49-9.33,1.79s-9.5-2.57-10.9-5.67c0,0,.85-6.53,4-7.32,0,0,.65,1.52,4.48,2.6s4.49-.9,4.49-.9,1.7,3.4,4.2,4.7S391.53,136.24,390.63,138.34Z"/><path class="cls-4" d="M400.18,113.45a25.91,25.91,0,0,0,4.89,7.78c3.18,3.3,8.62.37,7.44-3.77a35.41,35.41,0,0,1-1.18-8.51Z"/><path class="cls-5" d="M404.86,121.59a7.76,7.76,0,0,0,.27,4,15,15,0,0,0,2.67,4.2,7.55,7.55,0,0,0,4.88,0,60.45,60.45,0,0,0,9.65-4.37c2.49-1.5,3-6.77,0-8.8-2.17-1.47-4.36.74-5.59,1a17,17,0,0,1-4.23-.22A7.38,7.38,0,0,1,404.86,121.59Z"/><path class="cls-6" d="M398.24,51.79s.13,6.52,0,10.27l-9.06-2.32-.84-10.22Z"/><path class="cls-7" d="M418.42,35.31c1.28-2.68,3.58-5.59,2.92-12.9-.6-6.77-3.1-11.22-13.15-17.07-8-4.62-21.35-5.76-30.46,2.06-3,2.61-6.54,5-7.78,9.5C365,35.07,374.39,45.18,387,51.07c10.59,5,21.31,7.45,27.82,1a12.19,12.19,0,0,0,3.55-7.58,12.5,12.5,0,0,0-.24-3,3,3,0,0,0,1.93-1.14,3.28,3.28,0,0,0,.44-3.07A3.48,3.48,0,0,0,418.42,35.31Z"/><path class="cls-8" d="M388.32,47.35c0,3-4.17,5.34-5.55,5.63a3.75,3.75,0,0,0-.22-3c-.15.59-1,1.09-1.61,1.29.12-.92-.6-3.58-3.28-5.47-5-3.52-8.68-10.3-10-17.06-2.92-14.62,9.57-22,9.57-22s.61-4.3,12.87-6.32,19.06,3.72,22.54,6c2.21,1.47,6.55,1.16,8,.76a4,4,0,0,1-2.5,3.4,7.65,7.65,0,0,0,5.72-.35c-1.61,6-7,7.39-12.12,5.15A7.1,7.1,0,0,1,412.86,20c-2.43-3-6.11-2.25-8.16-2.28a11.36,11.36,0,0,1-6.13-2.14,7.38,7.38,0,0,1-.86,8c-1.34,1.74-2.66,2.06-4.39,3.41s-2.54,5.48-1.55,8C393,38.11,388.32,41.32,388.32,47.35Z"/><path class="cls-7" d="M389.64,45.88c2.61-1.43,2.62-11.46-2.82-14.35s-7.71,3.57-6.3,8S386,47.91,389.64,45.88Z"/><path class="cls-9" d="M387.52,44.82c2-.54,1.23-7.41-2.17-8.87-3.05-1.32-3.66.63-2.66,3.77S386.26,45.15,387.52,44.82Z"/><path class="cls-10" d="M417.94,40a.69.69,0,0,0-.18-.35.61.61,0,0,0-.15-.13.24.24,0,0,0-.09-.06,1,1,0,0,0-.41-.1.79.79,0,0,0-.4.1l.33,0a.49.49,0,0,0-.24,0,.45.45,0,0,0-.19.11s0,0,0,0a.42.42,0,0,0-.12.3V40a.39.39,0,0,0,.08.14.38.38,0,0,0,.22.15.39.39,0,0,0,.32,0h0l-.1,0a.5.5,0,0,0,.21-.12.4.4,0,0,0,.11-.2l-.19.26,0,0-.1,0,.12,0-.11,0h.12l-.11,0,.13,0-.1,0a.24.24,0,0,1,.11.06l-.08-.06.07.07-.06-.08a.2.2,0,0,1,0,.08l0-.1a.14.14,0,0,1,0,.06.46.46,0,0,0,.18.23.39.39,0,0,0,.3,0,.35.35,0,0,0,.23-.18l0-.09a.37.37,0,0,0,0-.21Z"/><path class="cls-11" d="M412.71,34.84l-.09-.14c.28-.39-.06-.93-.54-.67a1.9,1.9,0,0,0-1.22-.47,2.55,2.55,0,0,0-2.27,2.76,2.29,2.29,0,1,0,4.47.07,3.84,3.84,0,0,0-.08-.76A.43.43,0,0,0,412.71,34.84Z"/><path class="cls-4" d="M406.65,73s4.26.79,5.16.43,1.8-2.67,3.54-3.13,4.39-1.06,5.71.8,1.89,2.1,1.89,3.32-1.61,2.74-2.63,2.62-1.53,1.53-3,1.83a11.28,11.28,0,0,1-3.74-.22s-4.38,4-7.62,3.42S406.65,73,406.65,73Z"/><path class="cls-5" d="M378.69,82.42s6.95-7.68,7.19-11-1.2-3.79-.58-9.15c.83-7.2,10.36-8.07,15.07-4.23s8.54,10.9,7.67,17.47A66.92,66.92,0,0,1,404,89.73S385.88,87,378.69,82.42Z"/><path class="cls-12" d="M380.46,79.77s18.82,8.87,23.51,10a9.64,9.64,0,0,1,7.48,6.86c.83,2.7,2.42,13.5,2.42,13.5s-7.55,5.22-14.63,5.87l-1.39-3.82,1.21-.56a12.15,12.15,0,0,1-.19-4.09,2.24,2.24,0,0,1,1.3-1.68l-.28-2-5.4.38s-1.12,4-2.89,5.86-2.88,8.85-2.88,8.85-5.13.47-7.27-.46-8.11-4.1-9-6.71l3-3.54,1.22.47s2.32-3.26,2.51-4.2-.93-6.14-.93-6.14-3.73-3-3.17-9.13A13.74,13.74,0,0,1,380.46,79.77Z"/><path class="cls-4" d="M385.31,65.9s6.72-3.31,10.19.89l7.48-.48s3.27-2.91,5.19-3.25a7.68,7.68,0,0,1,4.51.82c1,.43,4.21-.87,4.6-.18s-1.19,1.66-3.1,2.41c0,0,3.73-.38,3.49.76-.16.72-2.36,2-5.32,2.14-1.64,1.25-3.58,2.87-6.63,3.31,0,0-9.19,6-16.93,5.14C384.9,74.1,385.31,65.9,385.31,65.9Z"/></g></g></svg>