<svg xmlns="http://www.w3.org/2000/svg" viewBox="0 0 79.72 196.39"><defs><style>.cls-1{fill:#fcd7d0;}.cls-2{fill:#7bc8be;}.cls-3{fill:#fabbad;}.cls-4{fill:#f8cdb2;}.cls-5{fill:#e59a36;}.cls-6{fill:#f16564;opacity:0.3;}.cls-7{fill:#dd8760;}.cls-8{fill:#8e6327;}.cls-9{fill:#ffe24c;}</style></defs><g id="Layer_2" data-name="Layer 2"><g id="Layer_1-2" data-name="Layer 1"><path class="cls-1" d="M12.46,155.74A15.63,15.63,0,0,0,9,165.94a86.29,86.29,0,0,0,1.74,14.74s11.55,7.58,10.93,1.65S26,163.22,26,163.22Z"/><path class="cls-2" d="M32.67,192.8c-1.3,3-7.15,4.88-13,2.51S6.43,191.72,4.48,187.4c0,0,1.18-9.09,5.6-10.2,0,0,.91,2.12,6.24,3.63s6.27-1.26,6.27-1.26,2.37,4.74,5.85,6.55S33.93,189.88,32.67,192.8Z"/><path class="cls-1" d="M46,158.12A36.37,36.37,0,0,0,52.79,169c4.44,4.61,12,.52,10.38-5.24a49.33,49.33,0,0,1-1.65-11.87Z"/><path class="cls-2" d="M52.51,169.47a10.7,10.7,0,0,0,.37,5.64A21,21,0,0,0,56.6,181a10.5,10.5,0,0,0,6.81,0,83,83,0,0,0,13.44-6.09c3.48-2.09,4.15-9.43,0-12.26-3-2.06-6.07,1-7.78,1.41s-5.9-.3-5.9-.3S60.14,170.51,52.51,169.47Z"/><path class="cls-3" d="M43.28,72.18s.19,9.08,0,14.31L30.66,83.26,29.48,69Z"/><path class="cls-4" d="M71.4,49.21c1.78-3.73,5-7.79,4.08-18-.84-9.43-4.33-15.64-18.34-23.79C46.05,1,27.4-.58,14.69,10.32,10.46,14,5.57,17.23,3.86,23.56-3,48.88,10,63,27.61,71.18c14.76,6.89,29.7,10.38,38.77,1.43a17.08,17.08,0,0,0,5-10.57A17.08,17.08,0,0,0,71,57.82a4.29,4.29,0,0,0,2.69-1.59,4.61,4.61,0,0,0,.62-4.29A4.89,4.89,0,0,0,71.4,49.21Z"/><path class="cls-5" d="M29.46,66c0,4.19-5.81,7.45-7.74,7.85a5.16,5.16,0,0,0-.31-4.21c-.21.82-1.44,1.52-2.24,1.8.17-1.28-.84-5-4.57-7.63C7.67,58.89,2.49,49.45.62,40-3.45,19.65,14,9.41,14,9.41s.84-6,17.94-8.82S58.46,5.79,63.31,9c3.08,2.05,9.12,1.61,11.13,1.06A5.57,5.57,0,0,1,71,14.81c3.15.87,4.77.7,8-.5-2.24,8.39-9.74,10.3-16.9,7.18,1.22,1.42,1.84,4.52,1.63,6.38-3.4-4.18-8.52-3.15-11.38-3.19a15.89,15.89,0,0,1-8.54-3,10.32,10.32,0,0,1-1.2,11.13c-1.86,2.42-3.7,2.86-6.12,4.74s-3.54,7.65-2.16,11.17C36,53.12,29.46,57.59,29.46,66Z"/><path class="cls-4" d="M31.29,64c3.64-2,3.65-16-3.92-20s-10.75,5-8.78,11.16S26.16,66.77,31.29,64Z"/><path class="cls-6" d="M28.35,62.47c2.82-.75,1.7-10.33-3-12.37-4.26-1.84-5.1.89-3.71,5.26S26.58,62.93,28.35,62.47Z"/><path class="cls-7" d="M70.74,55.76a1,1,0,0,0-.25-.49,1.18,1.18,0,0,0-.21-.18L70.15,55a1.4,1.4,0,0,0-.56-.14A1.13,1.13,0,0,0,69,55l.46-.06a.62.62,0,0,0-.33,0,.56.56,0,0,0-.27.15l0,0a.61.61,0,0,0-.17.42l0,.16a.54.54,0,0,0,.1.2.66.66,0,0,0,.31.21.64.64,0,0,0,.45-.06l0,0-.14.06a.85.85,0,0,0,.29-.17.61.61,0,0,0,.16-.28l-.27.36.06,0-.14.06a.48.48,0,0,1,.17,0l-.16,0h.17l-.15,0,.18,0L69.61,56l.15.09L69.64,56a.47.47,0,0,1,.1.1L69.66,56a.39.39,0,0,1,.06.11l0-.13a.19.19,0,0,1,0,.07.64.64,0,0,0,.25.33.52.52,0,0,0,.42,0,.55.55,0,0,0,.33-.25l0-.13a.48.48,0,0,0,0-.29Z"/><path class="cls-8" d="M63.44,48.56a2,2,0,0,0-.11-.2c.39-.54-.09-1.3-.76-.93a2.75,2.75,0,0,0-1.69-.66c-1.73,0-3.15,1.7-3.18,3.85s1.33,3.92,3,3.94,3.15-1.69,3.18-3.84a4.59,4.59,0,0,0-.11-1.06A.6.6,0,0,0,63.44,48.56Z"/><path class="cls-1" d="M55,101.69s5.94,1.1,7.19.6,2.51-3.72,4.94-4.37,6.12-1.47,8,1.13,2.63,2.92,2.63,4.61-2.25,3.83-3.67,3.66-2.13,2.12-4.13,2.54a15.78,15.78,0,0,1-5.22-.3s-6.1,5.61-10.62,4.77S55,101.69,55,101.69Z"/><path class="cls-2" d="M16,114.87s9.68-10.7,10-15.36-1.68-5.28-.82-12.75c1.16-10,14.44-11.24,21-5.89s11.91,15.19,10.7,24.34-5.68,19.85-5.68,19.85S26.05,121.26,16,114.87Z"/><path class="cls-9" d="M18.5,111.18s26.23,12.36,32.76,13.88a13.4,13.4,0,0,1,10.42,9.56c1.17,3.76,3.38,18.82,3.38,18.82s-10.52,7.27-20.38,8.18l-2-5.32,1.69-.78s-.78-3.76-.26-5.71A3.13,3.13,0,0,1,46,147.47l-.38-2.73-7.54.52s-1.55,5.59-4,8.18-4,12.34-4,12.34-7.14.65-10.12-.65-11.3-5.71-12.6-9.35l4.16-4.93,1.69.65s3.24-4.55,3.5-5.85-1.3-8.57-1.3-8.57-5.19-4.15-4.41-12.72A19.14,19.14,0,0,1,18.5,111.18Z"/><path class="cls-1" d="M25.26,91.85s9.36-4.62,14.2,1.24l10.42-.67s4.57-4.06,7.23-4.53A10.73,10.73,0,0,1,63.41,89c1.34.59,5.86-1.22,6.4-.26s-1.65,2.32-4.32,3.36c0,0,5.21-.53,4.86,1-.21,1-3.28,2.75-7.41,3-2.28,1.74-5,4-9.23,4.62,0,0-12.82,8.38-23.6,7.17C24.69,103.28,25.26,91.85,25.26,91.85Z"/></g></g></svg>