<svg xmlns="http://www.w3.org/2000/svg" xmlns:xlink="http://www.w3.org/1999/xlink" viewBox="0 0 90.2 122.13"><defs><style>.cls-1{fill:#e59a36;}.cls-2{fill:#f8cdb2;}.cls-3{fill:#fff;}.cls-4{fill:#7bc8be;}.cls-5{fill:#28a1c9;}.cls-6{fill:#fbc4b4;}.cls-7{fill:#f9b2a6;}.cls-8{clip-path:url(#clip-path);}.cls-9{fill:#c28530;}.cls-10{fill:#dd8760;}.cls-11{fill:#8e6327;}</style><clipPath id="clip-path" transform="translate(0 1.42)"><path class="cls-1" d="M39,0s3.07,14.11-10.62,26.79-22,9.42-25,1.32c-2-5.52,2.22-14.35,10.72-16.49C25.32,8.81,36.05,4.13,39,0Z"/></clipPath></defs><g id="Layer_2" data-name="Layer 2"><g id="Layer_1-2" data-name="Layer 1"><path class="cls-2" d="M57.74,112.32a13.81,13.81,0,0,0,11.07-4.25,9.28,9.28,0,0,0,1.6,4.31s-1.6,2.76.63,4.54,13.52.66,14.69,0c0,0,1.63.6,2.35,0,.91-.82.94-1.67-.23-2.53a1.89,1.89,0,0,0,2.07-1c.54-1.3-1.33-1.75-1.33-1.75A1.43,1.43,0,0,0,90.2,110c0-1.6-1.77-1.57-1.77-1.57s2.76-1.26,1.37-2.87-3.3.52-3.3.52a3.83,3.83,0,0,0-3,.32s.76-8.32-2.67-11.3-11.68-3.73-19.49.3S52.26,113,57.74,112.32Z" transform="translate(0 1.42)"/><path class="cls-2" d="M59.74,77.16s7.48-3.74,10-7.68a29.07,29.07,0,0,0,3.54-8.66s3.94-.09,5.31-5.41c0,0,1.78,1.18,3.15,0s.3-3.94-1-4.13c0,0,.79-3.3-2.66-2.93,0,0,.89-2.6-2.26-2.25,0,0,1.57-5-.89-5.35s-2.8,3.63-3.91,5.7-4.16,4.28-3.47,9.72c0,0-3.44,5.24-5,6.23S52,66.83,52,66.83Z" transform="translate(0 1.42)"/><path class="cls-3" d="M62.22,96.29s.71,10.42-5.8,15.74-16.35-3.31-20.24-9.82S62.22,96.29,62.22,96.29Z" transform="translate(0 1.42)"/><path class="cls-4" d="M36.18,70.05a18.17,18.17,0,0,0-13.1,13.24s6.48,2.64,8.2,7.93a16.75,16.75,0,0,1-.4,10.44,37.09,37.09,0,0,0,18.65,1.72c10.44-1.72,14.8-5.95,14.8-5.95s-.92-11.23-5.81-17.84l3.7-2.25S60.76,69.54,52,65A22.84,22.84,0,0,1,36.18,70.05Z" transform="translate(0 1.42)"/><path class="cls-5" d="M23.48,83.2a3,3,0,0,1,1.33-.64,4.87,4.87,0,0,1,.76-.15,2.42,2.42,0,0,1,.66,0,.23.23,0,1,0,0-.44,13.36,13.36,0,0,0-1.56.26,3.38,3.38,0,0,0-1.44.75.18.18,0,0,0,.25.25Z" transform="translate(0 1.42)"/><path class="cls-6" d="M36.18,71.54a8.56,8.56,0,0,0,8.54,4.68c6-.68,4.38-7.87,4.38-7.87Z" transform="translate(0 1.42)"/><path class="cls-2" d="M31.56,97.49s-10.89,5.17-10.45,11.77,10,11.33,17.93,11.44,12.43-1.54,12.43-1.54a15.92,15.92,0,0,0,5,.71c1.87-.22,4.49-1.37,4.82-4.23s-1.65-3.3-2.2-4.07-1.76-3.41-2.86-3.41c0,0,.11-2.75-2.09-2.86s-3,2.33-2.64,3.81l-15.29-1.17Z" transform="translate(0 1.42)"/><path class="cls-2" d="M35.29,86.58,34.14,91s3.75,1.83,5.87,10.3a54.86,54.86,0,0,0,3.69,4.47c1,.9,4.12,1.64,4,3s-4,1-4,1,1.25,6.15-.39,6.39-1.9-3.74-1.9-3.74-.14,4.56-1.7,4.56-1.3-4.63-1.3-4.63-.95,4-2.06,3.73c-1.82-.46-.86-4.73-.86-4.73s-2.32,4-3.4,3.09c-1.52-1.23,1.47-5.49,1.47-5.49a7.78,7.78,0,0,1-.73-5S26.35,98.49,25.13,93a24.79,24.79,0,0,1,.49-11.14A14,14,0,0,1,35.29,86.58Z" transform="translate(0 1.42)"/><path class="cls-7" d="M47.68,108.67a.07.07,0,0,0-.09,0h0a1,1,0,0,1-.73.56,5.73,5.73,0,0,1-1,.18c-.7.07-1.41.09-2.13.17h0a.08.08,0,0,0-.07.1c.12.93.21,1.87.27,2.8a9.14,9.14,0,0,1-.15,2.73,1,1,0,0,1-.27.49.53.53,0,0,1-.44.1,1.44,1.44,0,0,1-.81-.83,11,11,0,0,1-.77-2.66h0a.06.06,0,0,0-.11,0h0a19.22,19.22,0,0,1-.43,2.52,6.5,6.5,0,0,1-.42,1.17c-.18.35-.46.67-.78.67s-.58-.31-.73-.67a5.3,5.3,0,0,1-.32-1.2,19.79,19.79,0,0,1-.22-2.55h0a.08.08,0,0,0,0,0,.05.05,0,0,0,0,0h0c-.27.76-.54,1.52-.88,2.24a5,5,0,0,1-.58,1,.92.92,0,0,1-.37.29.37.37,0,0,1-.18,0l-.23-.09a1.49,1.49,0,0,1-.56-.87,4.76,4.76,0,0,1-.17-1.15,14.66,14.66,0,0,1,.12-2.38h0a0,0,0,0,0,0,0s0,0,0,0a19.67,19.67,0,0,1-1.68,2.15,3.84,3.84,0,0,1-1,.82c-.38.22-.68,0-.84-.39a3.83,3.83,0,0,1,.42-2.5,18.41,18.41,0,0,1,1.28-2.4h0a.07.07,0,0,0,0-.09h0a6.34,6.34,0,0,1-.59-2.43,10.91,10.91,0,0,1,.17-2.49h0a.38.38,0,0,0-.15-.34c-.84-.7-1.67-1.47-2.45-2.26a32.77,32.77,0,0,1-2.22-2.5A16.38,16.38,0,0,1,25.26,93h0a.14.14,0,0,0-.16-.1A.14.14,0,0,0,25,93a16.71,16.71,0,0,0,3,6.1,32.11,32.11,0,0,0,2.16,2.63c.73.79,1.48,1.55,2.29,2.28a10.42,10.42,0,0,0,.14,2.43,6.61,6.61,0,0,0,.89,2.42,14.74,14.74,0,0,0-1.4,2.32,7.42,7.42,0,0,0-.48,1.32,2.69,2.69,0,0,0,0,1.46,1,1,0,0,0,.2.34.81.81,0,0,0,.74.35,1.42,1.42,0,0,0,.38-.13,4,4,0,0,0,1.09-.93,13.31,13.31,0,0,0,1.37-2.05,8.91,8.91,0,0,0-.31,2.13A4.47,4.47,0,0,0,35.2,115a1.85,1.85,0,0,0,.72,1.12l.33.14a.85.85,0,0,0,.42,0,1.2,1.2,0,0,0,.56-.44,4.45,4.45,0,0,0,.6-1.11,10.68,10.68,0,0,0,.51-1.84,11,11,0,0,0,0,2.07,4.61,4.61,0,0,0,.29,1.3,2,2,0,0,0,.37.61c.07.1.21.15.31.23a1.79,1.79,0,0,0,.4.09,1.41,1.41,0,0,0,1.1-.9,4.6,4.6,0,0,0,.41-1.27,12.7,12.7,0,0,0,.19-1.36,6.66,6.66,0,0,0,.4,1.61,1.81,1.81,0,0,0,1.1,1.13,1.7,1.7,0,0,0,.45,0,.86.86,0,0,0,.43-.23,1.43,1.43,0,0,0,.41-.72,8.12,8.12,0,0,0,.08-2.9,20.21,20.21,0,0,0-.49-2.69,5.81,5.81,0,0,0,2.08.1,3.66,3.66,0,0,0,1.1-.29,1.09,1.09,0,0,0,.73-.88A.08.08,0,0,0,47.68,108.67Z" transform="translate(0 1.42)"/><path class="cls-2" d="M56.67,36.91C58.77,38.8,62,40.66,63.16,47S58.92,68.58,41.5,72.44,12.12,68.36,4.87,55.56,2.14,23.66,18.9,16C32.24,9.81,43.18,13.56,49,21.73,53.64,28.15,54.4,34.85,56.67,36.91Z" transform="translate(0 1.42)"/><path class="cls-2" d="M17.46,67.71C19.67,64.54,13.93,52.88,6,52.64S-1,61.21,3.22,65.55,14.34,72.18,17.46,67.71Z" transform="translate(0 1.42)"/><path class="cls-1" d="M39,0s3.07,14.11-10.62,26.79-22,9.42-25,1.32c-2-5.52,2.22-14.35,10.72-16.49C25.32,8.81,36.05,4.13,39,0Z" transform="translate(0 1.42)"/><g class="cls-8"><path class="cls-9" d="M28.84,20.43a30.77,30.77,0,0,1-10.43,7.66.39.39,0,0,1-.52-.2.4.4,0,0,1,.2-.52c16-7,20.46-27.25,20.51-27.45a.39.39,0,0,1,.47-.31.4.4,0,0,1,.3.47C39.34.24,36.82,11.63,28.84,20.43Z" transform="translate(0 1.42)"/><path class="cls-9" d="M34.25,6.67C22.9,19.19,9.88,21.89,9.72,21.92a.39.39,0,1,1-.15-.77c.18,0,17.79-3.7,29.73-22.39a.4.4,0,0,1,.55-.12A.4.4,0,0,1,40-.82,56.59,56.59,0,0,1,34.25,6.67Z" transform="translate(0 1.42)"/></g><path class="cls-10" d="M38.69,45.46a3.21,3.21,0,0,1,3.52,1.42,2.6,2.6,0,0,1-.56,3.23c-.26.23-.65.4-.66.8s.47.61.84.5a2.91,2.91,0,0,0,1.46-1.51,3.63,3.63,0,0,0-.52-3.78,3.72,3.72,0,0,0-4.2-1.1.23.23,0,0,0,.12.44Z" transform="translate(0 1.42)"/><path class="cls-10" d="M47.56,53.88c-.42,2.26-2.92,3.32-4.88,3.92a18.49,18.49,0,0,1-3.54.7,5.86,5.86,0,0,1-1.62,0c-.5-.08-1.11-.51-1.59-.24a.4.4,0,0,0-.18.33c.06.68.92.85,1.45,1a9.94,9.94,0,0,0,1.86.47,8.32,8.32,0,0,0,4.33-.48c2.4-.92,4.62-2.91,4.73-5.64,0-.32-.5-.4-.56-.08Z" transform="translate(0 1.42)"/><path class="cls-11" d="M28.73,48.66c.22-.22-.08-1.28-.8-.94a.71.71,0,0,0-1.24-.43,2,2,0,0,0-1.29.15c-1.28.6-1.71,2.38-1,4s2.39,2.41,3.67,1.81,1.71-2.38,1-4A3.12,3.12,0,0,0,28.73,48.66Z" transform="translate(0 1.42)"/><path class="cls-11" d="M50.72,39c.22-.22-.08-1.28-.8-.94a.71.71,0,0,0-1.24-.44,2.2,2.2,0,0,0-1.29.15c-1.28.6-1.71,2.39-1,4s2.39,2.41,3.68,1.81,1.71-2.38,1-4A3.82,3.82,0,0,0,50.72,39Z" transform="translate(0 1.42)"/></g></g></svg>