<svg xmlns="http://www.w3.org/2000/svg" viewBox="0 0 124.13 179.33"><defs><style>.cls-1{fill:#f8cdb2;}.cls-2{fill:#7bc8be;}.cls-3{fill:#ffe24c;}.cls-4{fill:#fff;}.cls-5{fill:#00a0b9;}.cls-6{fill:#e59a36;}.cls-7{fill:#dd8760;}.cls-8{fill:#8e6327;}</style></defs><g id="Layer_2" data-name="Layer 2"><g id="Layer_1-2" data-name="Layer 1"><path class="cls-1" d="M103.5,64.82l3.72-3.72a8.83,8.83,0,0,1,5.31-8.5c6.58-3,14.38,7.36,10.62,14.87a7.92,7.92,0,0,1-9.56,4.25l-5.31,3.72Z"/><path class="cls-1" d="M20.63,64.82,16.92,61.1a8.83,8.83,0,0,0-5.32-8.5C5,49.61-2.78,60,1,67.47a7.92,7.92,0,0,0,9.56,4.25l5.31,3.72Z"/><polygon class="cls-1" points="83.84 162.03 82.63 170 68.79 170 68.67 161.85 83.84 162.03"/><path class="cls-2" d="M82.61,167.87s10.89,6,8.41,9.56-20.81,1.42-22.58-.71.53-7.79.53-7.79Z"/><polygon class="cls-1" points="31.91 162.03 33.13 170 46.97 170 47.08 161.85 31.91 162.03"/><path class="cls-2" d="M33.15,167.87s-10.89,6-8.41,9.56,20.81,1.42,22.58-.71-.53-7.79-.53-7.79Z"/><path class="cls-3" d="M87,122.72s0,28.15-2.13,39.31H67.38s-1.6-23.38-8.5-23.38-9.7,23.91-9.7,23.91H29.8l2-40.9Z"/><path class="cls-2" d="M78,75.44l26-12.75,7.44,12.22-26,22.31,4.78,27.09s-31.34,6.38-61.62,0L35,96.16,10.54,76.5,20.1,63.23l25,12.21Z"/><path class="cls-4" d="M77.57,71.7c5.09,7.13,11.76,32.13-17.6,31.92S40.1,77.55,43.8,72.68Z"/><path class="cls-5" d="M60.34,104.5H60c-10.2-.07-16.87-3.17-19.84-9.22-4.09-8.32.41-19.76,3-23.13a.91.91,0,0,1,.68-.35l33.76-1a.93.93,0,0,1,.75.37c3.53,5,6.84,16,2.71,23.93C77.77,101.34,70.82,104.5,60.34,104.5ZM44.26,73.55c-2.33,3.4-6.12,13.69-2.55,21,2.65,5.39,8.8,8.16,18.27,8.23,10,.09,16.52-2.77,19.46-8.43,3.8-7.33.47-17.48-2.32-21.72Z"/><path class="cls-6" d="M67.48,1.71S56.86-2.82,40.34,2.88C18.62,10.37,13.4,33.41,20.86,50.48,27.18,64.93,35.17,67,35.17,67s49.55.46,54.78-1.86c11.22-5,16-28.25,8.5-42.63S67.48,1.71,67.48,1.71Z"/><path class="cls-1" d="M64.31,8.42c17,1.27,26.42,10.4,31,23.84a27.33,27.33,0,0,1-2.62,23.49s7.93,20.87-31.87,20.75-29.7-23.09-29.7-23.09A25.64,25.64,0,0,1,31,28.33C39.41,13.13,56.23,7.81,64.31,8.42Z"/><path class="cls-1" d="M30.4,42.18C24.62,40.39,20,44.3,21.13,50.86c.95,5.34,10,9,10,9L34,52.35Z"/><path class="cls-1" d="M94.37,41.72c5.75-1.87,10.47,2,9.4,8.54-.87,5.36-9.89,9.1-9.89,9.1L91,51.94Z"/><path class="cls-7" d="M65.41,55.22a.65.65,0,0,1-.63-.49c-.19-.69-1-2.65-2.1-2.65h0c-1.22,0-2.3,1.62-2.61,2.24a.66.66,0,1,1-1.18-.59c.06-.12,1.49-2.94,3.78-3h0c2.37,0,3.33,3.48,3.37,3.63a.66.66,0,0,1-.46.81Z"/><path class="cls-8" d="M78.34,46.86a3.22,3.22,0,0,0-3.18-1.47c-2.45.23-3.64,2.78-3.55,5.18.09,2.23,1.26,4.49,3.68,4.53h0a3.45,3.45,0,0,0,3-2A6.53,6.53,0,0,0,78.34,46.86Z"/><path class="cls-8" d="M49.41,46c-2.45.23-3.64,2.78-3.55,5.18.09,2.23,1.26,4.49,3.68,4.53h.05a3.45,3.45,0,0,0,3-2,6.53,6.53,0,0,0,0-6.25A3.21,3.21,0,0,0,49.41,46Z"/><path class="cls-7" d="M61.88,66c-5.68,0-7.67-6.14-7.69-6.2a.66.66,0,1,1,1.26-.4c.07.22,1.73,5.28,6.43,5.28h.17c5.31-.14,6.8-5.69,6.82-5.75a.66.66,0,0,1,1.27.33c0,.07-1.76,6.58-8.06,6.74Z"/><path class="cls-6" d="M63.81,1.73a31.53,31.53,0,0,1,24.5,4.72c14,9.2,15.07,20.44,13.6,20.94s-10.57-8.24-10.57-8.24S103.9,31.78,97.16,46c-.51,1.07-2-10.75-4-12.21-6.44-4.76-18-16-18-16s3.23,6.82.79,8.06S54.86,15.5,54.86,15.5,43.75,35.64,39.35,35.67s-4.44-5.35-4.44-5.35l-4.34,8.84-.92,9.05a23.61,23.61,0,0,1-3.77-14.89C26.79,25,38.11-.53,63.81,1.73Z"/></g></g></svg>