<svg xmlns="http://www.w3.org/2000/svg" xmlns:xlink="http://www.w3.org/1999/xlink" viewBox="0 0 127.95 106.81"><defs><style>.cls-1{fill:#e59a36;}.cls-2{fill:#f8cdb2;}.cls-3{fill:#7bc8be;}.cls-4{fill:#41ab99;}.cls-5{fill:#fff;}.cls-6{fill:#00a0b9;}.cls-7{fill:#dd8760;}.cls-8{fill:#8e6327;}.cls-9{clip-path:url(#clip-path);}.cls-10{fill:#c28530;}</style><clipPath id="clip-path"><path class="cls-1" d="M116.54,13.53S107.9,25.64,88.73,24,66.29,13.67,70.44,5.83c2.83-5.35,12.5-8.25,20-3.24C100.36,9.2,111.36,14.15,116.54,13.53Z"/></clipPath></defs><g id="Layer_2" data-name="Layer 2"><g id="Layer_1-2" data-name="Layer 1"><path class="cls-2" d="M117.1,92.89c5.25-3.82,14,1.06,9.7,6.38S114,100.69,114,100.69Z"/><path class="cls-2" d="M13,101.9l-4.15-1.33s-6.72,3.29-8.62.3S8.39,89,11.32,89.8a8.93,8.93,0,0,1,4.6,3.3Z"/><path class="cls-3" d="M103.36,80.1c3.15,2,16,11.69,16,11.69l-4.16,9.51S100.49,98,90.74,93.6Z"/><path class="cls-3" d="M70.06,83c0,.74-7.39,10.9-7.39,10.9L68.29,96l-2.66,8.56s-15.51.13-18.15-3.13,2.34-15.7,2.34-15.7.67-8.11,9.77-7.65S70.06,83,70.06,83Z"/><path class="cls-3" d="M50.92,59,39,63.36s-11.18-1.29-17.2,2.23c-6.49,3.79-9.73,9.29-8.88,18.34.38,3.95,3.27,7.95,3.27,7.95a11,11,0,0,0-3.19,10s12.91,6.2,20.82,4.66,9.76-6.91,10.08-10.35l50.24-.81-9-27.29Z"/><path class="cls-2" d="M67.05,96.5c5.25-3.82,14,1.06,9.69,6.37s-12.83,1.43-12.83,1.43Z"/><path class="cls-4" d="M43.91,96.62h0a.4.4,0,0,1-.36-.44c0-.09.81-8.5-6.89-15.83a.4.4,0,0,1,0-.57.41.41,0,0,1,.57,0c8,7.62,7.15,16.42,7.14,16.5A.41.41,0,0,1,43.91,96.62Z"/><path class="cls-5" d="M101.12,70.45c6.27,5.56,13.5,23-8.69,24.66s-28.54-11.24-25-24.45Z"/><path class="cls-6" d="M88.65,96.08c-8.6,0-15.14-2.44-19-7.13s-4.94-11.22-3-18.5a.81.81,0,0,1,.78-.61l33.73-.2h0a.82.82,0,0,1,.54.2c3.71,3.29,8.2,11.15,6,17.55-1.16,3.45-4.74,7.73-15.22,8.53C91.17,96,89.89,96.08,88.65,96.08ZM68,71.47C66.45,78,67.44,83.8,70.86,87.91,75,92.85,82.41,95.06,92.37,94.3c7.59-.58,12.36-3.15,13.8-7.43,1.79-5.34-1.9-12.38-5.36-15.6Z"/><path class="cls-7" d="M114,61.84h-.11a.61.61,0,0,1-.49-.71c.88-4.82-1.15-7.48-1.17-7.5a.61.61,0,0,1-.12-.5l1.67-8.49a.61.61,0,1,1,1.2.23l-1.62,8.24a11.38,11.38,0,0,1,1.24,8.24A.61.61,0,0,1,114,61.84Z"/><path class="cls-2" d="M74.37,6.41c17.25,0,32.88,4.35,39.45,18.63,4.81,10.49-.61,26.34-.61,26.34s5.48,7.8-3.56,15.5S78.41,75,67.2,71.89C53.75,68.13,49.51,60,46.45,53.92s-4.48-23,2.82-33.48C55.51,11.47,65,6.43,74.37,6.41Z"/><path class="cls-2" d="M50.72,49.93c-3.6-4-9.78-2.94-9.71,4.94S49.55,69,55,65.53C57.29,64.11,50.72,49.93,50.72,49.93Z"/><path class="cls-2" d="M114.35,44.74c4-1.87,7.31,3.13,6,8.51a13.63,13.63,0,0,1-6.34,8l-2.51-8.43Z"/><path class="cls-7" d="M83.87,54l-.16,0a.62.62,0,0,1-.43-.76c0-.13,1-3.35,3.82-3.57,1.57-.13,3,2.35,3.23,2.85a.61.61,0,0,1-1.07.57c-.58-1.07-1.6-2.22-2.07-2.2-2,.16-2.72,2.65-2.73,2.68A.61.61,0,0,1,83.87,54Z"/><path class="cls-7" d="M85.71,64.39C80,64.39,78,58.19,78,58.13a.61.61,0,0,1,1.16-.36c.07.22,1.73,5.4,6.53,5.4h.13c5.38-.1,6.93-5.72,7-5.77a.6.6,0,0,1,.74-.44.62.62,0,0,1,.44.75c0,.07-1.81,6.56-8.11,6.68Z"/><path class="cls-8" d="M101.27,44.58a3.22,3.22,0,0,0-3.16-1.5c-2.46.22-3.66,2.76-3.59,5.16.08,2.23,1.23,4.5,3.64,4.56h.08a3.45,3.45,0,0,0,3-2A6.59,6.59,0,0,0,101.27,44.58Z"/><path class="cls-8" d="M73.46,44.48c-2.46.22-3.66,2.76-3.58,5.16.07,2.23,1.22,4.51,3.64,4.56h.07a3.42,3.42,0,0,0,3-2,6.58,6.58,0,0,0,0-6.26A3.24,3.24,0,0,0,73.46,44.48Z"/><path class="cls-1" d="M116.54,13.53S107.9,25.64,88.73,24,66.29,13.67,70.44,5.83c2.83-5.35,12.5-8.25,20-3.24C100.36,9.2,111.36,14.15,116.54,13.53Z"/><g class="cls-9"><path class="cls-10" d="M93.92,19.93a31.79,31.79,0,0,1-13.07-2.66.41.41,0,0,1,.34-.74c16.42,7.35,35-3.24,35.15-3.35a.41.41,0,0,1,.41.7C116.61,14,106.17,19.93,93.92,19.93Z"/><path class="cls-10" d="M108.17,14.54c-17.41,0-28.49-8.08-28.62-8.17A.41.41,0,1,1,80,5.72c.14.11,15.14,11,37.67,7.19a.42.42,0,0,1,.47.34.41.41,0,0,1-.33.47A58.56,58.56,0,0,1,108.17,14.54Z"/></g><path class="cls-4" d="M67,96.9a.39.39,0,0,1-.18,0l-5.51-2.75a.4.4,0,0,1-.19-.53l3.11-7.15a.42.42,0,0,1,.54-.21.41.41,0,0,1,.21.54l-3,6.79,5.17,2.58a.41.41,0,0,1-.19.77Z"/><path class="cls-4" d="M47.05,95.79H47a.42.42,0,0,1-.32-.48l3.32-16a.41.41,0,0,1,.49-.31.4.4,0,0,1,.31.48l-3.32,16A.41.41,0,0,1,47.05,95.79Z"/></g></g></svg>