<svg xmlns="http://www.w3.org/2000/svg" xmlns:xlink="http://www.w3.org/1999/xlink" viewBox="0 0 85.82 134.92"><defs><style>.cls-1{fill:none;}.cls-2{isolation:isolate;}.cls-3{fill:#7bc8be;}.cls-4{fill:#855838;}.cls-5{mix-blend-mode:multiply;}.cls-6{clip-path:url(#clip-path);}.cls-7{fill:#d2d6d5;}.cls-8{clip-path:url(#clip-path-2);}.cls-9{fill:#6eb4ab;}.cls-10{fill:#f8cdb2;}.cls-11{opacity:0.5;}.cls-12{clip-path:url(#clip-path-3);}.cls-13{fill:#dd8760;}.cls-14{fill:#e59a36;}.cls-15{fill:#8e6327;}.cls-16{fill:#b0754c;}.cls-17{clip-path:url(#clip-path-4);}</style><clipPath id="clip-path"><rect class="cls-1" x="24.03" y="108.01" width="58.53" height="5.55"/></clipPath><clipPath id="clip-path-2"><rect class="cls-1" x="76.32" y="48.98" width="9.45" height="58.55"/></clipPath><clipPath id="clip-path-3"><rect class="cls-1" x="35.86" y="37.5" width="29.82" height="18.39"/></clipPath><clipPath id="clip-path-4"><rect class="cls-1" x="20.22" y="76.94" width="58.53" height="3.34"/></clipPath></defs><g class="cls-2"><g id="Layer_2" data-name="Layer 2"><g id="Layer_1-2" data-name="Layer 1"><path class="cls-3" d="M25.38,116.83c2.66,5.54-3.87,7.67-9,9.11a27.71,27.71,0,0,1-5.79,1.1l-.8.08a2.51,2.51,0,0,1-.9.43c-1.07.29-2.13,0-2.38-.75a1.36,1.36,0,0,1,0-.17,1.71,1.71,0,0,1-1.78-.85c-.12-.33-1-1.35-1.23-1.84-.1-.28-1-1.22-1.18-1.67s-.58-2.22-.75-2.88c-.25-1,.75-2,2.23-2.25a4,4,0,0,1,1.93.13,29.64,29.64,0,0,1,6.54-1.33c5.43-.61,11.9-1.81,13.2.89"/><path class="cls-4" d="M79.25,113.57H27.32a3.31,3.31,0,0,1-3.29-3.3V95.13a3.3,3.3,0,0,1,3.29-3.3H79.25a3.3,3.3,0,0,1,3.3,3.3v15.14a3.31,3.31,0,0,1-3.3,3.3"/><g class="cls-5"><g class="cls-6"><path class="cls-7" d="M79.26,111.32H27.32A3.31,3.31,0,0,1,24,108v2.25a3.31,3.31,0,0,0,3.29,3.31H79.26a3.31,3.31,0,0,0,3.29-3.31V108a3.31,3.31,0,0,1-3.29,3.31"/></g></g><path class="cls-4" d="M85.81,51.88,82,105.24a2.51,2.51,0,0,1-2.68,2.33l-11.61-.82a2.52,2.52,0,0,1-2.33-2.68l3.65-51.65a4.27,4.27,0,0,1,4.53-3.93l9.89.7a2.52,2.52,0,0,1,2.33,2.69"/><g class="cls-5"><g class="cls-8"><path class="cls-7" d="M83.51,52.5l-3.66,51.81a3.31,3.31,0,0,1-3.53,3l2.24.16a3.32,3.32,0,0,0,3.53-3.06l3.67-51.8a3.31,3.31,0,0,0-3.07-3.52L80.45,49a3.31,3.31,0,0,1,3.06,3.52"/></g></g><path class="cls-3" d="M20.18,121.44c-2.81-.32-3.46-2.22-4.61-4.57-4.22-8.68-4.08-17.46-2.7-21.37,1.93-5.45,5.23-4,7.74-3.45,4.33.91,5.84,12.56,4.88,20.64s-3.83,8.92-5.31,8.75"/><path class="cls-3" d="M41.87,102.8c-9.39,3.23-28,3.55-29.39-2.82-1.58-7.37,7.28-14,16.67-17.22s17.77-3.65,21.44,4.16c3.07,6.52.68,12.65-8.72,15.88"/><path class="cls-9" d="M17.6,119.08c-3.57-7.33-4-14.73-3.24-19.21.47-6.42,8.43-12,16.82-14.91,7.27-2.49,13.93-3.3,18.27.07-4-6-11.84-5.47-20.5-2.5C20.55,85.42,12.6,91,12.13,97.44c-.78,4.48-.33,11.88,3.24,19.21.9,1.85,1.5,3.41,3.07,4.15-.28-.53-.54-1.11-.84-1.72"/><path class="cls-9" d="M39.55,102.72c6.44-1.14,8.57-3.54,8.57-3.54s-.08,4.22-8.49,6.73c-9,2.66-12.71-2.09-12.71-2.09S23.86,98.2,25,97.75c1.94-.77,5.46,6.58,14.55,5"/><path class="cls-3" d="M39.76,116.91c5,3.61.23,8.58-3.66,12.31a27.69,27.69,0,0,1-4.57,3.71c-.24.16-.46.32-.67.45a2.58,2.58,0,0,1-.59.81c-.8.75-1.9,1-2.45.46a.69.69,0,0,1-.11-.13,1.71,1.71,0,0,1-2,.1c-.26-.24-1.57-.69-1.95-1-.22-.2-1.48-.59-1.84-.92s-1.57-1.67-2-2.17c-.68-.73-.28-2.09.9-3a3.83,3.83,0,0,1,1.75-.8,30.35,30.35,0,0,1,5.13-4.27c4.5-3.12,9.63-7.24,12-5.47"/><path class="cls-10" d="M9.15,47.6c-.62,3.27,10.51,6,23.06,9.15.9.22-2,2.35-1,2.52,10.42,2,19.5.33,20.27-3.7S45,43.93,34.37,43.25C22,42.45,9.92,43.56,9.15,47.6"/><path class="cls-10" d="M8.24,50.23c-.43-.7-6.23,1-7-.65C.15,47.07,6.76,48.1,6.18,47c-.36-.67-6,0-6.18-2.4-.14-1.75,6.46.24,6.06-.79C5.77,43.13.73,42.72.8,41.15c.11-2.73,7.7,1.55,8.25.26.39-.89-3.17-3.09-1.5-3.36,2-.34,7,3.7,8.7,6s1.68,6.59-.73,8c-2.7,1.38-9.16,2.67-10.74.92C3.53,51.55,9,51.4,8.24,50.23"/><path class="cls-3" d="M51.34,105.32c11.75,6.09,19.36-10.1,15.44-18.5-3.81-7.31-4.84-7.19-3.05-12.68C66.79,64.78,66,51,57.18,47.35S40.88,42,33.58,52.44c-.66.94-8.69,14.71-3.44,34.69,2,9.56,14.7,14.82,21.2,18.19"/><path class="cls-9" d="M66.81,96.6a8.51,8.51,0,0,1-8.29-.22c-5.79-3-14.35-9.93-18.89-16.21C34.33,73.11,37,55.72,42.7,49.25a32.82,32.82,0,0,1,4.5-4.79c-4.89-.38-9.45,1.46-13.94,7.87C32.6,53.28,24.57,67,29.82,87c1.95,9.57,14.7,14.82,21.2,18.19,7.83,4.06,13.83-1.78,15.79-8.61"/><g class="cls-11"><g class="cls-12"><path class="cls-9" d="M49.93,55.64c9.9,1.58,15.06-4.74,15.7-9.72s-5.78-7.76-13.37-8.29S36.54,38,35.89,42.94s6.54,11.5,14,12.7"/></g></g><path class="cls-10" d="M28.86,36.27c.14,0,.28,0,.41-.06a25.63,25.63,0,0,0,4.51,8.84c8.55,8.27,19.47,10.25,27.5,7.59,5-2,8.69-5.92,11.55-10.67l.16.09c2.66,1.21,5.48-1.44,7.36-5.58s1.25-8.49-1.42-9.7c-1-.45-1.24-.13-2.37.32C78.45,15.7,74.7,3.46,56.66.46S31.55,9.56,29.77,20.29a3.75,3.75,0,0,0-2-.47c-2.92.2-5,4.05-4.73,8.59s2.93,8.06,5.85,7.86"/><path class="cls-13" d="M57.18,47.35a7.63,7.63,0,0,1-5.06-.61A7.39,7.39,0,0,1,50,45.24,4.73,4.73,0,0,1,48.66,43a32.16,32.16,0,0,0,4.15,2.31c1.39.69,2.82,1.23,4.37,2.06"/><path class="cls-14" d="M54.17,4.9c.95-.51-3.62,3.75-4.57,3.47a8.8,8.8,0,0,0,5.33.2c2.52-.73,3.69-1.87,3.28-1.23-.47,1.16-3.41,2.83-2.75,2.79,3.11.22,6.78-1.19,8.07-3.34s.18-5.3-3.84-6.36a9.87,9.87,0,0,0-6.91.65c-1,.58-1.19,1.21-1.71,2.24a6.42,6.42,0,0,1-2.73,2.54c2.57.67,3.7.61,5.83-1"/><path class="cls-15" d="M65,36.39a2.65,2.65,0,1,1-2.18-3,2.64,2.64,0,0,1,2.18,3"/><path class="cls-15" d="M51.07,34.45a2.65,2.65,0,1,1-2.17-3,2.64,2.64,0,0,1,2.17,3"/><path class="cls-16" d="M77.17,80.28H21.78a1.56,1.56,0,0,1-1.56-1.56V76.94a1.56,1.56,0,0,1,1.56-1.56H77.17a1.56,1.56,0,0,1,1.57,1.56v1.78a1.56,1.56,0,0,1-1.57,1.56"/><g class="cls-5"><g class="cls-17"><path class="cls-7" d="M75.45,77.69H23.51c-1.81,0-3.29-.34-3.29-.75v2.6c0,.41,1.48.74,3.29.74H75.45c1.81,0,3.29-.33,3.29-.74v-2.6c0,.41-1.48.75-3.29.75"/></g></g><path class="cls-10" d="M26.14,77.71c-.56-3.29,12-2.12,22-14.63,6.61-8.3,13.71-13.87,17.08-11.52s2.2,11.68-4.38,20c-8.7,11-33,16.25-34.71,6.13"/><path class="cls-10" d="M22.21,78.89c-.09-.8-6-1.51-5.95-3.29,0-2.69,5.52.8,5.45-.38,0-.74-5.35-2.3-4.52-4.55.61-1.63,5.68,2.71,5.75,1.63,0-.76-4.29-3.08-3.57-4.47,1.25-2.4,6.23,4.38,7.27,3.44.72-.65-1.54-4,.07-3.61,1.95.48,4.72,6,5.27,8.74S30.73,83,28,83.31c-3,.19-9.31-1.15-10-3.33-.53-1.73,4.38.24,4.23-1.09"/><path class="cls-3" d="M36.2,123c-2.81-.32-3.46-2.22-4.61-4.57-4.22-8.69-4.08-17.47-2.7-21.38,1.93-5.45,5.23-4,7.75-3.44,4.32.9,5.83,12.55,4.87,20.63s-3.83,8.92-5.31,8.76"/><path class="cls-3" d="M57.89,104.33c-9.39,3.23-28,3.56-29.39-2.81-1.57-7.37,7.28-14,16.67-17.23s17.77-3.64,21.44,4.16c3.07,6.53.68,12.65-8.72,15.88"/><path class="cls-9" d="M33.62,120.61c-3.56-7.33-4-14.73-3.24-19.21.47-6.42,8.43-12,16.82-14.9,7.27-2.5,13.93-3.31,18.27.06-4-6-11.84-5.47-20.5-2.49C36.58,87,28.62,92.55,28.14,99a33.39,33.39,0,0,0,3.25,19.21c.9,1.85,1.5,3.41,3.07,4.16-.27-.53-.54-1.11-.84-1.73"/><path class="cls-9" d="M55.57,104.25c6.44-1.14,8.58-3.53,8.58-3.53s-.09,4.22-8.5,6.72c-9,2.67-12.71-2.08-12.71-2.08S39.88,99.74,41,99.29c1.95-.77,5.46,6.58,14.55,5"/></g></g></g></svg>