<svg xmlns="http://www.w3.org/2000/svg" viewBox="0 0 181.06 181.98"><defs><style>.cls-1{fill:#fff4cb;}.cls-1,.cls-2{fill-rule:evenodd;}.cls-2{fill:#fffde3;}.cls-3{fill:#9d7862;}</style></defs><g id="Layer_2" data-name="Layer 2"><g id="Layer_1-2" data-name="Layer 1"><path class="cls-1" d="M148.85,22.94Q137.93,38.12,126.67,56.5C96.08,106.42,42.56,126,14,133.09a88.72,88.72,0,0,0,65.49,45.73,77.27,77.27,0,0,1,7.8-8c22.19-19.95,52-29.93,82-36.2a88.3,88.3,0,0,0,7.21-16.49q.91-2.85,1.63-5.79a88.76,88.76,0,0,0-29.34-89.37Z"/><path class="cls-2" d="M79.51,178.82a88.66,88.66,0,0,0,89.84-44.23c-30.08,6.27-59.85,16.25-82,36.2A77.27,77.27,0,0,0,79.51,178.82Z"/><path class="cls-2" d="M142.34,18A88.69,88.69,0,0,0,11.05,127c.92,2.06,1.91,4.07,3,6C42.56,126,96.08,106.42,126.67,56.5Q138,38.1,148.85,22.94,145.71,20.32,142.34,18Z"/><path class="cls-3" d="M147.78,25.21c-.57-.56-.62-.05-.76-.07C148.08,26,147.83,25.1,147.78,25.21Z"/><path class="cls-3" d="M157.9,33.85l-.29-.06c.55.39,1,.82,1.58,1.24Z"/><path class="cls-3" d="M165.37,43.84a6.1,6.1,0,0,0-1.44-2.63,23.9,23.9,0,0,1-2.32-3l-.09-.39c-.35-.16-.69-.32-1.06-.45l2.79,3.34A20.08,20.08,0,0,1,165.37,43.84Z"/><path class="cls-3" d="M167.44,50.28c0-.25.24,0,.26.07l-.94-1.44a2.22,2.22,0,0,1,.08.28A10.9,10.9,0,0,1,167.44,50.28Z"/><path class="cls-3" d="M166.84,49.19c-.67-1.11.23.84,0,0Z"/><path class="cls-3" d="M169.73,54.41c-.29-.49-.66-.94-1-1.41,0,.38.66,1.75.31,1.29C169.89,55.82,169.89,55.43,169.73,54.41Z"/><path class="cls-3" d="M170.86,55.68l-.46-.77C170.4,55.08,170.47,55.3,170.86,55.68Z"/><path class="cls-3" d="M169.4,53.3c.37.52.68,1.07,1,1.61,0-.27.2-.4-.42-.76C170.23,54.21,169.91,53.94,169.4,53.3Z"/><path class="cls-3" d="M169,52.31c-.3-.92-.78-2.08.22-.66C167.64,48.77,167.43,49.45,169,52.31Z"/><path class="cls-3" d="M166.34,44l-.55-1.21L165,42C165.38,42.36,166.2,44.17,166.34,44Z"/><path class="cls-3" d="M173.29,64.39c.18,0,.21-.67.35-.85-.19-.38-.34-.77-.56-1.14C173.21,63,173.47,64.24,173.29,64.39Z"/><path class="cls-3" d="M173.64,63.54l.82,1.72C174,63.64,173.77,63.38,173.64,63.54Z"/><path class="cls-3" d="M171.7,55.64c-.61-.88-1.14-1.78-1.81-2.62.75,1,1.37,2.11,2.06,3.17Z"/><path class="cls-3" d="M175.23,71.28l-.6-.94c.32.56.67,1.13,1,1.71C175.5,71.79,175.36,71.54,175.23,71.28Z"/><path class="cls-3" d="M176.26,75.92c-.44-.72-.27,1.14-.61.36a22,22,0,0,0,1,3.25A15.2,15.2,0,0,1,176.26,75.92Z"/><path class="cls-3" d="M177.22,81.15a16.52,16.52,0,0,0-.56-1.62A11.1,11.1,0,0,0,177.22,81.15Z"/><path class="cls-3" d="M175.3,68.37a2.78,2.78,0,0,0,0,1.55l.22-.82C175.43,68.88,175.37,68.63,175.3,68.37Z"/><path class="cls-3" d="M175.49,69.07v0c.19.78.33,1.32.38,1.56C175.82,70.46,175.7,70,175.49,69.07Z"/><path class="cls-3" d="M175.26,68.19c0,.07,0,.12,0,.18S175.33,68.25,175.26,68.19Z"/><path class="cls-3" d="M173.25,60.41c.61,1,1.69,3.07,1.22.82C173.91,60.58,174.18,61.86,173.25,60.41Z"/><path class="cls-3" d="M175.53,67.15c-.15-.66-.34-1.31-.51-2-.09.07-.14.47-.42,0C174.91,65.82,175.24,66.48,175.53,67.15Z"/><polygon class="cls-3" points="175.91 68.07 175.53 67.15 175.69 67.89 175.91 68.07"/><path class="cls-3" d="M177.13,77.7a16.75,16.75,0,0,1,.63,2.83c-.08-1.15-.2-2.34-.36-3.46C177.25,76.93,176.94,76.48,177.13,77.7Z"/><path class="cls-3" d="M176.48,73.48s0,.13.06.18C176.55,73.54,176.54,73.44,176.48,73.48Z"/><path class="cls-3" d="M178.41,91.08l.08-.17-.08,0Z"/><path class="cls-3" d="M177.45,76.86A4.24,4.24,0,0,0,177,75a16.05,16.05,0,0,1,.44,2C177.47,77.13,177.51,77.14,177.45,76.86Z"/><path class="cls-3" d="M177.67,84.05c.05-.46.08-1,.11-1.51A3.81,3.81,0,0,0,177.67,84.05Z"/><path class="cls-3" d="M176.48,74l0-.12C176.4,74.14,176.44,74.1,176.48,74Z"/><path class="cls-3" d="M176.48,74A9.14,9.14,0,0,0,177,75c-.14-.51-.28-1-.42-1.38A1.31,1.31,0,0,1,176.48,74Z"/><path class="cls-3" d="M181.06,94.38c-.39-.17-.64-2.5-.3-4.52-.35-2-1.6-.63-2.27,1,.17.06.34,0,.54,2.06.27-.69.46-4.46.85-2.76.25,2.68-.14,2.2-.36,3.49.54-1.1.57,3.43,1.3,2.9,0-.8-.08-1.59-.14-2.39C180.79,94.17,180.94,95,181.06,94.38Z"/><path class="cls-3" d="M178.42,87.11l-.07-.81a15.33,15.33,0,0,1-.46,2.84c.23,1.35.39,1.64.52,1.73l-.06-4Z"/><path class="cls-3" d="M178,82.63c.48.6.83,2.56,1.19,1.31-.24-2.42-.48-1.66-.82-3.08.46,3.87-.32-1.09-.32,1.74-.14-.76-.2-1.44-.33-2.07a15.06,15.06,0,0,1,0,2l0-.09v0h0c0-.17.07-.23,0,0,0,0,0,.06,0,.08a.42.42,0,0,1,.17.16c0,1.13-.09.19-.17-.16,0,0-.05,0-.07,0v0c.18,1.28.38,2.56.55,3.85A34.43,34.43,0,0,0,178,82.63Z"/><path class="cls-3" d="M176,62.93c0,.13,0,.13-.06.15C176.1,63.31,176.17,63.39,176,62.93Z"/><path class="cls-3" d="M176.28,64.56a3.54,3.54,0,0,1-.62-1.33c-.13-.82.19-.07.31-.15-.28-.51-.89-1.78-.55,0l.14.25a10.29,10.29,0,0,1,.32,3.4A5.06,5.06,0,0,0,176.28,64.56Z"/><path class="cls-3" d="M177.77,73.69c.26,1.06.6,2.11.81,3.18,0-.57.07-1.14.07-1.71l-.2.12C178.17,73.43,178,73.88,177.77,73.69Z"/><path class="cls-3" d="M178.2,91.45l-.45-.43c.21.62.42,1.24.62,1.87Z"/><polygon class="cls-3" points="178.13 95.64 177.75 95.47 177.92 96.58 178.13 95.64"/><path class="cls-3" d="M6.32,121.53l-.42-.91A7.83,7.83,0,0,0,6.32,121.53Z"/><path class="cls-3" d="M9,128.27l.25.08C9,128.09,8.89,128,9,128.27Z"/><path class="cls-3" d="M119.38,172.81c-1.44.07-3,0-2.77.36l.53.28A9.54,9.54,0,0,1,119.38,172.81Z"/><path class="cls-3" d="M49.8,169.1l.31.3,1,.07Z"/><path class="cls-3" d="M48.07,170.15,46.55,169A15.82,15.82,0,0,0,48.07,170.15Z"/><path class="cls-3" d="M1.05,82.5c-.12-.41-.24-.81-.33-1.22C.54,83.12.85,82.33,1.05,82.5Z"/><path class="cls-3" d="M165.57,136.27c-.78.93-1.27,1.73-1.8,2.38C164.8,137.61,165.66,136.78,165.57,136.27Z"/><path class="cls-3" d="M11.57,122.55c-.29-.51-.45-.72-.54-.67C11.31,122.42,11.52,122.7,11.57,122.55Z"/><path class="cls-3" d="M161.8,141.47l.44-.46a26.42,26.42,0,0,1,1.53-2.36A8.36,8.36,0,0,0,161.8,141.47Z"/><path class="cls-3" d="M101.3.42l.32.08S101.51.43,101.3.42Z"/><path class="cls-3" d="M138.26,17.57c-.35-.18-.89-.51-1.41-.82A11.11,11.11,0,0,0,138.26,17.57Z"/><path class="cls-3" d="M175.41,112.25c.21-.86,0-.15,0,0Z"/><path class="cls-3" d="M178.05,108.38c0,.19,0,.35.13.39A.54.54,0,0,1,178.05,108.38Z"/><path class="cls-3" d="M158.24,150.13l-.05.06C158.43,150,158.39,150.07,158.24,150.13Z"/><path class="cls-3" d="M175.93,111c-.13.31-.25.68-.4,1.07A6.81,6.81,0,0,0,175.93,111Z"/><path class="cls-3" d="M175.69,111.13c.09-.3.16-.53.22-.75S175.81,110.34,175.69,111.13Z"/><path class="cls-3" d="M175.1,113.44c.13-.49.28-.94.43-1.37-.08.16-.12.23-.12.18C175.34,112.5,175.25,112.85,175.1,113.44Z"/><path class="cls-3" d="M31.15,24.9l.18-.11C31.89,24,31.61,24.32,31.15,24.9Z"/><path class="cls-3" d="M96.93,181.55l.11,0H96.9Z"/><path class="cls-3" d="M93.58,182a6.33,6.33,0,0,1,3.32-.47l-1.16-1.2Z"/><path class="cls-3" d="M2,104.73c0,.8,0,1.61,0,2.41C.87,104.41.84,102.28.61,104.59c.69.08,1.06,2.37,1.56,4.64s1.1,4.51,1.79,4.5c0,.53.07,1.06.13,1.58-.12-.43-.21-.48-.31-.91.2,3.11,1.51,1.93,2.53,5.68.33,1.32.49,2.27,0,1.45.47.92.9,1.83,1.39,2.73.3.83,0,.71-.3-.11.6,1.42,1.22,2.84,1.9,4.22l-.05,0c.49.51,1.44,1.71,1.88,2.3.34,1.13-.38-.47-.4-.12l1.41,2.14c.15,1.09-1.08-.65-1.82-2.27a3.18,3.18,0,0,0,.76,2.54,14,14,0,0,1,.94,1.44,15.26,15.26,0,0,1,1.32,2.69l-1.37-2a7.38,7.38,0,0,0,.83,2.61c.43.93,1,2,1.56,3.24-.24-.66-1.83-5.36-.14-3.11a8.17,8.17,0,0,0,1.87,2.74c-.39.27.5,1.45,1.56,2.94l-.59.27c1.34,1.5,1.5,1.18,2.43,1.94,1.25,1.82,1.19,2.47,1.2,3.13,2.21,2.8-1-2.38,1.83.77a17.33,17.33,0,0,0,2.64,3.06c1,.9,2,1.86,3.42,2.93,1.34,1.57-.53,0-.13.67l1.68.89c.31.31.1.33,0,.33,1.25.9.5-.35,2.4,1.12.94-.13,3.07,4,6,5.13.48.58-.51.1-.48.43a34.19,34.19,0,0,0,3.3,1.76c.72.34,1.37.61,3,1.24.72.63,1.49,1.2,2.23,1.81-1.56-1.47,1-.59,3.25.15-.53-.56-1-1.06-1.28-1.35l1.67.77,1.71.67c.34.29-.08.32-.74.28l.67.17c1.06.8.3.82-.71.71l-1-.95c-1-.07-1.93-.17-2,.27a6.83,6.83,0,0,1,1.14.45c-.26,0-.43,0-.37.1s.49.17,1.11.31l.43,1,.32-.16c1.39.87,2.77,1.78,4.23,2.53,1.77.37,3.42.69,5.34.93,1,.14,2,.32,3,.56s2.3.43,3.63.76c-1.45.11-.53.73-.77,1.3a6.85,6.85,0,0,0-2.91-1,27.31,27.31,0,0,1-3.94-1.16c1.39.58,1,.74.58.7,1.69.39,3.35.87,5.06,1.13-.26.44.94.67,2.17,1.26-.34-.63.61-.48,1.93-.22s3,.64,4.06.73c.05.35-.51.57-3-.1,2.59,1.38,3.78-.26,6.37.8-.61-.1-.93-.21-1.21-.08,1.48,0,4.94.79,4.08.93l-.62-.1a50.57,50.57,0,0,0,7.89.77c2.71.05,5-.2,5.28-.62a3.08,3.08,0,0,1-.8,1.18c2.48-1,4.88-2,7.21-3-.29.39.2.95.35,1.51s0,1.16-1.74,1.4a12.34,12.34,0,0,0,4.28-.38c-.69,0-1.76-.87-.86-1a24.44,24.44,0,0,0,5,.56c-1,0-.08-1.3,1.48-1.53-.22.21.31,1.08-.25,1.3l3.7-1.77c-.93.35,0,1,1,1.07-.45-.11,3.35-.79,4.36-1.15l-1.71.15a11.14,11.14,0,0,0,2.53-.8,10.57,10.57,0,0,0,1.56-1.06,10.75,10.75,0,0,1,3.91-2.08,1,1,0,0,0-.27.95c.13.32.59.53,1.66.17a30.71,30.71,0,0,1,6.47-6.2l.8,0,1.24-.78L133,168a18.9,18.9,0,0,1-1.31,1.6c-.57.6-1.25,1.28-2,2s-1.47,1.4-2.2,2-1.46,1.14-2.07,1.57c1.66-.39.59.21,2.91-.79.46-.05.2.2-.27.51a16.61,16.61,0,0,1-1.51.73c1.88-.6,3.65-1.48,5.48-2.23-.27-.25.7-.86,1.63-1.51s1.84-1.35,1.61-1.54c-.88.59-1.73,1.26-2.65,1.8L130,173.87c-.51-.53,2.57-3.16,6.13-5.12,1-.28-.1,1.41.08,1.56A11.38,11.38,0,0,1,138,169a12.18,12.18,0,0,1,1.79-1.1l-1.3,1.25c2.09-1,2.72-2.75,5.36-3.77.79-.53,2.82-1,2.72-1.43-1.73.33-3.32-1.41-2.85-2.47l2.42-1.25c1.17-.63,2.4-1.36,2.93-1.56,1.58-.55-.87,2.6.46,2.14-.07-.18.45-.91.68-1.2.87-.53.05.7,1.66-.77-.12-.68,3.26-3,.4-1.1,1.4-1.6,1.72-1.45,3.5-3.2-.44.11-.29-.53.12-1.41a13.92,13.92,0,0,1,1.63-2.9c.05.21.53,0,.76-.09,1.51-1.53,2.54-2.82,3.64-4,.54-.61,1.09-1.2,1.62-1.86s1-1.4,1.62-2.23c.35-.2,1.63-1.69,1.39-.85a13.81,13.81,0,0,1,1-2.17c1.76-1.74-1.39,2.41.17,1.23-.24-.35,1.23-3.05,1.94-4.69-.82.15-2.18,3.45-3,5.06-.64-.43.23-3.52,2-7.25,1.38-3,1.15-1,1.32-1.56a14.28,14.28,0,0,0,1.89-5.28,12.36,12.36,0,0,1,1.58-4.5c1.21-1.71,1,.28,1.54,0-.77,2.6-1.84,3.72-2.57,5.39l1.14-2a11.55,11.55,0,0,1-1.35,3.39A28.27,28.27,0,0,0,175,123c.55-1.41,1.1-2.93,1.6-4.38s.92-2.85,1.36-4c.06-.87.28-2.34-.11-1.72l-.35,1.49c-.79,1.22.21-2.9-.51-1.11a47.89,47.89,0,0,1,1-7.06l.69-.42a6,6,0,0,0-.65,2.58c0-1.19,1.59-4.17,1-5.58l-.71,1.91a46.32,46.32,0,0,1,.06-7c-.7,1.08,0,.59-.84,2.27.51-.72.35.86.16,2.32s-.41,2.81.23,1.66c-1.08,1.66-.84,3-2,5.22.2,0,.55-.74,0,1.27a2.31,2.31,0,0,1,.07.49l0,.13,0-.11c0,.1,0,.11,0,0a4.24,4.24,0,0,1,.53-1c.28,1.13-.66,4.34-.74,5.5-.43,1.17-.08-.57-.47,0l-.12,1.73c-.44.05-1.71,2.91-1,.06-.27.83-.56,1.65-.85,2.47a24.52,24.52,0,0,0-1.93,4.57c-.56,1.1-.81,3.06-.68,1.93-.48,1.29-1,2.57-1.52,3.83l-.12,0c-.93,1.8-1.79,3.71-2.86,5.6-.53,1-1.08,1.9-1.7,2.83a24.87,24.87,0,0,1-2.25,2.61c-.35.59-.69,1.2-1.13,1.88s-1.06,1.37-1.83,2.22l-.58.11c-.93,1.5-3.72,3.7-3.92,4.53-1.94.74-6.16,5.78-8.69,7.56l.22.46c-.8.7-1.61,1.33-2.47,2s-1.74,1.47-2.75,2.33l.39.27c-1.72,1.55-5.06,3-8.23,4.7a4,4,0,0,1,1.57-.89,14.24,14.24,0,0,0-3,1.31c-1,.56-2,1.07-2.9,1.65s-1.9,1.17-2.86,1.62a14,14,0,0,1-2.93,1,6.83,6.83,0,0,1-2.2.85.9.9,0,0,0,.22-.11,2.74,2.74,0,0,1-.38.13c-.43.06-.88.11-1.36.19a9.43,9.43,0,0,0,1.16-.12c-.71.23-1.78.63-2.81,1.07l-.59-.31-.24.09c-1.09.16-.78.48-.12.65-.52.24-1,.5-1.34.71-1.06-.53-2.8.95-4.17.44-.62.67-5.45,1.33-5.91,2.29-.06-.11-.39-.1.2-.21a20.28,20.28,0,0,0-3.6.51l-.59-.54-2.66,1.09c-1.69-.24-2.38-.48-.77-1-3.93.84-3.2.41-6.59,1.18l.17-.39c-1.21,0-3.17.47-3.89.1-1.34-.45-4.68-.65-8.51-1.29a53.45,53.45,0,0,1-11.37-2.9c1,1.48-2.93-1.4-3.45-.66-.3-.4-1.15-.88,0-.72a32.55,32.55,0,0,1-4-1.49,10.26,10.26,0,0,0-3.31-1c-.25-.41.86-.07.59-.36a3.39,3.39,0,0,1-1.39-.52c-.26-.29.57,0,1.13.11A9.23,9.23,0,0,0,54,168.6a1.7,1.7,0,0,0-1.27.61A7.12,7.12,0,0,0,49,167.45c-.43-.55-1.21-1.32.78-.26-.54-.34-2.17-1.39-3.7-2.31S43.22,163,43,163.26a8.09,8.09,0,0,0-1.76-1.18l-2.34-1.83c-.61-.46-1.23-.91-2.3-1.81l.52.58c-1.32-.13-1.9-1.36-3.67-2.78h.1A15.54,15.54,0,0,0,31,153.57a7.3,7.3,0,0,1-.81-.71c-.35-.4-.83-1-1.59-2.05l-.15.53c-.53.18-1.21-.76-2-2a17.87,17.87,0,0,0-2.76-3.82l.48,1a3.48,3.48,0,0,1-.86-1.14,15.65,15.65,0,0,1-.59-1.64,14.31,14.31,0,0,0-1.07-3c-.13-.33.45.36.79.72-1-1.85-1.15-1.92-1.38-1.77s-.41.45-1.34-.83c0-.67,1.12.15,0-1.64a5.18,5.18,0,0,0-.83-1.18c-.4-.53-.91-1.18-1.45-1.88a27.09,27.09,0,0,1-1.56-2.24,10.12,10.12,0,0,1-.95-2.3c0,.69.1,1.38-.72.15a29.53,29.53,0,0,1-1.48-3.87,9.84,9.84,0,0,0-1.7-3.59c0-.29,0-.42,0-.45-.83-1.51-2.16-5.15-2.87-6,.57-1-.37-3.49-1.09-5.86s-1.34-4.59-.59-4.69c-.32-1.73-.57-3.47-.79-5.21l.17.12a18.22,18.22,0,0,0-1-5.71c.07-.79.24-.22.32-.16.06-2.47.15-3.82.12-5.08S5,86.84,4.82,84.74l.52-.4c-.27-1.17,1.43-7,1.91-11.81,0,.06.12.18.1.57a24.75,24.75,0,0,1,1-4.25c.5-1.42,1-2.86,1.53-4.16a35.43,35.43,0,0,0,1.29-3.54,4.21,4.21,0,0,0,.19-2.52c.29-1.18.64-2.33,1-3.49-2.06,4.22-.42-1-1.49.7.68-1.75,2.47-4.15,1.62-2l-.23.29c.26.58.88-.74,1.65-2.07s1.49-2.8,1.75-2.59A84.57,84.57,0,0,1,32.12,28.7l-1.22.16,2.2-2c.68-.42,1.14-.31-.42,1.14A7,7,0,0,0,35,25.15c3.35-2.51-.68,1.71.31.88l1.27-1.18-.35.2a9.49,9.49,0,0,1,2.82-3c1.37-.88.91-.17,1.45-.52,0,0,.21-.06.8-.54,1-.7,2-1.45,3.12-2.09-.53.11-1.06.22-1.57.36,1.21-1.19,3-1.91,1.16-1.52a13.26,13.26,0,0,0,3.06-1.37c1.32-.64,2.8-1.53,4.31-2.3a53,53,0,0,1,6.75-3.14,23.94,23.94,0,0,1,3.19-1.64A38.47,38.47,0,0,1,65.1,8c-.71.12-1.33-.37,1.07-1.07-.48,1.54,4.53-.76,6.71-.19-.93-.09.75-.57,2.33-.94s3.06-.73,1.6-.93c2-.25.21.47,1.79.51,4.78-1.27,10.75-.85,16.76-.83.1-.17-.91-.47.4-.68l3.14,1c1.18,0,1.18-.89,3.3-.08-.29-.18-.73-.44.08-.42a147.49,147.49,0,0,1,17.6,4.13,51.27,51.27,0,0,1,16.18,8.2c-1.23-1.11-.27-.61.79,0-.65-.49.24-.36.22-.65,1.34,1,2.63,2.16,3.9,3.28,1.16-.06,4.41,3.11,5.19,3l-1.34-.9c2.18.71-1.42-3.11-.65-3.69A12,12,0,0,1,140.38,15a11.9,11.9,0,0,0-5.1-2.87c-.68-.61.81.11.5-.32A11.29,11.29,0,0,1,131.6,10l.27,0c-2.93-1.35-5-2.34-7.22-3.31-1.1-.49-2.22-1-3.52-1.49s-2.74-1-4.47-1.62l.39.61a21.26,21.26,0,0,1-2.45-1c-.95.12.11.4,1.18.69s2.15.68,1.26.82a7,7,0,0,0-2.4-1.09c-.55-.17-1.16-.34-1.78-.51l-1.94-.44c-1.3-.31-2.59-.54-3.63-.8A5.5,5.5,0,0,1,105.15,1c-2.39-.33.63.64-1.76.31L102.8,1l-.65.31c-1.56-.21-2.32-.65-2.36-.91a14.89,14.89,0,0,0,1.51.06A14.89,14.89,0,0,0,97.56,0c-1.28,0-2.4,0-2.75,0,.78.06,1.55.18,2.31.28C90.56.11,82.45.29,76.3,2l.51.13c-1.17.31-2,.5-2.65.62S73,3,72.5,3.05s-1,.14-1.75.28c-.36.07-.77.15-1.24.27s-1,.3-1.65.5L68,4a26,26,0,0,1-3.67,1.41c1.19-.68-2.54.33-1-.51-1.21.53-2,.86-2.45,1.1a6.23,6.23,0,0,0-.89.55,12.79,12.79,0,0,1-1.92,1.54L57.25,8a10.85,10.85,0,0,1-3.31,2.15c1.84-1.17-1.77.19.26-1.19a16.27,16.27,0,0,0-3.4,1.41,21.92,21.92,0,0,0-2.44,1.5A8.72,8.72,0,0,1,44.5,13.8c-.8,1.13.26.56,1.44-.07s2.43-1.42,1.87-1c1.2-.28-1.46,1.65-3,2.51a10.14,10.14,0,0,1-2.64.92A14.21,14.21,0,0,0,38,18.41c.37-.26.34-.34.71-.59-1.54.75-2.38,2.28-4.27,3.21-.48,1.22-2.05,1.72-1.78,2.53,1-.93,2-1.91,3-2.77a28.84,28.84,0,0,0-2.36,2.74c-.43.51-.91,1-1.46,1.55a16.87,16.87,0,0,1-1.93,1.69,11.25,11.25,0,0,1,1.26-1.87c-1,.6-1.44,1.59-2.44,2.22-.16-.39.71-1.29,1.8-2.35a31.35,31.35,0,0,0,3.2-3.25c-1.14.54-3.19,3.52-2.81,2.06-.57,2-3.35,2.93-4.82,5.74l-.2-.47a22.31,22.31,0,0,1-1.39,1.93c.19-.54.4-1.08.62-1.6a12.45,12.45,0,0,1-2.38,2.71,11.2,11.2,0,0,0-2.38,2.62c1.52-2,1.85-2.06,1.93-1.89s0,.66.8,0c-1.72,2.51-2.43,3-3.33,3.58S17.92,37.36,16,40.24c.46-.82,2.25-2.68,1.58-1.38a38.65,38.65,0,0,1-2.57,2.89c-2.37,3.88.78-.33,0,1.45-1.34,1-.94,2-1.77,3.82l-.43-.22c-1.4,2.17-1.27,2.63-1.2,3s.18.64-1,2.62c.06-.69.18-1.35.28-2-.32.75-.64,1.48-.91,2.25l-.29-.69a29.12,29.12,0,0,1-2.26,5.61c.54-.43.67.63-.13,2.75-.76,1.37-.14-1-1.11,2.1A3.62,3.62,0,0,1,7,59.52c-.09-.19,0-.78-.1-1-1,1.44-1.46,4-1.86,5.08a8.58,8.58,0,0,1,.51-1.17C5.18,64,5,65.59,4.78,67.15c-.37.66-.35.06-.33-.54-.2.93-.2,1.61-.46,3-.27-.44-.75-.47-.38-2.44-.3,1.48-.43,3-.64,4.48a6.91,6.91,0,0,0-.57,1.1c-.2.44-.37.77-.38.47a20.47,20.47,0,0,0-.51,4.4,32.2,32.2,0,0,1-.39,5,4.35,4.35,0,0,1,.11,1.23c-.08.78-.18,1.52-.29,2.27S.8,87.6.74,88.37a20.26,20.26,0,0,0,.18,5L.3,95.47c.31,2.87.72-2.86,1.26,1.9.48,3.35-.49,1.31-.58,2.51a25.48,25.48,0,0,1,1.55,7.6A23.8,23.8,0,0,1,2,104.73Zm12.21,33c-.43-.54-1.38-1.57-1.39-2.15C13.68,136,13.75,136.64,14.2,137.73ZM54,172.23a4.86,4.86,0,0,1-1.88-1.07A10.62,10.62,0,0,1,54,172.23Zm118.92-50.57s0,0,0,.07C172.17,123,172.42,122.57,172.87,121.66Zm1.21-2.77c0-.31,0-.31-.14-.21a4.42,4.42,0,0,1-.45,1.6A2.37,2.37,0,0,0,174.08,118.89ZM40.71,21.18l-.56.24C41.16,20.54,40.93,20.85,40.71,21.18Z"/><path class="cls-3" d="M48.28,170a.49.49,0,0,1-.12-.37C47.89,169.6,47.84,169.68,48.28,170Z"/><path class="cls-3" d="M1.11,82.72v-.11a.26.26,0,0,0-.07-.11Z"/><path class="cls-3" d="M150.61,160.18a5.43,5.43,0,0,1-1.12.62C149.54,160.91,149.83,160.8,150.61,160.18Z"/><path class="cls-3" d="M177,103.21l-.17,1.92a8.1,8.1,0,0,1,.42-1.69C177.12,103.47,176.91,103.81,177,103.21Z"/><path class="cls-3" d="M180.68,86.45c-.07-.29,0-.62-.12-.9l-.21.09C180.43,86.87,180.61,87.73,180.68,86.45Z"/><path class="cls-3" d="M178.8,101.64c.41-.1.43-1.34.48-2.71,0,.08,0,.16,0,.24C178.73,98.72,178.79,100.18,178.8,101.64Z"/><path class="cls-3" d="M179.29,98.61c0-.42.05-.85.09-1.27C179.17,97.17,179.3,97.85,179.29,98.61Z"/><path class="cls-3" d="M174.93,115.14c.28-.58-.38-.52-.13-.83C174.51,113.48,174.24,118.59,174.93,115.14Z"/><polygon class="cls-3" points="180.24 100.69 179.69 101.12 180 101.94 180.24 100.69"/><path class="cls-3" d="M178,111.41c.22-.71.42-1.42.62-2.13-.09,0-.08-.27-.05-.62A15.38,15.38,0,0,0,178,111.41Z"/><path class="cls-3" d="M178.6,108.66a9,9,0,0,0,.26-1.76C178.79,107.28,178.66,108.09,178.6,108.66Z"/><polygon class="cls-3" points="180.01 103.72 179.81 104.35 179.53 105.89 180.01 103.72"/><path class="cls-3" d="M169.44,133.48c-.34.73-.71,1.44-1.1,2.15,0,.3.46-.22.87-1C169.39,134.05,169.76,133.23,169.44,133.48Z"/><path class="cls-3" d="M173.92,127.5a2.53,2.53,0,0,1-.79.83l.53.32Z"/><path class="cls-3" d="M170.88,134c.06.3-1.34,3.34.18.61C171,134.28,172.08,132.05,170.88,134Z"/><polygon class="cls-3" points="146.62 161.28 147.12 160.91 146.42 160.17 146.62 161.28"/><path class="cls-3" d="M118.84,178.36c2.9-.66.48-.8,3.11-1.32.58-.43-2.15.43-1.54,0C118.8,177.83,117.87,178,118.84,178.36Z"/><path class="cls-3" d="M120.41,177.06c.26-.13.53-.26.82-.42A5.38,5.38,0,0,0,120.41,177.06Z"/><polygon class="cls-3" points="143.41 21.74 144.71 22.99 144 22.02 143.41 21.74"/><path class="cls-3" d="M146.61,23.27l-.08.76,1.21.24A4.64,4.64,0,0,1,146.61,23.27Z"/><path class="cls-3" d="M16,142.88l.21,0a3.88,3.88,0,0,0-.73-1.49Z"/><polygon class="cls-3" points="4.96 119.47 5.09 119.89 5.38 118.93 4.96 119.47"/><path class="cls-3" d="M0,98.27c.05.89.28,1.92.34,2.82C0,99.15.7,98,0,98.27Z"/></g></g></svg>