<svg xmlns="http://www.w3.org/2000/svg" viewBox="0 0 118.36 118.99"><defs><style>.cls-1{fill:#fff4cb;}.cls-1,.cls-2{fill-rule:evenodd;}.cls-2{fill:#fffde3;}.cls-3{fill:#9d7862;}</style></defs><g id="Layer_2" data-name="Layer 2"><g id="Layer_1-2" data-name="Layer 1"><path class="cls-1" d="M100.93,17.53A56.12,56.12,0,0,0,95.69,13q-1.44-.94-2.79-2A58.14,58.14,0,0,0,5.18,41.32Q4.64,43.47,4,45.55A57.94,57.94,0,0,0,2.39,56.88c23.76-4.63,47.44-6.4,64.39-11C83.13,41.41,93.9,30.49,100.93,17.53Z"/><path class="cls-2" d="M106.27,23.81a56.66,56.66,0,0,0-5.61-6.28c-7,13-17.8,23.88-34.14,28.34-16.95,4.61-40.64,6.38-64.39,11,0,.8-.06,1.6-.06,2.4a58.89,58.89,0,0,0,1,10.78A58.14,58.14,0,1,0,106.27,23.81Z"/><path class="cls-3" d="M105.54,25.11c-.3-.44-.4-.12-.49-.16C105.62,25.62,105.58,25.05,105.54,25.11Z"/><polygon class="cls-3" points="110.78 32.08 110.61 32 111.44 33.01 110.78 32.08"/><path class="cls-3" d="M114.14,39.53c.18-.89-1.13-2.74-1.61-4.12v-.26l-.62-.44A27.7,27.7,0,0,1,114.14,39.53Z"/><path class="cls-3" d="M114.53,44c.1-.31.4.85-.22-1a1.44,1.44,0,0,1,0,.18C114.36,43.33,114.42,43.56,114.53,44Z"/><path class="cls-3" d="M114.32,43.16c-.26-.8,0,.58,0,0Z"/><path class="cls-3" d="M115.4,46.93l-.41-1c0,.25.15,1.22,0,.88C115.33,47.85,115.38,47.6,115.4,46.93Z"/><path class="cls-3" d="M116,47.9l-.18-.56C115.76,47.45,115.77,47.6,116,47.9Z"/><path class="cls-3" d="M115.35,46.17l.43,1.17c0-.18.17-.23-.18-.54C115.75,46.87,115.57,46.66,115.35,46.17Z"/><path class="cls-3" d="M115.26,45.47c-.05-.63-.22-1.43.24-.38C114.85,43,114.65,43.42,115.26,45.47Z"/><path class="cls-3" d="M114.74,39.76l-.17-.85-.41-.64C114.36,38.59,114.62,39.86,114.74,39.76Z"/><path class="cls-3" d="M116.26,53.82c.11.06.22-.4.34-.49l-.2-.81C116.38,53,116.4,53.75,116.26,53.82Z"/><path class="cls-3" d="M116.6,53.33l.3,1.22C116.8,53.44,116.7,53.25,116.6,53.33Z"/><path class="cls-3" d="M116.5,48c-.23-.65-.52-1.29-.79-1.93.31.77.61,1.54.87,2.32Z"/><polygon class="cls-3" points="116.51 58.51 116.26 57.82 116.63 59.06 116.51 58.51"/><path class="cls-3" d="M116.5,61.63c-.17-.52-.33.69-.44.15a15.72,15.72,0,0,0,.19,2.22A10.38,10.38,0,0,1,116.5,61.63Z"/><path class="cls-3" d="M116.38,65.11a9.74,9.74,0,0,0-.13-1.11A8.39,8.39,0,0,0,116.38,65.11Z"/><path class="cls-3" d="M117,56.66a2,2,0,0,0-.25,1l.26-.5C117,57,117,56.83,117,56.66Z"/><path class="cls-3" d="M117,57.13v0c0,.53,0,.9,0,1.05Z"/><path class="cls-3" d="M117,56.54a.49.49,0,0,1,0,.12S117,56.58,117,56.54Z"/><path class="cls-3" d="M116.8,51.27c.29.69.59,2.21.67.7C117.21,51.47,117.2,52.33,116.8,51.27Z"/><path class="cls-3" d="M117.28,55.91l0-1.33c-.07,0-.16.28-.26-.07Z"/><polygon class="cls-3" points="117.41 56.56 117.28 55.91 117.29 56.4 117.41 56.56"/><path class="cls-3" d="M116.81,62.89a11,11,0,0,1,0,1.91c.11-.75.2-1.53.25-2.27C117,62.42,116.86,62.09,116.81,62.89Z"/><path class="cls-3" d="M117,60.1v.12C117,60.15,117,60.08,117,60.1Z"/><polygon class="cls-3" points="115.72 71.64 115.79 71.54 115.75 71.5 115.72 71.64"/><path class="cls-3" d="M117.14,62.41a3.15,3.15,0,0,0-.06-1.24,10.35,10.35,0,0,1,0,1.36S117.14,62.59,117.14,62.41Z"/><path class="cls-3" d="M116.27,67c.09-.29.18-.61.27-1A2.43,2.43,0,0,0,116.27,67Z"/><path class="cls-3" d="M116.93,60.41v-.08C116.85,60.51,116.88,60.49,116.93,60.41Z"/><path class="cls-3" d="M116.93,60.41a4.64,4.64,0,0,0,.15.76c0-.35,0-.67-.07-1A.84.84,0,0,1,116.93,60.41Z"/><path class="cls-3" d="M117,74.13a4.62,4.62,0,0,1,.46-2.93c0-1.32-.9-.63-1.63.34.1.06.21.08.06,1.4.24-.41,1-2.78,1-1.65a4.54,4.54,0,0,1-.73,2.18c.51-.62-.15,2.28.4,2l.27-1.54C116.82,74,116.77,74.53,117,74.13Z"/><path class="cls-3" d="M116.3,69.1l.06-.53a9.48,9.48,0,0,1-.67,1.76c0,.9,0,1.09.06,1.17.23-.85.37-1.72.54-2.58Z"/><path class="cls-3" d="M116.7,66.18c.22.45.18,1.76.58,1,.18-1.58-.09-1.14-.09-2.09-.26,2.54-.07-.74-.46,1.07,0-.5.08-1,.09-1.37a12.21,12.21,0,0,1-.28,1.29l0-.06h0c.05-.1.07-.14,0,0v.06a.41.41,0,0,1,.09.12c-.15.73-.09.11-.09-.12l0,0h0c-.06.84-.08,1.7-.2,2.54A15,15,0,0,0,116.7,66.18Z"/><path class="cls-3" d="M118.22,53.28c0,.08,0,.08-.06.09C118.21,53.53,118.24,53.59,118.22,53.28Z"/><path class="cls-3" d="M118.16,54.36a2.22,2.22,0,0,1-.22-.94c0-.54.13,0,.22-.05-.11-.36-.34-1.27-.35-.1l.06.18a5.64,5.64,0,0,1-.31,2.22A3.27,3.27,0,0,0,118.16,54.36Z"/><path class="cls-3" d="M117.79,60.42c0,.71.07,1.43.07,2.15.11-.36.19-.72.28-1.08l-.14,0C118.09,60.31,117.9,60.57,117.79,60.42Z"/><polygon class="cls-3" points="115.53 71.84 115.3 71.51 115.44 72.79 115.53 71.84"/><polygon class="cls-3" points="114.89 74.52 114.67 74.35 114.62 75.09 114.89 74.52"/><path class="cls-3" d="M1.24,66.53l-.15-.64C1.15,66.2,1.2,66.39,1.24,66.53Z"/><path class="cls-3" d="M2,71.22l.15.09C2.05,71.11,2,71,2,71.22Z"/><path class="cls-3" d="M66.27,115.52c-.93-.17-2-.46-1.83-.18l.3.26A6.53,6.53,0,0,1,66.27,115.52Z"/><path class="cls-3" d="M22.29,103.16l.15.25.64.22Z"/><path class="cls-3" d="M21,103.59l-.8-1A11.78,11.78,0,0,0,21,103.59Z"/><path class="cls-3" d="M3.41,40.82c0-.33,0-.56,0-.85-.21.57-.23.72-.21.84S3.36,40.72,3.41,40.82Z"/><path class="cls-3" d="M101.05,98.74c-.6.5-1.1.88-1.5,1.25C100.35,99.47,101.06,99.09,101.05,98.74Z"/><path class="cls-3" d="M4.45,67.93c-.11-.37-.19-.53-.25-.5C4.31,67.81,4.39,68,4.45,67.93Z"/><path class="cls-3" d="M97.9,101.52l.35-.22c.4-.41.78-.85,1.3-1.31A6.27,6.27,0,0,0,97.9,101.52Z"/><path class="cls-3" d="M79.34,2.58l.19.09S79.47,2.61,79.34,2.58Z"/><path class="cls-3" d="M100.53,18.86c-.2-.17-.5-.46-.79-.73A7.32,7.32,0,0,0,100.53,18.86Z"/><path class="cls-3" d="M110.78,84.75c.25-.52,0-.09,0,0Z"/><path class="cls-3" d="M113,82.65c0,.13,0,.23,0,.27A.39.39,0,0,1,113,82.65Z"/><path class="cls-3" d="M94.38,106.56l0,0C94.52,106.53,94.49,106.54,94.38,106.56Z"/><path class="cls-3" d="M111.29,84c-.13.18-.27.39-.41.62C111,84.56,111.08,84.37,111.29,84Z"/><path class="cls-3" d="M111.12,84.07c.1-.17.18-.3.25-.44S111.31,83.59,111.12,84.07Z"/><path class="cls-3" d="M110.42,85.48c.15-.3.3-.57.46-.83-.07.1-.11.13-.1.1C110.7,84.9,110.6,85.12,110.42,85.48Z"/><path class="cls-3" d="M31,8.25l.12,0C31.55,7.8,31.32,8,31,8.25Z"/><path class="cls-3" d="M50.65,117.9h.07l-.08,0Z"/><path class="cls-3" d="M48.45,117.69a5.35,5.35,0,0,1,2.19.18l-.58-.89C49.53,117.23,49,117.45,48.45,117.69Z"/><path class="cls-3" d="M.86,55.16.52,56.7c-.33-1.9,0-3.27-.52-1.82.43.14.34,1.66.34,3.18s0,3,.49,3.14l-.14,1c0-.29-.06-.34-.06-.63-.32,2,.68,1.45.8,4,0,.89,0,1.52-.19.93.15.65.32,1.3.49,1.94s-.1.46-.17-.11c.18,1,.37,2,.64,3h0c.23.39.66,1.3.86,1.74.05.77-.18-.35-.24-.14l.59,1.58c-.07.72-.6-.57-.83-1.71a2.07,2.07,0,0,0,.11,1.73,8.7,8.7,0,0,1,.39,1,10.23,10.23,0,0,1,.48,1.91L2.93,76c-.16,1.12.4,2.26.68,4.09,0-.48-.39-3.7.39-2a6.92,6.92,0,0,0,.75,2c-.31.13.15,1,.64,2.09L5,82.26c.63,1.16.78,1,1.25,1.61A3.2,3.2,0,0,1,6.54,86c1,2.1-.3-1.65,1.07.75a19.12,19.12,0,0,0,1.23,2.35,25.1,25.1,0,0,0,1.81,2.34c.61,1.21-.35-.06-.18.41l.93.82c.15.25,0,.23-.05.22.67.76.34-.14,1.37,1.06.32,0,.68.76,1.16,1.65A15.81,15.81,0,0,0,14.72,97a3.74,3.74,0,0,0,1.12,1.12c.23.43-.35,0-.38.21A31.89,31.89,0,0,0,19,101.15l1.19,1.46c-.8-1.16.75-.24,2.06.55-.26-.44-.47-.81-.63-1,.65.48,1.27,1,1.93,1.44.19.22-.11.2-.51.07a1.86,1.86,0,0,0,.4.2c.58.65.08.56-.56.36-.17-.26-.33-.53-.48-.78-.61-.21-1.21-.39-1.28-.12a4.06,4.06,0,0,1,.66.46c-.16-.06-.27-.08-.25,0s.29.19.65.38l.12.73.22-.06,2.38,2.2c.53.25,1,.49,1.57.72l1.71.63c.58.23,1.2.48,1.86.79.34.15.68.32,1,.51l1.17.51c-1-.12-.45.4-.68.73-.7-.78-2.5-1.32-4.07-2.4.81.57.52.62.28.54,1,.49,2,1,3.05,1.48-.23.25.51.55,1.23,1.08-.27-.9,2.41.84,3.75,1.21,0,.21-.44.35-1.89-.5a2.8,2.8,0,0,0,2,.79,3.43,3.43,0,0,1,2,.62c-.37-.15-.56-.26-.76-.22,1,.19,3,1.23,2.47,1.2l-.38-.16a42.82,42.82,0,0,0,4.94,1.62,7.5,7.5,0,0,0,3.48.32,2,2,0,0,1-.68.64l2.54-.37c.84-.11,1.68-.37,2.5-.56-.49.42,1,1.75-1.31,1.72a11.06,11.06,0,0,0,2.8.35c-.43-.12-1-.83-.4-.79a12,12,0,0,0,1.38.59l.6.18,1.1.29c-.65-.13.14-.84,1.17-.77-.17.1.05.73-.34.79l2.62-.61c-.65.1-.13.61.45.85-.27-.11,2.26,0,2.95-.11l-1.11-.14a5.55,5.55,0,0,0,2.88-.61,8.13,8.13,0,0,1,2.8-.79c-.32.19-.75,1,.73.93a20.64,20.64,0,0,1,5-3l.52.1c.6-.21,1.2-.45,1.79-.71A27.48,27.48,0,0,1,69.83,118a5.06,5.06,0,0,0,2-.12c.62.1-.83.46-1.31.56l1.92-.28c.64-.11,1.27-.24,1.91-.36-.14-.2.56-.46,1.25-.74s1.38-.59,1.26-.75c-1.29.55-2.61,1-4,1.46-.24-.41,2.09-1.69,4.67-2.4.71,0-.27.88-.18,1a13.49,13.49,0,0,1,2.64-1l-1,.59a6.79,6.79,0,0,0,1.87-.82,5.54,5.54,0,0,1,2.11-.81c.6-.18,2-.24,2-.51-1.15,0-1.92-1.37-1.47-2l1.72-.47c.84-.23,1.74-.52,2.11-.56,1.09-.12-.94,1.52,0,1.42,0-.12.41-.51.6-.66.63-.21-.06.47,1.17-.26,0-.51,2.54-1.42.4-.67,1.14-.8,1.35-.63,2.71-1.54-.6,0,.72-1.57,1.74-2.49,0,.13.33.08.49,0a51.24,51.24,0,0,0,5.57-4.19c.25-.09,1.26-.88,1-.37a5.86,5.86,0,0,1,1-1.24c.69-.43.39-.09,0,.28s-.73.77-.13.52c-.08-.24,1.24-1.76,1.92-2.72-.55,0-1.87,1.92-2.64,2.81-.19-.2,0-.74.41-1.5a26,26,0,0,1,1.89-2.86c1.3-1.72.88-.48,1.06-.81,2.65-3.1,1.41-3.26,3.63-5.77,1-.93.61.33,1,.22A22.15,22.15,0,0,1,106.66,94c.35-.35.67-.73,1-1.1a6.7,6.7,0,0,1-1.35,2A18.07,18.07,0,0,0,109,91.54c1.11-1.65,2.26-3.57,3.12-4.91.16-.56.49-1.47.16-1.13l-.42.91c-.66.68.51-1.84-.18-.78a26.87,26.87,0,0,1,1.66-4.38l.5-.17a4.26,4.26,0,0,0-.8,1.56c.19-.76,1.6-2.45,1.43-3.43l-.74,1.11a30.31,30.31,0,0,1,1.06-4.49c-.58.6-.07.38-.87,1.33.43-.39.09.6-.22,1.51s-.68,1.73-.1,1.09a4.78,4.78,0,0,0-1,1.41,8.07,8.07,0,0,1-1.07,1.64c.13,0,.45-.39-.17.82a1.19,1.19,0,0,1,0,.32l0,.08,0-.06c0,.06,0,.07,0,0a2.71,2.71,0,0,1,.47-.55c0,.75-1,2.7-1.24,3.42-.46.68,0-.37-.3,0l-.35,1.07c-.31,0-1.49,1.63-.69-.11-.28.49-.58,1-.9,1.46a17.17,17.17,0,0,0-1.89,2.65c-.51.62-.94,1.85-.7,1.14l-1.52,2.23-.07,0c-1.73,2-3.3,4.45-5.92,6.11a16,16,0,0,1-2.48,2.2l-.39,0c-.83.82-2.9,1.85-3.15,2.35a10.14,10.14,0,0,0-3.13,1.58l-1.87,1.17c-.62.34-1.19.64-1.65.84l.08.33-4,2,.21.23c-1.31.78-3.67,1.21-5.93,1.85a2.51,2.51,0,0,1,1.13-.34c-2.85.2-5.66,1.94-8.29,1.87a4.51,4.51,0,0,1-1.54.19l.16,0-.26,0-.9,0a5.27,5.27,0,0,0,.76.06l-2,.3-.34-.28-.17,0c-.72-.06-.56.19-.16.39a6.73,6.73,0,0,0-1,.27c-.61-.49-1.93.22-2.73-.3-.5.27-3.68,0-4.12.58,0-.07-.23-.12.17-.1a15.31,15.31,0,0,0-2.39-.16l-.3-.44-1.85.29c-1-.39-1.47-.59-.35-.75a9.54,9.54,0,0,1-2.34-.05,15.3,15.3,0,0,0-2-.14l.16-.22c-.77-.17-2.11-.1-2.52-.44a10.55,10.55,0,0,0-2-.89l-1.52-.53a13.37,13.37,0,0,1-1.71-.64l-3.63-1.57C35.09,110.3,34,109.62,33,109c.2.54-.23.22-.76-.18s-1.12-1-1.35-.75c-.14-.3-.61-.72.09-.46-2-1.12-2.8-2-4.32-2.66-.1-.3.55.09.43-.14-.17-.08-.68-.32-.8-.55s.36.08.69.24c-1.87-1.4-2.41-1.12-2.88-.82A4.71,4.71,0,0,0,22,102c-.2-.41-.6-1,.53-.06-.3-.29-1.19-1.19-2.05-2s-1.57-1.62-1.76-1.5a4.32,4.32,0,0,0-1-1c-1.28-1.37-1.29-1.58-2.46-3l.26.44c-.84-.26-1-1.14-2-2.27h.07c-1.56-3-.95-1.14-2.43-4.17l-.17.32c-.77.08-1.07-2.82-2.22-4.4l.17.7a2.35,2.35,0,0,1-.4-.84,9.91,9.91,0,0,1-.13-1.14A10.37,10.37,0,0,0,8.29,81c0-.24.22.29.39.57-.72-2.68-.52-.17-1.42-2,.08-.43.67.26.27-1.06a12.25,12.25,0,0,0-1-2.29,14.08,14.08,0,0,1-.7-1.65A6.53,6.53,0,0,1,5.56,73c-.07.44-.14.89-.48,0a21.16,21.16,0,0,1-.39-2.68,7,7,0,0,0-.58-2.54c0-.2,0-.27.09-.28-.31-1.1-.66-3.61-1-4.27.5-.56.27-2.29.14-3.91s-.21-3.13.3-3.09c0-1.15.12-2.3.23-3.45l.09.1A12,12,0,0,0,4.13,49c.16-.49.18-.1.23,0l.48-1.91.17-.7c0-.11,0-.22.07-.32a1.7,1.7,0,0,0,0-.23,24.39,24.39,0,0,0,.42-3l.39-.2A1.56,1.56,0,0,1,6,42.12a2.43,2.43,0,0,1,.09-.3,2,2,0,0,1,.11-.28c.21-.48.49-1.08.8-1.76s.62-1.41.92-2.18a23.12,23.12,0,0,0,.92-2.28s.05.13,0,.38A14.62,14.62,0,0,1,10,33.1c.53-.84,1.09-1.66,1.59-2.43s1-1.47,1.35-2.08A2.75,2.75,0,0,0,13.44,27a22.14,22.14,0,0,1,1.14-2.09c-1.93,2.4-.15-.68-1.07.22.71-1,2.23-2.26,1.35-1.05l-.19.15c.16.8,2.51-2.89,2.85-2.5A55.58,55.58,0,0,1,31,10.79l-.81-.08,1.72-1c.5-.16.78,0-.44.66a4.14,4.14,0,0,0,1.91-1.47c.62-.31.89-.38,1-.34s-.09.17-.28.35c-.38.35-1,.8-.61.6s.64-.41,1-.59L34.18,9a6.88,6.88,0,0,1,2.25-1.49c1-.37.62,0,1-.13,0,0,.15,0,.58-.26.76-.32,1.54-.57,2.31-.85H39.26c1-.56,2.19-.81,1-.8A8.81,8.81,0,0,0,42.36,5c.94-.22,2-.52,3.1-.83a24.84,24.84,0,0,1,3-.73,13,13,0,0,1,1.77-.3,8.81,8.81,0,0,1,2.28-.6c.79-.12,1.64-.22,2.58-.31-.47,0-.8-.43.83-.54-.53.89,3,.25,4.33.83-1.17-.48,4.59,0,2.78-.64,1.35.14.07.33,1.08.59,3.24-.16,7,1,10.84,1.84.09-.09-.52-.42.35-.38l1.86,1.13c.76.18.89-.41,2.12.42-.16-.16-.4-.39.11-.26a81.34,81.34,0,0,1,13,6.59l-.06,0c1,.69,1.9,1.38,2.83,2.1l-.06-.05A29.36,29.36,0,0,1,99.24,18c-.63-.89-.09-.43.5.13-.35-.4.21-.2.24-.38.7.87,1.38,1.75,2,2.65.74.13,2.37,2.63,2.89,2.64l-.73-.76c1.29.76-.46-2.19.11-2.45-1.46-.81-2.34-3.69-4.88-4.87-.36-.48.5.18.36-.13a7.62,7.62,0,0,1-2.42-1.77l.18,0-1.2-.92-.06,0c-1-.73-1.83-1.37-2.65-2h0l-.06,0a54.46,54.46,0,0,0-4.83-3.24l.16.44a13.62,13.62,0,0,1-1.42-1c-.63-.06,0,.27.65.61s1.28.74.69.71A11.8,11.8,0,0,0,85.17,5.4C83.59,4.65,82,4,81.71,3.52,80.23,3,82,4,80.55,3.46l-.33-.32-.46.11c-1-.37-1.39-.76-1.38-.93.23.1.7.18,1,.26a22.81,22.81,0,0,0-4.1-1.2c.49.16,1,.32,1.44.51C74.58,1.4,72.25.83,69.9.48A34.31,34.31,0,0,0,63.1,0l.31.16c-3.16.15-2.53-.25-6,0l.12,0A20.83,20.83,0,0,1,55,.52c.86-.28-1.67-.13-.55-.46-3.38.72-1.67.41-3.82,1.27l-.55-.13a7.19,7.19,0,0,1-2.43.9C49,1.61,46.47,2,48,1.38a11.56,11.56,0,0,0-4.16,1A6.08,6.08,0,0,1,41.06,3c-.67.62.09.4.93.15s1.77-.52,1.35-.32c.4,0,.11.21-.42.45s-1.3.53-1.83.72a6.76,6.76,0,0,1-1.81.23,7.65,7.65,0,0,0-3,.8c.27-.12.26-.17.53-.29-1.07.31-1.85,1.12-3.19,1.45-.51.66-1.55.82-1.5,1.37l1.14-.72,1.18-.63c-1.34.73-2.23,2-4.54,3a6.7,6.7,0,0,1,1.09-1c-.71.24-1.18.77-1.9,1-.1-.57,2.76-1.73,4-2.88-.8.19-2.51,1.86-2.08,1a3.7,3.7,0,0,1-1.71,1.31,7.47,7.47,0,0,0-2.19,1.66L27,10a9.06,9.06,0,0,1-1.18,1l.64-.92c-1.16,1.15-2.7,1.6-3.81,2.72,2.54-2,.81-.16,2-.84-2.82,2.84-2.38.71-5.57,3.91.41-.45,1.79-1.43,1.19-.67a15.75,15.75,0,0,1-2.07,1.47c-2,2.19.52-.13-.21.92-1,.49-.88,1.18-1.66,2.21l-.24-.2c-1.23,1.17-1.22,1.47-1.21,1.71s0,.45-1,1.56l.45-1.27L13.48,23l-.08-.47a13,13,0,0,1-1.09,1.68l-1.17,1.57c.4-.2.34.51-.47,1.75-.71.75,0-.65-1.05,1.16a2.26,2.26,0,0,1,.91-1.7c0-.13.1-.5.07-.63a9.87,9.87,0,0,0-1.14,1.52c-.33.56-.58,1.13-.77,1.46a6.21,6.21,0,0,1,.47-.69L8,31.51c-.33.37-.23,0-.13-.39-.26.57-.39,1-.73,1.84-.1-.32-.44-.42.11-1.61-.43.89-.69,1.86-1,2.78-.18.13-.91,1.25-.83.86a8,8,0,0,0-.56,1.24c-.14.47-.26,1-.39,1.51S4.19,38.8,4,39.33c-.09.26-.17.52-.27.78l-.15.38-.08.19a2.16,2.16,0,0,0-.11.31,3.13,3.13,0,0,1-.08.76c-.29.92-.63,1.77-.92,2.67l-.11.34L2.23,45l-.06.23c-.06.26-.12.51-.17.78a12.34,12.34,0,0,0-.21,1.7L1.1,49c-.21,1.88.86-1.73.53,1.4-.17,2.21-.5.76-.73,1.52A16.55,16.55,0,0,1,.82,57C.76,56.32.86,55.79.86,55.16ZM4,78c-.2-.4-.67-1.2-.6-1.56C3.89,76.83,3.85,77.25,4,78ZM24.5,105.74a3.31,3.31,0,0,1-1.08-.91A6.14,6.14,0,0,1,24.5,105.74Zm83.29-15.33v0C107.16,91.19,107.39,90.93,107.79,90.41Zm1.19-1.6c.07-.19,0-.2-.06-.15a3,3,0,0,1-.54,1C108.53,89.53,108.72,89.35,109,88.81ZM37.58,7.21l-.38.09C38,6.85,37.77,7,37.58,7.21Z"/><path class="cls-3" d="M21.19,103.55a.32.32,0,0,1,0-.26C21,103.21,21,103.25,21.19,103.55Z"/><path class="cls-3" d="M3.39,41.05l0-.06a.27.27,0,0,0,0-.17s0,.08,0,.16Z"/><path class="cls-3" d="M88.07,111.91a2.81,2.81,0,0,1-.8.23C87.28,112.22,87.48,112.19,88.07,111.91Z"/><path class="cls-3" d="M113.08,79.2l-.39,1.2a4.61,4.61,0,0,1,.52-1C113.13,79.38,112.94,79.56,113.08,79.2Z"/><path class="cls-3" d="M117.84,69c0-.2.06-.4.06-.59l-.16,0C117.61,69.23,117.63,69.81,117.84,69Z"/><path class="cls-3" d="M114.46,78.45c.28,0,.46-.8.7-1.67l0,.15C114.84,76.57,114.65,77.51,114.46,78.45Z"/><path class="cls-3" d="M115.22,76.58c.08-.26.14-.54.23-.8C115.33,75.64,115.34,76.1,115.22,76.58Z"/><path class="cls-3" d="M110.08,86.55c.27-.33-.16-.39,0-.55C110.08,85.44,109.08,88.63,110.08,86.55Z"/><polygon class="cls-3" points="115.52 78.04 115.11 78.25 115.19 78.82 115.52 78.04"/><path class="cls-3" d="M112.58,84.59c.24-.42.45-.85.68-1.28-.05,0,0-.18.06-.4A10.21,10.21,0,0,0,112.58,84.59Z"/><path class="cls-3" d="M113.32,82.91a5.54,5.54,0,0,0,.43-1.08C113.65,82.06,113.44,82.56,113.32,82.91Z"/><polygon class="cls-3" points="114.94 79.95 114.72 80.33 114.32 81.28 114.94 79.95"/><path class="cls-3" d="M103.91,97.48c-.32.42-.65.84-1,1.23,0,.19.32-.06.68-.53C103.79,97.84,104.15,97.36,103.91,97.48Z"/><path class="cls-3" d="M107.64,94.3a1.73,1.73,0,0,1-.63.41l.29.29C107.41,94.76,107.53,94.54,107.64,94.3Z"/><path class="cls-3" d="M104.76,98c0,.19-1.3,2,0,.42C104.81,98.22,105.8,96.94,104.76,98Z"/><polygon class="cls-3" points="85.36 112.04 85.72 111.87 85.38 111.29 85.36 112.04"/><path class="cls-3" d="M65.13,119c2,0,.42-.41,2.18-.42.43-.2-1.43,0-1-.18C65.18,118.64,64.56,118.6,65.13,119Z"/><path class="cls-3" d="M66.32,118.39a4.6,4.6,0,0,0,.58-.16C66.57,118.31,66.42,118.36,66.32,118.39Z"/><polygon class="cls-3" points="103.23 22.27 103.88 23.25 103.56 22.53 103.23 22.27"/><path class="cls-3" d="M105.06,23.7l-.16.48.74.32A2.8,2.8,0,0,1,105.06,23.7Z"/><path class="cls-3" d="M4.36,81.57l.13.05a2.56,2.56,0,0,0-.29-1Z"/><polygon class="cls-3" points="0.66 65.02 0.68 65.31 1 64.73 0.66 65.02"/><path class="cls-3" d="M.51,50.74C.41,51.32.4,52,.33,52.59.4,51.31,1,50.65.51,50.74Z"/></g></g></svg>