<svg xmlns="http://www.w3.org/2000/svg" xmlns:xlink="http://www.w3.org/1999/xlink" viewBox="0 0 122.87 113.22"><defs><style>.cls-1{mask:url(#mask);filter:url(#luminosity-noclip-2);}.cls-2,.cls-5,.cls-7{mix-blend-mode:multiply;}.cls-2{fill:url(#linear-gradient);}.cls-3{isolation:isolate;}.cls-4{fill:#f8b6bb;}.cls-5{fill:none;stroke:#c81f57;stroke-miterlimit:10;stroke-width:1.22px;}.cls-6{fill:#f5919a;}.cls-7{fill:#c81f57;}.cls-8{mask:url(#mask-2);}.cls-9{opacity:0.5;mix-blend-mode:screen;fill:url(#linear-gradient-2);}.cls-10{fill:#e56483;}.cls-11{fill:#f59baa;}.cls-12{fill:#faae19;fill-rule:evenodd;}.cls-13{filter:url(#luminosity-noclip);}</style><filter id="luminosity-noclip" x="41.43" y="-10238.96" width="3.16" height="32766" filterUnits="userSpaceOnUse" color-interpolation-filters="sRGB"><feFlood flood-color="#fff" result="bg"/><feBlend in="SourceGraphic" in2="bg"/></filter><mask id="mask" x="41.43" y="-10238.96" width="3.16" height="32766" maskUnits="userSpaceOnUse"><g class="cls-13"/></mask><linearGradient id="linear-gradient" x1="40.14" y1="51.11" x2="44.59" y2="44.26" gradientUnits="userSpaceOnUse"><stop offset="0" stop-color="#fff"/><stop offset="0.54" stop-color="#fff"/><stop offset="1"/></linearGradient><filter id="luminosity-noclip-2" x="41.43" y="43.12" width="3.16" height="6.67" filterUnits="userSpaceOnUse" color-interpolation-filters="sRGB"><feFlood flood-color="#fff" result="bg"/><feBlend in="SourceGraphic" in2="bg"/></filter><mask id="mask-2" x="41.43" y="43.12" width="3.16" height="6.67" maskUnits="userSpaceOnUse"><g class="cls-1"><path class="cls-2" d="M42.2,46.12s-.31,3.18,2.39,3.43a1.9,1.9,0,0,1-2.77-1.16c-.87-2.18,0-3.94,0-4.88S42.32,43.31,42.2,46.12Z"/></g></mask><linearGradient id="linear-gradient-2" x1="40.14" y1="51.11" x2="44.59" y2="44.26" gradientUnits="userSpaceOnUse"><stop offset="0" stop-color="#dda0a4"/><stop offset="0.54" stop-color="#d96f64"/><stop offset="1" stop-color="#ab3e40"/></linearGradient></defs><g class="cls-3"><g id="Layer_2" data-name="Layer 2"><g id="Layer_1-2" data-name="Layer 1"><path class="cls-4" d="M43,.61C18.77.61,9.53,8.82,5.22,36.87,2.9,51.93.56,48.33.61,54.56c0,4.1,1.53,4.45,1.85,11,1.31,27,11.19,49,47.84,46.94,19-1.06,34.1-9.87,37.08-39.39.33-3.18,1-6.6,1.86-11a7.82,7.82,0,0,1,1.21-2.77,6.69,6.69,0,0,0-.86-8.47,6.13,6.13,0,0,1-2.21-4.36C87.41,31.23,87.12.61,43,.61Z"/><path class="cls-5" d="M43,.61C18.77.61,9.53,8.82,5.22,36.87,2.9,51.93.56,48.33.61,54.56c0,4.1,1.53,4.45,1.85,11,1.31,27,11.19,49,47.84,46.94,19-1.06,34.1-9.87,37.08-39.39.33-3.18,1-6.6,1.86-11a7.82,7.82,0,0,1,1.21-2.77,6.69,6.69,0,0,0-.86-8.47,6.13,6.13,0,0,1-2.21-4.36C87.41,31.23,87.12.61,43,.61Z"/><path class="cls-6" d="M51.31,9.24c-8.68,2.47-8.92-2-16.56-1.07C22.7,9.64,10.8,12.1,8,44.67,7.67,48.62,4.57,52,4.52,55.24c-.07,3.69,3,7.22,3.55,11.26a147.64,147.64,0,0,0,4.41,19.21c1.94,6.85,17.46,23.52,39.58,21C70,104.58,85.44,88.27,84.9,69.4A35.11,35.11,0,0,1,87,57.59,5.84,5.84,0,0,0,86.15,52a14.94,14.94,0,0,1-2.79-6.57C80.06,29.06,73.33,5.27,51.31,9.24Z"/><path class="cls-7" d="M80,52.64c-2.69-21.88-12.8-24.82-22.17-24.33-3.58.18-6,.41-8.26,3.6-1.35,1.92-.85,9.61-.69,11.82.13,1.91.3,4.51-.9,6.13-1.32,1.77-6.38,3.11-7.53-.94-.69-2.46,1-8,1-10.57s-1-6.08-2.74-7.77c-2.3-2.25-6.29-2.45-9.14-2.32-5.4.24-9.77,2.13-13.71,10.39a44.42,44.42,0,0,0-3.67,15.56,49.86,49.86,0,0,0,7.94,28c10.16,18.21,41.77,18.88,52.42,0C72.53,82.25,82.09,69.32,80,52.64Z"/><g class="cls-8"><path class="cls-9" d="M42.2,46.12s-.31,3.18,2.39,3.43a1.9,1.9,0,0,1-2.77-1.16c-.87-2.18,0-3.94,0-4.88S42.32,43.31,42.2,46.12Z"/></g><path class="cls-10" d="M14,62.2A43.94,43.94,0,0,0,25.34,87C36,98.68,55.61,96,62.28,91.55s15-16.9,16.16-25.92c1.59-13-24-5.28-29.65-4.34s-17.19-3.13-29.41-3.8C11.91,57.07,14,62.2,14,62.2Z"/><path class="cls-11" d="M49,62.5A113.62,113.62,0,0,1,65.63,61c8,0,10.48,1.55,11.23,2.47a2.15,2.15,0,0,1,.38,1.92c-1.86,8.83-9.46,21.05-15.64,25.15-2.68,1.78-8.39,3.58-15.08,3.58-4.88,0-14-1-20.27-7.94A44.4,44.4,0,0,1,15.17,61.72a2.72,2.72,0,0,1,.18-1.21c.46-.71.75-.49,3.46-.49l1,0c5.18.28,10.18,1,14.6,1.54,3.18.42,6.06.8,8.57,1,0,0,3.24-.94,2.87,5.37a56.83,56.83,0,0,0,.36,11s-.6,3.88,1.08,4.25c.89.2-.58-8.49-.36-12.27a51.67,51.67,0,0,0-.42-7.43C46.63,62.76,49,62.5,49,62.5Z"/><polygon class="cls-12" points="117.81 40.8 122.87 40.8 114.57 27.02 105.72 40.8 110.78 40.8 110.78 65.23 105.72 65.23 114.57 79 122.87 65.23 117.81 65.23 117.81 40.8"/></g></g></g></svg>