<svg xmlns="http://www.w3.org/2000/svg" viewBox="0 0 124.67 113.17"><defs><style>.cls-1{fill:#fff7ee;}.cls-2{fill:#fee7cf;}.cls-3{fill:#fdd1a9;}.cls-4{fill:none;stroke:#c97e7b;stroke-miterlimit:10;stroke-width:2px;}</style></defs><g id="Layer_2" data-name="Layer 2"><g id="Layer_1-2" data-name="Layer 1"><path class="cls-1" d="M122.75,79.18c-2.44-9.11-11.43-15.74-20.83-16.36-4.59-.31-9.16.63-13.69,1.42a53.4,53.4,0,0,1-14.42,1c-4.81-.48-9.63-2.2-13.08-5.58S55.5,51.62,54.31,47c-.88-3.5-1.47-7.22-.43-10.66.77-2.53,2.35-4.71,3.56-7,3.61-7,3.84-15.13,4-23,0-1.32,0-2.77-.86-3.76A5.42,5.42,0,0,0,57,1.19c-.56-.05-1.13-.11-1.71-.14,1.34,5,2.6,12.92-.38,19.8-4.65,10.71-13.34,16-12.33,27.89S50,73.2,68.22,74.21s33-6.87,41.64,1,9.09,22,8.69,30.72a9.22,9.22,0,0,1-3.15,6.21A12.6,12.6,0,0,0,118,112c5.52-1,5.59-4.1,5.6-6.95l.06-15A41.1,41.1,0,0,0,122.75,79.18Z"/><path class="cls-2" d="M118.55,105.94c.4-8.69,0-22.84-8.69-30.72s-23.45,0-41.64-1S43.56,60.66,42.55,48.74s7.68-17.18,12.33-27.89c3-6.88,1.72-14.82.38-19.8-2.19-.14-4.42,0-6.1,1.32-2.4,1.89-2.69,5.33-3.34,8.31A25.79,25.79,0,0,1,41.05,21a1.66,1.66,0,0,1-2.07.47c-5.44-2.86-11.21-5.79-17.26-6.05C19.15,21.69,16,32.63,16.27,48.13c.41,26.08,20.62,35.17,39.82,39.42,16.7,3.69,34.47-3.63,41.74-3.73,1.18-.78,2.38-1.55,3.6-2.26a3.76,3.76,0,0,1,2.23-.54c1.7.18,2,1.49,2.27,2.67A164.37,164.37,0,0,1,109,106.87c.1,1.65.31,3.54,1.68,4.46a6.53,6.53,0,0,0,3,.72c.57.06,1.13.09,1.7.1A9.22,9.22,0,0,0,118.55,105.94Z"/><path class="cls-3" d="M19.67,15.73A18.78,18.78,0,0,0,5,25.34a28.23,28.23,0,0,0-2.65,8.28,59.41,59.41,0,0,0,10.18,44.7,62.52,62.52,0,0,0,38.84,24.61,39.42,39.42,0,0,0,10.5.74c7.5-.6,14.46-4.13,20.71-8.32C88,91.77,93,87.68,98.31,84.13c-7.27.11-25,7.42-41.74,3.73-19.2-4.24-39.41-13.34-39.82-39.41C16.51,32.94,19.63,22,22.2,15.68A21.41,21.41,0,0,0,19.67,15.73Z"/><path class="cls-4" d="M39,21.42A1.66,1.66,0,0,0,41.05,21a25.79,25.79,0,0,0,4.77-10.27c.65-3,.94-6.42,3.34-8.31C51.29.7,54.28.91,57,1.19a5.42,5.42,0,0,1,3.61,1.33c.87,1,.89,2.44.86,3.76-.16,7.84-.39,16-4,23-1.21,2.34-2.79,4.52-3.56,7-1,3.44-.45,7.16.43,10.66,1.19,4.66,3,9.34,6.42,12.71s8.27,5.1,13.08,5.58a53.4,53.4,0,0,0,14.42-1c4.53-.79,9.1-1.73,13.69-1.42,9.4.62,18.39,7.25,20.83,16.36A41.1,41.1,0,0,1,123.66,90l-.06,15c0,2.85-.08,5.92-5.6,6.95a14.41,14.41,0,0,1-4.3.09,6.53,6.53,0,0,1-3-.72c-1.37-.92-1.58-2.81-1.68-4.46a164.37,164.37,0,0,0-3.07-23.18c-.24-1.18-.57-2.49-2.27-2.67a3.76,3.76,0,0,0-2.23.54c-6.78,4-12.77,9.11-19.29,13.48-6.25,4.18-13.21,7.71-20.71,8.32a39.84,39.84,0,0,1-10.5-.74A62.6,62.6,0,0,1,12.09,78,59.38,59.38,0,0,1,1.91,33.3,27.78,27.78,0,0,1,4.56,25a18.74,18.74,0,0,1,14.62-9.61c7-.61,13.61,2.74,19.8,6Z"/></g></g></svg>