<svg xmlns="http://www.w3.org/2000/svg" viewBox="0 0 63.84 94.02"><defs><style>.cls-1{isolation:isolate;}.cls-2{fill:#f8cdb2;}.cls-3{fill:#a9dde1;}.cls-4{fill:#f7c4a4;}.cls-5{fill:#010101;}.cls-6{opacity:0.32;}.cls-7{fill:#421a1a;}.cls-10,.cls-13,.cls-8{mix-blend-mode:multiply;}.cls-9{fill:#f5a1c0;}.cls-10,.cls-13{fill:#c16768;}.cls-10{opacity:0.93;}.cls-11{fill:#f16161;opacity:0.21;}.cls-12{fill:#edc5ab;}.cls-13{opacity:0.15;}.cls-14{fill:#e59a36;fill-rule:evenodd;}.cls-15{fill:#cfedfc;}</style></defs><g class="cls-1"><g id="Layer_2" data-name="Layer 2"><g id="Layer_1-2" data-name="Layer 1"><path class="cls-2" d="M8.53,30c6.68,7.29,14.21,15.27,24.18,14.4a7.31,7.31,0,0,0,3.36-.85,4.7,4.7,0,0,0,1.67-5.41C36.32,34,32,34.06,28.27,33.36a26.29,26.29,0,0,1-4.71-1.22c-4.06-1.63-7.14-5.31-11.41-6.35a2.86,2.86,0,0,0,.1-2.09c-.45-1.21-1.7-2.11-1.71-3.42,0-.46.15-.93.12-1.39s-.39-1-.85-.9a.85.85,0,0,0-.49.3,2.71,2.71,0,0,0-.4,2.28A5.25,5.25,0,0,1,9,22.93c-.9-1.34-1.93-2.6-2.89-3.89a3.55,3.55,0,0,0-.88-.93.93.93,0,0,0-1-.07A1,1,0,0,0,4,19a4.17,4.17,0,0,0,.75,1.54,22.77,22.77,0,0,1,1.9,2.75L3.2,20.83a2.26,2.26,0,0,0-1-.5.86.86,0,0,0-.95.54,14.61,14.61,0,0,0,4.13,3.85A45.88,45.88,0,0,1,1.49,21.9a.77.77,0,0,0-.63-.28.54.54,0,0,0-.38.44,1.13,1.13,0,0,0,.09.6c.63,1.57,2.5,2.46,3.69,3.55a5.49,5.49,0,0,1-2.77-.76c-.33-.19-.73-.43-1.07-.24-1,.55.14,1.71.68,2a5.76,5.76,0,0,0,2.57.54,1.66,1.66,0,0,1,.8.12,1.81,1.81,0,0,1,.6.71A3.4,3.4,0,0,0,8.53,30Z"/><path class="cls-2" d="M39.69,33.14a8.08,8.08,0,0,1,2.49,2,10.72,10.72,0,0,1,1.55,3.42c1,3.13,1.2,6.09,1.75,9.2.5,2.84,3.43,4.65,5.43,6.37a14.5,14.5,0,0,1,4.72,13.59,13.72,13.72,0,0,1-10,10.49c-4,.89-8.12-.28-11.68-2.16a15.84,15.84,0,0,1-4.61-3.41c-5.5-6.29-2.3-14.86-4.11-22.13-.91-3.64-1.53-7.5-.62-11.2s3.7-7.2,7.4-7.92A11.24,11.24,0,0,1,39.36,33Z"/><path class="cls-2" d="M29.38,63.86a11,11,0,0,0-1.82.07,21.06,21.06,0,0,0-7,2.46,12.51,12.51,0,0,0-2,1.23,11.67,11.67,0,0,0-3.62,6c-.21.67-1.47,7-1.88,6.89-1.77-.59-2-2.44-2.38-4s-1.14-4.11-3-4.53a1.41,1.41,0,0,0-1,.09.76.76,0,0,0-.38.89c.13.31.54.52.48.86-.11-.37-.68-1.06-1.11-1a.85.85,0,0,0-.68.62.82.82,0,0,0,.31.85.73.73,0,0,0-1,0,.63.63,0,0,0,.13,1c-.26-.27-.78.06-.77.44a.87.87,0,0,0,.72.75.63.63,0,0,0-.5.65.74.74,0,0,0,.52.64c.19.06.41.07.52.23a.82.82,0,0,1,.06.47C4.87,79.76,6.73,81,7.53,82a31.4,31.4,0,0,0,3.1,3.32c1.66,1.47,4,2.61,4.51-.53A4.87,4.87,0,0,1,18,81.56,19.57,19.57,0,0,0,22,79.48a5.59,5.59,0,0,0,1.63-6c2.81.24,5.38,1.29,8.29.56A5.37,5.37,0,0,0,36,70.11a4.82,4.82,0,0,0-1.62-4.28A7.9,7.9,0,0,0,29.38,63.86Z"/><path class="cls-3" d="M25.66,58a.87.87,0,0,0-.07-.17,16.17,16.17,0,0,0,18.89.77,6.92,6.92,0,0,0,2.58-7.11,1.17,1.17,0,0,1-.06-.69.68.68,0,0,1,.68-.38,1.5,1.5,0,0,1,.75.33A5.83,5.83,0,0,1,50,52.54a3.12,3.12,0,0,0,.77,1.11,2.35,2.35,0,0,0,1,.34,13.65,13.65,0,0,1,6.4,3.1c1.91,1.75,2.11,4,2.45,6.48A12,12,0,0,1,59,71.28c-1.38,2.29-4,4.31-6.2,5.75a16.52,16.52,0,0,1-7.93,2.61,21.08,21.08,0,0,1-11.85-3A14.4,14.4,0,0,1,28.59,73a20.55,20.55,0,0,1-1.94-4c-.64-1.36-1.35-2.31-1-4a1,1,0,0,0,0-.47.86.86,0,0,0-.26-.37,2.78,2.78,0,0,1-1-2.85,14.77,14.77,0,0,1,1-1.49A2.16,2.16,0,0,0,25.66,58Z"/><path class="cls-2" d="M41.06,71.19a9,9,0,0,0,.11,1.64A17.37,17.37,0,0,0,43.77,79,10.36,10.36,0,0,0,45,80.76a11.35,11.35,0,0,0,6,2.91c1.81.4,9.86.27,6.82,4.35a3.71,3.71,0,0,1-3.13,1.33,8.48,8.48,0,0,0-1.59-.08,1.37,1.37,0,0,0-1.22.9c-.13.53.43,1.13.9.88.2-.1.33-.31.52-.43a.69.69,0,0,1,1,.36,1.49,1.49,0,0,0-1.23.58c-.25.41,0,1.07.43,1.08s.59-.3.87-.51.76-.27.87.05c-.43-.25-1,.27-1,.77a1,1,0,0,0,1.11.78,2,2,0,0,0,1.28-.8c-.32.44.14,1.1.67,1.09a1.41,1.41,0,0,0,1.16-1c-.16.18,0,.46.27.53a1.55,1.55,0,0,0,1.46-.51c.4-.38.7-.86,1.12-1.21,2.52-2.13,3.07-6.43,1.9-9.38A3,3,0,0,0,62.17,81a1.39,1.39,0,0,0-1.75.15c-.21.25-.37.62-.69.65-.9-1.85-1.76-4-3.51-5.13-.45-.29-5.44-2.19-5.53-.79.17-2.56,1.15-4.93.36-7.51a4.85,4.85,0,0,0-4-3.51,5.23,5.23,0,0,0-4.2,1.72A7.09,7.09,0,0,0,41.06,71.19Z"/><path class="cls-4" d="M4.24,75.09a.64.64,0,0,1,0-.89.73.73,0,0,1,1,0,.81.81,0,0,1-.31-.85.86.86,0,0,1,.68-.62c.44-.07,1,.62,1.12,1,.07-.44-1.11-1.33.14-1.39a1.45,1.45,0,0,1,.8.27,4.82,4.82,0,0,1,1.92,2.24c.46,1.1.51,2.35,1,3.45.66,1.56,2.06,2.2,3,3.44a.37.37,0,0,0,.22-.25c.78-2.47,1.57-4.93,2.35-7.4a17.74,17.74,0,0,1,1.75-4.22A8.55,8.55,0,0,1,21.37,67c.76-.37,3.55-1.87,4.08-1a6.6,6.6,0,0,0,.37.7s.09.09.14.07a2,2,0,0,1,0-.93c0-.1.07-.22.17-.25a.36.36,0,0,1,.26.06L27,66a2.43,2.43,0,0,0-.85-1.25c-.8-.83-2.26-2.14-1.73-3.45a13.31,13.31,0,0,1,1-1.49A2.19,2.19,0,0,0,25.61,58a1.22,1.22,0,0,0-.07-.17l.26.19a31.3,31.3,0,0,0-.64-7.47c-.91-3.65-1.54-7.51-.63-11.21a11.13,11.13,0,0,1,6.28-7.62c3.62-1.4,7.22-.06,7.14,4.17A20.49,20.49,0,0,1,37,40.62c-1.6,6.14-1.84,13,1.46,18.46a2.45,2.45,0,0,1,.45,1.05c.15,1.65-1.06,2.69.3,4.29a7,7,0,0,0,2.82,1.79,5.14,5.14,0,0,1-3.36,1.16c-1.21,0-2.43-.08-3.63.08-.24,0-.54.17-.5.41s.2.24.36.29a14.14,14.14,0,0,0,5.55.79,4.53,4.53,0,0,1,1.47,0c1.51.44,1.67,3.82,2.06,5.09.64,2.11,1.52,4.32,3.35,5.55,1.43,1,3.22,1.2,4.91,1.59a22.52,22.52,0,0,1,7.06,3c3.94,2.55,2.52,5.73-1.12,7.61-.54.28-2.51,1.56-3.06,1.44-1-.22-.68-.92,0-1.14a.62.62,0,0,0-.82,0c-.27.21-.53.51-.87.51S52.78,92,53,91.57A1.49,1.49,0,0,1,54.26,91a.68.68,0,0,0-1-.36c-.2.12-.32.33-.52.43-.48.25-1-.35-.9-.87a1.37,1.37,0,0,1,1.21-.91,8.48,8.48,0,0,1,1.59.08A3.67,3.67,0,0,0,57.79,88c3.05-4.08-5-4-6.82-4.35a11.32,11.32,0,0,1-6-2.91,7.92,7.92,0,0,1-.84-1.09,21.41,21.41,0,0,1-11.22-3,16.44,16.44,0,0,1-3.21-2.35c-2.08,0-4-.64-6.17-.82a5.59,5.59,0,0,1-1.63,6A19.5,19.5,0,0,1,18,81.57a4.85,4.85,0,0,0-2.88,3.22c-.51,3.14-2.85,2-4.51.53A29.59,29.59,0,0,1,7.48,82c-.8-1-2.66-2.23-2.58-3.64a.77.77,0,0,0-.05-.48c-.12-.16-.34-.17-.53-.23A.75.75,0,0,1,3.8,77a.63.63,0,0,1,.51-.65.87.87,0,0,1-.73-.75A.56.56,0,0,1,4.24,75.09Z"/><path class="cls-2" d="M55.53,31.11a1.75,1.75,0,0,1,1.2-.79c1.54-.23,2.41.46,4-.62a5.21,5.21,0,0,0,2-3.64c.15-1.31-.35-2.91-1.61-3.12a3.42,3.42,0,0,0-2.57,1.18c1.59-3.86.65-7.12-1-10.74a21.8,21.8,0,0,0-6.4-8.21A24.41,24.41,0,0,0,34.61.05a23.09,23.09,0,0,0-9.17,2.6,15.44,15.44,0,0,0-4,2.94c-.7.74-2.65,3-2.34,4.11A3.75,3.75,0,0,0,17.37,7a2.68,2.68,0,0,0-2.61.5,5.69,5.69,0,0,0-2.08,4.32A5.35,5.35,0,0,0,13.21,14a4,4,0,0,0,1.12,1.58,2,2,0,0,0,1.83.4c-.83.28-1.3,3.3-1.44,4.1A9.18,9.18,0,0,0,15.29,25,14.86,14.86,0,0,0,20,31.17a20.46,20.46,0,0,0,4.14,2c1.21.59,1.71,1.74,2.88,2.47a9.83,9.83,0,0,0,5.69,1.4,20.4,20.4,0,0,1,5.64.72A17.07,17.07,0,0,0,55.53,31.11Z"/><path class="cls-5" d="M25,14.1c1.51-2.73,5.54-3.35,5.56.6A8,8,0,0,1,30.18,17a12.84,12.84,0,0,1-.67-2.21C29,12,26.86,13.56,25,14.1Z"/><path class="cls-5" d="M42.11,21.57a4.08,4.08,0,0,1,4.33-2.46c1.88.56,2.42,3,1.86,4.6a13.11,13.11,0,0,0-.95-2.09c-1.14-2.25-3.5-.86-5.24-.05Z"/><g class="cls-6"><path class="cls-7" d="M26.9,10c.63-2.29,4.26-2.2,4.7.17A3.68,3.68,0,0,0,26.9,10Z"/></g><g class="cls-6"><path class="cls-7" d="M46,16.74a1.93,1.93,0,0,1,3.28,2c-.2-.41-.27-.85-.44-1.16-.6-1-1.61-.89-2.84-.85Z"/></g><g class="cls-8"><path class="cls-9" d="M33.59,20.18a1.27,1.27,0,0,1,.18-1.81,2,2,0,0,1,2-.3,2.06,2.06,0,0,1,1.39,1.48,1.33,1.33,0,0,1-.87,1.61,1.39,1.39,0,0,0-.82-2.22c-.92-.38-2,.09-1.89,1.24Z"/></g><path class="cls-10" d="M29.82,22.07a1.81,1.81,0,0,0-.74,1.09c-.39,1.66,1.13,3.54,2.61,4a4.56,4.56,0,0,0,4-1.32c1.72-1.88-1.6-2.22-2.63-2.67a8.59,8.59,0,0,1-1.36-.89,1.93,1.93,0,0,0-1.54-.39A2.07,2.07,0,0,0,29.82,22.07Z"/><path class="cls-11" d="M30.63,24.83a1.12,1.12,0,0,0-.44.24c-1,.9.81,1.89,1.5,2.12,1.08.36,5.56-1.17,4-2.54a2.11,2.11,0,0,0-.74-.39A4.21,4.21,0,0,0,33.3,24a2.35,2.35,0,0,0-1.53.64.66.66,0,0,1-.19.15.62.62,0,0,1-.33,0A1.44,1.44,0,0,0,30.63,24.83Z"/><path class="cls-12" d="M17.14,22.55c4.8,8.7,10.27,18.26,20.11,19.7a7.27,7.27,0,0,0,3.44,0,4.75,4.75,0,0,0,2.84-4.92c-.43-4.42-4.66-5.38-8.06-6.91a25,25,0,0,1-4.27-2.29c-3.56-2.53-5.71-6.85-9.59-8.85a2.94,2.94,0,0,0,.56-2c-.16-1.29-1.16-2.46-.88-3.74.1-.46.36-.88.44-1.34s-.16-1-.62-1.08a.9.9,0,0,0-.54.18,2.77,2.77,0,0,0-.91,2.14,5.27,5.27,0,0,1-.42,2.34,19,19,0,0,0-2.57-4.76,2.17,2.17,0,0,0-1.42-1,.64.64,0,0,0-.36.06c-.31.17-.3.62-.21,1,.47,1.66,1.76,2.79,2.15,4.56l-1.75-2a10.83,10.83,0,0,0-1.42-1.72.74.74,0,0,0-.84-.07c-1.4.93,1.9,4.31,2.45,4.93-1.09-1.23-2-2.62-3.13-3.81a.84.84,0,0,0-.31-.25c-.33-.13-.71.2-.77.57a1.62,1.62,0,0,0,.27,1A16.28,16.28,0,0,0,14,17.52a4.61,4.61,0,0,1-2.8-1c-.38-.27-1.52-.8-1.4.2.16,1.38,2,2.16,3.15,2.44a1.61,1.61,0,0,1,.75.3,1.79,1.79,0,0,1,.41.84A3.39,3.39,0,0,0,17.14,22.55Z"/><path class="cls-13" d="M9.88,16.61a5.06,5.06,0,0,0,1.37,1.47c1.23.78,2.79.27,4,.83S16.6,21.35,18,21.76c.39.11.87.09,1.16.39a1.56,1.56,0,0,1,.28.58c1.26,3.93,4,7.73,6.79,10.72a24.38,24.38,0,0,0,11,6.88,8,8,0,0,0,3.46.4,3.62,3.62,0,0,0,2.78-2,4.61,4.61,0,0,1-2.82,3.56,7.14,7.14,0,0,1-3.44,0c-9.84-1.44-15.31-11-20.11-19.69a3.41,3.41,0,0,1-3-2.24,1.79,1.79,0,0,0-.41-.84,1.72,1.72,0,0,0-.75-.3C12.13,19.1,8.89,17.8,9.88,16.61Z"/><path class="cls-14" d="M44.29.81S39.84-.06,37.7,2.4,36.82,7.25,33,8A8.45,8.45,0,0,0,39.76,5.9s-.95,3.73-4.13,4a11.42,11.42,0,0,0,8-2.46s.16,2.06-2.47,3.1-3.1,4.29-.87,4.61,4-1.27,3.5-2.55c0,0-1.13,2-2.93,1.86s-.41-2.73.94-3.21a12.57,12.57,0,0,0,4.21-2C48.11,7.89,50.17,4.55,48.51,3A10.12,10.12,0,0,0,44.29.81Z"/><path class="cls-3" d="M41.17,72.83a9,9,0,0,1-.11-1.64,7.09,7.09,0,0,1,1.83-4.66,5.23,5.23,0,0,1,4.2-1.72,4.85,4.85,0,0,1,4,3.51c.79,2.58-.19,5-.36,7.51.06-.89,2.1-.44,3.7.07A17.44,17.44,0,0,0,59,71.28a12,12,0,0,0,1.66-7.71c-.34-2.44-.54-4.73-2.45-6.48a13.65,13.65,0,0,0-6.4-3.1,2.35,2.35,0,0,1-1-.34A3.12,3.12,0,0,1,50,52.54a5.83,5.83,0,0,0-1.6-1.82,1.5,1.5,0,0,0-.75-.33.68.68,0,0,0-.68.38,1.17,1.17,0,0,0,.06.69,6.92,6.92,0,0,1-2.58,7.11,16.17,16.17,0,0,1-18.89-.77.87.87,0,0,1,.07.17,2.16,2.16,0,0,1-.16,1.82,14.77,14.77,0,0,0-1,1.49,2.78,2.78,0,0,0,1,2.85.86.86,0,0,1,.26.37,1,1,0,0,1,0,.47c-.39,1.64.32,2.59,1,4a20.55,20.55,0,0,0,1.94,4A14.4,14.4,0,0,0,33,76.63a21.26,21.26,0,0,0,11.21,3c-.14-.22-.28-.43-.42-.66A17.37,17.37,0,0,1,41.17,72.83Z"/><path class="cls-15" d="M49.15,54.21s.14,1,2.8,1.48,6.33,2,6.92,5.71-.59,9.41-3.21,11.77-3.21.85-3.21.85,2-5.22-.15-8.31a9.48,9.48,0,0,0-10.19-3.48S48,61.43,49.15,54.21Z"/></g></g></g></svg>